<?xml version="1.0" encoding="UTF-8"?>
<svg id="Layer_2" xmlns="http://www.w3.org/2000/svg" xmlns:xlink="http://www.w3.org/1999/xlink" version="1.1" viewBox="0 0 425.2 197.3">
  <!-- Generator: Adobe Illustrator 29.4.0, SVG Export Plug-In . SVG Version: 2.1.0 Build 152)  -->
  <defs>
    <style>
      .st0 {
        fill: #451022;
      }

      .st1 {
        fill: #ee3026;
      }

      .st2 {
        fill: url(#linear-gradient);
        fill-rule: evenodd;
      }

      .st3 {
        fill: #2d2d2c;
      }

      .st4 {
        fill: #f5f6f6;
      }

      .st5 {
        fill: #ee3a68;
      }
    </style>
    <linearGradient id="linear-gradient" x1="173.2" y1="216.6" x2="252.8" y2="216.6" gradientTransform="translate(0 -124)" gradientUnits="userSpaceOnUse">
      <stop offset="0" stop-color="#441223"/>
      <stop offset=".5" stop-color="#ef3b68"/>
      <stop offset="1" stop-color="#ee3227"/>
    </linearGradient>
  </defs>
  <g id="Layer_1-2">
    <g>
      <g>
        <path class="st0" d="M49.8,28.2h91.5c13.9,0,25.1,11.2,25.1,25.1v88c0,13.9-11.2,25.1-25.1,25.1H49.8c-13.9,0-25.1-11.2-25.1-25.1V53.3c0-13.9,11.2-25.1,25.1-25.1Z"/>
        <g id="vlpa">
          <g id="vlpb">
            <path class="st5" d="M76.2,64.3v60.8c0,.7-.3.9-.8.9h-11.6c-.5,0-.8-.3-.8-.9v-60.8c0-.5.3-.8.8-.8h11.5c.3,0,.7.2.8.6v.2h.1Z"/>
            <path class="st5" d="M110.3,126.8c-4.4,0-8.7-.8-12.7-2.7-3.7-1.7-6.8-4.6-8.9-8-2.2-3.6-3.2-8.1-3.2-13.5s1.1-8.7,3.2-12.5c2.2-3.8,5.5-7,9.4-9.2,4.1-2.3,9.1-3.4,14.9-3.4s.7,0,1.2,0,1.1,0,1.8,0v-18.7c0-.4.2-.7.6-.7h12c.3,0,.5.2.6.4v56.3c0,1.1,0,2.2,0,3.5,0,1.2.2,2.4.2,3.4s-.2.8-.6.9c-3.1,1.3-6.3,2.2-9.6,2.8-2.9.5-6,.8-9.1.8h0v.5ZM116.1,115v-26c-.5,0-1.1-.2-1.6-.3-.7,0-1.3,0-1.9,0-2.3,0-4.6.5-6.7,1.5-2,1-3.7,2.5-5,4.4s-1.9,4.4-1.9,7.5.3,4.1,1,6.1c.6,1.6,1.5,3,2.7,4.2s2.5,1.9,4,2.4c1.6.5,3.2.8,4.9.8s1.7,0,2.5,0c.8,0,1.5,0,2.1-.3h0Z"/>
          </g>
        </g>
      </g>
      <g>
        <path class="st1" d="M276.7,11.5c-9.9,0-18,8.1-18,18v138.2c0,9.9,8.1,18,18,18h105.7c9.9,0,18-8.1,18-18V54.1s.3-3.3-1.2-6.6c-1.4-3-3.6-5.1-3.6-5.1h0l-26.2-25.7h0s-2.2-2.1-5.6-3.6c-3.9-1.8-7.9-1.6-7.9-1.6h-79.3,0Z"/>
        <path class="st4" d="M276.7,17.4h79.3s3.2,0,5.5,1c2.2,1,3.8,2.4,3.8,2.4h0l26.2,25.7s1.6,1.7,2.3,3.4c.6,1.4.6,3.9.6,3.9h0v113.9c0,6.8-5.3,12.1-12.1,12.1h-105.7c-6.8,0-12.1-5.3-12.1-12.1V29.5c0-6.8,5.3-12.1,12.1-12.1h.1Z"/>
        <path class="st1" d="M294.1,115.2c-4.1-4.1.3-9.7,12.3-15.6l7.5-3.7,2.9-6.4c1.6-3.5,4-9.3,5.3-12.8l2.4-6.4-1.7-4.7c-2-5.8-2.8-14.5-1.5-17.6,1.8-4.2,7.5-3.8,9.8.7,1.8,3.5,1.6,10-.5,18.1l-1.7,6.7,1.5,2.6c.8,1.4,3.3,4.8,5.4,7.5l4,5,5-.7c16-2.1,21.5,1.5,21.5,6.6s-12.6,6.9-23.1-.5c-2.4-1.7-4-3.3-4-3.3,0,0-6.6,1.3-9.9,2.2-3.4.9-5,1.5-10,3.1,0,0-1.7,2.5-2.9,4.3-4.2,6.8-9.1,12.4-12.6,14.4-3.9,2.3-8,2.4-10.1.4h.4ZM300.5,113c2.3-1.4,6.9-6.9,10.1-12l1.3-2.1-5.9,3c-9.1,4.6-13.3,8.9-11.1,11.5,1.2,1.5,2.7,1.3,5.6-.5h0ZM359.7,96.3c2.2-1.6,1.9-4.7-.6-6-2-1-3.5-1.2-8.7-1.1-3.1.2-8.2.8-9,1,0,0,2.8,1.9,4,2.6,1.6.9,5.6,2.7,8.5,3.6s4.5.8,5.8,0h0ZM335.9,86.4c-1.4-1.4-3.7-4.4-5.1-6.6-1.9-2.5-2.9-4.3-2.9-4.3,0,0-1.4,4.5-2.5,7.2l-3.6,8.8-1,2s5.5-1.8,8.3-2.5c3-.8,9-2,9-2l-2.2-2.7h0ZM328.2,55.6c.4-2.9.5-5.8-.4-7.2-2.6-2.8-5.7-.5-5.2,6.2.2,2.3.7,6.1,1.5,8.5l1.4,4.3,1-3.3c.5-1.8,1.3-5.6,1.8-8.6h0Z"/>
        <path class="st3" d="M301,134.1h6.6c2.1,0,3.8.2,5.1.6,1.3.4,2.4,1.3,3.3,2.6.9,1.3,1.4,3,1.4,4.9s-.4,3.3-1.1,4.5-1.7,2.2-3,2.7c-1.2.6-3.1.8-5.7.8h-2.3v10.4h-4.4v-26.7h0v.2ZM305.4,137.5v9.3h2.2c2,0,3.3-.4,4-1.1.8-.7,1.1-1.9,1.1-3.6s-.2-2.2-.7-3-1-1.2-1.6-1.4c-.6-.2-1.5-.3-2.8-.3h-2.2ZM320.8,134.1h6c2.9,0,5.2.5,7,1.5s3.1,2.6,4,4.6,1.4,4.3,1.4,6.8-.4,4.9-1.2,7c-.8,2-2,3.7-3.7,4.9-1.6,1.2-4,1.9-7,1.9h-6.3v-26.7h-.2ZM325.2,137.6v19.6h1.8c2.6,0,4.4-.9,5.6-2.7s1.7-4.2,1.7-7.1c0-6.5-2.4-9.8-7.3-9.8h-1.8ZM343.3,134.1h14.8v3.5h-10.4v8h8.3v3.5h-8.3v11.6h-4.4v-26.7h0Z"/>
      </g>
      <path class="st2" d="M181.6,54.2c-1.9-1.9-5.1-1.9-7,0s-1.9,5.1,0,7l31.3,31.3-31.3,31.3c-1.9,1.9-1.9,5.1,0,7s5.1,1.9,7,0l34.8-34.8c1.9-1.9,1.9-5.1,0-7l-34.8-34.8h0ZM216.4,54.2c-1.9-1.9-5.1-1.9-7,0s-1.9,5.1,0,7l31.3,31.3-31.3,31.3c-1.9,1.9-1.9,5.1,0,7s5.1,1.9,7,0l34.8-34.8c1.9-1.9,1.9-5.1,0-7l-34.8-34.8Z"/>
    </g>
  </g>
</svg>