<?xml version="1.0" encoding="UTF-8"?>
<svg id="Layer_2" xmlns="http://www.w3.org/2000/svg" version="1.1" viewBox="0 0 311.8 311.8">
  <!-- Generator: Adobe Illustrator 29.3.1, SVG Export Plug-In . SVG Version: 2.1.0 Build 151)  -->
  <defs>
    <style>
      .st0 {
        fill: #987861;
      }

      .st1 {
        fill: #d8b68e;
      }

      .st2 {
        fill: #48545b;
      }

      .st3 {
        fill: #4b565c;
      }

      .st4 {
        fill: #e5c6a2;
      }

      .st5 {
        fill: #ebccab;
      }

      .st6 {
        fill: #724222;
      }

      .st7 {
        fill: #47525a;
      }

      .st8 {
        fill: #424e57;
      }

      .st9 {
        fill: #130c08;
      }

      .st10 {
        fill: #444f58;
      }

      .st11 {
        fill: #251916;
      }

      .st12 {
        fill: #bf936a;
      }

      .st13 {
        fill: #efd2b4;
      }
    </style>
  </defs>
  <g id="Layer_1-2">
    <g>
      <path class="st8" d="M75.5,217c0-.1-1.2-.2-.9.6s1.3-.2.9-.6Z"/>
      <path class="st4" d="M233.4,68.4c-.1.7.4.4.7.5,1.2.4,2.6.9,3.7,1.3.5,1.1,3.2,2.4,4.3,3.5s1.5,1.5,1.3,2.4-1.2,1.4-1.4,1.5c-.5.3-1.1-.5-1.6-.8-1.1-.6-.9-.5-1.8-1.2s-2-.9-3-.6-2.4,1.3-2.5,1.5c-.5.5-.4,1.2-.8,1.5s-1.6,0-1.9.5c-.7,1,1,.6.8,1.3s-1.7,1-2,1.5l-5.5-.9c-.9,0-2.2,1.7-3.1,2.3s-.9.2-1.4.5c-.7.4-2.2,2.7-2.3,3.5s.2.7,0,.9-.9.6-1.1,1.1c-.7,2.6-1.5,5.4-1.7,8.1s0,2,0,2.7,2.6,3.5,3.3,4,1.6.8,2,1.2,1.6,2.1,1.7,2.3c.5,1.1,0,1.7,0,2.6s.4.7.4,1.2c0,1.2-.4,2.8,0,4.2s.7.2,1.1.8c1.7,2.4,0,5.4-.6,7.8s-1.2,4.6-2,5.7c-1.9,2.7-4.9,4.9-7.1,7.4s-4.9,6.8-6.3,7.2-1.3,0-1.4,0-.1.9-.6,1.4-1.2.5-1.7.9c-.9.8-2.3,3.6-3.9,3.2s-.6-.9-1.4-.6-.4.7-.6.8c-.5.3-1.6-.5-2.1-.3s-.4.6-.6.8c-1.2.9-2.2.3-2.6.6-.4.3-.6,1.1-.9,1.4s-1.2.2-1.2,1.3c-.2.2-1-.5-.9-.8.7-.4,1.1-.6.9-1.5-.8-.2-2,.8-2.1-.4s1-.4,1.4-.9c1.3-1.8-1.7-1.4-2.7-1.9s-1.5-1.2-1.6-1.7.4-1,.3-1.5c0-.9-1.1-1.5-.4-3s6.8-2.1,8.7-2.9.8-.6,1.3-.8,1.6,0,1.6-1.1h1.4v.4c0,0-1.9.7-2.3.9s-.5,1.1-1.1,1.5-3.5.4-3.4,1.8.9.2.7.8c-.6.6-1.6.2-2,.4-1.4.9.4,1.8,1.4,1.9s2-.5,2.6.5-.3,2.2,1.2,2.1,1-1.8,1-1.9c.2-.2,1.3.2,1.7.2,1,0,6.3-2.6,7.3-3.2s2.2-2.2,3.1-2.8,4.1-2.3,4.5-3.1,0-1,.3-1.7,1.3-.7,1.5-1.1c.4-.8,1-2.4,1.6-3.3s1.7-2,2.4-3.2.7-.7.1-.9l.7-.7c.4-.4,1.1-.8,1.6-1.3.2-1.9,2.4-3.7,1.2-5.5s-1.8-.7-2.8-1-1.9-1.5-2.1,0c-.5,0-1.9.6-2.4.5s-.1-.5-.1-.5v-.7c0-.8-.4-1-.5-1.2s0-.5,0-.7c-.2-1.4-.6-1.3-.7-1.6-.1-.5.3-3.1-.2-3.5s-.9,0-1.2,0c-.9-.2-3.3-.7-3.8-1.2s-.8-2-1.7-2c-.2-1-.7-1.8-.9-2.6s0-.5,0-.7.3,0,.1-.2c-.2-.3-.4-.2-.6-.2v-.7c0-.2.2-.2.2-.5,1.1-.3.6.9.8,1.6s.6.6.7.9c.5,1.1.6,2.8,1.9,3.2,1.9.7,1.4-.4,2-1.5s1.5-2,1.6-2.1c.3-.3,1.1-.4,1.2-.7s-.3-.8-.4-1.2c-.1-1-.1-2.9-.7-3.8s-.5-.2-.5-.3c-.4-.6.8-2.1,1.1-2.7s0-1,.2-1.5.7-.8.8-1.1c.2-.7,0-2.5.3-3.4s3.2-7.3,3.9-8,2.4-1.9,2.6-1.9h1.1c.3,0,.4-.9.8-1.2,1.4-1.3,4.1-2.1,5.3-3.6.2-.6,0-2.3,1-1.6s.7,1.4,1.5,1.3,2.1-1.8,2.7-2,2.4.8,2.9-1-3.7-1.7-4.7-1.6c-1.6.2-2.6,1.2-4.1,1.5-3.8.8-6.7,1.3-9.8,4s-1.6,1.6-3,2.7c1.1-1.2,2.1-2.6,3.4-3.7,2.1-1.9,4.9-2.8,7.4-3.7,1,.3,2.3-.3,3.3-.6s.8,0,.7-.6h.5c.2,0,.2.2.4.2.8,0,1.7-.4,2.7-.2v-.5h1.2l-.3-.2v-.2h0ZM190.5,141.2c-.3-.3-.7.2-.5.5s.7-.2.5-.5Z"/>
      <path class="st5" d="M214,77.5c1.4-1.1,1.8-1.6,3-2.7,3.1-2.7,6-3.1,9.8-4s2.4-1.4,4.1-1.5,5.1.2,4.7,1.6c-.4,1.4-2.2.8-2.9,1s-2.3,1.9-2.7,2c-.8.2-1.2-1-1.5-1.3-1-.7-.8,1-1,1.6-1.2,1.5-3.9,2.3-5.3,3.6s-.7,1.2-.8,1.2h-1.1c-.4,0-2.3,1.7-2.6,1.9-.8.6-3.6,6.8-3.9,8s-.2,2.7-.3,3.4-.7.6-.8,1.1,0,1-.2,1.5c-.2.6-1.4,2.1-1.1,2.7s.4,0,.5.3c.5.8.5,2.7.7,3.8s.5,1,.4,1.2-.8.4-1.2.7-1.5,2-1.6,2.1c-.6,1.1,0,2.1-2,1.5s-1.4-2.1-1.9-3.2-.6-.5-.7-.9c-.2-.7.3-1.9-.8-1.6v-.9h-.5c0-.2,0-.4-.2-.5v-1.9c0-.2.2-.2.2-.5.1-.7.7-2-.2-2.6-.2-.8.2-1.3.5-1.9-.2.7.5.3.7.6s.4,1.3.5,1.4c0,.8-.7,1.4-.4,2.3s1.1-.2,1.3-.3c.4-.3,2-1.1,2.1-1.2s0-.9.2-1.4c.3-.9,2.2-2.4,2-3.6s-.5-.6-.5-1,.4-1.8.5-2.1,2.3-2.8,2.7-3.6l.8-4.4c-.3-1.6-2.2-.2-2.9.4s-1.2,2.1-2.2,2.3c.2-.3.4-.9.7-1.4s.4-.3.5-.5c.2-.2.3-.3.5-.7.5-.8,0-.5.9-1.2s1.3-1,2.1-1.6v.2s-.1.1-.1.1Z"/>
      <path class="st13" d="M209.4,82.9c1.1-.2,1.5-1.6,2.2-2.3s2.6-1.9,2.9-.4l-.8,4.4c-.4.8-2.6,3.3-2.7,3.6s-.5,1.9-.5,2.1c0,.3.4.6.5,1,.2,1.2-1.6,2.7-2,3.6s0,1.3-.2,1.4-1.8.9-2.1,1.2-.9,1.5-1.3.3.5-1.4.4-2.3-.4-1.3-.5-1.4c-.2-.3-.9,0-.7-.6v-.5h.2s0,.4.5.2v-1.4c0-.4,0-.2,0-.2.5,0,.7,0,.2-.5v-.7h.2c.9,0,.3-.2.2-.5s0-.3,0-.5l.2-.2c.5,0,.7,0,.2-.5v-1c.2,0,.3-.4.5-.5s.5,0,.7,0c.2-.2.2-1.3.3-1.6.3-1.1.8-1.8,1.4-2.8h.2q0,.1,0,0Z"/>
      <path class="st12" d="M233.9,68h.5c2.8,1.2,5.9,2.3,8.1,4.3s1.7,2.6,3.1,2.7v.2c.3.6.3,1.3.9,1.8s1.1.3,1.6.7,1.9,1.8,1.9,2.1c-.7.3-1.8,0-2.5-.3-.9-.5-.8-.9-2-1.2s-.7,0-.9,0-.1-.2-.3-.2c-.4,0-1.4.6-1.3,1.1,0,0-.1.2-.2.2-.2,0-.5,0-.7.4-.4,1.2.7,2.2-1.7,2l.5.9c-.3,0-2.3-.8-1.6-1.4s1.7,0,2.2-.2.2-2,.8-2.7,2.7-1.2,3.3-.8c.3-1.2-.9-1.6-1.3-2.2-1.9-2.4-3.5-3.9-6.4-5,0,0,.1-.3-.1-.5-.5-.4-3.5-1.3-4.3-1.4s-.8,0-1.2,0c-1,0-2.2,0-3,.5h-.5c-1.6,0-2.6.7-4,1.2-2.4.9-5.2,1.9-7.4,3.7-2.2,1.8-2.3,2.5-3.4,3.7-.8.6-1.2,1.1-2.1,1.6.4-.9,1.4-1.8,2.1-2.6s1-.5.9-1.2c.8-.7,1.9-1.7,2.6-2.6.4,0,.6,0,.5-.5h.2c.3,0,.5-.2.5-.5.5-.2,2.3-.9,2.6-1.2.3,0,.5-.2.5-.5h.7c4.5-.9,6.2-2.4,11.4-2.3v.2h0Z"/>
      <path class="st1" d="M206.1,106.5c.9,0,1.3,1.6,1.7,2s2.9,1,3.8,1.2,1.1,0,1.2,0c.6.5.1,3,.2,3.5s.5,0,.7,1.6h-.5c0-.3-.4-.6-.7-.7-.2-1.3-1.5-1.2-2.3-1.7s-2.2-2.2-2.7-2.8.3-.5-.5-.6-.2,0-.2,0c0-.3-.2-.5-.5-.5v-.5c0-.5-.1-.9-.2-1.4s0-.2,0-.2h0Z"/>
      <path class="st0" d="M244.8,73.8c.3.4.5.8.7,1.2-1.4,0-2.2-1.9-3.1-2.7-2.3-2.1-5.4-3.2-8.1-4.3,3.3,0,8.4,3.2,10.5,5.8h0Z"/>
      <path class="st0" d="M222.4,70.3c-.1-.6.3-.5.6-.6,3.1-1.4,6.6-2.3,10-2.2s.9-.2.8.5c-5.3,0-6.9,1.4-11.4,2.3h0Z"/>
      <path class="st0" d="M212.6,114.2c.3,0,.6.4.7.7s0,.5,0,.7h.5c0,.2.4.4.5,1.2-1,.2-.8-.5-.9-1.2-.2,0-3.1-1.7-3.3-2-.7-.8-.5-.7-1.4-1.4s-1.6-2-1.6-2.7c1.4,2,2.8,3.3,4.9,4.5s.6,0,.7,0h0v.2q-.1,0,0,0Z"/>
      <path class="st12" d="M210.1,81.5c-.3.5-.5,1.1-.7,1.4-.6,1-1.1,1.7-1.4,2.8-.2,0-.3.2-.5.2v-.5c0-.6.5-1.3.7-2.1.4,0,.5,0,.5-.5.3-.2.5-.4.5-.7l.2-.5c.2,0,.4-.2.7-.2h0Z"/>
      <path class="st0" d="M204.9,104.6c.7.5.3,2.2,1.2,2.1.1.5.2.9.2,1.4-.7,0-1.3-1.9-1.4-2.4-.2-.8,0-.6,0-1.1Z"/>
      <path class="st12" d="M206.1,106.5v.2c-.8,0-.5-1.6-1.2-2.1v-.7h.2c.2.8.7,1.6.9,2.6h.1Z"/>
      <path class="st5" d="M208,85.7c0,.3,0,1.4-.3,1.6s-.6,0-.7,0v-1.4h.5c.2,0,.3-.2.5-.2h0Z"/>
      <path class="st5" d="M205.4,91.8v1.4c-.4,0-.4-.2-.5-.2,0-.6-.3-1.3.5-1.2Z"/>
      <path class="st12" d="M204.5,100.6h.5c.1,0,0,.8,0,.9s-.2.4-.2.5h-.2v-1.4h-.1Z"/>
      <path class="st0" d="M215,75.4c0,.7-.6.8-.9,1.2-.2-1,.6-.9.9-1.2Z"/>
      <path class="st0" d="M205.2,103.2v.7h-.7s.3-.5.3-.6h.5-.1Z"/>
      <path class="st2" d="M203.1,106.9c.4.2,1.1,0,.9.7-.5,0-1.1,0-.9-.7Z"/>
      <path class="st0" d="M206.1,89.4v.5l-.2.5h-.2c0-.2-.3-.8-.2-.9h.7-.1Z"/>
      <path class="st12" d="M211,80.3c-.2.4-.3.5-.5.7-.6-.2,0-.7.5-.7Z"/>
      <path class="st0" d="M204.7,102v.7h-.5c-.2-.2.2-.7.2-.7h.3Z"/>
      <path class="st12" d="M207,109c.8.2.3.3.5.6.5.6,2.1,2.4,2.7,2.8.8.6,2.2.4,2.3,1.7h-.7c-2.1-1.2-3.5-2.6-4.9-4.5v-.5h.1q0,0,0,0Z"/>
      <path class="st12" d="M205.2,103.2h-.5v-.5c.2,0,.4,0,.6.2s-.1.2-.1.2h0Z"/>
      <path class="st0" d="M221.7,70.3c0,.3-.2.5-.5.5.2,0-.4-.3.5-.5Z"/>
      <path class="st0" d="M206.3,108.6c.3,0,.5.2.5.5h-.5c-.1,0,0-.3,0-.5Z"/>
      <path class="st0" d="M218.7,71.9c0,.3-.2.5-.5.5v-.5h.5Z"/>
      <path class="st0" d="M218,72.4c0,.4,0,.5-.5.5.3-.4-.4,0,.5-.5Z"/>
      <path class="st0" d="M204.5,100.6c-.9,0-.3-.2-.2-.5.2,0,.2.3.2.5Z"/>
      <path class="st5" d="M205.6,91.1c.4.4.3.6-.2.5,0-.4.2-.4.2-.5Z"/>
      <path class="st5" d="M206.6,88.7c.4.4.3.6-.2.5,0,0,.2-.4.2-.5Z"/>
      <path class="st0" d="M206.6,87.8v.5c-1.4-.3,0-.4,0-.5Z"/>
      <path class="st0" d="M207.5,85.5v.5h-.5c0-.4,0-.5.5-.5Z"/>
      <path class="st0" d="M208.7,82.9c0,.4,0,.6-.5.5.2-.8.1-.2.5-.5Z"/>
      <path class="st0" d="M209.4,81.7l-.2.5h-.2c-.1-.6.2-.3.5-.3h-.1v-.2Z"/>
      <path class="st0" d="M214.3,117.4h-.2c0-.2,0-.4.2-.5v.5Z"/>
      <path class="st6" d="M124.5,179.4c0,.2,0,.5-.2.7-.2.3,0,.3-.5.7-.7.6-1.6.5-2.6.7h-.2c0,.6-.3.5-.6.7-.9.5-1.9.9-2.9,1.2,0,1.1,1.8.3,1.1,1.4-.4.7-2,.2-2.8.7-.5.3-3.8,4.2-4.5,5-1.2,1.4-2.4,3.2-3.6,4.5-.4.5-.9,1.1-1.5,1.2,0,.1-.2.3-.2.5-.6,1.2-1.3,1.8-2.3,2.8s-.6.7-.9.9c0,.4,0,.5-.5.5v.5c0,.1-.3,0-.5,0,0,.5-.2.7-.7.7v.2c-.4.9-1.3,1.9-2.1,2.3,0,0,0,.2-.2.2,0,1-.8,1.3-1.1,1.7-.6.8-1,2.5-2.2,2.7v.2c0,.2,0,.6-.3.8l-1.6,2v.2c0,.3-.2.5-.5.5,0,.2,0,.3-.2.5,0,.5-.2.7-.7.7h-.2c0,.5-.5.8-.7,1.3-.2.4,0,1.1-.3,1.3,0,.1-.4,0-.4,0l-.2.2c-.9,1.7.9,1.9.7,3.4,0,.4-.4.3-.5.5v1.5c-.7,0-1.6.1-1.8-.6-.3-.7.6-.4.4-.9,0-.2-.5-.4-.6-.6-.3-.7-.4-1.1-.8-1.8v-.8s-.7-.2-.7.4c0,1,.6,1.2.7,2-2.2,0-3.3-.7-3.3-3-.2,0-.4.2-.5.2,0,1.4.2,2.6,1.1,3.7.7.9,3.9,2.4,5.1,2.8.7.2,2.2.4,2.9.5.5-.2,1.1-.4,1.7-.5v-.3s-1.6-.5,0-1.2c2.2-1,1.3.4,1.3,1.2h0c.4,0,.8-.2,1.2-.2v-.3c.2-1.2-.4-1.7,1.1-2.3,3.4-1.2,10.2-.2,13.9-.3,1.2,0,2.7-.8,4.1-.4v-.7c-.8-.2-1.7.2-2.4.2-2.3,0-4.5-.2-6.9-.2h-4.9c-2,0-1.9-.2-3.4-.7-.6-.2-2.3,0-2.4-1-1.2,0-3.5,0-3.9-1.3s.6-1.6,1.2-2.4c5.3-7.7,10.9-13.9,16.9-21,1.4-1.7,2.7-3.5,4.2-5.1v-.4c2-2.2,3.2-1.4,6-1.5h.7c.3,0,.5-.2.7-.2,0-.6.2-1,.7-1.2.3-.5.3-1.2.5-1.6,0,0,.4,0,.4,0,0,0,0-.5.2-.8.5-.7,4.2-2.1.7-2.7h-.2q0,0,0,.1Z"/>
      <path class="st0" d="M78.3,174.1c.7,0,1.5-.7,1.6.9s-1.2.4-1.4.9c-.3.9,1.1.7,1.1,1.2s-.3.7-.2.8c.4.4,2.3-.7,3.1-.4s1.2,1.2,1.4,1.4,0,.6.3.7c.5,0,3.5,0,3.8.5s0,.8,0,.9,2.2-.2,2.5.3,0,.5,0,.6,1,0,1.4,0c.9.3,3.6,1.7,3.8,1.8.6,0,1.3-.4,1.9-.4s1.1.4,1.8.3c1.3,0,3.5-1.5,5-1.6s1.9.3,2.5.5.2.4.3.5c.7,0,4.4-1.5,5-.9.3.9-.9,1-.9,1.1v1.4c-.2,1.2-7.1,8.7-8.4,10.3-3.6,4.4-6.8,9.1-10.8,13s-1,1.6-1.3,2-.8.3-.9.4v.9c0,.2-.5,0-.8.3-.5.5-.7,1.2-1.1,1.7s-.5.3-.6.4c-.3.5,0,1.1,0,1.7s-.3.8-.2.8h.7c0,.1-1.3,3.3,2.1,1.2-.9,1.7.9,1.9.7,3.4s-.4.3-.5.5v1.5c-.7,0-1.5.1-1.8-.6s.7-.4.4-.9-.5-.3-.6-.6c-.3-.7-.4-1.1-.8-1.8s0-.7,0-.8-.7-.2-.7.4c0,1,.6,1.2.7,2-2.2,0-3.3-.7-3.3-3s.3-1.3.5-1.5.6-.1.6-.2.8-1.8,1.2-2.4c2.8-3.8,6.7-7.3,9.8-11,4.8-5.7,9.2-11.7,14.2-17.3l.3-.8c-1.9-.4-2.1-1.4-3.7.2-.4,0-.5,0-.5.5-.2.2-.3.7-.5.9s-.3,0-.4,0c-.2.2.2.8-.5.6.3-1.9-.5-1.2-.7-1.4-.4-.4,1.2-1.6.7-2.1s-2.1,1.6-2.5,1.9c-.6,0-.2-.5-.5-.7-1.3-.9-2.5.6-3.4.9s-2.1.2-2.4,0,0-.6-.3-.7c-.9-.5-5.6-1.4-6.8-1.4s-.7.2-.8.2h-.5c-.2-1.6-1.1-1-2.2-1.2s-2.5-2.6-3.9-.4h-.7c-.2-1-.9-.5-1.1-.7s0-.2-.8-.9-.7-.3-1.6-.5-.4-.4-.6-.5-.8,0-.9-.2-.4-1.9-.5-2.3c0,0,.2-.2.5-.2h1c.4,0,.8-.9,1.6-.7l-.7-1.2.3-.4h0ZM86.5,218.6c-.7-1.2,1.1-2.2-.7-2.6.2.6-.7,1.1-.7,1.5s1,1.5,1.4,1.1Z"/>
      <path class="st0" d="M53.1,164.5c.5,0,2.9.5,3,.7.8,1.1-1.6.8-2.1.7-.4.3,0,2.8-.3,3.5.5,0,3.4,0,3.5-.2s-.2-1.5.4-1.6.9.6,1.4.7,1.1-.6,2.3,0,.3,1,1.3.7c0,.7-.9.8-.7,1.6h1.6c0,.7-.4.5-.8.5-2.5,0-2.1-1.3-2.6-1.4s-.9.2-1,.2h-1.2c-.4,0-1,0-1.2.2h-4c-1.3,0-.3,0-.5,0h-.5c0-2-.8-1.3-1.4-1.7s-1-1.7-.5-2.1h.2c.9-.2,2.5-.6,2.8-1.6h.3s0,0,0,0Z"/>
      <path class="st12" d="M45.4,165.9v.5c-.8.2-1.6.3-2.3.5s-.6.2-.9.2-.8,0-1.2.2c-.1-.6.3-.5.7-.6,1.3-.4,2.4-.6,3.7-.8h0Z"/>
      <path class="st3" d="M107.2,184.1c-.2.2-.2.3-.5.5,0-.4,0-.5.5-.5Z"/>
      <path class="st1" d="M139.9,118.3c3.7.3,7.4.2,11.2.2-.2.7.9.7.7,0h1.4c.7.6,1.5.6,2.3.7,0,1,1.6.4,2.1.5s.5,0,.7,0,.1,0,.5.2c0,.2,0,.4.2.6s2.2,1.2,2.3,1.2c1.1.3,2.5.3,3.7.8s.6.3.9.5c0,.7.9.7,1.3,1s.9,1.4,1.4,1.8c.9.8,2.1,1.3,3.1,1.9s.3,0,.7.5c.7.9,1,.9,1.6,1.6,1.1,1.2.6,1.4.7,2.5,0,1.1.4,2.1.5,3.3,0,2.2-.8,5-.8,7.3-.7,1.6-1.3.3-1.4.2-1.7-.4-1,3.1-1.6,4s-1.2.4-1.5,1-.2.9-.3,1.3c-1.6,3.4-4.3,5.2-6.6,7.8s-2.3,4.2-3.6,5.2-1.2.7-2.6,2.3-1.3.7-1.9,1.2-1.8,1.6-2.1,2.5h-.2c-2.1,1-4.3,2-6.3,2.9s-1.2,1.2-1.9,1.6-4.5,1.1-4.6,1.3c-.3.4.9.7.5,1.2s-3.3.2-3.8.3c-1.5.2-3.5.9-4.9.9s-2.2-.9-3.7-.4-2.9,3-3.2,3.5c0,.2,0,.5-.2.7-.6.2-1-.7-1.1-.7-1-.2-1.1.8-1.7,1s-2,.2-2.7,1.3c-1-.2,0-1.6-1.3-1.1s-2.5,1.3-2.6,1.4c-.9.9-.9,2.4-2.8,2.1-.6-.9.5-1.1.7-1.4s0-.8.2-1.2,1.6-1.8.4-2.1-2.4,1-3.5,1.1-1.9,0-2.8,0c-2.8,0-5.5.9-8.4,1s-2.9-.2-4.2-.3-1.2.4-1.6.3,0-.7-.6-1.1-1.5-.3-2-.8c-.3-.4.4-.7.4-1s-1.2-.7-1.6-.6c.8-1.9-1.3-1-1.9-1.2s-.5-.6-.9-.8c-.6-.3-1,0-1.5-1.1-1-2.4.7-1.7,1.2-2.5s-.2-1.7,0-2.3c1.3.2,4.3.7,5.5.5s0-.8.4-1.1.5,0,.6,0h4.7c.2,0,.4.5.3.8s-.8.3-.9.4,0,.7,0,.9c-.4.7-2.2,0-2.8,0s-.8.4-1.2.5-1.3-.4-1.7,0c-.6.5,0,1.4,0,1.8s-.8,1-.2,1.4,3.5,0,4.3-.4.4-.7.8-.8c1.6-.6,4-.5,5.8-.5s1,0,1.3.2c-.3,0-1.9.4-2,.5,0,1.1-2.5,2.6-1.2,3.4,0,0,0,.5-.3.7s-1,.6-1.2.9-.2,1.1,0,1.2,2.3.2,2.6,0c2.2-.3,4.6-1.2,6.8-1.5s2.1.3,2.5.2.9-1.2,1.2-1.3c.5-.2,4.1-.2,3.3-1.4s-1.9-.2-2.4-.3-1.4-.4-1.9-.4-1.1.6-2.1.5-1.4-.7-2.1-.7-1.4.7-2.1.9-1.3,0-1.9,0c0-.5,1.1-1,1.4-1.3s1.9-.7,2.1-1.2-.2-.3-.2-.3v-.5c.6-.5,5.5-.6,6.6-.7,3-.4,5.5-1.8,8.4-2s5.6.5,8.3,0,1.1-.8,1.8-.8,1.1.3,1.6.2c1.1-.2,2.1-1.8,2.9-2.2s2.2-.9,2.3-1c.4,0,.9.3,1.5.2s2.4-2.2,3.1-1.1-1.1,1.8-1.7,2.3-.5.8-.8,1.1c-1.8,1.7-5.1,2.3-7.5,3.4s-1.7,1-2.6,1.4-1.4,0-1.1.7c.6,1.5,3.9,0,4.8-.3,1.9-.4,4.2-.4,6-1.4s.3-.7.5-.7c.5,0,1,.5,1.6.5s3-1,3.2-1.2c1.2-.8,2.6-3.4,3.4-4.1s1.1-.3,1.7-.6c1.2-.6,1.5-1.8,2.4-2.3,2.8-1.7,5.7-3.9,7.9-6.3s.4-1.2.9-1.6c1.5-1.3,2.3-1.6,3.9-3.4s1-.5,1.1-1.1-.3-.9-.2-1.3,1.5-1,.7-2.5c.5,0,1.5.2,1.9,0s.9-2.6,1.1-3.1.7-.6.8-1.1c.1-.9-1.7-4.2-1.4-4.5,1.7.7,3.7.9,3.5,3.3.7.2.3-.6.8-1s1,0,1.2-.4c.3-.5.4-2.7.3-3.4,0-.9-1.4-5.2-2-5.7s-.9,0-1.5.2c-1.3.3-.8-.2-1.3-.7-1.1-1.4-.8-1.6-1.4-2.8s-2.3-1.3-3.2-1.5-.9.2-1.2,0c-.6,0-1.4-1.3-2.7-1.5s-2.5-.4-2.6,0c0,1.6.8,1.3,1.6,1.8s.7,1.3-.1,1.3-1.2-1.3-1.6-1.6c-1.2-.9-7.5-2.6-8.9-2.6s-1.7.6-3,.5c-3.4-.3-5.8-.7-9.3-.7s-6-.3-8.8,0-6,1.7-8.2,1.3-1.4-.2-3.5.2-5.9.9-8.6.5-4.7,2.1-7.2,3.1-5.2,1.2-7.7,1.9c-2.5.7-3.7,1.6-5.4,2.1-2.9,1-6.1,2-8.9,3.5-2.8,1.5-1.9,0-3.4.2v-.5h.5c.5,0,1.9-.4,1.6-.9h.5c.5,0,1.4,0,1.2-.7h.5c.4,0,1.1-.2,1.4-.4s.2-.5.2-.6.2-.2.2-.2h.5s.3.4.5.2,0-.4,0-.5c0-.2.4-.2.5-.2h.9c2.1-.4,5-1.8,7-2.7,2-.9.8,0,.7-.6h.2c.6,0,1.8,0,1.6-.7h.9c.5,0,1.4,0,1.2-.7h.2c.4,0,.9,0,1.4-.2s.2-.5.3-.5.4,0,.5-.2h.9c.6,0,.7-.5.7-.5.4,0,.9-.2,1.4-.2,1.2-.2.4,0,.7-.5s.3,0,.5,0c.5,0,1.6,0,1.4-.7h1.9c.4,0,.8.7.7-.2,9.1-1.8,17.6-4.7,26.9-6.3s.9.3.8-.5h3.3c1.2,0,.8,0,.7-.6h.7c.4,0,1.3.8,1.2-.2h.7l-.6-.4s0,0-.1-.1Z"/>
      <path class="st0" d="M133.3,119.3c0,.8-.4.4-.8.5-9.3,1.6-17.8,4.5-26.9,6.3s-.6,0-.7.2h-1.4c2.7-.9,5.4-1.6,8.2-2.3s4-.8,4.2-.9l.5-.2h.5c2,0,6.6-2,9.1-2.5s5.1-1,7.5-1h-.2s0,0,0,0Z"/>
      <path class="st0" d="M140.8,118.1c3.5.2,7.3,0,10.9,0s.9-.2.8.5h-1.4c-3.8,0-7.5,0-11.2-.2v-.2h.9s0,0,0,0Z"/>
      <path class="st0" d="M95.8,128.6l-.5.5h-.2c-.5,0-1.4,0-1.2.7h-.9c-.6,0-1.2.2-1.6.7h-.2c-2.1.5-3.9,1.5-6.1,2.1l2.4-1.4c1.5-.6,3.3-.7,4.6-1.6,1.2-.2,2-.7,3-.9s.5,0,.7,0h0Z"/>
      <path class="st0" d="M55.4,140.3c.7,0,1.1,0,1.2.7h-.5c-.2,0-.2-.3-.6-.2-1,0-2.8.9-3.6,1.4l-.5-1.6h1.4c.9,0,.8,0,1.4-.2s.8,0,1.2,0h0Z"/>
      <path class="st0" d="M80.4,134.2v.2c-.5.2-1.4.5-1.2.9h-.5c-.5,0-1.4,0-1.2.7h-.5c-.5,0-1.7.2-1.6.9h-1v-.5c.6,0,.9-.5,1.4-.7,1.5-.6,3-1.1,4.4-1.6h.2s0,0,0,0Z"/>
      <path class="st12" d="M74.6,137h.5v.5c-.7,0-1.3.6-2.1.7v-.7c.5,0,.9-.5.9-.5,0,0,.7,0,.7,0Z"/>
      <path class="st12" d="M80.9,134.4s0,.4-.2.6-1,.3-1.4.4c-.2-.4.7-.7,1.2-.9s.3,0,.5,0h0Z"/>
      <path class="st3" d="M74.6,136.5v.5h-.7c0-1.1.6-.5.7-.5Z"/>
      <path class="st0" d="M72.9,137.5v.7h-.4v-.7h.5,0Z"/>
      <path class="st0" d="M81.6,134v.2h-.5s.2-.4.2-.5l.2.2h0Z"/>
      <path class="st13" d="M214.3,117.4s-.1.4.1.5c.5,0,1.9-.5,2.4-.5s2.5.8,3,1.1c2.6,1.5-.9,5.1-.9,6.9l-.7.7c-3.7,3.8-4.9,8-9.5,11.2s-2.1,1.4-2.9,2-3.8,1.6-4.2,1.6c-.6,0-3-.7-3.3-1.2s.2-1.7.3-1.9c.4-.6,2.7-1.1,3-1.4s.2-.7.5-.9c1.6-1.7,3.9-2.1,5.5-3.1s2.7-3.9,3.6-5.6.2-.6.7-.9c.9-.7.6,0,1.2-1.4s.3-1.3.5-1.9,0-.3.2-.5c.1,0,.2,0,.2-.2,0-.4-.2-.7-.2-.8s.3.3.2-.8,0-.8,0-1.2v-1.4h.2v-.3h.1,0Z"/>
      <path class="st12" d="M213.1,124.2h-.5v-.7c0-.2.3-.5.5-.7l.5-.5c-.2.6-.2,1.2-.5,1.9Z"/>
      <path class="st0" d="M211.9,125.3v.2c-.5.4-.4.5-.7.9h-.2c-.6-.7.1-1,.2-1.4l.7.2h0Z"/>
      <path class="st4" d="M213.1,124.2c-.5,1.4-.3.7-1.2,1.4v-.2c.4-.4.5-.7.7-1.2h.5Z"/>
      <path class="st0" d="M214,118.8l-.2-.2s.1-.2.2-.2v.5h0Z"/>
      <path class="st10" d="M75.5,217c.4.4-.6,1.5-.9.6s.8-.7.9-.6Z"/>
      <path class="st1" d="M51.2,142.8c0,.6-.3.4-.7.6s-2.5,1-2.5,1.1c0,.2,0,.6-.3,1s-3.7,3.6-4,3.8-.8,0-1.3.3-.3.8-.7,1.2c-.8.8-2.9,1.5-3.2,2s-.2,1-.4,1.2c-.5.3-2.1-.3-1.9,1.3h1.2c-.9,1-2.7,1.5-3.6,2.3s-.3.6-.3.7c-.5.6-2,1.7-2.8,1.6.3-1.1.2-.7.2-1.8s1.4-1.2,1.8-1.8,0-.9.3-1.3l5.4-4.4c-.1-1.1-1.9,1.1-1.6-.6.9-.6,1.4-1.7,2.4-2.1,2.6-1.1,4.4-1.4,7.2-3s.6.2.5-.5c.6-.2,1.1-.5,1.6-.7.9-.3,1.9-.6,2.8-.9,0,0-.1,0-.1,0Z"/>
      <path class="st12" d="M36.8,150.1c-.3,1.7,1.5-.6,1.6.6l-5.4,4.4c-.3.4,0,.9-.3,1.3-.3.6-1.7.6-1.8,1.8s0,.6-.2,1.8c-.5,1.8-1.3,2.1.4,3.2s.8.3,1.4,1,.7,0,.5.7h-.5c0,.4-.5.9-.5.9,0,0,1.4.4,1.2.9h-.5c0-.4-.5-.5-.9-.5-.3-.7-.4-1.3.7-1.4v-.7c0,0-2.1-.3-3-1.4s-.3-.8-.5-1.2c.3-.3,1.4-2,1.4-2.2,0-.6-.4-1.4-.5-2.2s0-.5,0-.7h.6c1.3-1.6,2.1-3.2,3.7-4.6,1.6-1.4,1.7-1.1,2.5-1.6h0Z"/>
      <path class="st1" d="M56.1,141c-.5.4-1.2.3-1.8.6-1.1.5-1.6.8-2.8,1.3,0,0,0-.4.2-.5s.2-.2.2-.2c.9-.5,2.6-1.4,3.6-1.4s.5.2.6.2h0Z"/>
      <path class="st0" d="M51.7,142.4s0,.3-.2.5h-.2c-.9.3-1.9.6-2.8.9,0-.5,1-.8,1.3-.9.6-.2,1.3-.4,2-.5,0,0-.1,0,0,0Z"/>
      <path class="st0" d="M46.8,144.5c0,.7-.3.4-.5.5,0-.7.2-.4.5-.5Z"/>
      <path class="st1" d="M51.2,164.3c-.9.2-2.9.8-3.7,1.2s-.4,0-.5.2h-.5c-.4,0-.8.2-1.2.2-1.3.2-2.5.4-3.7.8s-.8,0-.7.6c-.2,0-.9.2-.9.2h-.5c-.2,0-.3-.4-.8-.5s-.3.4-.5.5c-2.1.5-3.4-.8-4.7-.9s-.2,0-.2,0c.2-.5-1.1-.8-1.2-.9s.4-.5.5-.9h.5c.2,0,.5.4.7.5s0,.3.4.4c1.5.6,2.5-.4,3.7-.4s1.4.7,2.1.6.9-.5,1.4-.6c1-.2,2.3,0,3.4-.3,1.6-.3,3.8-1.2,5.4-1.2s.9,0,1,.5h0Z"/>
      <path class="st12" d="M33.5,166.6c1.3,0,2.6,1.4,4.7.9,2.1-.5,0-.5.5-.5s.6.4.8.5v.2c-.7,0-1.2.2-1.6.2h-2.3l-.5-.2c-.2-.3-.4-.2-.5-.2-.3-.2-.5-.5-.9-.5,0,0-.2-.3-.2-.5h0s0,0,0,0Z"/>
      <path class="st0" d="M38,168c.4.7-1.9.8-1.6,0h1.6Z"/>
      <path class="st0" d="M32.8,166.6c-.6,0-.6.5-.9-.5.4,0,.8,0,.9.5Z"/>
      <path class="st0" d="M34.7,167.6c-1.1,0-.7,0-.9-.5.5,0,.6.2.9.5Z"/>
      <path class="st0" d="M40.1,167.6v.4c-.2.2-.4-.2-.4-.2v-.2h.5s-.1,0-.1,0Z"/>
      <path class="st0" d="M35.6,168s-.3.4-.5.2,0-.4,0-.5l.5.2h0Z"/>
      <path class="st1" d="M233.4,68.4c.7,0,3.8,1,4.3,1.4s0,.4.1.5c2.9,1.2,4.5,2.6,6.4,5s1.6,1,1.3,2.2c-.6-.4-2.9.4-3.3.8-.7.7-.6,2.5-.8,2.7-.5.4-2.1,0-2.2.2-.6.6,1.3,1.3,1.6,1.4s.6,0,.9.5c.3.5,0,.4,0,.4,0,0,2.1.4,2.6.6,3.1,1,4.6,1.7,6.6,4.4s.5.3.3.7c-.9,0-1.7-.9-2.6-.7s0,.8-1.3.4-.9-1-1.6-1.2-1.4-.2-2-.4c-1.8-.6-4.7-2.6-6.6-2.9s-3.2.3-4.6.2-2.7-.9-4-.9-2.8.4-4,.5-1-.2-1.5,0c-.8.2-2.5,1.8-2.8,2.7-.2,0-.4.6-.9.9s-.6,0-.9.4-.7,1.6-.7,1.7c0,.4.2.5.2.5-.3,1.4-1,2.6-1.2,4-1-.2-.3,1.4-.2,1.9s0,.9,0,1.4,0,.2,0,.2v.5c0,.6,0,1.7.4,2.1s1,.2,1.4.4.3,1.5,1.5,1.2c.2.3.3.5.5.7.9,1.3,1.6,3.6,3.5,3.5.2-1.6-2-1.2-1.6-3,1.2.3,2.7.8,3.6,1.9s.6,1.1.8,1.7.5.8.4,1.8-.3.2-.2.5h.5s.2,2.5.2,3c-.7,0-.6,0-.8-.5-.4-1.3-.7-2.6-1-3.9l-.8-.2c-.4,1.9.9,3.3,1.3,4.9s.5,2.4.5,3.2-.6,3,.5,3.1v.7c-.6-.2-.6.6-.7,1.2s.1.9-.2,1.2-.3-.5-.5.7,0,.2,0,.2c-.6-.2-.6,1-.7,1.6s0,.3,0,.5c-.5.2-1.4,1.5-.9,1.9,0,0-.4,1.3-.5,1.4s0,0-.5.5-.2.4-.2.5c-1.6,2.5-3.8,5.3-4.9,8.2-.8.5-1.3,1.2-1.6,2.1-.4,1.4,0,.2,0,.2-.9,0-.9.9-1.3,1.3-.5.6-1.6,1.2-1.5,2.2,0,0-.1.2-.2.2-2.3,1.8-4.5,3.8-6.6,5.6s-4.7,5.1-7.3,7-1.7.7-2.2,1.1-.6,1.2-1.6,1.3-.8-.2-1.3,0c-1.5.3-4.4,2.3-5.4,3.5s-.3,1.3-.9,1.6-1.1.3-1.6.5c-2.4,1.1-4.8,1.8-7.2,2.8s-3.1,1.9-4.5,2.5-3.6.6-4.2,2.4h-.2c-.6.3-.9.6-1.4.7,0-1.6-.9-.6-1.5-.7s-.5-.6-1-.7-1.2.4-1.8.2l.2-1.4c-4.3.2-.9-1,.3-2.1s1.2-1.9,2-2.9,2.1-1.7,2.8-3.1.2-1.1.5-1.6.9-.7,1.3-1.1c1.1-1.2,1.8-2.7,2.7-3.8s2.8-2.9,3.5-4c1.4-2.2.8-5.6,1.9-8.3s1.9-3.3,2.4-3.4,1.2.2,1.8.2,1.8-.3,2.5-.5.6.2.5-.5h.5c0,.8.3.3.7.3,1.3,0,3.4-.3,4.6-.5s1.8-1,3.2-1.2c0,.9-1.1.8-1.6,1.1s-.7.6-1.3.8c-1.9.8-7.9,1.3-8.7,2.9s.4,2.1.4,3-.5,1-.3,1.5,1.2,1.5,1.6,1.7c1,.5,4.1,0,2.7,1.9s-1.4.2-1.4.9c0,1.2,1.3.2,2.1.4.1.9-.2,1.2-.9,1.5,0,.4.7,1,.9.8,0-1.1.7-.9,1.2-1.3s.5-1.2.9-1.4,1.5.3,2.6-.6.3-.7.6-.8c.5-.3,1.6.6,2.1.3s.3-.7.6-.8c.8-.3,1,.6,1.4.6,1.6.3,3-2.4,3.9-3.2s1.1-.4,1.7-.9.5-1.3.6-1.4,1,0,1.4,0c1.5-.4,5.1-5.8,6.3-7.2,2.2-2.5,5.2-4.7,7.1-7.4s1.7-4.3,2-5.7c.6-2.4,2.3-5.4.6-7.8s-1.1-.6-1.1-.8c-.4-1.4,0-2.9,0-4.2s-.3-.8-.4-1.2c0-.9.5-1.5,0-2.6s-1.6-2.2-1.7-2.3c-.4-.4-1.5-.8-2-1.2-.7-.6-3.1-3.2-3.3-4s0-2,0-2.7c.2-2.7,1-5.6,1.7-8.1s1-1.1,1.1-1.1c0-.2-.2-.6,0-.9.2-.8,1.6-3.1,2.3-3.5s1-.2,1.4-.5c.9-.6,2.2-2.2,3.1-2.3l5.5.9c.4-.4,1.9-1,2-1.5.2-.7-1.5-.3-.8-1.3s1.3,0,1.9-.5.3-1,.8-1.5,2.4-1.4,2.5-1.5c.9-.3,2.2,0,3,.6s.7.6,1.8,1.2,1,1,1.6.8,1.3-1.3,1.4-1.5c.2-.8-.7-1.8-1.3-2.4-1.1-1.1-3.8-2.4-4.3-3.5-1.1-.5-2.5-.9-3.7-1.3s-.9.2-.7-.5v-.2h-.1q0-.1,0-.1Z"/>
      <path class="st5" d="M218.2,126c.6.3,0,.7-.1.9-.7,1.2-1.6,1.9-2.4,3.2s-1.1,2.6-1.6,3.3-1.1.4-1.5,1.1-.1,1.4-.3,1.7c-.4.7-3.7,2.5-4.5,3.1s-2.1,2.1-3.1,2.8-6.3,3.2-7.3,3.2-1.5-.3-1.7-.2,0,1.8-1,1.9-1.1-1.9-1.2-2.1c-.6-.9-1.8-.4-2.6-.5s-2.9-1-1.4-1.9,1.4,0,2-.4c.2-.6-.7-.6-.7-.8-.1-1.4,2.5-1.3,3.4-1.8s.7-1.2,1.1-1.5,2.1-.8,2.3-.9,0-.4,0-.4c.5-.4.6-.5,1-.9s1,0,.9-.8c.6-.3,1.3-.5,1.9-.7s1.1,0,.9-.7c.3,0,.1-.3.9-.5s.6.2.5-.5c.3,0,.4,0,.7-.2.6-.2,1.4-.3,1.9-.8s.2-.5.2-.6c.9-1,2.5-2.4,3-3.5s0-.2,0-.2c.5,0,.8-.2.7-.7.2,0,.5,0,.7-.2h.2c-.9,1.7-1.9,4.4-3.6,5.6-1.7,1.2-3.9,1.5-5.5,3.1s-.2.7-.5.9c-.4.3-2.7.8-3,1.4s-.5,1.7-.3,1.9c.3.5,2.7,1.3,3.3,1.2s3.8-1.3,4.2-1.6c.8-.5,2.2-1.4,2.9-2,4.6-3.2,5.8-7.3,9.5-11.2v.3h.1Z"/>
      <path class="st0" d="M209.6,127.7c-.5,1.1-2.1,2.5-3,3.5-.6.4-2.1.7-2.1,1.4-.3,0-.4,0-.7.2s-.6-.2-.5.5c-.8.2-.6.3-.9.5s-1.1,0-.9.7c-.6.2-1.3.4-1.9.7s-2.4.7-2.6,1.6h-.7c-1.4.2-2.2.9-3.2,1.2s-3.3.5-4.6.5-.7.5-.7-.3c2.1-.2,4.3-.8,6.3-1.4s.8,0,1.2-.2.6.2.5-.5c.7-.2.7-.3,1.2-.5,3.9-1.7,6.8-3.4,10-6.1s.2-.2.2-.2c0,0,.4,0,.6-.2.6-.5,1-1.3,1.7-1.4h.1,0Z"/>
      <path class="st5" d="M218.9,125.3c0-1.8,3.6-5.4.9-6.9s-2.5-1.1-3-1.1c.1-1.4,1.5,0,2.1,0,1,.3,2.1,0,2.8,1,1.2,1.8-1,3.6-1.2,5.5-.5.5-1.1.9-1.6,1.3h0v.2Z"/>
      <path class="st1" d="M228.7,68.9c.1.6-.3.5-.7.6-1,.3-2.3.9-3.3.6,1.4-.5,2.4-1.1,4-1.2h0Z"/>
      <path class="st1" d="M199.6,135.1c.1.7-.6.6-.9.8s-.5.5-1,.9h-.7c.2-.9,1.8-1.3,2.6-1.6h0q0,0,0-.1Z"/>
      <path class="st1" d="M232.2,68.4v.5c-.9-.2-1.8.2-2.7.2s-.3-.2-.4-.2c.9-.6,2-.5,3-.5h.1,0Z"/>
      <path class="st12" d="M213.8,114.9v.7h-.5v-.7h.5Z"/>
      <path class="st5" d="M190.5,141.2c.3.3-.2.7-.5.5s.2-.7.5-.5Z"/>
      <path class="st0" d="M246.2,75.2c0,.9.4.2.5.2.3,0,1,.5,1.2.7s.2.6.5.8c1.4,1.5,1.6,2,2.6,3.7s2.9,1.8,4,2.6,1.6,1.3,2.3,1.8c-.6,1.1-1.7-.3-2.7-.2-1.4,0-1.7.7-3.9.2s-1.9-1.2-1.8-.2c-.6-.3-4.5-1.7-5.1-1.8s-1.2.2-1.9,0c-.4-.5-.6-.3-.9-.5l-.5-.9c2.4.3,1.3-.8,1.7-2s.5-.3.7-.4c0,.5-.2,1.7.2,2s1.3,0,1.2-.6h.5c1.6-.3,1.7-1.3.9-2.6,1.2.3,1,.7,2,1.2s1.8.6,2.5.3c0-.3-1.6-1.9-1.9-2.1-.6-.3-1.2-.3-1.6-.7s-.6-1.2-.9-1.8h.7l-.3.2h0Z"/>
      <path class="st3" d="M246.7,75.4s-.5.7-.5-.2c.2,0,.3,0,.5.2Z"/>
      <path class="st5" d="M206.1,89.9c.1.3.6.5-.2.5l.2-.5Z"/>
      <path class="st6" d="M245.5,78.2c.7,1.2.6,2.3-.9,2.6,0-.5.6-.8.7-1.1.3-.7-1.5-.5-1.8.5s.1.5.7.5c.1.7-.9.8-1.2.6-.4-.3-.2-1.5-.2-2l.2-.2c.5-.3,1.2-.4,1.6-.9h.9Z"/>
      <path class="st0" d="M244.6,78.2c-.4.5-1.1.6-1.6.9,0-.6.9-1.1,1.3-1.1s.3.2.3.2h0Z"/>
      <path class="st0" d="M257.2,92.2c.7.4,1.4.7,2.1,1.1s.7,0,.5.8c-5.8-2.1-11.9-4.1-17.8-5.9s-14-4.9-19.6-2-5.2,7.3-5,10,2.5,4.7,3.8,5.5,3.1,1,4.3,1.8c1.9,1.3,2.2,4.1,2.5,6.3s1.1,7.7.5,9.3-.7.8-1,1.4c-1.1,2.2-1.5,4.9-2.7,7.4-4.5,9.9-12.4,18.4-20.4,25.5-1.2,1-2.7,2.3-4,3.3s-.6.7-.7.7c-4.6,3.6-13.2,8.1-18.7,10.7s-.6-.2-.5.5c-.2,0-.3.2-.5.2-.7.2-2.3.3-2.3,1.2-.7.2-1.2.2-1.9.5s-.3.3-.5.5-.5,0-.7,0c-1,.2-.8.4-1.2.5s-.5,0-.7.2c-.9.4-2,.8-2.9,1.2s-.7,0-.6.7h-.7c-.2-1.4,1.8-1,1.9-2.3h.2c1.6-.7,6.6-3.3,7.9-3.4,4-.4,10-4.2,13.6-6.5,7-4.4,11.6-9,17.5-14.5s1.6-1.2,2.3-1.9,1.4-1.3,1.4-2c0,0,.1-.2.2-.2,1.6-1.2,1-1.2,1.8-2.1s.6.4,1-1.4,0-.2,0-.2c.3-.4,1.3-1.2,1.5-1.4s0-.6.1-.7c1.3-.8,4-5.6,4.8-7.2s.7-.7,0-1c0,0,.1-.3.2-.5.3,0,.5-.2.5-.5,0-.5.4-1.3.5-1.4.5-.9.7-.4.9-1.9s0-.3,0-.5c.6.2.6-1,.7-1.6s0-.2,0-.2c.6,0,.5-.2.5-.7.4-.3.2-.8.2-1.2.6.2.6-.7.7-1.2s0-.5,0-.7c.5-2.7.5-3.8.2-6.5s-.1-2.9-.2-3l-.2-.5c0-1-.2-1.3-.4-1.8s-.3-1.1-.8-1.7c-.9-1-2.4-1.5-3.6-1.9s-1.2-.4-1.9-.5c-.2-.2-.3-.4-.5-.7s-1.6-1.9-1.8-2.1c-.3-.3-.8-.2-.9-.5s0-1-.6-1.2v-.5h.2l-.2-.2v-1.4c.5-.4.2-1.3.2-1.9.2-1.4.8-2.6,1.2-4,.8-.6.9-1.6,1.4-2.6.5-.3.7-.8.9-.9,2.1-1.4,4.9-2.3,7.6-2.4,4.1,0,13.2,2.7,17.4,4.1s6.7,2.9,10.2,4,1.3.5,1.7-.2l.4.2h0Z"/>
      <path class="st12" d="M172.5,128.1c2.4,0,2.4,2.7,3.6,4.2,1,1.7.6,3.7.9,5.4s.6,1.9.7,2c.2.2,1.6,0,1.8-.3s.2-.9.3-1.2.8-.7.9-1.2c.4-.2.8,0,1.2,0s.2,0,.2,0c0,.8,2,1.2,2.5,1.2s.5-.2.6-.2h1.9v.5c-.6.2-1.8.4-2.5.5s-1.4-.3-1.8-.2-2.2,2.8-2.4,3.4c-1.1,2.7-.5,6.1-1.9,8.3s-2.6,2.8-3.5,4-1.6,2.6-2.7,3.8-1,.6-1.3,1.1-.2,1-.5,1.6c-.6,1.4-2.1,2.2-2.8,3.1s-.6,1.8-2,2.9-4.6,2.3-.3,2.1l-.2,1.4c.6.2,1.3-.2,1.8-.2s.6.6,1,.7c.6,0,1.5-.8,1.5.7.5,0,.8-.5,1.4-.7-.1,1.3-2,.9-1.9,2.3v.2c-.1.4-.7.4-.7.5-.7.3-1.8.3-2.4.5s-1.3,1.2-2.6,1.1-1.1-1.1-1-1.3,1.8-1.1,1.4-1.5-4.6,3-5.6,1.5c.5-.5.6-1.4.9-1.9s2.2-1.4,2.1-2-.4-.4-.4-.7c.1-1.2,2.9-3.3,3.7-4.3s1.5-2.6,2.3-3.8.4-.3.5-.5c.9-.3,1.7-1.2,2.1-2.1s0-.2,0-.2c.7,0,.8,0,.7-.7l.5-.5c.4,0,.8-.3,1.1-.6.8-.7,3.4-4.8,3.6-5.7s-.2-1.9,0-2.8,1.6-2.6-.7-2.9c.3,1.7-.5,1-1.5,1.5s-.4,1.3-.7,2.1-1,.7-1.2,1.1,0,.8-.2,1.2-2.1,2.1-2.4,2.5-1.5.8-1.6,1.2c-.5,1.2.8,0,.9,0,1.3-.8.3,1-.1,1.5-1.3,1.6-2.8,1.9-4.2,3s-1.3,2-2,2.7c-1.9,2-5.9,4.8-8.4,5.9.3-.8,1.4-1.9,2.1-2.5s1.6-.8,1.9-1.2c1.4-1.6.9-1.1,2.6-2.3s2.4-3.9,3.6-5.2c2.4-2.6,5-4.4,6.6-7.8s0-.8.3-1.3,1.4-.8,1.5-1c.6-.9-.1-4.4,1.6-4s.7,1.3,1.4-.2c0-2.3.9-5.1.8-7.3s-.3-2.1-.5-3.3.4-1.3-.7-2.5-1-.7-1.6-1.6h-.2Z"/>
      <path class="st0" d="M154.6,175c0,.8-1,1.3-1,2s.9,1.1,1.4,1.1v.5c-.2,0-.4.2-.5.2-.2,0-.5,0-.7.2-1,0-.5,0-.7-.6-.4-1.2-.4-1.1,0-2.5.5-.3.9-.6,1.4-.9,0,0,0,0,0,0Z"/>
      <path class="st11" d="M172.3,240.9c0,.2-.2.4-.3.6h-.7v-1.4c-1.8-.3-1.2.5-1.5.7-.7.5-2.3-.2-2.6.9h-1.2c.6-.3.9-.7.9-1.1s0-.3-.1-.4h.6c-.7-1.5-1.3-2.2-3-2.1-.3-1.9-1.1-1.2-1.5-2.1s0-1-.1-1.4c.3.2.8.4,1.1,0,.4-.6-.7-3.1-1.3-1.2-.2-.9-1.6-3.5-2.1-4.3-.2-.4-.4-.8-.9-.8v-.5c-.4-1-1.2-1.1-1.4-2.1.5,0,1.1-.1,1.6.1.3.2.4.7.5.8.2.1.7,0,1.1.2,0,0,1.6,1.1,1.7,1.2.3.3.3,1.3.6,1.9.4.8,1.4,1.3,1.8,2.1.5.8.7,2,1.2,2.8.3.5.9.7,1.1,1.2.2.5,0,1.9.9,1.5,1.6-.8.2-2.1-.1-2.9s-.4-1.8-1-2.5c-.8-1.1-2.5-1.2-3.1-2.8-.5-1.4.5-.9.6-1,.5-.5-1.8-2.3-2.1-2.7-1.4-1.5-2.5-3.3-4-4.7-.2-.5.5-1,.9-1.1s2,.7,1.6,0c-.1-.3-5.6-3.1-5.8-2.9.3,1,1.5,1.6,1.6,2.8-.9.1-1.1-1-2.1-.7-.4,1.4.4,1.6.8,2.4.9,1.7,1.4,1.7,1.5,3.7-1,.2-1.2-1.1-2.1-1.2-.5-.7-.5-.6-1.2-.9.2-.4-.8-1-1.1-1.1-1-.4-.7.4-.8.4,0,0-.5-.1-.7,0-.2.2,0,.6,0,.7,0,0-.4,0-.5.2,0,.4,0,1,0,1.5v4c0,.8,0,.7,0,1.6v.5c0,1.7,1,3.5-1.4,3.7h-.7v2.2c.2.8,1.3,2.3,2,2.7.2,1-1.8,0-2,0-.8-.5-.8-1.3-1.5-1.8v-2.3c.6-.3,1.6-1.8,1.7-2.4,0-1.4-.7-2.3-1.4-.8-.4-.7.4-1.3.5-1.4h1.6c.2-.5-.4-.7-.5-.9-.2-.6.2-1.5-1.2-1.4v-3.5c.9-.1,0,1,1,.7.8-.3.9-2.4.9-3.1s-.8-1.3-1-1.5c-.5-.3-.9-.1-1.1-.2,0,0-.5-.6-.7-.7.6,0,3.6-1.3,2.8-2.1l-8.9.7.5,1.2c-.7,0-1.6-.2-2.1.2h-3.5c-3.1,0-6.1.2-9.2.2s0,.5,0,.5c0,0-.6.2-.7.2s-.4-.4-.6-.4c-1.2-.2-2.2.3-3.3.4h-2.9c-5.3.4-10.5,1-15.8,1.6v.5c-1,.2-.7-.3-.7-1.2-.5-.2-.6.4-.7.5-1.2.5-2.8.4-4.1.7-.4,0-.9-.2-.8.5h-.5c.2-1.2-.4-1.7,1.1-2.3,3.4-1.2,10.2-.2,13.9-.3,1.2,0,2.7-.8,4.1-.4v-.7c-.8-.2-1.7.2-2.4.2-2.3,0-4.5-.2-6.9-.2.2-1.3,1.5-.2,2.2-.2s1.8-.7,2.4-.7.8.4,1.2.5c2.1.3,4.5,0,6.5,0s4.6.2,5-.3c.2-.3-.2-.9.6-.7,0,0,.2.5.4.6,1.3.8,6,0,7.8-.1,2.8-.2,5.6-.2,8.4-.5,1.5-.2,3.3-.7,4.6-1,1.2-.3,1.3-.7,1.1-1.8-.6,0-1.1.2-1.7.2-3.9.1-7.8.5-11.5.5l15.5-1.6c1.5,0,2.8,0,4.3.5.4.1,1.4.7,1.9.9,1.8.9,3.6,1.9,5.4,2.8.2.1,1.3.7,1.4.7,1.2,1,1.1,1.7,1.6,2.8,0,.2.2.3.2.5.7,1.4,1.8,2.8,2.8,4,0,0,0,.3.2.5.6.7,1.5,1.8,2.1,2.3.2,1.4.4,2.8.9,4.1.4,1.1,1.7,2.7,1.8,3.5.2,1.1-.4,2-.2,3,0,.5.7.8.7,1.2l.2-.7h-.1Z"/>
      <path class="st6" d="M126.3,220.5v1c0,.4.2.9.2.9v.7c-.8-.1-.4.4-.5.8-.2,1.1-.2,2-.2,3.2v1.4c-.3.1-.2.4-.2.7v3.5c0,1.3,1.1,3.5,1.4,4.8s-.2,1.4.3,1.9v.7l-.2.2c-.4.2-2.1,1.4-2.2,1.6-.5.9.7,1.6-1.6,1.6s.9-1-.5-1.9-.9-.1-1.4-.2-.6-1.1-1.8-.9v-2.3c0-.7,0-4.1.2-4.9s.3-.1.4-.4c.2-.6-.3-1.2.5-1,0,.4-.2,1-.2,1.3,0,.5.8,1.2.4,2,1.1,0,.3-1.6,1.5-1.4s0,1.1,0,1.4v3.1c0,.5-1.1.5-1.1,1.7s.3,0,.5.1c.8.3,1.7.3,2.6.2,1.5-.2.9-.9,1-1.9s.4-.7.3-1-.9-.8-1-1.3.3-3.2-.3-4.3l.9-10.7c-.2-1-.9-.5-1.4-.3s-1-.2-1.1.4c-.5,1.6.6,1.2.6,1.3v.9c0,.1-1.1-.3-1.4-.2,0-.8.2-1.7.2-2.6,1.1,0,2.2-.6,3.3-.4s.5.4.6.4h0s.2-.1.2-.1Z"/>
      <path class="st12" d="M152.5,168.3c0,.4-1.2,1.3-1.5,1.5-.9.6-1.9,1-2.8,1.4s-.9.2-.5.6,4.9-1.9,5.6-2.3c0,1.2-1.7.8-1.4,1.7h.2c-1.7.6-3.3,1.3-4.9,1.9s-3.7,1.6-5.6,2.3-2.6.3-1.3.9c1.3.6,1.9-.2,3-.6s1.1,0,1.4-.3,0-.8.3-.8c1.1-.3.7.6.8.7.4.5,2.5-1.5,3.6-1.6s1.5.2.9,1.4-5,4.3-6.7,5.2-.9,0-1.3.4c-.9.5-6.4,4.7-6.8,4.4s0-.6-.8-.7-3.8.8-3.2,1.4h.7c.9.9-3.4,2-3.6,2.3-.6.8,1.1.7,1.3.8.6.4-.5,2.2-.6,2.9-.3,1.2-.5,3.3-.5,4.5v1.2l-3,18.9c-.2,0-1.1.2-1.2.2-.4.1-.9-.2-1.2-.2.2-4.3,1.5-9,1.6-13.3s0-.3,0-.5c.4-1.6.6-3.5.7-5.1s0-.5,0-.7c.6-1.5.7-3.6.2-5.1v-1c.6,0,.6.6.9.7,1.6.4,2.9-1.7,1.8-2.1s-1.8.3-2.6.4v-.9s-1.1.2-1.3-.2-.5-2.3-.6-2.8h-2.3c0-.6.2-1,.7-1.2,1-.4,1.3,0,.9-1.6,0,0,0-.5.2-.8.5-.7,4.2-2.1.7-2.7.3-.5,3-3.4,3.2-3.5,1.5-.5,2.6.4,3.7.4s3.4-.7,4.9-.9,3.7,0,3.8-.3c.5-.5-.8-.8-.5-1.2s3.8-.8,4.6-1.3,1.5-1.4,1.9-1.6c2-1,4.2-1.9,6.3-2.9h.3q0,0,0,.1ZM138.7,177.1c-.2-.3-2.1-.3-2.6,0s-1.8,1.3-1.9,1.4c-.2.4,0,1-.3,1.2s-1.1.3-1.4.5-2.1,2.2-2.1,2.3c-.5,1.2,1.7,1.5,2.6,1.4s.8-.5,1.2-.7,2.5-.2,1.8-1-1.9-.4-1.2-1.9.9-.3,1.2-.5.2-.5.4-.6c.5-.3,2.6-1.5,2.2-2.1h0s0,0,0,0Z"/>
      <path class="st12" d="M55,162.9h.2l-1.6,1.2c1.9.6,3.8-.2,5.7,0s1.4.4,2,.6c3.2.9,6.5,1.4,9.8,2.2,0,1.3,1.1.5,1.4.5,1.3,0,3.5.5,4.9.7,0,.7.2.4.5.5,2.2.6,5.8,1.3,8.2,1.6-.3.6,0,1.9,0,2.3-.4.8-2.2,0-1.2,2.5s.9.8,1.5,1.1.5.7.9.8c.7.2,2.7-.7,1.9,1.2.4,0,1.6.2,1.6.6s-.7.7-.4,1c.5.5,1.4.4,2,.8s.4,1,.6,1.1c.5,0,1.1-.3,1.6-.3,1.2,0,3,.3,4.2.3,2.9,0,5.6-1,8.4-1h2.8c.9,0,3-1.3,3.5-1.1,1.2.3-.2,1.7-.4,2.1s0,.8-.2,1.2-1.3.5-.7,1.4c1.9.3,1.9-1.2,2.8-2.1s2.4-1.3,2.6-1.4c1.3-.5.3.9,1.3,1.1.6-1.1,1.9-.9,2.7-1.3s.7-1.2,1.7-1,.5.9,1.1.7c-.2.3,0,.3-.5.7-.5-.3-2.7-.2-2.6.7h-.2c-1.2.2-3.2,1.2-4.4,1.8-2.5,1.4-5,6-6.8,8.3s-2.7,2.8-3.7,4.5c-1,1.7-.2.3-.2.5-.5.3-1.7,1.3-2,1.6s-.4.7-.4,1.2c-.3.3-.6.7-.9.9s-.4,0-.5,0,0,.3,0,.5v.5c0,.1-.3,0-.5,0s-.3,0-.5.1c-.3.2-.2.4-.2.6v.2c-.9.3-1.9,1.4-2.1,2.3,0,0,0,.2-.2.2-1.5.7-.5.3-1.2,1.5s-1.4,1.7-2.1,2.9,0,.2,0,.2c-1.4.4-1.5,1.7-1.9,2.8s0,.2,0,.2h-.5v.5c0,.2,0,.3-.2.5-.4.3-.4.4-.7.7s-.2,0-.2,0c-.2,0-1.6.4-1.6.5s.4,1.7.2,2.1c0,0,0,.2-.2.2-3.4,2.1-2-1-2.1-1.2s-.6,0-.7,0,.2-.6.2-.8c0-.6-.4-1.2,0-1.7s.4-.2.6-.4c.3-.5.6-1.2,1.1-1.7s.7-.2.8-.3v-.9c0-.3.6-.1.9-.4s.8-1.5,1.3-2c4.1-3.9,7.3-8.6,10.8-13s8.2-9.1,8.4-10.3,0-1.1,0-1.4,1.2-.2.9-1.1c-.6-.5-4.3,1-5,.9s0-.4-.3-.5c-.6-.2-1.9-.5-2.5-.5-1.5,0-3.6,1.5-5,1.6s-1.2-.4-1.8-.3-1.2.5-1.9.4-3-1.5-3.8-1.8-1.3,0-1.4,0,0-.5,0-.6c-.3-.5-2.4-.2-2.5-.3s0-.7,0-.9c-.3-.4-3.3-.3-3.8-.5s0-.5-.3-.7-1.3-1.4-1.4-1.4c-.8-.2-2.7.8-3.1.4s.3-.6.2-.8c0-.4-1.4-.3-1.1-1.2s1.4-.2,1.4-.9c0-1.5-.9-.9-1.6-.9h-.9c-1.2,0-.5.3-.7.5s-2.2,0-2.6,0v-.5c.2-.9.6-.6.7-.7l4.5-.8c.5,0,1.2-.5.8-1.1l-4.8.9h-1.2c-1.4-.2-1.2-1.2-1.8-1.4-.8-.3-4.1.4-4.5,0s0-.8,0-.9c-.2-.2-.8.2-.9.2-1,0-2.2,0-3.3,0h-1.6c-.2-.8.7-1,.7-1.6-1,.3-.9-.5-1.3-.7-1.1-.4-1.7,0-2.3,0s-1.2-.7-1.4-.7c-.6,0-.3,1.6-.4,1.6,0,0-3,.3-3.5.2.3-.7,0-3.2.3-3.5.4,0,2.9.4,2.1-.7s-2.5-.6-3-.7,0-.5-.7-.5v-.7s2.2-.4,2.6-.5l-.3.8h-.1Z"/>
      <path class="st9" d="M133.6,215.8c3.8,0,7.7-.3,11.6-.5s1.1-.3,1.7-.2c.2,1.1,0,1.6-1.1,1.8s-3.1.8-4.6,1c-2.8.3-5.6.3-8.4.5s-6.5.9-7.8.1-.2-.5-.4-.6c-.8-.3-.4.4-.6.6-.3.5-4.1.3-5,.3-2,0-4.5.3-6.5,0s-.6-.5-1.2-.5-1.5.7-2.4.7-2-1.1-2.2.2h-1.9c-.3-1.2-1.3-1.4-1.4,0h-1.6l-.5-1.4c6.5-.3,13-.8,19.5-.9s.9-.2,1.4-.3,2.2.4,2.4.3,0-.4,0-.5,1-.2,1.2-.2h.5v.5s.6-.2.8-.2c1.7,0,3.5,0,5.2-.2s.9,0,.7-.5h.6Z"/>
      <path class="st11" d="M123.1,216.3h.5c.3,0,.7.4,1.2.2v.5c-.3.2-1.9-.3-2.4-.3s-.9.2-1.4.3c-6.5.2-13,.6-19.5.9l.5,1.4c-2,0-1.9-.2-3.4-.6s-2.3,0-2.4-1c7-.2,14.3-.9,21.5-1.2s.6,0,.9,0c.9,0,1.9-.2,2.6-.2h2.1-.2,0ZM100.7,217.9l-1.6.3c.4.6,1.7.6,1.6-.3Z"/>
      <path class="st0" d="M121,181.6c0,.6-.3.5-.6.7-.9.5-1.9.9-2.9,1.2,0,1.1,1.8.3,1.1,1.4s-2,.2-2.8.7-3.8,4.2-4.5,5c-1.2,1.4-2.4,3.2-3.6,4.5-1.2,1.3-.9,1.1-1.5,1.2,1.1-1.8,2.5-3,3.7-4.5,1.8-2.3,4.4-6.9,6.8-8.3s3.2-1.6,4.4-1.8h0s0,0,0,0Z"/>
      <path class="st0" d="M121.9,185.8h2.3c0,.5.4,2.6.6,2.8.2.4,1.2,0,1.3.2s0,.7,0,.9v1.4c-.9.2-.3-1.4-.5-1.6s-2.6.5-3.3-.6,0-1.6-1.6-1.3c0-.4-.2-.5-.2-.9.5,0,.5-.3.7-.7.3,0,.6-.2.7-.2h0Z"/>
      <path class="st11" d="M94.6,223.5s-1.6-.5,0-1.2c2.2-1,1.3.4,1.3,1.2h-1.3Z"/>
      <path class="st0" d="M91.8,214.2c0,.5-.5.8-.7,1.3s0,1.1-.3,1.3-.4,0-.4,0c.2-.4-.3-1.9-.2-2.1s1.4-.4,1.6-.5h0Z"/>
      <path class="st0" d="M95.3,209.5c0,.2,0,.6-.3.8l-1.6,2c.4-1.1.5-2.4,1.9-2.8h0Z"/>
      <path class="st0" d="M105.8,196.7c-.6,1.2-1.3,1.8-2.3,2.8,0-.4,0-.8.4-1.2s1.5-1.4,2-1.6h0Z"/>
      <path class="st0" d="M98.6,204.9c0,1-.8,1.3-1.1,1.7-.6.8-1.1,2.5-2.2,2.7.7-1.2,1.5-1.9,2.1-2.9s-.3-.8,1.2-1.5Z"/>
      <path class="st0" d="M100.9,202.3c-.4.9-1.3,1.9-2.1,2.3.2-1,1.2-2,2.1-2.3Z"/>
      <path class="st0" d="M123.8,180.9c-.7.6-1.6.5-2.6.7,0-.9,2-1,2.6-.7Z"/>
      <path class="st0" d="M123.5,183c.4,1.5,0,1.2-.9,1.6.3-.4.3-1.2.5-1.6s.4,0,.4,0Z"/>
      <path class="st11" d="M104.9,219.3h-1.4c0-1.4,1.1-1.2,1.4,0Z"/>
      <path class="st0" d="M92.8,213.5c0,.5-.2.7-.7.7.3-.3.3-.4.7-.7Z"/>
      <path class="st0" d="M101.6,201.4c0,.5-.2.7-.7.7,0-.2,0-.4.2-.6s.4,0,.5-.1h0Z"/>
      <path class="st7" d="M121.2,186c-.2.4-.2.8-.7.7v-.7h.7Z"/>
      <path class="st0" d="M102.6,200.4c0,.4,0,.6-.5.5v-.5c0-.1.4,0,.5,0Z"/>
      <path class="st0" d="M93.5,212.6c0,.3-.2.5-.5.5v-.5c0-.1.4,0,.5,0Z"/>
      <path class="st12" d="M86.5,218.6c-.4.4-1.3-.8-1.4-1.1s.9-.9.7-1.5c1.8.3,0,1.4.7,2.6Z"/>
      <path class="st0" d="M66.9,170.4s.7-.5.9-.2,0,.8,0,.9c.4.4,3.7-.2,4.5,0s.3,1.2,1.8,1.4c0,1.4-1.5-.3-1.8-.4-.6-.2-1.5,0-2.3,0-1.1-.2-3.1-.3-3.2-1.6h0s0,0,0-.1Z"/>
      <path class="st0" d="M75.3,172.5l4.8-.9c.4.6-.2,1-.8,1.1l-4.5.8c.4-.3.6-.3.5-.9h0Z"/>
      <path class="st0" d="M74.1,174.1v.5h-1.4c-.2-.8.8-.4,1.4-.5Z"/>
      <path class="st0" d="M77.4,174.1c0,.6,0,.5-.7.5.2,0-.5-.4.7-.5Z"/>
      <path class="st0" d="M46.6,165.7c.2.6-.6.6-1.2.7v-.5c.4,0,.8-.2,1.2-.2Z"/>
      <path class="st0" d="M47.5,165.5v.2h-.5c0-.2.3-.2.5-.2Z"/>
      <path class="st4" d="M75,137.5c1.5-.2,1.4.9,3.4-.2s5.9-2.5,8.9-3.5,4.1-1.8,5.4-2.1c2.5-.7,5.1-.8,7.7-1.9s3.8-3.6,7.2-3.1,5.8,0,8.6-.5,1-.7,3.5-.2,5.9-1,8.2-1.3,5.9,0,8.8,0,6,.4,9.3.7,2.1-.5,3-.5c1.5,0,7.8,1.8,8.9,2.6s.9,1.6,1.6,1.6.7-.9.1-1.3-1.7-.3-1.6-1.8c.1-.5,2.2-.2,2.6,0,1.2.2,2,1.4,2.7,1.5s.7-.2,1.2,0c.9.2,2.8.6,3.2,1.5s.3,1.4,1.4,2.8c1.1,1.4,0,1,1.3.7s.8-.7,1.5-.2,1.9,4.8,2,5.7,0,2.9-.3,3.4-.9.2-1.2.4,0,1.2-.8,1c.2-2.3-1.8-2.6-3.5-3.3-.3.3,1.5,3.6,1.4,4.5s-.6.7-.8,1.1-1,3-1.1,3.1c-.4.3-1.4,0-1.9,0,.9,1.5-.5,1.9-.7,2.5s.2.9.2,1.3c0,.7-.8.8-1.1,1.1-1.6,1.8-2.4,2.1-3.9,3.4s-.6,1.2-.9,1.6c-2.2,2.4-5.1,4.6-7.9,6.3s-1.2,1.7-2.4,2.3-1.3.2-1.7.6c-.8.7-2.2,3.3-3.4,4.1s-3,1.1-3.2,1.2c-.6,0-1.1-.6-1.6-.5s-.2.5-.5.7c-1.8,1.1-4.1,1-6,1.4s-4.2,1.9-4.8.3.6-.5,1.1-.7c.8-.4,1.7-1,2.6-1.4,2.4-1.1,5.7-1.7,7.5-3.4s.5-.8.8-1.1c.5-.5,2.3-1.4,1.7-2.3s-2.5,1-3.1,1.1-1.1-.3-1.5-.2-2.1.8-2.3,1c-.8.4-1.8,2.1-2.9,2.2s-1-.3-1.6-.2-1.1.7-1.8.8c-2.7.6-5.6,0-8.3,0s-5.5,1.7-8.4,2-6,.2-6.6.7,0,.3,0,.5h-2.3c-.2-.4-.9-.2-1.3-.2-1.8,0-4.2,0-5.8.5s-.4.6-.8.8c-.8.4-3.5.9-4.3.4s0-1.1.2-1.4c0-.5-.5-1.3,0-1.8.4-.3,1.2.2,1.7,0s.8-.4,1.2-.5c.6,0,2.4.7,2.8,0s0-.7,0-.9.8,0,.9-.4-.2-.8-.3-.8h-4.7s-.3-.4-.6,0,0,1-.4,1.1c-1.2.2-4.2-.3-5.5-.5-2.3-.4-6-1-8.2-1.6,0-.7,0-.4-.5-.5-1.4-.2-3.6-.7-4.9-.7-.4-.3-.9-.3-1.4-.5-3.3-.8-6.6-1.3-9.8-2.2-3.2-.9-1.4-.5-2-.6-1.9-.2-3.8.6-5.7,0l1.6-1.2c.6,0,1.1-.3,1.6-.5,0,1.6,2,1.1,3.1,1.2,2.4.4,6.7,2.5,9.1,2s.8-.6,1.4-.4,0,1.4,1.7,1.2.4-.9.7-1,2.1,0,2.2,0c.3-1.9-2.5-1.3-2.8-2.8,0,0,1.8,0,2.2-.2s.3-.5.5-.7c.5-.4,3.8-.5,3.6.4s-1.8,2.2-.8,2.5.8-.8,1.2-.9.7.2,1.1.2,1.1-.6,1.7-.7.8.2,1.5,0c3.4-.5,6.4-4.7,9.9-6s1.5-.7,1.9-.2,1.4,3.5,1.5,3.7-.5,2.3-.6,2.5c-.8,1.1-1.1-.4-1.6-.6s-1.5.4-2.2.2-.3-1.6-1.9.2-.5,1.1-.7,1.2c-.9.6-1.3.3-2.6,1.4s-1.4.5-1.2,1.4c2,0,4.2,1.1,6.3.6s3.4-1.5,3.5-1.6c.7-.6-.4-1.1-.2-1.6s.9-.4,1.2-.7.2-1,.2-1.1h1c.6-.2,2-.9,2.7-.4s0,.9.4.9c.7,0,2-1,3,0s.3,1.2,1.9,1.3,2.5,0,3.6,0,3.3,1.2,4.2,1.1.7-.4,1-.4.8.3,1.1.2.3-.7.5-.7c.4,0,1,.5,1.7,0s1.1-1.9,1.2-2c.6-.5.8.5,1,.7.6.5,1.4-.5,2-.6s.8.2,1.4,0c1.1-.3,1.3-1.5,2.8-.7s1.4,1.7,1.4,2.3-.3.8-.2,1.3c.3,1.2,2.4,2.2,3.3,1.1s0-.7.4-.8c.4-.2,1.1,0,1.6-.2s1.3-1.2,1.8-1.5c.9-.5,1.9-.8,2.7-1.2s.7-.8,1-.9c.5,0,1.5,1,3.1,0s.5-.6.9-.8c1-.3,2.2,0,2.6-1.6s0-4.9,2.1-2.9,0,1.2.7,1.2c1.4,0,1.8-1.6,2.6-1.8s2.2.6,2.7,0c0-.9,1.7-2.1,1.5-2.9s-1.6.4-2.3,0c0-.6.9-1.5.9-1.9,0-.8-1.4-2.1-1.3-2.3.2-1.2,2-.6,2.7,0,.5-1.2,1.9-1.7.9-3s-1.4-1.7-1.5-1.7c-.5-.4-2.1-.4-2.3-.6s0-1.2,0-1.6-.9-.5-1-.5c-.9.2-.7,4.1-2.5,3.7,0-1.1.4-2.3-1.2-2.1-.3,1.1,1,2.6-.2,3.4s-.8-.8-1.1-.8c-1.2-.4-1.1.8-1.8,1.7s-1.7.9-2.3,1.4c-1.3,1-2.6,3.9-3.5,4.9s-1.3.6-1.8,1-1.4,2.9-2.5,2,0-2.1.5-2.8c2-3.1,5-5.4,7.5-7.9s.4-.7.7-1c1.1-1,3-.7,3.3-2.5s0-1.2,0-1.8,1.2-2.1,1.3-2.2c.4-.2.9,0,1.2-.2s.6-.6.8-.6.6.5.9.4.7-.8,1.1-1,1.4-.2,1.9-.7,1.5-4.5.8-5-.7,0-.9,0c-.3-.2,0-1.6-1.4-2.2s-2.2,0-3.4,0c-3.3-.2-6.3-1.5-9.4-2.2s-2.3-.6-2.5-.6c-.5,0-1,.6-1.6.7-3.1.5-6.7,0-9.5.3s-4.5,1.5-7.5,1.6-3,.2-4.2.2-3-.5-4.2,0c0,1.5-.7.8-1.8,1s-2.2.3-3.2.5-2.3,1.3-2.8,1.4,0-1.2-1.1-.7c-1.1.5-.5,1.1-1.5,1.3s-1.1-.2-1.5,0-.6.6-1,.6-.7-.2-1.3,0-1.4,1-1.7,1.1-.7-.2-.9-.2c-3,.4-5.4,2.6-8.7,3.2s-.8-.2-1.1,0-4.9,2.9-5.8,3.3c-1.8.8-4.1,1.4-5.7,2.2s-.8,1.3-1.2,1.6c-1.4,1-4.5,1.3-6.1,1.8s-4.2,1.5-6.3,2.1c-1.3,0,.8-1.6.8-1.7.3-1.2-2.7-.2-3.2,0s-.9-.2-1.3-.2-1.9.9-1.8,1.4c-1.4.5-1.5.7-2.6,1.4-2.3.4-4.5,2.1-6.6,3.4s-4.2,2.2-5.2,4.1l-3.6,1.9s0-.4.3-.7c.9-.9,2.7-1.3,3.6-2.2h-1.2c-.2-1.6,1.4-1.1,1.9-1.4s.2-.8.4-1.2,2.4-1.2,3.2-2,.4-1,.7-1.2c.4-.3.9,0,1.3-.3s3.7-3.3,4-3.8,0-.8.3-1,2.1-.9,2.5-1.1.8,0,.7-.6h.2c1.3-.4,1.7-.8,2.8-1.3s1.3-.2,1.8-.6h.5v.5c.4.2.8-.2.9-.2h1.2c0,.9.4.2.5.2h.7c0,.7.4.5.8.5.6,0,2.7.2,3.1-.2s0-.4,0-.5h.5c.2,0,.6.7.5-.2v-.2h.5c.4,0,.7-.2,1.2-.2s0,.2.3.2c1.1,0,.7-.4.9-.6.3-.3.4-.2.5-.2h.5c1.1.2.6,0,.9-.5s.4-.2.5-.5h.7c.2,0,0,.2.5,0s1.5-.4,1.6-.8h.2c.8,0,1.4-.6,2.1-.7h-.4l.2-.4h0ZM157.3,133.5c-.4,0-2.5,3.9-2.6,4.4-.4,1.5,1,0,1.3,0s.8,0,1.1-.3c.9-.7,1.7-4.2.2-4h0ZM160.2,149.8c-.6-.7-2,3.5-2.1,3.8-.5,1-1.4,1.7-1.4,2.7,1.4,0,2.4-.6,3.1-1.7s1.1-2.1,1.1-2.4c0-.5-1.4-1.2-.7-2.4h0Z"/>
      <path class="st0" d="M170.2,157.8c0-.2,0-.6.1-.9s1.5-2.3.5-1.9-3.4,4-4.3,4.8-3,1.9-3.3,2.3-.1,1.3-.4,1.8-.6.3-.7.4c.1-1.3-.6-.5-1.1,0l.8.2c-.3.3-.4,1.4-1.4,1.2,0-.2.5-1.2-.1-.9-1.7,1.3-3.7,2.3-5.6,3.5s-.8.9-1.3,1.2-5.2,2.6-5.6,2.3.3-.5.5-.6c.9-.5,1.9-.9,2.8-1.4s1.4-1.1,1.5-1.5h.2c2.5-1.2,6.5-4,8.4-5.9s1.2-2.1,2-2.7c1.4-1.1,3-1.4,4.2-3s1.4-2.3.1-1.5-1.5,1.1-.9,0,1.3-.8,1.6-1.2,2.3-2.3,2.4-2.5c.2-.3,0-.8.2-1.2s1.1-.5,1.2-1.1c.2-.8-.4-1.6.7-2.1s1.7.2,1.5-1.5c2.3.3.9,1.7.7,2.9s.2,2,0,2.8-2.8,5-3.6,5.7-.7.5-1.1.6v.2h0Z"/>
      <path class="st4" d="M101.6,176.7h1.9c.6,0,1.7-.8,2.1-.9.7,0,1.4.6,2.1.7s1.4-.5,2.1-.5,1.3.4,1.9.4,2-.4,2.4.3c.8,1.2-2.8,1.3-3.3,1.4s-1,1.2-1.2,1.3c-.4,0-1.7-.3-2.5-.2-2.2.3-4.6,1.2-6.8,1.5s-2.5,0-2.6,0,0-.9,0-1.2.9-.6,1.2-.9.3-.7.3-.7c.6-.6,1.5-1.1,2.3-1.2h0q0,0,0,0Z"/>
      <path class="st0" d="M159.9,119.3h.5c-.2.8.4.4.9.5s1.1.3,1.6.5c-.1.6.3.5.6.7,1.3.6,2.7,1.4,4.1,1.7.2.9.7.6,1.3,1.1,2.4,1.7,4.7,3.5,7.1,5.3.3,2.3.9,4.4,1.6,6.5s.6,1.8,1.6,1.5c.2-.2-.3-1.9.3-1.6l2.2,1.9c-.4,0-.8-.4-1.2,0,0,.5-.8,1-.9,1.2s0,.9-.3,1.2-1.6.4-1.8.3-.6-1.8-.7-2c-.3-1.7.1-3.7-.9-5.4-1.2-1.5-1.2-4.2-3.6-4.2-.4-.5-.3-.3-.7-.5,0-.5-.3-.6-.6-.9-1.5-1.3-3.5-3-5.2-3.8s-.6-.3-.9-.5c-.7-1.7-3-1.4-4.3-1.7s-1-.6-2-.9v-.5l-.5.2h-.7c.2-.8-1.3-.4-2.1-.5s-1.6,0-2.3-.7c2.3,0,4.6.6,6.8.7h.1,0Z"/>
      <path class="st12" d="M104.9,173.9s.3,0,.2.3c0,.5-1.6,1-2.1,1.2s-1.5.8-1.4,1.3c-.8,0-1.7.6-2.3,1.2-1.2-.8,1.2-2.3,1.2-3.4s1.7-.5,2-.5h2.4s0,0,0,0Z"/>
      <path class="st12" d="M158.3,119.7l.5-.2v.5c1.1.3,1.4.7,2,.9,1.3.3,3.6,0,4.3,1.7-1.3-.5-2.7-.5-3.7-.8s-2.2-1.1-2.3-1.2c-.2-.2-.2-.4-.2-.6-.4,0-.4-.2-.5-.2h-.1Z"/>
      <path class="st12" d="M91.1,130.5c0,.6-.3.4-.7.6-2,.8-4.9,2.3-7,2.7-.2-.9,1.4-.3,1.2-1.2h.5c2.2-.6,4-1.6,6.1-2.1,0,0,0,0,0,0Z"/>
      <path class="st12" d="M171.8,127.7c-1.1-.6-2.3-1-3.1-1.9s-1-1.5-1.4-1.8-1.4-.3-1.3-1c1.7.8,3.7,2.5,5.2,3.8s.6.4.6.9Z"/>
      <path class="st0" d="M137.3,118.6c0,.6-.3.5-.7.6-1.2.3-1.7,0-2.6,0,.9-.3,2.3-.7,3.3-.7,0,0,0,0,0,.1Z"/>
      <path class="st12" d="M155.5,119.3c.8,0,2.3-.3,2.1.5-.5,0-2.2.5-2.1-.5Z"/>
      <path class="st0" d="M84.6,132.6c.2.9-1.4.2-1.2,1.2h-.9s0-.3.2-.5c.5-.4,1.3-.5,1.9-.7Z"/>
      <path class="st12" d="M77.1,136.1c.2.5-1.2.9-1.6.9,0-.8,1.1-.8,1.6-.9Z"/>
      <path class="st12" d="M96.7,128.4h.2s0,.4-.3.5-.9,0-1.4.2l.5-.5c.3,0,.6-.3.9-.2h.1Z"/>
      <path class="st0" d="M103,126.3c.2.7-.9.6-1.4.7-.2-.6.9-.7,1.4-.7Z"/>
      <path class="st12" d="M93,129.8c.2.8-1.1.6-1.6.7.4-.5,1.1-.6,1.6-.7Z"/>
      <path class="st0" d="M139.2,118.3c0,1-.8.3-1.2.2.2-.4.8-.2,1.2-.2Z"/>
      <path class="st12" d="M78.8,135.4c.2.6-.6.6-1.2.7-.2-.6.6-.6,1.2-.7Z"/>
      <path class="st12" d="M95.1,129.1c.2.6-.7.6-1.2.7-.2-.6.7-.6,1.2-.7Z"/>
      <path class="st12" d="M151.8,118.6c.2.7-.9.7-.7,0h.7Z"/>
      <path class="st12" d="M105.6,126c0,1-.5.2-.7.2,0-.3.5-.2.7-.2Z"/>
      <path class="st0" d="M101.2,127c-.3.3.5.3-.7.5,0-.6,0-.5.7-.5Z"/>
      <path class="st0" d="M97.4,128.1c0,.2-.4.2-.5.2h-.2c0-.9.5-.2.7-.2Z"/>
      <path class="st0" d="M99.1,127.7s0,.4-.7.5c0-.6,0-.5.7-.5Z"/>
      <path class="st12" d="M82,134v.5c-.2.2-.4-.2-.5-.2v-.2h.5Z"/>
      <path class="st1" d="M63.8,141.2v.5c-.3.4-2.4.2-3.1.2s-.9.2-.8-.5h2.3c.5,0,.8-.2.9-.2h.8-.1Z"/>
      <path class="st1" d="M72.5,138.2h.2c-.2.4-1.2.8-1.6.8s-.4,0-.5,0c0,0,.2-.2.2-.2l1.2-.5s.5,0,.5,0Z"/>
      <path class="st0" d="M67.1,140l-.7.5c-.4,0-.8.2-1.2.2-.2-.7,1.3-.7,1.9-.7Z"/>
      <path class="st1" d="M69.2,139.3h.2c-.3.5,0,.7-.9.5v-.5h.7Z"/>
      <path class="st0" d="M72,138.2l-1.2.5c.3-1.1.6-.4,1.2-.5Z"/>
      <path class="st1" d="M67.6,140c-.2.2.3.5-.9.6s-.3-.2-.3-.2l.7-.5h.5Z"/>
      <path class="st0" d="M63.1,141.2s-.5.2-.9.2c-.2-.6.5-.7.9-.2Z"/>
      <path class="st0" d="M64.8,140.7v.2l-.5.2h-.5v-.5h1Z"/>
      <path class="st0" d="M69.9,138.9c0,.2-.4.4-.5.5h-.2c0-.7.2-.4.7-.5Z"/>
      <path class="st0" d="M68.5,139.3v.5h-.5c.2-.2-.4-.4.5-.5Z"/>
      <path class="st0" d="M210.3,126.7c0,.5-.2.8-.7.7,0,0,0-.3.1-.5.2-.3.4-.2.6-.2h0Z"/>
      <path class="st0" d="M58,140.7h.9c.1,0,0,.3,0,.4h-1.4v-.2s.3-.2.5-.2Z"/>
      <path class="st1" d="M59.2,141.4s-.6.7-.5-.2h.2s.2,0,.2.2c0,0,.1,0,0,0Z"/>
      <path class="st1" d="M57.5,141v.2s-.5.4-.9.2v-.5h.9Z"/>
      <path class="st0" d="M214,120c0,1.1-.2.7-.2.8s.2.5.2.8c0,0-.2,0-.2.2-.1.2-.2.2-.2.5-.1.2-.3.3-.5.5,0-.4.4-2.7.5-2.8s.3,0,.4,0Z"/>
      <path class="st12" d="M213.8,121.8l.2-.2s-.1.2-.2.2Z"/>
      <path class="st5" d="M51.5,147.5c-.2-.5,1.6-1.3,1.8-1.4.4,0,.8.2,1.3.2s3.4-1,3.2,0-2.1,1.9-.8,1.7c2.1-.6,4.2-1.4,6.3-2.1s4.7-.8,6.1-1.8.4-1.2,1.2-1.6c1.7-.8,4-1.3,5.7-2.2s5.4-3.2,5.8-3.3.7.2,1.1,0c3.2-.6,5.7-2.8,8.7-3.2,3-.4.6.2.9.2s1.2-1,1.7-1.1.9.2,1.3,0,.7-.5,1-.6.8.2,1.5,0c1.1-.2,1.1-1.1,1.5-1.3,1.2-.5.4.8,1.1.7s2-1.2,2.8-1.4,2.2-.3,3.2-.5,1.9.6,1.8-1c1.2-.5,3,0,4.2,0s2.9-.2,4.2-.2c3-.2,5.3-1.4,7.5-1.6s6.4.2,9.5-.3,1.1-.7,1.6-.7,2.1.5,2.5.6c3.1.8,6.1,2.1,9.4,2.2s1.9-.5,3.4,0,1.1,2,1.4,2.2.7,0,.9,0c.7.5,0,4.4-.8,5s-1.3.4-1.9.7c-.6.3-.9.9-1.1,1-.3,0-.6-.5-.9-.4s-.4.5-.8.6-.9,0-1.2.2-1.3,2-1.3,2.2c-.2.5,0,1.2,0,1.8-.4,1.8-2.2,1.5-3.3,2.5s-.4.7-.7,1c-2.4,2.6-5.4,4.8-7.5,7.9s-1.4,2.1-.5,2.8,2-1.5,2.5-2,1.3-.6,1.8-1c.9-1,2.2-3.9,3.5-4.9s1.5-.4,2.3-1.4.6-2,1.8-1.7.2,1.4,1.1.8,0-2.3.2-3.4c1.6-.2,1.1,1,1.2,2.1,1.7.4,1.6-3.6,2.5-3.7s.9.5,1,.5c.2.4,0,1.2,0,1.6s1.8.3,2.3.6,1.5,1.6,1.5,1.7c.9,1.4-.4,1.8-.9,3-.7-.5-2.4-1-2.7,0s1.3,1.6,1.3,2.3-1,1.3-.9,1.9c.7.3,2.1-1,2.3,0s-1.4,2-1.5,2.9c-.6.7-1.9-.2-2.7,0s-1.3,1.8-2.6,1.8-.2-.7-.7-1.2c-2-2.1-1.9,2.2-2.1,2.9-.4,1.7-1.6,1.3-2.6,1.6s-.6.6-.9.8c-1.6.9-2.6-.2-3.1,0s-.6.7-1,.9c-.8.5-1.8.7-2.7,1.2s-1.5,1.3-1.8,1.5c-.5.2-1.3,0-1.6.2s-.2.6-.4.8c-.9,1.1-3.1,0-3.3-1.1s.2-.9.2-1.3-.9-2-1.4-2.3c-1.4-.8-1.7.4-2.8.7s-.9,0-1.4,0-1.4,1.1-2,.6-.5-1.2-1-.7-.4,1.6-1.2,2-1.3-.2-1.7,0-.2.6-.5.7-.7-.2-1.1-.2-.6.4-1,.4c-.9,0-3-1.1-4.2-1.1h-3.6c-1.6-.2-1.3-.7-1.9-1.3-1-1-2.3,0-3,0s-.2-.8-.4-.9c-.7-.4-2,.2-2.7.4s-.9,0-1,0,0,.7-.2,1.1-1.1.3-1.2.7c-.2.5.9,1,.2,1.6s-3.2,1.6-3.5,1.6c-2.1.5-4.3-.7-6.3-.6-.2-.9.7-1,1.2-1.4,1.3-1.1,1.6-.8,2.6-1.4s.4-.8.7-1.2c1.6-1.8,1.5-.3,1.9-.2.7.2,1.6-.4,2.2-.2s.8,1.7,1.6.6.7-2.2.6-2.5-1.4-3.5-1.5-3.7c-.4-.5-1.4,0-1.9.2-3.4,1.3-6.5,5.5-9.9,6s-1,0-1.5,0-1.2.6-1.7.7-.9-.2-1.1-.2c-.4,0-.4,1.1-1.2.9s.8-2.3.8-2.5c.2-.8-3.1-.7-3.6-.4s-.2.6-.5.7-2.1.2-2.2.2c.3,1.5,3.1.9,2.8,2.8,0,0-1.8,0-2.2,0s0,.9-.7,1c-1.5.2-1.2-1-1.7-1.2s-.9.4-1.4.4c-2.4.5-6.8-1.7-9.1-2s-3.1.4-3.1-1.2c.5,0,1,0,1.4-.2,1.7-.4,4.2-.4,5.4-1.7s.4-.9.7-1.2c.5-.5,1.5-.2,1.2-1.5h-1c-1.8.3-5.8,2.4-7.8,3.1s-3.8,1.3-5.1,1.7-3.2.3-4.3.6-1.4,1.2-2.5,1.4-3.7.4-3.9.4c-.6,0-1.1-.7-1.9-.7s-2.7.8-3.8.9-1,0-1.5,0c-.2,0-.5-.4-.7-.5.2-.8-.4-.6-.5-.7-.7-.7-.6-.5-1.4-1-1.7-1.1-.9-1.4-.4-3.2.8,0,2.3-1,2.8-1.6l3.6-1.9c1-1.9,3.4-3,5.2-4.1s4.2-3,6.6-3.4c0,0-.2.4-.5.6-1.4.9-4.4,2-5.6,3.1s-.7,1.1-.7,1.7c2,.2.7.9,1,1.6s1.8,2,2.1,2.6c-.4,1.4.8,2.2,1,.5.8,0,.8.9,1.7,1s2,0,2.1,0c.3,0,.5-.5.8-.6.6-.2,1.4,0,2,0s.4-.8.7-1.1.6,0,.9-.4.2-.7.5-.9,1.4-.6,1.5-.6c.8-.2,0,1.5,0,1.6.9.2,1.4-.4,2-.9,2.9-.2,5.6-1.4,8.6-1.7,0,.8.8.9,1,1.2.8,1.2-1.9,3.6-1.5,4,.8,0,1.7,0,2.4,0s2-.9,2.6-.9,2.3.5,3.2.4,3.8-.8,4.4-1,.7-.9,1.3-.7c.3.7-.8,3.4-.7,3.6.2.7,1.4,0,1.8.2s.9.4,1.4.4,2-.9,2.3-1.1c2.6-1.6,5-4.2,7.9-5.4,2.9-1.2,2.3,2.5,3.1,3.1s1.2,0,1.6,0,.2.5.5.7c1.7.7,2.9-.3,4.5-.2-.2,2.3,0,1.5,1.1,2.2s.6.9,1.5.8.9-.7,1.4-.7,1.7.7,1.8.8c.4.4,0,1.1,1.2.8,0-.5-.6-.7-.5-1.2.3-1,3.5-1,4.4-1.3,0,.8-1.5.9-.8,1.9,1.5.2,2.5-1.6,3.2-1.4s.5.6.9.6c1.1,0,2.4-1.8,3.6-2s1.7.3,2.7.2.6-.6.9-1.1,1.4,0,2,0c-.2-5.4-2-1.4-2.2-1.4-.5,0-.9-.4-1.3-.6s-1.4,0-.8-.8.6-.3.8-.5.2-.6.4-.8c.8-.9,1.5-.2,2.4-.3s1.2-.6,1.7-.7c1.3-.2,2,3.2,1.7,4.2,2.4,0,1.4-.7,1.7-1.9s1.1-1.6,1.5-2.3.3-1,.5-1.4c.8-1.4,3.5-2.2,2.2-4,.2,0,.9-.2.9-.3.2-.3-1.5-4.2-1.4-5,0-.2-.4,0-.6-.2-2,0-3.2,2.4-4,2.6s-.4,0-.6,0c.4-.8,0-1.5-.9-1.3s-.2,2.3-2.4,2-.9-.5-1.3-.6c-.8-.3-2.4,0-2.2-1.6s2.5,0,2.8,0c.9-2-1.6-1.8-2-2.3s.5-1.4.8-1.5c1.2-.5,2.6,2.6,2.3,3.6.3.3,1.4-.6,1.5-.9.6-1.3-1.2-2.8-1-3.3s.6-.6.8-.9c.3-.6.5-1.3,1-1.8,1-1.1.9-.4,1.7-2s1.7-1.2,2.4-1.2,1.8.7,2.6.8c1.3.2,2.9-1,4.2.2s.4,1.5.9,1.4c.8,0,.6-1.1,1-1.5s1.4,0,1.4-.7c0-2.1-1.8-.3-2-.4-.4,0-.7-1.1-1.9-1.2-1.6,0-1.3.9-1.9,1.1-2.2.8-1.5-1.4-1.9-1.6s-1.8-.5-2.4-.6c-3.2-.7-5.5-.9-8.8-.5s-1.6.5-2.4.5c-1.3,0-2.8-.5-4.1-.3-1.2,1.1-2.6,2.9-4.3,2.4,0,.9-2.1,2.2-1.9,3.3s2.8.4,3.5.7,1.1,1.3,1.1,1.4c0,.8-2.5.6-3.1.6s-1.1-.4-1.6-.5c-.8,0-4.2,1.1-4-.3s2.4-.4,2.5-1.2-1-1.9-1.3-2c-.5-.2-.3.4-.6.6-1.3,1-2.3.6-3.7,1s-2.5,1.5-3.5,2.3c-2.1,1.8-2.5,0-3.1,0l-3.9,2.6c-2.3.4-4.3,1.3-6.5,1.9s-3.2,1.1-2.3-.4,2.1-1.6.5-1.2-1.9,1.4-2.6,1.6c-2.6.7-5.4.9-8.1,1.5-3.9.9-10.3,2.3-13.9,3.9s-.6.6-.9.7-.8-.3-1.4,0-.3.7-.9.7c-1.1,0-2.7-.4-4.1,0s-1.6,1.5-2,0,3.3-2.7,3-3.7-2.7.2-3.3.3l.9.2v.3q.1,0,0,0ZM104.7,133.3c0-.2,0-.9-.4-.9s-1.4.6-1.9.6-1-.3-1.8,0-1.8,1-3.1,1.1-1.5-.5-2,0,0,.9-.6,1.3-3.8,2-4,2.1c-.5,0-3.5-.8-3.1.9s2.1-.4,2.7-.4.9.6,1.2.7,1.3-.4,1.8-.4,1.4.6,2.1.7c2.3.3,2.9-1,4.7-1.8s5.7-1.3,6-1.7c.5-.5-.6-.7-.9-.7-1.3,0-2.5.4-3.8.2l1.5-1.2c.3-.2,1.5-.3,1.6-.4h0s0,0,0,0ZM133.1,141.6v-2.1c-.4-.6-2.3-.8-2.5.6s2,2.3,2.5,1.5ZM140.8,139.8c-2.5-.2-1.4,5.4.5,4.1s0-1.3-.2-1.7c0-.8,0-1.6-.3-2.4h0ZM149.4,151c-.2-.2-1.5.2-1.8.5s-.3.6-.5.7c-.7.5-1.8.7-1.7,1.9.9.2,1.3-.4,1.9-.8s.7,0,.9-.3.2-.7.5-.9,1.2-.5.7-1h0s0,0,0,0Z"/>
      <path class="st6" d="M257.2,85c1.9,1.2,3.8,2.4,5.8,3.5s.2,0,.2,0c0,.6.4.6.7.8,5.4,3.9,12.8,8.1,17.5,12.7.6.6,2.6,2.9.4,2.5-3.1-.5-10.9-4.7-14.2-6.3s-5.4-3.2-7.9-4.1c.2-.9-.1-.6-.5-.8-.7-.4-1.4-.7-2.1-1.1s-2.2-1.2-2.3-1.3c-.3-.4-.2-.9-.4-1.3-.8-1.8-3.2-2.8-4.6-3.7s-.4-.8-1.1-1.2c-.1-1.1,1.4,0,1.8.2,2.2.6,2.4,0,3.9-.2s2.1,1.3,2.7.2h.1q0,.1,0,.1Z"/>
      <path class="st4" d="M33.8,165.2h1.5c1.1,0,2.9-.9,3.8-.9s1.2.6,1.9.7,3.6-.3,3.9-.4c1.1-.3,1.9-1.3,2.5-1.4,1.1-.3,3-.2,4.3-.6s3.8-1.2,5.1-1.7c2-.7,6-2.9,7.8-3.1s.7,0,1,0c.3,1.3-.6,1-1.2,1.5-.6.5-.4.8-.7,1.2-1.2,1.4-3.6,1.4-5.4,1.7v-.9c-.9.4-1.7.6-2.5.9s-.9,0-.8.7c-.4,0-2.5.4-2.6.5s0,.5,0,.7c-.2,0-.9.2-1.2.2-.2-.5-.6-.5-1-.5-1.6,0-3.8.9-5.4,1.2s-2.5,0-3.4.3-.9.6-1.4.6-1.5-.6-2.1-.6c-1.2,0-2.2,1-3.7.4s-.4-.4-.4-.4h0q0,0,0,0Z"/>
      <path class="st12" d="M248.8,84.8c.7.3.7.9,1.1,1.2,1.4,1,3.8,2,4.6,3.7s0,.9.4,1.3,2,1.1,2.3,1.3c-.4.6-1.1.4-1.7.2-3.5-1.1-6.8-2.9-10.2-4s-13.2-4.1-17.4-4.1-5.5,1-7.6,2.4c.3-.9,2-2.5,2.8-2.7s1,.2,1.5,0c1.2,0,2.8-.5,4-.5s2.8.8,4,.9,3.5-.3,4.6-.2c2,.3,4.8,2.3,6.6,2.9s1.3,0,2,.4.9,1,1.6,1.2c1.3.4,1.2-.3,1.3-.4.9-.2,1.8.7,2.6.7.1-.4-.2-.5-.3-.7-2-2.6-3.5-3.3-6.6-4.4s-2.5-.5-2.6-.6,0-.4,0-.4c.7,0,1.2-.3,1.9,0s4.5,1.5,5.1,1.8h0Z"/>
      <path class="st12" d="M213.6,142.8c0,.7-.9,1.5-1.4,2s-1.7,1.3-2.3,1.9c-5.9,5.5-10.5,10-17.5,14.5s-9.6,6.1-13.6,6.5-6.3,2.7-7.9,3.4c.6-1.9,2.7-1.8,4.2-2.4s3-1.8,4.5-2.5c2.4-1.1,4.8-1.7,7.2-2.8s1.2-.3,1.6-.5c.6-.4.6-1.1.9-1.6.9-1.2,3.9-3.2,5.4-3.5s.8.2,1.3,0c1,0,1-.9,1.6-1.3s1.5-.5,2.2-1.1c2.6-1.9,4.8-4.9,7.3-7s4.3-3.9,6.6-5.6h-.1Z"/>
      <path class="st12" d="M227.3,118.3c-1.1,0-.4-2.2-.5-3.1s-.3-2.5-.5-3.2c-.4-1.6-1.7-3-1.3-4.9l.8.2c.3,1.3.6,2.7,1,3.9s0,.6.8.5c.3,2.7.3,3.9-.2,6.5h-.1Z"/>
      <path class="st12" d="M223.1,128.6c.6.2,0,.7,0,1-.8,1.6-3.5,6.4-4.8,7.2,0,0,0,.4-.1.7s-1.2,1.1-1.5,1.4c.3-.9.8-1.6,1.6-2.1,1.1-2.8,3.3-5.6,4.9-8.2h-.1,0Z"/>
      <path class="st12" d="M222.2,103c-.3,1.8,1.8,1.4,1.6,3-1.9,0-2.6-2.2-3.5-3.5.7,0,1.2.3,1.9.5Z"/>
      <path class="st12" d="M219.9,101.8c-1.2.3-1.3-1-1.5-1.2s-1,0-1.4-.4-.3-1.5-.4-2.1c.6.2.4.8.6,1.2.2.4.7.2.9.5s1.5,1.7,1.8,2.1h0q0,0,0,0Z"/>
      <path class="st12" d="M219.4,87.6c-.5.9-.6,2-1.4,2.6,0,0-.3-.2-.2-.5s.6-1.6.7-1.7c.3-.5.8-.3.9-.4h0Z"/>
      <path class="st12" d="M216.6,139.1c-.4,1.7-.5.8-1,1.4-.8.9-.2.9-1.8,2.1,0-1,1-1.5,1.5-2.2s.3-1.3,1.3-1.3Z"/>
      <path class="st12" d="M224.3,126.3c-.4-.3.5-1.7.9-1.9-.3,1.4-.5,1-.9,1.9Z"/>
      <path class="st12" d="M216.8,94.1c0,.6.2,1.5-.2,1.9,0-.5-.8-2,.2-1.9Z"/>
      <path class="st12" d="M225.9,122.3c0,.6,0,1.9-.7,1.6,0-.6,0-1.9.7-1.6Z"/>
      <path class="st12" d="M227.3,119c0,.5-.1,1.4-.7,1.2.1-.5.1-1.4.7-1.2Z"/>
      <path class="st0" d="M187.5,138.2c.1.6-.2.4-.5.5v-.5h.5Z"/>
      <path class="st12" d="M226.4,121.4c0,.5.1.8-.5.7.2-1.2.1-.4.5-.7Z"/>
      <path class="st12" d="M223.8,127.7c0,.3-.2.5-.5.5.4-.6.4-.4.5-.5Z"/>
      <path class="st12" d="M227.3,108.8h-.5c0-.2.2-.4.2-.5l.2.5h.1Z"/>
      <path class="st12" d="M216.6,97.6v-.2h.2l-.2.2Z"/>
      <path class="st1" d="M206.6,131.2s0,.4-.2.6c-.5.5-1.3.6-1.9.8,0-.7,1.5-1,2.1-1.4h0Z"/>
      <path class="st1" d="M202.4,133.7c.1.7-.5.5-.9.7-.2-.7.5-.5.9-.7Z"/>
      <path class="st1" d="M203.8,132.8c0,.7,0,.4-.5.5-.1-.7.2-.4.5-.5Z"/>
      <path class="st11" d="M244.1,80.8c-.6,0-.9.2-.7-.5s2.1-1.2,1.8-.5-.8.5-.7,1.1h-.5.1q0-.1,0-.1Z"/>
      <path class="st0" d="M154.1,170.8l2.1.8c-.7.9-2,1.4-2.8,2.1-1.2,1.1-2.5,2.6-3.5,3.9s-.5,1.1-1.6,1.6-3.3,1.5-4.7,2.2-6,3.3-6.2,3.6-.2.7,0,.7c1-.4,2-1.1,3.1-.9,0,.2.4.3,0,.9s-1.9,1.9-2.1,2.1c-.6.3-1.4.3-2,.6s-.8.9-1.6.6c.2-2-.9-.2-1.6,0s-.9-.8-1.5.5-.2,1.1-.2,1.2-.2-.3-.5.5l-1.4.2c0,1.4-.3,2.7-.5,4.1-.2,1.4.3.9-.5.8,0-1.2.3-3.3.5-4.5s1.2-2.5.6-2.9-1.9,0-1.3-.8,4.5-1.4,3.6-2.3-.5,0-.7,0c-.6-.6,2.7-1.5,3.2-1.4.9,0,.7.6.8.7.4.3,6-3.9,6.8-4.4s1-.2,1.3-.4c1.6-1,5.9-3.6,6.7-5.2s.2-1.5-.9-1.4-3.2,2.1-3.6,1.6.3-1.1-.8-.7,0,.7-.3.8-1,0-1.4.3c-1.1.4-1.8,1.1-3,.6s1-.7,1.3-.9c1.9-.8,3.7-1.6,5.6-2.3s3.2-1.3,4.9-1.7,1.2,0,1.9-.5h.3q0,0,0,0Z"/>
      <path class="st12" d="M162,164.3c0,0,.6,0,.7-.4.3-.5,0-1.3.4-1.8s2.6-1.7,3.3-2.3,4-4.7,4.3-4.8c1-.4-.4,1.7-.5,1.9-.2.3,0,.7-.1.9s-.4.4-.5.5c-.3.2-.4-.2-.7.7s0,.2,0,.2c-1.1.2-1.6,1.4-2.1,2.1s-.3.3-.5.5c-1,0-.9.5-1.2.9s-.2.2-.5.7c-.7,1.5-2.1,2.6-3.3,4-1.3,0-1.8,1.4-2.3,2.3s-.2.3-.2.5l-2.1,2.2-.5,1-.2.2c-.6,0-1.1.6-1.2,1.2-.2,0-.3,0-.5.2-.5.3-.9.7-1.4.9-.9.5-1.4.9-2.1,1.4s-.7,0-.9.2h-.2c1-1.3,2.3-2.8,3.5-3.9s2.1-1.2,2.8-2.1l-2.1-.8c.9-.5,1.6-1.5,2.8-2.1s.6.2.5-.5c.8-.4.6-.5,1.2-.9s.6.3.5-.5c.6-.3,1.1-.5,1.4-1.2,1,.2,1.1-.9,1.4-1.2s.2-.2.2-.2v.2h.1Z"/>
      <path class="st6" d="M131.2,191.1c-1.8,4.1-2.8,16.4-3.5,21.6s-.2,2.2-.3,3.4h-.7v-2.9c0-1,.7-2.4.9-3.5.3-1.9.3-4.2.5-6s.7-3.4.7-6.2,0-.8,0-1.2c.8.1.4-.4.5-.8.2-1.4.5-2.7.5-4.1l1.4-.2h0Z"/>
      <path class="st11" d="M133.1,215.8c0,.6-.3.5-.7.5-1.7.3-3.5.2-5.2.2s-.7.3-.8.2,0-.4,0-.5c.2,0,.3-.2.5-.2h.7c1.9,0,3.7-.3,5.6-.2h0Z"/>
      <path class="st10" d="M166.7,226.3c.4-.4,1.1-.4.9.2-.2,0-.5.2-.7.2-.1-.2-.2-.4-.2-.5h0Z"/>
      <path class="st0" d="M166.5,161.7c-.8,1.2-1.3,2.7-2.3,3.8s-3.5,3.1-3.7,4.3.4.5.4.7c.1.6-1.8,1.6-2.1,2s-.4,1.3-.9,1.9c1,1.5,5.2-1.9,5.6-1.5s-1.4,1.3-1.4,1.5.7,1.3,1,1.3c1.3,0,1.9-.9,2.6-1.1s1.7-.3,2.4-.5c-.3.3-.4.8-.5.9s-.4-.2-.7.7c-1.3-.3-1,.3-1.6.8-1.1.9-3.3.9-4.7,1.2s-.9.5-1.3.6c-.7,0-.2-.8-.3-.9s-.7,0-.9,0c.7-2.1-1.2-.7-2.1,0s-.7.3-.7.8h-.2c-.5,0-1.4-.5-1.4-1.1s1-1.2,1-2c0,0,.3,0,.5-.2,1.1-.6.8-.8,1.2-1.2s.2-.2.2-.2c.2-.2.7-.3,1.2-.8s.9-1.7,1.4-2.4.1-.3.2-.5c1-.3,1.6-1.6,2.3-2.3,1.2-1.4,2.5-2.4,3.3-4,.6,0,.5,0,.5-.7.3-.5.2-1.1,1.2-.9h-.2Z"/>
      <path class="st0" d="M169,159.2c-.4.9-1.2,1.8-2.1,2.1.5-.7,1-1.9,2.1-2.1Z"/>
      <path class="st0" d="M185.1,138.2s0,.2-.6.2-2.5-.4-2.5-1.2c1,.2,2,.7,3,.9h.1Z"/>
      <path class="st0" d="M169.7,158.2c0,.7,0,.8-.7.7.3-.9.4-.5.7-.7Z"/>
      <path class="st9" d="M171.4,240.1v1.4l-4.2.2c.3-1.1,2-.4,2.6-.9.3-.2-.2-1.1,1.5-.7h.1,0Z"/>
      <path class="st9" d="M157.6,224.9c-.2-2-.6-2-1.5-3.7s-1.2-1-.8-2.4c1-.3,1.2.8,2.1.7-.1-1.2-1.3-1.8-1.6-2.8.2-.2,5.7,2.6,5.8,2.9.4.7-1.3-.1-1.6,0s-1.1.6-.9,1.1c1.5,1.4,2.6,3.2,3.9,4.7s2.6,2.2,2.1,2.7-1.1-.4-.6,1,2.3,1.7,3.1,2.8.6,1.7,1,2.5,1.7,2.1.1,2.9-.7-1-.9-1.5-.8-.8-1.1-1.2c-.5-.8-.7-2-1.1-2.8s-1.4-1.3-1.8-2.1-.4-1.6-.6-1.9-1.6-1.1-1.7-1.1c-.4-.2-.9,0-1.1-.2s-.2-.6-.5-.8c-.5-.3-1.1,0-1.6-.1s-.3,0-.5,0v-.7h-.2,0Z"/>
      <path class="st6" d="M142,219.3l-.5-1.2,8.9-.7c.8.8-2.2,2-2.8,2.1s-1.4,0-2.1,0c0-1-.8-.3-1.2-.2h-2.3Z"/>
      <path class="st6" d="M148.3,220.3c.2,0,.6-.1,1.1.2s1,1.2,1,1.5c0,.7,0,2.9-.9,3.1s0-.8-1-.7c0-.9.2-2-.2-2.8v-1.4h0q0,.1,0,0Z"/>
      <path class="st6" d="M148,231.7c.7-1.5,1.5-.6,1.4.8s-1.1,2.1-1.7,2.4h-.2v-2.6c0-.2.3,0,.4,0,.2-.2,0-.5,0-.6h0,0Z"/>
      <path class="st0" d="M162.5,233.3c.6-1.9,1.7.6,1.3,1.2s-.7.2-1.1,0c0-.4-.2-.9-.2-1.2Z"/>
      <path class="st6" d="M149.7,229.4h-.9v.9h-.2c0-.4,0-1.7,0-2.3,1.3,0,.9.8,1.2,1.4h0Z"/>
      <path class="st4" d="M149.7,229.4c0,.2.6.5.5.9h-1.4v-.9h.9Z"/>
      <path class="st12" d="M124.5,240.3c0-.8-.2-1.5-1.2-1.4-.4-.7.2-2.3-.7-2.1v-1.6c.7.1.5-.3.4-.8s-.7-2.3-1.1-1.7l-.7.8c-.2-.7,0-1.6,0-2.2s-.2-.5-.2-.6v-.9c.7.1.5-.3.5-.9v-.7l1.2.2c.7-2.5,1.6-5,1.4-7.7.5-.1,1.2-.7,1.4.3l-.9,10.7c.6,1.1,0,3.6.3,4.3s1,1,1,1.3-.3.7-.3,1c0,1,.5,1.7-1,1.9h0q0,.1,0,0ZM123.8,231.7h-.7v2.3h.7v-2.3Z"/>
      <path class="st0" d="M124,220.7c.2,2.7-.7,5.2-1.4,7.7l-1.2-.2c0-1.6.5-3.4.7-5.1.3,0,1.3.4,1.4.2s0-.8,0-.9-1.2.3-.6-1.3.8-.3,1.1-.4Z"/>
      <path class="st0" d="M121,230.8s.2.3.2.6c0,.6-.2,1.5,0,2.2l.7-.8c.5-.6,1,1.4,1.1,1.7s.3.9-.4.8v-1.4c-1.2-.2-.5,1.4-1.5,1.4.3-.8-.4-1.5-.4-2s.2-.9.2-1.3-.2-1,.2-1.2h0,0Z"/>
      <path class="st1" d="M124.5,240.3c-.9,0-1.8,0-2.6-.2,0-.9.6-1.1,1.4-1.2s1.1.6,1.2,1.4h0Z"/>
      <path class="st0" d="M122.6,236.8c.9-.2.3,1.4.7,2.1-.8,0-1.4.3-1.4,1.2-.2,0-.5.1-.5-.1,0-1.2,1-1.1,1.1-1.7s0-1,0-1.5h.1Z"/>
      <path class="st11" d="M126.3,221.4v-.5l.2.2-.2.3Z"/>
      <path class="st0" d="M125.2,203c0,4.3-1.4,9-1.6,13.3h-.5c-.2-1.9.6-3.8.7-5.6s0-1.1,0-1.6c.3-.1.2-.4.2-.7,0-1.5.5-3.1.7-4.7s-.2-.8.5-.7h0Z"/>
      <path class="st7" d="M124,208.4c0,.3,0,.6-.2.7,0-.2-.7-.8.2-.7Z"/>
      <path class="st1" d="M138.7,177.1c.4.6-1.8,1.8-2.2,2.1s-.3.5-.4.6c-.3.2-.9,0-1.2.5-.8,1.4.9,1.5,1.2,1.9.7.8-1.6.9-1.8,1-.4.2-.5.6-1.2.7s-3-.2-2.6-1.4,1.9-2.2,2.1-2.3c.4-.2,1.3-.4,1.4-.5s0-.8.3-1.2,1.8-1.4,1.9-1.4c.5-.2,2.4-.2,2.6,0h0s0,0,0,0Z"/>
      <path class="st1" d="M153.4,169.4c.5-.3.9-.9,1.3-1.2,1.9-1.2,3.9-2.1,5.6-3.5.6-.2.2.7.1.9-.3.6-.8.9-1.4,1.2s-.6-.2-.5.5c-.5.5-.3.5-1.2.9s-.6-.3-.5.5c-1.2.6-1.9,1.6-2.8,2.1s-1.3.3-1.9.5h-.2c-.3-1.1,1.4-.7,1.4-1.9h0,0Z"/>
      <path class="st0" d="M126.8,216.1s-.3.2-.5.2h-.5l3-18.9c0,2.8-.3,3.6-.7,6.2s-.2,4.1-.5,6-.7,2.3-.9,3.5,0,1.9,0,2.9h0Z"/>
      <path class="st1" d="M126.1,189.7c.8-.2,1.8-.7,2.6-.4s-.2,2.5-1.8,2.1-.3-.8-.9-.7v-.9h0s0,0,0,0Z"/>
      <path class="st0" d="M125.9,196.7c0-1.6.2-3.5.2-5.1.4,1.6.4,3.6-.2,5.1Z"/>
      <path class="st0" d="M125.9,197.4c0,1.7-.3,3.5-.7,5.1,0-1.5,0-2.6.2-4.3s-.3-.9.5-.8Z"/>
      <path class="st9" d="M100.7,217.9c0,.9-1.2.9-1.6.3l1.6-.3Z"/>
      <path class="st1" d="M55,162.9c0-.8.4-.6.8-.7.8-.3,1.6-.5,2.3-.9v.9c-.3,0-.8,0-1.3.2s-1.1.3-1.6.5-.2,0-.2,0h0Z"/>
      <path class="st1" d="M72.5,167.3c-.3,0-1.3.8-1.4-.5.5,0,1,.2,1.4.5Z"/>
      <path class="st1" d="M77.4,168c.4,0,.5-.2.5.5-.3,0-.6.2-.5-.5Z"/>
      <path class="st13" d="M51.5,147.5c.6-.2,3.1-1.1,3.3-.3s-3.4,2.2-3,3.7,1.6,0,2,0c1.4-.5,3,0,4.1,0s.6-.6.9-.7c.7-.2,1,0,1.4,0s.6-.6.9-.7c3.6-1.6,10-3,13.9-3.9s5.5-.8,8.1-1.5,2-1.4,2.6-1.6c1.6-.4-.4,1.1-.5,1.2-.9,1.5,1.4.7,2.3.4,2.2-.7,4.2-1.5,6.5-1.9l3.9-2.6c.6,0,1,1.6,3.1,0s2.2-1.9,3.5-2.3,2.3,0,3.7-1,0-.7.6-.6,1.3,1.7,1.3,2c-.2.8-2.4-.5-2.5,1.2s3.3.3,4,.3,1,.4,1.6.5,3.3.2,3.1-.6-1-1.3-1.1-1.4c-.6-.3-3.1.5-3.5-.7s1.8-2.4,1.9-3.3c1.7.5,3.2-1.2,4.3-2.4,1.4-.2,2.9.3,4.1.3s1.6-.4,2.4-.5c3.2-.3,5.6-.2,8.8.5,3.2.7,2,.3,2.4.6s-.4,2.4,1.9,1.6.3-1.3,1.9-1.1,1.5,1.1,1.9,1.2,1.9-1.7,2,.4-.9.2-1.4.7-.2,1.4-1,1.5-.4-1-.9-1.4c-1.3-1.2-2.9,0-4.2-.2s-1.6-.9-2.6-.8-2,.5-2.4,1.2c-.9,1.7-.7,1-1.7,2s-.6,1.2-1,1.8-.7.6-.8.9c-.2.6,1.6,2,1,3.3s-1.2,1.2-1.5.9c.3-1-1.2-4.2-2.3-3.6s-1.1,1.2-.8,1.5c.4.6,2.9.3,2,2.3-.3.3-2.5-1.8-2.8,0s1.3,1.3,2.2,1.6.8.5,1.3.6c2.2.4,1.3-1.7,2.4-2s1.3.5.9,1.3h.6c.8-.2,2-2.7,4-2.6s.5,0,.6.2c0,.8,1.5,4.7,1.4,5s-.7.2-.9.3c1.3,1.8-1.4,2.6-2.2,4s-.2.9-.5,1.4c-.4.7-1.3,1.5-1.5,2.3-.2,1.2.8,2-1.7,1.9.3-1-.4-4.4-1.7-4.2s-.9.6-1.7.7-1.6-.6-2.4.3-.2.6-.4.8-.6.2-.8.5c-.6,1,.3.6.8.8s.8.7,1.3.6,2-4,2.2,1.4c-.6,0-1.6-.6-2,0s.3,1-.9,1.1-2-.3-2.7-.2c-1.2.2-2.5,2-3.6,2s-.6-.5-.9-.6c-.7-.2-1.7,1.6-3.2,1.4-.6-1,.8-1,.8-1.9-.9.3-4.1.4-4.4,1.3s.5.7.5,1.2c-1.3.3-.8-.4-1.2-.8s-1.7-.8-1.8-.8c-.5,0-.9.6-1.4.7-.9,0-1-.5-1.5-.8-1.2-.7-1.3,0-1.1-2.2-1.6,0-2.8.9-4.5.2s-.3-.6-.5-.7c-.4,0-1.1.4-1.6,0-.8-.6.5-4.6-3.1-3.1s-5.3,3.8-7.9,5.4-2.1,1.1-2.3,1.1c-.4,0-.9-.3-1.4-.4s-1.6.6-1.8-.2,1-2.9.7-3.6c-.7-.2-.9.5-1.3.7s-3.9.9-4.4,1c-.9,0-2.4-.5-3.2-.4s-2,.8-2.6.9-1.7,0-2.4,0c-.4-.4,2.3-2.8,1.5-4s-.9-.4-1-1.2c-2.9.2-5.7,1.5-8.6,1.7-.6.5-1.1,1-2,.9-.2-.2.7-1.8,0-1.6s-1.4.5-1.5.6c-.3.2-.2.7-.5.9s-.7.2-.9.4c-.3.2-.2.9-.7,1.1s-1.4,0-2,0-.5.5-.8.6-1.9,0-2.1,0c-.9,0-.9-.9-1.7-1-.3,1.8-1.4.9-1-.5-.3-.6-2-2.3-2.1-2.6-.3-.8,1-1.4-1-1.6,0-.6.2-1.3.7-1.7,1.2-1,4.1-2.1,5.6-3.1s.4-.5.5-.6c1.1-.7,1.2-.9,2.6-1.4h-.6ZM106.8,138.2h-.9v.5h.9v-.5ZM117,155.7c-.4-.4-1.2.4-.3.7s.4-.6.3-.7Z"/>
      <path class="st5" d="M160.2,149.8c-.8,1.2.7,1.9.7,2.4s-.9,2.1-1.1,2.4c-.7,1.1-1.7,1.8-3.1,1.7,0-1.1.9-1.7,1.4-2.7s1.5-4.5,2.1-3.8h0Z"/>
      <path class="st1" d="M157.3,133.5c1.4-.2.7,3.2-.2,4s-.8.2-1.1.3-1.7,1.6-1.3,0,2.2-4.3,2.6-4.4h0Z"/>
      <path class="st1" d="M64.8,141c0,.9-.4.2-.5.2l.5-.2Z"/>
      <path class="st1" d="M161.8,164.5l-.8-.2c.4-.5,1.2-1.3,1.1,0l-.2.2h-.1Z"/>
      <path class="st13" d="M104.7,133.3s-1.3.2-1.6.4l-1.5,1.2c1.3.2,2.6-.3,3.8-.2s1.5.2.9.7-4.9,1.2-6,1.7c-1.8.8-2.4,2.1-4.7,1.8s-1.3-.7-2.1-.7-1.5.5-1.8.4-.5-.7-1.2-.7-2.5,1.2-2.7.4c-.4-1.7,2.5-.7,3.1-.9s3.8-1.9,4-2.1c.5-.4.3-.9.6-1.3.4-.6,1.2,0,2,0,1.4,0,2.2-.9,3.1-1.1s1.2.2,1.8,0,1.6-.7,1.9-.6.5.7.4.9h0s0,0,0,0Z"/>
      <path class="st4" d="M140.8,139.8c.2.8.2,1.6.3,2.4s.8,1.3.2,1.7c-1.8,1.3-3-4.3-.5-4.1h0Z"/>
      <path class="st13" d="M133.1,141.6c-.5.8-2.6-.7-2.5-1.5,0-1.4,2.1-1.2,2.5-.6s.2,1.9,0,2.1Z"/>
      <path class="st1" d="M149.4,151c.5.5-.6.9-.7,1-.2.3-.2.8-.5.9s-.6,0-.9.3c-.6.4-1,1-1.9.8,0-1.2,1.1-1.4,1.7-1.9s.3-.5.5-.7,1.6-.6,1.8-.5h0s0,0,0,0Z"/>
      <path class="st6" d="M159,170.1c-.5.8-.8,1.7-1.4,2.4s-1,.7-1.2.8l.5-1,2.1-2.2h0Z"/>
      <path class="st6" d="M161.6,167.3c-.7.8-1.4,2-2.3,2.3.5-.9,1.1-2.3,2.3-2.3Z"/>
      <path class="st6" d="M156.2,173.6c-.4.3,0,.5-1.2,1.2,0-.6.6-1.1,1.2-1.2Z"/>
      <path class="st6" d="M165.3,162.7c0,.6.2.8-.5.7.2-.5.3-.5.5-.7Z"/>
      <path class="st0" d="M159,166.9c.2.7-.4.4-.5.5-.1-.7.3-.4.5-.5Z"/>
      <path class="st0" d="M157.4,168.3c.1.7-.3.4-.5.5,0-.7.3-.4.5-.5Z"/>
      <path class="st11" d="M144.3,219.3c.4,0,1.3-.8,1.2.2-.3,0-.6,0-.7.2h-.5v-.5h0Z"/>
      <path class="st0" d="M121.4,228.9c0,.6.2,1.1-.5.9,0-.6-.2-1.1.5-.9Z"/>
      <rect class="st1" x="123.1" y="231.7" width=".7" height="2.3"/>
      <rect class="st5" x="105.8" y="138.2" width=".9" height=".5"/>
      <path class="st5" d="M117,155.7s.2.9-.3.7c-.8-.3,0-1.1.3-.7Z"/>
    </g>
  </g>
</svg>