<?xml version="1.0" encoding="UTF-8"?>
<svg id="Layer_1" data-name="Layer 1" xmlns="http://www.w3.org/2000/svg" xmlns:xlink="http://www.w3.org/1999/xlink" viewBox="0 0 601 349">
  <defs>
    <style>
      .cls-1 {
        fill: url(#radial-gradient);
      }

      .cls-2 {
        fill: #047d99;
      }
    </style>
    <radialGradient id="radial-gradient" cx="307.1" cy="-164.19" fx="307.1" fy="-164.19" r="548.12" gradientUnits="userSpaceOnUse">
      <stop offset="0" stop-color="#fff" stop-opacity=".5"/>
      <stop offset=".67" stop-color="#008ab8" stop-opacity=".81"/>
      <stop offset=".84" stop-color="#008bb3" stop-opacity=".92"/>
      <stop offset="1" stop-color="#008cb0"/>
    </radialGradient>
  </defs>
  <rect class="cls-1" width="601" height="349"/>
  <g>
    <g>
      <path class="cls-2" d="M126.1,106.5h18.2l6.4,28.4c1.6,6.9,3,13.6,4.8,20.6h.4c1.8-7,3.1-13.7,4.8-20.6l7-28.4h17.6l-19.6,65h-20.8l-18.8-65Z"/>
      <path class="cls-2" d="M187.7,138.7c0-21.4,12.2-33.4,30.2-33.4s30.2,12.1,30.2,33.4c0,21.4-12.2,34-30.2,34s-30.2-12.6-30.2-34ZM230.5,138.7c0-11.8-4.8-18.6-12.6-18.6s-12.6,6.8-12.6,18.6,4.8,19.2,12.6,19.2,12.6-7.4,12.6-19.2Z"/>
      <path class="cls-2" d="M256.9,139.5c0-21.8,15-34.2,32.4-34.2,9.6,0,16.6,3.8,21.2,8.6l-9,10.4c-3.2-2.8-6.4-4.2-11.6-4.2-8.8,0-15.4,7-15.4,18.8s5.4,19,17,19c1.8,0,3.8-.4,5-1.2v-9h-9.6v-14h24.8v31c-4.6,4.4-12.8,8-22,8-18.2,0-32.8-11-32.8-33.2Z"/>
      <path class="cls-2" d="M324.3,106.5h42v14.4h-24.8v10.2h21.2v14.4h-21.2v11.6h25.8v14.4h-43v-65Z"/>
      <path class="cls-2" d="M379.9,106.5h17.2v50.6h24.6v14.4h-41.8v-65Z"/>
      <path class="cls-2" d="M425.9,163.3l9-11.2c4.6,3.8,10.8,5.8,16,5.8s7.4-1.7,7.4-4.6c0-3.1-3.3-4.1-8.8-6.3l-8.1-3.4c-7-2.8-13.1-8.7-13.1-18.1,0-11.1,10-20.2,24.2-20.2,7.8,0,15.7,2.8,21.6,8.2l-9,11.2c-4.4-3-8.8-4.6-12.6-4.6-4.2,0-6.8,1.5-6.8,4.4,0,3.1,3.7,4.2,9.6,6.5l7.9,3.1c8.1,3.2,12.7,8.8,12.7,17.8,0,11-9.2,20.8-25.4,20.8-8.6,0-17.6-2.8-24.6-9.4Z"/>
    </g>
    <g>
      <path class="cls-2" d="M144.58,174.2c7.42-.37,13.42-.37,20.42-.37-5,2.26-10,.75-15,2.26,6,.75,11,.75,17.07,1.74.31.57.56,1.19.83,1.86l.86,2.16c.18.46.42.93,1.64,1.42,6.6,1.1,14.6,1.85,21.6,2.6-6,3.01-14,.75-19.97,3.81.1.57.33,1.15.57,1.74l1.85,4.62c.21.52.42,1.04-.45,1.57-5,1.8-12,.3-17,3.31,7,.75,14,.75,20.59,2.95.21.51.41,1.02.61,1.53l2.09,5.2c.22.55.44,1.09.65,1.62,7.06,3,15.06.74,22.06,3.75-5,.75-10,.75-15.43,1.89-1.98.4-2.92.79-3.91,1.15l1.64,4.1h-17.6l-.57-1.73-.63-1.91c5.49-5.01,13.49-1.25,19.49-3.5-6-3.01-13-.75-19.35-2.94-2.12-.47-2.56-.93-2.71-1.4l-1.73-5.27-.78-2.39c-6.43-3.05-15.43-.79-21.43-3.8,6-1.5,13,0,19.2-3.26-.16-.53-.32-1.07-.48-1.6-.32-1.07-.63-2.14-.96-3.21-.19-.64-.39-1.29-.59-1.94,5.83-4.29,13.83-2.03,20.83-4.29-8,2.26-17,0-23.78,4.29-.2.65-.41,1.29-.6,1.94-.33,1.07-.65,2.14-.97,3.21-.16.53-.32,1.07-.48,1.6-6.16,4.01-15.16,1-21.16,4.01,6,1.5,13,0,19.04,3.05l-.72,2.39-.76,2.52-.82,2.74c4.26,4.34,12.26.58,17.26,4.34-7,1.5-14,0-19.61,3.5l-.57,1.91-.52,1.73h-18.2l1.18-3.07c.12-.32.28-.67.65-1.03,7.07-2.29,14.07-1.54,21.07-3.8-6-.75-13-.75-18.71-3l.62-1.62,2-5.2c.19-.51.39-1.02.59-1.53-6.5-2.95-13.5-.69-19.5-3.7,7-.75,14-1.5,21.47-2.55.6-.52.82-1.05,1.04-1.57l1.78-4.62c.23-.59.45-1.17.7-1.74,7.02-2.3,14.02-2.3,21.02-3.06-6-2.26-12-.75-18.22-3.35-.17-.49,0-.96.19-1.42l.83-2.16c.26-.67.5-1.29.63-1.86-5.43-.99-10.43-.23-15.43-1.74,5-1.5,10-1.5,15.14-1.64,1.07-.16,1.45-.25,1.45-.25Z"/>
      <path class="cls-2" d="M217.9,173.3c2.06,0,4.04.12,5.93.37.95.12,1.87.27,2.64.45-3.47,1.97-7.47.46-10.47,1.97,6,.75,13,.75,19.39,1.58.85.2,1.4.41,1.95.63,1.69,1.09,3.21,2.34,4.54,3.75.33.35.67.72,1.84,1.09,7.28,1.97,15.28,1.97,23.28,2.72-6,3.01-14,.75-20.47,3.6.13.47.3.95.45,1.43.37,1.22.65,2.49.84,3.82.09.66.17,1.34.21,2.04-5.03,4.15-14.03.39-20.03,4.15,7,.75,14,.75,19.65,2.88-.05.52-.15,1.03-.27,1.53-.48,2-1.19,3.85-2.11,5.55-.23.42-.43.84-.3,1.25,5.03,1.59,10.03,3.09,16.03,3.09-8,2.26-16,1.5-23.65,3.96-.85.53-1.74,1.02-2.67,1.46-4.66,2.22-10.35,3.38-16.78,3.38s-12.12-1.15-16.78-3.37c-.93-.44-1.82-.93-2.67-1.46,4.54-3.23,11.54-.97,16.54-3.98-8-1.5-16-.75-23.56-3.06-.41-.41-.67-.82-.9-1.25-.92-1.7-1.63-3.56-2.11-5.56-.12-.5-.23-1.01-.57-1.53-5.86-2.14-12.86-2.14-19.86-2.9,6-3.76,15,.75,19.77-4.15.05-.69.12-1.37.21-2.04.19-1.33.47-2.6.84-3.82.15-.49.31-.97.5-1.43,6.67-2.1,13.67-.59,20.67-3.6-4,0-8-1.5-12.44-1.57-1.1-.2-1.89-.39-5.05-.58,1.29-1.68,2.82-3.17,4.56-4.46.58-.43,1.19-.84,1.81-1.22-3.88-1.94-8.88-1.19-12.88-1.94,8-1.5,16,0,23.91-2.1.84-.15,1.7-.28,2.57-.38,1.74-.2,3.55-.31,5.43-.31ZM223.26,184.43c-.26-.07-1.26-.07-1.26-.07,2,1.5,5,0,7,1.5-5,2.26-11,1.5-16.74,2.46-1.82.31-2.94.64-4.35.99-1.12,1.62-1.91,3.6-2.31,5.9-.1.57-.17,1.17-.22,1.78-6.38,2.42-13.38,1.66-20.38,3.17,6,2.26,14,1.5,19.57,3.31,1.29.46,1.46.91,1.6,1.34.86,2.59,2.33,4.61,4.31,5.97.66.46,1.38.84,2.16,1.15,3.36,1.01,5.36,1.01,8.42.7.57-.16,1.33-.39,2.1-.7,3.09-1.24,5.33-3.67,6.47-7.12.14-.43.18-.88-.65-1.34-5.98-2.56-12.98-1.05-18.98-3.31,6-1.5,14,.75,20.43-3.17-.05-.61-.13-1.2-.22-1.78-.4-2.29-1.18-4.28-2.3-5.9,1.06-.35,1.79-.68,3.64-.99,5.46-1.71,10.46.55,14.46-2.46-7-.75-14-.75-20.65-1.37-.83-.04-1.53-.06-2.09-.06Z"/>
      <path class="cls-2" d="M289.7,173.3c1.84,0,3.64.11,5.38.31.87.1,1.72.22,2.56.37-3.64,2.11-8.64.61-12.64,2.11,8,0,16,.75,24.15,1.79.46.15.8.31,1.06.47.53.32,1.03.64,1.49.97v2.43c0,.37.11.78.59,1.22,5.71,2.15,12.71,1.4,19.71,2.9-6,3.01-13,.75-19.38,3.37-.81.58-.92,1.16-.92,1.74v5.61c-4.7,3.57-12.7,2.06-18.7,3.57,5,2.26,10,1.5,15,2.26-13-.75-26,2.26-39-2.26,6-.75,12-.75,16.65-2.79,1.22-.88,1.25-1.76,1.25-2.54v-2.73h9.6v-1.06c0-.63,0-1.48,1.43-2.33,6.07-.6,11.07-2.1,17.07-2.1-6-3.01-13-1.5-19-2.26,1,.75,3,1.5,4,1.5-7,2.26-16,1.5-22.86,3.87-.44.58-.83,1.2-1.16,1.86-.5,1-.87,2.09-1.11,3.28-.12.6-.21,1.21-.28,1.86-4.59,3.43-12.59,1.92-18.59,3.43,6,2.26,12,1.5,18.17,3.17,1.08.47,1.31.92,1.5,1.35,1.51,3.48,4.4,5.96,8.11,7.23.93.32,1.97.56,3.28.72,2.94,1.07,5.94.32,9.39-.55.62-.18,1.21-.38,1.78-.61,1.14-.47,2.21-1.05,3.27-1.76l2.33,2.03c7.17,3.46,16.17,2.71,24.17,3.46-6,1.5-13,2.26-19.33,3.65-.66.42-1.35.83-2.08,1.22-4.36,2.33-10.1,3.94-17.3,3.94s-13.74-1.54-19.17-4.47c-.91-.49-1.46-1.01-.23-1.58,5.1-2,11.1-.5,16.1-2-8-2.26-17-1.5-24.83-4.08-.57-.79-1.08-1.61-1.55-2.46-.46-.86-.87-1.75-1.22-2.67-.32-.85-.6-1.74-.82-2.65-6.58-2.43-13.58-2.43-20.58-3.18,6-2.26,14-.75,19.91-4.18.06-.51.1-1,.16-1.49.11-.98.28-1.92.49-2.84s.49-1.79.8-2.64c4.63-3.15,12.63-.9,17.63-3.9-5-.75-10-.75-13.52-2.83.59-.65,1.22-1.27,1.88-1.85.6-.53,1.23-1.03,1.89-1.5s1.35-.92,2.07-1.34c-3.32-3.01-7.32-1.5-11.32-2.25,8-1.5,16,0,23.85-2.08.94-.16,1.89-.29,2.86-.39,1.94-.21,3.94-.31,5.99-.31Z"/>
      <path class="cls-2" d="M323.98,174.2c14.02-.37,29.02-.37,43.02-.37-5,1.5-11,.75-16,2.26,5,1.5,11,0,15.69,1.54.61.63.61,1.31.61,1.99v2.61c2.7,2.89,6.7,2.13,10.7,2.89h-25c2-.75,4,0,6,1.5-6,1.5-12,.75-17.45,2.78-.05.55-.05,1.09-.05,1.6v2.76h21.2v2.81c-4.7,3.59-11.7,2.08-17.7,3.59,5,2.26,12,1.5,17.08,3.63.62.5.62.8.62.8h-21.2v6.47c0,.72,0,1.2,0,1.2,15.49-.07,30.49-.07,44.49,3.69-6,1.5-13,0-19.36,3.07-.31.44-.34.87-.34,1.27v2.81h-42v-4c.78-.36,1.54-.73,3.21-1.13,5.49-2.02,12.49-.51,17.49-2.77-7-.75-14-.75-20.56-2.75-.14-.52-.14-1.05-.14-1.59v-5.11c-.03-.52-.04-1.05-.12-1.59-6.18-2.51-13.18-1.76-19.18-3.27,5-3.01,12-1.5,18.02-3.24,1.23-.55,1.28-1.09,1.28-1.63v-6.36c.97-.32,1.76-.63,3.17-.95,5.54-1.36,11.54-.6,17.54-2.86-6-.75-13-1.5-18.55-2.44-1.91-.54-2.03-1.07-2.15-1.58v-2.16c0-.67,0-1.29-.08-1.86-5.22-.99-11.22-.99-16.22-1.74,5-1.5,10-1.5,14.6-1.64,1.03-.16,1.38-.25,1.38-.25Z"/>
      <path class="cls-2" d="M379.58,174.2c14.42.38,27.42-1.88,41.42.38-6,.75-12,0-18,1.5,6,.75,12,.75,18.11,1.54.59.63.59,1.31.59,1.99v2.61c2.3,3.64,7.3,2.13,11.3,2.89h-21c1,0,4,.75,3,.75-5,3.01-12,1.5-17.88,3.66-.01.46-.02.94-.02,1.45v6.1c-7.1,3.08-15.1,2.33-22.1,3.08,7,3.76,15,0,22.1,3.91v6.67c0,.53,0,1.04.01,1.55,5.89,2.91,13.89.65,19.89,3.66-6,.75-11,1.5-16.86,1.85-1.74.4-2.38.78-3.04,1.15v4.15h-17.2v-3.16c0-.33.06-.68.39-1.06,6.71-2.93,13.71-1.43,20.71-2.93-7-3.01-15-.75-21.1-4.03v-6.97c-.25-.58-.49-1.16-2.67-1.74-5.23-1.55-11.23-.8-16.23-2.3,6-3.01,14-.75,18.88-4.8,0-.59.01-1.18.02-1.77v-1.75c0-.66.02-1.31.03-1.96,5.07-4.02,12.07-2.51,17.07-4.77-5,0-10-1.5-15.13-2.44-1.24-.54-1.58-1.07-1.98-1.58v-2.16c0-.67,0-1.29-.08-1.86-5.82-.99-11.82-.99-17.82-1.74,5-1.5,11-.75,16.21-1.64,1.01-.16,1.37-.25,1.37-.25Z"/>
      <path class="cls-2" d="M450.5,173.3c2.16,0,4.2.13,6.1.38.95.12,1.87.28,2.62.46-3.22,1.95-8.22.45-11.22,1.95,6,.75,13,0,18.9,1.37,1.06.18,1.71.37,2.37.56,1.44.96,2.66,2.03,3.64,3.19.49.58.92,1.18,1.34,1.8,6.75,2.1,13.75.6,20.75,3.61-6,.75-12,.75-18.46,2.33-.64.85-.71,1.65-.85,2.42-.43,2.35-1.52,4.34-3.2,6.01-.89.24-1.64.47-2.75.7-6.73,2.08-14.73,1.33-21.73,2.08,3,3.01,8,.75,10.73,3.35-.48.29-1.45.58-2.2.8l-1.23.36c-5.9,1.73-9.6,2.56-9.6,4.89,0,1.09.65,1.92,1.83,2.47,4.48,2.42,7.48.16,11.05-.05.71-.19,1.42-.42,2.15-.68,1.44-.51,2.91-1.15,4.38-1.9l2.33,2.18c.33.31.74.64,1.66.98,6.91,1.87,14.91,1.12,21.91,3.38-6,.75-13,.75-19.2,3.31-.8.45-1.62.86-2.47,1.25-5.08,2.31-10.98,3.49-16.83,3.49-7.1,0-13.15-1.71-17.43-4.47-.86-.55-1.05-1.14.81-1.77,4.11.45,8.11-1.81,12.11-1.81-5-3.01-13-.75-18.28-3.51-.71-.39-1.01-.78-1.13-1.18-.19-.8-.29-1.62-.29-2.45,0-.88.1-1.73.28-2.53s.45-1.56.79-2.29c-5.36-3.08-11.36-.83-16.36-3.84,8-1.5,16-.75,23.27-2.95.91-.41,1.72-.79,2.56-1.12.84-.34,1.7-.64,2.57-.9l8.1-2.56c2.75-.83,4.95-1.43,6.46-2.12.76-.34,1.34-.71,1.82-1.13,6.22-2.02,13.22-2.02,20.22-2.77-7-2.26-14-1.5-21-2.26,1,.75,3,1.5,4,1.5-8,2.26-17,1.5-25,3.01,4-1.5,9-.75,13-3.01-7-1.5-14-.75-20.77-3.31l-2.33-2.18c.7-.5,1.42-.96,2.16-1.4s1.49-.85,2.02-1.24c-4.08-.89-9.08-.89-13.08-1.64,9-.75,17-.75,25.72-2.2.86-.13,1.73-.24,2.59-.33,1.73-.17,3.47-.26,5.19-.26Z"/>
    </g>
  </g>
</svg>