<?xml version="1.0" encoding="UTF-8"?>
<svg id="Layer_2" xmlns="http://www.w3.org/2000/svg" version="1.1" viewBox="0 0 566.9 566.9">
  <!-- Generator: Adobe Illustrator 29.3.1, SVG Export Plug-In . SVG Version: 2.1.0 Build 151)  -->
  <defs>
    <style>
      .st0 {
        fill: #444649;
      }

      .st1 {
        fill: #3d3734;
      }

      .st2 {
        fill: #68676d;
      }

      .st3 {
        fill: #716f70;
      }

      .st4 {
        fill: #68503f;
      }

      .st5 {
        fill: #927863;
      }

      .st6 {
        fill: #7f7676;
      }

      .st7 {
        fill: #2d231d;
      }

      .st8 {
        fill: #473729;
      }

      .st9 {
        fill: #3b3f45;
      }

      .st10 {
        fill: #5b5f68;
      }

      .st11 {
        fill: #7d93a4;
      }

      .st12 {
        fill: #5a4f48;
      }

      .st13 {
        fill: #56585c;
      }

      .st14 {
        fill: #525458;
      }

      .st15 {
        fill: #5d809b;
      }

      .st16 {
        fill: #552611;
      }

      .st17 {
        fill: #686367;
      }

      .st18 {
        fill: #6a6d75;
      }

      .st19 {
        fill: #6a6b71;
      }

      .st20 {
        fill: #4d4c50;
      }

      .st21 {
        fill: #69707b;
      }

      .st22 {
        fill: #8ba5bc;
      }

      .st23 {
        fill: #5b4637;
      }

      .st24 {
        fill: #646e78;
      }

      .st25 {
        fill: #775d47;
      }

      .st26 {
        fill: #383637;
      }

      .st27 {
        fill: #67513f;
      }

      .st28 {
        fill: #7a9dbb;
      }

      .st29 {
        fill: #5e646c;
      }

      .st30 {
        fill: #86634b;
      }

      .st31 {
        fill: #646772;
      }

      .st32 {
        fill: #56575c;
      }

      .st33 {
        fill: #56575d;
      }

      .st34 {
        fill: #242628;
      }

      .st35 {
        fill: #303235;
      }

      .st36 {
        fill: #8b9eb0;
      }

      .st37 {
        fill: #7fa0bb;
      }

      .st38 {
        fill: #6c727c;
      }

      .st39 {
        fill: #ac927a;
      }

      .st40 {
        fill: #8b6f59;
      }

      .st41 {
        fill: #3b3737;
      }

      .st42 {
        fill: #728da2;
      }

      .st43 {
        fill: #5a4332;
      }

      .st44 {
        fill: #83a2be;
      }

      .st45 {
        fill: #9a806d;
      }

      .st46 {
        fill: #969094;
      }

      .st47 {
        fill: #483727;
      }

      .st48 {
        fill: #3f332f;
      }

      .st49 {
        fill: #432e1e;
      }

      .st50 {
        fill: #8ba9be;
      }

      .st51 {
        fill: #756e6c;
      }

      .st52 {
        fill: #696767;
      }

      .st53 {
        fill: #4d433f;
      }

      .st54 {
        fill: #698599;
      }

      .st55 {
        fill: #84a3bb;
      }

      .st56 {
        fill: #53575c;
      }

      .st57 {
        fill: #41342c;
      }

      .st58 {
        fill: #988677;
      }

      .st59 {
        fill: #61544c;
      }

      .st60 {
        fill: #524c4b;
      }

      .st61 {
        fill: #46494d;
      }

      .st62 {
        fill: #0e0f0e;
      }

      .st63 {
        fill: #799bb4;
      }

      .st64 {
        fill: #5f5d60;
      }

      .st65 {
        fill: #646568;
      }

      .st66 {
        fill: #977e6c;
      }

      .st67 {
        fill: #7d5f4c;
      }

      .st68 {
        fill: #805b46;
      }
    </style>
  </defs>
  <g id="Layer_1-2">
    <g id="lepelaar-vliegen-II.psd">
      <g>
        <path class="st54" d="M528.6,318.6v.9c-.9.2-.9-1.1,0-.9Z"/>
        <path class="st15" d="M528.6,182.9v.3l-.9.3c0-.8.2-.6.9-.6h0Z"/>
        <path class="st2" d="M236.2,349.2c.2-.3.5-.5.8-.4l3.7,1.9c.5-1.2,1.3-1.2,2.5.2l3,1c-.9-1.1-1-2.8.7-2.7l3.8,2.1h1.5c2.7,1.8,3.3,1.6,1.7-.8.2-2.9,5.1.3,6.3,1.2.4.1,4.2.7,4.2.2-1-2.1-1.5-4.1,1.7-2.6,1.5.5,3.9,1.5,4.8,2.7l1.1.3c.1-.2.2-.2.3,0,.7.7,1.3.8,1.9,0h3.6c.8-.6,1.9-.6,3.2.2,1-.9,3.3-2.2,3.8-.4-.2.3-.6.5-1.2.5-.8,1.2-2.1,1.2-3.4,1.2l-4.4-.3c-3.1.3-6.1.4-9.2.4-.1.4-.6.9-.9,1.1-.4.2-5.9-.4-6.8-.6,0,0-.2-.1-.2-.3-1.4-1-3,0-4.6,0-1,.3-2.1.4-3.3.1-1.8-.1-3.6-.3-5.4-.4-3.8-.3-7.1-.6-10.6-1.4-.2,0-.3-.1-.4-.3-.9,0-1.8.4-2.6.9-.2.3-.5.5-.9.4h-4.6c-3.5,1.3-7.7,2.3-11.1,1-3.9.9-7.6,1.4-11.6,1.1l-3.7.5-.6-.4c-.2-1.3,1.8-1.3,2.8-1.3s2.3-.3,3.3-.9c1.4.3,2.8.7,4.1,1.1-.4-1.9,0-2.1,1.8-1.4,1.7.6,2.3.5,3.6-.5l1.8.5c-.5-.9,0-1.2,1.3-1.1,1.5,1.1,2.8,1.4,4.1.8.1-.5.4-.6.6,0,.9.3,1.6.1,2.1-.5,0-2,1.6-2.1,4.7-.1,1.5-1.7,2.4-1.7,4.5-1.4l.6-.5c-.5-1.8.2-1.7,1.5-.9h0s0,0,0,0v-.2Z"/>
        <path class="st46" d="M331.5,334c.5.3,1,.6,1.4.9-.3.6-.3.5-.6.9-.8,1.2,0,1.7.9,2.9l-.3.3c-2-.6-4.1-3.6-4-5.7,0-.8,1.2-.8,1.7-.3.8-.3,1.2.4.9,1.1h0Z"/>
        <path class="st42" d="M247.3,354h-1.4c.4-.8,1.2,0,1.4,0Z"/>
        <path class="st42" d="M242.5,354c-.6,0-1.1-.3-1.1-.3l1.1.3Z"/>
        <path class="st42" d="M250.8,354.6c-.5,0-.8-.3-.9-.3l.9.3Z"/>
        <path class="st28" d="M510.9,183.2c1.2-.3.6,1.1-.3.9v.5c-5.7,5.3-11.9,10.1-18,14.8-.1,0-.3,0-.5,0-.8,1.6-3.2,3.9-5.1,3.7-1.3,0-.3-1,.6-.9,0-.6.8-1.4,1.4-1.4,1.7-1.5,3.9-2.8,5.7-4.3.2-.6.9-.9,1.4-1.1.1,0,.4-.4.6-.6l.9-.6c.2-.2.4-.4.6-.6.3-.4.6-.8,1.1-.9.5-.4,1-.9,1.4-1.4.3-.4.7-.7,1.1-.9.2,0,.4-.2.6-.3l.9-.6c.1,0,.2-.2.3-.3,0-.9.2-1.3,1.1-1.4.4-.4,1-.8,1.4-1.1,0-.6.5-1,1.4-1.1.7-.6,1.2-1.2,2-1.7,0-.4.5-.7.9-.9h.6v.2Z"/>
        <path class="st28" d="M496,180.5c0-1-1-.3-.6.4l-.4.2c-3.2,5.6-5.9,11.6-8.4,17.5v.5c-1.1,1-2.5,3.4-2,4.9.2,1.1.9,0,.6-.6.5,0,.9-.9.9-1.4.8-1.7,1.5-3.8,2.3-5.5.4-.3.5-.9.6-1.4,0,0,.2-.4.4-.6l.3-.8c.1-.2.2-.4.4-.6.3-.3.5-.6.5-1.1.2-.5.5-1,.9-1.4.3-.3.4-.7.5-1.1,0-.2,0-.4.1-.5l.3-.8s.1-.2.2-.3c.7-.2,1-.4.9-1.2.2-.4.4-.9.6-1.4.5,0,.7-.6.6-1.4.3-.6.7-1.2,1-2,.3,0,.5-.5.5-.9s0-.3-.1-.5h0Z"/>
        <path class="st28" d="M494.4,180.3c.8-.7.9.5,0,.7v.4c-2.4,6-5.5,11.9-8.7,17.7,0,0-.2.2-.4.3,0,1.5-1.2,4.1-2.7,4.7-1,.5-.6-.6.1-.8-.2-.4.2-1.3.6-1.6.8-1.7,2.1-3.6,3-5.3,0-.5.4-1,.7-1.4,0,0,.1-.4.2-.6l.5-.8c0-.2.1-.4.2-.6,0-.4.2-.8.6-1.1.2-.5.5-1.1.6-1.6,0-.4.3-.8.6-1.1.1,0,.2-.3.4-.4l.5-.8s0-.2.1-.3c-.3-.7-.3-1,.4-1.5.2-.5.5-.9.7-1.4-.2-.4,0-.9.7-1.4.3-.7.5-1.3,1-2-.1-.3.1-.7.4-.9.1,0,.3,0,.5-.2h0Z"/>
        <path class="st15" d="M496.9,186.1c.3-.7.1-2.8.4-3.2.2-.4.9,0,1.2-.3.8-.5,1.1-2.5,1.5-2.9.3-.4,1-.3,1.1-.5.1,0,1.2-2.5,1.6-3.1.4-.7,0-1.9,1.6-1.3l-1.4,2.7c.7,0,1-1.3,1.1-1.4,1.1-1-.1,2.7-.3,2.9-.2.3-.9.5-1.2.8-.5-.2,0-1,.3-1.4s-3.1,5.5-3.6,6.3h-.4c-.1.2-.3.2-.6,0-.4.4-.8.9-1.4,1.4h0Z"/>
        <path class="st63" d="M510.6,186c.2,0,.8-.8.9-.9,1.8-.8-.1-2.5-.3-.9h-.5c-5.7,5.3-11.7,10.3-18,15l-.2.6c-1.7,0-2.1,3,0,2.3.5.3.7,0,.3-.3.3-.4.2-.5-.3-.3,2.4-2.2,5-4.4,7.9-6.4l.4-1c.1,0,.4-.2.6-.3,1,0,1.8-.8,2-1.7.1,0,.2-.2.3-.3l.9-.9c1.6-1.3,3.3-2.6,4.9-4l1.4-1.1h0l-.3.2Z"/>
        <path class="st15" d="M491.8,188c-.6.4-1.1,1.1-1.4,2h-.4c.4-.8,1-1.6,1.3-2.5l.4.6h.1Z"/>
        <path class="st36" d="M507.5,194c.4-.2.6-.2.3.3-.7.4-1.4.9-2,1.4,0,.5-.5.8-1.1.9-.3.3-1.1.9-1.1,1.1l-.3,1.4c-1.3,2.5-8.9,5.9-11.4,7.7,0,.6-.3.9-.9.6-.6-.4-.6-.8,0-1.1,1.4-1.4,3.2-2.6,5.2-3.5,1.7-1.4,3.5-2.4,5.4-3.1-.1-.8,0-1.2.9-.9.3-.5.3-.8.3-1.4-.2-.2-.4-.4-.3-.5.3-.5,4.6-3.2,4.9-3.1.1,0,.2,0,.3.2h-.2Z"/>
        <path class="st22" d="M502.7,179.8c0,0-.2.4-.3.6l-.6.9c-.3.5-.6.9-.9,1.4-.2,1.1-.8,2-1.7,2.8-.1.3-.4.5-.6.9-.3.9-.8,1.8-1.4,2.6-1,1.2-1,1-1.4,2.6-.1.3-.3.6-.6.9-1.2,1.2-2,2.9-3.1,4.3l-.6.9c-.7.8-1.8,2-2.6,2.9-.3.7-1.1,1.4-1.7,1.7,0,.2-.1.2-.3,0-.4.2-.5,0-.3-.3v-.7c4.7-4.8,8.4-10.4,11.8-16.1l.5-.4c1.1-1.8,2.5-4.4,3.6-6,.2-.2.4-.6.7-.6-.1.6-.4,1.2-.6,1.7h.1Z"/>
        <path class="st44" d="M498.4,184.6c-3.3,6.2-7.6,13.2-12.8,17.4,0,.2-.2.2-.3,0-.6-.4.6-1.7,1.1-2,1.6-2.1,3.4-3.6,4.9-6,.4-.7.9-1.2,1.4-1.7.2-.3.4-.6.6-.9.1-.7.5-1.4,1.1-1.7.5-.7,1-1.6,1.4-2.3,0-.5.4-1.1.9-1.1,0,0,.2-.2.3-.3.5-.4.6-1.1,1-1.5.3-.3.4,0,.4,0h0Z"/>
        <path class="st31" d="M509.5,192l.3.3c0,.8-1.6,1.5-2.3,1.7-1.4.9-4.2,1.8-4.9,3.4.1.6,0,1.1-.3,1.4-.3.3-.4.5-.9.9l-.5-.2c0,.4-.9.6-1.2,0-1.4,1.3-2.5,1.5-3.2.6,0,0-.1-.2-.1-.4,0-.7,10.1-6.3,11.5-7,.1-.5,1-1,1.4-.6h.2Z"/>
        <path class="st37" d="M508.1,192.6l-11.4,7.4c-.4,1.1-2.9,2.4-4,2-.1,0-.2-.2-.3-.3,2.9-1.7,5.8-3.7,8.6-5.5,1.2-.7,2.4-1.5,3.6-2.2.6-.4,1.1-.8,1.7-1.1l1.1-.3s.2-.2.3-.3c.4-.3.6-.2.3.3h0Z"/>
        <path class="st50" d="M491.8,188c-.5.5-.8,1.6-1.1,2.3,0,.6-.3,1.2-.6,1.7-.2.3-.5,0-.6.9,0,.3,0,.6-.3.9,0,0-.2.2-.3.3,0,.6-.3,1.2-.9,1.7-.6,1.2-1.4,3-2,4,0,.8-2,3.6-2.3,2.3,1.9-4,4-8,6.3-12,.4-.8,1-1.6,1.3-2.6l.4.6h.1Z"/>
        <path class="st15" d="M509.8,192.3c.7-.4,3-1.6,3.6-1.7.5,0,.5,0,.4.4,0,.7-.6.4-1.2.8-1.6.9-3.2,1.6-4.8,2.5l-.3-.3c.6-.4,1.5-1.3,2.3-1.7h0Z"/>
        <path class="st15" d="M507.8,192.3c.5-.3,1.3-1.1,2-1.5.2,0,3.9-1.7,2.8-.5,0,0-2.6,1.4-3.1,1.7-.4.2-1,.4-1.4.6l-.3-.3h0Z"/>
        <path class="st15" d="M486.4,200c-.4.5-.9,1.6-1.1,2,.7,1.3-1.8,1.3-2,.9-.1-.2.1-1.4.6-.9v.3c.8-.7,1.8-1.8,2.3-2.6l.3.3h0Z"/>
        <path class="st54" d="M447.9,248.2c1-.8,2.2-1.3,3.1-2.3,0,0,0,.5-.1.8-.3.4-2.4,2.2-3,1.4h0Z"/>
        <path class="st15" d="M500.9,182.6c.4,2-.7,1.7-1.7,2.9.6-.9,1.2-1.9,1.7-2.9Z"/>
        <path class="st15" d="M489,200.9c-.4.3-1,1-1.4,1.4-.3.2-.5,0-.3-.3.3-.8,1.2-1.2,1.7-1.7v.6h0Z"/>
        <path class="st15" d="M497.2,188.9c.2-1,.9-1.7,1.4-2.6.3,1.5-.8,1.8-1.4,2.6Z"/>
        <path class="st15" d="M510.6,186c-.3.3-.9.7-1.4,1.1l1.4-1.1Z"/>
        <path class="st54" d="M522.1,304.7c-.8-.9,1.7-.3,1.7.1,0,.8-1.6,0-1.7-.1Z"/>
        <path class="st54" d="M487.5,294.1c-.2-1,1.4-1,1.4-.4s-1,.5-1.4.4Z"/>
        <path class="st15" d="M492.7,192.3c-.4.6-.6,1.4-1.4,1.7.4-.6.4-1.7,1.4-1.7Z"/>
        <path class="st15" d="M494.4,189.8c-.4.6-.8,1.1-1.1,1.7-.1-.9.2-1.6,1.1-1.7Z"/>
        <path class="st15" d="M515.5,201.4c0,.6.2,1-.4.9l-.7-.7h1.1c0,0,0-.2,0-.2Z"/>
        <path class="st15" d="M496.1,195.5c-.5.5-.9.7-1.4,1.1,0-.8.7-1,1.4-1.1Z"/>
        <path class="st15" d="M511.2,194.3c.2.9-.9.7-1.4,0h1.4Z"/>
        <path class="st15" d="M501.5,173.2c0,.6.2,1-.4.9l-.7-.7h1.1v-.2Z"/>
        <path class="st15" d="M496.7,186.3c.1.7-.7.9-.9,1.1-.2-1.7.4-.9.9-1.1Z"/>
        <path class="st15" d="M490.1,192c-.1-.7.3-1.2.6-1.7.2,1.1,0,1.1-.6,1.7Z"/>
        <path class="st15" d="M505.8,195.7c.2,1.1-.1.9-1.1.9.5-.5.7-.5,1.1-.9Z"/>
        <path class="st15" d="M521.5,178.6v.8c-.7.2-.6-.3-.9-.8h.9Z"/>
        <path class="st54" d="M523.8,306.4c.2.2-.2.9-.4.9-.8,0,0-1.3.4-.9Z"/>
        <path class="st54" d="M521.2,324.6c-.2-.2.2-.9.4-.9.8,0,0,1.3-.4.9Z"/>
        <path class="st15" d="M503.2,199.2l.3-1.4c-.1.5.1.7-.3,1.4Z"/>
        <path class="st15" d="M503.5,192l.9-.9s-.4.5-.9.9Z"/>
        <path class="st15" d="M489.2,193.7l.3-.9c0,.4.5,0-.3.9Z"/>
        <path class="st15" d="M495.2,192.3c0-.4.2-.7.6-.9,0,0,.2,0,.1.3s-.5.4-.7.6h0Z"/>
        <path class="st15" d="M501.8,181.2c0-.4.2-.7.6-.9-.2.5-.4.6-.6.9Z"/>
        <path class="st15" d="M491.5,197.5l.6-.9c-.1.2-.2.5-.6.9Z"/>
        <path class="st15" d="M488.1,195.7c.3-.5.4-1.1.9-1.7.5.6-.4,1.4-.9,1.7Z"/>
        <path class="st15" d="M497.5,194.3c-.1.4-.4.6-.9.6.4-.4.8-.5.9-.6Z"/>
        <path class="st15" d="M507.5,192.6l-1.1.3c.6-.4,1-.2,1.1-.3Z"/>
        <path class="st15" d="M503.2,189.8l-.9.6s.8-.5.9-.6Z"/>
        <path class="st15" d="M519.5,187.2s-.6,0-.6,0c.5-.8.9-.2.6,0Z"/>
        <path class="st15" d="M500.7,178.1l-.6.6c0-.6,0-.7.6-.6Z"/>
        <path class="st56" d="M162.9,333.5c2.1-.2,4.3-.5,6.4-1,.9,1.4,1.9.7,2.7-.4,1.7-.6,3.5-.9,5.4-.8,1.4-1,3.5-.8,5.1-.2l.3-.8c1.4-.6,2.6-.9,4.2-.9,2.1-.8,4.4-1.1,6.5-1.4.4,1.6,1.4,1.1,1.4-.4.5-.2,4.2-.8,4.5-.7.9,1.2,2.2,1.8,3.9,1.8v.7c-7.9,1.8-16.2,3.6-24.3,5.3-.7.1-1.5,0-2.2,0-1.3.3-2.5.3-3.8.3-.6,1-1.4,1-2.5.9-2.1-.6-3.9-.5-5.5.4h-1.1c-1.5,1.1-3.2,1.3-5,1.2,0,.8-.9,1-2.3.6-1,.6-2.1,1.1-3.3,1.2l-9.7,1.2c-11.7,4.5-24.2,7.3-36.6,9.8,0,0,1.7-.5,2.2,0,1.2-.2,3.6-.6,3.1,1.1-.6.4-1.3.4-2.3.1-7.5.2-15,1.2-22.4,2.9-6.2.8-13.1,1.4-19.4.2-.5,0-.9-.3-1.3-.7-3.9-1.8-9.1-.4-13.2,0l-.4-.7c.4-.9,1.9.1,1.7-1-3.3-.2-6.9-.1-10.1-.6-.5,0-.5.1-.4-.6h8.7c.4,0,.6-1.9,0-2.4-.4-.4-4.2-1.8-5.1-2.3-2-1-4.2-2.2-6-3.5-1.2-.2-2.2-1.3-.6-.9.2.2.6.2.9.3.9.2,1.9.4,2.8.6v-2.3c-.3,0-.4,0-.3-.3-.3,0-.5-.4-.4-.5.8-.6,8.7,5.7,9.7,6.9,4.7,3.3,10.6,5.5,16.3,6.2,5.3-.5,10.6-1,15.8-1.4.5-.8,1.4-.8,2.2-.6.5-.4,2.1-.8,2.6-.3l.8.2c1.5-.9,2.9-1.1,4.2-.6.7-.4,1.5-.7,2.4-1,1.5-.5,3.1-.8,4.9-.8.4-.6,1.8-1,2.6-1.2,4.1-1,8.4-2,12.6-2.4l8.5-3c.5-.7,1.3-1.1,2.5-1.1,10.2-1.9,20.2-4.2,30-7,.9-.2,1.9-.4,2.8-.5.3,0,.5,0,.6.4h-.2Z"/>
        <path class="st19" d="M45.1,340.6c.6.7.7,2.4.3,2.9-.3.3-2.7-.9-3.1-1.1h1.1c.6-.6,1.1-1.2,1.7-1.7h0Z"/>
        <path class="st15" d="M45.1,340.6c.3.4-1.1,1.9-1.2,2-.3.2-.4-.2-.5-.2.9-.6-.8-.8-.8-1.3,0-.8,1.5.1,1.6.1.3,0,.3-.7.4-.8,0-.3.2-.2.3,0,0,.1.2.2.3.3h0Z"/>
        <path class="st19" d="M39.4,341.2c.5,0,.7.2,1.1.3.4,0,.6,0,.9.3v.3h-.6c.3.5.8.6,1.1.9-1.1-.2-2.5-.4-3.3-1.1-.2-.2-.6-.5,0-.6.2-.2.6-.2.9,0h0Z"/>
        <path class="st15" d="M44.5,346.3c.5.5-1.1,1.2-1.4.4-.5-1.1,1.2-.6,1.4-.4Z"/>
        <path class="st19" d="M43.9,339.2c1.3.6,2.7,1.5,4,2.1.5.2,1.1,0,1.4.3s.2.9.6,1.1c.4.3,3.2.9,4,1.4.3.2.2.7.4.9s1.8.7,2.2,1.1c.3.3.2.9.3.9.2.1,1,0,1.5.1s1,1.1,1.7,1.4c.9.4,1.8.4,2.5.6,1.8.8,3.7,2.2,5.7,2.9,4.1,1.2,14.8-.9,19.4-1.6.5,0,.8,0,.9.3-.4,0-1.1,0-1.1.1-.4.2-.4.9-.8,1-.8.2-1.7-.2-2.4-.1-4.3.4-8.6.9-12.8,1.4-1.8.2-2.3,0-3.9-.4-2.3-.6-4.4-.9-6.4-1.9-1.6-.9-4.4-1.8-5.8-2.8-2.7-1.9-5-4.6-8.1-6.7-.5-.3-1.7-1.5-2.2-1.5s0,.2-.2.3h-.3c-.2,0-.5-.3-.6-.3-.6.2-.8-.2-.3-.6-.2-.3,0-.4.3-.3h0v.3Z"/>
        <path class="st11" d="M43.4,339.5c0-.2.2-.2.3,0l.3.6c-.3,0-1,.8-1.1-.6h.6,0Z"/>
        <path class="st15" d="M43.9,339.2l-.3.3h-.3s0-.4.3-.6c0,0,.2.2.3.3h0Z"/>
        <path class="st15" d="M39.4,341.2h-.9c0-.4.8-.4.9,0Z"/>
        <path class="st15" d="M41.4,341.7l-.9-.3c.3,0,.8-.2.9.3Z"/>
        <path class="st26" d="M236.8,340.9c0-.6.4-.6.8-.4l4.3,2.3.6-.4c-1-1.6,1.1-3.7,2.2-1.9.9-.1,1.7.2,2.4.9l4.3,1.6c-1.5-2.6,1.3-2.6,2.9-1.3l.5-.5c2.5.4,4.8,1.3,6.9,2.5-1.2-1.1-2.3-3.4.1-3.1l2.3,1c.2-1.1.2-1.2,1.4-1.3.8-.1,9.7,3.4,11,4l.6.8c.2.7-.2.9-.5.2-1.3,0-1.1,0,.6.2-.2,1.7,3.1,2.7,4,1.7,1.9,1.2,3.9,2.4,5.8,3.6.4,1.6-2,.9-2.8.4-1.3,0-2.7,0-3.7.9-2.5-.5-5-1.3-7.5-2.4v.4c1.9,1.4,1.5,3.8-.9,2.2h-.3l-1.1-.3c-2.3-.7-4.6-2.2-7-2.9l1,2.7c0,.6-.7.8-1.1.9-.2,0-3.5-.4-3.8-.5-.8-.2-1.6-1.2-2.2-1.5s-3.2-1.4-3.4-.6c0,.3,1.9,2,.4,3-.6.1-2.2-1.2-2.9-1.3-.4,0-.7.2-1.2,0-.7-.2-3.7-2.2-4.1-2.1-1.3.3.4,2.2.7,2.7,0,.6-4-.9-4.4-1.1-.6-.3-1.1-1.4-1.6-.9l.9,1.3c-2.2-.3-3.8-2.1-6-2.6-1.4-.3-2-.8-1.7-1.4-.1,0-.2-.1-.3-.3-.9-1.4,2.7-1,3.4-.5.7-1.4,1.7-1.1,3-.5l-3.8-2.6c-1.9-.7-2.6-3.3,0-3.1h0l.2.2Z"/>
        <path class="st35" d="M189.4,346.9c-2,.7-2.4-3.8-1.1-4.5.6-.4,4.3-.1,5.1.1,1.1.3,2.1,1,2.9,1.9,0-.5,0-1,.5-1.3,1.6-1.3,6.5.1,8.2.9.1-1.4,1.2-1.8,2.4-1.6,1.7.7,2.6.4,2.8-.8-1.1-1-2.6-2.9-.6-3.7.4-2.9,2.7-1.4,2.6.9l3.9,2.2v.7c1.4.8,1.9,1.7,1.6,2.8.2.8,4,2.9,4.9,3.4,1.5.3,2.4.7,1.9,2.4.9,1.8.4,2.7-1.7,2.2h-.6c-.1.3-.3.4-.6.4l-2.9-1.3c-.4.4-.9.4-1.5.1l-.3.3-3-1.7c.7,2.3.3,3.3-1.1,2.8-1.5-.3-2.8-.6-4.1-1.1-.9,1.2-2.3,1.1-4.1-.4.9,1.6.1,2.4-2.4,2.3h-1.1c-.6-.5-1.4-.7-2.2-.6-1-2-3.8-3.2-5.8-3.6-1.1-.9-2.2-2-3.2-3.1h-.4c0,.1,0,0,0,0v.3Z"/>
        <path class="st14" d="M189.4,346.9l.3-1.7c0,.4.2,1,.5,1.4.2.3,2.8,2.9,3,3,.5.2.9-.1,1.2,0s3.8,2,4.2,2.4.3,1,.6,1.1.8-.1,1.2,0,.7.6,1.3.7c.9.1,2-.5,3-.3-2.5-5.3,2.1-.1,3.2-1,.3-.2.2-1,.3-1,.2-.2,2.8,1.2,3.4,1.3,4.6,1.1,1.1-.9,2.2-3.1.7,0,3,1.8,3.8,2,.6.1.9-.5,1.4-.5s2.9,1.3,3.6,1.4c-.5,2.6-4.9-.8-5.1-.6l.7,1.7c-.6,0-2.4-.8-2.9-.8s-.5.7-1.1.7-3.7-1-3.9-.8l.3,2c-.5.4-3.8-1.1-4.8-1.1s-.7.4-1.1.5c-1.6.2-3.6.2-5,1.2-1,.2-1.7.6-3,.6s-2.4-.7-4-.6c-2,0-4.3,1.2-6.3,1.2s-3.2-.9-4.8-.9-4.6,1.2-6.6,1.4c-2.9.3-5.1-.4-7.5-2,.3-.4,1.7-1.3,2.2-.7.8,1.1,5.6,1.3,6.9.9-1-.7-1.7-1.7-.4-2.4,1.4,1.4,3,2.3,4.6,2.5.3-.8.8-.7,1.1,0,.2-.7.6-1,1.1-.9.3-.7.5-.7.9,0,.6.1,1.1.1,1.7,0,.5-.6.7-.5.6.3h.7c.5,1,1.3-.8,1.4-1.4h.4l.6-.4,2.9,1.2c.9.9,2.7-1.7,2.6-1.8-1.2-.7-1.9-1.5-2.1-2.4-1.2-.3-3.4-1.9-3.1-3.1h-.2Z"/>
        <path class="st14" d="M218.2,342.9l1.5.7c.4,1.3,8.3,5.2,8.8,4.9s1.4-1.1.9-1.6c0-.5.2-.8.8-.8.5-.8,2.1,0,2.3.9.4-.2.8.1.9.6.4-.7,1.1-.5,1.1.3.1,0,1.4,1.2,1.7,1.4-.5-.1-1.3-.7-1.1.3.5-.1,3.9,1.3,4,1.4.2.2-.3.9-.4.9s-1.8-1.6-3.1-1.4c-.6,0-.8.8-1.4.9-.8.1-1.4-.5-2.4-.2s-1,1.6-2.2,1.5c-.8,0-3-1.7-3.3-1.6-.8.1-.7,1.5-.8,1.6,0,0-1.6.3-1.8.3-.4,0-.6-.3-.7-.3,2.8.1,1.3-.9,1.1-2.2,0-.4.3-1.1.1-1.3-.2-.4-1.4-.5-1.8-.7-1-.5-4.7-2.7-5-3.5-.3-.6.2-1,.1-1.5l-1.1-1.6c.5-.7,2.5.3,2,1.1h-.2Z"/>
        <path class="st13" d="M277.3,345.2l.8-.3c3.4,1.6,6.8,3.4,10.1,5.3v.7c-.9-.2-.4.6-.8.9-1,.8-1.7.3-2.4.3-1.6-1.5-3.1,1-3.6,1.1-.2,0-1.8-.9-2.5-.8-.2,0-.1.5-.4.6-.9.2-2.9,0-3.9,0s-1.8.9-2.1-.6c.5.1.9.3,1.4.3.5-.9-1.1-2-1.1-2.2,0-.4.1-1,0-1.2s-1.6,0-1.7-.6c2.4,0,4.5,1.6,6.6,2.4.4.1.8-.1,1.1,0,.4.1.6.8,1.2.8s1.2-.8,2-.9h2.5c.4,0,2.5,1.2,2.4.4,0-.3-4.5-3.1-5-3.8-.6-.2-.5.8-.9.9-.8.1-3.8-.8-4-1.6-.3-.9.5-1.4-1.2-1.2l1.4-.3h0v-.2Z"/>
        <path class="st13" d="M272.2,352.3l-1.1-.3c.2,0,.9.2,1.1.3Z"/>
        <path class="st32" d="M431.3,265.6c-.6,1-2.8,1.3-3.3,2.1s-.3,1.6-1.5,2.6c-1.7,1.3-5.4,2.2-6.7,3.3-.5.4-.5,1.2-.9,1.7-.9,1.2-3.8,3.1-5.3,3.6-.8.3-2.8.2-3.2.4-.7.5-1.8,2.4-2.8,3.2-1.7,1.4-4.2,1.7-5.7,3.2s-2.7,4-5,5.3c-1.4.8-4.1,1.3-5.4,2-.6.3-2.4,2.7-3.5,3.4-.9.6-2.6,1.1-3.4,1.7-1,.7-1.6,3-2.8,4.1-.4.4-4.5,3.3-4.9,3.4-.9.3-1.5-.4-2.3,0s-2.3,2.9-2.9,3.4c-.7.8-3.6,3.7-4.3,4-.9.4-1.6-.4-2.5,0-.5.2-1.9,2-2.6,2.5-1.4,1.1-3.8,2.8-5.4,3.6-1.1,1.1-1.7,1.2-1.7.3-.1-1.3,1.2-2.8,2.6-2.7.6-.7.9-1.5.9-2.6l.9-5.7c.6-2.1,2.2-.9,3.1.4l2,2.7,1.1-1.7c0-2.7,2.5-5.6,3.1-1.7l.2.4c-.5-.5-.9-4.7-.4-5.2s.2-.1.4-.2c.5-1.5,2.2,0,2.7,1,.7-1,1.6-1.1,2.7-.1l.3-1c-.3-3.2.6-4.3,2.8-3.4-.1-1.2-.2-3.1,1.5-2.6,3.7,2.2,4,1.7,4.7-2.4.5-.8,1.1-1.5,1.8-2-.5-1.3,0-3.5,1.8-3,.3.7,3.1,2.4,3.4,2.3,2-.7,2.3-2.5,1.9-4.4.4-1.2,1.7-.6,2.6,0-.8-1.4-1.2-3.2.8-3.7,1.4.6,2.9,1.1,4.4,1.3.2-.9.7-1.4,1.5-1.7-.7-1.7.7-2.3,2.1-2.7-.4-.7-.9-1.3-.3-2-.6-1-.3-1.3.8-1l.3-.2c3.5,1.7,5.3,1.4,5.4-.8l.4-.7c.6.5,3.1-.4,3.2-.7.1-1.6,1.3-2.1,3.5-1.7.8-.4,1.4-.6,1.9-.4-.2-1.2.4-1.7,1.7-1.5l1.6-1.5c-.2-1,.3-1.4,1.3-1.2-.9-1-.7-3.3.7-2-.5-1.9,1.4-1.2,2.5-.5l3.4-1.6.5.5h0l.3.2Z"/>
        <path class="st20" d="M457.6,237.1c.5.5.1,1-1.1,1.7-.9.8-1.8,1.2-2.9,1.7-1.5.7-1.6.3-1.4,2.6-2,2.7-4.1,4.7-7.4,5.7-1.2.5-2.3,1-3.4,1.5.4.5.6,1.1.4,1.6,1.5.2,2.1,1.4.7,2.4-1.2,1.7-2.8,2.4-4,3.7h-1.7c0,.6.7.2.9.3.1,0-1.1,2.3-.3,3.1-1.1,1.7-4.1,3.4-6,4.3-1,0-3.3,1.6-3.9,1.7-.5,0-1.4-.9-2.1-.8-.3.8.7.6.8,1,0,0-.2.9-.3,1-.9.6-1.4-1.7-2-1.1-.2.2,1.4,1.8.9,2.6-2.3-.6-.9,0-1.4.7,0,.2-1.6,1.7-1.7,1.7-.6.3-1.4,0-1.7.2,0,0,0,.6-.3.8-.4-.3-.8-.7-1.1-1.3-1-.7-2.3-1.7-.6-2.4h3.9c-.2-1.1,0-2,1.2-2.2-1.1-1.6-.3-2.2,1.1-3.1l-1.9-1.3c-3.1-.7-5.7-2.1-7.8-4.1-1.1.2-2.4-.5-1.1-1.1.4-.6.8-.6,1.1,0l1.4.3c.1-.8.3-.7.6,0l2.3.6c.2-.8.6-.8.9,0,.4,0,.7,0,.8-.4,2.4.5,4.8,1.3,7,2.4.2.7,2.5,1.1,2.5.5-.6-1.8.5-2.5,3.3-2.3-.4-.6-.5-1.2-.2-1.7-1.4-.4-2.9-.8-4.4-1l-.2-.6c-2.3-1.6.8-1.7,2.3-1.1,1.2-.9,2.5-.7,3.2.6.6-1.1,1.7-1.7,3.5-1.7-.5-3.9,2.5-6.5,6.5-5.4l.3-.4c1.1-.4,8.4-3.2,4.1-3.6-1.1-.6-.7-1.6.3-2.1-.3-.8-.3-1.4.2-1.9,2.8-.6,5.4-1.6,7.9-3.2l.9.2h0Z"/>
        <path class="st64" d="M355.5,319.5c.8.3.8.1,1.7-.3-1.1,1.3-2.6,2.8-4,3.8-1.9,1.3-4,1.8-5.8,3-1.5,1.1-4.9,3.3-6.1,4.4-.5.4-1.2,1.6-1.4,1.7-.3.2-.5-.6-1.2-.1-1.2.8-.2,2.3-3,1.4-1-.6-1.8-.1-2.3.9,0,.2-.2.4-.3.6-1.4.3-1.1-.4-1.4-.9.7-.2,1.2-.8,1.4-1.8l1.1-.3,1-3.9c.3-.9.9-1.1,1.7-.7,1.6-2.4,3.2,0,3.1,2,.4-.8,1.1-.8,1.8-.5l1.4-1.1c.5-2.6,1.5-3.5,4.1-3,.9-1.1,1.9-1.9,3.1-2.2.6-1.5,1-3.1,1.3-4.7.6-2,3.6.5,3.9,1.6h-.1Z"/>
        <path class="st46" d="M335.5,333.5c-1-.2-1.6.2-2.3.9.2-.5-.2-1,.8-1.3,1.2-.4,1.3.4,1.4.4h.1Z"/>
        <path class="st62" d="M245.1,280.7c.5-.2.9-.2,1.4,0,1.1.3,2.1.9,3.1,1.6,1.3,0,2,.3,2,.9.9,1.1.8,2.8-.9,2.8-1.8-2.2-2.7-2.5-2.6-1.1-.4.7-1.5,1.1-2,.3l-.7,1.3c.1,2.3-1.8.8-2.7-.3,0,1-.5,1.6-1.3,1.8,1.9,1.6,3.4,3.5,4.7,5.5,1.4.9,2.6,1.9,3.5,3.2,1.1,2.9,3.2,5.9,3.5.7,1.2-1.8,3.6.9,4,2.4.6.8.6,2.1.3,3.1-.2,1.5-.4,3-.5,4.5v-.4c1.1-1.1,2.1,0,1.7,1.3,1.5-1,2.6.3,2.8,1.8,2.5.4,3.6,1.8,4.9,3.7,1.4,1,2.8,2,4.1,3,0,1.7.4,2.4,2.1,3.1l.2.8c.9,1.6,1.9,2.4,3.7,3.1,1.9,1.4,3.5,3.2,4.8,5.3,2.4.9,3.4,2.2,3.2,4l.3.4c2.4-.1,3.1.3,3.4,2.9.5.9,2.3,1.4,3.3,1.3,2.5-1.1,3.4.8,3.6,3l.9,1.4c-.5,3.1,2.6,5.8,5.4,6.6,1.6-2.8,4.3-1.1,4.5,1.6-2.4,1.4,1.7,1.9,2.8,1,1.3-1.3,2.2-1.3,2.7,0,2,.5,3.6,1.3,4.9,2.6,2-1.3,3,.5,2.7,2.4l1.7,1.7c1.3-1.3,3.2-1.5,4.7-.5.1-1.1,1-1.4,2-1-.2-.6-.2-.7.3-1.1,0-2.1,1.9-1.3,3-.4.7,0,.4-5.9-.9-6.4.8-2.9,3.4-.9,4.7.8,1.2.4,1.9,1,2,1.7,2.1,1.6,2.5,2.2,2.6,4.7l2.6,3.9c1.1,1.8,1.2,2.8-1.1,2.5-1-.2,10.2,14.9,12.1,16.8h1.4c2.2,1.7,4.3,3.7,6.2,5.8.3-1,1.1-1.1,2.2,0,.1,0,.2.2.3.3.4.2,1.1.9,1.1,1.2,0,.5-1.4,2-1.9,1.3-.4-.3-.9-.5-1.4-.9-.5-.1-.8,0-.9.6.7,1,2.2,2.8,2.5,4,.2.9-.4,1.3.1,2.3l-5.1-5.6c-3-.6-3.2-3.9-5.6-5.5-1.7-1.2-4.4-1.3-5.8-2.4-1-.8-2.3-2.9-3.6-4.1-3.1-2.7-8.6-6.3-12.1-8.6l-.9-.3c-.1,0-.4-.1-.6-.3h-1.1c-.3-.7-.7-.6-1.2.3h-.3c-1.6-.5-3.1-.9-4.7-1.2-1.1-1.7-2.4-2.9-3.9-3.6-1.1,1.7-2.2.9-3.2-2.5-.9-.6-1.5-1.1-1.8-1.8-1.4.4-3.2-1.1-4.3-2.3-1.9-.8-8-2.8-9.9-3.1-1.7-.3-4,.2-5.9,0-1.5-.3-2.9-1.2-4.4-1.4v-.3c-.4-.5-2.2-1-2.9-1.5-3.2-2.1-4.2-2.8-7.9-4.2-1.5-.6-2.8-1-4.3-1.6-2.2-.8-5.4-2.4-7.6-2.7-.8-.1-.3.9-.4,1.4-1.5.2-2.6-1.2-4-1.1,0,1.6,1.8,2.5,2.6,3.7-1.5.2-2.6-1.1-3.7-1.6-1.4-.5-3.9-1.2-5.4-1.6-3-1.4-6.2-2.2-9.6-2.4l-3.7-1.6c-.6,1.6-3.4.9-4.6.1l-1.1-.2c-2,.9-3.3,1-5.5.4-1,1.1-2.1.7-3.3-1.1-1.5.9-2.8,1.1-4,.6-2.9-1.5-5.9-2.4-9-2.8-.7,1.1-1.5,1.1-2.5.4-2.2-2.2-4.4-2.6-6.6-1.2,2.2.4,2.8,1.3,3.6,3.3.3.6,1,2.8.7,3.2-.4.5-4.6,1.3-5.4.4-1.1,1.3-1.9,1.5-3.2.3-2,.8-4,.4-6.1-1.2-.2,1.4-2,1.8-3.4,2h-3.5c0,1.7-.6,2.4-1.7,2.2-.4-1-6.7-3.6-7-3.3,0,.7-.5,1.1-1.2.9-.1,1.7-.6,3.2-2.2,1.4-1.7,0-3.2-.9-4.3-2.5-1.8-2.3-2.8-1.4-3,2.6-.3.7-.9.9-1.6.4l-1.7-2.2c-1.8-.4-2.2-1.2-1.1-2.7-1.1-1.1-3.4,2.3-3.8,3.2-1.3,2-4-.2-1.9-1.3-1.3-.5-1.1-1.6.2-1.8v-1c3.8-.8,7.7-1.3,11.7-1.6,2.2-.8,4.5-1.3,6.8-1.6,8.3-2.3,16.8-3.5,25.2-5.5.5-.1,1-.1,1.3-.5,1.8-.8,3.8-1.3,6-1.5,8-1.7,16.1-3,24.3-4.1h1.1c.4,0,.8.1,1.1.2l7.6-.9c3.7-.6,7.4-1.2,11.1-1.8.4-1.9,2.1-3.1,3.7-4,.9,1.4,2,.4.5-.5,0-.3,0-.7-.3-1.1l-.8-.2c-4.6-4.7-8.8-9.7-12.7-15-3.5-2.8-5.6-5.5-7-9.8-1.4-2.2-3.2-4.3-5.4-6.1-5.8-7.6-12.3-13.3-21.7-15.9-2.3-1-2.9-1.6-4.5-3.4-.2-.2,0-.4.4-.5,4-1.2,9.5-1.8,13.7-1.4,1.6.2,3.1.3,4,1.9,1.2,4.1,3.8,6.2,7.1,8.8,2.8,2.2,6,4.7,9.1,6.4,1.5.8,2.8,1.1,4.5.9l.2.3h0l.4-.2Z"/>
        <path class="st60" d="M312.7,358c.3.2,2.1,1.4,2.2,1.5.4.5.7,2.8,1.9,3.4l.4-1.4c.5.4,1.4.5,1.9.8,1,.6,2.1,3,2.9,3.3,1.2.5,3.2-.1,4.3,1.6-2.2,0-4.1.4-6.1-.9-1-.6-1.3-1.9-2.8-1.2-.6.3-.9,1.4-1.3,1.5-.2,0-4.1-.2-4.3-.2-.5-.2-.3-.6-.5-.8.8-.2,1.3-.8,1.4-1.5,2-1.7,1.5-3.5-1.2-5.4-.1-.9.3-.8,1-.5h0l.2-.2Z"/>
        <path class="st48" d="M312.7,358c-1,0-.5.1-.1.6.7.8,2.6,2.1,2.4,3.2s-2.3,2.5-1.7,4.2l-1.7-.6c-.6-1.2-.4-2-.7-3.1-.1-.4-.5-.7-.6-1.1-.5-1.8-.9-3.8-1.9-5.4,1.1.5,3.3,1.6,4.3,2.3h0Z"/>
        <path class="st60" d="M328.9,366.8c-.7,0-1.3.4-1.9.5-.2,0-.4-.2-.4-.2v-1.7c.3-.3,2,1.3,2.3,1.4h0Z"/>
        <path class="st60" d="M330.4,367.4l-.9-.3s.4,0,.9.3Z"/>
        <path class="st61" d="M109,350.3c0-.2.2-.3.3-.4.3-.3,7.5-2,7.8-1.8.5.2,0,1.3-.6,1.4,0,.2-.5,1.2-.5,1.3-.2,1.6,15.1-5.6,15.1-6.1,1.9-1.1,3,.3,1.3,1.5.1.4.2.9,0,1.3l-3,3.2c.9-.2,1.6,0,2.2.4,3.4-1.8,6.5-4.1,9.3-6.8,3.4-2.6,4.9-2.3,2.9,2.5l-1.8,4c1.6-.5,2.8-.3,3.6.6.6-1.8,1.5-3,2.8-3.7,1.6-5.5,4.9-2.1,4.3,2.1,1.7,2.2,2.5,1.6,4.3,0l1.2-.3c-2.1-4.3,1.4-8.2,4.5-3.6.4,3.3,1.4,6.7,4.7,8.1.7-.9,1.4-1.7,2.3-2.4-1.9-2-3.6-6.5.2-7.2,2-2.9,2.8.8,3.1,2.7,1,2.6,2.9,5,5.2,6.6v.7c.8.1,1.6.3,2.4.4v.7c-.8,0-1.7,0-2.4-.4-.2-.1-2.3-2.6-2.5-1.2,0,.6,1.9,1.1,1.4,2.1-1.5-.3-3.5.1-5,0-.4,0-2.5-.4-2.8-.6-.4-.1-.4-.9-.6-.9s-.7.4-1.6.6c-2.4.3-8.5.7-10.4-.6-1.2-.8-1.5-2.5-3.6-2-3.4.7-6.9,1-10.4.4-1.1-1-2.2-1.3-3.3-.9h-.3c-3.4.8-7.8,1.5-11.1.3-.8-.1-1.1-.4-1.7-.6-1-.1-1.9-.1-2.8,0-4.9.1-6.2,1.1-11.4-.3-.9-1-1.8-1.4-3.1-1.1h0Z"/>
        <path class="st42" d="M153.2,352.6c-2.8.6-5.3,1.1-8.3.9-1,0-2.1-.2-2.9-.6-1.1-.6-.2-.9-2.5-.8,1.4-1.1,2.5.5,3.3.8.7.2,5,.4,5.9.4,1.3,0,3.1-.5,4.4-.6h.1Z"/>
        <path class="st57" d="M336.1,348c-1.2-.9-2-2.9-2.5-4.6-1.5-1.7-1.2-4.9.7-2l.6.3c4.4,2,10.5,3.1,14.1,6.3,2.6,2.3,1.6,2.4,1.6,5.3s.9,2.2-.4,3.6c-1.7,1.7-3.8-1.9-4.1-1.7-1,1.7,1.8,2.8,1.9,4.4.1,2.8-4.2,2.7-3.1,5.9.4,1,4.3,6.3,5.1,7s1.4.5,2,.9c2.7,1.7,5.4,4.3,7.9,6.4.8.7,1.2,1.6,2.1,2.1-2.5.6,0,2.2.9,3-.4.1-.9-.6-1.1-.4-.5.4-.5,1.5-1.7.9-.8-.9-4.9-5.7-5.6-5.8-.5,0-.9.4-1.5,0-1.3-.6-3-3.5-3.9-4.7-3.2-4.5-7.3-9.7-10-14.8-.2-.4-1.2-3-.1-2,.3.3,1,2.7,2,3.5.4.3,1.3.7,1.4,0,0-.9-3-4.5-3.4-5.7-.4-1,0-1.8-.2-2.4-.2-.6-1.5-1.5-1.8-2.4l.7-.2,2.6,1.6c3.5,2.1.3-1.6-1.5-1.9l-1.1-1.6c-1.2.2-1.7-.2-1.5-1.1h-.1Z"/>
        <path class="st57" d="M363.2,385.1c.1,0,.6.1,1,.6.4.4,1.5,2.1,1.2,2.6-.2.4-1.4,0-.2,1.2-1.3.2-2.1-1.2-2.9-1.7,1,0,.4-.2.2-.6-.2-.3-.9-1.5-.7-1.7.7-.2.7.6,1,.8,1.2,1,1.3-.3.4-1.1h0Z"/>
        <path class="st57" d="M360.9,386.8c-.4,0-.7.2-.9.6-.1-.2-.5-.4-.5-.7-.1-1.4,1.1,0,1.4.2h0Z"/>
        <path class="st45" d="M328.9,333.2c.6.4.2,1.1.4,1.4,1,1.6,2.4,2.9,3.6,4.3.6.7,1.1,2.1,2,2.9-.1,0-.5.1-.8,0-.2-.1-.2-.7-.5-.8-1.6-.8.3,1.9.4,2.2.6,1.5,1,3.8,2,4.9,1,1-.3,1.4-1,.5l-.8-1.6c-1.5.7-4.1-.9-3-2.2v-.8c-1.4-.9-1.9-2.3-1.7-4.2-1.7-1.1-1.9-2-.7-2.9l-.3-1.5c-.5-.9-1.1-2.8.4-2.1h0Z"/>
        <path class="st41" d="M401.1,276.4c.7.1,1.2.4,1.6.9.5-.8,2.2-.4,2.1.5-1.6.2,0,.6,0,.6.1.6-.5.7-.5,1.2s1.1,1.4.8,2.2c-.7-.6-2.4,0-2.5.7,0,.4.4,1.3.2,1.5,0,0-.6,0-1,.3s-.3,1.2-.9,1.4c-1.3.4-4.3-1.4-4.7-1.3-2,.9.6,3.3,0,4.1-1-.3-1.7-1.3-2.9-1.1.6,2.1.1,4-2,5-1.2.5-1.4-.5-2.2-1-.4-.2-.9-.2-1.2-.5-.5-.3-.6-1.7-1.5-.6-.8,1,.2,2.8,0,3,0,0-1.2-.5-1.1.1,0,.2,1.1.7.9,1.3-.7.1-.9-1-1.6-.3-.9,1,0,4.3-2.3,4.3s-4.7-4.3-3.9,2.3c-.9-1.2-1.3-1.3-2.9-1.1,0,.9.2,4.2-.8,4.5-1.1.4-1.1-.8-1.4-.8s-1.2,1.1-1.4,1.4c-1-1-1-2.4-2.7-2v5.4c-1.1.3-.2-1.1-.8-1.6-1.4-1-1.6,2.6-1.9,3.2-.5.3-1.2,2.2-1.6,2.1-.8-.3-3.4-5.3-4.4-4.3-.3.3-.9,6.9-1.5,8.3s-1.6.8-2.2,1.2c-.2.1-.8,1.6-1.4,1.9-1.2-.4-2-1.3-3-2-.6,0-1,4.7-1.9,5.6-.4.4-1.1.3-1.4.6-.5.4-1.1,1.6-1.9,1.8s-1.7-.6-2.8.3c-.7.6-.5,1.8-1,2.4,0,.1-1.5,1.2-1.6,1.2-.5.1-1-.2-1.2-.1-.3.2-.5,1.6-1.4.9,0-1.2.1-2.5-1-3.3-.7-.1-.9,1.1-1.1,1.1-.3,0-1.1-.4-1.2-.3-.4.4-1,4.3-1.3,4.6-.3.4-1,.1-1.2.3-.4.3.1,2.2-1.8,1.4-.3-.4-.6-.8-.9-1.1-.8-.2-.7-.4,0-.6,1.5-.6,3.1-3.7,1.5-4.7v-1.2c-2.5-1.4-1-5.4,1.6-3.3l1.1-3.1.7-.2c.7-1.2,1.7-1,3,.7.8-.2,1.6-.3,2,.6,1.5-2.3,2.2-4.8,1.6-7.6.1-1.1,1-1,1.9-.6,1.8-.3,1.5,3,1.3,4.2-1,4.6-1,4.9,0,.6.2-3,.9-5.8,2-8.3-.4-1.3-.2-2.4,1.4-2.6.9-.8-.7-3.3-1.8-3.7-.6-.7-.6-1.6.4-1.9s6.8,4,5.3,6l.3,4.3c.6-4,1.2-8,1.8-11.9-2.7-2.8,2.3-7.5,3.5-3.3.2,1.7.9,3.1,2,4.2,0,1.9.7-1.6.5-2.1-1.8-2-1.9-3.1-.1-3.2l.4-1.5c-1-2.2-2-8.4,1.4-8.9,1.7-.3,2.2,1.2,1,2.4,1.7,1.5,2.6,3.1,2.6,4.9l2.3,3.7c-.2-1.8.3-3.4,1.6-5-1.5-2.8-.9-6.2,2.3-2.8.2-.9-.1-1.8-.6-2.6-.1-.5.2-.8.7-1,1-.4,3.6,4.8,4.1,5.8.5-.7.6-1.5.4-2.4,2.4-1.1,2.5-1.4,2.7-4.2.4-1.7,2.4-1.9,3.4-.5-.2-1.3.3-1.4,1.5-1.4,1.8-1.3,1.6-2.9,1-4.8,0-.5.2-.7.6-1,1.1-.7,6,3.5,6.6,4.8,1,0,1.7,0,2.2.5.2-1.7-.9-2.8-2.2-3.9,0-1-.3-2-.8-3,0-.6.6-2.4,1-2.7,1.1-.8,7.1,3.2,8.3,4v.7h0v.4Z"/>
        <path class="st40" d="M309.2,309.2h.7c.4,0,4.7,2.6,4.9,2.9.3.3.5.7.4,1.1.6-.1,1.1.2,1.5,1.2,1.4.2,2,1.3,1.9,3.4,1.2.6,1.5,1.8.9,3.6l2.3,1.4c1.5.2,2.6,1.2,3.4,2.9.2.1.2.2,0,.3.2.8.2,1.7.3,2.6h.6c.2.9.9,1.3,2,1.4.5.9,1.2,1.5,2.2,1.7.8-.1.8,0,.3.6v.6c-.5.4-1.2.2-1.7.3-1,.2,0,1.2.2,1.9,0,.4.4,1.7.3,1.9,0,.3-1,.6-1.1,1.2,3.2.9,1,3,2.1,4.7.4.6,1.4.4.7,1.7-.5.2-1-.1-1.4-1-1.3,1.7-3.1-2.2-2-3-.6-.3-.8-.7-.6-1.4-.3.4-.7.6-1.2.5l-3.1-2.3c-3,1.2-3.6-1.9-2.3-4.1l-1-1.1c-1.3,1.9-6.4.9-4.7-1.6-2.7.4-6.3.3-6.7-3.1l-.7-.5c-.3-1.5-.9-2.2-2-1.9-3.1,1.3-4.4.8-4-1.4-.7.2-1.2,0-1.4-.4-1.5-1.9-2-4.2-1.5-6.9-1-.4-.6-3.4-.3-4.2.9-2.1,3.3-2.1,4.8-.5,1-1,1.8-1.2,2.4-.4.2.6,1.4,1.9,1.2.8-.4-2.3-.2-3.4,2.5-2.7h0v-.2Z"/>
        <path class="st33" d="M469.6,214.8c0,0,.1.2.1.4,0,.5-6.3,5.6-7.6,4.8l-2.4,2.2-.7-.2-.2.5c-9.8,4.9-19.8,9.5-30,13.8l-1.2.8c.1.7-.3,1-.9.6-.5.4-.8.5-1.1,0-.6.7-1.5,1.3-2.6,1.8.4.4.2.6-.3.3l-.9.3c0,.5-.3.7-1,.5-.1.4-.4.6-.7.8-2.7,1.5-5.7,2.7-8.8,2.7-1.1,1.9-2.3,2.5-3.4,1.8-1.6.9-3.4,1.6-5.4,2.1-5.4,4.5-12.3,7.3-18.9,9.6-1.8,1.8-3.8,3.1-6.1,4-5.8,3.8-11.7,7.2-17.9,10.4h-1.3c-3.5,2-1.4-1.2.5-2.2,9-5.1,17.8-10.9,26.9-15.7,5.9-3.1,12.2-5.2,18.3-8,5.1-2.3,10-5.1,15-7.4,9.6-4.4,19.5-8.4,29.2-12.9,6.2-2.8,12.2-6.1,18.4-9.3.9-.5,1.8-1.3,2.9-1.5h0v-.2Z"/>
        <path class="st29" d="M358.9,269.6l-2,2.6c.7.5,2-1.9,2-.3l-1.1,1.1c-8.9,5.1-17.8,10.1-26.7,15.3l-1.5.5-.9.6c0,.6-.2.7-.6.3-.4,0-.9.2-1.1.6-.4,1.1-1.7,1.8-2.9,1.7-.3,0-.6.3-.9.6.2.6-.8,1.1-1.1.6l-.9.6c.2.6-.7,1.1-1.1.6l-2.3,1.7c0,.6-.2.7-.6.3-.8.8-1.9,1.5-3.2,1.9-.3.8-1.2,1.8-1.9.9-2.3,1.7-5.2,2.3-7.4.3-.2,0-.2-.2,0-.3,13.9-4.6,22.5-12.2,34.7-19.1,6.4-3.6,13.1-6.7,19.5-10.3h0v-.2Z"/>
        <path class="st52" d="M304.7,299v.3l-.5.6c-2.7.5-5.2,1.8-6.7,4.1-2,.6-2.8,1.1-3.6,3.1.3.9.2,1.4-.8,1.7.4,1.2-.1,1.8-1.2,1-.4.6-1.5.4-1.7-.3h-.6c-.1-1.2-.5-2.2-1.1-2.8,0,.2-.2.2-.3,0-.4-.1-.6-.2-.3-.6-.4,0-.5-.2-.6-.6-.8.2-2.6.2-3.1-.6-.2.8-.5.7-.9,0l-.5.5c-2.3-.6-4.4-.4-6.2,1.1l-.7-.2c-1,.4-2.3.7-3.4.6,1.6-1.8,4.6-3.9,7.1-4.2.9-.1,2.1,0,3.1,0,4.9,0,7.6.7,12.7-.9,3-.9,6.5-1.9,9.4-2.8h0Z"/>
        <path class="st53" d="M477.8,208.3c2.2-.8.6,1.6-.7,2.5l2.4-.9c3-.4.8,2.7-.8,3.5,1.4,2.6-2.4,3.5-2.3,1.2.7-1.1-1.4.4-1.4.5,1.9,0,2.1,1.5,1.8,3.1-.8,1.1.4,1.5,1.1.6l.7.2c.6-.8,2.9-2.2,3.1-.6-2.8,2-5.6,3.5-8.3,5.4-.8.6-1.2,1.5-1.1,2.7l-.9.8c-.4.2-.8.6-1.1.9-2.4,1.8-5,3.2-7.7,4.5-1.9-.2-3.3,1-2,2.8-.1.9-2.6,2.9-3.2,1.8-2,.9-4.1,2.2-6.1,2.9-.5.2-2.4.4-2.5.5-.2.2.3,1.2.2,1.5-.1.4-2,.9-.3,1.5.5.2,1.5-.2,1.4.8,0,1.2-4.5,2.9-5.6,3.4-.3.2-.4.6-.6.7-1.5.3-3.5-1.3-5.1.9,0,0-1.2,2.3-1.3,2.5-.2.9.6,1.5-.2,2.1-.8.5-1.7,0-2.4.4-.6.3-.5,1.5-1.5,1.3-.1,0-.5-1.2-1.7-1.1-.4,0-.7.5-1.1.6-.7,0-2-.6-2.8-.3l.4.9-.8.4c-2-.3-4.7-.9-6.3-2.1-1.1.5-3.1-.4-2-1.7.1-.2.2-.2.3,0,1.8-.5,3.6-.5,5.3,0-.6-1.9,1.4-2.6,2.4-1.3.5.5.8.6,1.1.3l.5-.5c2.4.7,5.5,1.1,7-1.3,2.4-.6,1.3-2.1-.2-.4-.9-.6-2-.6-3.4,0-2.2,0-7.5-1.2-2.7-2.5l3.8-.7c.6-3.2,8.9-2.7,6.8,1.1,2-.8,4.1-1.2,6.3-1.4,1.4-.4,1.5-.6.4-.7-3.2.8-6.3-.8-2.1-2.6-.8.8-3.8,1-4.4,0-.7.9-2.1-.8-1.2-1.7,2-.5,3.8-1.4,5.4-2.8,1.4.3,2.6,0,3.5-1.2,8.3-1.9-.8-.4-3.6.4-3.3,1.2-5.2-2.1-1.1-2,.3-.4.7-.9,1.2-1,2.4,0,4.6-.6,6.6-1.5.9,0,1.7-.3,2.4-1.2l5.7-2.5c-2.2.9-4.5,1.5-6.8,2-2.1.5-2.9-1-.9-2l6-2.3c.9-1.1,1.8-1.6,2.8-1.6-1.9-1.2-2.4-2.2-1.4-3.1.6-.3,2.6-2.4,2.9-2.5.2,0,.6.2.9.2,1.4-.4,5.3-3.7,6.8-4.8.5-.4,1-.6,1.4-.9.2-.3.5-.5.9-.6,2.2-1.6,4.1-3.2,6-5.1h0v-.2Z"/>
        <path class="st59" d="M496.7,200c.3,0,.9,0,1.4,0,.7-.2,1-1,1.9-1s.4.6.6.6c.4,0,1.1-.8,1,.3-3.2,2.6-6.8,4.7-10.5,6.6-.2.7-.8,1.1-1.8,1.2-1.5.6-3,2.8-.2,1.4.9-.3,2.4-.7,2.1.5-.8.4-2,1.8-2.9,2.4-1,.7-2.1,1.2-3.1,1.9-1.4.4-2.7,1.1-3.5,2.3-1.5,0-1.9.7-1.4,1.8-.6.3-1.1.7-1.4,1-.2,0-.5.6-.9.7-1.7.7-1.5-.6-1.8-.6s-.9.3-1,.2c-.6-.5,1.2-1,1.3-1.1.3-.4.1-2-.2-2.2-.3-.2-2,0-1.6-.8s1.8-1.6,2.7-1.6-.5,1.1-.1,1.7c.2.2,1.1.2,1.4,0,.5-.4-.2-.8-.3-1.4,0-1.3,2.5-1.4,2.2-3.3-.1-.2-2.4.8-2.8,1-1.6.6-.9.6-2,1.5-.8.6-2.2,1.4-3.1,1.6,1.9-1.8,3.9-3.4,5.7-5.3.5-.5.5-.8-.3-.7.6-.6,1.1-1.1,1.7-1.7,1,0,2.2-1.5,2.3-2.6.4-.5.8-1.2,1.1-1.7h.4c.1.6,1.1,1.3,1.8.8l.6.4c.2-.9.8-.8,1.1,0l.3-.2c2,.3,2.9,0,4.4-1.2.2.2.4.3.7.3s.2-.2.3-.3c1-.5,3-1.7,4-2h0v-.3Z"/>
        <path class="st18" d="M490.1,190c-2,4.1-4.2,8-6.3,12,0,0-.4,0-.3.6.9,0,1.3.2,1.7-.6h.3c.6,0,.9.9.3,1.4-.3,0-1.9.9-2,.9.8-1.5-.8-.8-.9-.9-.1-.2.5-1,0-1.1,2.7-3.9,4.9-8.2,6.9-12.6l.3.3h0Z"/>
        <path class="st53" d="M481.8,204c.9.8-1,2.4-1.6,2.9-.5.4-.8.5-.7-.3.7-.8,1.7-1.8,2.3-2.6h0Z"/>
        <path class="st33" d="M471.8,213.4c-.4.3-.6.4-.9.6.1-.4.4-.6.9-.6Z"/>
        <path class="st51" d="M491,206.3v1.1c0,1.1-.1,1.2,1.1,1.4v.3c-.3,0-.9.2-1.1.3-.3-.5-1-.3-1.4,0-1.3.3-3.4,1.3-4.4,2.1-.7-1.2,1-1.2,1.3-1.6s.4-1.2,1-1.8c1.3-1.3,2.4-1.1,3.6-1.7h-.1Z"/>
        <path class="st3" d="M485,213.7c-1.2.7-3.7,1.5-3.1,3.2.2.5,1,.2.8.9-.2.4-.7.3-.9.4-.6-.5-2.4.3-3.1.6-1.6,0,.8-.8.9-.9.1-.2-.8-1.3.1-2,.4-.3,1.1-.2,1.5-.5,1.1-.6,2.4-1.8,3.8-1.8h0Z"/>
        <path class="st24" d="M511.2,184.3c-1.2.9-2.1,2.2-3.3,3.1-4.8,4.1-11.1,8.3-15.5,12.5-.7.3-.9,0-.3-.6,5.6-4.3,13.8-10.3,18.5-15.4.2,0,.5.3.6.3h0Z"/>
        <path class="st21" d="M498.9,184.6c-4.1,6.7-7,11.1-12.3,17.1-.1.2,0,.3.3.3h.3c.2,0,.3,0,.3.3-.2.2-1.1.6-.6.9.2,0,.2.2,0,.3h-1.1c-.3,0-.3-1.4-.3-1.4.2-.7,2.1-2.1,2.7-2.9,3.9-4.5,7.2-9.4,10.1-14.6.2,0,.5-.4.6,0h0Z"/>
        <path class="st18" d="M492.4,200c-.9.9-1.3,1.9,0,2.3-1,.5-2,1.5-3.1,1.6-.8,0-1.7-.4-2.4-.5v-.3c1.9-1,3.5-2.4,5.1-3.7l.3.6h.1Z"/>
        <path class="st65" d="M470.4,228c-.7.5-1.4,1.4-2.2,2-1.4,1-3.9,1.7-4.9,2.5-.7.5-1.2,2.1-1.9,3-1.4,1.8-3,2.4-5,3.5.4-.3,1.1-1.2,1.1-1.7.2,0,.6,0,1-.2,3.1-1.4.8-2,1-3.7,0,0,2-1.5,2.1-1.5.3,0,.7.2,1,0,2.5-.6,4.2-1.9,6.3-3.3.4-.3.6-.7,1.3-.6h.2Z"/>
        <path class="st6" d="M444.7,248.8c-.3.7-1.5.9-1.7,1.6-.3,1,1.7,3.2-.6,3.8,1.4-2-1.1-1.5-1.4-2,0,0,.3-.6.2-.9,0-.3-.6-.6-.5-1.1.3-1.2,3.1-1.1,4-1.3h0Z"/>
        <path class="st15" d="M502.7,197.5c.9,1.6-.1,1.3-.3,1.4-.2-.6,0-.9.3-1.4Z"/>
        <path class="st15" d="M487,202c-.2,0-.4.5-.9.3,0-.3.4-.4.6-.6l.3.3h0Z"/>
        <path class="st34" d="M176.6,334.6c-1.8.5-3.9,1.6-5.6,2-3.5.8-6.8.4-10.6,1.1h-1.8c-.2.2.6,1.8-1.1,1.7-.2,1.1.9.4,1.1.6.4.4-.5,1.4-1.1,1.1-.2.2.5,1.5,1.3.9,1.2-.9,1.9-4.1,4.2-3.9s.8,1,.6,1.6c-.5,1.4.4.7,1.2,1.2.6.4,1.4,2.1,2.3,2.6.9-.9.3-4.9,2-4.8.1,0,1.9,1.3,2.1,1.5.9.7,1.4,1.9,2.8,2.3.8.2,1.4-.4,2.1,1,.6,0,.3,0,.4-.4.2-.6.2-1.5.3-2.1l1.1.6v-1.1c.4,0,.8,0,1.1.1,1,.3,4.2,1.5,5.1,2,.6.3,1.5,1.3,1.6,1.3,1,.2.5-1.8,1-2.2.4-.3,3,0,3.9-.1s1.7-.7,2.7-.6c0-3.2,2.8,0,4.2.2,1.3.2,2.1-.5,2.7-.4.5,0,1,.8,1.5.8s.9-1,1.5-1.1,1.5.6,2.2.5c.9,0,1.9-.9,3-.6-.3-1.3-1.4-4.7-2.6-5.3-.5-.2-1.9-.1-2-.9-.2-1.1,2.8-1.6,3.6-1.6,1.5,0,4.2,3.1,5.2,2.5.1,0,.1-.6.5-.8,1.3-.4,4.3.6,5.7,1.1,1.1.4,4.3,2,5.1,2s1.6-1.3,2.7-1,1.2,1.8,1.6,1.9.9-.7,1.4-.8c.8,0,2.4.5,3.1.5s1.4-1.4,3.6-.7c1.4.4.5.8,2.7.7.4,0,1.2.5,1.2-.1s-.4-.6-.2-.7c.6-.5,4,1.4,4.8,1.6,2.7.7,5,.2,7.6,1.5s1.5.8,1.9,1.4c-.8-.2-2.6-.9-2.8.2-.1.8,2.1,1.8,2.6,2.2l-.4.4c-2.2-1-4.4-1.9-6.7-2.7-.5-.2-1-.8-1.4-.9-1-.3-1.2.9-1.4-.5-.1-.7-1.5.1-1.4,1,.1,1.1,2.2,1.3,1.9,2.6-.4,1.7-1.9-1.2-2-1.3-.2-.1-.4.4-.7.5-.5,0-3.6-1.9-4.5-2.3-.3-.1-.7-.1-.8-.2-.9.1-1.9-.2-3.1-.9,1,.8,1.5,1.7,1.6,2.6,1.1.9,1.2,2.3-.5,1.7-1.3.2-3.5-1-4-2.3-1-.7-1.8.1-2.4.9h-.7c-1.3.4-3.6-1-4-2.4-.3,0-.5-.2-.6-.6-.6.6-1.7,0-1.4-.9h-.6c-.7-.6-1.5.6,0,1v.7c.7-.6,1.7.4,1.4,1.1,1.2,1.3-1.5,2.5-2.3,1.1,0,.3-.1.2-.3,0l-1.1-.3c0,.2-.3.2-.6,0-.6-.5-1.4-.8-2-1.1-.3-.2-.7-.5-1.4-.8-.7-.4-3-1.5-3.2-2s0-2.3-1.1-2.1c-.8.2,0,1.3-.1,1.4,0,0-1.3,0-1.4.8s2.3,2.5,2,2.9c0,0-.6,0-.7.3-.2.3.7,1.1-.8,1.1s-3.9-1.3-3.9.5,3,2.4,3.4,3.3c-1.7-.5-3-2.2-4.7-2.9-1.4-.6-6.6-1.9-7.4-.6-.8,1.3,3.6,3.4,4.3,4.6.2.4.3.7-.3.6-.9-1.1-2.4-1.4-3.4-2.3-1.4-1.1-1.8-2.5-3.8-3.3-1.5-.6-2.2-.4-3.6-.4s-1.3-.6-1.7.3c-.1.3-.3,2-.3,2.3.2.6.9,1,1.2,1.4,1.2,1.4,1.8,2,3.1,3.1,0,1.6-2.3,0-3.1-.8-1.8-2.4-3.1-2.8-5.9-2.5l-1-.7-.6.2c-4.6-2.2-1.4,2.2.4,3.9,0,.4,0,.8-.5,1.2.6,1.7,0,3.3-1.9,2.8-.4.7-1,.7-1.5.2-2.4-1.4-4.9-4.5-5.8-7.2-.3-.8-.4-3.2-1.2-3.4-.6-.1-.6.7-1,1s-.9.1-1.4.6c-1.1.9-.4,3.1.2,4.2.2.5,2.1,2.6,1.9,2.9-2.4-.7-1.9,2.3-3.6,2.2-.7,0-3.3-2.3-3.7-3.1s-.3-1.4-.5-2c-.8-1.9-.7-.7-.9-3.2-.1-2.2-3.6-2.3-3.9-.9-.5,2.6.9,4.3,1.1,6.7-.8,0-1-2-1.3-2-1.4-.2-2.2,2.7-4.4,1.6,0,0-1.5-1.4-1.5-1.6-.2-.5,0-2.3-.2-3s-1-1-.8-1.9c-.4.4-1.2.5-1.6.9-.5.5-.6,2-.8,2.2s-.7.1-1.1.5c-.6.6-1.4,3.2-1.9,3.3-.8.2-1-.8-1.7-.9-.8,0-1.9.7-3,0,1.2-2.6,2.5-5.2,3.1-8-.4-.3-2.3,1-2.8,1.4-2.1,1.4-4,3.6-6.1,5.1-.5.3-3.6,2.1-3.9,2.1s-.6-.4-.9-.4c-.7,0-1.4.4-2.1-.5,0-.2,3.1-3,3.3-3.6.2-.5-.3-1.5-.2-1.7.2-.2,1.2.4.8-.9-2.9,1.1-5.4,2.9-8.2,4.2-2,.9-5.7,2.5-7.9,2.6-.7,0-1.1-.5-1.4-.5s-.8.6-1.3.5v-1.1c2.6.3,1.6-.1,2.3-1.2.2-.3.8-.3.9-.8-2.8.4-5.2,1.4-8,2-3.1.6-6.3,1-9.4,1.1,0-.3.2-.4.5-.5,1.5-.5,3.5-.4,5-.7,10.3-2.2,21.3-4.6,31.2-7.8,2.2-.7,5.1-2.2,7.4-2.6,3.6-.6,7.4-.6,11-1.6.5-.1.9-.7,1.5-.8.8-.1,1.5.4,1.9.3.2,0,.2-.5.4-.6.7-.2,1.6.1,2.4,0s1.9-1.3,2.5-1.5.9.1,1.2,0c.4,0,.8-.6,1.5-.8,1.9-.3,3.8.5,5.4.3.7,0,.4-.8,1.1-.9,1.2-.2,2.6.5,3.9.3h0l.4.5Z"/>
        <path class="st10" d="M257.3,316.4c0,1.4-1.9,1.8-3.3,1.8-.2,1.7-1.6,2.6-4.1,2.7-.5.7-1.3.9-2.3.6-3.9.9-7.9,1.5-12,1.8-4.7.8-9.1,1.4-13.5,2-6.3.9-12.6,2.7-19,3.4-.9,0-1.7.2-2.6.3l.3-.6c-1.7.6-.9.1-1.4-.7-.7-1-1.4,0-2.2,0s-1-.7-1.6-.5c-.2,0-.5,1.2-.3,1.4.5.8,2.1-.8,1.9.6-.7-.3-3.9.4-4,.3s.1-1.2-.4-1.4c-1.1.9-2.3.4-3.6.7-.9.2-1.5.9-2.1,1-1,.2-1.7-.3-2.2-.3s-.1.4-.4.5-.8,0-1.1.3c-.4.3-.3,1.1-.6,1.2-.8.2-1.8-.5-2.6-.6h-1.9c-.4.1-.3.7-.6.8-.4.1-2.9-.2-3.9,0-1.8.4-1.7,1.7-2.6,1.9-2,.4-1.4-.7-2.2-.8-.4,0-2.2.8-3.1.9-1.1,0-1.9-.3-2.7-.3,1.4-.5,3-.9,4.5-1.1,13-2.2,25.8-4.9,38.8-7.4,7.2-1.4,15.6-3.7,22.8-4.4,8-.7,16-1.2,23.9-2.9,1.3-.3,2.8-1.8,4.5-1.4h0l-.4.2Z"/>
        <path class="st38" d="M127,341.7c-2.5.9-6.4,3.3-9,3.7-1.9.3-2.8-.6-5.5.5-2.4,1-3.9.9-6.4,1.5-.2,0-.2.5-.4.6-.5.1-1-.1-1.5.1-.2.1-.2.7-.5.7-1.2.2-3.8.1-5.2.3-1.3.6-3.1,1.2-4.3.3,1.4-.5,3.1-.4,4.6-.7.5,0,.9-.4,1.1-.4,1.7-.3,3.1-.8,4.6-1.1,4.2-1,8.4-1.6,12.5-3.1l10.1-2.4h0Z"/>
        <path class="st19" d="M98.4,349.2c-.3.8-1.3.6-1.8,1.1-.4.4-.3,1.4-.6,1.4-.6.2-1.9,0-2.7.3.3-1.1,2.4-.6,2.3-1.7h-2.1c-.9.2-1.9,1.4-2.5.2v-.3c1-.1,2-.4,2.8-.8h.3c1.3-.1,2.9-.2,4.3-.3h0Z"/>
        <path class="st38" d="M93.9,349.4c-.5.7-2,1-2.8,1.1-.7.1-1.7.1-2.6.3l-.9-.3c2.1-.3,4.2-.9,6.3-1.1Z"/>
        <path class="st55" d="M99.9,348.3h-1.4v-.3c.5,0,1.3-.2,1.4.3Z"/>
        <path class="st42" d="M139.2,352c-.2.7-.8.5-1.3.6-3,.6-5.5.7-8.5.5-.4,0-1.6,0-1.4-.8,4.8.8,6.8,0,11.1-.3h.1Z"/>
        <path class="st42" d="M126.4,351.7c-1,.4-1.8,0-2.8,0,.8-.7,2-.2,2.8,0Z"/>
        <path class="st35" d="M236.8,340.9c-2.7,1.9-.7,1.8.6,2.7,2,1.5,3.8,2.6,5.9,3.8.7.4,1.9.4,1.9,1.4-2.3.4-4.1-2.1-5.9-2.2-1.6-.2-.7.6-1,.8-.3.3-3.2-1.6-3.7.3,0,0-.7-.1-1.1-.3-.2-.2-.5-.4-.9-.6-.7,0-1.6-.7-2.3-.9-1-1.1.7-1.7,1.8-1.2.9-1.1,1.8-.7,2.8,0v-.5c1.6.5.3-1.7,0-2.1-.4-.7-2.1-2.2-2-2.8s.4-.3.7-.2c1.1.5,2.1,1.2,3.3,1.7h-.1Z"/>
        <path class="st62" d="M266.7,342.6v.3c-1.2.1-1.2-.4,0-.3Z"/>
        <path class="st0" d="M182.6,346l1.2.6c1.3,2.3,2.8,4.1,5,5.6.4.4.4.7-.1,1-.3.4-.5,0-.4,0,.4.8-1.2,2.6-2.1,1.6-.2-.1-.4-.2-.6-.3-.7.3-1.3.3-1.7,0h-.9c-.5,0-.9.3-1.1.9h-1.1c-.4-.5-1.1-.2-1.7-.4-.3-.1-.4-.6-.6-.7,2.4-.2-.1-1.2,0-2.3h1.7v1.7c2.4-.2,1.2-1.3,1.1-3.1h.9c-1.4-1.6-2.9-3-3.4-5.1,1.8-.4,2.6-1,4,.6h-.2Z"/>
        <path class="st35" d="M192.6,350c1.2,1,2.6,1.9,3.7,3.1-2-.8-1.9,1.2-2.6,1.6-1.3.8-3.8-1-5.1-1.3-.2,0-.2-.2,0-.3,0-.8-2-1.8-2.6-2.4-1.4-1.4-2.3-3.5-3.4-4.7,1.9.5,3.3-.3,5.2.6.5.3,1,1.3,1.6,1.8s2.4,2.2,3.1,1.6h.1Z"/>
        <path class="st61" d="M188.6,353.1v.3c0,.2-.8,2.2-.9,2.2-.8.6-1.4-.6-1.7-.8.5,0,1.8-.9,2-1.3,0-.1-1.3-.6-.9-1,.3-.2,1.2.3,1.4.6h0Z"/>
        <path class="st61" d="M185.4,354.6c-.3.8-1.4.8-1.7,0,.5,0,1.1-.5,1.3-.5.3,0,.3.4.4.5Z"/>
        <path class="st61" d="M182.9,354.6c-.4.2-.8.8-1.1.9.3-1.9.5-.9,1.1-.9Z"/>
        <path class="st26" d="M223.1,340c.1.3.2.5.6.6,1.3.9,2.6,1.7,4,2.3.4-.4.9-.4,1.5,0-.3-1.3.7-1.5,1.6-.9,1.4.7,2.6,1.5,4,2.3,1.1.6,3.3.8,3.1,2.3-2,.7-4.2-3.6-5.6-1.1-1.4-.1-1.5-.9-2.1.6-.8,2.1,1.1,1.1,1.4,2.6,0,0-1.7-.5-2.4-.3-.4.1,0,.8-.1.9s-2.7-.8-3.1-1c-3.1-1.3-5.4-3-7.7-5.2h.6l1.1.3h.3c.5.2.9.5,1.3,1.1,1.1-.6,1.7-.4,1.9.5,1.8-.3,3,.2,3.5,1.5,1.4-1.3.7-2.1-2.3-2.4-1.3-.4-2-1-2.1-1.8-.5-.3-.9-.8-1.4-1.1-.7-.4-.3-1.8.6-1.7.4.4,1,.6,1.4.9h0v-.4Z"/>
        <path class="st26" d="M232.5,346.9c.1,0,.6-.4.9-.3v.9c-.3-.1-.7,0-.9-.6h0Z"/>
        <path class="st1" d="M413.4,257.9v.6c.2,0,1-.2,1.4,0,.3.2,1.9,1.7,2.2,1.9,1.5.9,4.1,1.4,5.7,2.2.7.4,1.5,1.2,2.4,1.6s1.9,0,2.3,1.2c-.7.5-2.4-.6-2.9-.6,0,0-1.3,1-1.4,1.1-.2.4.7,1.2.5,1.8-.1.5-1,.3-1.1.7-.3.7,0,1.7,0,1.8-.2.2-4.3.2-4.9,0,0,.8,1,1,1.5,1.7.3.4.5.9.4,1.4-2.6,2.6-5.2-1.2-4.9,3.1-1.6-.9-2.4,1.3-3.7,0,.2,4.4-3.8,2.7-6.3,1.4-2.7-1.4-1.2.9-1.4,1.1h-.9s0-.8-.1-1.1c0-.1-1.1-1.3-1.3-1.4.4-1,2.5-.6,3.5-.3,2.9,2.1,1.9-.6-.4-.9-1.1-1.1-2.5-2.1-4-2.9-2.3-1.2-3-4.1-.2-5.1,1.5-.5,7,2.5,8.3,3.4l1.6-.2c.4.8,4.6,1.9,4.5,1.4,0-.7-2.5-2.3-3.5-1.8-.6,0-2.9-2.2-3-2.4-.5-1.1-.5-5.1,1.6-4.5,1.7.9,2.7.8,3,0-2.2-.9-4-2.8-4.8-5.1-1.4.6-5.8-2-4.6-3.2.8,0,1.3-.4,1.3-1.5,1.5-.9,3.2-1.2,5.3-.8,2.8-2.6,4.6.3,1.3,2,0,.8,0,1.6-.4,2.3,1.5,0,2.3.3,2.6,1.1h.4Z"/>
        <path class="st7" d="M398.5,251.6l-.8,1c-4.4,2-8.5,4.3-12.5,6.9h-.7c-.2,1-.8,1.6-2,2-12.7,5.3-25.1,12-36.3,19.9-1.3,2.5-2.3,3-2.9,1.3-.8,0-.7.4.3,1.2.5,2.5,2.9,2,4.8,1.4.6-1.7,1.9-2.8,3.9-3.3l1.1-1.7c1.9-1,3.6-2.2,5.3-3.4.2-1,1-1.5,2.2-1.6,1.1-1.9,2.9-3.3,5.4-4.2,4-4.7,7-.3,2.1,2.5-.1,1.3-1.1,2-2.9,2-1.8-.2-.4,3.7.6,2.2,1.4-1.8,2.8-2.4,4.9-3.1.8-3.4,2.7-3.5,3,.2h1.1c-.3-3.5.9-4.7,3.5-3.4.6,0,1.1,0,1.2-.6,0-3,.8-4,3.7-2.9-4.9-2.5-1.9-3.9,2-2.6.2-1.7,1.2-2.3,3.1-1.8.9-1.2,1.8-2.2,3.4-2.2.6-.8,1.4-1.5,2.3-2,1.7-.4,4.6-1.8,5.1-3.4-.8,0-.8-.3-.3-.9-.2-1.2.7-1.6,2.7-1.3l.2-.2c-2.4-1.5-1.1-2.1,1-2.5,1.9-1.2,3.9-2.2,6-2.9.7-1.5,1.6-1.9,3.3-2.4,1.1-1.5,9.6-3.9,10.7-3.5,1.3.6,1.1,1.7-.2,2-.8,0-5.4.7-3.9,2.1,2.1.6,1.4,1.9-.3,2.5.7.8,1.4,1.7,1.6,2.7l-.5.4h-.3l-.4.5c-1.1-.3-5.1-.7-2.7.8.8,1.8,1.8,2.9,3.6,3.7,1.1.7,1.4,1.8-.2,1.4h-.9l-2.3-.6h-.6l-1.4-.3h-1.1s-1.9-.5-2.2-.6c-1,0-2,.7-2.7-.2.3-.6,1.6-.6,1.9-1,.3-.5,0-1.4.3-2,.2-.3,3.1-1.8,1.1-2.2-.7,0-1.2.9-1.7,1-1,.2-4.3-.7-5.2.7-.5.8.8,1.7-1.5,1.4-.4.3,2.3,2,2.6,2.1.7.2,2.1,0,2.2.2,0,0,.1.8.4,1.2.9,1.5,2.4,3.4,4.2,3.8.7.2,1.4,0,2.1.2.4.2,1.4,1.4,1.7,1.8-1,.3-1.4-.6-2.1-.9-2.1-1.1-1.5.7-2.4.9-.6.2-3.3-1.8-3.8,0-.2.6.3,2.4,0,3.2,1.2,0,1.5,1.5,2.2,1.8.9.4,2.1,0,3,.7.9.7.5,1.6,2.1,1.5-.9,1.7-3.2.8-4.7.3-.5-.2-.9-.8-1.2-.8s-1,.4-1.6.2c-.5-.2-2.2-1.4-2.9-1.7-.7-.3-4.2-1.8-4.7-1.8s-1.9,1.3-1.9,2c0,1.4,4.2,3.6,5.4,4.4.2.2.3.6.5.7,1.1.6,1.8,0,2.5,2-1.4,1.6-1.9.1-2.7-.2-1-.3-2.2-.3-3.3-.3-1.1-1-6-3.9-7.3-4.2h-.9c.2.7-.5,1.5-.5,1.9s.5,1.1.6,1.6-.1,1,0,1.2c.1.4.7.5.9.8.4.6,1.4,1.9,1.5,2,.2.4-.2.8-.1,1.2,0,.4.9,1,.8,1.5,0,.4-1.1.6-1.4.4-.2-.1-.2-1.3-.3-1.4-.2-.2-1.4.2-2-.2-.2,0-1.5-1.8-2-2.2s-3.8-2.9-4.2-2.4c-.3,1,.6,2.2.4,3.1-.4,1.2-1.4,3.5-2.9,2.7-.1,1.4,1.1,2.6,1.1,4-.6,0-1-.9-1.4-1.3-.6-.8-.7-2.1-1.9-2.1-2.2,0-.7,3.5-2.3,4.6-.5.3-1.5.3-1.7.8-.2.4.4.7.4,1s-1,1.8-1.2,2.1c-.2,0-2-3.8-2.4-4.4-.2-.3-1.6-2.3-2-1.9.9,1.2,1,2.2.9,3.7-1.1.2-1.6-1.4-2.6-1.6-1.5-.4.2,3.4.2,3.7,0,.8-1.4,2.1-1.6,3-.2,1.1.4,3.9,0,4.4-.6.6-.8-1.5-.9-1.8-.4-1-2.4-3.8-2.5-4.1-.2-.7.1-1.4-.2-2.1s-2.6-2.2-2.4-3.2c.1-.4.9-.7.8-1.2-1.7-1.5-3.1,1.7-3.1,3.2s1.1,3.4,1.1,4.9-.4,1.1-.5,1.7c0,.3.3.9.2,1-.4.4-.9-1.1-1.4-.6s1.3,1.7,1.4,2.5c.1,1.3-.6,3.4-.7,4.6,0,.9.8,1.4-.6,1.2-.1-.1-.2-3.1-.3-3.5-.1-.3-.7-.5-1-1-.5-.8-.9-4.6-1.9-4.6s-2.1,1.4-2.1,1.8c-.3,1.7,1,2.2.9,3.4,0,.5-.5.9-.5,1.5-.6,4.1-.6,8.4-2.2,12.4-.7.6-.3,0-.3-.3.1-1.4-.1-2.2-.1-3.5s0-1.4-.2-2.9c0-.4.3-.8.2-1.3,0-.1-1.2-1.9-1.4-2.1-.1-.1-3.1-2.1-3.3-2.1-.5-.2-.5.4-.4.7.3.6,1.1.7,1.4,1.2,0,.1,1,2.1,1,2.2.1,2.3-1.5,1.2-1.8,2.3-.1.6.2,1.1.1,1.5s-.7,1.1-.9,1.9c-.7,3.1-.7,6-1.8,9-.3.8-.7,2.6-1.5,1.3.2-2.5,2.3-7.1.2-8.9-.6-.2-2.4-.3-1.9.4v3.6c-.8,2.3-3,.4-1.9-1.5-.7-1.4-1.7-2.6-2.9-3.7l.2-.8c2.8-.5-.3-2.8-1.7-3.1-2.2.8-3.2-1-.7-1.7,1.9-.6,4.8.4,6.5,1.2-.8-2.5-.5-4.2,2.4-4.2,1-.1,1.6-1.4.2-1.4-.7-.8-1.5-4.2,0-4.6-.1-.2-1.6-.2-2.2-.2s-2.9.1-3,.2c.9,2.3-1.9,2-2.1,0,.3-1.6.5-3.3-1.5-3.7-3.4,1.2-5.4-.3-2.3-3.1-.6-.8-.6-1.5-.1-2.1-1.5.4-2.9,1.3-4.2,2.6-4.1,1.7-8,4-11.6,6.6-1.7.3-1.6-.8-.4-1.5.2,0,.4-.2.6-.3l2.3-1.7c.4-.2.8-.4,1.1-.6l.9-.6c.4-.3.8-.4,1.1-.6.2-.3.5-.5.9-.6,1-.6,1.9-1.2,2.9-1.7.3-.3.7-.5,1.1-.6l.6-.3.9-.6c4.9-3,9.7-5.9,14.8-8.8s9.8-5.3,14.6-8c5.5-3.1,11.8-6.3,16.8-9.9,2.4-1.7,2.5-1.4,4.9-2.6.7-.3,1.5-1.7,2.3-2.2,1.8-1.2,5.4-1.7,7.8-3s4.6-2.2,7-3.4c1.8-.9,2.9-2.6,4.6-3.4,1.3-.7,3.1-.9,4.4-1.3.6-.2,1.3-1,1.8-1s0,.8.9.6c.1,0,1.6-2.1,2-2.2.8-.2,2.1,0,3.2-.2.6-.2,5-2,5.5-2.2s.5-.9.8-1h1.2l.9-.3s.2-.2.3-.3l1.5-.7c.6-.6,1.4-1.1,2.2-1,.2,0,.5-.4.9-.6.8-.8,5-3,4-.6-.6,1.5-13.7,6.8-15.5,7.4-5.2,2.8-10.4,5.4-15.8,7.6-.3,0-.5,0-.8.2s-.6,0-.9,0h-.5Z"/>
        <path class="st1" d="M419.4,252.2c.3,2.2,2.4.8,2.6.9,0,0,0,.9.8,1.1,1.8.5,4,1,5.8,1.5.7.2,5.5.8,5.4,1.6,0,0-.6.4-.5.8,0,.3.8.7.5,1.3-.8.4-2.9,0-3.4.4s.1,1,0,1.7c-.3,1.1-1.1.5-1.8.5s-.8.3-1,.2c0,0-.1-.6-.4-.8-1.1-.9-6-2.2-7.6-2.6.5,0,.9,0,.4-.6-.8-.8-2.1-1.1-3-2.1-.6-.7-1-2-1.5-2.5-.4-.3-2.4,0-.6-1.2,1.5-1,2.9-.3,4.5-.2h-.2Z"/>
        <path class="st1" d="M415.9,258.2c-.5,0-1.2.2-1.4-.3.8,0,1.1.2,1.4.3Z"/>
        <path class="st1" d="M418.8,258.8c-.8,0-1.6,0-2.3-.6.8,0,1.6,0,2.3.6Z"/>
        <path class="st49" d="M273,320.6c.4-.4,1.2-.2,2.1.5,1.3,0,2.2.6,2.6,1.8,3.9-.1,7.4,4.1,8.7,7.5,1.7-.2,2.7.2,3.1,1.4,1.4.4,2.6.7,3.9,0,1.5.3,3,1,4.4,1.9,1.5.4,3.3,1.8,4.3,3.1,1.1,1.4,2.1,2.9-.5,3,1.2.5,2.2,1,1.8,2.5,1.8,0,1.7,1.4.4,2.3,1.1-.4,1.8-.3,2.1.3.4-.3,2,.8,2,1.4l1-.5c.8.5,1.3,1.4,1.4,2.6.1-.9.6-.9,1.3-.4.1-.7.3-.7.6,0h.6c.9,3,1.7,4,3.7,1.1.5-.4,1.1-.2,1.9.4,1.6-1.2,2.7-1.3,3.1-.2,1.9.3,2.8,2.1,2.3,3.8,1,.4,1.3,1.2,1.4,2.2,1,0,2.1,0,2.9.1,0,.4.4,1.1.1,1.4-.4.7-1.4-.3-1.7.3-.5.9.6,3.1-1,3.1.9-2.6-1.4-3.4-3.5-2.2-.3.2-.8.8-.9.8-.2,0-2.2-2.1-2.3-2.3-.2-.5.5-1.8-.7-2.4-.6-.3-1,.5-1.5.4-.4,0-.9-1-1.4-1.2-1-.5-2.8-1-3.7-1.4-.4-.2-.6-1-1-1.3-1.6,1.2-2.5,2.6-4.8,1.4-1.3-.7-1.4-1.4.1-1.8-.5-1-.8-2.3-2.1-2.3s-.8,2.3-3.2,1.1c-.2-.1-3.2-2.2-3.3-2.4s-1.5-2.6-1.5-2.7c0-.3.3-.8.2-1.3-.1-.6-.8-1.1-1-1.6-.3-1,0-1.9-1-2.7-.9-.7-1.3.1-2.4.1s-3-.6-3.5-1.7c-.4-.8-.1-2.4-1.4-2.6-.8,0-1.1.6-1.9-.1-1.1-.9,0-1.6-.5-2.3-.8-1.2-2.3-1.4-3.2-2.3-1.5-1.5-1.7-3.2-4.1-4.8-1.6-1.1-4.1-1.4-3.9-3.9h0Z"/>
        <path class="st43" d="M312.1,348c0-.3,0-.6.5-.8-.7-1.1-1-2.1,0-3.1-3.1.2-4.3.2-2.2-3.2-1-3-1.1-4.9,2.5-4.4-5.9-2.1,3.6-3.9,4.5-1.4-.1.3.3,1.9.4,2,1,0,2.8,1.3,1.4,1.8-1.1,1.9,2.1,1.5,3.4,1.4,1.6-1.9,3.4-1.6,2.8,1.1,1.2-1.9,2-2.2,2.4-.8.1,1,.7,2.2,1.1,3.1.6,0-.1-1.3,1-.9.1,0,1,1.4,1.3,1.7,0,.1,0,.5.3.7,1.8,2.1,1.8.7,3,1,.4.1.7,1.3,1,1.8s.7.7.6-.1c1,1.1,1.3,0,1.7.3.1,0,.9,1.6,1.3,1.9.6.4,1.6.5,2.5,1.4s.6,1.3,1,1.9,1.2.2.5.9c-1.1.1-5-2.4-6.1-3.1-.8-.5-1.5-.7-2.1-1.1-1.4-.9-1.9-3.1-4.1-1.7.3.6.9.9,1.1,1.6.1.6.4,4.2.3,4.7-.7,2.2-2.1,0-2.7,0s-.8.6-1.2.8c-1.4.9-1.1.4-2.4.3-.3,0-.9.3-1,.2-.3-.3.4-2.6-1.7-2.3.5-1.1.6-2-.2-3.1-.5-.7-1.1-.5-1.6-.9-.3-.2-.4-.8-.6-.9-.5-.1-2.1,2.5-3.4.3l-2.3,2.6c-2.1-.9-2-1.8-2.7-3.7h-.3Z"/>
        <path class="st43" d="M259,302.4h.6c.6,2,.9,3.1,3.1,3.3.4.9,1.1,1.7,2.2,2.2l.6,1.5c1.5.5,2.2.9,3.2,2.1,1.5.8.9,1.5,0,2.4.7.1,1,.5,1.1,1,0-.2.2-.2.3,0l.6.5c2,.1,3,.7,2.8,1.8.3.4.3.6,0,.9,1.1,0,2,.2,2.7,1.1l2.3,2.7c1.4-1,2.3-.1,3.3.9,1.1-.3,2.1-.2,2.9.3,2-1.9,2.6-.9,1.9,2.8h.8c2.3-2.1,5.3-.3,2.9,2.2,2.7,1.5,4.1,1.2,4.2-.9.6-.7,3.7-1.4,3.7.2v1.7c.9.5,1.3,1.1,1.3,1.8-.1,2.8,1.9,3.6,4.3,4.4.4,1.4.7,2.8,1.1,4.1,2.9,1.4,5.5,4.5.9,5.3-.6-.3-2.6.8-2.9-.1-.1-.6,3.2-2.1-.6-1.9,1-2.1.3-1.8-1.4-2.7-.1-1.1.9-1.1,1.7-1-.2-2-2.5-3-3.5-4.5-1.6.1-4.5-2.5-5.4-2.4-.7,0-1,.6-2,.6s-2.3-.4-2.6-.6c-.5-.4-.3-1-.8-1.2s-1.5.4-2.3-.2c-.4-.3-.5-1.3-.8-1.8-1.3-2-4.3-5.5-6.9-5.6-.3,0-.9.4-1,.3,0,0-.2-1.4-.7-1.7-.5-.4-1.2-.1-1.7-.3-.3,0-1.4-.8-1.9-1.1-1.1-.5-2.5-1-2.8-2.2-.1-.4,0-1.2-.1-1.5-.1-.2-3.3-2.2-3.9-2.8s-1.4-2-2-2.5-2.4-.8-2.9-1.1c-.5-.4,0-1.5-1.2-1.9s-.9.5-1.5.4c-1-.2.7-2.2-1-1.7.4,1-.5,1.7-1,.9-.1-.2.4-4.5.5-5.3.2-1.3.6-1.1.3-3-.5-.7-.6-1.2-.3-1.4.3-.5.5-.4.9,0l1.1,4h-.1Z"/>
        <path class="st66" d="M247.3,280.1c5,.3,6.6,3.1,8.2,7.3.7,1.8,1.3,2.3,2,4,.3.7.2,1.5.5,2.1.4.7,1.8,1.2,2.3,1.8,1.4,1.6,2.4,3.6,3.8,5.3.5.6.9,1.2,1.1,2,.1,0,.2.2.3.3,1.2,1.4,2.6,2.7,4.2,3.9.3.5.5,1.5-.2,1.8-.1,0-.2.1-.4.2s-2.1-1.1-2.2-1.3h-.6c-1.1-1.6-2-2.5-4-2.8-.4-.5-.6-1.1-.8-1.9-.8-.9-1.8-1.4-2.6-.4-1.2-.7-1.1-2.6-1.6-3.7,0-.2-.4-.2-.4-.3h-.4c0,.1-2-2.1-2-2.1-1.3-.2-1.9-.6-1.9-1.3l-.6-.9c1.1-.9.8-1.6-1.1-2.3-.1-.1-1.6-3-1.6-3.1,0-.3.2-.5.5-.7.8,0,1.4-.5.7-1.2-.6-1-.3-1,.5-.9,1.4.2,1.2-1.9.5-2.6-.8-.3-1.4-.2-2.1-.4-1.2-.3-2.8-2.6-4.5-2.2.2,0,.5-.4,1.3-.3.6,0,.7.7,1.3.6.1-.1-.8-.7-.3-.8h.1Z"/>
        <path class="st16" d="M252.8,295c.8.6,1.4.4,2.2.8s1.7,1.9,2.1,2.6c.2.5.2.9.3,1.4-.2-.7-3.1-2.9-3.4-2.6,0,3.4-1.6,5.2-3.8,1.6-.5-.8-.7-1.8-1.2-2.5-.7-1-2.5-1.7-3.2-2.5s-1.4-2.2-2.3-3.2c-.7-.8-3.9-3.6-4.1-4.1-.1-.3,0-.6.4-.4.4.2,1.2,1.7,2.1,1.1.4-.3,0-1.8.7-1.7.9.1,1.7,1.8,2.3,1.7.7-.7.2-1.5,1.3-2,.6.1.7.6.2,1.5,1.9,1.2,3.6,2.3,4.3,4.6.9,1.2,1.6,2.4,2.1,3.6h0Z"/>
        <path class="st68" d="M251.6,283.3c1.7.6,1,3.2-.9,2.8-.1.5.5.1.6.5.3,1.3,0,1.7-1.1,1.9-.9.2.2.7.4,1.3.2.4.2,1.2.5,1.5.5.6,2.5.4,2.1,2.7,0,.4-1.3-.4-.6,1-2-1.5-2.6-4.3-4-5.8-.5-.5-3.1-1.9-3.1-2.3s.8-1,.6-1.6c.3-.2,1.2-.2,1.4-.3.3-.3-.3-1.5,1-1.4,1.6,0,3.7,5.2,3-.3h.1Z"/>
        <path class="st61" d="M258.2,314.9c.2.2,1,.9,1.4,1.3,1.3,1.2,2.9,2.2,4,3.6-1.2.2-2.7-2.4-3.6-2.5-.4,0-.9.7-1.6.6-.3,0-.4-.8-.6-.9-.2,0-2.2,2.1-2.4,2.4-.3.4-.2,1.1-.5,1.5-.7.9-7.7,1.1-9.3,1.3-3.3.4-6.5,1.2-9.8,1.1,3.1-.5,8.3-.9,11-1.7.5-.1.4-.6.6-.6.7-.1,1.3.3,1.6.3s.2-.6.6-.8c.8-.5,2.9-.4,3.5-1s.1-1.3.3-1.6c.3-.4,2.5-.3,2.8-.5.3-.1.8-.7,1.2-1,.4-.3.6-.6,1.1-.6l-.3-.6v-.3h0Z"/>
        <path class="st9" d="M336.3,366.8l.6.3c-.8,2.2,7.1,6.1,7.6,4.9-.3-.5-.3-.9,0-1.2,0,.1.4.2.6.6.3.5.8,2.1,1.1,2.8-2.5-2.3-1.8.6-2,.9-.8.9-4.9-2.9-5.6-3.4-1.6-1.1-3.1-2.1-4.7-3.3-.4-.3-1.1-.4-1.1-.4-.6-.6.9-.5,1.1-.6.1,0,0-.5.2-.5.6,0,1.1,1,1.9.9-.2-.8.1-1.4.3-2,.6.4.5.8,0,1.1h0Z"/>
        <path class="st17" d="M340.9,366l-2.3-.9.9,1.1c-1.2-.2-2,.5-3.1.6v-2c.2-.2,1,.3,1.3.3s.2-.6.5-.7c.8-.5,2.5.8,2.9,1.6h-.2Z"/>
        <path class="st47" d="M317.2,296.1l-.4,1.4c2.9-2.3,6.1-4,9.3-5.8.7-.4,2-.7,2.8-1.2,1.4-.8,3.2-3.2,5-2.7,1,.3-.4,1-.4,1.5s.6.8.5,1.4-3.2,2.3-.6,2.7c1.4.2,2.2-1.2,3.8.2,2.2,1.9-1,4.4,2,4.7-1.3-2.5-.3-1.6,1-1.7s2.2-.5,3.6,0c.2-.7-.1-.5-.4-.7-.8-.6-1.9-.9-1.9-2.2.1-.2,1.7,1.2,1.9,1.4.9.8,1,1.4,2.4,1.9l-2,1.4c.9.6.7,2.4.9,2.7.2.3,1.6-.2,1,1.6-.5,1.4-2.9.9-3.3,1.4-.7,1-.1,2.4.1,3.4.3,1.3-2.3-.3-2.7-.4-1.5-.4-4-.9-5.4,0,0,.9,1.2.1,1.8.2,1,.1,2.6,1.4,3.1,2.4.9,1.9-.4,1.1-1.4,2,1,.2,3.2,3.2,3.1,3.9s-.9,1.1.2,1.9c.6,0,.7-.5.7-1s-.1-2.3-.2-3c0-.2-.9-1.5.2-1.3.8.2,1.7.2,2.3.7-2.4-.4-1,2.5-1.1,3.8-.3,2-1.8,4.2-2.3,6.1-.8-.2-.4-1.5-.8-1.9-.5-.3-1.1.2-1.5,0-.6-.2-1.5-2.3-2.8-1.3-.4-.4-.5-.9-.1-1.8-3.9-2.7-8-5-12.3-6.9.3.9,0,2-1,1.3l-.8.3c-1.7-.9-2.7-.8-2.9.3-1.1.9-2.1-.8-2.3-1.8l-.3.7c.2.8.3,1.5-.6,1.3-2.1-2.1-4-2.2-6-4-1.9,0-3.4-.6-4.5-1.8-.8.2-1.4.1-1.8-.2-1.7,1.5-3.4-3-1.8-3.8,1.1.2,2-.2,2.6-1.3,2.9-.2,5.7-1.3,8.3-3.2,1.7-.6,1-.8,1.5-1.3s3-1.2,3.6-1.5h0v.2Z"/>
        <path class="st7" d="M322.1,312.4c.1-.1.5-.1.5-.5.1-.6-.7-1.4.4-1.5,4.3,2.4,8.9,4.1,12.8,7.3.3.4-.1,1.5-.3,2.1-.5,1.8-1.5,3.5-1.4,5.4-1,.2-.4-.8-.7-1.4-.8-1.6-2.6-.4-1.7,1.6.2.4.7.4.8.6.3.5,0,1.1.2,1.4,0,.1.5.2.7.3.4.6-.9,5.8-2.7,4.6-.1-.2-.2-.4-.3-.6-.7-.1-1.3-.6-1.7-1.4-1.6-1.6-2.9-2.9-3.4-5.1l-.6-.3c.5-3.5-.3-6.3-2.4-8.3-.7-.8-.8-1.4-.2-1.7-.7-.7-.6-1.4-.3-2.3-.1-.2,0-.3.3-.3h0Z"/>
        <path class="st64" d="M334.9,325.8l1.4.7c-.9,1.2-1.5.8-1.4-.7Z"/>
        <path class="st4" d="M303,307.2c.4-.2,1.7-.4,2.1-.3.3,0,.5,1.3,2.4,1.4,1.4,0,0-.9,1.3-.9-.6,1.1-.2,1,.6,1.7-.4,0-2.1.7-2.2.9-.3.5,1.1,2.3-.2,3.1-.6.1-.5-.7-.8-.8-.3-.2-1,0-1.1,0s.5-.9-.1-1.1c-.9-.3-.7.7-1.2.8-1.5.5-1.8-1.5-3.3-1.1-.1,0-1.4,1.4-1.5,1.4-.2.4-.5,2.2-.5,2.7s.8.4.8,1.2c0,1.2-.1,2.9-.1,3.9,0,1.6,1.7,1.5,1,3,.3,1.3.6,2.7.9,4.2,1.2,1,1,2.1-.5,3.3.8,1.2,1.6,2.3,2.5,3.3,1.7-1.1,3.5-1.9,5.6-2.5,1.9,1.1,3.5,1.2,5.5,1.1,1.8.3,5.2.8,4.4,3.1.5.3,2.4,2.3,2.4,2.7,0,.8-1.4,1.6-1.7.5.4-1.4-1.5-.8-1.9-1.4-.4-.5.1-2.4-1.3-3-.5-.2-4.3.2-4.6.4-.6.5,1.6.9,1.8,1.1.7.6-.1,1.1-.8,1.1s-1.5-.7-2,.3c-.7,1.4.5,2.4.4,3.5,0,.9-1,1.4-1.1,2.3.5.8,1.1.1,1.9.1,1.4,0,1.5.4,3-.7.7-.6.5-1.7,1.7-.3-1.6,0-.9,1.6-1.4,2-.4.3-1.8-.7-2.5.7-.4.8.5,1.3.6,2.1-.2.5-.6.6-1,.7h-.6c-1.6.4-2.2-.9-1.8-2.5-.6.4-1.3.6-2,.8-2-.5-1.7-1.3-2-1.4-.6-.9,0-.4.4-.6.6-.3,1.8-.4,1.6-1.5-.4-1.7-2.6-2.1-3.1-2.7-1.1-1.3-.5-3.4-1.2-4.3-.2-.3-2.4-.8-2.8-1.1-.3-.2-1.6-2-1.6-2.3s.2-.8.1-1.3c-.1-.8-1.1-1.1-1.3-1.6-.4-.7,0-1.3-.2-1.8-.4-1.4-.8-.5-1.5-.3-.3,0-.8-.2-1-.1-.4.3-.2,2.1-1.3,2.4-.7.2-4.4-.8-4.4-1.5.7-.7,1.8-1.6.7-2.4-1.1-.8-1.8.7-2.8.8-2.1.2-1.1-2-.9-3.2.2-1.8-1,.3-1.6.4-.4,0-.8-.5-1.2-.5-.6,0-1.2.4-1.9.2-.5-.1-1.1-1.2-1.8-1.4-.6,0-.9.5-1.3.5-1-.1-2.6-3.3-3.9-3.8-.6-.2-3.1.6-1.1-1.6,2.3-.3,3.6.8,5.2,2.5.6.5,1.3.5,2,.3,2.4-1.4,6-2.4,6.6,1.3,1.1-.1,1.7.3,2.2,1.3,1-2.3,2.2-1.8,3.1.2-1.5-2.4,1.1-5,1.8-1.6,1.8,1.1.3-1.5-.3-2.2.6-1.7.3-2.9-.9-3.7-.5-.9-1.1-3.9.6-3l.7.2c2.1,4.4,3.2,3.4,2.4-.8,0-.4.1-.7.3-1,.5-.8,4.7-3.2,5.7-3.3h0Z"/>
        <path class="st25" d="M300.1,323.2l2-.3v2.3c.5.5,3.9-1.7,5.2-.3.4.4.2.9.4,1.4.2.5.7.5.9.9.5.7.4,1.5.9,2.2,2,.7,3.8,1.2,5.8.4.9.5-.4,1.3-.4,1.9s2.3,1.1,2.9,1c.7-.1,1.3-1.3,1.9-1,.2,0,1.3,1.3,1.4,1.5.2.9-1.5,2.3-.4,3.5s1.8,0,2.1.1c.6.3,2.2,1.6,2.8,2.1,1,1,1.2-.3.9-.5,0,0-.7.1-.8,0-.2-.2,0-1.9.4-2,2.2.4,1.4,2.7,1.6,4.3-1.5-.9-.9.4-1.9,1.1-.5.4-1.5.8-2.1.9.4-1,1.3-1,1.2-2.1-.3-2.2-1.4.1-2.2.4-1.6.5-6.4-.2-3.5-1.9h.7c1.2-.6,0-.9-.3-1.2-.8-1.1-.5-1.2-2.1-1.8,1.4-2.2-.3-1.8-1.7-2.3-2.6-.9-2.3-.2-4.7-.5-1-.1-2.4-1.1-2.5-1.1-.2,0-3.2,1.2-3.5,1.3-.9.4-1,1.4-2.1,1.2-1.2-.2-1.5-1.9-2.1-2.8-.2-.3-.9-.7-.9-1,0-.6,1.4-1.4,1.4-2s-.7-.8-.8-1.2c-.1-.5,0-1.1-.1-1.6-.2-.8-1-1.3-.7-2.2,0-.3.4-.4.5-.6h-.2Z"/>
        <path class="st27" d="M315.2,313.2c.5-.5,0-1,0-1.5.1-.7,1.2-2.2,1.4-1.2.1,1.3.2,1.5,1.3,2.4.1-2.4,2.6-1.1,4.1-.6,0,.1-.2.2-.3.3-.3.8-.2,1.6.3,2.3.3,1.5,1.4,1.8,2.1,2.9,1,1.5.9,5.3,1,7.4.2.2.3.4,0,.6-1.4.1-1.5-1.7-2.3-2.1-.4-.2-1,0-1.4-.3-.3-.2-2.4-1.4-2.5-1.5-.5-.8.3-1.9.1-2.7-.2-.6-.9-.6-1.1-1-.5-.9-.2-2.8-.3-2.9,0,0-.8,0-1.3-.3s-.9-1.3-1.3-1.7h.2Z"/>
        <path class="st41" d="M325.2,325.2c.7.4.6,1.2,1.1,1.9,1.3,1.5,3,2.9,4,4.7-1.8,1-1.9-.9-2.6-1.3-1.2-.7-1.6.4-2.3-1.9,0-.9-.1-1.7-.3-2.6v-.9h0Z"/>
        <path class="st27" d="M325.5,328.6c-.3-1.1-.2-1.5-.3-2.6.6.6.2,1.8.3,2.6Z"/>
        <path class="st58" d="M275.9,306.4c.5-.2.9-.8,1.4-1,3.1-1.4,2.9-.8,6-.4l.4.2c.1,1.5,1.4,1.5,2.7,1.4,1.2,1.1-.9,1.4-1.8,1.6-.8.8-1.9,1.3-3.2,1.4l-1.9,3.3c-.4.7-2.8.5-3.5.4-1.5-.3-1.7-.6-1.6-2.2-1.4-.5-2.7-1.1-4-1.9-.6.2-.8,0-.6-.6,0-.5-.4-1.9-.6-2.2s-2.1-1.6-2.7-2.3c-.4-.4-.8-.4-.6-1.2,1.4,1.2,4.2,3.8,6,4.4,1.5.5,3.2,0,4.7.7,1.1-1,.7-1.1-.4-1.7h-.3Z"/>
        <path class="st58" d="M265.3,302.7c-.7-.6-1-.9-1.1-2,0,0,.5,0,.7.3.3.4.4,1.2.4,1.7h0Z"/>
        <path class="st1" d="M459,222v1.4c.9.4,1,.9,1.9,1.4.3.2.7,0,.2.6s-1.1.2-1.7.3c-.4,0-.8,1.1-1.6,1.5-1.7.8-4.3,1.4-6,2.3-.4.2-1,.4-.8,1,3.2,0,6.2-1.5,9.1-2.4.4,0,.9,0,.8.3-1,1.6-7.5,3.2-7.9,4.3-.1.3,0,.6,0,.9-1.9-1.1-2.1.3-3.4.5s-3.9.4-5,.7c-.5.2-.7.8-1.1,1-.3.2-1.8-.3-2,.6-.2,1,2.3.5,2.9.4,2.2-.4,5.6-1.4,7.8-1.6.6,0,1.5-.3,1.2.5-1.4-.3-1.6.9-2.6,1.2-.8.2-1.6,0-2.5.4s-1.2,1.3-1.8,1.4c-.7.2-1.2-.3-2,0-.5.2-2.1,1.6-2.9,2-.5.2-2.4.6-2.5.8-.3.3.9,1.1,1,1.1h4.4c.2,1.1-1.9.8-1.4,1.8.3.7,2.8,0,3.6,0s1.4.3,2.1.3c-1.8,2.1-4.2,1.6-6.4,2-.5,0-2.7,1.6-3,.4-.1-.5,1.1-1.6-.3-2.3-.3-.2-3.2-.4-3.7-.3-1.6.3-1.4,1.6-1.9,1.9-.9.6-3.7.5-5.1,1.1-.3,0-.5-.2-.4.6,1.2,0,2.7.6,3.8.5,1.5,0,2.8-1.5,3.7,0,.9-1.6,1.2-1.2,2.4,0-.3,1.2-1.4,1-2,1.4-.7.6-1.2,1.7-2.5,1.8-1-.3-2.2,0-3.1,0s-1.4-.4-2.2-.6c-.3.5-.9.2-1.1-.3h-2l.3,1.7c-.8.4-1.4-.2-2.2-.3-1.3,0-2.5-.2-3.8-.3,0-1.3-1.1-2.4-2-3.3,0-.2,2.8-1,1.8-1.6-.3-.2-.8,0-1.1-.6-1.6-3.1,5-2.4,5-3.3s-3.1,0-3.6.2c-2,.2-2.9,0-5.1.9-.8.4-1.5,1.4-2.2,1.8-.5.3-1.5.3-2.1.8s-.3,1.2-.9,1.7-1.8.6-2.5.9c-1.9.9-3.6,2.7-5.9,2.5.3,1,1.9.9,1.3,2-.8,1.4-3-.8-3.3,1.1-1.8.9-.7-1.3,0-2.1-1-.7-1.2-1.2-.6-1.6,3.3-1.6,6.7-2.8,10-4.4,6.4-3,13.1-6,19.6-9.2.4-.2,3.7-1.8,3.2-2.3-1,.7-2.6.9-3.7,1.4,1.1-1.7,3.4-2.5,5.2-3.2,5.9-2.4,11.3-4.8,17.1-7.7,2.8-1.4,6.3-2.7,9-4.2h0l.5.2Z"/>
        <path class="st1" d="M423.1,239.4c.9-1.1.5-.4,1.4-.9.5-.3.3-1.7,1.6-1.3.2,0,.2.8.8.6,0,0-.3.4-.6.6-.7.4-2.2.9-3.1,1.1h0Z"/>
        <path class="st1" d="M422.8,239.7l-.9.3c.1,0,.8-.3.9-.3Z"/>
        <path class="st12" d="M312.1,299c-1.3,1.8-4.3,3.2-6.4,3.7-.5.1-1.2-.1-1.6,0-.3,0-.5,1.1-1.2,1.3-.3.1-1.7,0-1.8.1.2,1.2.4,3.3,2,3.1,0,0-.2.4-.4.6-.7.4-4.7,2.8-4.9,3.1-.4.9.1,1.6.1,2.4-.2,5-3.1,1.2-4-1.2-.3-.2-.5-.4-.3-.8-1.4-.2-1.9-.7-1.7-1.5,1.6.3.3-1,.7-1.4.3-.3,1-.2,1-.3,0,0-.4-.6-.2-1.2,0-.2,1.3-2.2,1.4-2.3.6-.5,1.9-.6,2.4-1,.4-.3.7-1.1,1.3-1.6,1.8-1.5,4-2.5,6.3-2.7,1.3-.1,2.7.9,3,.8.2,0,3.9-1,4.4-1.1h0Z"/>
        <path class="st47" d="M320.1,294.1c-.5.8-1.4,1.4-2.3,1.7.5-1,1.5-1.2,2.3-1.7Z"/>
        <path class="st47" d="M328.1,289.6c-.5.3-.9.4-1.1.6.2-.5.6-.6,1.1-.6Z"/>
        <path class="st47" d="M322.1,293c-.2.1-.5.3-.9.6l.9-.6Z"/>
        <path class="st47" d="M324.1,291.8c-.2.1-.5.3-.9.6.1-.4.4-.6.9-.6Z"/>
        <path class="st47" d="M329.5,288.7c-.2.1-.5.4-.9.6l.9-.6Z"/>
        <path class="st30" d="M291.8,309.8c.2,0,.4.4.7.6,1,.5,2.1,0,1.3,1.7,0,0-.5.1-.6.7,0,.3.3,1.6.4,1.9.3.7.9.7,1.2,1.4.4,1.1-.3,1.9-.2,2.7,0,.7.8.9,1,1.3,1,2.1-2.4,2.9-1.9,0-2.4-.3-.2,2.8-.6,3.1-1.5.6-1.4-1.6-2.1-1.7-.8-.2-1.1,2-1.7,1.7s-.7-1.1-1-1.3c-.5-.3-1.2,0-1.7-.3-.6-.4.4-.6.2-1-.1-.3-1.4-1.4-1.8-1.4-2.2-.4-3.9,2-5.9,1.4-1.1-.3-2.4-2.2-3-2.5-.7-.5-1.2.4-2.6-.8-.9-.8-1.1-1.8-2.6-1.4v.9c-.1,0-.9-1.7-.9-1.7.6-.4,1.4-.3,2.6.2,1.5-1.3,2.6-.8,3.8.6.9-.4,1.7-.3,2.3.2,1.1,2.5,2.1,1.7,2.9-2.4.9-2.8,4.4-4.3,5.4-.7,1.1.2,2,.9,2.6,2.1.3-.7.7-1.2,1.4-1.6l-1.6-2.5c-.1-.7,0-1.2.7-1.3.6,0,1.1,0,1.7.3h0v-.2Z"/>
        <path class="st5" d="M290.1,309.5c0,.3-.3.8-.1,1.1.2.5,2.2,2.9,1.8,3.4-1.4-.4-1.5,1.3-1.9,1.4-1,.3-1.4-1.3-2-1.7-.4-.3-1-.2-1.2-.3-.7-.5-.4-3.4-3.4-1.4-1.7,1.1-1.7,5.4-2.6,5.7-2.3.8-2.1-1.2-2.6-1.5-.6-.4-1.3.2-1.8.1s-1-1.2-1.6-1.3c-1.1-.3-1.5.7-2.2.7s-1.9-.6-2.5-.8-.2,0-.3,0c-1.1-.4-.7-1.1.4-1.1.2-.7.7-1.2,1.6-1.5-.7-1.2-1.4-1.3-2.7-1.1-.5-.2-.8-.7-1-1.3-1.1-.4-2.9-1.8-1.1-2.4,1.4-.2,1.7.3,2.6,1.1.2.2.4.4.6.6,1.1.6,2.2,1.1,3.4,1.6.4,2.1,2,2.9,4.6,2.4,1.7,1.8,2.2.9,2.1-1.2l1.9-2.8c1.4,0,1.9-.1,2.7-1.3,1.3-.2,2.5-.7,3.6-1.4.3,0,.7-.1,1,.3.2.3.6,2,.7,2.6h0Z"/>
        <path class="st66" d="M284.1,305c.9.7,2.1.8,3.1.6h.5c.1,0,0,.4,0,.5,0,.2,0,.4.3.6h.3c0,1.7-1.6,1-2.9,1.6-.8.4-.9,1.1-1.5,1.4-.6.3-1.6,0-1.9.3-.3.2-.2.9-.4,1.3-.2.4-.8.6-.9,1.1-.2.6,0,1.8-.1,2,0,0-1.7.7-1.9.9.2-.8-1-1.8-1.6-1.9-.7-.1-2.1.6-2.9.1-.4-.2-.5-1.6-1-2.1s-1.9-1.1-3-2c.8-.6,1.3.5,1.9.8.5.2,2.5.5,2.6.7.3.4-.5,1.7,1.2,2.4h2.2c1.1-.3.8-.8,1.2-1.3.8-1.1.5-.6,1-1.8.7-1.5,1.9-.9,2.9-1.4s.6-.8,1.1-.9c.7-.2,1.6.2,2.1-.5-1.6-.1-3.6.1-3.1-2.1h.9v-.3Z"/>
        <path class="st58" d="M287.3,305.5c.1.9-.3.4-.8.5-1.1,0-2.1.5-2.3-1,1.4.1,1.7,0,3.1.6h0Z"/>
        <path class="st5" d="M288.1,306.7h-.9l.6-.6c0,.2.2.4.3.6Z"/>
        <path class="st20" d="M434.2,252.8v1.1c-2,0-1.9-1,0-1.1Z"/>
        <path class="st20" d="M428.5,251.3c.2,1-1.2.7-1.1-.3.4,0,.8.2,1.1.3Z"/>
        <path class="st35" d="M222.5,342c.6.3,1.8,1,2.3,1.3.7.3,3.5.5,3.4,1.7,0,.2-.6,1.7-.8,1.8-1.1.5-1.2-1.1-1.6-1.3-.9-.4-3.2.7-2.9-1.1-1.6,1.1-2,.4-2.6-1.1,1,0,2.1.1,2.3-1.1h0v-.2Z"/>
        <path class="st35" d="M230.8,342c-.4,0-1.3-.3-1.1.4.2.9,1.1.4.9,1.3-1.1,0-1.9-.5-2.9-.9.9-.8,1.1-1.9,2.7-1.4.4.1.4.5.5.5h0Z"/>
        <path class="st35" d="M221.7,339.2l-.6,1.7c-.6-.4-1.6-.6-1.7-1.6,0-.1,1.2-.9,1.3-1,.6,0,.7.6.9.8h.1Z"/>
        <path class="st35" d="M215.7,336.3v.6c-.6.1-1.2-.2-1.4-.9.3,0,1.4.2,1.4.3h0Z"/>
        <path class="st35" d="M217.2,337.5l.7.7c0,1.1-1.8-.7-.7-.7Z"/>
        <path class="st35" d="M220,343.2l-1.1-.3c.6,0,1.1.3,1.1.3Z"/>
        <path class="st35" d="M223.7,340.6c-.6,0-.7,0-.6-.6.3.2.5.5.6.6Z"/>
        <path class="st7" d="M406.5,274.2s-.6.1-.6-.1c.5-.8.9-.2.6.1Z"/>
        <path class="st8" d="M384.6,259.6h.5c1.8-1.7,3-1,4,1.1l2.4-.3c1.2-1.3,2.7-2.3,4.4-3.2,1.2-1.6,2.3-1.9,3.5-1,.5,1.5-.4,1.7-1.7,2.4-1.5.8-.9.7-1.3,1-.3.2-1.5.3-2.2.6-1,.5-1.5,1.6-1.9,1.8s-1,0-1.4.3c-.9.5-1.5,1.8-2,2-.8.4-1.8-.5-2.3,0-.4.3-.2,1.4-.8,1.8-.5.3-3.4-.9-4.3-.4-.2,1.4,2.9,1.5,2.6,2.7-.8,1.1-1.5,0-2.1,0-2.2-.3-.8,3.2-2.1,3.8-1.4.7-2.9-.7-3.4-.3-.9.8-.2,3.6-.8,4-.3.1-1.9-.1-2-.2-.1-.1.1-2.5-1-2.8-.6.5-.4,1.3-.6,1.9-.6,1.4-2.2,1.1-3.2,1.7-.8.4-2.6,3.3-3.6,2.4-.4-.3-1-2.3-.9-2.7.3-1.2,3.3-1,3.6-1.4,0,0,0-.8.3-1.3.4-.6,1.2-.6,1.6-1,.1-.2,1.1-1.9,1-2.1-1.7-1.4-1.9-.3-3,.7-1.4,1.2-1.7,1.1-3.3,1.9-.1,0-2.1,1.4-2.2,1.5-.4.4-.5,1.2-.8,1.5-.5.4-1.2.1-1.6.4-.3.2-.2.8-.6,1.1-1.5,1.4-3.9,2.4-5.3,3.4-.4.2-.8,1.4-1.2,1.8-.8.5-2.3.8-3,1.6-.8,1,0,1.8-2.1,2.2-.4,0-2.9.1-3.1,0-.6-.3-.9-1.6-1.3-2.1s-1.6-.8-1-1.3c.3-.2,1.7-.9,2-.7,0,0-.5,1.4.4,1.1.2,0,.9-1.6,1.3-2.1.2-.2,2.9-2.2,3.1-2.3,2.6-1.2,4.6-3.2,7.3-4.6,5.9-3.2,11.8-6.8,18-9.7,3.5-1.7,7.2-2.5,10.3-4.9h0l-.2-.2Z"/>
        <path class="st23" d="M398.5,251.6c0,.6,1,1.1,1.1,1.3.3.9-1.1,1.8-1.1,2s.5.3.6.4c.2.3.2.6.3.9l-.3.7c-1.5-1.4-1.7-.2-2.5.5-1.2,1-2.6,1.7-3.9,2.6-.4.3-.6.9-.9,1.1-.2,0-2.9.4-3.1.3-.5-.2-.4-2-2.1-2.2-.5,0-2,2.2-2.1.5,4.4-3.5,8.8-5.6,14-8h0Z"/>
        <path class="st41" d="M367.2,286.1c0-.9-.9-2.3.4-2.6,1.5,1.1,1.9,2.6-.4,2.6Z"/>
        <path class="st41" d="M393.7,280.1l-.9-.7c.5-.8,1,0,.9.7Z"/>
        <path class="st43" d="M307.8,346.3c.8-.8,1.3-1.5,2.6-1.4.1.6-.5,2.1-.3,2.6,0,0,.3-.2.6,0,.3.2.8.6.9.7-1.2-.1-.4,1.4-.8,1.9l-2,1.3c-.2-1.3,1.1-1.1,1.1-1.1.1-.1-.2-2.6-.3-2.9-.3-1-1.1-.6-1.6-.8h0l-.2-.3Z"/>
        <path class="st43" d="M291.3,334.6c-.2.2-1.1-.5-1.1-.9.6-.3,1.5.5,1.1.9Z"/>
        <path class="st67" d="M327.5,346.3c.9,1.8-.2,4.7-2.3,4.2-1.8-.4-1.6-1.4-2.2-2.3-.2-.3-.8-.4-1-.8-.5-1.1.3-2.3.1-3-.2-.8-.9,0-1.1,0-.9.2-.3-1.4-.6-1.9,1.4.3,1.3.9,3,.9s2.2-.9,2.3-.9c.4,0,.8.3,1.1.3s.3-1.2.7-.6c.4.5-.8,1.3-.9,1.4-1.3.3.3,3.2.9,2.6h0Z"/>
        <path class="st39" d="M326.6,343.7c-.4,1.3.5,1.8.9,2.6,0,.8-.2.7-.7.3-1-.7-1.2-1.5-.9-2.6,0-.3,1-1.4.8-.2h0Z"/>
        <path class="st30" d="M259,302.4v-1.3c0-1.7.7,0,1,.2.6.4,1.3.4,1.8,1,.6.6.5,1.8.8,2s1.2.1,2,.6c.5.3,2.1,2.2,2.3,2.7,0,.1-.3.6-.1.9.2.5,1.3.7,1.7,1.1.3.3.4,1,.5,1.1.5.3,1.5-.7,2.6.6,1.8,2.1-.1,1.5-.7,2.1-.3.3-.2.9-.3,1-.3.3-1.6-.4-.8.6-.3-.1-1.6-.5-1.7-.6-.5-.7,1.3-1.8,1.1-2-1,0-1.4-1.3-2.1-1.7-.6-.4-1.6-.4-2.1-.9-.3-.4-.3-1-.6-1.5-.4-.5-1.3-.7-1.6-1.1-.3-.3-.2-.9-.4-1-.2-.2-.9,0-1.3-.3-.8-.4-1.1-1.3-2.4-.9-.3-.9.7-.4.9-.6.2-.3-.5-1.5-.6-2h0Z"/>
        <path class="st47" d="M322.1,314.9c-1.5-1-1.3-1.2-.3-2.3.5.7.2,1.6.3,2.3Z"/>
        <path class="st43" d="M309.8,334.3c.3,1.2-.7,2.6-2,2.6-.3-1.4.7-2.4,2-2.6Z"/>
        <path class="st40" d="M321.5,340.6l.9-.9c.1.5-.3.9-.9.9Z"/>
        <path class="st53" d="M458.4,224.3c.4.5-1.4,1.9-1.7,2.4l-6.3,1.6c-.1-.6.3-.7.7-.9,1.3-.9,2.6-1.4,3.9-2.1.5-.3,1-1,1.5-1.1.4,0,1.9,0,2,.2h-.1Z"/>
        <rect class="st7" x="422.2" y="247.1" width="1.1" height=".3"/>
        <path class="st7" d="M383.1,263.3s-.8,0-1.2.3c-1.8,1-2.9,2.9-5,2.5-.2-1.4,2.1-1.1,2.3-1.3.2-.2.2-.7.4-.9.4-.4,2.5-.8,2.9-1.8.6,0,.9.9.7,1.1h0Z"/>
      </g>
    </g>
  </g>
</svg>