<?xml version="1.0" encoding="UTF-8"?>
<svg id="Layer_2" xmlns="http://www.w3.org/2000/svg" version="1.1" viewBox="0 0 311.8 311.8">
  <!-- Generator: Adobe Illustrator 29.3.1, SVG Export Plug-In . SVG Version: 2.1.0 Build 151)  -->
  <defs>
    <style>
      .st0 {
        fill: #231f20;
      }
    </style>
  </defs>
  <g id="Layer_1-2">
    <g>
      <path d="M147.8,123.6c2.3,7.7-8.2,31.7-6.6,41.6l-6,21.6c1.3,0,2.7-.1,4.1-.2,1.1,0,2.8-.4,4.5-.8,2.1-.4,4.4-.9,6.6-1.1.1-8.5.8-17,1.9-24.7,1.5-9.5,7.3-26.6,6.9-35.3-.3-4.9-5.2-9.5-9.9-9.8-7.8-.5-2.4,6.2-1.6,8.7Z"/>
      <path d="M244.4,89.8c-.4-.4,1-2.1.8-2.3-1.8-1.5-2.3,2.1-3.5,1.6l-.8-1.6c-15.7,1.6-31.8,5.3-47.6,5.6-2.3,0-4.7.1-7.1,0-3.2-.2-12.2-3.2-13.8-1.2-1.8,2.3.6,5.2.9,7.9,2.1,24-8.4,63.7-14.4,90.8h0c-.1.5-.2,1-.3,1.5-.4,1.8-.8,3.5-1.1,5.2-1.2,5.9-3,11.8-3.7,17.8-1.2.1-1.4-2-1.5-2.8-.9-5.5-1.4-11.4-1.6-17.4-4.2,1.5-8.3,2.7-13.1,3-1.4.1-2.8.1-4.2.1s-.8,0-1.1,0l-7.3,26.5c-1.5-.3-1.4-1.6-1.6-2.8-1.1-6.3-.5-14.8,1-24.3,0-.5.1-.9.3-1.4.4-2.5.9-5.1,1.4-7.7.1-.5.2-.9.3-1.4,3.9-18.8,9.9-39.2,12.4-52.1,1.9-10,5.7-27.7,5.8-37.4,0-1.3-1.3-1.1-1.4-1.4-.6-2-.4-5.1-1.5-6.8-.5-.7-1.8-.9-2.3-1.6-1.1-1.6.1-4.6-3.5-3.9-.2,4.2.3,8.7,0,12.9-1.1,14.4-5.6,34-8.8,48.3-2.4,11-7,25.7-10.1,40.4-.1.5-.2.9-.3,1.4-.5,2.4-1,4.7-1.4,7.1,0,.5-.2,1-.3,1.4-2,12.2-2.5,23.8.5,32.8,2,6,8.3,17.2,16,13.7l9.8-36.8c1.8,8.6,1.9,17.5,3.2,26.1.9,5.8,2.5,20.6,10.4,20.9,7.3.2,4.6-5.7,5.1-10.6,3.6-35.1,14.7-70.3,20.1-105,1.7-10.9,2.9-22,2.5-33,14.7,1.9,29.4-1.6,43.9-3.4l21.7-6.8v-3.9l-3.9.8h-.1Z"/>
      <path d="M151.9,186.1c-.5,0-.9,0-1.4,0-3.8.3-8.3,1.7-11,1.9-1.5.1-3.1.2-4.6.3h-1.5c-2,0-4,0-5.9-.1-.5,2.7-1,5.2-1.5,7.8,1.7.2,3.4.4,5.1.4h1.5c1.6,0,3.3,0,4.9-.1,4.8-.3,8.9-1.6,13.1-3.1.5-.2.9-.3,1.4-.5,1.8-.6,3.5-1.3,5.4-1.9h.1v-.5c-.3-3.2-2.6-4.2-5.6-4.2h0Z"/>
      <path d="M115.2,186.2c-9.8-3-17.6-9.4-21-21.8,20.5-35.4,32.7-75,43.6-114.3,1.2,0,1.5-.4,1.4,1-.4,6.7-1.1,13.6-1.9,20.3.1,2.6.9,2.8,2.3,4.2,1.5,1.6,3.9,3.8,5.7,1.3,1.8-14.6,1.5-28.7-.2-43.3-1-2.3-6-7.1-8.2-4.8-10.6,24.3-15.9,50.4-25.1,75.3-4.6,12.4-12.7,34.6-19.8,45.1-.5.8-1.4,2.4-2.3,1.1-2.9-5.9-9.4-24.2-18.3-21.1-3.2,1.1-6.9,19.9-7.2,23.6-.6,7.4-1.7,21.2,4.7,25.8,9.7,7,12.4-1.6,19.4-6.4,5.4,10.2,14.8,17.1,25.6,20.8.4-2.3.9-4.7,1.4-7h0ZM83.8,161c-.3,1.9-10.2,13-11.6,12-2.1-9.8-1.5-22.7,2.5-31.9.4-.9,0-1.1,1.5-.9,1.5,4.7,8.1,16.3,7.5,20.8h0Z"/>
      <path class="st0" d="M79.7,268.8c0,4.6-3.5,8.2-8,8.2s-8.1-3.7-8.1-8.2,3.6-8.2,8.1-8.2,8,3.7,8,8.2ZM64.9,268.8c0,4,2.9,7.1,6.8,7.1s6.7-3.1,6.7-7.2-2.9-7.1-6.7-7.1-6.8,3.2-6.8,7.2h0ZM74.9,265.7c-.4-.2-1.3-.6-2.6-.6-2.5,0-3.7,1.6-3.7,3.7s1.3,3.8,3.8,3.8,2.1-.3,2.7-.7l.3,1c-.9.6-2.2.8-3.3.8-3.1,0-4.9-2.2-4.9-4.8s2.4-4.9,5.1-4.9,2.6.4,2.9.7l-.3,1h0Z"/>
      <path class="st0" d="M88.3,259.9h2.3v16h7.7v1.9h-10v-18h0Z"/>
      <path class="st0" d="M101.8,271.8c0,3.2,2.1,4.5,4.4,4.5s2.7-.3,3.6-.7l.4,1.7c-.8.4-2.2.8-4.3.8-4,0-6.3-2.6-6.3-6.5s2.3-7,6.1-7,5.3,3.7,5.3,6.1,0,.9,0,1.1h-9.1ZM108.7,270.1c0-1.5-.6-3.8-3.3-3.8s-3.4,2.2-3.6,3.8h6.8Z"/>
      <path class="st0" d="M114.7,264.9l2.5,7.2c.4,1.2.8,2.2,1,3.3h0c.3-1.1.7-2.2,1.1-3.3l2.5-7.2h2.4l-5.1,12.9h-2.2l-4.9-12.9h2.5,0Z"/>
      <path class="st0" d="M127.7,271.8c0,3.2,2.1,4.5,4.4,4.5s2.7-.3,3.6-.7l.4,1.7c-.8.4-2.2.8-4.3.8-4,0-6.3-2.6-6.3-6.5s2.3-7,6.1-7,5.3,3.7,5.3,6.1,0,.9,0,1.1h-9.1,0ZM134.6,270.1c0-1.5-.6-3.8-3.3-3.8s-3.4,2.2-3.6,3.8h6.8Z"/>
      <path class="st0" d="M139.7,268.4c0-1.3,0-2.4-.1-3.5h2.1v2.2h.2c.6-1.2,2.1-2.4,4.3-2.4s4.6,1.1,4.6,5.5v7.7h-2.3v-7.5c0-2.1-.8-3.8-3-3.8s-2.8,1.1-3.2,2.4c-.1.3-.1.7-.1,1.1v7.7h-2.3v-9.4h0Z"/>
      <path class="st0" d="M157.2,261.2v3.7h3.4v1.8h-3.4v7c0,1.6.5,2.5,1.8,2.5s1.1,0,1.4-.2v1.8c-.4.2-1.1.3-2,.3s-2-.4-2.5-1c-.7-.7-.9-1.8-.9-3.4v-7h-2v-1.8h2v-3.1l2.3-.6h0Z"/>
      <path class="st0" d="M164.4,271.8c0,3.2,2.1,4.5,4.4,4.5s2.7-.3,3.6-.7l.4,1.7c-.8.4-2.2.8-4.3.8-4,0-6.3-2.6-6.3-6.5s2.3-7,6.1-7,5.3,3.7,5.3,6.1,0,.9,0,1.1h-9.1,0ZM171.3,270.1c0-1.5-.6-3.8-3.3-3.8s-3.4,2.2-3.6,3.8h6.8Z"/>
      <path class="st0" d="M184.2,277.8l-4.6-18h2.4l2.2,9.1c.5,2.2,1,4.5,1.3,6.2h0c.3-1.8.9-3.9,1.5-6.2l2.4-9.1h2.4l2.2,9.1c.5,2.2,1,4.3,1.3,6.2h0c.4-2,.9-4,1.4-6.2l2.4-9.1h2.4l-5.1,18h-2.4l-2.3-9.4c-.6-2.3-.9-4.1-1.2-5.9h0c-.3,1.8-.7,3.5-1.4,5.9l-2.5,9.4h-2.4,0Z"/>
      <path class="st0" d="M210,277.8l-.2-1.6h0c-.7,1-2.1,1.9-3.9,1.9-2.6,0-3.9-1.8-3.9-3.7,0-3.1,2.8-4.8,7.7-4.8v-.3c0-1.1-.3-3-2.9-3s-2.4.4-3.4,1l-.5-1.5c1.1-.7,2.6-1.1,4.2-1.1,3.9,0,4.9,2.7,4.9,5.3v4.8c0,1.1,0,2.2.2,3.1h-2.2,0ZM209.6,271.2c-2.5,0-5.4.4-5.4,2.9s1,2.2,2.2,2.2,2.8-1.1,3.1-2.2c0-.3.1-.5.1-.8v-2.2h0Z"/>
      <path class="st0" d="M215.7,268.9c0-1.5,0-2.8-.1-4h2v2.5h.2c.6-1.7,2-2.8,3.6-2.8s.5,0,.7,0v2.2c-.3,0-.5,0-.8,0-1.6,0-2.8,1.3-3.2,3,0,.3-.1.7-.1,1.1v6.9h-2.3v-8.9h0Z"/>
      <path class="st0" d="M235.3,264.9c0,.9-.1,2-.1,3.5v7.5c0,2.9-.6,4.8-1.8,5.9-1.3,1.2-3,1.5-4.7,1.5s-3.3-.4-4.3-1.1l.6-1.8c.9.5,2.2,1,3.8,1,2.4,0,4.2-1.3,4.2-4.5v-1.4h0c-.7,1.2-2.1,2.2-4.1,2.2-3.2,0-5.5-2.7-5.5-6.3s2.9-6.8,5.8-6.8,3.5,1.2,4,2.2h0v-1.9h2.2ZM232.8,270c0-.4,0-.8-.1-1.1-.4-1.4-1.6-2.5-3.3-2.5s-3.8,1.9-3.8,4.9,1.3,4.6,3.8,4.6,2.8-.9,3.3-2.4c.1-.4.2-.9.2-1.3v-2.3h0Z"/>
      <path class="st0" d="M246.2,277.8l-.2-1.6h0c-.7,1-2.1,1.9-3.9,1.9-2.6,0-3.9-1.8-3.9-3.7,0-3.1,2.8-4.8,7.7-4.8v-.3c0-1.1-.3-3-2.9-3s-2.4.4-3.4,1l-.5-1.5c1.1-.7,2.6-1.1,4.2-1.1,3.9,0,4.9,2.7,4.9,5.3v4.8c0,1.1,0,2.2.2,3.1h-2.2,0ZM245.9,271.2c-2.5,0-5.4.4-5.4,2.9s1,2.2,2.2,2.2,2.8-1.1,3.1-2.2c0-.3.1-.5.1-.8v-2.2h0Z"/>
    </g>
  </g>
</svg>