<?xml version="1.0" encoding="UTF-8"?>
<svg id="b" xmlns="http://www.w3.org/2000/svg" version="1.1" viewBox="0 0 510.2 283.5">
  <!-- Generator: Adobe Illustrator 29.4.0, SVG Export Plug-In . SVG Version: 2.1.0 Build 152)  -->
  <defs>
    <style>
      .st0 {
        fill: none;
      }

      .st1 {
        fill: #efdecc;
      }

      .st2 {
        fill: #493e3c;
      }

      .st3 {
        fill: #484643;
      }

      .st4 {
        fill: #0c0b0a;
      }

      .st5 {
        fill: #322e2e;
      }

      .st6 {
        fill: #a08d7d;
      }

      .st7 {
        fill: #6d7686;
      }

      .st8 {
        fill: #583f31;
      }

      .st9 {
        fill: #d1a375;
      }

      .st10 {
        fill: #8a8170;
      }

      .st11 {
        fill: #706452;
      }

      .st12 {
        fill: #967e68;
      }

      .st13 {
        fill: #866c66;
      }

      .st14 {
        fill: #757b86;
      }

      .st15 {
        fill: #bd7745;
      }

      .st16 {
        fill: #3e4851;
      }

      .st17 {
        fill: #787076;
      }

      .st18 {
        fill: #6f503f;
      }

      .st19 {
        fill: #a5937c;
      }

      .st20 {
        fill: #604a3c;
      }

      .st21 {
        fill: #342020;
      }

      .st22 {
        fill: #5c5e61;
      }

      .st23 {
        fill: #765949;
      }

      .st24 {
        fill: #352421;
      }

      .st25 {
        fill: #887662;
      }

      .st26 {
        fill: #a7846b;
      }

      .st27 {
        fill: #a85128;
      }

      .st28 {
        fill: #81889b;
      }

      .st29 {
        fill: #826757;
      }

      .st30 {
        fill: #b88965;
      }

      .st31 {
        fill: #dacabe;
      }

      .st32 {
        fill: #f5e4d2;
      }

      .st33 {
        fill: #543c32;
      }

      .st34 {
        fill: #646874;
      }

      .st35 {
        fill: #a9744f;
      }

      .st36 {
        fill: #886149;
      }

      .st37 {
        fill: #090807;
      }

      .st38 {
        fill: #f9eada;
      }

      .st39 {
        fill: #463630;
      }

      .st40 {
        fill: #4c4b4d;
      }

      .st41 {
        fill: #a58c86;
      }

      .st42 {
        fill: #61544e;
      }

      .st43 {
        fill: #121214;
      }

      .st44 {
        fill: #9c8d8b;
      }

      .st45 {
        fill: #5b5c60;
      }

      .st46 {
        fill: #808894;
      }

      .st47 {
        fill: #817671;
      }

      .st48 {
        fill: #e8cdb5;
      }

      .st49 {
        fill: #43494f;
      }

      .st50 {
        fill: #302822;
      }

      .st51 {
        fill: #281912;
      }

      .st52 {
        fill: #5a5a5d;
      }

      .st53 {
        fill: #b9a68f;
      }

      .st54 {
        fill: #5b5d62;
      }

      .st55 {
        fill: #515052;
      }

      .st56 {
        fill: #ac917b;
      }

      .st57 {
        fill: #a59b97;
      }

      .st58 {
        fill: #ac8466;
      }

      .st59 {
        fill: #45372f;
      }

      .st60 {
        fill: #b29684;
      }

      .st61 {
        fill: #5d493e;
      }

      .st62 {
        fill: #816450;
      }

      .st63 {
        fill: #cdb097;
      }

      .st64 {
        fill: #676c74;
      }

      .st65 {
        fill: #525254;
      }

      .st66 {
        fill: #b6a694;
      }

      .st67 {
        fill: #37363b;
      }

      .st68 {
        fill: #333034;
      }

      .st69 {
        fill: #544036;
      }

      .st70 {
        fill: #b1908d;
      }

      .st71 {
        fill: #423b3b;
      }

      .st72 {
        fill: #70737b;
      }

      .st73 {
        fill: #806a60;
      }

      .st74 {
        fill: #694b3d;
      }

      .st75 {
        fill: #bcad99;
      }

      .st76 {
        fill: #c07440;
      }

      .st77 {
        fill: #b79b86;
      }

      .st78 {
        fill: #14100f;
      }

      .st79 {
        fill: #5f6063;
      }

      .st80 {
        fill: #84899b;
      }

      .st81 {
        fill: #e9c39b;
      }

      .st82 {
        fill: #cba;
      }

      .st83 {
        fill: #eac49f;
      }

      .st84 {
        fill: #7e8795;
      }

      .st85 {
        fill: #5a5b62;
      }

      .st86 {
        fill: #383134;
      }

      .st87 {
        fill: #90735c;
      }

      .st88 {
        fill: #5c5d62;
      }

      .st89 {
        fill: #6f533f;
      }

      .st90 {
        fill: #6b4d3f;
      }

      .st91 {
        fill: #788394;
      }

      .st92 {
        fill: #4c3c3a;
      }

      .st93 {
        fill: #553525;
      }

      .st94 {
        fill: #676a73;
      }

      .st95 {
        fill: #5b4338;
      }

      .st96 {
        fill: #f2dcc8;
      }

      .st97 {
        fill: #dbb99c;
      }

      .st98 {
        fill: #6e7586;
      }

      .st99 {
        fill: #4b4747;
      }

      .st100 {
        fill: #37261f;
      }

      .st101 {
        fill: #a99c94;
      }

      .st102 {
        fill: #4d2f22;
      }

      .st103 {
        fill: #735547;
      }

      .st104 {
        fill: #f3dec4;
      }

      .st105 {
        fill: #ae927c;
      }

      .st106 {
        fill: #585657;
      }

      .st107 {
        fill: #53382d;
      }

      .st108 {
        fill: #997962;
      }

      .st109 {
        fill: #c7b19d;
      }

      .st110 {
        fill: #725342;
      }

      .st111 {
        fill: #dcc6b1;
      }

      .st112 {
        fill: #f4dfc7;
      }

      .st113 {
        fill: #636974;
      }

      .st114 {
        fill: #dacbb8;
      }

      .st115 {
        fill: #beb3ac;
      }

      .st116 {
        fill: #b99376;
      }

      .st117 {
        fill: #6b7281;
      }

      .st118 {
        fill: #616672;
      }

      .st119 {
        fill: #d3ab86;
      }

      .st120 {
        fill: #57585c;
      }

      .st121 {
        fill: #7f654e;
      }

      .st122 {
        fill: #56483a;
      }

      .st123 {
        fill: #69707e;
      }

      .st124 {
        fill: #3c291a;
      }

      .st125 {
        fill: #6f798a;
      }

      .st126 {
        fill: #562619;
      }

      .st127 {
        fill: #98735f;
      }

      .st128 {
        fill: #b09e98;
      }

      .st129 {
        fill: #985e65;
      }

      .st130 {
        fill: #843e21;
      }

      .st131 {
        fill: #8f6853;
      }

      .st132 {
        fill: #482d25;
      }

      .st133 {
        fill: #e3bb95;
      }

      .st134 {
        fill: #332c2a;
      }

      .st135 {
        fill: #47494f;
      }

      .st136 {
        fill: #4c3e38;
      }

      .st137 {
        fill: #78594b;
      }

      .st138 {
        fill: #433732;
      }

      .st139 {
        fill: #57585e;
      }

      .st140 {
        fill: #7f6454;
      }

      .st141 {
        fill: #7c8596;
      }

      .st142 {
        fill: #a78680;
      }

      .st143 {
        fill: #d2a984;
      }

      .st144 {
        fill: #5e5f64;
      }

      .st145 {
        fill: #6a7482;
      }

      .st146 {
        fill: #81695e;
      }

      .st147 {
        fill: #debea2;
      }

      .st148 {
        fill: #777b89;
      }

      .st149 {
        fill: #5c6069;
      }

      .st150 {
        fill: #86523b;
      }

      .st151 {
        fill: #292320;
      }

      .st152 {
        fill: #787a84;
      }

      .st153 {
        fill: #5c646e;
      }

      .st154 {
        fill: #646c78;
      }

      .st155 {
        fill: #6c737d;
      }

      .st156 {
        fill: #c5aa91;
      }

      .st157 {
        fill: #dcc1a5;
      }

      .st158 {
        fill: #d0a889;
      }

      .st159 {
        fill: #685f5e;
      }

      .st160 {
        fill: #b7977e;
      }

      .st161 {
        fill: #44332a;
      }

      .st162 {
        fill: #d59665;
      }

      .st163 {
        fill: #3c291d;
      }

      .st164 {
        fill: #642222;
      }

      .st165 {
        fill: #61656f;
      }

      .st166 {
        fill: #605758;
      }

      .st167 {
        fill: #987866;
      }

      .st168 {
        fill: #522215;
      }

      .st169 {
        fill: #5d4f4e;
      }

      .st170 {
        fill: #5f626b;
      }

      .st171 {
        fill: #d2bcaa;
      }

      .st172 {
        fill: #0f0f0f;
      }

      .st173 {
        fill: #84381e;
      }

      .st174 {
        fill: #855c4d;
      }

      .st175 {
        fill: #6e6b69;
      }

      .st176 {
        fill: #b88a65;
      }

      .st177 {
        fill: #b38d6c;
      }

      .st178 {
        fill: #7b818f;
      }

      .st179 {
        fill: #928380;
      }
    </style>
  </defs>
  <g id="c">
    <path class="st4" d="M205.7,97.6c.3-.7,1.1-.9,2.3-.7,1.4-.9,2.7-1.9,4-3,3-.7,6-1.6,8.9-2.8,5.1-2,8.9,1.2,11.5,5.2l.6.6c1.2-2.8,2.8-1.1,3.4,1,1.3-.5,2.3-.4,3.5.2.5-.7.9-1.6,1.2-2.5h.4c.4-.4,1,0,1.1.5l1.7.9c1.8,1.6,7.1,7,2.3,8,0,.4-.4.9-1.1,1.4.4.4.2.5-.3.3-.4.6-1,1.2-1.8,1.5,0,1.2-.1,2.2-.9,3,.1.7,0,.7-.5.3,0,.3,0,.4-.3.3l-.8.3c.4.4.2.5-.3.3,0,.4-.3.8-.5,1.1.4.4.2.6-.3.3l-2.2.5c0,.5-.9,1-1.4.8-1.2.1-2.5.4-3.8.5-1-.9-2.1-1.2-3.3-.7-.7-1.7-2-1.5-3.9.7l-.4-.3c-1.5,1.1-3.2,2-4.8,3-1.7,1.1-1,2.3.4,3.3,1.7,3.6,3.6,7,5.7,10.5.6,1.5.9,3,1.1,4.6,1.6,1.4,2.8,3,3.8,4.7,1.3.6,1.6,1.7,1,3.3,1.3.8,1.7,2,1.2,3.7l.4,1.7c1.1,1.5.2,3.8-1.2,1.8,0,.2-.1.2-.3,0-.3,0-.4-.3-.3-.5-.4-.5-.6-1-.8-1.6-.9-.4-1.3-1.5-1.1-3.3-.8-1.4-1.7-2.7-2.9-3.8-1.2-1.2-1.5-2.5-1.8-4.1-2-2.5-3.6-5.3-5-8.3l-.9-.4c-1.2-1.7-2-3.6-2.6-5.5-.3-.1-.4-.4-.5-.8-.1-.3-.4-.6-.5-.8-.6-.9-1-1.7-1.4-2.7,0-.1-.1-.4-.3-.5-.9-1.5-2-2.8-3.3-4.1-.4.4-.5.2-.3-.3l-1.1-.5c0,.2-.1.2-.3,0-.2,0-.2-.1,0-.3-1.5-.4-2.9-.9-3.5-2.4-1.1,0-2.5-.3-1.4-1.4-.2,0-.2-.1,0-.3.4-.7.4-1.2-.2-1.6-2.8.5-1.8-1.7-.4-3,.5-1.2-1.6-.9-2.3-.1-2.9,1.7-2.2-2-1.6-3.8-.4-.2-.5-.4,0-.5-.1-.8.3-1.3,1.1-.8.4-1.2,3-3,4.1-3.3l.7.3h0Z"/>
    <path class="st153" d="M215.7,123c-.6-.9-1.6-1.5-1.4-2.7.5.9,1.2,1.8,1.4,2.7Z"/>
    <path class="st153" d="M216.8,124.6h-.3c-.1-.3-.2-.5-.3-.8.2.3.4.5.5.8h0Z"/>
    <path class="st65" d="M214.1,119.7c-.1,0-.4-.1-.5-.3l-2.7-3.8c1.7.7,2.4,2.6,3.3,4.1h0Z"/>
    <path class="st43" d="M405.8,207.2h0q0,0,0,.1h0c-1.9,1.7-4.7,3.2-8.2,4.6-.5.2-1,.4-1.6.6q-.2,0,0,0c-2,0-4,0-6-.3-1.1-.1-2.2-.4-3.3-.7h-.2c0,0-.2,0-.3,0h-3.1c-1.8,0-3.7,0-5.6,0h-.7c0,.2,0,.4-.2.4-.4.6-1.5.7-2.3.4h0c-.5-.1-.9-.4-1.1-.7h-.8c.4,2-1.1,2-2.5,1.7l-1.7.3c.1.9-.5,1.4-2,1.4-.7,1-1.4,1.7-2.3,2-.1,0-.3,0-.4,0-1.1.9-2.5,1.1-3.8.5l-2.5.7h-.3c-.2-1.1-2.8-.5-3.7-.2.2.3.4.5.4.7,0,.3-.1.4-.7.6,0,.2,0,.4-.1.4h-.4c0,0-.2,0-.3-.1-.1,0-.2.1-.3.2h0c0,0-.1.1-.1.2h-1.1s0-.1,0-.1c-2.9,0-5.9.1-8.9.1s-4.1,0-6.1,0h-.6c-.1-.4.1-1.1.7-1.7l-.4-1.1c.8-2.4-2.1-5-4.2-3.6-.5.1-1.2.3-1.6,0-2.8-2,3.8-2.9,5-2.8,3.4-1.3,3.6-7.3,0-8.9-.1-1.2-.6-2-1.2-2.8-.1.1-.3.2-.4.2-.5.1-1.1-.2-1.7-.9-.2,0-.4.1-.6.2h0c-.3.1-.7.2-.9.2h0c-2.2.3-3.6-1.5-5.1-3.5-1.2-.3-2.2-.9-2.7-1.7l-3.1-2.3c-3.3.1-5.1-.9-4.4-4.4.5-.1.5-.7.3-1,0-.1-.1-.3-.3-.4-.8.4-2-.1-2.1-1.1-.8-1.5-1.2-3.8-.5-5.5-.7-.7-1.1-1.6-1.4-2.7-.9.8-1.7.2-1.6-.7-.9-3.7,2.8-3,4.1-.8.7-.4,1.2.3.9.9,1.6,4.4,3.9,4.7,8.4,4.7,1.3.2,3.8.7,4.9,1.1,0,0,0,.2,0,.4.7.2,1.5.4,2.2.7.1,0,.3,0,.3,0,0-.2.1-.2.3,0,1.7.4,3.3.6,5.1.7.9.1,2.1.4,2.8.8,1.2-.1,2.4-.2,3.6-.2h0c1.2,0,2.5,0,3.8.1h0c1.5.1,3.1.4,4.6.7h0c.3,0,.6,0,.8.1,4.4.6,7.5,1.8,11.6,3,4.4,1,8.6,2,12.8,3,3.3-.5,6.7-1.1,9.9-2h0c.1,0,.3,0,.4,0,2.9.7,5.5,1.4,7.9,2.2,0,0,.2,0,.3,0-1,.9-1.9,2-2.7,3h-.5c0,.7-.1,1.4,0,2.1,0,.4,0,.8.1,1.2.4.2.9.6,1.4,1.1,0,0,0,0,.1,0h0c.5.3,1.1.4,1.7.3.2,0,.4,0,.6-.1.2-.3.4-.4.6,0,.1,0,.3,0,.4-.1.5-.1,1-.2,1.5-.1h0c.5,0,.9.4.9.8,0,.4,0,.8-.4,1.3,0,0-.1.2-.2.3.5,1.5,1.3,2.1,2.7,2.9,1.7-.4,2.7.7,1.7,2.1.5.1,1,.4,1.2.9,0-1.4.4-1.7,1.1-1.3,0,0,.1,0,.2.1.3.2.7.5,1,.9h0c.2.2.4.5.7.8h0Z"/>
    <path class="st92" d="M394.7,191.2c-.7.4-1.3,1-1.7,1.8-1.5.7-2.8,2.2-2.2,4l-.2.2v-.7c-.1,0-.8-3.3-.8-3.3.7-.5,1.2.2,1.2.2.4,0,.4-1.1.4-1.3,0,0,.9-.4,1.3-.7l.7-.7c0,0,.2,0,.3,0,0,0,.1,0,.2,0,.3,0,.5.1.8.3h0Z"/>
    <path class="st54" d="M331,183c-.5,0-1,0-1.2-.6,0-.6.4-.6,1.1,0,.9-.7,3.3-.3,4.6,0,1.4.4,2.7.8,4,1.1,2.2,0,4.8.1,7,.3,1.2,0,3.4,0,4.1.8-3-.4-6.5-.7-9.6-.8-1,0-2.6.4-3.3.3-.4,0-.7-.4-.8-.5-.2,0-.7.7-.8.7"/>
    <path class="st159" d="M108.4,219.2c.1-1,1.1-.4.9.5,1.1-.2,2.2-.3,3.4-.2-.3-.9,2.8-.9,2.9-.7.8.7.8,1.5-.2,1.3,0,.5.5.7,1.4.7v.4c0,.1-.2.2-.6.3-.4,1.1-2.3,1-3.4.9l2.8,1.8v.7c2.1,1.2-.1,2.2-1.5,2.5,1.4,1.7,3.6,2.2,5.7,2.5l.4.7c2.8-.5,6.4-.1,8.9,1.1,0,1.3-1.5.9-2.5.6-.4.4-1.1.6-1.9.4l-.7.4h-.3c-1.2.5-2.2.7-3.3-.3-3-.2-5.7-.2-8.6-1.1-.3,0-.7,0-.9,0-.7.7-1.8-.9-2.3-1.6-.4-.6-.9-1.5-.4-2-3.2-.7-1.2-2.1,1.3-1.7l4.4-.5c.4,0-2-1.2-2.2-1.3l-.3-.7c-2.4-.8-4.7-1.5-7.1-2v-2.5l3.8.3h0v-.3Z"/>
    <path class="st152" d="M111.6,223.5c.7,0,1.7.8,2.4.9l1.4,1.5c-2.8,0-5.3.9-8.1.6-.1.8.1.4.7.6,1.5.4,2.9.4,4.4.5.3,0,1.2,0,1.2.4,0,.9-4.3,0-4.9.1-.4.4,1.9,3,2.4,3.3-.9.3-.2,1-.3,1.1-.9.5-.8-.6-1.1-.9s-1.3-.7-1.5-1.2c-.1-.4.2-.9.1-1.1,0,0-.9-.1-1.1-.3-1.1-.7-.9-1.5-1.2-1.8s-1.7,0-1.8-.9l3-.4.5-2.5.5-.4c1.2,0,2.2.2,3.3.7h.1Z"/>
    <path class="st123" d="M123.8,232.7l-1.6,1.1c0,0-.5,0-.8-.1-.3-.2-.2-1-.8-1.2,1.1,0,2.2.2,3.3.3h0Z"/>
    <path class="st125" d="M132.8,238.1h-.5l.3-1.1h-1.6c1.1-.7,2.7-.4,1.9,1.1h0Z"/>
    <path class="st134" d="M403.1,204.4l-1.5-1.7-.7-.8s0,0,0-.1h0c0,0,0,0,0,0h0v-.4h0c-.6.1-.8,0-.8-.9v-.4c-1.5-1-3-5.8-.7-5h.1c.1,0,.3.1.4.2.8.1,1.2,1.2,1.7,1.6,1.3,1,4.5,1.5,1.2,3.1l1.1.4c.3.7-.7,1.4-.8,1.8,0,.7,1.5,1.1.9,1.7-.4.4-1-.1-.4.8.4-.1.7,0,.8,0,0,0,0,.2,0,.4s0,.2,0,.4c.4.4.8,1.2,1.2,1.7h0q0,0,0,.1h0l-1.3-1.6-.4-.4-.7-.9h0c0,0-.2,0-.2,0Z"/>
    <path class="st134" d="M404.2,205.5l.4.5c0,0-.1-.1-.3-.2h0c-1.7-.8-.3,2.1-1.2,2.3-.7.1-.6-1-.9-1.4-.4-.5-1.6-.6-2.2-.5,0-1.7,1-.6,1.4-.8,0,0,.2-.7.1-.8-.4-.8-1.2-.1-1.7-.4-.1,0-2.1-1.5-2.2-1.6-.4-.5-.3-1.1-.3-1.7s.1-.3.2-.3.2.2.4.6c.4,0,.6,0,.7,0h0c0,.1.1.3.1.6h0c.1,0,.4.1.6.2q.1,0,0,0c.9.3,2.1.4,1.7-.2,0,0,0,0,0-.1h-.1c0-.1.9.9.9.9l1.5,1.7.3.4.8.9h-.1Z"/>
    <path class="st134" d="M404.6,206c.1.1.3.4.5.6l-.5-.6Z"/>
    <path class="st134" d="M405.7,207.3h0c-.1-.2-.4-.4-.5-.7l.6.7h0Z"/>
    <path class="st94" d="M399.4,193.1c-.7.3-1,.6-1.8.1-.6-.1-.9-.6-.9-1.3.2,0,.4.1.6.2.4.1.9.4,1.4.6.3,0,.5.2.7.3h0Z"/>
    <path class="st73" d="M399.1,198.8c0,.5-.6.5-1.1.4h0c-.2-.4-.5-.7-.9-.8h0c-.4,0-.9,0-1.5.1-.1,0-.3,0-.4.1h-.6c-.2,0-.4.1-.6.1s-.1,0-.2-.1v-.7c2.2-.4,2.8-1.1,1.6-1.8-.2-1.7-1.7-3-2.8-1.5-1.3.2-1,2.5,0,3v.6c0,0,0,0-.1,0h0s0,0-.1,0c-.4-.2-1.2-.5-1.4-1.1v-.7c-.1-.2-.1-.4-.1-.6,0-1.7,1.2-2.2,2.3-3.5.4-.4.6-1.1.9-1.4,0,0,.1-.1.3-.2.3,0,.5.1.8.3.7.2,1.4.5,2,.7.2,0,.4.1.6.2,0,.4.2.6.3,1,0,.1-.2.4-.3.5.4.3.4.6.1.9.4.4,1.5,3.9,1.5,4.1h-.1Z"/>
    <path class="st42" d="M397.3,193.8c1,.2,2.5.1,2.7,1.4-.4,0-.9,0-1.4,0,.2.9-.1,2.1.3,2.8.1.2.5.3.7.4.4.7.8,2,1.2,2.7,0,1.4-3.4,1.3-2-.5,1.4-.7-.7-1-.7.4h-.4c0,.1-.5-.1-.5-.1,0-.8.5-1.7-.1-2.2-.5-.4-1.5,0-2.3,0,1.6-1.2,2.3-.1,3.8.3-.5-1-.7-2.4-1.2-3.3-.2-.4-.8-.4-.7-.6,0-.2.4-.8.6-1.2h0Z"/>
    <path class="st37" d="M314.6,40c0-1.2,2.5-5.9,3.8-4.2.5.7,0,4.5-.9,5.3l1.3-.4c.9-1.2,3.1-3.2,3.6-.9l-.3.3c.3.4.1.9-.4,1.5.7.7,1.4,1.5,2,2.2v.6c1,.5,1.8,1.2.8,2.1,1.2-.9,3-.9,2.5.9,1.3.6,1.2,1,.4,2,.1.9,0,1.4-.7,1.5l-.8,1.2c-.9.7-1.5,1.4-1,2.5.9.5,1.5,1.1.4,1.7-1.7,0-1.8.5-.8,1.5,1.2,0,1.5,0,.9,1.2.9,0,2.7,1.2,2,1.9,0,0-1.9,0-2.2,0-.1,1.5-.4,2.9-.9,4.3l1.3,3.8c.9,3.8.4,8.1-.2,11.9-.3,2.5-.7,4.4-1.4,6.7-.6,2.2-.9,6.3-1.5,7.8-.3.8-1.2,1.5-1.5,2.5-.4,1.1-.4,2.2-1.1,3.3s-1.6,1.7-2.4,2.9l.3.5c-.8.9-1.5,1.9-1.9,3-1.2,2-2,4.9-2.7,7-.4,2.6-1.2,5.2-2.5,7.5,0,1.6-.3,2.7-.8,4.1.1.2.3.4.2.6-.5,2.6-1.2,5.3-2.1,7.8-.2.9-.4,1.4-1.3.8-1.8-1,0-10.5.7-12.4-.3-1.7-.1-3.3.6-4.7.4-3,1.5-6,3-8.5.6-1.2.9-2.7-.5-3.3-.6.7-1.1.3-1.1-.5-.7.2-1.8-1.5-1.9-2.2-.4-1.5-.7-3.2-.6-4.9-2.2-1.7-1.5-4.7.9-5.6.1-2,.4-3.7,1.6-5.5.5,0,1,0,1.5.2-.2-1.2.6-2.2,2.3-2.8l.3-1.4c1.8-3.2,2.9-6,2.9-9.7.2-2,1.1-3,3.1-2.9,1.5-4.1-1.7-6.3-5.1-7.8-.4.5-1,.4-1.9-.3-1-.4-1.1-1.1-.2-2.2-1.4-.4-2.8-1-4.1-1.7-2.5-.4-1.9-1.6,1.7-3.3-2.6.2-3.4-1.5-1.6-3.3-.7-.6-.3-1.5.5-1.6.4-1.4.7-2.7,1.1-4.1-.2,0-.2-.1,0-.3l.5-1.9c-.2,0-.2-.1,0-.3.1-1.3.6-1.7,1.8-1l1.6-3.5h.7c0-.1,0-.1,0-.1Z"/>
    <path class="st45" d="M318.4,103.5c.4-.3.5-.9,1.1-1.1-.2.3-.1,1.2-1.1,1.1Z"/>
    <path class="st18" d="M119.2,209.4c.1-.1.4-.2.6-.2.8.1,4.5,1.8,4.3,2.9,0,5.1,3.6,6.4,7.7,4,.9-.3,3.1-.6,2.8.9.7.1.7.3,0,.5-.5.6-.5.4-.5-.3-.4-.5-3.4.8-3.6.9,0,1.2-.4,1.9-1.2,2.2,2.1.2,4.2.4,6.3.4,0,.7-.7,1-2.2.9-.6,1.4-1.5,2-2.8,2l-.9.9c-.9.6-4.1.9-4.9,0-.8.2-1.5.2-2.2,0-.1-.4,0-.7.7-.7-2.8-.9-4.2-2.3-.4-3.3-1.5-1.2-1-2.2,1.4-3l-.4-.8c-1.1-.9-1.7-1.7-1.4-3-1.2-.7-2.4-1.3-3.7-1.7-2.1-.4-4.7-1.6-5.7-3.6,0-.5,0-1.1.3-1.6h.7c1.4.9,3,1.5,4.6,2,0,.3,0,.5.3.7h0Z"/>
    <path class="st167" d="M113.3,208.4c.9.2,1.3,1,2.1,1.5.9.6,2.8,1.4,3.8,1.8,1.5.7,2.8.3,3.8,2.2.3.5,0,1.1.3,1.5.1.4.9.5,1.2,1,1.6,2.4-1.7,1.8-2,2.5-.3.6.9.3,1.1.8,0,.4-.3.5-.5.7l-1.6.7c-1.6.2-3.1.1-4.6-.1-.4-.7-2.2.4-2.2-.4s.7-.5.8-.7c1.9-.7,3.7-1.2,5.9-1,.1,0,1.6-2.4,1-2.8-.9-.4-1.6-1.1-.9-2-2.5-1.8-3.9-2-4.1-.4-.4.4-2,1.1-2.4.8-.7,1.4-2.7-.3-1.9-1.4.4-.7,1.2-2.1.3-2.7.8-1-.3-1.1-.3-1.2,0-.4.3-.7.3-.9h0v.2Z"/>
    <path class="st132" d="M112.2,203.5s.3.2.7.3c.7,0,1.8-.3,2.3.3,0,.2,0,.4-.3.6l3.9,1.2c1.7,1.1,2.1,2.3.4,3.6-2.4-.8-3.7-1.2-5.7-2.7-1-.8-2-1.7-3-2.6.2-1.1.9-.7,1.6-.7h0Z"/>
    <path class="st179" d="M113,213.2c.4.4.4,1.7,1.9,1.4.5.4.4.7,0,1.1-.9.7-2.2,1.1-3.6,1.2,1.6.3,1.7,1.1.1,1.7,0,0,0-.3.2,0v.3c.7-.1,1-.1,1.1.5-.5,0-3.8,1-4.1.8-.1-.3.3-1,.3-1.1h-.6c-.3,0-.3-.2-.8-.3,0-.5-.1-1.3,0-1.7,0-.3.6,0,.9-.4.9-.9.5-2,.8-3,1.1,0,3.4-.9,3.8-.5h0Z"/>
    <path class="st100" d="M224.9,115.4c.4.3.3.7-.4,1.2l-4.4,3.1.2.5c1.3.7,1.9,1.5,1.7,2.6.7.3.9.7.8,1.2,1.2,1.1,1.9,2.6,2.1,4.6,1.8.5,2.5,1.3,1.9,2.4.6.9,1.2,1.8,1.7,2.8.1,0,.2,0,.3.3.4,2.6,1.8,5,4.1,7.1l.2.4c.2,0,.2.1,0,.3.4.4.7,1.1.7,1.9.7.2,1.1.5,1.2,1.2,1.4.7,1.2,3,1.1,4.4.7,1,1,2,.5,3.2,2,1.5,2.2,3,.9,4.9.9,3-.3,5.5-1.9,8.1,0,.9-.4,1.5-.9,1.7-1.6,2.2-2.2-.7-1.1-2.2.4-3.3.7-6.2.3-9.6-.2-1.7-1.4-1.8-1.4-3.4,2.2.8.8-.8.7-1.8s-.3-1.4-.3-1.9c0-.7.4-1.4.2-2s-1.2-.7-1.3-1.4.4-1.5.2-2.1c-.1-.5-.9-.7-1.2-1-.4-.5-.5-1.2-.9-1.7-.7-.9-2.7-2.3-3-3.2s-.1-1.7-.3-2.6c-.5-2.3-2.5-4.7-3.6-6.7-.8-1.4-1.3-3.4-2.2-4.9-1.1-1.7-3.5-2.8-.7-5,1.2-.9,3.6-1.5,5-2.4h0Z"/>
    <path class="st126" d="M210.3,86.2c-.4,1-1,2-2,3.1l-.4,2.6c-3.6,3.9,1,3.8,3.3,1.4,2.5-3.7,5.7-4.4,10.1-4.9,3.5-.4,7.9,0,9.9,3.1,0,0,.2-.1.4-.1.7-.1,1.4,2.2,1.5,3,.9-1.2,2.2-.7,3.8,1.5l2.9.2c0-1.1.6-2,1.5-.9.5,0,.7.2.3.5-.3.6-.3,1.2-.5,1.8-.9,2.2-1.6.7-2.9.6-.6,0-1.4.4-1.9.3-.7-.2-.7-2.4-1.7-2.4s-.9,1.8-1.6,1.6c-.8-.3-1.8-2.3-2.5-3-1.3-1.4-3.7-3.6-5.7-3.5-3.7,0-7.6,2-11.2,3.2-.4.1-1,0-1.5.1-1.2.4-2.6,2.5-3.6,2.9-.9.3-1.6-.1-2.8.3.6-1.2,0-1.5-.3-2.3-.2-1.2,0-.9-.6-2l-.4-2.4c-.5-.2-.8-.6-.7-.9.1-.4.5-.7,1.1-.7,1.5-1.2,2.9-2.3,4.4-3.5l.4.4c.3-.3.5-.3.5,0h.3Z"/>
    <path class="st20" d="M224.9,115.4c1.8-.3,1.4-2.2,3.1-2.2s.6.9,1.2,1.2c.5.3,1.4,0,2,.2.4,0,.7.6,1.2.7,1.3.3,2.7-.8,3.8-.2-.1,0-.7.1-1.1.3-.2,1.5-4.8,1.6-3.8-.3-.7-.4-1.6-.2-1.5.8-.8.9-1.7-.2-2-.9-.6.1-1.2.5-1.5,1h-.7c0,0,.1.1.2.3.2.7-2.8,2.4-3.6,2.8-.8.9.4,3,1.3,3.8,1.6.8,2.3,2.3,2.2,4.7,1.5.5,1.7.9,1.9,2.5.7.9.9,1.4,1,2.5.5.7.6,1.2,0,1.5,0,0-.2-.1-.3-.3-.5-.9-1.1-1.8-1.7-2.7.4-1.2-.3-2-2-2.5-.2-2-.9-3.5-2-4.5-.1,0-1.2-.7-1.2-.8-.3-.4.2-.9,0-1.4s-2.2-.9-2-2.2c.1-.7,4.9-3.1,5.4-4.2h0Z"/>
    <path class="st149" d="M245.2,106.7c.1,1.3-1.2,1.2-1.5,1.6-.3.4,0,2.4-.9,3h-.3c-.1-.7.7-1.2.8-1.8,0-.4-.4-1,0-1.5,0,0,1.7-1.2,2-1.4h0Z"/>
    <path class="st144" d="M201.4,105.7c.4.6.4.7-.3.5-.5,0-1.7.2-2-.2-.1-.1,0-3.1.1-3.6,0,0,.4-.4.5-.5,0,.9-.4,3.3-.2,3.6.3.8,1.3.3,1.9.1h0Z"/>
    <path class="st149" d="M248.2,104.9c-.4.4-2,1.2-2.7,1.6,0-.7.6-1,1.1-1.4l1.6-.3h0Z"/>
    <path class="st65" d="M210.6,115.4c-.4,0-.9,0-1.1-.5h.7c.4.1.3.4.4.5h0Z"/>
    <path class="st20" d="M240,113.5c.1-.1,0-.6.5-1.1,0,.5,0,.9-.5,1.1Z"/>
    <path class="st20" d="M239.7,113.8c-.6.5-1.4.6-2.2.5.7-.3,1.4-.5,2.2-.5Z"/>
    <path class="st64" d="M209.2,114.6v.3c-.6,0-.7.1-1.4-.3h1.4Z"/>
    <path class="st52" d="M231.9,151.6h-.3c-.2-.9-.2-.6-.5-1.1v-.5c.2.5.5.4.8,1.6h0Z"/>
    <path class="st20" d="M241.6,111.9l-.8.3c.4-.4.7-.2.8-.3Z"/>
    <path class="st124" d="M337.7,206.1c0,.3-.5,2.3-.7,2.6-.4,1.2-1.1,2-2.3,2.3-1,.2-2.5.2-3.4.4-.7.1-2.3.4-1.8,1.2.6.9,2.5-.5,3-.4.4,0,2.9,1.7,3.1,2,.4.5,0,1.8.1,2.5,0,.4.4.9.5,1.2,0,.4-1.1,1-.7,1.7h-.6c-3.7,0-7.3-.3-10.8-.5h-.7c-.1-.8,0-1.5.4-2.2-1.6-1.7-1.3-5.4,1.5-5.4,1.3.7,1.7.5,1.5-1-3.3-1.5.9-4.2,2.5-2.5-1.4-2.2,1-4.2,2.5-1.9-.1-.5,0-1,.4-1.4-1.1-.9-4.6-5.1-2.5-6.1h0c.2,0,.4-.1.7-.2h.1c.7,0,1.2.4,1.7.9.9,1.8,1.7,2.8.6,0,0,0,0-.1,0-.2,0-.1.2-.2.4-.2,0,0,.8-.3,1.1,0s0,1.2.4,2c.5,1,2.2,1.6,2.6,2.5.2.5.4,2,.4,2.6h0Z"/>
    <path class="st69" d="M312.2,184.3l1.6.8.5-1.1c-.1.7.6,1.1.7,1.5.5,1.6-.6,1.5-.7,1.9-.3.8.9,2.6,1.6,3,.6.2,2.5,0,3,.3.2,0,2.7,2,3.3,2.4.3.2.4.8.6.9.4.3,1.3.1,2.1.8,1.5,1.2,1.6,3.3,4.5,3.4.9,0,1.7-.6,1.9-.6s.9,1.1,2,1.3c0,1.2.8,1.7,1.1,2.7-2.2.3-1.7-.7-2.5-1.9-.9-1.2-2.3-1-2.2.7,0,1.5,3,3.5,3.1,4.4,0,.4-.7.7-.4,1.5.5,1.1,3.6,1.7,2.5,3.3-.8,1.2-1.7-.3-2-.7-.2-.2-.7-.4-.7-.5-.4-.5-.7-2.9-1.8-2.6-1.7.4-.4,1.8-.3,2.7.3,1.9-1.3-.5-1.9-.5s-1.2,1-2,.8c-.3.9.4,1.2.8,1.9,0,.2-.1.2-.3,0-.4.7-.7.5-.5-.3l-.8-.5c-.4.4-.5.2-.3-.3-.7-.2-.8-.7-.4-1.3,1.4-1.7.9-2.6-.4-4.1-.7-.6-.7-1.3.4-1.7-1.1-.8-1.4-1.7-1.1-3-1.7,0-2.8-.6-3.3-1.7-.6.3-.9,0-.8-.5-1.5.1-2.2-.6-2.3-2-.2-.3-1.6-1.6-1.9-1.5-1.1,1.7-3.8-2-3-3.2,1.2-.2,2.4-1.3.6-.5-1.7-.5-1.9-2.2-.7-3.6-.3-.7-.3-1.3,0-1.7-.4-.4-.2-.6.3-.3h0Z"/>
    <path class="st136" d="M305.4,126c.1.5.3,1.1.3,1.9.8,0,.7.9,0,1.1l-.4.9c.2,1.7.4,3.4.4,5.1.8.1.7,1.1,0,1.4.1,1.9,0,3.7-.7,5.5.1,2,0,4.1-.4,6.1,1.1.7,2,2.5.7,3.5.7.7,1,1.5.2,2.2.4.3.4.8.5,1.2,0-.5,0-3.2.1-3.3.2-.1.4-.2.7-.1,0,1.9.3,3.7.5,5.5-.7,1-.4,2.6.5,3.4.2.8.2,1.5,0,2.4.7,0,.9.8.7,2v.9c.9,1.7,1.8,3,2.6,4.9.6,1.3,1.2,2.7,1.6,4.1-.9-1-2.2-.8-3.3-1.6l-.8,2.5c-1.5,0-1.7-3.6,0-3.5-.4-1-.9-2-1.3-3-1.4-.9-2.9-4.2-1.7-5.8-.5-.9-1-1.7-1.5-2.6-2.2-.1-2.3-3.8-.7-5-.9-.8-1.2-1.8.3-2,.1-1-.1-1.7-.7-2.2.2-.7.4-1.2.8-1.9-.9-1.5-.9-2.9,0-4.1-.7-.8-.7-1.7,0-2.8-.8-1.6-.7-2.5.6-2.6-.6-2-.5-4.1,0-6.4-.4-1.6-.4-3,.1-4.3,0-1.4.2-2.4.8-3.3h0Z"/>
    <path class="st135" d="M388.3,211.6c-2.8-.4-6.7-.9-9.7-.8-.4,0-2.5.2-2.5.3-.2.2.3.8-.1,1,0,0-.1,0-.2,0h-1.1c-1.3-.1-.7-.8-.9-1-.4-.4-2.1.3-2.7.2-.2,1,1.5.1.7,1.4-.4.6-1.2,0-1.9,0-1.2,0-2.6.7-3.9.6.6,1.1,2-.5,1.6,1.1-2.7-.6-2.2,1.9-4.1,2.7.8,0,1.7,0,2.5,0,1.2-.1,2.4-.7,3.8-.6,1.1-.4-.2-1.2,0-1.3.3-.4,2-.1,2.4-.4.7-.4,1.2-2,1.3-2.1.7-.4,2-.1,2.9-.3.4,0,.7-.4,1.1-.5,1.3-.2,1.7.4,2.5.4,1.5.2,2.9.4,4.4.4l-.8-1.4c.7,0,1.5,0,2.2,0h.7c0,0,.1,0,.3,0h0c.4.2.5.5.8.7.6.1,1.5-.1,2,.1.4.3.3,1.3,1.1,1.4.7,0,.6-1.4,2.4-.2h.1c.1.1.4,0,.5,0,.9-.3,1.7-.6,2.5-.9q.5-.2,0,0c.6-.2,1.1-.4,1.6-.6-3.1,0-6,.2-9.1-.3h0Z"/>
    <path class="st8" d="M307.3,168.9c1.2.4,1.1,1.9,1.5,2.5.2.3,1,.3,1.2.7.5.8-1.8.3-1.9.4,0,1.3-.2,1.9.5,3,1.1,1.6.9-.1,1.6.1,1,.5.8,2,1.2,2.5,0,.1.6.1.7.5.3.9-.4,1.4-.4,1.9,0,.9.7,2.3.4,3.9,0,0-.2.1-.3.3-.7.6-1-.1-1.2-.9-.7.1-1.2,0-1.5-.4-2.2,1.3-6-.9-1.9-2.2l1.2-.9c.2-1.3.8-1.8,1.8-1.6-1.5-.5-3.3-2.8-3.8-4.5-.2,0-.2-.1,0-.3.1-1.7.3-3.2.5-4.6l.3-.2h0Z"/>
    <path class="st67" d="M352.7,219.2c.7-1.5-1.6-.4-2.2-.6.1-1.3,6.2-1.8,6.5-1.6l-.3,1.1c.9,0,1.8-.4,2.7-.5-2,1.1-4.5,1.2-6.7,1.6h0Z"/>
    <path class="st110" d="M360.2,208.4c1-.2.2,2.2,0,2.7-.6,1.2-1.9,2-3,.9-.4-.4-.1-.2,0-.6.2-.4,2.9-3,3.1-3.1h0Z"/>
    <path class="st135" d="M374.1,209.2c0,.4,0,1.2-.4,1.4-1.2.4-.7-1.5.4-1.4Z"/>
    <path class="st42" d="M393.5,198.6h.8c-.3.4-1.3.4-1.7.3-.6,0-.6-.4-.7-.5h.3c.5-.5,1.1-.4,1.4.3h0Z"/>
    <path class="st154" d="M173.8,237.6c6.4-1.5,12.9-1.9,19.2-.9.1.4,0,.7-.1,1.1-1.8.3-3.6.3-5.2,0-.7.7-2.7,1.1-3.3.3-1.7,1-3.6,1.5-5.5,1.3l-.3.5c-3.6-.2-7.2,0-10.7.6.1.4.1.6-.1.9-.9-.1-1.4-.5-2.2-.8.9-2.2-1.6-1.7-3.1-1.9-.5,0-1.1.3-.9-.6,1-.9,3.6-.6,4.9-.1h1.3c0-.4.1-.4.3-.1.9-.1,1.7-.2,2.6-.1.7-.6,1.9-.7,3.3-.1h-.1Z"/>
    <path class="st71" d="M143.6,236.7c.9,0,1.7,0,2.2-.4,6.7.1,13.4.2,20,.3l.2.7c.4.3.7.3,1.5.1l.2.4c-2,.5-4.2.2-6.2.3h-2.7c-.1.4-.3.4-.5,0-4.5,0-8.9-.2-13.4-.3-1.4,0-3.8.2-4.9,0-.5,0-.4-.5-.6-.6-.7-.1-3.1.2-3.3-.6,2-.3,5.4,0,7.5,0h0Z"/>
    <path class="st141" d="M158.7,238.1c2.2.8-.5,1.3-.5,0h.5Z"/>
    <path class="st121" d="M123,220.5c-.7.5-1.3.9-1.9,1.5.8,1.3,3,.6,3,2.3l-1.4.3c-.5.4-1.1.7-1.7,1,.7,1.9.9,3.3-.7,4.6-2.2-.3-3.8-.7-5.7-1.9-.3-.2-.5-.9-1.3-.8.4-1.9,3.6-.7,2.4-3,.3-.5,1-.6,2.1-.3-.4-.8-.5-1.6-.2-2.4-.7,0-1.2,0-1.4-.5l.5-.3,6.2-.5h0Z"/>
    <path class="st95" d="M122.7,224.6h2.2v.6c-7.5.4,5.6,5.2,7.5,5.3,1.5-.4,2.9-.6,3.3,1.2,1,0,1.5.5,1.4,1.3.7,0,1.1.2,1.2.7-.8,0-1.6,0-2.4,0-.9,0-1.3-.4-1.1-.9-2-.9-3-1.1-5.1-.9l-.3-.6c-3-.4-6-.7-8.9-1.1-.4-.9.7-1.5.8-2,0-1.9-2.2-3.3,1.7-3.6h-.1Z"/>
    <path class="st123" d="M124,232.7c.4-1.3,1.5-.4,1.9-.7.2-.1.1-.7.4-.7.4,0,1.6.6,2.1.6s.1-.7.7-.6c.9.1,6.2.7,6.2,1.5,0,.4-1.3.4.3.9-2.6-.2-2.8-1.7-4.2-1.9-.7-.1-.3.3-.1.6-.9.1-2,0-2.8,0-2,.2-2.4.4-4.5.2h0Z"/>
    <path class="st163" d="M162.2,216.8c-.3-.9.5-1.4,2.5-1.6,1.8-1.7,3.2-1.8,4.1-.6,1.8-.3,3.4,0,4.6.8.9-.5,1.7-.8,2.7-.4-.7-2,1.1-3,2.8-2,2.5,2.5,5.2,3.9,8.7,4.1,2.2,1.5,4,1.5,6.6.8,2.8.7,4.9.8,7.7.1.8,0,1.4.7.8,1.3q0,.1,0,0c0-.1,0-.3.1-.4.4-.7,6,2.5,5.4,4.1,1.2.9.8,4.1-1,4.1,0,.9-.4,1.2-1.1,1.5-1.4,3.2-4.8.9-6.3-1.2h-.4c.9,1.4-2.8,3-3.8,2.8-1.7-.2-3.1-1.5-1.2-2.6l3-.9c-.7-.2-1.1-.7-1.2-1.1-.4-.4-.1-.7.4-.8,3,.5,5.7,0,.5,0-1-.7-1.7-.4-2,.8-1.1.7-1.7,0-1.6-2.3l-2.2-1.1c-1.7-.2-3.2-.7-4.6-1.2-.3-2.1-2.4-1.8-3.8-.9l-.7,3.6c-1.2,1.7-3.5-1.2-2-2.5h-1.4c.8,1.5-.6,2.5-1.8,3.2.6,1.7,0,3.3-1.9,3.3.3,2.1-.9,2.5-3.6,1.5-.2-.3-8.1.7-7.5,1,.8.4,4.9.4,6,.4,1.5-.7,2.6-.6,2.8,1.2,3,.1,3.8.4,2.5,3.4l-.7.2c-1.2.2-2.4.4-3.6.7v1.2c-1.1.1-2.1.3-3.2.4h-.3c-.4,0-1.1,0-1.5,0-.3,0-.1-.5-.1-.6,0-.2.1-.2.3,0,1.2-.3,1.9-.7,1.9-1.1-7.2.5-14.7.4-22.1.1l-1.4-.4c-.1-.6-.5-1-1.1-1.4-1.7-.4-3.6-.7-5.4-.8l-1.9-.3c.7-1.7-.4-.7-1-1.5-.3-.3-.2-1-.8-1.2-.8-.3-1.5.2-2.1.2-.9,0-5.9-1.7-6.9-2.2-.7-.3-3.3-2-3.4-2.5-.4-1.8,2.1-1.2,2.9-1.7,1.1,0,3.5,0,4.4-.3.3-.1.6-.9,1.3-1.2.6-.2,1.3,0,1.6-.2.1,0,.4-1.4,1.1-1.7.8-.4,1.8.1,2.4-.4,1.2-.4,1.3-.8.7-1.9l.2-.3c.1-.2.4-.4.5-.3,2.2.7,3.9-.7,5.1-2.5,1.2-1,4.1-3.2,5.6-2.1,1-.1,2.4-.2,2,1.1v.7l-2.3,1.3c-.4,1.4-1,1.5-2.3,1.1-1.7.2-2.2,1.7-.4,2.1l.2.6c.2-.7.5-.7.8,0,.7-.2.9.2.7,1.3.1.1,2.2,1.6,2.6,1.2.6.8,1.5.7,2.6-.2,2,.8,1.3,1.7-1.9,2.8.6.8,6.2,2.8,7.4,2l3-1.5c-.1-2,1.7-1.5,2.7-.7h1.3c0-2.3,3.8-.9,3.8.9-.7.9,2.1-.1,2.5-.4.7-1.4,2-2.1,4.1-2.2l-.3-1.5c-3,.2-3-3,.2-1.8,4.6.4.4-2.2-.2-1.7-.9,1.8-6.4,1.9-3.6-.8,0,0-.8-1.9-1.2-1.9-2.1.5-4.3.8-6.5,1.2l-.7-.4h0Z"/>
    <path class="st79" d="M143.6,234.6c.5,0,1.1,0,1.6,0l-.3,1.1c3.4.4,7,.4,10.5.5,3.8,0,9.4-.7,12.8,0,.3.4-.2.7-1.5.9l-.4.2h-.3c-.7-.6-16.1-.2-18.5-.3-1.3,0-2.8-.2-3.9-.3l2.2-.3c-.8,0-5.2-.2-5.4-.7,0-.1,0-.7.1-.7,1.2.4,2.3-.4,3-.5h0Z"/>
    <path class="st17" d="M397.9,201.1c-.4-2.1,1.7-2,2.2-.9.2.6-1.3.7-1.1,1.5l1.9-.5c.2.4.9.1.8,1.5,0,.9-.9,0-1.3,0-.4,0-.9.3-1.4,0-.2,0-1-1.3-1.1-1.5h0Z"/>
    <path class="st128" d="M392.2,198.4c-1.5-.7-1.7-2.8-.8-3.9.1-.2.6,0,.7-.2.3-.2.4-.9.8-.9s.6.4.9.4c.4,0,.9,0,1.1,0,0,0,.6,1.7.7,2.1.2.4.9.7.9,1,.1.9-2.4,1.3-3,1.7-.5,0-.9,0-1.4-.3h0Z"/>
    <path class="st78" d="M201.4,188.7c1.9,0,3.8.1,5.5.6.7.7,1.5.9,2.5.6,1.3.7,1.6.5,2.3-.7.4-.2,4.8-1.1,5.2-.9,1.1,1.7,2.1.9,3.5-.2.7-1.7,2.2-2.1,3.3-.4,1.9-.4,3.8-1.2,5.5-2.5,1.2-.5,1.6.4,1.2,1.5.7,1.3,2.4.4,3-.7.8-.1,1.6-.4,2.3-.7-2.6-1.2-1.6-3.7,1.1-3.6,3.3.1,1.6,3.6,0,5,1,3.3,2.6,2.8,5.2,1.6,2.6.6,1.6,2.5-.7,2.3.8.7,1.6,1.4,2.4,2-.7,1-1.6,2-2.7,2.8-1.1.8-1.2,1.4-.1,1.7,2.6.7,3.5,1.7,4.1,4.3,3,2.2.9,3.6-1.7,4.7-1.7.7-4.1,0-5.1-1.5-.1.7-.7,1.1-1.5,1.3-.5,1.5-1.5,2-3,1.5,0,1-.3,2-.6,3,.4,1.2.1,2-1.1,2.5-2.8.3-3.6,1.7-2.5,4.4,1.7,2.6.2,5.5-2,7.3l.6.8c1.2.5,3.1,2.1,1.2,2.9-1.5.2-8.8,1.5-3,1,.4.4.7.7,1.1,1,2.2-.4,5.2-.7,2.2,2,.7,1.7-.4,2.5-2.1,1.8-.7.7-1,1.7-1.1,3-1.3.9-1.2,1.4.6,1.5,1.2.9,1,3.1-.8,2.6-1.4,2-3,.9-4.3-.4-3.7-.7-5.7-1.7-2.6-5.2v-2c-2.6,1.4-3.6-1.2-.9-2.2v-.4c-3.8-.9-4.6-1.9-2.5-2.8,2.1-.1,4.1-.6,5.9-1.5-.9-.6-.9-1.5,0-2.8-.9-2.9-4.3-3.1-6.8-2-1.5.7-1.6,1.2-1.1,3,1.2,1.5,1.2,2.5-.1,3.2.4.8.4,1.7,0,2.7,1.2.6,1.5,3,.5,3.7-.9.6-6.2-1-6.8-1.7-.8-1-.7-2.8.7-3.2l1.4-1.6c-.7-1.8.4-2.7,2.1-3-1.6-1.2-3-2.6-4.4-4.1-1-.7-4.6-3-5.4-3-2.3.7-4.8.7-7.3,0-2.7.7-4.5.8-6.7-.9.3-1.3.2-1.8-.2-1.5-2.7,2.3-6.5-.6-8.6-2.6-1.2-.7-2.1-.1-2.8.8-1.8,1.1-6.4,1.2-7.8-.7h-.6c-1.5,2.3-7.1,4.1-3.3-.4,0-1.2.2-2,1.2-2.8l2-1.8-4.3,2.2c-1.2.4-1.8.4-2.8-.5-.9,1.7-2.6,1.5-1.9-.5-2.5,1.2-3.6,1-3.6-.6-4.1,1.5-2.5-2.2.5-2.7v-1.3c2.6-2.4,5.7-4.1,9.1-5.3.5-1-2-.7-2.4-.1-2.8,2.1-5.8,4-8.9,5.7-.6.7-1.1,1.3-1.6,2-2.2.6-4.1,1.6-5.6,3,2.9-1.6,5.1,0,1.7,2-2.7,1.2-4.9,2.9-6.4,5.2-1.2.9-3.6,2.7-4.2.7-1.2,0-2-.1-2.5-.8-.1,0-.4-.4-.7-.5-2.5-.6-4.6,2.2-7.3,1.2-.6-.2-2.3-2-2.5-2.5-.4-.9-.1-3-.7-3.7-.5-.6-3.3-1.1-4-2-.8-1,.5-.7.6-1.5,0-.5-.6-1.2-.9-1.5-.8-.5-5.2-1.5-5.6-1.9-.8-.7,1.6-.5,1.9-.5h1.4l3.3.5c1.1.3,1.4.6,2.1,1.4,2,1.1,3.6,2.6,6,3.8.6-.7,2.4.6,2.4,1.4,1.6.6,5.4,3,7,2,.3-.1.4-.8.8-1.1,1.7-1.3,1.9-1.5,3.3-3.2,0,0,1.3-.8.1-1-.3,0-2.3,1.2-2.5,1.1.9-1.7,2.6-2.9,4.1-4.2.6-.5,1.1-1.2,1.9-1.7,1.6-1.2,3.5-1.9,5.2-3h.3c.6-.2,1.2-.5,1.9-.8,5.2-1.3,8.2-3.9,12.6-6.5,3.4-1.9,6.7-2.2,10.4-3l4.1-.6c2.9-1.1,5.7-1.3,8.5-.7l-.2-.7c.4-.6,11.5.3,13.6.7v.3h.1-.3Z"/>
    <path class="st51" d="M249,229.4c2.1,1.2,1.7,2.2-.1,3.3.1,1.7-1,2.7-3.5,2.8,4.8,2.5,2.5,5.4-1.8,5.6,2.1,1.5,1.2,3-.9,3.6,1,0,1.7.6,1.2,1.6-4.3.9-8.4.8-12.7.2-.6.4-3,.1-3.6-.1l-.7-.7-11.2-1.2h0v-.3c0-.1-.3-.2-.5-.3h-.4c-1.1-.1-2.4-.1-3.5-.3,0,.2-.1.2-.3,0h-.2l-.8-.2c0,.2-.1.2-.3,0h-.7c0-.1-1.7-.5-1.7-.5h-.4c-.4.7-1.5.1-1.6-.7h-.4c-.7,0-1.1-.2-1.4-.3-1-.5.6-1.2,2.6-.9,2.2.4,4.1.7,6.4.3,1.4.4,2.8.7,4.1,1,1.8.4,3.6.7,5.4.9l-2.8-.8c-.3-.1-.6-.2-.9-.4-6.4-2.5-12.7-4.5-19.7-3l-.8-.4c-2.8.5-5.6.9-8.3,1.4-1.6,1-4.5,1.4-6.2.5h-.4l-1,.2h-.6s0,0-.1,0c-.9.3-3,.3-2.7-.7,0-.1.1-.3.3-.4h.7c.5,0,1,0,1.5,0h0c.4,0,.8,0,1.2-.1,0,0,0,0,.1-.1.4-.4,1.6-.8,2-.9.9-.1,1.9-.1,2.5-.3.2,0,0-.6.6-.6s1.1.4,1.6.3c1.2,0,2.6-.4,4-.4l-7-.7c-4.1.5-8.1.9-12.3,1.1-.9,0-1.6,0-2-.4h0c-.2-.2-.3-.6-.1-1,0,0,0-.1.1-.3h2.8v-.3c0,0,.7-2.7.7-2.7-.9-.6-2.9.1-3.3-.8-.1-.3.4-.8-.5-1.2-.5-.2-1,.4-1.7.4-1.7,0-4.2,0-6-.3-.5,0-.7-.3-.7-.5,0-.4.7-.8,1.3-.9.9-.2,4-.5,5.6-.7h.7c1.2,0,2.3.9,3.6.6,0-.5,0-.9,0-1.2,0-1.2.9-.5,1.7-1.1,1.2-.9,0-2.5,0-2.6,0-.1,1.7-.7,2.3-1.9.2-.5-1.7-1.7,1.4-1.7.3,0,1.4.1,1.5.3.5.6-.9.7-1,.9-.4.7.3,2.2,1.3,1.9.1-.8.4-3.5.8-3.9.5-.7,2.2-1,3-.9,1.8.4,1.4,1.7,1.7,1.9.4.2,3.6.7,4.4.9.5.1,2,.9,2.3,1.2.9.8-.8,2.3,1.2,2.7,0,0,0-.1,0-.3h0c.2-.4.6-.4.9,0,0,0,0,.1.1.3,1.5.5,2,.9,1.8,1.2-.2.7-3.6,1-4,1.5-.6.9,1.5,1.5,2.2,1.3.5,0,.7-.5,1.2-.7,1.2-.6,1.9.2,1.2-2.1h0c0-.1,1.4,0,1.4,0h0l2.5,2.5c.4.1,2.2.1,2.5,0,.3-.1.3-.8.5-1.1s.8-.4.9-.7v-.2c0-.2-.1-.4,0-.6.3-.4,1.1-.1,1.4-.5.1-.1.4-2,.4-2.2s-.5-.5-.7-.7c-.1-.4,0-.9-.3-1.3-.5-1-3.6-2.8-4.7-2.7-.1-.1-.3-.7-.7-.7-.8-.1-3.3.4-4.3.4s-2.6-.7-3.6-.8c-1.1,0-2.6.6-3.7.5-1,0-2.1-.9-3.1-1.2-1.1-.3-2.4-.1-3.6-.5-.9-.3-1.5-1.4-2.6-.9-.1,0-.4,1-1.5.7-1.5-.4.7-1.3,1.5-1.2-1.3-2.2-6-4.6-4.1.1-.7,0-1.1-.5-1.7-.6-.9,0-1.4.6-1.9.6s-.7-.7-1.3-.8c-.9-.2-2.2.1-3.3,0-.8-.1-1-1.1-1.6-1-.6,0-1.8,1.1-2.4,1.4-.9.4-2.1.3-2.6,1.3,0,.1-.1.1-.3,0-3.9,1.2-2.2-.9-.4-2.6l-.3-1.2c1-1.9.2-2-2.4-.5-2.5.5-5,1.2-7.4,2.1.1.8-1.3,1-1.6.3-.9-1.1-1.2-.5-2-.6-.4,0-.7-.5-1-.4-.2,0-3.8,1.9-4.1,2.2-.6.5-.6,1-.9,1.5-.3.4-3.5,1.7-4,1.7-.7,0-.7-.3-1.2-.5-.3.1-.7,0-1.4-.5-.6.5-.9.1-.5-.6v-.5c.9.1,2.1.1,2.8.3.5.1,0,.9.6,1,2.1.4,4-3.5,5.4-4.6.5-.4,6-3.1,5.5-3.8-1-.7-2.7.7-3.4.5-1.5-.3,1.7-2.4,2-2.6,1.1-.7,3-1,3.7-1.5.6-.4.6-1.2,1.2-1.7,1.3-1.2,4.9-2.8,6.6-4,1.4-.9,3.1-2.9,4.9-2.6.8.1,1.7.7,1,1.5-.3.4-2.3.9-3,1.3-1.1.6-5.6,2.9-5.9,3.8-.1.4,0,1-.2,1.5-.3.5-1.9.4-2.6,1.5-1.3,2,1.6,0,2.2.4v1.6c1.5-.7,4.9-2.3,3.3.5.9.4,1.1-.9,1.5-1.1.7-.2.9.7,1.5.7,1.9,0,3.8-1.7,5.2-2.3,1.1-.4,2.6-.6,1.2.6-.8.7-2.7,2.2-3.2,3-.3.4,0,.9-.1,1.5-.3.9-1.5,1.5-1.5,2.5.4.3,2.7-1,3-1.4s.7-1.3.9-1.4c1.4-.4,1.7,1.2,2.8,1.5.4,0,4.4,0,4.7,0,.9-.4,1.6-1.7,2.9-1.7s1.8,1.2,2.8,2c.9.7,3.8,1.9,4.9,1.7,1,0,1.7-2,2.8-.4,0,.3-.8.9-.5,1.2,0,.1,2.5,1.2,2.6,1.3,1.7.4,2.4-.4,3.7-.5,1.4,0,3.3.6,4.6.6s2.5-1,3.6-.6c1.7,1.3,3.7,2.2,5.4,3.6.5.4.7,1,1.2,1.5.9.7,2.4,1.1,2.8,2.3.4,1.2-1.9.6-2.2,2.1-.2.9.6.7,1,1,.1,0,.2.2.3.4-2.1-.4-1.7,2-3.8,2.3.4,2.9.7,2,2.5,2.6.8.3,3.8,1.8,4.3.6.5-1.3-1.2-.1-1.9-.3-1.5-.4-.6-2.2.9-1.7.3,0,.6,1.3.9.8.5-.7-.9-1.1-.9-1.6-.1-.9,1.2-2-.4-2.9h0c2.8-1.5.9-1.6.6-3,0-.4-.1-2.7,0-3,.3-.6,4.2-1.5,4.9-1.4.9,0,3.3,1.4,3.8,2.2.9,1.6-.6,2.2-.4,3,.1.5,1.4.5,1.1,1.5-1.2-.4-1.8.5-2.6.7-1.2.3-2.4.2-3.5.4-.5,0-.9.3-1.4.6,0,.6,3,.5,3.6,1.5.8,1.4-.7,1.1-1.1,1.6-.7,1.1,0,1.2.9.9.9-.4,1.2-.9,2.5-.4,0,.6-.9.1-1.1.3,0,0,0,2,0,2.5-.1.5-1.7,2-1.5,2.8.2,1.2,3,1.4,3.7,1.7.4.1.7.4.9.7.6.6,1.1,1.2,2.2.7.7-.3.4-1.3,2-.7.1-.7,0-1.1,0-1.4-.3-.7-1.2-.4-1.8-.8-1-.7.5-1.4.7-1.6.4-.7.2-3.4,1.6-3.5.5,0,1.2.6,1.6,0,.2-.4,0-.7,0-1.1,0-.1,0-.3,0-.4,0-.4,1.6-.9,1.3-1.8-.8.1-2.3.7-3,.5-.9-.1-1-1-1.2-1-.4,0-2.1.7-2.5,0,0-.1,0-.9,0-1,.2-.2,5.7-.8,6-1.1.6-.8-1.5-1.7-1.7-1.9-.5-.4-.6-1.4-1.5-1.4,0-.5.7-.2,1.1-.4,0,0,1.3-1.3,1.4-1.4.7-.9,1.2-2.3,1.1-3.5,0-.7-.6-1.1-.7-1.7,0-.4-.6-3-.6-3.1.4-1.9,3.6-1.4,4.1-2.6.2-.4-.1-.9,0-1.4.1-1.2.8-2.2.4-3.5.8-.1,1.6.4,2.3,0,.7-.4.6-1,1-1.5.4-.3,1.2-.4,1.5-.9-3.5-1-3.7-1-3.3-4.7,1.6-.3.7,1.5,1.4,2,.4.4,2,.4,2.5,1,.4.7,0,1.4.5,1.9.4.4,2.7,1.3,3.3,1.2.6,0,3.6-2,3.7-2.2.2-.7-1.1-1.4-1.5-2-.5-.8-.5-2.1-1.2-2.8s-3-.8-3.8-2.2c-.1-.9,3-3.4,3.8-4-.5-.2-3.5-1.9-2.2-2.5.5-.3,2,0,2-.7-.9-1.5-2.5.1-3.2.4-.5.1-1.8-.5-2.5-.2.9,4.1-4.1.9-1.7-.6.7-.4,1.4.1,1.5,0,.4-.4-.9-1.6-.8-2.2,0-1.2,2.1-1.7,1.9-3.6-.1-1.6-3.3-.9-3.5,0-.3,1.1,2,1.3,1.5,2.2-.4.7-1.9.6-2.6.9-.5.3-.3.9-1.3,1.2-1,.2-2.2.3-2.5-.9,0-.5.7-1.3-.1-1.2-1.5.8-3.3,2-5,2.5-.5.1-1.3,0-1.6.2-.1,0-.3.9-.7.9-.1,0-.9-.2-.7-.6.2-.4,1.5-.4,1.4-1.1-1.6-1.3-1.7.4-2.2.9-.4.4-1.8,1.3-2.2,1.4-1.3.2-1.3-.9-2-1.2-.9-.4-1.1.3-1.7.4-.7.1-1.6-.1-2.2.1-.6.3-.8,1.7-2,1.7s-.8-.4-1.2-.4c-.5,0-1,.3-1.5.1-.6-.1-1.2-1.3-2.8-1.5-1.4-.1-2.5.6-3.6-.4,0-.4.3-.3.5,0h0c.4,0,.9-.3,1.3-.3,3.7.1,4.3,1,8.6.3l.4-.7,4.4-1.1.7.4c2.2-.7,4.2-1.8,6-3.3.4-1,.9-1.4,1.6-1.1.1-.4.4-.7.8-.6.8-1.7,1.7-.9,2.8,0,1.2-.7,2.5-1.2,3.9-1.2,0-.5.1-.9.7-1.1,2.2-.1,4.4-.6,6.6-1.2,2.8-.6,5.4,4.1,1.2,3.5,1,1.1,1.6,2.2,1.9,3.7,1.2-.1,2.1,0,3,.8,2.7-.3,2,1.3.9,2.8v2.5c-1.2.2-1.5.7-1.1,1.6-.8.7-.9,1.5-.3,2.3-.6,1.4-.1,2.8,1.2,4v.2c.7,0,.9.8.2,1.1l.5.4c.2,1.5.9,2.8,2,4,.2.5.1.9-.3,1.5,1.7,1.1,2.5,4-.3,3.3l.4.9c1.2,1.6,2.3,3.9-.4,4.3-.7.4-.9.9-1.2,1.6-.7,1.7-2.9,8.3-.1,9,2.6-.4,4.9,1,1.6,2.8h0l-.3-.2Z"/>
    <path class="st22" d="M152.2,199.2c-.4.5-1.2.7-1.9.8v-.3c.4,0,1.3-.4,1.9-.5h0Z"/>
    <path class="st168" d="M312.8,63.3c.5,0,1.4.1,1.9.3l2.4,1.2c4.1,2.6,3.6,4.7-.7,6.9.9,3.9-.7,7.5-3,10.6-.5,2.2-1.7,3.3-3.6,4.2-.9,1.5-1.5,3.2-1.7,5.2-.7,2.2-3.7,3.3-4.9,1.1-.4.8-.9,1-1.3.5-.7-.5-.6-1.7-.3-2.4-.3-.7,0-2.2.8-2.4l.2-.6c2.3,1.2,2.9.7,4.3-1.7-.7-3,.7-3.6,3.4-3.6.3-2,1.2-3.8,2.7-5.5.6-.7.8-1.6.7-2.5l-.2-4.5c1.1-3,1.2-4.6-1.1-6.8,0-.4,0-.4.5,0h0Z"/>
    <path class="st50" d="M314.6,63.5c3.6.7,6.3,2.8,6,6.9-.2,2.1-1,1.2-2.2,1.6-1.5.4-1.3,4.9-1.6,6.2-.4,2-1.8,4-2.5,5.8-.2.4,0,1-.4,1.5-.4.7-2,.9-2.2,1.5-.4.7,1,2.5-1.7,1.1,0,.9-.9,1.9-1,2.6-.2,1.1.3,2.6-.7,3.3-.4.2-.9.2-1.2.4-.3.2-.7,2.2-.6,2.7.1.9,1.1.7,1.3,1.7.3,1.5,0,3.4,0,4.9-.7-.6-1.2-1.4-1.4-2.4-.4.1-.6-.4-.5-.8-.1-.1-.3-.4-.3-.8-.7-1.5-1.3-3-1.9-4.4l-.6-.3c-.4-1.7-.2,1.4.3,2,0,2.6-1.9,4.5-2,.4-1-1.2-1.2-3.4.3-4.1.7-.1.9-1.2,1.2-1.4.5-.2.5.8.8,1.1.8.8,2.4.4,3.1-.4,1.1-1.1.9-4.6,2.2-6.2.7-.9,2.2-1,3-2.3.4-.7.4-1.5.9-2.1,2.4-4,2.8-3.6,3.1-8.8,0-.5-.4-1.2-.3-1.6.3-1.1,3.6-1,3.5-3.8,0-1.5-3.6-3-4.6-4.2h0Z"/>
    <path class="st151" d="M310.6,106.5c.3.1.7-.1,1.1.4,1.2,1.7-1.2,4.4-1.8,6-.4,1.2-1.8,6.1-1.9,7.3,0,.9.3,1.5.2,2.3-.3,3-1.8,5.7-1.6,9.2,0,1,.3,4.8,1.6,2.8v1.4c-.4,3-.7,6.2-.3,9.2.3.3.4.8,0,1.1,0,1.9-.4,3.6-1.1,5.2-.7.8,0,6-.3,6.2h-.8c0-1-.1-2-.4-3,0-.4-.4-.7-.4-.9s.5-.7.4-1c0-.4-.8-.9-.7-1.4,0-.4.9-.6.8-1.4,0-.6-.7-.7-.8-2,0-1.2.2-2.4.7-3.5-.4-2-.3-3.9.4-5.9v-2.2c0-.7,0-.8,0-1.4-.2-1.8-.4-3.8-.4-5.6l.4-.4v-1.1c-.1-1.8.1-3.6.8-5.4-.6-1.8-.2-2.7.9-4.1.4-1.7.9-3.5,1.5-5.2.4-1.5,1-3,1.7-4.6-.1-.8-.1-1.5,0-2.1h0Z"/>
    <path class="st50" d="M308.4,52.7c-.9,2.6-.7,2.8,2.3,2.7,1.1,1.1-4.2,2.5-3.3,3.3,1.2-.2,2.1.7,3.1,1.1.9.4,3,.1,2.5,1.7-.2.7-1.2.6-.2,1.8h-.5c-.3,0-.6-.2-.8-.5-1.7-2.1-4.2-2.5-6.7-2.8h-5.1c-3.6-.7-.9-3.1,1.6-3l4.6-2.5c.9-.4,1.9-.9,2.7-1.6h-.1Z"/>
    <path class="st62" d="M307.6,103.8c.4.5,1.5,1.8,1.9,2.2.6.9.9,2,1,3.1-.5,1.4-1.2,2.8-1.8,4.1-.4,2.5-.9,4.9-2.3,6.9v1.8c.4.6.2,2.1-.7,1.6h-.4c0-2.2.4-4.2,1.2-6.2l-.3-.2c1.7-3.7,2.4-7.4,2.2-11.1l-.3-.6c-1.6-.5-2.1-2.6-1.9-4.1.4.9.8,1.7,1.4,2.4h0Z"/>
    <path class="st93" d="M310.6,106.5c2,2.2-1,4.4-1.6,6.7,0,.2-.1.2-.3,0,.2-.8,1.3-3.7,1.3-4.2s-.9-2-.4-3c.4.4.7.4,1.1.5h0Z"/>
    <path class="st40" d="M309,51.1c.3-1.3.1-3.1,1.1-4.1-.2,1.2-.2,3.2-1.1,4.1Z"/>
    <path class="st40" d="M310.1,46.7v-.5c-.2,0-.2-.1,0-.3,0-.3.4-.8.5-1.1,0,.7,0,1.4-.5,1.9h0Z"/>
    <path class="st170" d="M308.1,137.3c0,1.1-.2,2.3-.3,3.5.3,1.4.2,2.9,0,4.4-.4-.3-.3-1-.3-1.5,0-2.5-.3-5.4.6-7.7v1.4h0Z"/>
    <path class="st98" d="M308.1,144c0,1.2.6,2.4-.3,3.5-.1-.4-.1-.9,0-1.4v-5.4c.7,1,.3,2.2.3,3.3h0Z"/>
    <path class="st59" d="M246.8,201.6c.9-1,1.2.7,1.2,1.5l.9,2c.2,0,.4,0,.4,0,.3.4,2.2,3.6,2.5,4.2.6,1.7.1,3.8-.8,5.4l.4,1.6c.9.5.4,2.8,0,3.6-.6.2-2.3,3.1-2.3,3.3,0,.4,1.2,2.5,2,2.5,2.3,2.4.5,1.5.6,3.1,0,.7,1.4.9.6,2.2-.3.5-1.1.5-1.2,1.2-.2.9.1,1.3.1,2s-.4,1.3-.3,1.9c0,.3,1.2.2,1.4.9,0,0-.4,1.4-.4,1.5-.3.4-1.1.6-1.2,1-.1.7.6,3.3.3,3.7-.2.3-.9.1-1.3.4-.5.2-.6.7-.9,1-.2.2-.7.1-.8.1-.3.3.7,1.4.5,1.9-1.5-.4-1.5.4-2.1.7-.4.2-9.3.9-9.8.7-1.5-.4-1.5-.5-3.3-.7-1.5.4-2.2.1-2.2-.8,1.4-1.1,2.8-.2,4.3,0,1.6.1,2.8,0,4.3-.1,1.3-.1,2.6-.4,3.9-.3,0-1.5-1.9,0-1.9-1.6,1.6-.3,3.8-1.2,1.7-2.7-.7-.4-1.8-.4-1.7-1.1,1.7.1,5.5,0,5.9-2.1.2-1.2-2.4-2-2.9-2.9.4-1.1,3.3-.9,3.5-1.2.1-.3,0-1.2.2-1.8.4-.9,2.3-.7,1.2-2.1-.2-.3-1.8-.6-1.4-1.2,0-.1,2.8-.9,1.6-1.9-.7-.5-3.7.9-4.1-2.2-.4-2.8,0-3.3.9-5.6.4-1.3.3-2.9,1.7-3.9.9-.7,2.2,0,1.6-1.6-.2-.6-2.6-3.5-1.3-3.8.4,0,1.3.6,1.5-.1.3-1.4-1.5-2-1.6-2.5s.7-1.2.7-1.6-.8-.7-1-1.1c-.7-1.1-1.2-2.2-1.4-3.4h0Z"/>
    <path class="st3" d="M231.1,246.5c-.6.4-3,.1-3.6-.1l-.7-.7-11.2-1.2h0v-.2h-.1l-.9-.4h.4c2.6.3,11.8,1.2,12.3,1.5.2.1.1.6.4.7,1.1.3,1.7-.2,3.3.5h0Z"/>
    <path class="st88" d="M323,40.5c0,.4,0,1.4.3,1.7.2.4,1.2-.2.8,1.2-.7-.9-.9-.7-1-.9-.1-.1,0-.7,0-.8-.4-.7-.9.2,0-1.3h0Z"/>
    <path class="st132" d="M116.5,204.1c1.8,0,3.6,0,5.4-.3-.7.8-.7,1.4,0,2.2-1.5-.8-3.8-1.3-5.4-1.9Z"/>
    <path class="st131" d="M134.1,217.3c-1.5,1.7-.6,3.3,1.8,2.5-.6-.6-.8-1.2-.7-1.7.5,0,.9.4,1.4.5l.8,1.9c-.6.1-1,.2-1.6.3-1.5,0-3.3.4-4.4.5-.1,0-2.5-.4-2.6-.4-.7-.7.9-.9,1-1.2.3-.4.1-1.6.5-1.9.3-.1,2.9-1,3.3-1s.5.4.7.5h0Z"/>
    <path class="st60" d="M134.1,217.3c.1,0,.4.1.5.3,0,0,.4.4.5.5.7.7,1.4,1.1,1.4,2.2-.7.4-2.7.4-3.3-.1-.5-.4-.8-3.3.8-2.8h0Z"/>
    <path class="st77" d="M114.9,214.6c.3,0,.6-.5.8-.7.3-.1.9,0,1-.2.3-.3-.2-1.8,2-1.5.6,0,1.5.9,2.1,1.2.4.2,1.5.4,1.6.4.6.5-.9.6-.8,1.2.2.9,2,.3,1.2,2.5,0,.2-1.1,1.8-1.2,1.9-.7.4-2.3,0-3,.1-.9.1-2.2,1.4-3.2.5,1.2-1.4-1.7-.7-2.7-.5l-1.9-.3v-.3c.3,0,.6-.1.8-.3.3-.7.8-.9,1.6-1,1.9.6,5.7-1.3,2.1-1.5l-.4-.4c-.3-.4-.3-.7,0-1.1h0Z"/>
    <path class="st167" d="M114.9,215.7c.3,0,.7-.3.9-.2.6,0,2.7,1.5,2.3,1.9-1.1-.4-1.6.7-2.3.8-1.5.3-2.4-.3-4.2.6-1.5,0,.8-.5.3-1.1-.2-.2-2.5-.1-1.9-.8.6-.6,3.4-.6,4.2-1.2.2,0,.5.1.7.1h0Z"/>
    <path class="st16" d="M201.9,87.3c-.4-1.2,1.8-1.2,1.5.3,1.2.3,1.3,1.1.4,2.4.3.3.9.3,1,.7.2.7,0,1.8,0,2.5-.4-.7-.4-1.7-.7-2.1-.8-1.1-2.3.3-1-2.4-.1-.4-1-.4-1.1-.4-.2-.1.9-1.3-.3-1.1h.1Z"/>
    <path class="st61" d="M233,141.9c.7-.5,1,0,1.1,1.4l.6.5c.4-.7.9-.4,1.1.4,2-.2,1.7,1.7,1.2,3.2,1.4,1,2,2.3,2,3.8,1.1.8,1.2,2.2.1,4.1,0,.7.4,1.2,1.2,1.9,2.2-1.2,3.3.2,3.2,4.3.4.4.1,1-.8,1.6.1,1.5-.5,3.1-2,3.5,0,.6.3.9.8.7,1.3.5.4,2-.2,2.8l-.7,2.5c1.7.3,2.8,1,3.6,2,1.6.7,1.6,1.9,0,3.6l.3,1.1c1.2.6,2,2,2.2,3.3,1.2,0,2,.4,2,1.7.5,0,.7,0,.7.7,0,1.2-2.5,1.9-3.3,1.1-1.1-.4-1.5-3.3-1.1-4.4-1.7-1.1-4.3-3-2.1-4.9.4-.6.1-1.1-.7-1.6-.4.3-.9.1-1.7-.2-1.8,1.2-5.2-.2-2.7-2.1l-.7-2.6c-2,.9-2.8.8-2.5-.4-.8-.9-.1-1.5,0-2.5.4-2.9.7-1.9,1.5-4,.1-.4,1-2.8,1.1-2.9.1-.9-.8-2.2-.1-3.7.1-.3.5-.3.6-.6.8-1.9-1.7-3.2-1.7-3.3,0-.4.3-1,.3-1.5,0-.8-.7-1.4-.8-1.9,0-.7.4-1.2.1-2.1-.4-2.2-2.4-2.9-2.6-5.4h0Z"/>
    <path class="st61" d="M232.7,140.8c.2-.1.3,0,.3.3.3.3.3.5,0,.5-1.7-1.1-2.4-2.8-3.5-4.4-1.3-1.7-.6-1.2-.8-3.2,0-.2.1-.2.3,0,.7,2.2,2,4.1,3.5,5.7l.4,1h-.1Z"/>
    <path class="st61" d="M222.8,124.1c0,0,.6-.1.8,0,0,0,1.2,2.3,1.2,2.5.2.7-.1,1.5.1,1.9s1.4.1,1.9.9c.4.6.4,1.7.7,2.3s1.2,1.2,1,2.1c-.3-.4-2.1-2.5-2.1-2.6-.1-.6.6-.9.5-1.3,0-.5-1.6-.4-2-.9-.4-.5-.9-2.8-1.3-3.6-.2-.4-.7-.7-.7-1.3h0Z"/>
    <path class="st20" d="M233,141.1c1.7,0,2,1.2,1.6,2.7h-.8c-.2-.3.6-1.8-.8-1.9v-.8h0Z"/>
    <path class="st172" d="M206.3,78.4c-.7-.7-.8-1.2.3-1.6.9.2,3.5.3,2.8-.7-1-.9-4.6-4.6-2-5.2.9-.2,2.2,1.3,2.8,2l1.4-1.2c.7-.4,1.3-.7,1.5.2.5.1.7,1.2.3,1.6.4,0,.7-.2.9-.7.2-.1,2.8,1.2,2.8,1.4.7.9-3,4.9-4.3,4.6,0,.7-.2,1.3-.7,1.9,1.8,2-.7,4.4-2.3,5.6-2.1.6-3.5,4.1-6,3.8-.7-.8.3-1.4.3-1.5,0-.3-1.1-.4-1.2-.7s.3-.7.1-.8c-.3-.3-.9.2-1.1.3h-.5l-2.4.8c-.4-1.7-2-2-3.6-1.6,0,.2-.1.2-.3,0-.2-.5-.6-.6,0-.9.9-.4,1.9-.5,2.8-.7.3,0,.9-.1.4-.6-.1-.1-1.7-.1-2-.5-.3-.4.3-1,0-1.2-.5-.3-2.6.2-2-.9.8-1.6,3.7-.4,5.2-.3,1.2,0,4.4.2,5.4,0,.4,0,0-.8.3-.9.7-.1,1.3.3,1.9.3s1.3-.7,2-.5c.7-.6-2.5-1.8-2.7-1.9h0Z"/>
    <path class="st130" d="M210.9,85.7c0,.9.1,1.9.2,3l5.2-.4c2.6-1.4,6-1.2,8.9-.8,0,0,.1.1.2.4l4.9,1c.7.3,1.3.7.8,1.4.9.9.9,1.4,0,1.4,0,0-.5,0-.8-.1-.4-.2-.4-.9-1.2-1.3-4.4-2.4-7.6-1.2-12.2-.4-4.1.7-4.3,4.2-7.7,5.5-2,.7-3.6.4-2.9-2.1.1-.5.9-.9,1.2-1.5.2-.7,0-1.5.2-2.2.4-1.3,1.7-2.4,2.6-3.2,0-.4,0-.7.5-.5h0Z"/>
    <path class="st138" d="M223.8,71.3v.4c-1.3,2.3-3.3,3.6-5.5,4.9-2,2.8-4.1,5.4-6.4,7.9.1.2,0,.3-.3.3-.2.5-.5.8-.8.8l-.5.5h-.5c.8-1.3,2.8-2.8,2.4-4.4,0-.5-.7-.9-.7-1.2s.5-.8.7-1.2c.1-.3,0-.9.2-1.2.2-.4,1.1-.2,1.7-.5.2-.1,2.5-2.8,2.5-2.9.4-1.2-.4-.7-.7-1.1-1-.9-.9-1.6-2,.1-.1-.1-.4-.3-.4-.5,0-.5.2-.8.5-.8-.1-.4,0-.4.3-.3.7-.5,1.3-.3,2,.7,1.9.5,2.4.1,4-.9,1.2-.9,2.1-1.4,3.3-2.2,1.7-.8,1.7.4.5,1.4h0Z"/>
    <path class="st90" d="M236,90c1.5,1,3,2.2,4.3,3.6v.4c.7-.4,1.1.1.9.8v.3c-1.3-.3-.5.8-1.2,1.4-.3.2-3,0-3.4-.1-.7-.3-2.5-3-3-2.1,0,.1-.4,1.5-1.1.9-.1-.1,0-2.5-1.4-3.5.3-.4.1-.9,0-1.4.5-.2,1,.3,1.6,1.4h.6c.8-3,1.7-3.5,2.7-1.6h0Z"/>
    <path class="st87" d="M227.3,116.8l-.2.6c-1.4.5-2.6,1.2-3.8,2.2.3.6.4,1.2.2,2,.5.6,1.3,1.1,2.3,1.5,0,1.7.7,3.1,2,4.2,0,1.7.1,2.8,1.5,3.8-.1,1.2.8,4.3,2.1,3.7,1.2.4,4.1,4.7,2.1,5.4h-.4c-.9-1.6-2-3-3.1-4.4-.6,0-.9-.6-1.1-1.6h-.3c-.1-1.1-1.1-4.5-1.7-5.4-.1-.3-1.3-.4-1.7-.9-.3-.4-.3-2.9-.6-3.5-.2-.5-1.5-1.2-1.9-1.7-.6-.7-1.2-2-1.7-2.8,0-.5,3-2.3,3.6-2.8.4-.4.7-.8.9-1.1.5-.5,1.8,0,1.6.8h-.1Z"/>
    <path class="st175" d="M231.4,115.2c-.3-.1-1,0-1.4,0-.4.4,2.1,4.4-1.6,2.4-.7,0-1.2,0-1.1-.8-.6-.3-1.2-.4-1.6-.8.2-.1.3-.6.7-.8,2.3-1.8,1.9.4,2.8.5.4,0,1.5-1.6,2.2-.5h0Z"/>
    <path class="st91" d="M192.6,244.1h-.5.5Z"/>
    <path class="st0" d="M193,244h.3"/>
    <path class="st91" d="M209.5,243.3c-.2,0-.4,0-.7-.1-3,.3-6.2.5-9.4.6h-.1c-.2-.7,0-.7.6-.2h.8c.4,0,.8-.1,1-.2h0c.3-.2.1-.4-.4-.8,0-.7,1.1-.7,2.2-.5.7,0,1.2.2,1.6.3h.1c.6,0,1,.4,1.6.6h.4c0,0,1.7.4,1.7.4h.7c0,.1-.1,0-.1,0Z"/>
    <path class="st91" d="M209.5,243.3h.3c0,.2-.1.2-.3,0Z"/>
    <path class="st91" d="M211.1,243.5c0,.2-.1.2-.3,0h.3Z"/>
    <path class="st7" d="M197.9,238.4c3-.3,5.6-.8,8.8-.5,5.8.6,10.9,3.7,16.5,4.8.3,0,3.3.3,1.5.8-.9.3-4.6-.1-5.9-.3-1.8-.2-4.7-1.3-6.4-1.5-.9,0-2,.3-3.2.2-2-.1-3.9-1-6.1-.3l1.9.5c-.7,0-2.5,0-3,0-.9.3.4.9-.1,1.2h-2.2c.3-.4,0-.7-1.2-.4l-.4-.5c0-.8.7-.9,1.1-.3,0-.2,0-.5.3-.6s3.2-.7,2.5-.9c-1.7.2-3.6.3-5.3.4-.2.7-1.2.7-1.4,0-.9.4-1.5.9-2,1.7h-.5c-1.1-.9-2-.9-2.8-.1-1.4,1.9-2.7.1-4.2,0-2.5-.3-5.2-.2-7.8-.5-.9,0-1.9,0-2.8-.6l.3-.3c1.8.1,3.5,0,5.2-.5,0-.1.1-.1.3,0,.3-.1.7-.3,1.1-.3.3,0,.7-.2,1.1-.3,2,0,4.1-.4,6.2-.5,2.8-.4,5.7-.8,8.3-1.4h0v.2Z"/>
    <path class="st5" d="M184.4,238.1c-.6.4-1.1.4-1.7.8-.2.1-.1.6-.2.6h-3.8c.1,1.2,1.3,1.1,2.4,1.1.2,0,.2.1,0,.3h-.3c-3.7.6-7.4.7-11.2.4h-.7c-.4.1-.9.1-1.4.1l-.8-1.4c2.2,0,4.4-.5,6.6-.7,2.3-.1,5.9.3,8.1-.1.9-.1,1.3-.8,2.8-1.1h0Z"/>
    <path class="st154" d="M180.8,240.8c-1,1.3-3.8.9-5.4.8-2,0-4.4-.1-6.5-.3.3-.4,1-.3,1.5-.3,3.5,0,7,0,10.4-.3h0Z"/>
    <path class="st91" d="M195.5,241.1v.7c-.4.4-1,.9-1.6,1.2.2,0,.2.1,0,.3,0,.5-.8.7-1.1.3.9-.8-1.7-1.5-2.4-.8.1-.2,0-.9.7-1.1.8-.2,1.4,1.5,2.7.5.7-.5,0-.9,1.7-1.1h0Z"/>
    <path class="st7" d="M192.1,244.1h.5-.5Z"/>
    <path class="st7" d="M192.8,243.8h-1.7c.5-.2,1.2-.1,1.7-.3.1.1.1.2,0,.3h0Z"/>
    <path class="st89" d="M326.1,212.1c-.4,0-.6-.4-.9-.5-1.2-.4-2.1,2.5-1.8,3.5.1.6.9,1.2,1,1.7,0,.6-.5.9-.5,1.3s.1.7.2,1h-.7c-1.2,0-2.4-.1-3.6-.3h-.7c0-.2.3-.4.7-.5-.4-.4-.6-.8-.6-1.2h0v-.4h0c0-.3.3-.5.7-.8-.7-1.2-.7-2,0-2.6,0-.2.1-.5.2-.7.3-.7.7-1.4,1.4-1.7h0c.6-.3,1.2-.2,2,.4.8-.7,1.6-.7,2.5-.4h.1c0,0,.5-.5.5-.5h.3c.4.9.4,1.7-.7,1.6h-.1Z"/>
    <path class="st43" d="M332.2,202.7c.1-.5,1.8-.3,2.2-.1.2,0,1.4,1.7,1.4,1.9,0,.3-.7.5-1.1.3-.6-.3-1.2-2.2-2.4-2h0Z"/>
    <path class="st36" d="M306.5,174c.4,1,1.3,1.4,1.9,2,.4.4.7,1.2.9,1.5.7.7,1.7-.2,1.5.9-.2,1.1-1.2.2-1.6.8-.4.4-.1,1-.3,1.2,0,0-1.3,1-1.4,1.1-.2.1-1.9.2-1.5,1.2.4.8,1.1.4,1.7.3.3,0,.7.2.8.2.3,0,.3-.7.6-.8.6-.3.4.7.8.8.4,0,1-.4,1.2-.3,0,0,.1.9.4,1.2.1.3.4.4.5.4,1.2,2.6-.4,2.1-.3,3.3,0,.4.7,1.8,1.2,1.2.7-.8,0-2.4,1.2-2.5-.6.8,0,2.8-.1,3.3-.3.7-1.7.5-1.7.9s1.8,2.8,2,2.8c.4,0,0-1.5,1.7-.4.3.1,1.5,1.3,1.5,1.5.1.3-.2.7.1,1.2.4.6,1.2.6,1.7.9-.7,1.7-2.7.9-2.5-1.1-.2,0-.5,0-.7,0-.6-.6-1.7-1.1-2.3-.4-1-.2-2.1-.3-3.3-.1-.4-1.2-.7-2.5-.7-3.8-2.4.4-4.3-1.7-1.7-2.9,0-1.1-.4-2.6-1.4-2.9-.4.6-.7.4-.5-.3l-2.1-.8c-.9.5-2.8,0-2-1.1.1-1.5.4-2.1,1.7-.9l.3-.3c-.6-1.2-.4-2.9.9-1.8.9.2,1.6-.4,2-1.2,1.1.1.8-.3-.7-1.3-.3.4-1.2,0-.8-.5-1.5-1.2-2.7-3.6.3-2.7,0-.5,0-.7.6-.8h0Z"/>
    <path class="st108" d="M319.2,219.2h0Z"/>
    <path class="st108" d="M324.4,207c-.5.9-.7,1.9-.7,2.8-.9.3-1.6.7-2.2,1.2h0c-.4.3-.7.7-1,1.1,0,0,0,0,0,.1h0c0,.1-.1.3-.2.4-.3.5-.6,1.1-.8,1.7l-2,.5c-1.2-.3-1.8,0-1.7.6.4-.1,1-.1,1.7,0s1.4.4,1.6.8c.4.1.6.4.7.6h0v.4h0c-.3.7-1.4,1.3-2.2,1.2h0c.4,0,1.2.2,1.4.2s.3,0,.4.1c-.7,0-1.2-.1-1.9-.2h-.6c-.9,0-1.9-.2-2.8-.3-.2,0-.4,0-.6,0,0-.7.7-1.5,1.7-1.5,0-1.7-10.1-1.6-11.7-.8l-.8-.4h-2c0,.1,0,0,0,0,0-.3.4-.6,1-.8.1,0,.4-.1.6-.2h0c.4-.1,1-.3,1.6-.3l.6-.5c2.2,0,4.5,0,6.7.2l.5.6c.6,0,1.1,0,1.7,0h0c.4,0,.7,0,1-.1h0c.9-.1,1.7-.4,2.6-.7,0-.2,0-.4.1-.6h0c.2-.4.9-.6,1.5-.7h.9c.5-.3.9-.7,1.1-1.2-.5-1.8,0-2.1,1.7-2.1.6-.7,2-2.2.3-2.1-.7-1-1.5-2.1-2.1-3.3v-.4c.8,0,1.1-.4,1-1.2l-.9-2v-.3c-.1,0-.1,0-.2,0-.2.2-.5.1-.8-.3-.3,0-.4,0-.3-.3h-1.1c-.3,0-.4,0-.3-.3-1.6-.2-1.7-2.2-.5-3,.7,1.5.5,1.7,2.5,1.1.3.1.5.4.8.6.1.1.2.3.4.4h0c.1.2.4.4.5.6.7.8,1.5,1.5,2.3,2.2.1.4,0,.8-.5,1.2.4.2.7.5.9.9.1.3.3.7.4,1,0,.2,0,.4,0,.7.2,0,.2.1,0,.2h0c.7.5.5,1.4.3,2.2h-.4Z"/>
    <path class="st23" d="M326.7,211.6c-.7.1-1.5-.4-2.2-.3-.4,0-.7.6-1.1.6-.7,0-.9-1-2.4-.2-.3.1-.5.3-.7.4,0,0,0,0,0,.1h0c-.1.3,0,.7,0,1.1,0,.3-.4.5-.4.9s.8,1.4.7,1.9c0,.3-.7.6-.7,1.1s.9.8.8,1.5l-.7.3h-1.1c-.7,0-1.2-.1-1.9-.2h-.6c0-.2,0-.5,0-.7,1.1.1,3-.1,2.5-1.6v-.6c-.4,0-1-.1-1.6-.2h-1.7c-2.9-.7.9-.7,1.5-.8.2,0,1.8-.6,2-.7.6-.3,1.6-3,2.7-3.8.4-.4,1.5-.6,1.6-.7,0,0,.7-1.9.7-2.1,0-.4,0-1.9.1-2.5h0c.1,0,.4,0,.7.1.4.1.7.3.7.4,0,0,0,.5-.2,1.1q-.1.4,0,0h0c-.1.4-.4,1-.6,1.5h0c-.2.4-.4.8-.4.9,0,0,.2.3.7.7.1,0,.2.2.3.3l.7.4h0c.1.2.3.4.5.4v1.1h.1v-.4Z"/>
    <path class="st23" d="M320,197.5c.2.1.4.7.7.7s.9,0,1.2.1c.8.2,1.2,1,1.5-.2,1.1.1,0,1.6.4,2.6.1.6,1.5,1.2,1.3,1.7,0,.4-1,.4-1.2.7-.1.2.1.6.1.8.3.3.4.4,0,.5-.5-.4-.4-1-.8-1.5-.7-.9-2.5-1-.3-1.9-1.2-.9-2.8-2-3-3.6h0Z"/>
    <path class="st89" d="M324.1,204.1c.5.1.9.9,1.2,1.1s1.1-1.5,1.5-.4c.4,1.1-.9.5-1.1.7-.1.1,0,1.5-.1,1.9-.3.8-1.5,1.2-.7,2.2-.2,0-.9,0-1.1-.4,0-1.6,2.7-3.3.3-4.1v-.8h0Z"/>
    <path class="st89" d="M326,210.2l-.8-.5c.4.3.5.4.8.5Z"/>
    <path class="st29" d="M305.7,123.5c.2,0,.2.1,0,.3-.6,1.7-.9,3.6-1.1,5.4-.2,2,.4,2.8.4,4.2s-.7,3.5-.7,4.9.7,1.4.5,1.9c-.1.5-1,.4-1.1.4-.2.2.7,1.4.6,2s-.7,1-.6,1.6c0,.4.5.7.6,1.1,0,.6-.7,1.1-.8,1.7,0,.7.8,1.7.8,2.5s-.8,1.2-.8,1.9,1.8,2.8-.3,2.8c-.1.7.8.9.8,1.5,0,.9-1.3,1-1.3,1.7s.7,2.8.8,2.8c.1.1.9-.4,1.1-.3,0,0,0,.7.2,1,.3.6,1.2,1.5,1.4,2.2,0,.6-.4.8-.5,1.3-.3,1.5,1.2,3.3,1.6,4.7,0,.3.4,2.1.3,2.2l-.8-.3c.4,1.2,0,1.8-.3,3l-.6-.3v-4.3c-.2-.4-.7-.4-1.2-.3-.9-.7-1.3-2.8-.9-3.8-.4.3-.9,0-.5-.5-.3-.6-.5-1.2-.5-1.9-1.1-.2-2.2-1.1-1.5-2.2-.5-1.5-.3-2.8.7-3.9-.3-.7-.3-1.3,0-1.7-.4-.9,0-1.7,1.2-2.7-1.2-.4-2.2-1.4-1.5-2.7-.9-1-.4-1.6.6-2.3-.3-.9-.3-1.7,0-2.1l.5-3.6c-1-2.2-.4-3.9.7-6l-.5-3.5c.7-1.6,1.2-3.3,1.2-5-.1-1.9,1-8.3,2.1-9.7,0,0,.2,0,.4,0,.4,1.3-1,2.5-1.1,3.6,0,.9.3,1.7.3,2.5h-.1Z"/>
    <path class="st39" d="M304.6,147.8c-.4-3.8.8-8.1,1.1-11.6-.1.7.4,1.7.4,2.3s-1,2.3-.9,3.5c0,.7.8,1.5.7,2.4s-.8,1.2-.9,1.7c-.1.6.1,1.3-.4,1.7h0Z"/>
    <path class="st39" d="M305.7,129c-.1,2,0,3.8,0,6-.7-.6-.1-2.1-.3-3.1-.1-.8-1.5-2.6.3-2.8h0Z"/>
    <path class="st62" d="M305.4,126c-.7.7-.4,1.9-.6,2.8,0,.2-.2.4-.3.4-.3-1.4.3-2.5.5-3.7,0-.6-.7-1.3.6-1.7.5.4.1,1.7-.3,2.2h0Z"/>
    <path class="st58" d="M303.8,165.2c.5.9.6,2.8.8,3.3,0,0,1.5-.4,1.8.7v6.5c-3-1.4-1.9.1-.8,1.9-.7.3-1.3-.1-1.9-1.4l-1.8-1c-1.1-.5-.2-2.3.5-2.5.4.2.7.2,1.1,0-.9-.5-.8-1.9.3-2.2,0,0,0-2.2-.3-2.4-.8.1-.9-.1-.5-.8-2.8,0-.1-3.1.5-2,0,0-.4,0,.3,0h0Z"/>
    <path class="st71" d="M174.6,235.7c.5,0,.9-.3.8.5h-3.3c0,1.5.7,1,1.6,1.4-2,0-3.9.4-6,.3.4-.7,2.5,0,2.7-.3s0-1.5,0-1.9c1.3,0,2.8,0,4.1,0h0Z"/>
    <path class="st122" d="M116.2,221.3c.7,0,1.7,0,2.5,0,.1.6-.7.8-.7,1.2-.2,1.3.6.7,1.2.9,1.7.4-.7.6-.7.7-.1.1.1.7-.1.8-.1,0-2.3-.2-2.5-.3-.3,0-2.8-1.7-3.3-2-.3-.2-.9-.4-.8-.9,0-.6.7-.2.9-.1,2.2.4,1.9,0,3.6-.3h0Z"/>
    <path class="st33" d="M151.4,214.6c2.2-1.3,3.9-1.4,5.4-.2,1.7-2,4.3-.3,2.4,1.8.4.5.6.9.6,1.4.1.5-.1.8-1,.9-.1,1.5-1.1,1.7-3,.7-.8.3-1.7.5-2.5.7-.1-2.3-4.4-.2-4.7.5,1.4-.2,2.5.4,3.4,1.7,3.2-.7,3.1.4,1.6,2.8.6,1.1.4,1.7-.7,1.7,1.1.4,2.3.4,3.5.4-.9-1.1,1.2-2.2,1.9-1.5q0,.1,0,0c-.4-1.1.9-2.3,2.1-2.5.1-.4.4-.9.7-1.2l3.9-1.5c.6-1.3.9-2,2.4-2.3h-2.7c-1.1.7-1.9.6-2.4,0-.2,2.9-3.9,3.1-2.4-.2-.1-.6,0-.7.4-.4l1.5-.4h.3c1.7-.4,2.7-.3,4.2-.6,1.2-.1,3.1-1.5,3.9-.1.4.7.2,1.5,1.3,1.9.1.7-.7.2-1.1.5-.3.2-.4.9-.3.9.1.1,2.8-.4,3-.4.4-.3.2-.9,1.2-.9s1.6,1.5,2.8,1.1c0,2.6-3.1,2-4.9,1.4,0,1.8,1.2.9,1.7,1.2,1,.4.4,1.7,1,2.6-.9.1-2.8.2-3.5.7-.6.4-.4,1.1-1,1.5-.3.1-3.3,1.2-3.5,1.1-.8-.1.2-.9,0-1.5-.2-.9-1.7-1.4-2.5-1.3-.6,0-.5.4-.7.6-.3-.3-.7-.4-1.2-.3.4-.1,1.2-.4,1.2.3-.9.7-2.2.3-3.1-.3-.8.5-.1,1.2-.1,1.9-1.8-.7-2,.4-3,.7-.6.1-2.5,0-2.8.4-.7.9,1.8.7,1.9.8s-.1.7,0,1c.1.2.9.1.7.7-.1.8-3,1.5-3.6,1.2-1.4-.4.7-3.1.2-3.8-.8-.7-5.1-1.5-5.3-2.3-.4-1.5,3.2-.9,3-2.1-.1-.9-1.7.7-2.3.7s-.7-.7-1.2-.7c-.3,0-.7.1-.9,0-.4-.1-.9-1.7-2.4-1.2,0-.7.9-1.1.3-1.9.2-.7,0-.7-.8,0-.3,0-1.4-.4-1.5-.5s-.5-1.7-.4-1.9c0,0,1.8-.8,2-.8.5,0,1.1.3,1.3.2.4,0,.4-.9.7-1.2.1,0,2.5-1.5,2.7-1.5.1,0,1.2-.1,1.6-.3h0l.4.2Z"/>
    <path class="st102" d="M202.7,219.5c.7.5,3.3,1.7,3.4,1.9.3.5-.1,1.1,0,1.4.3.7,2.3.8.9,3.1-.7.4-5.6-1-5.7-1.4s.5-.9,0-1.7c-.5-1.1-3.3-1.5-2.7-2.7s1.6,0,2.4,0,.9-.5,1.5-.6h0Z"/>
    <path class="st102" d="M195.2,225.9c-.1-.5-.4-.7,0-1.2.9-1.1,1.3-.2,2-.1,1.5,0,3.1-.5,3.9,1.2-1.4.5-2.9,0-4.2-.1-.4,0-.6.3-.7.3h-1.1Z"/>
    <path class="st102" d="M193.3,221.6c.6-.1,4,.2,3.8,1.2,0,.2-.8.9-1.2.9s-3-1.7-2.6-2.1h0Z"/>
    <path class="st102" d="M183.6,217.6l-1.5,1.9c-1.6.6-1.8-1.4-.7-2.2.7-.5,1.5.4,2.2.3h0Z"/>
    <path class="st102" d="M194.1,220.5c-.2.2-1.7.7-2.2.1-.8-.9,1.2-1.4,1.7-1.2.4.1.6.9.4,1h0Z"/>
    <path class="st102" d="M201.6,226.2c.4,0,2.3-.2,2.2.7-.7.8-2.1.4-2.2-.7Z"/>
    <path class="st51" d="M198.7,222.4c-.2.2-2.1-.2-1.9-1.1.7-.4,2.6.4,1.9,1.1Z"/>
    <path class="st74" d="M145.7,220.5h-.8c-.4-1.5,1.8-1.3,1.6-.4-.2.4-.4.4-.8.4h0Z"/>
    <path class="st71" d="M168.1,236.2h.5c.7.8-2,.9-2.4,1.1.3-.9,1.6-.2,1.9-1.1Z"/>
    <path class="st102" d="M187,218.1v1.1h-.4c-.4-.3-.5-.6-.4-1.1h.9Z"/>
    <path class="st161" d="M234.7,169.7s.2.6.7.6,1.4-1.2,2.3-.8c-.1,1.5,2,3.8-.3,4.3-.4.7,1.5,1.2,2,1.1s.7-.6,1.3-.5c.7,0,1.1.6,1.5.8,1,.4,1,.7.7,1.6-2.3,1.8.4,3.8,2.1,4.9.7,1.4.6,3,1.1,4.4.5,0,.7.1.7.4,1.6-.6,2,1.1,1.7,2.5-.9,2.1-1.1,4.5-.4,6.7l-.4,1c-2.1.5-2,1.4-.7,2.8.4.7.6,1.5-.4,1.3-.3-.5-1.5-1.6-1.7-2-.3-.8.1-1.2,0-1.9,0-.6-.7-1-.6-1.7,0-.6.7-.8.8-1.2s-.3-.9-.1-1.2c.2-.4,1.2-.4,1.2-.6.1-.1-.4-1.8.1-2.9.3-.5,1.1-.7.9-1.5-.4-.7-1,0-1.7-.1-.5,0-.9-.7-1.5-.8-.5,0-1.8.1-2,0s-.3-1.6-.5-2c-.7-1.4-3.3-3.2.7-2.5.2-1.9-.9-2.8-2.8-2.5-1.4.1-2.8.8-4.4.9-.5,0-2.2.1-2.3.2,0,0,0,1.7,0,2.2-.6,0-.3-1-.7-1.1-.6-.1-3.6.8-3.6,1.2s1.1,1.1-.4,1.7c-.9.4.4-1.3,0-1.9,0,0-1.3-1-1.5-1-.5-.1-.8.3-1.2.5-.4,0-.4,0,0-.5v-.6c.5-.8,2.1-2.3,3-2.3,1.7-2,2.8-2.2,3.3-.4.4,0,2.8.3,2.2-.5.3,0,3.3-2.8,2-2-2.2,2-2.3-.8-2-2.5-1.5-.2-1.7-.9-1-2.1-.5-.3-.6-1.3.3-1.4,0-.1.9-.4,1.1-.3h0v-.2Z"/>
    <path class="st107" d="M249.8,188.1c.2,0,.2.1,0,.3.4.8.7,1.4,0,2.2,0,.6-.2,1.2-.6,1.9.2,1.5.3,2.6-.8,3.7.4,1.7.3,3-.2,4.6.4,1.4.7,2.5,1.1,3.8,0,.3,0,.4-.3.6-.3-.5-1.2-1.5-1.2-1.9-.3-1,.9-1.2-.9-1.6,0-.4-.2-.8-.3-1.1,0,0,.3-.2.1-.5-.3-1-1.5-1.2-1.2-2.8.1-1.1,1-.7,1.6-1.1.9-.6,0-1.2,0-1.9s0-2.6,0-3.2c.1-1.3,1.4-2.9.5-4.1-.6-.8-1.1.7-1.6-.9,1.1,0,2.2-.6,3.3-1.1,1.4-.6.8,1.7.5,2.5v.7h0Z"/>
    <path class="st163" d="M151.4,214.6c2-1.7,4.8-1.9,7.3-2.6.7-.2,2-1.1,2.2-1,2.3.2.9,1.4.9,2.2s.4.5.3.9c-.1,1.4-2.2,1.8-2,2.5.1.7,1.5,0,1.9.1-.6.1-1.3.6-1.9.8,0,.2-.1.2-.3,0-1.4-.6-1.6-1.8-.3-2.5-.8-1.9-2.6-.7-2.8.9-2.6-.4-.6-.9-.4-1.2.2-.4-.5-.6-.7-.6-1.1-.2-3,.2-4.1.4h0Z"/>
    <path class="st49" d="M216.8,236.7l-6.9-.5c-1.7.6-3,.1-4.6-.5l-2.5-.4c.7,0,.9-.7,1.5-.8,3.5-.7,8.1,1.1,11.6,1.6.4,0,.8,0,.9.6h0Z"/>
    <path class="st106" d="M197.9,238.4c-.1.6-.7.5-1.2.6-2.6.6-4.6.5-7.2.7.3-.4.8-.4,1.2-.5,2.4-.5,4.8-.7,7.1-.9h0Z"/>
    <path class="st78" d="M156.5,211.1c0-.6,1.6-1.1,1.6-.4s-1.2.5-1.6.4Z"/>
    <path class="st78" d="M213,237.6c.7.7-1.4.5-1.6.3,0-.7,1.5-.4,1.6-.3Z"/>
    <path class="st61" d="M225.7,182.4c-.3.1-.6.4-.8.5,0-.7.4-.8.8-1.1v.5h0Z"/>
    <path class="st163" d="M149.2,212.2l-.8.8c0-.9,0-.9.8-.8Z"/>
    <path class="st5" d="M183.3,240.3c-.2.4-.8.2-1.1.3h-.3c.2-.4.9-.3,1.4-.3Z"/>
    <path class="st78" d="M210.9,237.6h-.8v-.5c.4,0,.7.1.8.5Z"/>
    <path class="st34" d="M209.5,243.3c-.2,0-.4,0-.7-.1-.6,0-1.1-.2-1.7-.4l1.7.4h.7c0,.1,0,.1,0,.1Z"/>
    <path class="st34" d="M210.6,243.4l-.8-.2c.3,0,.6.1.8.2Z"/>
    <path class="st154" d="M181.9,240.6h.3c-.4,0-.4.2-1.1.3v-.3h.8Z"/>
    <path class="st117" d="M241.9,62.4c-.7,1-1.2,2.1-1.6,3.3-.5-1.1.4-3,1.6-3.3Z"/>
    <path class="st117" d="M242.3,61.7l-.4.7c0-.2.1-.5.4-.7Z"/>
    <path class="st2" d="M305.7,54.3c-.4.4-.9.9-1.4,1.2-.5.3-2.7,1.7-3,1.8-.6.2-3.6.3-2.8,1.8s4.6.4,6.1.4c1.2,0,4.8.9,5.7,1.6.5.4.7.9,1.1,1.5-.1.2-.3.1-.5,0h-.4c-.4-.7-.9-1.3-1.7-1.6l-.4.2c-4.1-1.3-9.4-1.3-13.6.1-1.1-.2-1.9,0-2.5.7,0,.2,0,.4-.3.3-.3.1-.4.3-.6.6-2.3.3-4.1,1.3-5.4,3.2-.8.7-2.5,1.9-3.4,1.4-.7.1-1.2.4-1.5,1,1,1.2-.9,1.6-2,1.5l-3.1.9-.7-.4h-.7c-1.2-.7,2.5-2.1,3.2-2.2v-.7c.7-1.2,7.2-4.1,8.9-4.6,3.3-2,6.8-4.5,10.5-5.7l1.9-.5s.1-.2.3-.3c2.1-.7,4.4-1.2,6.5-2.2h0Z"/>
    <path class="st165" d="M246.1,53c0,0,0,.4-.4,1.1,0,.1-.1.3-.2.4v-.4s0-.1,0-.2c-.2-1,1.2-3.5,2.1-3.1h0c-.8.6-1.2,1.3-1.5,2.1h0Z"/>
    <path class="st99" d="M245.7,54c0,.1-.1.3-.2.4h0c-.7,1.7-1.6,4-1.7,4.6h-.4c-2,2.9-4.1,5.9-6.2,8.8-1.4.7-2.2,1.3-.7,2.2h.1c0,.1,0,.3,0,.3,0,.2,0,.4,0,.6-.1.5-.8.8-1.3.2-.7-.4-1.7-.2-3,.5-.9.7-2.1,1.6-3.3,1.9.4.4.2.5-.3.3l-3.3,2.2c-.6.4-.9.3-1.1-.1-.1-.5.1-1,.9-1.4-1-.5-1.4-1-1.2-1.6,1.5,0,3.7.1,4.6-1.6.7-1.5,1.2-2.7,2.9-2.9,4.4-5.4,8.6-11,12.3-17h.7c0-.1.3.1.3.1v.7c-3,4.2-6,8.6-8.6,13.2.3-.1.5,0,.7,0,.3-.4.5-.9.8-1.2.4-.6.8-1.2,1.2-1.8.2-.3.4-.6.7-.9.4-.7.9-1.3,1.4-1.9.1-.2.4-.5.5-.7.3-.4.6-.8.9-1.2q.2-.3,0,0h0c.1-.2.3-.4.5-.7.3-.4.7-.8.9-1.2l1.3-2.3h.3Z"/>
    <path class="st21" d="M245.7,54c0,.1-.1.3-.2.4h0c-.7,1.7-1.6,4-1.7,4.6l-1.1,1.6c0,.1-.1.4-.3.6l-.2.4h0l-.4.7c-.7,1-1.2,2.1-1.6,3.3l-.4.7h0c0,.1-.4.6-.4.6,0,.3-.1.6-.2.8,0,.3-.2.5-.4.7-.4.7-1.2,1.2-2.1,1.7h0s0,0-.1,0h0s0,0-.1-.1c-.7.1-1.1.4-1.3-1-.1-1.1,1.2-1.2,1.7-1.8,1.1-1.1,3-4.4,4.8-7.6h0c.3-.6.7-1.2.9-1.7q.2-.4,0,0h0c.4-.7.8-1.3,1.2-2,.6-.9,1-1.7,1.5-2.3.3-.4.5-.7.7-.9h0c0,0,0,.4-.4,1.1h0Z"/>
    <path class="st120" d="M243.8,59.2c-.4.4-.8,1.1-1.1,1.6l1.1-1.6Z"/>
    <path class="st120" d="M247.9,50.3c-.2.1-.2.4-.3.5h0c-.6-.3-.4-.6.4-.5h0Z"/>
    <path class="st99" d="M242.5,61.6c0,.4-.4.6-.5.8-.2-.7.4-.9.5-1.1v.3Z"/>
    <path class="st173" d="M311.4,62.7c.7,0,.7.4.8.5,1.4.7,1.7.7,2.3,2.4.7,2.1-.7,2.8-.7,4.7s.4,4.4.1,5.6-2.7,3.8-3,4.6c-.2.7-.1,2-.6,2.4-.8.9-3.2-.9-3.4,1.7,0,.5.2,1.1.1,1.5-.1.8-1.9,2.8-2.8,2.9-.4,0-1.5-1-2.2-.8l-.4-.6c.1-2.5,0-5.1,0-7.6,0-.9.2-2,1-2.4,0-2.2,2.1-1.6,2.5.1,1,0,2,.4,3,1.5.9-1.3,2-2.3,3.3-3.3-.4-1.9-.4-3.8-.2-5.6.9-2.5,1.9-5.4-.3-7.7-.3,0-.4,0-.3-.3h.5v.3Z"/>
    <path class="st150" d="M302.7,77.9c-1.2,2.8.3,7.3-.5,10.5-.2.9,0,1.5-.8,2.4,0,0-.4.1-.5.3-.1,0-.1-.1,0-.3-.2-1.2-.1-2.6,0-3.8-.6-2.5-.8-5-.7-7.5l.7-1.1c-.2,0-.2-.1,0-.3.5-.5,1.1-.7,1.6-.5.4-.4.5-.2.3.3h0Z"/>
    <path class="st109" d="M306.2,101.4c0,1.6,1.1,2.8,1.9,4.1.7,2.8.4,5.7-.9,8.6-1.5,3.6-2.6,7.4-3.3,11.2.2,2.5-.1,4.9-1.2,7.3.6,1.2.4,2.3-.3,3.2.1,1,.3,3-.8,3.2,0,1-.1,1.9-.6,2.6.7.4.9.9.8,1.5.7.3.7.7,0,1.1v.6c-.7-.4-1.2-.3-1.4.4.8.2.7.4,0,.8.4.3.8.7,1.1,1.1.4.4,0,.9-.8,1.4,0,.9.1,1.8.1,2.8,1.3,1.3.1,3.6-1.4,1.8l-.5.5c.6.5.8,1.2.5,2.2,2.2.4,2.4.9,1.2,2.8.7.9.9,3.8-.5,2.8-.9.1-1.3-1-1.4-1.8v-2.1c-1.2.4-1.6-.4-1.3-2.5-1.2.9-2.5,1.7-3.9,2.3-.4.7-.9,1.3-1.3,1.9-1.5-.4-2.8.1-3.8,1.6-.8-.1-1.4-.2-1.9,0v.7l-1.7,1.6c-1.6,3-2.2,7.1-1.7,10.5l.3,1.1c.4-.1.5.3.3.5l1.7,3.9c.9.8,1.5,1.5,1.8,2.2.2,0,.2.1,0,.3l.5,1.1c.4,0,.5.5,0,.5l1.4,3.5c.7-.1,1.5.9,1.4,1.6.4,0,.5.5.3.8-.4.2-.9,0-1.4-.4-2.2,2.8-7-1.6-4-3.8-1.2-.7-1.2-1.7-.1-3.3l-.7-.9c-2.2-1-2.8-2.3-1.9-3.9-.5-2.3-.8-4.6-.9-6.9.7-4.1,1.6-8.2,2.8-12.2-.4-1.2-.3-2.5.5-4,2.5-4.9,4.4-9.9,5.6-15.1.1-.6.6-1,1.2-.9.6,1,.1,2.6-.8,3.3,0,1.2,0,2.3,0,3.5.9,0,1.6-.2,1.7.8,1.3-.1,2.5.4,3.6,1.5.7-.9,1.4-1.9,1.9-3l1.2-.9c-.7-.9-.6-1.5-.3-2.5-1.4-1.4-.9-4.1.5-5.4-.6-2.7.3-5.6,2.2-7.5,0-.9.1-1.7.1-2.4.9-4.2,2.3-8,3.8-12,.4-1.3,2-6.3,1.2-7.3-1.9-.7-1.7-1.4-1.2-3.1l-.2-1.3c-.7.2-.9-.4-.3-.8,0-.2.1-.2.3,0,.1.4.4.6.5.8h0v.2Z"/>
    <path class="st37" d="M303.5,95.4c0,.7-.1,1-.3,1.6-2.6-1,.4-6.2.3-1.6Z"/>
    <path class="st62" d="M305.7,100.6h-.3c0-.2,0-.6,0-.8.1.3.2.7.3.8Z"/>
    <path class="st39" d="M309,113.3c-.4,1.7-.5,4-1.4,5.7-.2.4-.9.4-1,.9-.2.7.7,1.5.5,2.6,0,.7-.7,1-.8,1.7-.3,1.2-.4,2.4-.6,3.6h-.6c.3-.7.2-1.3.3-1.9,0-.7.3-1.5.3-2.2v-.3c1.1-.4,0-.9,0-1.5-.1-1.3,1.1-2.8,1.5-3.9.5-1.6,1.1-3.3,1.5-4.8h.3,0Z"/>
    <path class="st6" d="M306.5,117.3c-1.2,2.8-.9,2.9-1.4,5.5,0,.6-.6.9-.7,1.5-.6,2.2.1,4.1-.4,6.4-.1.4-.6.8-.7,1.2-.1.9.6,2.8.5,3.8s-1.2,1.7-1.3,3c0,1.2.5,2.9.4,4,0,.9-.5,1.7-.6,2.7,0,.7.4,1.8.3,2.1-.2.7-1.7.4-1.3,1.4,0,0,.6.1.6.3,0,.5-.5.9-.1,1.7.6,1.2,2.2.2,1.7,2,0,.1-2.1.7-1.7,2-1.5.9-1.1-1.6-.3-2.5-.7-1.2-.9-2.5-.8-4,.2-.6.8-1.2.8-1.4-.5-.4-.9-.7-1.1-1.1v-.8c0-.9.2-1.2.8-.7l.6-.4v-1.1c-.6-.5-.4-.9,0-1.5-.6-.8-.7-1.7-.3-2.5,1-2.2.3-1.3.2-2.8,0-1.1.7-1.3.7-1.6s-.6-1.2-.4-2.2c.1-1.2,1.5-3.8,1.6-5.2,0-.8-.3-1.5-.3-2.1.1-3.3,2.6-8.6,3.6-11.8.8-2.6,1.5-5,1-7.8,0,0,.4.1.5.4.4.7.4,2.5.3,3.4-.1,1.5-1.8,6.7-2.3,8.1h0Z"/>
    <path class="st155" d="M202.4,74.1c1,.2,2.8,1.7,3,0,0-.2.3-.3.4-.4s3,3,.4,2.5l-.5.4-3.7-1.6c.4.3.4.5.2.9-.7-.4-1.7-.6-1.9-1.7,0-.4,1.9-.2,2.2-.1h0Z"/>
    <path class="st85" d="M213.8,72.7c-.1.2,0,.7-.5.8,0-.4-.2-1.2-.3-1.6l-.6-.5c.3-2.4-.9-1.8-1.6-.3-.7-.1-1.3,0-2,.5-.7-.7-1.2-.7-2.2-.8-3.8-3,1,4.6,2.3,5,1.4,1.5-2.6,1.5-2.8.4,1.7-1,0-1.6-.8-2.2,0,0-.1-.2-.3-.3-.7-.5-.7-.9-.3-1.6-.1-.5-.4-.7-.5-1.1-2.4-2.6,2.1-2.3,3.8-1.5.4-.4,1.2-.6,1.8-.6,1.7-1.5,3.8-.2,3.5,2,.7.4.9,1.1.4,1.7h0Z"/>
    <path class="st155" d="M204.3,71.1c-.9,0-1-1.2-.8-1.7,0,0,1.5-.8,1.7-.9.1,0,2.5.7,3.3.6,1.2,0,1.7-1.2,3-1,3,.2,1.7,2.5,2,3,0,0,1.2.1,1.9.9-.3.2-.8.4-1.4.5,0,0-.2.1-.3.3-.9-1.5,0-3.6-2-4.1-1.6-.3-1.2.7-1.6.8-.3,0-.7-.2-1-.2s-.6.7-.9.7c-.1,0-2.1-.7-2.4-.8-.7,0-1.3.4-2,.3,0,.7.3,1.1.6,1.6h-.1Z"/>
    <path class="st85" d="M215.4,71.9c.1.2.2.8.5.9.5.3,1-.2,1.5-.1.1,0,.1.6.3.6.9.1,1.2-1.3,2.3-1.1-1.4,1-1.9,2.1-3.8,1.3-.7-.3-1-1.3-2.1-1,.4-.5.5-.7,1.4-.5h0Z"/>
    <path class="st155" d="M205.2,73.8c-.8-.5-1.5-.7-.3-1.6.2.7,0,1.1.3,1.6Z"/>
    <path class="st16" d="M195.5,86.5c1.3-.6,4.1-.7,3.8,1.4.7-.3,1.4-.4,2.2-.6v.3c-.5-.1-.7.1-1.1.3-.5.2-.8.4-1.4.5-1.3,0-2.4-.3-1.4-1.5,0,0-.5.7-.2-.2-.7,0-1.3,0-1.9-.2h0Z"/>
    <path class="st113" d="M195.2,86.5h.3c.5,0,2.5-.1,2.4.4,0,.4-1.2.9,1.1,1.5,0,0-.1.3-.6.2-.2,0-1.7-.7-1.8-.8-.4-.6.8-.7.8-1.1-.8-.1-2,.1-2.7,0,0-.3.3-.2.5-.3h0Z"/>
    <path class="st142" d="M244.9,49.7c.2-.2,2.5-2.4,2.7-2.2-1,1.2-1.8,2.8-2.7,4.1-1.9,2.8-11.1,16.9-13,17.7-.5.2-1.2,0-1.6.3-.2.1-.7,1.5-1.4,2-.6-.4-.6-.9,0-1.7l3.8-4.5s.3.4.7,0c1.3-.9,4.7-6.5,5.5-8.1.8-.6,1.3-1.7,1.9-2.5.7-.9,1.5-1.9,2.2-2.7.7-.7,1.4-1.9,1.9-2.5h0Z"/>
    <path class="st61" d="M233.3,171.3c-.2,1.9.2,1,1.1,1.5,1.2.6-.2,2.2.4,3.1.4.7.9-.2,1.2-.4,1.4-.7,1.4.7.7,1.5,0,.1-3,1.4-1.6,1.6,2,.3,1,1-.4.9-.6,0,.1-.4-1.4-.3-.4,0-.8-.2-1-.1-.7,0-.7,1.2-1.1,1.5v-2.7c-1-.2-1.5.9-2.5,1.1.9-1.2,1.2-2.4,1.9-3.5s.9-1.5,1.4-2.2c.2-.4,1.1-1.4,1.4-1.9h0Z"/>
    <path class="st166" d="M250,206c.7,0,1.2.4,1.6,1.4.7-.5.9-.1.5.5.4.7,0,1.5,0,2.2,0,.5.7,1,.9,1.6.3.9.3,2,.4,3,0,.4.5.8.4,1.1-.1.9-1.5,1.7-1.7,2.1,0,.1-.7,1.9-.7,2,0,.4,1,.4,1.1.4,0,0-.3.6-.2.9.1.5,1.2.9,1,1.7-.4,1.4-1.7-1.5-2.7-.9.4.9-.7,2.5-.6,3,0,0,.7.5.8.7-2.5,0-1.2-.2-1.9-1.5-1-1.8-1.4-.2-1.7-.2s-1.5-1.7-.3-1.8c.4,0,1.2.7,1.7.4.1,0,.9-1.9,1.2-2.3.4-.7.9-.2,1.2-1.8.2-1.7-.4-1.5-.5-2-.8-2.6-.1-1.7.4-3.6.1-.5,0-1,.1-1.5,0-.4.4-.7.4-.8,0-.5-1-1.9-1.2-2.4-.7-1.3-.8-1.8-1.6-3.1-.1-.8.4-.9.8-.3.4-.1.4.1.1.8.4,0,.5,0,.1.3h.2Z"/>
    <path class="st1" d="M299.5,112.2l4.1-14.3c.7-.6,1.5,2.6,1.9,2.7,0,.2.2.7.3.8.1,1.5,0,2.9-.4,4.4,1.5.4,2.2,1.2,1.7,2.7-1.7,5.3-3.5,10.6-5.2,15.9.7,1.6.2,2.2-1.2,1.8l-.6,1.3c-.6.4-.6,1.1.1,2.2l-1.5,3.6c.4,2,0,3.7-1,5.1,0,1.4-.4,2.7-1.1,3.8,2.3,4.4-2.1,5-4.2,1.6-1.4-.7-1.7-1.1-1.3-2.7.2-1.1.6-2.2.8-3.3.2-2.4.8-4.7,1.6-7-.1-.4,0-1,.3-1.4,1.4-2.4,1.7-5.3,2.5-7.9,1.1-3.3,2.5-6,3.2-9.4h0Z"/>
    <path class="st115" d="M228.7,118.9c.4,0,3,1.5,3.1,1.6.2.3,0,.9.2,1.2,1.7,3.6,3.9,7.1,5.7,10.8.2.4.2.9.2,1.3.5-.1.7-1,1.4-.7.9,1.2,2.1,2.3,3,3.4.7.9,1.2,1.7,1.6,2.8.7.4,1.4.8,2,1.2,1,3.8,2.5,7.4,4.6,11,0,.4,0,.7,0,1.1,0,.7-.4.8-.8.3-.3,0-.5,0-.7-.1l-.6-2.4c-1.2-.7-2.1-1.2-2.5-2.7,0-1.7-2.3-6.4-3-2.3l-.6.3c-.6.8-1.6,0-1.5-.9.9-1.7-.1-2.3-1.9-2.2-.5-.7-.9-1.5-1.3-2.5-2.1-1.1-2.4-1.3-2.2-3.8-1.4,0-2-.7-1.7-1.7h-.7c-.5-.9-1.2-1.6-2.2-2-.3-1.7-.6-2.7-2-3.7.1-2.8-.8-5.2-2.3-7.5-.7-1.7.9-3,2.5-2.1h0Z"/>
    <path class="st156" d="M228.7,118.6v.3c-1.2,0-2.7.6-1.9,2,.8,1.5,1.7,2.8,2.1,4.6.2.9-.3,2.3-.2,2.6.1.4,1.2.4,1.6,1.2s.3,2.1.9,2.7,1,.3,1.3.4.2.9.6,1.2c.2.1.8-.2.9,0,.2.4,0,1.2.1,1.4s1.2,0,1.5.4c.7.7-.1,2,.2,2.6.4.7,1.9.3,2.5,2.1.1.4,0,1,.2,1.5.1.2,3.2-.4,3,2,0,.8-1.1,1.2.7,1.7.7.1.7.5,0,.8l.3.8.6.4c.2,1.4.4,2.8.5,4.1,2-.4,2.2,2.5,1.3,3.6.9.4,1.3,3.8,1.1,4.7l-.6.4c-1.2.4-1.6-.4-1.2-2.3l-.8-.9c.1-1.7-.4-3-1.5-3.9l-.8-4.9c-.4-.8-1-1.5-1.7-2,.1-1.5-.6-3-2-4.4v-.9c-2.2-.1-3.6-1.2-3-3.4l-.4-.2c-.8-1.9-1.9-2.9-3.5-3.1-.7-1.1-.8-2.2-.9-3.4-1.1-1-1.6-2.4-1.6-4-1.2-.9-2.1-2.5-1.7-3.9-2.1-.6-3.7-1.8-1.8-4,1.2-1.3,3.4-2,4.4-.3h0v.2Z"/>
    <path class="st56" d="M227.3,116.8c.8.4.8,0,1.1.8,0,.3,0,.8.3,1.1-2.2-.9-3.5-.7-4.6,1.5-.9,1.9.9,1.7,2,2.2,1.2.6,0,.8.1,1.7s1.8,2.2,2,2.6c0,.3-.1.9,0,1.5.3,1.4,1.2,1.7,1.6,2.8.3.7.4,2.8.5,2.9s1.5,0,2.5,1.1c.6.7.6,1.5.9,1.9.2.4,1.2.3,1.2.7.1.5-.9.8-.1,2s2.5.8,2.8,1.2c.1.1,0,.7.2,1,.7,1.1,2,2.1,2.2,3.4,0,.3-.2.7-.1,1,0,.4,1,.7,1.3,1.1,1.2,1.5.6,4.4,1.5,6.4.2.4.8.7,1,1.5.2.7-.1,1.2,0,1.7s.7.7.8,1.2c.3.9-.3,2.2,1.2,2.5.2,0,.2.1,0,.3.7,1.4.5,1.9-.3,1.6-.4-.7-.9-1-1.5-1.1.1-2-.3-3.7-1.2-5.2,0-1-.3-2-1.5-2.1l-.2-.6-.5-.4c.1-.9-.6-5-1-5.2-1,0-1.6-.7-1.7-2.2-1.1-1-2-2.2-2.5-3.6-1.9-.6-2.4-1.2-1.6-2,.1-.7.4-1.2.1-1.9,0-.1-1.9-2.8-2-3-.1-.1-.7.4-1,.1-.4-.3-.9-1.6-1.1-2.1,0-.1-.4-.1-.5-.4-.4-.8,0-1.5,0-1.7-.1-.5-.8-.3-1.1-.7-.4-.7,0-2.2-.3-2.9-.1-.6-.8-.6-1-.9-.7-.9-.8-3.4-1.4-3.7-.5-.3-1.1,0-1.6-.5-.9-.8-.1-1.5-.4-2-.1-.4-.9-.5-.7-1.1,1.8-.3,3-2.2,4.9-2.5h-.4Z"/>
    <path class="st140" d="M230,135.7c1.5.1,1.2,1.2,1.6,1.7.7.9,1.5,1.2,1.9,2.6,0,.2,0,1,0,1.1.1.1,1.4-.4,2.2.7.4.6.4,1.2.7,1.7.4.6,1.5,1.5,1.7,1.8.3.5.2,1.6.6,1.9.3.2.9-.3,1.1-.1.2.2,1,3.7,1,4.2s0,1.4,0,2l.5.4c-1.1,1.7-.7,2.4,1.3,2,.7,1.7,1,3.5,1,5.3,1.8.9,1.7,2.4-.3,4.5-.4.9-.1,1.8.7,2.8v.8c.5-2.8,2.8-2.4,1.9.4l.4,1.7c.3,1.3-.1,2-1.4,2.1,2.3.2,2.6.4,2.3,2.8l-.5.3c-1.4-.8-3.2-1.8-3.8-3.5-3.5,1.1-2.2-2.2-1.1-4.1.2-1-.3-1.5-1.5-1.7v-.5c.4-.9,1.3-1.2,1.5-2.2.1-.6,0-.9,0-1.3.1-.7,1-.9,1.2-1.2.1-.6-.2-3.8-.6-4.1,0,0-1.4-.5-1.5-.5-.3,0-1,1.4-1.7,1,.8-1.3-.4-1.2-.7-1.7-.9-1.2.9-2.9.4-4.4,0-.3-.7-.3-.8-.7-.1-.5,0-1.1-.1-1.7-.3-.7-2-2.2-2-2.3,0-.1.9-1.9.3-2.8l-1.4.3c-.3-.3.6-.8-.6-1.1-.7-.4-.4-2-.6-2.1,0,0-.5,0-1-.6s-.1-.1-.3-.3c-.9-1.6-1.9-3.2-2.9-4.9l.2-.3h.4Z"/>
    <path class="st103" d="M240.5,166.5c.2,1.1,1.4-.5,1.6.4.4,1.7-1.3,4.8-.9,5.2.4.7,1.4-.1,2,0,.5.1.8,1.8,1.2,2.2.6.6,1.8,0,2.5,1.8.6-.1,1.2-.1,1.5,0,.3-2.8,2.7.8,1.4,1.8-.1,1-.9,1.2-2.1.7-.3.2-.3,1.6-.2,1.6.5-.7,2-2.1,2.1-.7.7,0,.9.7.3,1.1.3.4.8.5,1.4.3-.4-.5-.4-.7.3-.8,0-.5.2-.9.7-.7,0,0,.8.7.9.8-.4,1.5-.4,2.9-.2,4.4h-.4c.7,1-.2,1.6-1.1,1.4l-.4.4c-.1,1.1-.5,1.6-1.2,1.6-1.2-.5.4-2.6-.5-3.3s-2.8,1.5-3.2.4c-.4-1.4.4-.7,1-.8,2.1-.5.7-1.6-1-1.2.4-1.1-.3-2.1-.9-3-.3-.4-.9-.5-1.1-.8,0,0-.4-1.4-.4-1.5,0-.7,1.9-1.8,1.2-2.9,0,0-1.4-1.2-1.5-1.2-.8-.4-3-.7-3.2-1.5,0-.1.6-2.6.7-2.8.2-.6,2.1-1.4.7-2-.9-.4-1.5.4-.8-1.2h-.1Z"/>
    <path class="st107" d="M242.2,175.1c.8.4,2-.1,1.2,1.5-.4.8-1.4.9-1,2,0,.3,1.2,1.7,1.5,2,.4.5.6,0,1.1.9-1.2.1-3.7-2.9-3.5-3.6.1-.7,1.8-1.5.8-2.9h0Z"/>
    <path class="st20" d="M228.9,134c.4.5.7,1.1,1.1,1.6.5.7.9,1.9,1.4,2.5.5.8,1.7.9,1.3,2.6-.7-.8-3.3-4.3-3.6-5.2-.2-.6-.2-1-.1-1.6h0Z"/>
    <path class="st68" d="M213,71.9c-.9-.4-1.9,1.2-2.8,1.5-.7.1-1.7-2.8-2.8-2-1.7,1.2,3.6,4.3,2.7,5.6,0,.1-2.8.1-3.3.3-.8.1-.3.5-.4,1.1-1.4-.8-2.7-1.6-4.1-2.4-.1-.2-2-1.7-.7-1.6,1.4.1,3.3,1.5,4.7,1.9.7.2,1.4.4,2.1.5.4,0,.7.3.6-.4-.6-.7-1.7-1.2-2.2-1.9-.3-.4-.2-.9-.4-1.2-.5-.8-2.5-3-1.2-3.7.8-.4,1,.4,1.5.7.5.2.9,0,1.2.1.5.1.7.8,1.2.7v-1.1l1.6.8c-.5-1.4,1.7-2.2,2.1-.9.2.7,0,1.4,0,2h.1Z"/>
    <path class="st15" d="M211.7,84.9c.2.6.3,1.2.2,2,1.5.1,2.9.2,4.4.4,1.3-1.3,9.9-.9,10.5.2,0,0,0,.2-.2.4-.2.2-.6.2-1.1,0-1.2,0-2,0-3.1-.2-1.9-.4-3.8,0-5.4,1l-6.2.6c-.7-1.2-.2-2.4,0-3.6.3-.2.5-.6.8-.8h0Z"/>
    <path class="st35" d="M226.5,87.9c.9-.5,3.1,0,4.1.5.4-.6.7-.4.5.3.7-.6,1.8,1.1,1.1,1.6.7,0,.7.5.5,1.1.2,0,.2.1,0,.3,0,0-1.3-1.1-1.6-1.4-.3-.2-.4-.6-.7-.7-1.4-.7-3.6-.6-4.9-1.7h1.1Z"/>
    <path class="st162" d="M212.7,84l.5.2c1.5,2.8,5.9,2,8.3.9h.8c2.5,1.2,5.5,1.7,8.2,2.1.7.4.7.8,0,1-.9-.2-3-.4-4.1-.5-.1-.4-.7-.6-1.1-.7-2.5-.5-3.7-.4-6.1-.1-.6,0-1.2-.3-1.6-.2-.4,0-.9.9-1.5.9-.4,0-1-.2-1.6-.2-2.2,0-4.6.6-3.1-2.7,0,0,.1-.1.3-.3.3-.3.5-.4.8-.5h.1Z"/>
    <path class="st26" d="M224.4,71.1l.4.4c-.5,2,2.6.9,3.6,0l.6.2c0,.3.1.7-.3.9,0,0-1.7.8-1.9.8-1.2.3-1.6-.2-2.5-.1-.1.5-.7.9-1.4,1.2-1.3,1.2-1.3,1.7-.3,2.8.2,0,.2.1,0,.3-1.5.5-2.4.4-2.2-1.5-.7-.4-4.9,4.9-5.2,5.7h-.7c0,.3-.1.5-.3.7-.2.3-1,1.4-1.1,1.5s-.3,0-.5,0c-.4.4-.8.5-.8.5l6.2-8.3c2.6-1,3.8-3.3,5.7-5,.1-.1.4-.1.5-.3h.1Z"/>
    <path class="st72" d="M236,89.8c.9.9,2,1.2,3.2,2.3.8.7,1.6.6,1.1,2-1.7-1.4-2.8-2.7-4.4-4.1v-.3h0Z"/>
    <path class="st86" d="M192.1,244.1h.5-.5Z"/>
    <path class="st86" d="M201.6,243.3h-.1c-.7-.1-1.2,0-1.7.3-.1,0-.3.1-.4.2h-7.5c.3,0,.6,0,.8-.3.4,0,.7-.2,1.1-.3.4-.1.7-.2,1.1-.3h0c.5-.1,1-.2,1.6-.2h.9c0-.1,0-.1,0-.1h.4c1.1,0,2.9-.4,3.5.7h0c0,0,.4,0,.4,0Z"/>
    <path class="st7" d="M197,243.8h-2.5c.8,0,1.7,0,2.5,0Z"/>
    <path class="st91" d="M196.8,241.1c.9-.4,5.5-1.2,6-.8.7.6-1.7,1.7-2.1,1.8-.5.1-1,0-1.5,0l-.5-.4c-.8.1-2.2.4-2-.7h0Z"/>
    <path class="st141" d="M196.8,241.1s.3.2.7.3c1,.1,2-.5,1.7.8-.5,0-.7.2-1.1.3l-1.6.3c-.9.2-1.8.3-2.7.3.1-1.3,1-1,1.6-1.9h1.4Z"/>
    <path class="st7" d="M196.5,242.7c-.9.2-1.8.4-2.7.5v-.3c.9,0,1.8-.1,2.7-.3h0Z"/>
    <path class="st53" d="M315.7,217.3c-.4,0-2,0-2.1.3,0,0,0,.4,0,.7-.2,0-.4,0-.6,0-.9,0-1.7-.2-2.5-.3-1.4-.2-2.7-.4-4-.6-2.7-.4-5.2-.9-7.6-1.5h0c-.4,0-.8-.1-1.2-.3.4-.1.7-.2.9-.2h3.7c4.3-.6,7.4-1.2,11.7,0,.3,0,2.2,1.5,1.8,1.8h0Z"/>
    <path class="st143" d="M303.5,168.1s.4,0,.4.4c.2.7.2,1.7.6,2.4-1.6,0-1,.4-1.1,1.7-.7.8-1.5,0-1.7-.8.8,1.5-.3,2.5-1.8,2.9l.3.3c1.6,0,3.7.8,4.5,2.4,2.9,1,2.3,2.6-.5,2.8-.3.4-.5.9-.7,1.4-1,.3-1.5,1.2-1.2,2.3-.4,0-.8.2-1.2.3.3,1.5,0,2-1.3,3,.8.9,1.2,2,1.5,3.4-.9-2.8-.4-4.4,1.6-4.7.1-1.5,1.2-1.7,3.3-.5.1.1.4.1.5.3.4.4.2.7,0,1.1-3,2-3.5,3.5-1.5,4.4,2.2-.8,4.1,0,3.4,2.5l.8,2.1c.8-.7,2.1-.5,2.7,0,.1.9-.9,1.2-1.7,1.3-1.1,1.4-2.8-1.1-2.8-2.5.1-.9,0-1.4-.4-1.5-1,2.3-2.9.6-3.8-1-.7,2-5.2,2.6-4.9,0-.4-.6-.7-1.2-.5-2l-.9.5c-2.6-1.2.2-3.1,1.7-3.9.9-1.4.9-2.9.1-4.6.7-1.5.4-2.6-.7-3.2l-.3-2.2c.6-1.4,1.1-2.9.4-4.4-.3-.1-.4-.7,0-.8,0-1.4.5-1.1,1.4-.3l1.2-1.2c1.2.3,2-.3,2.3-1.7h.1Z"/>
    <path class="st30" d="M306.8,185.7c.1-.1,1.3-.4,1.4-.3-.3,1.2,1.7,4.6-.5,3.8-.5,3.3,2,1,2.8,2,.1.2.3,3.5.8,3.9,0,0,.7-.3.9-.2.4,0,1,.3,1.3.2.7-.1-.2-1.4.6-1.1.2,0,.4.5.7.6,1.4.4,1.4-.2,2.1,1.3,0,1.5-.7,1.7.5,3,0,.6-.4.5-.5,0-.6.7-1.3.4-2.1-.7-.9,0-1.7-.3-1.1-1.2-.1-.3,0-.4.3-.5-.7-.2-.7-.6,0-.8-.2-.1-.5-.3-.8-.3,0,.7-.4.7-.8.3-.8,0-1.7-.1-2.3.4-.1,0,0,.7-.5.4-.3,0-1.2-2.5-1.2-2.8,0-.6.2-1.6.1-1.7-.8-1.5-2.3,0-3.2-.3,0,0-1.5-1-1.5-1.1-.9-1.5,1.6-3,2.5-3.8.3-.2.5-.9.7-1h-.2Z"/>
    <path class="st176" d="M306.2,185.4c-.7.2-1.9-.6-2.2-.5-.5,0-.3,1.2-.7,1.5-.3.2-.8,0-1.2.4-1.7,1.5,1.1,3.5-.8,4.9-.4,0-1-3.1-1.2-3.6-.1-.3-.7-.4-.8-.6-.1-.5,1.3-1.3,1.5-1.7.2-.6-.7-1.5.4-2,.3-.1.8.1.9,0,.4-.6,0-1.6.1-1.9.1-.1.7,0,1-.4.2-.2,0-.7.7-1.2.9-.7,2.1.1,2.7-1.1.1-.7-1.6-.8-2-1.2-.4-.4-.4-1.2-.9-1.5-.4-.2-1,0-1.5-.2-.6-.2-1.1-1.1-1.7-.5-.6.5-.2,1.7-1.2,1.7-.3-.7.6-1.4.6-1.7s-.6-.7-.4-.9,2.2-.7,2.3-1.2c0-.4-.8-1.6-.3-2,1-.7,1.1,1.8,2.2,1.4,0,1.2-1,.1-1.5.8-.8,1.2.9,1.5,1.4,1.9.9.9.9,1.4,2.3,2.2.2.1.1.3.8.5,2.2.7,0,2.6-1.4,2.5h-.8c-.4.4.7,1.4.4,1.9-.9,1.7-1.7,0-1.9,0-.4,0-.9,1.7.2,1.8,1.7.2,1.7,0,3.2,1.2h0l-.2-.2Z"/>
    <path class="st58" d="M305.1,180.6c1.1-.2,2.6-1.4,1.4-2.5.4.1,2.2.1,1.9,1.5-.1.5-.9.2-1.2.4-.6.3-1.3,1.4-2,.6h0Z"/>
    <path class="st82" d="M317.9,208.9c.9.4,2,2.8.3,3,0,.1,0,.3,0,.3-1.6.9-1.7.9-3.2,0-1.2.2-1.5.7-.9,1.5l-.3.6h-2.7c-3.1-.3-4.8,0-7.8-.1-1.8.6-2.7.4-2.5-.6-.9,0-2.6-1.2-1-1.4.8-.1,1.7,0,2.7,0,.4-2.3,2.5-1.4,3.8-.2h.9c1.4-2,2.2-2,4.3-.7-.9-1.6.5-3.6,2-1.9.9,2.1,1.6.6,1.5-.9,0-.3,0-.5.2-.7.4-.4,2.3.7,2.8.9h0Z"/>
    <path class="st116" d="M317.3,198.9c0,0,.1.2.3.3.4-.1.8-.1,1.1,0l.3.3c.9,0,1.6.9,1.9,2.5.4.6,1.2,1.1,1.1,1.9-3-1.3-1.2,0-.4,1.1.2.4.3,1.2.5,1.3.5.4,1.5-.4,1.3,1.2,0,.4-1.1,1.7-1.4,1.9-.6.3-1.5,0-1.6.1,0,0,0,1.2,0,1.7,0,.3-.4.5-.6.8-.1.3-.1.7-.1.8-.2.2-1.8-.7-2.3,0-.6.8.4,1-1.5,1.5s-2.8.4-4.6.1c.6-.3,1.8-.1,2.2-.4.7-.5-.7-1.5,1.6-1.7v.4c-.2,1,.4.4,0-.4.9,0,.9.2,1.5.3.1,0,1.4-.4,1.7-.5.3-.4.6-.6,1-.7-1-2-1.1-3.3,0-5.4-.7-.4-.9-1-1.2-1.8,1.2-.7,2.2-3.2.1-2.9-.6-.5-1.3-.7-2.2-.5-.7-.6,0-1.8.9-1.6h.5v-.4Z"/>
    <path class="st53" d="M299.5,211.9c.4-.4.5-.2.3.3,0,0-.5.6.1.8.7.1,2.5-.3,1.7.8,0,.1-.6-.1-.4.3h2.2c-.6.4-1.5.4-2.2.5-.4,0-2.3.4-2.5.3l.3-.8v-.4l-5.2.4-.5-.6c-.4-.4-.7-.9-.5-1.4,0-.2.2-.5.4-.5s2.6.9,2.9,1.1c.7.4,1.6,0,2-.7.5-.3.9-.4,1.5-.1h0Z"/>
    <path class="st89" d="M318.7,216.2c-.9,0-2.2-.6-3.3-.8-.1-1.1,1.2-.3,1.7-.3s.9-.3,1.3-.2c.9.1,1.5,1.2.2,1.3h0Z"/>
    <path class="st30" d="M320.8,201.9c-.6-.8-1.2-1.7-1.9-2.5.6.2.5-.6.7-.6,1.1,0,1.1,2.1,1.2,3h0Z"/>
    <path class="st30" d="M318.7,199.2c-.6.4-.7.3-1.1,0,.2,0,.6-.5.7-.5.1,0,.3.4.4.5Z"/>
    <path class="st105" d="M300.9,148.4c-.4.7.6.9.6.9,0,.5-.4,1.1-.3,1.8,0,.3,1,.4,1,1.2s-1.2,1.2-.7,2.2c0,.1.4.2.4.3,1.5,2.4-.4,2.2-.5,3.1,0,.3.2.7.1,1,0,.7-.6,1.6,0,2.3.3.4.7.3,1.2,1.4,0,.7.3,1.3.5,1.9.1.2.5.5.5.5.1,1-.4,0-1.1.4-1.3.7,0,1.3.3,1.7-1.7,2.8-4.6-2.4-1.3-2l.3-1.7c-2.2-.6-2.8-1.3-1.7-2.3,2.1-.7,0-2.2,0-2.5,0-.9,1-1.2.9-1.9-.1-.6-1.5-.2-1.9-.8s.1-1.1,0-1.6-1.2-.7-.4-1.5c1.5-1.7,1.3.9,2.3-.2-.2-1.3-.7-3.3-.2-4.5h0Z"/>
    <path class="st58" d="M303.2,164.6c-.5-.7-.7-.8-.5-1.9.3.7.5,1.2.5,1.9Z"/>
    <path class="st97" d="M286.8,160.8c0,0,.1-.4.4-.5.3,0,.7.4,1.2.4.7-.1.9-1.2,1.7-1.5.7-.3,1.5,0,2.1-.4.4-.1.7-1.1,1.2-1.5,1.2-1.1,3.2-2,4.4-3.3.7,1.3.6,1.7,0,3l1.5-.3c.4.7,0,2.2.1,3.1,0,.6.6,1,.8,1.5,0,.2-.2.9.3,1.2,1,.7,2.4-.6,1.9,2.2-.2,1.3-.6,1.2-1.5,1-.7-.1.4,1.7.4,1.8.2.1,1.2-.3,1.6-.3.2.3.4.5.5.8.4.7,0,1.7-.7,2.1-.6.4-1.1-.1-1.4,0-.7.4-1.1,2.3-2.3.5l-.4.6c-.7-.7-1.5-2.7-.8-3.5-.4,0-.6-.2-.7-.7-2.2.1-1.7-1.5-.7-2.7-.4-.8-.4-1.4,0-1.8-.8-.1-.7-.7,0-1.1l-.2-1.2c-1.2-.4-1.2-2.2-.3-2.7-1.3-.9-2.9.9-2.1,2.3,0,.4-1.9.5-1.9-.2h-1c-1,1.2-2.8,2.8-4.2,1h.1Z"/>
    <path class="st74" d="M160,217.6c1.2.5-.4,1.2.1,1.9,1.7-.1,1.6-1,1.7-2.5.7-.3,1.2.8,1.2.8.5,0,.9-.5,1.6-.6.5,0,3.9-.1,3.9.4s-2,.9-2.3,1.3-.4,1.4-.9,1.7c-.8.5-3.8,1.3-3.9,1.5-.4.4-.4.9-.7,1.2-.3.3-.9.2-1.3.5-.2.2-.8,1.3-1.2,1.5-.1,0-2.9.9-1.2,1.1h1.5c-.4,1.3-5.2.9-6,.4s-.1-1.3.8-.9c0-.7-.5-.6-.4-1.3.1-1.1.9-1.2,1.2-2.1-.6-.8-1.4,0-2.2,0-1.2-.1-1.2-1.3-1.9-1.6-.5-.2-2.8.3-2.4-.5.5-.9,5.7-4,5.7-.9.7-.3,1.5-.8,2.3-.8s2,.9,2.3.6c0,0,0-.8.1-1.1.1-.1,1.1-.4,1.5-.5h.3-.1Z"/>
    <path class="st163" d="M158.4,225.4c0,0,1.6-.2,1.4.4l-1.6.4c-.1,0,.2-.8.3-.8h0Z"/>
    <path class="st44" d="M164.1,225.4h-1.4c.7-.9,1.6-1.3,1.4,0Z"/>
    <path class="st107" d="M244.1,183.5c0,0,.1,1-.4.8-.8-.3.1-1.1.4-.8Z"/>
    <path class="st137" d="M252.4,184.8c.3-.8,1.2.8,1.2,1.1s-1.7,1.7-2,1l.8,1.7c-2.2,2-3.5,5.8.8,4.6,1.9-.5,1.3,3.3.8,3.6-.4.2-1.7-.4-1.7-.5s.7-.1-.1.1c1,1.3-.2,3.3-1.8,3.3.1,1.5,0,2.7-.5,3.8.4.7.4,1,0,1.3l-.8.3c0-1.2-1.4-3.3-1.4-4.4s.6-1.5.6-2.5-.4-1.6-.3-2.2.7-.7.8-1.4c.4-2.2-.9-1.7,1.1-4.2.7-.8.4-1.3,0-2.2v-.3c0-.1.8-1.7.9-1.8.5-.5,1.6-.2,1.8-1.5h0Z"/>
    <path class="st103" d="M249.8,190.6c.4-.8,0-1.5,0-2.2,1.2,1.4.8,1.2,0,2.2Z"/>
    <path class="st14" d="M240.3,65.7c-.4.5-.5,1-.8,1.4l.8-1.4Z"/>
    <path class="st14" d="M239.5,67c0,.3-.1.6-.2.8,0,.3-.2.5-.4.7,0-.4.1-.9.6-1.5Z"/>
    <path class="st139" d="M299,56.7c-.7.2-1.3.4-1.9.5l1.9-.5Z"/>
    <path class="st70" d="M247.9,50.3c-.2.1-.2.4-.3.5-.8.6-1.2,1.3-1.5,2.1h0c-.1.4-.4.7-.7,1.1l-1.2,2.2h0c-.3.4-.7.8-.9,1.2-.1.2-.3.4-.5.7h0c-.3.4-.7.8-.9,1.2-.1.2-.4.4-.5.7-.4.7-.9,1.2-1.4,1.9-.2.3-.4.6-.7.9-.4.6-.8,1.2-1.2,1.8-.3.4-.5.8-.8,1.2-.4.4-.7.6-1.1.9-.2.2-.2.7-.3.7-.5.4-.7-.2-.4-.8,1.6-3.8,7-11.2,9.6-14.9.3-.4,2-2.9,2.3-3,.7-.3.4,1,.4,1.4h0Z"/>
    <path class="st9" d="M308.7,61.1c.9.4,2,1.7,2.2,2.6,0,.3-2.1,5.2-2.6,5.8-2.2.6-3.4,1.6-3.7,3-1.2.7-2.5,1.2-3.9,1.6l.7.6c1.8,0,1.1,3.4-.3,2.8-.6.5-.7.1-.8-.5l-.5.4c-2.8-.9-5.6-1.5-8.5-1.7l-.2-.6.3-.5h3.8c0,.1,0-.6,0-.6-.5-.7-.4-.9,0-1.5.7-1,4.9-1.5,6.2-1.6,1.1-.2,2-1.1,2.5-2.6,2.3-1.6,6.9-6.9,1.3-7l-.4-.6h-1.5c0,.4-.4.4-.9,0-.7.3-1.7.2-2.5,0-.5.4-2.2.4-2.7,0l-.8.3c-.9.9-2.9,1.7-4.1,1.1.7-1.6,1.5-.7,2.5-.9.5,0,1.2-.7,2-.7,3.5-.5,8.6-.6,12,.5h0Z"/>
    <path class="st157" d="M304.6,60.8l-1.4.8-.4.5c-.3-.3-7.5-.4-7.2.3,6.2,1.9-.4,6.5-3.3,7.9,1.1.1,1.7.4,2,1,.3.4.1.7-.4,1,.7.4,1.1,1,1,1.7l1.9,1.4-6-.3c-.9.7-3.2.6-4.1,0h-.3c-.3-.2-.7-.3-1.1-.3,0,.4-.6.4-1.4,0-.8.4-.9-.5-.5-1.2.4-.8,5.3-3.4,6.4-3.9l.6.2,2.2-1.7c2-.9,6.6-4,2.2-4.6v-.4c-.5-.2-.9-.2-1.2,0,0,.2-.1.2-.3,0-1.5,1-4,.4-1.6-.8,0,0,.1-.2.3-.3,1-.7,1.8-.4,2.8-.6.4-.1.9-.4,1.3-.5l.8-.3c.8,0,1.8,0,2.7,0,.6.1,2.3.4,2.5,0,0-.3,2.1-.5,2.5,0h0Z"/>
    <path class="st41" d="M282.5,67.5c0,.6.9.7,2.4.4l1.1.4c0,.4-.3.7-.9.8.1.7-.3.9-.9,1.2-8.6,1.8-17.4,3.7-26.3,5.7h-1.2c-.4.8-1.4,1-2.2.4-.4.3-.4-.2-.3-.5-.4-.8.2-1.2.8-.5,0-.9,3.2-2,3.8-1.4,0-.9,2.7-1.8,3.3-1.1,1-1.4,3.3-1.2,4.9-.8,0-.7,1.2-.9,1.7-.5l1.8-.3c1.1-.9,3.3-1.3,4.6-.8,1.5-.3,2.4-.7,3.7-1.1.6-.1,1.5.2,1.9-.3.1-.2-.1-1.9,1.7-1.6h0Z"/>
    <path class="st76" d="M310.9,62.7c0,0,.2.1.3.3,1.4,1.3,1.8,3.9.4,5.4-.4,2.6-.9,4.1-3.7,4.7-.9,1.2-1.8,1.2-2.9.3l-1.9,1c.3,1.5,0,2.5-.6,3.2,0,0-.8.5-.6,1.1l-1.1-.6c-.6,0-.6-.4,0-.5,0,0,.4-.2.5-.5,1.1-2.5.4-1.1-.7-2-2.2-1.8,2.5-1.9,3-2.2.7-.4.5-1.6.9-2,.8-.9,2.7-1.3,3.4-1.8.7-.4,1.5-3.3,1.8-4.1,0-.3.6-.4.7-.9,0-.9-.7-2.3-1.6-2.8,1.5.5,1.2.7,2.2,1.6h0Z"/>
    <path class="st9" d="M291.9,62.4c-.1.1-.3.5-.5.7.4.6,1.3.1,2.2.1v.4c-1.2.3-2.1,1.2-2.7,2.8-.4.7-1.7,2.3-2.5,1.4-.8,0-1.5.2-2.2.5,0,.2-.1.2-.3,0-1.6.2-3.3.3-4.9.3.3-.4.9-.8,1.4-1.1.8-.6,2-1,2.7-1.5.9-.7,1.3-1.7,2.3-2.3,1.2-.7,3.1-1.5,4.5-1.3h0Z"/>
    <path class="st129" d="M237.3,66c0-.5.3-1,.6-1.5,2.2-3.6,5.1-7,7.5-10.5-.4,2.8-2.9,4.6-4.4,6.7-1.3,1.8-2.1,3.4-3.7,5.1h0Z"/>
    <path class="st118" d="M236.8,71.2c0-.1,0-.4,0-.6,0,.2,0,.4,0,.6Z"/>
    <path class="st118" d="M239.5,67c-.1.3-.2.6-.2.8,0,.3-.2.5-.4.7,0-.4.1-.9.6-1.5Z"/>
    <path class="st148" d="M236.8,71.2c-.1.5-.8.8-1.3.2.7,0,1-.4,1.1-1.1h.3v.3c0,.2,0,.4,0,.6h0Z"/>
    <path class="st27" d="M302.7,77.9l-.3-.3c.4-1.2-.3-3,.1-3.6,0-.1,2.1-1.3,2.2-1.3.5,0,1,.9,1.8.7.4,0,.7-.7,1-.9.9-.4,2.1-.4,2.7-1.4.7-1.3.3-3.3,1.6-4.1-.1-1.5,0-2.8-.7-4.2,0,0,.4,0,.8.4.2.3,1.1,2,1.2,2.4.1,2-1.2,4.4-1.3,6.3,0,.9.7,3.8.4,4.4,0,.1-1.9,1.6-2.3,2s-.9,1.5-1.5,1.5-2.1-1.7-2.5-1.6c-.2,0-.6,1-.8,1.1-.5,0-.2-1.1-.3-1.3-.4-1.2-1.4-1.7-2-.3h0Z"/>
    <path class="st75" d="M275.2,209.2c0,.1,0,.3,0,.4,0,0,0-.1,0-.4ZM294,197.5h0c0-.1,0-.3-.2-.4,0-.5-.2-1.1-.3-1.7,0-.6,0-1.2,0-1.8-.3-.4-.5-.7-.7-1.1h0c-.4-.7-.9-1.5-1.4-2.2-.1-.3-.3-.6-.4-.8.2-.1.2-.2,0-.3-1.9-2-1.7-.1-2.8,0-1.3.2-3.3-1.7-3-2.8,0-.4,1.1-.8,1.1-1.4s-1-.6-1-1.4.9-1.2.9-1.7c-.1-1.7-3-2.8-3.1-3.1-.1-.4.6-1,.6-1.9,0-2.1-.8-4.1-1.1-6-.3-2,.9-6.2,1.4-8.3.1-.7.9-1.2,1-2,.1-.8,0-1.7,0-2.8-.1.2-.5.6-.5.8l-.7.4c.4.7.3,1.5-.4,2.3l.3.3-.3.8c-.8.2-1,1.2-.3,1.6-1.2,1.9-1.8,4.6-1.4,6.7-.4,0-.4.2-.1.9v1.9c-.3,0-.4,0-.4.1-.1.4-.9,3-.9,3.1s.1.1.3.2c-.2,0-.2.1,0,.3-.7.5-.6,1.5.3,1.6.4.6.7,1.3.8,2.2,1.1.3,1.8.9,2.2,1.7-1,1.1-1.3,2.2-.2,3.3-.5.8-.5,1.8,0,3-.9.9-.4,1.2.4,1.9,0,0,1.3.7,2.2,1,.5.2.9.4,1,.4.2,0,.4,0,.6-.3.1-.3.3-.7.5-.9.4-.7.9-1.1,1.2-.4,0,.1.2.4.3.7,1.4.3,1.9.9,1.5,1.8.7,1.5.3,4.7-1.3,5.6-.2,1-1,1.2-2.3.7-.9.7-1.8.9-2.8.5-1.2.4-1.7,0-2.7-.8.2-.7-1.3-4-1.7-4.7,0,0,0-.1,0-.1-.8-.5-1.3.4-1.6,1.2,0,.3-.1.5-.1.7-.4.3-.7.9-.9,1.3-.8-.3-1,.2-.6.8,0,.4-.1.7-.4.9,0,0,0,.1-.1.1-.8-.4-1.5.8-.8,1.4,0,.2,0,.4-.1.7h0l-.6,2.7v.2c-.6.8-.7,1.5-.4,1.8.2-.5.4-1.2.4-1.8.1.3.4.6.6.9.8,1,2,2.1,3.4,3,.9.6,1.8,1.2,2.9,1.7h0c.1,0,.3.1.4.2h0c.1,0,.3.1.4.1.9,0,1.7,0,2.5,0h.3c0,0,.1,0,.3.1h0c.2,0,.4.2.7.3,0,0,.1,0,.2,0h0c.3.1.7.2.9.3h.1c.1,0,.3,0,.4,0h0c.4,0,.8,0,1.2.1h1.2c.4.1.7.2,1,.2h0c.2,0,.4,0,.6-.2v-.7c-2-.4-2.9-2-2.5-3.8,2.8,1.4,3.7-1.5.5-1.6l-.4-2.8c1.5-.4,2-.9,1.6-2.5,1.3,0,2.2-.9,2.4-2h0c0-.4,0-.7,0-1.1h0v.3Z"/>
    <path class="st48" d="M286.8,160.8c.7-.1,1.4.4,2,.2.5-.1,1.5-1.7,2.2-1.8.6,0,1.7.8,2.5.4.1-.5-.4-1.2-.1-1.6.4-.9,2.5-1.9,3.1-.7.4.8-.5.7-.7.9-.7,1.2.7,1.3.9,1.8.2.7-.2,1.1-.2,1.5-.4,0-.9-.4-1.5-.8-.7,1.3-3,2.4-4,.8l-1.2.7c.2,1.2-.1,3-1.7,2.1-1.4-3-4.6.4-2.2,2.6,2,1.4.9,2-.8,2.5-2.1.7-.9,4.4,0,5.6,1.3.9,2,2.1,1.9,3.5,1.7.1,2.4,1.5,1.9,3.8.9.7,1.5,1.6,1.9,3,1.5-.1,3,0,4.6.4-.9-.9-2.4-2.8-1.5-4.2,1.1-.7,2.5-1.8.2-1.7-1,.9-2.6.3-1.5-.9,1.7-1,3.3-2.3,3.6-4.4-3.1,1.5-3.3-.8-1.5-2.8-1.6-1.4-1.9-2.5-.9-3.3-2.5-.2-2.5-1.4,0-3.5l1.4-2.2c.4-.4.7-.7,1.1-.1,0,.7.6,1.2.6,1.7,0,.7-1,1.3-.8,1.9.3.8,1.5,0,1.6.1,0,0,0,1,0,1.4,0,.3-.1.6-.3.9.9,2.6,1.6,5.1-.2,7.5.7,1.3.6,2.1,0,2.5,1.8.4,2,2,.6,4.6,1.3.7,1.7,1.5,1.1,2.3.2,0,.2.1,0,.3l-.2.6c-1.1.7-2.2,1.5-3.3,2.1,2.2,2.5-.2,3.4-2,1.2-1.3,1.4-2.2,0-2.6-1.1l-.3-.3c-.9-.7-.8-.7-1.4-1.6l-1.4-3.5v-.5l-.5-1.1v-.3c-.2-.8-.8-1.5-1.8-2.2l-1.7-3.9c0-.1-.2-.3-.3-.5l-.3-1.1c-.1-.7-.8-3-.8-3.3,0-.6,1.2-5.2,1.4-5.9.7-1.9,1.5-2.3,2.9-3.5h.1Z"/>
    <path class="st111" d="M305.7,101.4c0,.4.4.7.4,1.3s-.4,1.2-.1,1.7c.2.6,1.3.6,1.5,1.2.7,1.9-1,7.3-1.7,9.3-1.5,3.8-2.6,6.5-3.3,10.7-.1.7,0,1.4,0,2-.2.7-1.2,1.4-1.5,1.8,0,.1-.8,2.8-.9,3.2-.2.9.4,1.9.1,2.5-.1.6-1.2.9-1.3,1.7v2.3c0,.3.6.5.7.9.1.6-.3,1-.2,1.5,0,.4.7.8.5,1.3s-1.1.7-1.4,1.1c-.5.7-.4,1.1-1.2,2.1-.2.3,0,.7-.6.9-1.4.9-1.7-2-4-1.3-.2,0-2.8,3.7-3.1,1.5-.1-.9,2.3-1.3,2.4-1.6.3-1.7-1.5-.2-1.6-.4-.3-1.5.2-2.9.5-4.4-.3,1.7.9,1.6,1.7,2.2.9.9,1.4,2.3,3,2,2-.3.2-2.9.3-3.3s.5-.9.7-1.5c.2-.8.1-1.7.4-2.3s1.1-1.3,1.2-2c.2-.9-.4-1.9-.1-3.1.1-.8,1.5-3.1,1.5-3.6s-1.2-1.1-1.1-1.6c2.1-.6.6-3,3.3-2,0-.6-.5-.7-.5-1.2-.1-2.1,2.1-6.3,2.8-8.6.4-1.5.7-3,1.2-4.5.6-2,3-5-.4-5.4-.4-2,1.1-3.1.8-5h0v.2Z"/>
    <path class="st177" d="M297.2,153.7c-1.1.9-1.4-.1-2-.4-.4-.1-2.2,0-2-1,.2-.8,3.1-1,3.6-2,.5,1.1,1.4,2.5.4,3.4h0Z"/>
    <path class="st105" d="M301.9,143c-.4-.3-1.4-.9-1.4-1.5s.4-.6.4-.9c.3-1,.3-.9.7-1.7-.4.9.8,2.1.8,2.5s-.4.8-.5,1.5h0Z"/>
    <path class="st147" d="M283.8,175.1c1.2,1.2,1.6,3.3,2.6,4.6.3.4.9.6,1.1.8.4.5-.1.7-.1.8-.3-.9-1.7-1.5-2.1-2-.4-.7-1.1-3.2-1.4-4.1h0Z"/>
    <path class="st147" d="M289.2,186.7c-.9-1.4-.9-2-1.4-3.5.7.8,1.4,2.4,1.4,3.5Z"/>
    <path class="st105" d="M301.9,144v1.1c-.7-.4-.9-.9-1.4,0,0-.4-.4-1.4.1-1.4s.7.9,1.2.3h0Z"/>
    <path class="st105" d="M301.7,147c-.2-.2-.9-.1-1-.3-.1-.1,0-.6,0-.8.6,0,1.2.5,1.1,1.1h0Z"/>
    <path class="st147" d="M299,186.5c0,0,0,.4-.1.5-.6.7-2.1,1.2-2,2.3,0,1.3.8.1,1.2-.1,1-.7.6,1.5.7,2,0,.2.5.1.6.4,0,.5-.4,1,0,1.3.9.7,2.8.3,3.6-.5s-.3-2.3,1.9,0c.2.2.1.7.5.9,1,.7,1.5-.2,2.2-.3l.4.2c-.2,2.2,1,5.3,3.4,3.5,1.7-.7,2.5-.3,2.2,1.2,1.2.1,2.3,1.4,2.5,2.5,2,0,3.6.2,1.8,2.7.7.9.9,1.7.8,2.5-.9.9-1.3,1.7-.3,2.7l-.3.6c-.9.8-1.8-1-3-.3-1.5,1.1-2.8-2.3-1.5-3.4,3-1.9,3-3,0-3.5-.8-.8-1.5-1.3-2.3-1.5-.9,2.1-4.2.1-3.9-1.9-2.4.4-2.7-.5-.7-2.8-1.2.9-2.5,1.4-3.7,1.2-1,2.2-2.8,2.2-5.4-.1-.2-.1-1.8,4.2-1.5,4.9,0,.7-.2,1.2-1,1.1l-.6-.4c-.2-2.4-.4-4.8-.3-7.2-.3-.2-.4-.7-.3-1.2-1.1-1.3-2.1-2.8-3-4.4v-.3c0-.3-.1-.6-.3-.8,0,0,.4,0,.5,0,.3.3,0,1.1.7,1.4.9.4,1.3-.7,1.9-.6.4,0,1.5,1.9,2.1,1.3.6-.6-.8-1.7-1.4-2,.3-.5.9-.3,1.3-.6.4-.2.5-.7.8-.8.8-.4,1.7-.2,2.4-1.2.1.1.1.3,0,.5h0l.2.4Z"/>
    <path class="st147" d="M287.9,182.7s-.6,0-.5-1.1c.5.1.6.6.5,1.1Z"/>
    <path class="st147" d="M283.6,174.6c-.1-.4-.1-.7-.3-1.1l.3,1.1Z"/>
    <path class="st133" d="M232.7,65.4c-.1,2-2.6,3.4-3.5,5.1-.3.5-.2.8-.3,1.2-.6.6-2.3,1.7-3,1.6,0,0-1.7-.5-1.7-.6-.1-.2.1-1.2.3-1.6,0,0,.1-.2.3-.3l.4-.5c2.5-1.4,4.9-2.9,7.2-4.6.2-.1.3-.1.5-.3h0Z"/>
    <path class="st26" d="M232.2,65.7c-.8.4-1.5,1.5-2.2,2-1.6,1.1-3.8,2-5.4,3.1,0-.6.4-.9.8-1.2,1.3-.9,2.9-1.5,4.2-2.2.9-.5,1.4-1.7,2.5-1.7h0Z"/>
    <path class="st47" d="M254.9,161.9l.6.6c0,1.6.4,3,1.5,4.3v4.1c1.3-.1,1.8.1,1.6.8l-.3.6c-1.3.1-1.5,1.3-.9,3.3-.4,1.2-.6,2.6-.7,3.8.4.7.2,1.4-.7,2.1l.6,1.1c-.5,2.8,0,5.8.7,8.6l-.5.4c.1.2.2.4,0,.5.1,0,.2.1.4.2.3.3-.4,6.7-1.2,7.5.7.8.6,1.8-.4,3.1v1c.2.7-.9,2-1.6,2.2,0,0-.4,0-.6-.1-.6-.7-.4-2-1.6-1.6-1.5.4-.9,1.8-.5,2.8-.6-.4-1.3-.8-1.6-1.4q.1-.1,0,0c-.4-.6-.1-.7-.3-1.1-.2-.9-.4-1.1-.8-1.9,1.4.4.7-1.8.8-2.8.1-2,.7-.7,1.4-1.1.8-.5,1-1.7,1.1-2.6.7,0,1.4.2,2.2.5,0-.8,0-1.7.4-2.5-1.5-1.7-1.1-3.3,1.2-2.8-2.5-.6-2.5-1.6-2.2-4.1-.4-.8-.4-1.5-.1-1.9-1.1-.6-1.1-5.7-.4-5.7,1.1-.1,1.2.5,1.1,1.4,1.3-2,0-2.6-1.6-1.1-1.4-.8-1.2-1.3,0-2.2l.2-1.4c-1.3-.5-1.8-2.5.4-2,.3-.6.9-.9,1.7-.8-.7-.8-.7-1.5-.3-1.8.1-.8.2-1.7,0-2.5-3.2.4-1.7-3.6-.9-5.4-.6-1.7-.5-3,.3-4.1,0-.2.1-.2.3,0,.8,0,1,1.4.3,1.6h.3Z"/>
    <path class="st11" d="M300.1,213.5c0,.4-.8.4-1.1.5-.5.1-1.5.4-1.9.6-.7.1-1.5.2-2.2.2h0c-.7-.2-1.5-.4-2.1-.6h0c-3.7-1-7-2.2-9.7-3.5h0s0,0-.1,0c-.1,0-.3-.1-.4-.1,1,0,2,0,2.9.3h0c.1,0,.4,0,.5.1h0c.2,0,.4.1.6.2,0,0,.1,0,.3.1h0c.1,0,.3.1.4.3h3.3c.5.1.9.2,1.2.4h0c.4.1.7.4.9.7h0c.1.2.4.4.5.8,2.3,0,4.5-.7,6.7,0h0Z"/>
    <path class="st11" d="M305.9,215.7c0,.4-.8.4-1.1.5-.5.1-1.5.4-1.9.6-.7.1-1.5.2-2.2.2h0c-.7-.2-1.5-.4-2.1-.6h0c-3.7-1-7-2.2-9.7-3.5h0s0,0-.1,0c-.1,0-.3-.1-.4-.1,1,0,2,0,2.9.3h0c.1,0,.4,0,.5.1h0c.2,0,.4.1.6.2,0,0,.1,0,.3.1h0c.1,0,.3.1.4.3h3.3c.5.1.9.2,1.2.4h0c.4.1.7.4.9.7h0c.1.2.4.4.5.8,2.3,0,4.5-.7,6.7,0h0Z"/>
    <path class="st11" d="M309.5,215.7c0,.4-.8.4-1.1.5-.5.1-1.5.4-1.9.6-.7.1-1.5.2-2.2.2h0c-.7-.2-1.5-.4-2.1-.6h0c-3.7-1-7-2.2-9.7-3.5h0s0,0-.1,0c-.1,0-.3-.1-.4-.1,1,0,2,0,2.9.3h0c.1,0,.4,0,.5.1h0c.2,0,.4.1.6.2,0,0,.1,0,.3.1h0c.1,0,.3.1.4.3h3.3c.5.1.9.2,1.2.4h0c.4.1.7.4.9.7h0c.1.2.4.4.5.8,2.3,0,4.5-.7,6.7,0h0Z"/>
    <path class="st11" d="M307.7,216.3c0,.4-.8.4-1.1.5-.5.1-1.5.4-1.9.6-.7.1-1.5.2-2.2.2h0c-.7-.2-1.5-.4-2.1-.6h0c-3.7-1-7-2.2-9.7-3.5h0s0,0-.1,0c-.1,0-.3-.1-.4-.1,1,0,2,0,2.9.3h0c.1,0,.4,0,.5.1h0c.2,0,.4.1.6.2,0,0,.1,0,.3.1h0c.1,0,.3.1.4.3h3.3c.5.1.9.2,1.2.4h0c.4.1.7.4.9.7h0c.1.2.4.4.5.8,2.3,0,4.5-.7,6.7,0h0Z"/>
    <path class="st10" d="M282.9,210.7s0,0,.1,0h0c.9,0,1.9,0,2.8.4.6.2.9.3,1.2.4-.2,0-.3-.1-.4-.3h0c-.2-.2-.3-.4-.6-.6-.7-.3-2.2-.4-4-.4.1,0,.3.1.4.2h.4c0,.1,0,.1,0,.1Z"/>
    <path class="st10" d="M293.3,213.5h-1.4c1.3-1.1-1.2-1.5-2.2-1.6h0c-.5,0-.9,0-1.2-.1h0c-.4,0-.7,0-1.1-.1h1.1c1.3,0,2.8-.1,4.1.1.3-.3.4-.2.4,0h0c0,0,0,.1-.1.3.7.6,1.1,0,.6,1.4h0Z"/>
    <path class="st63" d="M250.3,152.5s.4.1.5.5c0,1.1,0,2,.8,3,.5.6,2.5,4.1,2.4,4.6-.3,1.1-.4,1.2-1.5.7-.4.3-.8.4-1.2.2,0,.7-.2,3.3-.6,3.6-.6.4-.9.2-1.4-.1-1.5,2.1-3.4.6-2.1-1.6-1-.2-1.6-1.2-1.7-2.9v-.3c.1-2.3-.2-3-.5-5.2.4-1,1.9-.5,2.1.6,1.5-.1,1.9-.7,1-1.8-.3-.9.7-2,1.5-1.2.3-.1.5-.3.8-.3h0Z"/>
    <path class="st171" d="M242.2,145.4c0-1.1.5-3,1.9-2.3,2.3,1.2,1.5,3.8,3,5.7.4.6,1.4.6,1.7,1.2s.2,1.9.7,2.7c-1.8.8-.7.8-.6,1.8.2,1.6-.6,1.2-1.4,1.5-.4.1-.7.8-1.2.2-.3-.5.7-1.2-1.5-1.1,0-.6-.1-2.9-.3-3,0,0-.9,0-1.2,0-.7-.2-.4-1.2-.4-1.7-.3-1.2-.4-2.1-.5-3.4l-.3-.8v-.8h0Z"/>
    <path class="st115" d="M242.5,147s-.2-.3-.3-.8l.3.8Z"/>
    <path class="st127" d="M240.8,153.3c2.7.2,2,2.6,2.5,4.1,0,.4.7.3.8.7s-.5,2.2-.2,2.8l1.4-.3v1.6c.8.3.7,1.4-.3,1.4.2.7,0,1.5-.8,1.2-1.2,1.8-.5,2.3,2.3,1.5l.4.6c1.6-.3.9,1.2.2,2,1.1,1.2,1.3,1.9.6,2.3-.3.6-.4.8-.4.6l.4-.3c.2-.3.7-.4,1.3-.4,0-1.2.4-1.9,1.3-1.8-.7-2.9,3.3-1.6,2.8.5,1.2.4,2.7,1.1,1.9,2.5.1.3.1.6.3.9.1.2.5.2.5.4.2,1.6-1.2.9-1.7,1.3-.3.1-.4,1.2-.7,1.2s-.2-1.1-.9-.8c-.2,1,.1,1.1.5,1.6.5.7.1,1.2-.7.7-1.7-2.6-1.5,1.1-.4,2.2l-.5.5q0,.4-.3.8c-.9.4-1.3.3-1.4-.3,0-.2-.3-.6-.3-1.1-.7-.3-.6-.9.3-1.6,0-.9-.4-2-.9-2.7v1.6c-.4.3-1-.5-1.1-.5-.2,0-.5,1.3-.9.8,0,0,0-.8,0-1.1,0-.4,0-2.3,0-2.5,0,0-2.1.3-2.5-.7-.2-.8,1.5-.5,1.6-1.1,0-.3-.5-2-.5-2.7s.4-1.7.3-1.7c-1.2-1-.8,3-2.2,2.2-.2-.1,0-1.4,0-1.7,0-.4-.6-.7-.7-1-.4-2,2.2-3.9,2-4.7-.1-.4-1.2-.4-1.3-.9-.2-.7-.1-2.5-.4-3.4,0-.3-.7-2-.7-2.1,0,0-.7.3-1.2.2-2.1-.3-.6-1.9-.4-2.9h0Z"/>
    <path class="st160" d="M251.4,154.1h.5c0,.9.4,1.7.8,2.4h.6c.4,1.4.7,2.6,1,3.8,0,.7-.2,1.2-.2,1.7,0,.7.5,1.2.5,2.1,0,1.7-2.2,3.1-.5,5.3l1.3-.5c0,.6.1,1.1.1,1.6s0,1.9-.7,1.6c-.3-.4-.5-1.2-.6-1.3,0,0-1.6-.6-1.8-.9s0-.9,0-1.2c0,0-2-1.2-1.8-.4.1,1.2.4,2.2.3,3.4-.7,0-.7-1.7-.8-1.9-.7-.7-.4,1.4-.8,1.7-.1.1-1.4.1-1.6-.1-.2,0-.2-.1,0-.3,0-1.7-.3-.8-.8-1.5-.9-1.2.5-2,.5-2.2s-.4-.4-.5-.7c-.4,0-.7-.1-.6-.4-2.8.8-3.6-.1-1.5-2l.2-.7c.3-.6.2-.8.3-1.4.4-.3.2-1.1.3-1.6.8.8.7,1.6,1.2,2.5l1.2-.6c.3.7-1.4,2.8-.4,3,1.5.3,1.6-1.9,1.9-1.9.7.4,0,1.5.9,1.4.2-1.5.7-2.8.3-4.4.5-.1.7.4,1,.5.4,0,.7-.4,1-.4s.4.7.9.4c.4-1.5-.9-2-1.2-2.7-.2-.4,0-.9-.3-1.3-.8-1.4-2.5-2.2-1.2-4.1.1.4.4.7.5,1.1h-.1Z"/>
    <path class="st146" d="M251.4,180.3c0-1.3-.7-1.2-.8-2-.1-.7,0-1.6,0-2.3.4.4,1.5,0,1.6,0,0,0,.7,2.3.8.8,0,0,.4,0,.4.4s-.1,1.2-.1,1.3c0,.3-1.3.7-.8,1.3.4.5.6-.4.7-.5,1.2-.6,2.5-.1,2.2,1.4-.1.6-.9,2.1-1.5,1.5v-1.7c-1.9,2.1,0,4.9.4,7.2.1.7-.3,2.3.3,3.2.2.3,2.2,0,1.9,1.4-.3,1.2-1.6-.9-2,.7-.2.8.7,1.3.7,1.8s-.4.7-.4,1c0,.6.5,1.6.2,2.3-.9-.5-2-.6-2.7-1.4v-.5l1.9.6c-.2-.6.6-1.6.4-1.9-.9-2-1.9.2-3.3-.7-2.5-1.6-.8-3.1.3-4.8.1-.2.9-.3.4-.9-.3-.4-1.3-.3-.5-2,.4-.1.9.5.9.5.1,0,.4-1.2,1.2-.8l-1.1-1.1c.2-1.3-.3-2.8.2-4.1-.2-.6-.7-.9-1.3-.4h0Z"/>
    <path class="st146" d="M249.5,179.8c-.4-.5-1.5.8-1.5.9-.1.1,0,.5,0,.7-1.5-.2-.9-1.9-.8-3,.9-.4,2.2.8,2.7-.3,0,.7-.3,1.2-.3,1.6h0Z"/>
    <path class="st146" d="M251.1,181.1c-.2.2-1.5.9-1.6.8-.1-.4.3-.9.3-1.1l1.4.3h0Z"/>
    <path class="st57" d="M235.5,71.3c.4,3,.5,3.4-.5,6.4-.5,1.5-1.2,2.9-1.4,4.6-.2,2.2.4,5.2-.6,7.3-.1.4-.3.8-.8.7-.2-.4-.7-1.4-1.1-1.6-.1-.4,0-1,.2-1.7-.3-.7-.3-1.2,0-1.6-.2,0-.2-.1,0-.3.5-3.2,1.5-6.7,2.8-9.8,1.2-2.8.7-4-1.7-3.5.9-.5,2.8-2.2,3-.5h0Z"/>
    <path class="st119" d="M231.4,85.4c.6,1.1.7,2.3-.3,3.3-.1,0-.4-.2-.5-.3.1-.9-.4-.4-.9-.5-1.7-.4-5.4-1.2-6.8-1.8-.4-.1-.3-.6-.5-.7-.4,0-2.2.7-3,.8-2.2.4-6.3.8-6.6-2.1.7-.7,1.3-1.5,1.9-2.2.8.3.7.9-.4,1.9,1.4,2.2,4.8,1.8,6.8.7,1.9.1,3.7.3,5.6.6,1.2-.7,1.8-.4,2.4.8.8-.1,1.6-.3,2.4-.5h0Z"/>
    <path class="st32" d="M229.2,73.8c1.7-1.2,3.6-1.8,5.5-1.9,0,4.6-2.4,8.1-5.9,10.7-1.5,1.1-3.3,2.5-5,.9-.4.4-1.2.5-2.2.3-6,3.6-8.9-2.5-2.8-5.7,1.3-.4,2.6-.6,3.9-.6v-.3c0-.2.1-.2.3,0,2.3-.7,4-1.8,6-3.3,0,0,.1-.2.3-.3h0Z"/>
    <path class="st83" d="M214.6,81.9c1-1.2,3.8-5.5,5.2-6.1,2-.9,1,.9,1.5,1.5.3.4,1.1.2,1.5.2-.9.7-2.8.6-3.5.9-.1,0-2.2,1.7-2.3,1.8-2.8,2.7.7,4.8,3.1,3.8.4-.2.8-.7,1.3-.8.9-.3,1.8,0,2.5.1,1.2.7,2.6.8,4.4.3.9.8,1.7,1.1,2.8.9l.4.5v.3c-.9.3-1.6,1.6-2.7.9-.3-.2-.5-1.2-.9-1.2s-.7.4-1.1.4c-2.2.2-3.5-.7-4.8-.7s-2.2.9-3.3.9c-1.3.1-4.5-.4-4.9-1.9-.2-.9,1.2-1.1,1-2.2h-.2Z"/>
    <path class="st164" d="M224.4,73.2c1.9,1.7,2.8,1.2.3,3-.1.5-.7.9-1.6,1.1h-.3c-2.9-.3-.4-3.9,1.6-4.1Z"/>
    <path class="st91" d="M198.2,242.5c-.2,0-1.1.2-1.6.3.6-.1,1.1-.1,1.6-.3Z"/>
    <path class="st12" d="M312.5,217.9h-2c-1.4-.1-2.7-.4-4-.6.8-.2,4.4,0,5.1,0s.8,0,.9.6Z"/>
    <path class="st12" d="M311.1,216.2c0,.4-1.2.4-1.5.5-.9,0-3.3.4-3.3-.8l4.9.3h0Z"/>
    <path class="st158" d="M307.3,193h.5c0,1.2.6,4.4,2.2,4,.4,0,1.5-1.1,2.1-1.3s.3-.3.8-.3.6,0,.8.3v.8l-.3.5c.7,1.1.8.4,1.3.7.7.4.6,1.1,1.9,1.2l-.8,1.4c1.2-.4,1.4,0,2.1.2.8.2,1.5-.2,1.7.7.4,2.2-1.3,2.8-1.4,3,0,.5,1.2,1.1,1.3,1.4.1.4-1.1,2.2-.9,3.4,0,1,1.7,2.1.4,2.8-.4.2-.8,0-1.1.1.9-.8.1-2-.3-3-.4-1-1.2-.9-.7-2.5.1-.4.9-.9,1-1.5,0-.5-1.1-1-1-1.9,0-.6,1.2-1.3.7-2-.4-.7-1.3.1-1.7,0-.4-.1-1.5-1.9-1.9-2.2-1.1-.7-1.7.2-1.1-2-.6-.2-.9.4-1.3.5s-.7-.2-1-.1c-.6,0-.1,1.5-1.1,1-.2,0-.3-.6-.5-.7-.4-.2-.9-.3-1.2-.7,0,0-.7-2-.7-2,0-.6.5-1.2,0-1.7h.1Z"/>
    <path class="st97" d="M299,186.5v-.8l.3-.6c-.9-1.6-1.1-3.4-.4-5.4-1.2-.6-1.5-1.2-.9-2.1l-.5-1.2c.7-1.4,1.2-2.6,1.3-4.2.8.7.4,1.5.4,2.3,0,1.3,0,1-.3,2.2-.6,2.7.8,1.9,1,3.3,0,.7-.5,1-.5,1.5s.7,1.6.8,2.5c0,1.2-.4,1.7-1.1,2.5h0Z"/>
    <path class="st143" d="M313.8,196.5c0,.1-.2.4-.3.5-.3-.4-.7-.6.3-.5Z"/>
    <path class="st143" d="M313.8,195.7l-.8-.3c.4,0,.7-.1.8.3Z"/>
    <path class="st96" d="M294.9,202.7c.8-.9.4-2.2.6-3.3.1-.6.7-1,.9-1.5.3-.7-.1-1.6,1.1-1.8.4.4,3.1,2.1,3.5,2,1.2-.2,1.5-1.7,1.5-1.8.1,0,.9.2,1.4.1.7-.1,2.7-1.5,2.8-1.5,1.5,1.4-1.2,1.9-.9,3.3,3-1,1.7,1,2.5,1.8s1.9.9,2,.9c.3,0,.4-.7.7-.9,1-.7,2.1,1,2.9,1.5,1.1.6,2.7.2,2.5,1.8-.1,1.9-4.5,2-2.2,5.1.3.4.7.4.8.4,1.4,1.5-.5,3-1.4,2.3-.1-.1-.9-2.5-1.7-1.2-.7,1,.9,1.7,0,2.5-.1,0-2.4-1.3-2.7-1.3-.6,0-1.2,1.7-1.9,1.8-1.7.1-2-1.4-3.3-1.4s-.7,1.2-.9,1.4-2.9.1-3.3-.5l-.3-.3c-.7-.4-1-.1-1.4.4l-.5-.4c-.4-.4-.1-.6.2-.9.4-2,1.9-2.3,4.6-.8.7-.7,1.3-.8,2.2-.8,1.4-4.1,3-3.4,6.2-1.9.3,0-.7-3.6-1.2-3.9-.4,1.4-.9,2.2-2.5,1.6-1,.7-2.3.9-3.9.3-2.3,1.4-2.9-.6-3.3-2.5-.4.3-.9.8-1.1,1.6-1.3.7-1.8,1.1-2.1,2.5-.4,1.5-.7,4.3.9,4.8.9,1.1-1.3,1.2-2,.6-.7-.5-2-3.3-1.7-4.3.9-1.5,1.1-3.2.5-5.2l.5-.4h0Z"/>
    <path class="st108" d="M314.9,212.2c1.3,0,.7,2.7-1.1.7,0,0,1-.7,1.1-.7Z"/>
    <path class="st82" d="M294.9,202.7c0,1.5.7,2.5.3,4.2-.2.9-1,1.1-.7,2.4,0,.1,1.5,3,1.7,3.2.7.7,1.1,0,1.5-.6.8,0,1.2-.5,1.9,0-1.7-.4-.9.8-1.1,1.1,0,0-2.2,0-2.5,0-.7-.1-.1-.2-1.7-.3-.4,0-.9-.7-1.5-.5,0,0-.1-.2-.3-.3-.7-.4-.9-.4-1.6-.7-1.7-.8-2.6-6.2.7-3.6,1.5-1.7-.9-.7-1.5-1.5-.1-.2-.6-2.7-.5-3,0-.9,1.5-.5,1.7-1.2.1-.4-.4-1.2,0-1.7.2-.4,1.4-.2,1.9-.8.4-.5.7-1.7.7-2.4-.3-.7-.7-1.9.3-1.9.6.8,0,1.6.1,2.4.4,2.3.6,2.5.7,5.2h0Z"/>
    <path class="st112" d="M296.5,162.7c-1.2.5-1.3,1.9-2.3,3-1.4,1.5-3.4,2.1.7,2.5.4,1.2-.9.7-1.1,1.2-.2.7,1.5,1.9,1.5,2.4,0,.9-1.1,1.5-1.2,2,0,.2.2,1.2.2,1.2.2.1,3.2-2.1,2.3.6-.7,2-2.2,3.2-3.9,4.2,0,.9.9,0,1.3,0,1.3-.2,2.5.3,1.5,1.5-.4.6-1.5.7-1.5,1.5,0,.2.8,2,1,2.2s1.7.8.7,1.5c-.6.4-1.7-.4-2.5-.4-.8,0-1.5.3-2.1.2-1.2,0-1.1-1.9-1.7-2.6s-.9-.5-.9-.7c-.1-.7.3-2.5-.1-3-.3-.4-1.6-.3-1.7-.6-.1-.2,0-1.2-.2-1.8-.3-.8-1.5-1.5-2-2.3-.6-1-1.3-4.1-.6-5,.8-.9,1.8-1.1,2.8-1.5.1-.4-.7-.7-1-1.1-.3-.4-1-2-1.1-2.5,0-.7,1.5-2.2,2.2-2.2,1.9,0,1.7,1.7,2.2,1.6,1-.6.4-1.7.5-2.2.4-1,2.4-.6,1.5-2.2h1.1c.3.3-1.2,1.7.4,1.9.6,0,1.9-.7,2.2-1.1s-.8-1-.7-1.7,1.9-1.9,1.5-.5c-.9,2.6.2.8,1.2,3v1.1h0Z"/>
    <path class="st147" d="M297.9,167.9c.1,1.2.7,2.5.8,3.5v.8c0,.7.1,2.2,0,2.8-.1.4-.9.9-.9,1.4s.4.7.4,1.1-.1,1.1,0,1.4.9.2,1,.8c.1.4-.4,2.5-.4,3.2,0,.6.7,1.1.7,1.9s-.5.8-.6.9c.5-1.6-1.5-1.1-1.7-2.3,0-.7,2.3-3.7.6-4.1-.4,0-1.5.4-1.6-.2-.1-.7,1.3-.8,1.4-1.1,0-.6-.7-1.2-.5-1.8.1-1,1.5-2.2,1.2-4.1,0-.8-2.2-4.1-.4-4.2h0Z"/>
    <path class="st31" d="M232.5,71.9c.4-.1,2.6-.7,2.7-.6,0,.9,0,1.9-.3,2.8-.4,1.5-1.1,3.5-1.6,5-.5,1.7-.9,3.5-1.2,5.3,0,.4-.4.7-.7.7-.2,0-1.7.2-1.9.1-.6-.1-.9-.9-1.5-.9-1.2-.1-3.3,1.2-4.2-.8.6,0,1.1.3,1.7.2,2.2-.3,6.5-4.5,7.5-6.4.9-1.6,1.5-3.4,1.4-5.2-1.7-.3-2.8.7-4.1,1.5-.3.1-.9.7-1.1.1.8-.6,2.3-1.6,3.3-1.9h0Z"/>
    <path class="st66" d="M228.9,74.1c-2,1.5-3,3.1-6,3.3.4-.5,1-.8,1.6-1.1.1,0,.7,0,1.1-.1,1-.5,2.1-1.7,3.3-2Z"/>
    <path class="st81" d="M304.6,60.8c3.8,0,4.6,1.4,2.7,4.7-1,1.8-2.2,2.1-3.3,3.3-1.5,1.7-.4,2.5-3.5,2.8-1.6.1-1.5,0-3.3.6-1.2.4-2,0-2.5,2l-1.9-1.7,1.4-.9v-.4c1.2-.4,2.5-.8,4-1.1,0-1.7,1.5-2.8,4.1-3,2.6-.3,4.1-4.1,1-4.6l-.2-.6-.3-.8h1.7Z"/>
    <path class="st81" d="M302.2,60.8s.3,0,.3.3c-.8-.1-2,.3-2.7-.3h2.5,0Z"/>
    <path class="st81" d="M297.1,60.8l-.8.3c.1,0,.4-.2.8-.3Z"/>
    <path class="st104" d="M303.2,61.6c1.9.3,2.6.9,2.4,2.8s-1.2,2.2-2.8,2.9c-.9.4-3,.8-3.5,1.1-.5.4-.3,1.3-.5,1.7-.4.9-3.6.7-4.6,1.2l-3.3-.7c1.6-1.8,6.4-3,6.5-6,0-1.8-1.6-1.3-2.5-1.9-1.2-.8,1.7-1.5,2.3-1.5,1.2-.1,4.5,0,5.8.3h0Z"/>
    <path class="st24" d="M291.1,66.5c.1-1.5,1.6-3.6,3.3-2.7,2.2-.9,3.3,1.2,1.3,2.7-1.8,1-3.6,2.2-5.2,3.5-1.2.9-6.5,3.3-6.7,4.2,0,.1,0,.5.2.7.4.4.9,0,.8.5-1.5,0-2.8.4-4.4.6l-1.1.3h-.5c-3.3.2-6.5,1.2-9.9,1.4-.6-.9.7-1.1,1.5-1.4l.4-.5c3.3-.8,6.7-1.6,10.2-2.2.4-.6.9-.6,1.6-.6-.8.1-1.3,0-1.6-.5-.1.5-.4.5-.5,0-.4-.2-.9-.2-1.4,0,0,.7-.4.9-.8.3-.7.3-1.5.4-2.2.5-.2.8-.9.9-1.4.3-1.5,1-2.8,0-1.1-1.1l9.6-1.7c1.2-.8,2.6-1.2,4.2-1.4,1.3-.7,2.5-1.7,3.6-2.8h0Z"/>
    <path class="st174" d="M294.9,63.3c4.6.7.9,3.5-.9,4.9l-3.3,1.9c.6-.4,1.5-1.8,2.2-2.2,1-.7,4.4-1.5,3.6-3.1-.7-1.6-1.4-.3-1.6-.2-1.2.1-.8-.6-1.3-.5-1.7.2-1.2,1.2-1.7,2-.2.4-.5.5-.6.6,0,.1-.1.1-.3,0,0-1.9,1.3-2.5,2.7-3.3h.3c.4-.2.7-.2,1.1,0h0Z"/>
    <path class="st9" d="M294.9,63.3h-1.1c0-.4,1-.4,1.1,0Z"/>
    <path class="st84" d="M286.6,75.1l-1.1-.3c.4,0,.9-.1,1.1.3Z"/>
    <path class="st169" d="M291.1,66.5c-1.6,2.4-2.5,3.7-5.7,3.6-3.5,1.6-7.6,2-11.4,2.7-1.3,1.4,0,.9.9.7.1.1.3.4.2.7,0,.7-10.5,2.6-12.3,3-.4-.4-.7-.5-1.2-.4-.9.1-3.2.4-3.9.3-.7-.1-.7-.6-.9-1.1,7.8-2,16.3-3.9,24.2-5.4,1-.2,2.6.4,3.4-.7.4-.7-.5-1.2,1.6-1.5h.3c.7-.3,1.4-.5,2.2-.5.9-.4,1.7-.6,2.4-1.4h.3Z"/>
    <path class="st28" d="M254.6,76.5s-.1.4-.5.3c-.1-.6,0-.6.3-.8l.3.5h0Z"/>
    <path class="st41" d="M288.4,67.8c-.8.3-1.3.4-2.2.5.5-.7,1.5-.6,2.2-.5Z"/>
    <path class="st13" d="M281.1,72.4c.9,0,2.9-.4,2,.8-.3.4-1.2.1-1.6.3-3.6,1.3-7.3,1.6-11,2.6-1.5,0-3.1.4-4.5,1-.4.2-.8-.3-.7.9-.1,0-1,.2-1.1.3-.7,0-1.6.1-2.2-.1-.7-.4,1.3-1.7-.5-1.5,3.8-.5,8.2-1.6,12.1-2.6.4-.1.9-.1,1.1-.7.4,0,.9-.1,1.4-.3h.3c.4,1.1,4-.2,4.6-.8h0Z"/>
    <path class="st55" d="M280.6,76c-.2.4-.7.3-1.1.3.2-.4.7-.2,1.1-.3Z"/>
    <path class="st19" d="M280.6,178.9c1.7,0,.7,1.3,1.2,1.9.2.3.9.1,1.2.4s.9,1.2,1.6,1.3c-.4.5-1.2,1.4-1.3,2-.1.9.7,1.2.7,1.6,0,.3-.4.6-.5,1,0,.6.6,1.6.4,2.1,0,.3-.5.6-.4.9,0,.4,1.7.7,2.1.9.5.2.9,1.1,1.5.9.4,0,.3-.8.5-1,0,0,1.2-1,1.3-1,1.2-.8.7.7.9,1.2.3.5,1.8.4,2,1.2,0,.3-.2.6-.1,1,0,.2.4.4.4.8,0,1-.3,3.6-.9,4.5-.3.4-.7.4-.9.7s-.5,1.2-.8,1.3c-.3.1-1.3-.5-2-.4-.6,0-.8.8-1.4.8s-.9-.3-1.4-.3-1,.3-1.3.2c0,0-1.5-.9-1.5-.9-.7-.7-.4-1.6-.6-2.3s-1.6-1.8-1.3-2.9c-.9.2-.9,1.7-1.2,2.1-.1.2-1.2.3-1.3.9l-.4-.7c0-.7,1-4.6,1.3-4.6.1,0,.3,0,.4,0-.6-.4-.4-.8.3-1.2.3-.9.7-1.7,1-2.5l-.6-.5v-3.3c0-1.1,0-1.9.3-2.9-.7,0-.7-.3,0-.5-.8-.4-.3-2.2.5-2.5h.1Z"/>
    <path class="st114" d="M280.8,204.7c-.7.7-1.3,2.7-1.7,3.9-1.5-.9-2.6-2-3.4-3,.3-1.5.7-3.2,1-3.8s1.1-1,1.2-1.5c.3-.6.4-2.4,1.6-2.4,1.9,0,1.1,5.7,1.2,6.9h0Z"/>
    <path class="st109" d="M290.8,189.5c1.1.7,1.4,2,1.9,2.8.9,1.3,2.2.7,1.4,2.8-.6,1.3-.2.6-.3,1.9-.9-.7-.6-2.3-.9-3.3-.4-1.6-1.7-2.5-2.1-4.3h0Z"/>
    <path class="st19" d="M276.5,199.7v-.3c.2-.3.4-.5.5-.8.2,1.5-.5,1-.5,1.1h0Z"/>
    <path class="st80" d="M283,162.4c0-.4.2-.5.3-.8l-.3.8Z"/>
    <path class="st137" d="M251.9,201.6h-.9c-.1,0-.3,1.1-.7.6-.1-.1,0-1.7,0-2.2.4,0,2.2,1.1,1.6,1.6h0Z"/>
    <path class="st46" d="M250,206c-.4-.4.4-1.4.8-.4.2.6-.7.5-.8.4Z"/>
    <path class="st145" d="M257.6,192.2h-.5v-.5l.5.5Z"/>
    <path class="st56" d="M244.9,163.5c.2.4.7.9.6,1.5-.1.8-.9-.2-1.2-.1-.4,0-.6,1.5-.4,1.6,0,.1,2.4-.6,2.5-1.1.6.3.3,1,.4,1.4h-3.3c-.5-1.7.9-2.2,1.4-3.3h0Z"/>
    <path class="st140" d="M247.6,171v1.1c-1.4,0-1.4-1.8,0-1.1h0Z"/>
    <path class="st38" d="M297.6,211.9c-.7,0-1,.4-1.3-.2-.7-1.6-.4-5.5.9-6.8.4-.3.9-.3,1.2-.7s.4-1.3,1.1-1.7c1.5-.7.9,1.8,1.7,2.5s1.3-.1,2-.2c.7,0,2,.4,2.7.4.5,0,.8-.6,1.1-.7.4,0,.9.3,1.2.2.7-.1.7-1.7,1.1-1.9,1.2-.3,2,3.4,2,4.2,0,2.2-3-.7-4.1-.4-1.7.3-1.7,2.7-2.3,3-.4.2-1,0-1.5.2-.4.1-.5.5-.7.7-.9.4-2.6-1.3-3.8-.8-.5.2-.4,1.1-.7,1.5-.1.3-.4.4-.7.6h0Z"/>
    <path class="st48" d="M295.4,161.9c.3.3-.3,1.6-.7,1.6-.9,0-.1-2.4.7-1.6Z"/>
    <path class="st47" d="M253.5,191.7c0,.7.5.9-.1,1.4-.6-.5-1-.8-.3-1.4h.4Z"/>
    <path class="st101" d="M279.2,72.4c.4-.2.9-.2,1.4,0h.5c.2.4.6.6,0,.9-.4.1-4.1,1.1-4.4,1-.4,0-.5-.7-.1-1.1l1.9-.5c.3,0,.5-.2.8-.3h0Z"/>
    <path class="st169" d="M280.6,72.4h-1.4c.1-.4,1.2-.4,1.4,0Z"/>
    <path class="st169" d="M278.4,72.7c-.4,0-1.2.8-1.9.5h-.3c.7-.1,1.4-.6,2.2-.5h0Z"/>
    <path class="st25" d="M281.9,187.3c-.1.9.7.9.9,1.5.4.9-.4,1.3-.3,2.2,0,.4,1.2,2.7,1.5,2.8.4.3,1.2-.4,1.6-.1.4.3.3,1.2.5,1.6.2.3.9,0,1.1.6.4,1.2-.9,1-1.2,1.5-.4.4-.4,1.8-1.4,2-1.6.4-4.2-4-3.8-5.4,0-.2.5-.1.5-.4,0-.3.2-2,.2-2.4,0-1.1-1-3.7.6-3.9h0Z"/>
    <path class="st178" d="M282.2,164.6l-1.1.3c.3,0,.9-.2,1.1-.3Z"/>
  </g>
</svg>