<?xml version="1.0" encoding="UTF-8"?>
<svg id="b" xmlns="http://www.w3.org/2000/svg" version="1.1" viewBox="0 0 510.2 283.5">
  <!-- Generator: Adobe Illustrator 29.4.0, SVG Export Plug-In . SVG Version: 2.1.0 Build 152)  -->
  <defs>
    <style>
      .st0 {
        fill: #e2c29a;
      }

      .st1 {
        fill: #47484b;
      }

      .st2 {
        fill: #251d18;
      }

      .st3 {
        fill: #494c4f;
      }

      .st4 {
        fill: #3e4042;
      }

      .st5 {
        fill: #4f3b24;
      }

      .st6 {
        fill: #444547;
      }

      .st7 {
        fill: #6b5b53;
      }

      .st8 {
        fill: #3a3b3d;
      }

      .st9 {
        fill: #333;
      }

      .st10 {
        fill: #cda888;
      }

      .st11 {
        fill: #907361;
      }

      .st12 {
        fill: #424346;
      }

      .st13 {
        fill: #4b4f52;
      }

      .st14 {
        fill: #af8c74;
      }

      .st15 {
        fill: #4d5154;
      }
    </style>
  </defs>
  <g id="c">
    <path class="st14" d="M243.3,268c5,.1,10.1.5,15.2.6,5.1.1.6,0,.8,0h.6v.3h-48.5v-.3h6.3c7.3,0,14.8.2,22,0s1.1.3,1-.6c0,0,2.6,0,2.6,0Z"/>
    <path class="st11" d="M275.9,268.6v.3h-16.1v-.3h16.1Z"/>
    <path class="st7" d="M210.6,268.6h.8v.3h-3.9v-.3h3.1Z"/>
    <path class="st9" d="M365.6,151.2s.3.2.6.3c0,.6.5,2.1.8,2.5s.8.4,1.4,1.6,0,1.5,1.4,1.4l.3.3c0,.9.8,1.8,1.7,1.9.1.3.4.5.6.8s-.2,1.2.8,1.1c.1.2,0,.5.4.8.9,1.1,1.6.3,1.5,2.5-1.3-.3-1.2.7-1.7,1.7h-1.4v-.3c-.1,0-.6.3-.6.3h-.6v1.7c-.6,0-.9.7-1.3.8s-1.3,0-1.7.1-.2.7-.5.8c-.4.1-.6-.5-.7-.6,0-1.3-1.5-1.4-1.9-1.7s.2-.1-.6-.6l-.6-1.7c.4.1,1,.1,1.4.3,2.5.9,1.1,2.5,1.4,2.8,2.7.4,3.1-.8,4.3-2.7s.5-1.2.8-1.7,2-.8,1-1.8c-1.7-.7-3.2-2.4-4.8-3.2s-.7-.3-1,.3c-.2-1.3-1.1-3-1.7-4.2-.6-1.2-.7-1-1.1-1.7s-.3-1-.3-1.1c.6-.2,1.6,0,1.4-.8h.7q0,.1,0,0Z"/>
    <path class="st6" d="M363.1,167.8c.9.2,2.6.8,3.6,1.1s.2.7.7.6.3-.7.5-.8c.4-.2,1.1,0,1.7-.1s.7-.8,1.3-.8c.1.9,1,1,.8,1.9-1.4.2-2.8.5-4.2.6s-.6.4-.9.4-4.6-.3-4.8-.5,0-.5-.3-.7-.8-.6-.8-.7c-.1-.2-.1-1.1-.3-1.4.1,0,2.5.2,2.8.3h-.1q0,.1,0,0Z"/>
    <path class="st12" d="M347.4,165.2h0c.5.1,0,0,0,0Z"/>
    <path class="st12" d="M347.4,165.2h0Z"/>
    <path class="st12" d="M361.7,170.3c-.1,0-.1-.5-.3-.7s-.8-.7-.8-.7h-1.4s-.1.4-.5.2.5-.5-.7-1.3-.3-1.7.8-2.1c.3.4-.6-1.5-2.2-1.8-1.4-.3-2.1,2.7-2.9,3.5-1-.5-2.4-.9-2.9-1-.2,0-.2,0-.3,0-.2,0-.3,0-.4-.1-.2,0-.2,0-.4.1h0c-.6-.1-1.3-.4-1.9-.5,0,0,0-.2,0-.4l-.2-.3c0,0-.2,0-.3,0-1.1-.2-1.8-.7-2.8-.8,0,.8.3,1.6.7,2.3h0c0,0,0,.6,0,.7-.1.3.5.9.5.9,0,0,.1.1.2.2l-.5.5c0,.1-.7.4.2.6.8.2,1.6-.1,1.8-.8,0,0,.1,0,.1,0,.5,0,1,0,1.5,0,1.5,0,2.9.2,4.4.7.4.1.6.6.9.7.2,0,.7.1.9.1.2,0,4.2.7,5.3.6,0,0,0,0,0,0,.4-.2,1.1-.4,1.4-.8h0Z"/>
    <path class="st7" d="M360.4,171.1s.1.5-.2.6-3.2-.6-3.4-.7-.2-.6-.3-.7c0-.6-.3-1,.6-.7s2.7.7,3.3,1.6h0q0-.1,0-.1Z"/>
    <path class="st4" d="M375.1,164.5v.3c-.1.8-.3,1-.8,1.7-.4,0-.8-.3-.8-.3.4-1,.3-2,1.7-1.7h-.1,0Z"/>
    <path class="st6" d="M372,166.1h-.6l.4-.3v.3h.2Z"/>
    <path class="st10" d="M249.2,67.3c.6,0,.9-.2,1-.2.4,0,1.2.2,1.2.2.2,0,2.5,0,2.7,0l.4,1.8c1.8.4.7,1.9,1.8,2.8s1.6,1.6,2.2,2.1.4,1,.7,1.4c1.4,1.9,2.6,1.2,4.2,2.3s1.7,2.3,2.4,2.6c2.5,1.1,2.1-1.1,2.2-1.2s2.2.7,2.5.9c.6.5,2.7,3.4,2.9,4s-.5,1.1-.4,1.8,1.6,1.9.4,2.1c-2.7.5-1.1.6-1,2.1s-.3,1.4-.3,2.2,1.1,4.2.6,4.7-1.5.7-1.8.7-.7-.5-1.1-.5-1,.4-1.3.3-.3-.6-.5-.7c-.7-.6-.9-1-1.2-1.2-.5-.3-1.2-.2-1.8-.4-1.9-.9-1.2-3.2-3.3.5s-.5.2-.5.4c-1.1,2.1,1.1,4,2.5,5.2.1.6-.9.6-1.1,1.1s0,1.4,0,2c2.2-.8,2.7.5,1.6,2.3s-1,.8-1.3,1.1c-.4.6-.1,2.5,0,3.3s.5.7.5,1.2-.7,1.5.2,1.8,1.4-.5,1.7-.2.1,1,.4,1.3.9.4,1.1.9c.8,1.6,0,3,.1,4.3s.5,1,.6,1.4c0,.7-.6,1.1-.8,1.7-.2,1,0,2.9-.4,3.8s-1.8.8-1.9,1.7,1.3,2.3,1.4,3.1-.5.9-.5,1.3c0,.6,2.3,1.9,2.4,2.2.2.4,0,1.4,0,1.9-.8.3-2.9-.8-3.3,0s.8.3,1.2.7,1.5,2.2,1.5,2.6-1.2,1.3-1.5,1.8c-.5.8-.6,1.8-1.3,2.6.6.7,1.6.3,2.5.5s1.4.9,2.1,1.2,1.9.4,2.6,1,2.1,3.6,1.9,4.1c-.3,1.1-2.6-.6-3.2-.9s-.9,0-1.4-.1-2.5-1.1-2.6-1.8c-.2-.2-1.3,0-1.3.1-.1.4,1.3,3.5-.2,2.5s0-.5-.2-.5c-.6,0-.9.6-1.6.5s-2.4-.7-2.8-.9c-.7-.2-.9-1.2-2.2-.7s1.3,2.3,1.5,2.6c.5.8.5,4-1.1,3.8,0-.2-.5-.4-.6-.6-.2-.4-.5-.8-.6-.8s0-.2,0-.3v-.3c0-.3.8-1-.3-.8v-.3c0-.1.2-.1.2-.4-.4-3.3-3.3-4.4-5.3-6.6s-2.8-3.5-4.2-5-.9-1-1.5-1.1c-.2-.3-.5-1.3-.6-1.4,1.2-1.4-3.2-4.5-4-4.4s-.7.5-1.1.5c-.8,0-2.4-1.2-3.4-1.3-1.5-.2-2.5.4-4,0s-.4-.2-.6-.3c-1-.6-1.3-2-2.8-1.9,0-.7-4.1-4.8-4.9-5-1.9-.4.4,1.8.7,2.1.5.8,2.5,3.1.3,2.6,0,0-.4-.4-.6-.6s0-.3,0-.5-1.6-.8-1.9-.9c-.5-.2-.6.2-1.1-.6s.4-.3-.6-.6-.7,0-1.1-.6,0-.5,0-.6c0-.2-.5.3-.6.3-.5,0-.8-.2-1.1-.6s0-.5-.4-.8-1-.2-1.2-.3c-.4-.2-.9-.6-1.4-.8s-.2,0-.3,0c-.3-.3.2,0-.6-.6s-.9-.4-1.1-.6c-.5-.3-1.5-1.4-2.5-1.9s-.4-.4-.8-.6-.7-.2-1.1-.3c0-.6-.9-1.1-1.3-1.4-1.7-1.3-3.5-2.5-5.1-3.9h-.3c-.2-.6-1.2-.4-1.4-.6s-.3-.6-.8-1.1-.5-.2-.6-.3c-1.4-1.3-3.5-3.6-4.7-5s-.7-.9-1.1-1.4-.9-1.1-1.4-1.7-.5-.7-.8-1.1-.3-.5-.6-.8c-2.3-2.9-4.5-5.9-6.4-9.1s-.5-.7-.6-.8c-.3-.6-.7-1.7-1.1-2.5s0-.5-.3-.8-.5-.6-.6-.8c-.7-1.7-1.7-3.8-2.2-5.5s-.4-1.8-.6-2.5,0-1.3,0-1.4c1.5,5.1,3.6,10,6.2,14.7s5.2,8.3,7.7,9.9c2.5,1.6.9,0,1.3.5.6.7,0,1.5,0,2.1s4.7,5.2,5.3,5.6c1,.6,1.2,0,2,0s2.8,1.8,3.7,2.3c.6.9,0,1.8,1,2.9,1.7,1.7,2.4,0,3.3.3s1.1,1.8,1.6.4c-2.9-2.2,0-1.7.8-2.5s0-1.7.7-1.8c.9-.2.3,1.4,1.2,1.1,0-1.4-.3-2.1,1.2-2.6,3.2-1.1,2,1,2.4,1.4s1.6-.3,2.1-.3c1.3,0,3.7,1.4,4.3,2.6,1,1.9-.4,1.8-.3,3.1,0,2.1,1.8,1.9,3,2.5s1.4,1.2,1.9,1.4c1,.3,1.9,0,3,.3s1.7,1.5,2.5,1.9c3.3,2.1,7.2,4.3,9.9,7s2.4,3.8,3.2,5.1,1.3,1.2,1.3,1.7-.8.9-.5,1.4c.7,0,1.4,1.3,1.8,1.4.7.1,1.7-1.3,2.7.9,1.5-.4,0-1.9.8-2.8,1.7-1.6,4.9,1.2,3.9-3.1s-.6-2.7-.9-3.8-1.3-1.7-1-2.8c0,0,1.7.3,1.9.4.4.3.5.9.7,1,.5,0,1.1-.3,1.6-.3s.8.9,1.3.4c-.2-1.6-3.1-3.8-3-5.3s1.5,0,1.7,0c0-1.1-.6-2.6-.3-3.7s1.6.2,1-1.6-2.9-5-3.2-5.1c-.5-.3-1.1.7-1.7.4s-.5-1.8-.7-2.2-.7-.6-.9-1.1c-.3-.7-.3-1.9-.7-2.6-.7-1.2-1.8-.5-1.3-3s.9-1.4,1-1.8-.5-2.3-.5-3.3-.2-1.1.6-1c0,.7.9,1.7,1,2.4s0,1.8.4,2.9,0,.9.6.8c.8-.4.4-5.2.8-6.1.4-.9,2.2-1.5,2.7-2.2,1.2-1.8-.2-1.1-.7-1.5s.4-4,0-5c-2.1-.6-.8,2.2-1.5,3.2s-2.2,0-2.4.7c-.3,1.5,1.5,2.6,1.4,3.3-.2,1.1-2.2-1.3-2.5.7h-2c-.5-.3-.1-.4-1.3-.9.8-1.4,0-2.5-.2-3.5,0-1.6.3-3.4,0-4.9s0-1-.8-1c1-.9.7-.3,1.8-.3s.7-.3,1.1-.2c.6,0,1,.6,1.6.5s1.1-.9,1.9-.8c0-.6-.6-.8-.6-1.5s1-1.3,1.2-1.8,0-1.6.7-2.2c0,.5.4,2.1.2,2.6s-1.4,1.1-1.3,2c.7.4,1,1.6,1.3,2s1,.4,1.4.8,1.3,1.5,1.6,2.1c1.9-.3.2-2.9,2.4-3s2.1,1.9,3.1,1.6c-.5-1.2.5-2.5.6-3.2s-.6-1.2-.6-1.9c0-1.6.9-2-.8-3.6s-4.1-3.3-5.4-3.4-1.1.3-1.8.2c-1-.2-.4-1.6-2.2-1.1s-.6,0-.6.6c.2,1.2,1.7.8,2.1,1.5.4.7-.4.9-.4,1.1-1.6-.6-2.8-2.2-4.7-1.9-.4,1.1.9,2.3.8,3.2s-1.3,2.5-1.6,2.6c-.4,0-.9-.3-1.3-.2-1.6,0-1.6,1.5-2.9,2.1,0,.8,1,1.1,1.1,1.4,0,.6-.9,1.7.6,1.8,0,0,0,2.4,0,2.7,0,.3-.8.3-.8.4s-1.1,0-1.1,0c-.3-.3.3-2.5.2-3.1-.2-2.1-1.9-1.8-.4-4.7s2.3-1.9,2.5-2.4.6-2,.6-2.1c0-.5-.5-1.9-.9-2-.7-.2-1.8,1.1-1.7-1s1.1-8.2.8-8.6-1.5-2.6-2-2.4c-.8.4-1.5.2-2.1.3-3.4.4-5.7.5-9,2,0-.5.4-.6.6-.8,2.9-1.5,6-1.9,9.1-2.5s.7-.3.8-.3c.9,0,1.9-.2,2.8-.3l1.9.2h0Z"/>
    <path class="st11" d="M253.8,67.3c.7,1.1,1.8,2.3,3.3,1.4.4.2.7.5.8.6.1,1,1.7,1.3,2.5,1.8s1.1,1.3,1.7,1.6c1.6.9,4.4,1.6,6.2,2.7s.8,1.4,1.4,1.9c2.9,2,5.7,2.2,8.7,5.1s2.5,4.2,3.9,6.6.5,1.4.8,2,1.2.6,1.5,1,.5,1.2,1.1,1.7,2.1,1,1.8,0c-.8-1.4-3.1-4.3-3.1-5.8s0-.6.4-.4c1.7.7,2.6,4.6,4.2,6.1s2.1.6,3.1,1.4,1.5,3.1,1.8,3.2c.6.4,1.3-.3,1.9,0s2.4,2.2,2.2,2.9c.6,0,.7,0,.5-.6-.3-1-1.6-1.5-1.6-2.7,1.1-.2,1.5,1.2,2.2,1.5s1,0,1.4.3c1,.6,1.8,3,2.4,3.7s3.1,2,1.1,2-1.5-1.1-2.3-1.5c-1.7-.8-1.8,1.5-1.4,2.6-.3.3-3-1.1-3-1.3,0-.3.9-1.2.6-1.8-.8.3-2.1-1.2-2.4,0-.6,1.8.6,2.1.8,3s-.1,2,0,2.1.6,0,.9,0c.9.3,1.5,4.5,1.8,4.7s1.1.3,1.3.2,1.2-1.1,1.2-1.2c.9-2.1-.9-5.6,2.6-5.2.3.7-.5,1.2-.5,1.6s.6.7.5,1.3-1.7,1.8-1.9,2.3c-.3.9.4,1.8.2,2.7s-.9,1.2-.8,2.5c0,4,3.1,7.2,3.9,10.9-.3.3-1.6-1.2-2.2-.8-.5,2-2.3,5.5-1.9,7.6s.6,2.3.7,2.4c.1.2,1.7,1.3,1.9,1.9.7,1.6.1,1.1,1.4,2.8,1.3,1.7.8,2.2,2.1,1.5s-.2-2.2.7-1.8c1.4.6,1,3.7,1.8,5,.8.1.3-.8,1.4-.5.2,2.9,1.5,1.6,2.2,2.1s1.8,2.8,1.9,3.1,0,.4-.4.4c-.8-.1-1.7-.2-2.4-.4s-1-.8-1.6-.9-2.2.1-2.3,0,0-.8-.3-1.2c-.5-1-1-1-1.7-1.5-1-.7-2.4-1.5-3.3-2.2-2-1.6-3.9-3.7-5.8-5.4s-6.9-3-5.9-6.8l-.6-4.4c-1.4.2-.8,2.2-1,3.2-.2,1.6-.5.5,0,2.6s-.3,1.2-.6,1.7,1,4.1,1.5,4.9c.7,1.3,2.8,2.9,3,3.5s0,.8,0,1c-.6-.3-1.6-.5-2.1-.8s-1.6-2.5-1.8-2.6c-.6-.3-1.1.2-1.5,0-1.3-.2-.9-3.4-1.4-4.4s-.8-.5-1.1-.9-.7-1.8-.7-2.1c-.2-2,1.5-.7,1.7-1s-.6-2.7-.6-3.5c0-1.2.9-1.6.5-3s-.7-.9-.9-1.3c-.4-1-.5-2.4-1.7-3s-2,1.1-2.9-.4c-1.6-2.7-.1-5.1-.9-7.4s-.9-.4-1.2-.7c-.7-.7-2.4-5.6-.6-5.2s3.1,2.8,4.2,3c.2,1.4,1,3,1.2,4.3.4,1.8-.5,5,2.2,4.6-.4-.7,1.8-4.6,2.1-4.7.9-.2,3.1,1.5,4.2,1.2s1.5,1.1,1.5-1.8c-1.4-.8-.8,1.6-1.9,1.5,0-.9.5-1.5,0-2.4s-1.1-.5-1.5-.7-.3-3.8,0-4.5,1.1-.5,1.2-.8c.2-.8-.4-2.9-.3-3.3.2-.6,3,0,1.8-2.6s-1-.7-1.4-1.1-.3-.8-.6-1.1-1.9-1.2-2.2-1.1-.3.8-.6.8c-.6,0-1.2-.3-1.6-.3s-.4.6-.6.8c-1.5,1.1-1.1-1.3-1.2-1.4-.2-.2-4.9,0-5.7-.5s-.3-1.3-.5-2-1-1-1.2-1.6.4-1.5.2-2.4-.7-.8-.8-1.2c-.2-.6.3-1.2.1-1.8s-.7-.8-.9-1.3-.7-2.4-.5-2.8.8-.6.9-1c.3-1.1-2.1-2.5-2.8-3.5-1.5-1.5-5.2-3-6.5-4.3s-.6-1.3-1.1-1.6-1.3-.2-1.9-.4-.4-.6-.7-.8c-1-.7-1.7.8-2.4.6s-.5-1-.8-1.4c-1-1.2-2.7-2.1-3.5-2.9s-.3-.9-.5-1.1-3.2-.7-4-1-.2-.8-1.9-.8-.4,0-.6,0v-.8c1.2,0,2.2,0,3.3.3l.2-.6h0ZM295.9,102.2c.3-.3-.5-1.4-.7-1.6-.6-.8-1.9-2.4-2.5-3s-.4-.7-.8-.6c-.8.7-.9,1.3-.3,2.2s2.8,2.7,3,2.8c.3.2,1.1.4,1.3.3h0ZM297.2,123.2c-.2-.4-1.9-1.3-2.1-1.9-.9-.2-.7.8-1.1.8s-2.3-1.3-2.1,0,4.4,3.8,4.9,4.5c1.7,0,.6-1.2.4-2.1s0-.7,0-.9c.7-.2.5.6,1,.8s1.1,0,1.4.3.1,2.9.8,3.1.6-1.1.7-1.1c.1,0,.9.5,1.1,0-.5-1.3-1.6-2.3-1.4-3.7-1.3.7-2.4-.4-3.6.3h0q0,0,0-.1ZM301.7,141.5c.5-1.8-2.9-2.3-3.5-3.3s.5-1.3.4-2-2-4.5-3-3.5.3,3.7.1,4.4c.8,1.3,2.5,1.7,3.6,2.5s1.1,2.1,2.4,1.9h0Z"/>
    <path class="st7" d="M220.6,43.1c0-.8-.8-3-1-4.3-.1-.9-.6-2.6-.3-4.3.3-1.5-1.4-3.6-1.9-4.2-.8-.8-2-3.1-2.2-3.4-.8-2-1.4-4.4-1.8-6,0-.5-.3-.9-.5-1.6,0-.2,0-.2-.4-.7l-.7-.9c0,0-.3-.2-.9-.5-.8-.4-1.8-.6-1.9-.6-.4,0-1.4-.2-1.6-.2-.4,0,.1.5.4.8.2.9,1,1.2,1.7,1.5-.3,0-.6.3-1,.9-1.2,1.7,1.3,5.1,1.4,6.7,0,1-.9,1.5-.4,2.6,0,0,.1.1.2.2,0,.2,0,.3.1.5.2.2,1.6,1,2,1s-.7-.2,1.1-.5,2.3,2,3.1,3.1c.4.5.5.9,1.1,1.9,0,0,.6,1.6.5,2.7,0,.7.2.9,0,2.2-.2,1.3-2.1-.2-.7,3.2,1.4,3.4,1.2,5,.7,8.5,0,.6-.2,3.4-.3,3.4s-1.2-.2-1.4,0c0,0-.4,1.8-1,2.7s-1.6,1.4-2.3,2.1c-.5.5-.8,1.7-1.4,2s-1.1-.6-1.7-.4c.2,2.3-1.4,2.6-3,3.3l-.6.3c0,0,.5,0,0,.6s-4.8,1.1-5.4,1.5c-.3.2-.5,1.1-1.1,1.2,0,0,0-.2,0,.3s-.2.9-.8,1.1c0,.2.3-1.2-.3.6-.6,1.8-1.6,3.3-1.3,5.1,0,.7.3,2.7,1.6,5,.2.4.4.8.7,1.2,1.6,2.5,4.2,4.5,7.3,6.3,3.1,1.8,6.2,2.5,9.8,2.2.4-.4.9-.6,1.4-.6,0,0,.3-.2.3-.3-.7,0-1.3,0-1.9,0,.4-.3.8-.5,1.3-.5,0,0,.3-.2.3-.3-4.2.2-6.6.4-10.3-2,0,0,0,0,0,0,0,0,0,0,0,0,0,0,0,0-.1,0-.2-.2.3-.3-.2-.6-.5-.3-1.4-.5-1.4-1,0,0-.2,0-.3,0-.5-.2-.7-.3-.9-.4,0,0,0-.2-.2-.2,0,0,0,0,0,0-.1-.2-.1-.4-.4-.7,0,0,.2.7-.7-.3-.4-.4-.8-1.1-1.3-1.9-.5-1-.9-2-1.1-2.6v-1.1c0,0-.3,1.2-.3-.5s.5-2.1,1.1-3.4c.2-.5,0-1.2.5-1.8.2-.2.2.3.6-.2s0,.2.8-.8,1.6-2.4,2.8-3.2c.5-.3,4.7-2.6,5-2.6.8-1.4,2.4-2.4,3.6-3.5.5-.5.4-.5,1.1-1,.2-.2.6-.2.8-.3.2,0-.3,0,.6-1s2.5-3,3-4,.8-3.5,1.2-4.5c0-.2,0-2.4,0-2.5-.2,0-.2-3.4-.9-5h0Z"/>
    <path class="st7" d="M205.4,84.6h0Z"/>
    <path class="st7" d="M205.4,84.6h0c.8.4,0,0,0,0Z"/>
    <path class="st7" d="M253.8,67.3c2.2.3,1.6.4,3.3,1.4-1.5.9-2.6-.3-3.3-1.4Z"/>
    <path class="st14" d="M250.4,67v.8s-.3.4-.6.3-.7-.9-1.3-.8c.6,0,1.1-.3,1.9-.3h0Z"/>
    <path class="st14" d="M245.7,67.6s-.4.2-.8.3c0-.7,0-.6.7-.6v.3h.1Z"/>
    <path class="st7" d="M344,123.2v.6c-1.2,0-2.9-1.4-3.3-2.5,0,0,.1-.3.5-.2.8.3,2,1.6,2.8,2.1h0Z"/>
    <path class="st0" d="M326.3,110.5h-.3c-.3-.2-.6-.2-.8-.3,0-.6-.4-.7-.7-1.1-.7-.6-5.6-3.9-6.2-3.4.1,1-.5,1.8-.2,2.8s2.5,3.7,3.2,4.9.3,1,1.6,2.3,1.1.8,3,1.7.9,1,1.3,1.2c2.1,1,4.5,1.9,6.6,2.9s2.1.7,2.2,1.7c-4.4-.4,1.2,4.6,2,5.9,2.3,2.3,6.1,2.3,8.3,4.7l2.2,1s.5,0,.7.3.1.9.1,1.4c-.5,0-.7-.4-1.3-.5s-1.2,0-1.8,0c-1.7-.4-2.9-1.8-5-1.3v1.7c-1.1-.2-1.3-1.6-2.1-2.2s-1.8-.6-2.4-1.2-1.8-3-2.6-3.9-1.1-.7-1.6-1.1c-.7-.6-1.1-2-2.3-1.8v1.1c-1,0-.6-1.2-1.1-1.8s-1.5-.9-1.6-.9c-.4,0-.8.3-1.2,0s-2.5-3.5-2.2-3.8.8,0,1.1,0c.9-.6,0,1.6-1.5,2.4s-.1-3.6-.2-3.4-.7,0-.8,0v-1.4c0-.4.2,0,0-.6s0-.3,0-.5-1.6-1.2-1.6-1.2c.2-.8-.8-.7-1.2-1.1s-.7-1.1-.8-1.1v-.6c0-.4.1-1.1,0-1.5s-.5-.2-.6-.2c0,0-.4,2.3-.6,2.1-.5-.6-1-1.5-1.4-2.1s-1.3-1.2-1.8-1.7-1.7-2.5-2.1-3-1.6-1.3-2.7-2.1-5.9-4.6-5.8-5.4c.9-.4,5.2-.8,5.6-.8s4.1,3.3,4.5,3.4.7.7,1.1.9c1.8.9,3.2,1.5,4.9,2.6s.9,1.1,1.5,1.3,1.4,0,2.1.4,2,2,2.3,2.4.2.9.3,1h-.1,0Z"/>
    <path class="st1" d="M318.6,111.6s.5,0,.6.2,0,1,0,1.5l-.8-.3v-.3c0-.4,0-.8.3-1.1,0,0-.1,0-.1,0Z"/>
    <path class="st4" d="M331.9,114.9c-.6-.4-1.6-.4-1.7-1.4.5.3,1.7.4,1.7,1.4Z"/>
    <path class="st4" d="M327.2,111.3c-.3-.2-1.2.2-1.1-.8h.3c0,0,.8.4.8.8Z"/>
    <path class="st4" d="M329.1,112.7c-.6,0-1.1,0-1.1-.8.6.4.8.6,1.1.8Z"/>
    <path class="st14" d="M335.6,133.1c.7.2.5.4.8.6-.2,1.3,1.1,1.5,1.7,1.9s2-.9,1.8-1.7c2-.4,6.4,1.6,8.5,2.3,3.9,1.6,7.3,5.5,10.8,7.2s1.9.2,2.5.8,2.9,2.2,2.8,2.5-.6,2.4-1.1,2.7-.8,3.6-1.5,3.8c-2.1-.4-2.4,2.9-4.3,2.7s-6.5-1.8-8.8-1.4-5.3-1.5-6-1.3c-2,.7-5.9,1.7-8.1,1.8s-7,1.5-8.6.3c-.8,0-.9-1.8-.8-2.4.1-1,1.9-.9,1.7-2.1-.2-2.1-1.7-2.3-1.7-2.7-.1-.8,0-.9-.6-1.6s0-2.6.4-4c0,0-.6-1.9,1.6-1.7,1,1.6,1.5,2.5,3,3.9s1.2,1.2,2.4,1.7.5-1.2.4-1.5-1.2-2.7-1.3-2.9c-.2-.4-.9-.5-1.1-.8s.2-.9.1-1.5-.7-1.2-.8-1.3c.3-1.1-.9-2.8.1-3.6s1.5,0,1.8-.3,0-1.6.8-1.8,2.5.3,3.1.5l.2-.2h0Z"/>
    <path class="st1" d="M366.2,148.1c.2.3.6,1.2.8,1.7s-.2,1.2.8,1.1c.1.3.3.5.3.8-.5-.1-1.4-.2-1.9-.3s-.5-.3-.6-.3c.2-.3,1.2-.7,1.1-1.2s-2.6-3-2.9-2.9c-1,.2.4,2.1.1,2.5s-2.4.3-2.2,1.2c.3,1.6,2.6.5,3.3.4.2.8-.8.6-1.4.8,0,0,.2,1,.3,1.1-1.8,0-.6,1,0,1.4s.9.8,1,.2c.6,1.2,1.5,2.8,1.7,4.2s0,2.3,0,3.3c0,0-.8.5-1.2.6-.9.2-2.4,0-2.1.8h-.6c-.1-.2.3-.9.2-1.4-.2-.8-.9-.7-1-.8s-.2-.4-.3-.6c-1.7-2-5.3-5.6-7.7-6.9-2.4-1.3-2.2-.6-3.2-1.2s-.4-.7-.7-.8c-1.1-.4-.8.3-.9.6s-.2.8-.3.8h-.6c-.3.4.7,1.6.8,1.9s.3.5.3.6c0,.3-.3.5-.3.6h-1.1c-.3-2-2.5-1.7-3.6-3,.2,0,.3-.4.9-.3s1.1.7,1.8.6c0-.6-.4-1.2-.3-1.8s.6-.1.6-.3c0-.5-.7-.7-.6-1.2,3,0,6.8,3.1,9.8,2.4s2.2-.8,2.4-.9c1.6-.8.6-2,1.1-2.5s2.1-.2,2.4-.7,0-2.4.4-3.1c.5-.4,2.8,2,3,2.5h.4q0,.1,0,0Z"/>
    <path class="st3" d="M330.2,127.1v-1.1c1.2-.2,1.7,1.2,2.3,1.8s1.1.7,1.6,1.1c.8.9,1.9,3.3,2.6,3.9s1.8.6,2.4,1.2,1,2,2.1,2.2c0,1.2.5,1.1.6,1.4.3.8.2,1.6.8,2.3-1.7,1.4-1.4-.6-2-1.4s-2.2-2.2-2.7-2.6c-.2-1.2-.9-1.4-1.7-1.9s-.1-.3-.8-.6c0-.5-.9-1.1-1.3-1.4-2.1-1.5-4-2.1-4-5h.1q0,0,0,0Z"/>
    <path class="st1" d="M334.6,153.1c1.6-.4,2.3.4,3.2.3s1.1-.6,1.7-.8,3.5,0,3.9.2,0,.4,0,.5c.5,1.3,1.7,1.7,1.9,2.8-2-.4-2.4-2.7-4.7-2.8s-1.8.1-1.7.8c-.4-.2-2.1-.2-1.7.6,0,0-1.2-.8-1.3-.8-.6-.2-.8.2-.9.2h-2.5v-.6c1.5,0,1.5-.4,1.9-.6l.2.2h0Z"/>
    <path class="st6" d="M344.7,153.3h-.1c-.1,0-.2,0-.2,0h-1.1s-.4,0-.4,0c.5,1.3,1.7,1.7,1.9,2.8v.3c.1,0,.2,0,.3,0h0c.2,0,.3,0,.5.1.4.1.8.3,1.1.4.2,0,.4.1.5.1s.1,0,.2,0c0,0,.1,0,.2,0,.5,0,.6-.5.6-.5-.3-1.9-3.5-3.1-3.5-3.1h0Z"/>
    <path class="st12" d="M347.1,130.4c.1,0,1.8,2.6,1.8,2.8.2.8-.4.9-.4,1.1-.6-.4-1.2-2.4-1.7-2.6-1-.6-2.4.9-1.4-2.1.4.3,1.5.7,1.7.8h0Z"/>
    <path class="st7" d="M344.6,123.8c.4.2,1.1.6,1.4.8s.7,1.2,1.1,1.4v.8c-1.5-1.1-1.4-1-2.5-2.5v-.6s0,0,0,0Z"/>
    <path class="st9" d="M367.3,149.8c.8-2.5,2.4,1.4,3.3,1.8s3.2,0,4.2-.7,1.2-1.8,2-1.6-.5,1.9,0,2.5,1.8.8,1.9.9c.3.3.4,2.2.3,2.6-.1.7-.6.6-.8.8s0,.5,0,.5c-.5.5-1.2.8-1.9.8h-1.1l-.3-.3c.7-1.1-.2-.8-.3-.8-1.2-1.4-1-.7-2.2-1.4s-.8-.2-.8-.3-.9-.9-1.1-1.1c.2-1.1-.4-.8-.8-1.1-.7-.4-.6-.3-1.4-.6,0-.3-.2-.6-.3-.8-.2-.4-.2-.8-.6-1.1h-.1q0-.1,0,0Z"/>
    <path class="st14" d="M368.1,151.7c.8.2.7.1,1.4.6,0,.7.5.8.8,1.1s1,1.1,1.1,1.1c.1.4.7.9.8.3,1.3.6,1,0,2.2,1.4-2,.9-.4.6.3.8s.3.2.3.3c.2.3.2,1.1.5,1.6.6,1,1.6,2.2,2,3.4s.3,2,.2,2.2c-.3.5-2.2,1.1-2.7.3v-.3c0-2.2-.6-1.4-1.5-2.5s-.3-.6-.4-.8c-.2-.3-.1-.9-.8-1.1-.2-.4-.4-.6-.6-.8-.7-1.2-.8-1.1-1.7-1.9s-.2-.2-.3-.3c-.4-.4-.7-1.1-1.4-1.4-.6-1.2-1-1-1.4-1.6s-.7-1.9-.8-2.5c.5,0,1.5.2,1.9.3v-.2q.1,0,0,0ZM375.8,160.4c-.3-.4-.9-1.6-1-1.6-.3-.2-1,0-1.4-.6s-.2-1.7-.6-1.9-1.1.3-1.4,0c-.5-.4-.3-2.7-1.6-2s-.2.7-.9.5c-.3.3,2.8,3.2,3.2,3.6s.5,1.2.8,1.5,2.3,2.5,2.5,2.6c.5.3.9.3,1.5.3.2-.1-1-2.1-1.2-2.4h.1,0Z"/>
    <path class="st1" d="M378.1,156.5c1,.4,2.1.3,3.2.6s.9,0,.4.5-3.7.5-4.6.3-1.1.2-.9-.6c.8,0,1.4-.3,1.9-.8h0Z"/>
    <path class="st4" d="M367.9,150.9c-1,0-.7-.8-.8-1.1h.3c.3.3.4.7.6,1.1h-.1Z"/>
    <path class="st5" d="M262.6,252.3c.1,0,1.7-.3,1.9-.2.4.2,0,1.5,1.1,1.6s1.4.1,1.7-.3h2.3c.3,0,.4-1.1,1.3-.8v2.5c2.2.3,4.3.8,6.5.6v-1.1c.6,0,1.3.4,2.1.3,0,1.8-2.3,1.2-1.9,3.3.7.2,1.4-.2,1.9-.3l.3,1.4c-1.6-.3-1.8.5-1.9,1.9h-.8c-1.1,0-1.5.2-1.9,1.1s0,.3.3.7,0,.5,0,.6h-1.7c.2.8,1.2.3,1.7.8-.7,0-2.8-.1-3.2.3s-.3,1.3-.5,1.7-3,1.2.4,1.7,2.1,0,2.8,0,.2-.1.3-.3h.6c.2,0,.2.2.4.2.9-.1,1.4-1.5,2.1-2.2s2.3-1.3,3-1.8.9-2.3,2.2-2.6c.3.3,1.4.9,1.8.8.8-.2.6-1.2.7-1.3,1.8-2.5,3.2-.1,4,0s0-1.2,1.1-.8,1.5,2,1.5,2.1c.4,1.7-1.8,1.9-1.9,2-.2.2,0,1.5,0,1.6s-1,0-1.1,0,0,2.3,0,2.8h-29.7c-5.4,0-.4,0-.6,0,0-.6,0-.9.3-1.4h.3c2.3-.1.6-.5.5-.7s0-1.1,0-1.3c0-.3,1.2,0,.8-.6s-2.1-.7-1.2-1.2,1.1,0,.9-.8c-1.4.5-1.5-1.1-.9-1.1s2.2.7,1.8-.1-2-.5-2.2-.7,0-.6,0-.8h2.5l-1.5-1.6c-1.5-.4-.8-.6-.7-1.5h2.2c0-1.2-2.5-1.1-2.8-1.4-.6-1,1.2-1,1.9-1.4,1.3-.6,1.2-1.5,1.4-1.7h-.1ZM264.3,258.9v.7c.5,1.2,6.3.4,7.6,1,.7-.3,2.4-.1,2.1-1.3.5,0,2.6-1,1.9-1.7-2.5-.2-4.9,0-7.4,0s-4.4-1.3-4.3,1.4h.1q0-.1,0,0ZM286,265.8c.3.5,1.7.8,2.3.3s1-2.4,1-2.8c0-.9-.9-3.4-2.1-2.4s-1.4,1.8-1.5,1.9.2,2.9.3,3.1h0ZM271.8,261.1c-1.8.5-6.2-.8-7.6,0s-.4,1.6-.4,1.8c.3,1.3,2.9.3,3.7.2s2,.1,2.7,0,1.8-1.7,1.6-1.9h0ZM266.5,264.5c-.2-.3-2.1-.4-2.4,0s-.8,2.8-.3,3.1c1.6,1.1,3.5-2.2,2.8-3.2h-.1q0,.1,0,0Z"/>
    <path class="st2" d="M280.4,254.5c1.6,0,2.8-.3,4.2-1s1.9-.1.7-.8-1.4-.2-1.3-1c.9-.3,2.4-.1,3.1-.5s.7-2.3,1.3-2.6.9,0,1.4-.3.7-.8,1.2-1,3.9-1.2,4.1-1-.3.8-.2,1.2c.1.6,1,.6,1.1.9.1.5-.3,1.2-.2,1.6.1.7,2.2,1.5,1.9,2.7-1.7.3-3.4,3.2-3,5,2.4,0,2.6-2.4,5.3-1.9s2.6.6,3.5.8.8-.2.6.6c-1.8,0-3.5,0-5.3.3-.4,2.1,2.7,1.3,4.2,1.4s.4,0,.6,0h.8c.5,0,1,.3,1.1.3l.6,1.4c-1.2.4-2.3.2-3.5.3s-.7-.1-.7.8h-1.1c-2.3.1-1.3.5-2.1.8s-.9,0-1.2.2-.2,1-.3,1.4-1.6.4.1.7,2,.2,2.1.3c.5.6-.4,1.1-1.1.8.2.9,2.4.4,2.7.9l-.2,2.2h-11.1c0-.5-.1-2.7,0-2.8s1,0,1.1,0-.2-1.4,0-1.6,2.3-.3,1.9-2-1.4-2.1-1.5-2.1c-1.2-.4-.3,1-1.1.8s-2.2-2.5-4,0c-1.9.2-.8-.5-.8-1.2s-.6-.1-.6-.3c0-.3.5-.8,0-1.1s-2.7.5-2.8-1.2h4c.2,0,.6-.7.4-.8s-1.6-.1-2-.3-.3-.7-.9-.8-2.9.5-2.9-.5v-.6q-.1,0-.1,0Z"/>
    <path class="st9" d="M300.6,261.4c.3,1.5,1.9,1.5,3,1.4l-.6,1.3h-1.6c-.3,1.7,1.9,2.2,3,2.5,0,0-.3.2-.7.3-1.8.2-1.8-.7-2.1,1.6h-1.1l.2-2.2c-.3-.5-2.6,0-2.7-.9.7.3,1.6-.2,1.1-.8s-1.7-.2-2.1-.3c-1.7-.3-.2-.5-.1-.7.1-.4-.1-1.1.3-1.4s.9,0,1.2-.2c.8-.3-.1-.7,2.1-.8v.2q.1,0,.1,0Z"/>
    <path class="st5" d="M305.6,266.7c2,.5,1.4.3,3.3.3s1,0,1.4,0,.7.4,1.1.3l-.3,1.1c-3,0-6.3.3-9.4.3.3-2.4.3-1.4,2.1-1.6s.6-.3.7-.3h1.1q0-.1,0-.1Z"/>
    <path class="st11" d="M244.1,260c1.6.5,3.6.3,5.3.3s5.4-.2,7.8,0,2.4.5,2.5.6c.6.6-1,.6-.8,1.2s1.1.5,1.1,1c-3.1,0-.9.7-.2,1.4s-.5.4-.9,1c-.9,1.4.7,1.2.2,1.8s-1.3,0-.6,1.4c-5.1,0-10.2-.4-15.2-.6l13.3-.3c0-.4-.7-.5-1-.5-1.1-.1-3,.2-3.8,0s-.4-.7-.5-1.1h2.5c0-1-1.6-1-2.3-1.1s-2.2-.2-2.9.3h-.8c-.9,0-1.8-.1-2.8-.3s-.2,0-.3,0c0-.6,0-.9.6-1.1,1.7.1,3.8,0,5.5,0h5c0-.3,0-.6,0-.8s-2.9-.5-3.5-.5c-3.2-.2-6.5.1-9.7,0,0-.8.3-.8,1-.8,2.1-.2,5.5,0,7.8,0s2.9.5,4.4.3.5,0,.4-.6c-4.8-.5-9.6-.1-14.5-.6s-1.5,0-1.3-.8h3.9v-.2q0,0,0,0Z"/>
    <path class="st7" d="M248.5,265.3c.7-.4,2.1-.4,2.9-.3s2.4.1,2.3,1.1h-2.5c0,.4-.2.9.5,1.1s2.7,0,3.8,0,1,.1,1,.5l-13.3.3h-2.5c-2.5,0-5-.2-7.5-.3-.7-2.7,2.5-2,4.4-1.9,3.3.1,6.8.3,10,.3h3.6v-.6c0-.1-1.6,0-2.1,0s-.6-.3-.7-.3h0q0,.1,0,0Z"/>
    <path class="st11" d="M217.8,267.8h15.5c2.5,0,5,.2,7.5.3.2.8-.4.5-1,.6-7.2.2-14.8,0-22,0-.6-.7-3.5,0-3.9-.3s0-.4,0-.6h3.9Z"/>
    <path class="st7" d="M259.6,250.3c0,1.3.4,2.3,0,3.6h1.7c-.7.4-2.6.4-1.9,1.4s2.8.2,2.8,1.4h-2.2c0,.9-.7,1.1.7,1.5l1.5,1.6h-2.5c0,.2-.1.6,0,.8.2.2,1.9.1,2.2.7s-1.6.2-1.8.1c-.5,0-.5,1.6.9,1.1.1.8-.6.6-.9.8-.9.5.9.7,1.2,1.2s-.8.2-.8.6v1.3c0,.2,1.8.6-.5.7s0-.4-.3,0-.3.8-.3,1.4h-.8c-.7-1.4.4-1.1.6-1.4.4-.5-1.1-.4-.2-1.8s1.6-.4.9-1-2.9-1.3.2-1.4c0-.5-1-.5-1.1-1s1.4-.7.8-1.2-2.2-.5-2.5-.6l.3-.3c.9,0,1.5-.2,2.2-.3-.1-.4-1.2-1.9-1.5-2.1s-2.3-.4-1.6-.9,2.8,0,3.3,0v-.5c-.3-.3-2.5-.8-3-.9.2-1.3-1.5-1.2-2.4-1.4s-1.1.3-.9-.6c1,0,3.5.2,4.2,0s.2-.5.2-.6h1.1l-1.1-1.1h1.1c.2-.2-.5-1.6.6-1.4l-.2.3h0Z"/>
    <path class="st7" d="M213.9,267.8v.6c.4.3,3.3-.4,3.9.3h-5.5c-.2-.4-.9-.3-1.4-.3-.4-1.2,1.1-.9,2.1-.8s.8.3,1,.3h0Z"/>
    <path class="st3" d="M212.2,268.6h-1.6v-.3h.3c.4,0,1.2-.2,1.4.3h-.1Z"/>
    <path class="st2" d="M295.5,163.1s0,0,0,0c0,0,0,0,0,0Z"/>
    <path class="st2" d="M295.5,163.1s0,0,0,0c-.1,0,0,0,0,0Z"/>
    <path class="st2" d="M314.5,161.8c-.4-.2-3.7.4-4.7.1-1-.3-5.7-2.4-6.5-3s-.8-1.6-1.6-2-1.7-.1-2.5-.3c-.6-.1-2.1-1-2.7-1.3h-.6l-.2.2c-.8-.1-3.2-.8-3.8-1.1s-1.6-1.5-2.3-1,.2,3,.3,4.5.4,5.1-1.7,5.1v.6c0,.6.1,1.1-.8,1.1v.3c0,.1-.3.6,0,.8s1.1-.9,1.9.8-.9,3.3.2,6.7c1.1,3.4,3.7,6.8,5.1,9.9.8,1.8,1.2,3.9,1.8,5.7.2.6-1.4,0-1.4,0,.5,1.4,2.1,5.1,2.2,6.2.7-.2.5.4.7.8.2.4.7,1.1.7,1.8s-.6.9-.6,1.5c1.4-.1.9.1,1.1.6.1.4.6,1.5.8,1.7s.5-.4.6.6v.8c.8-.2.6.5.8,1.1.8,0,.6-.1.6-.8.8-.7,2.1,3.8,2.7,4.1l1.7,6c0,.3-1.2,0-1.4.1,0,0,.1.7-.4.8s-1.3,0-1.8,0c-.1,1.1,2,.3,2,1.5-.6,1.5-1.1,3.5-1.4,4.6-.3,1.1-.7.7-.8.8v.8s.4.1.2.5c-.1.2-.6,1.4-.8,1.4s-.4-.1-.5,0l-.3.3c1.2,1.7-.2,1.4-.3,1.8-.1.4.4,1,.3,1.5-1.8-.3-.8.7-1.1,1.1h-1.2v.8c0,.1.9.1.4.6s-2.5.7-2.6,1.5,1.4.1,1.4,1.1l-1.4.4-.3.3v.3s.3-.4.3.4-.6,1.3-1.4,1.5h-.8c.1.2.2.5.3.6s.5.3.3.8c-.5-.1-1.1.6-1.4.6-.3,1.3,2.7,1.9,3.3,1.9h2.2v-.8h-.8c-.1,0,.2.3-.6.2s-.8-1-1.9-.7c-.2-1,1.5-.6,2.2-.6s.3.2.3,0-.2-.4,0-.6.4.3.6.3h.6v-.8c-.1,0,.1.1-.3,0-.4-.1-1,0-1.1-.6,1.9-.2,1.4-1.2,2.1-2,.7-.8,2.7-.6,2-1.9l-1.8-.5c1.1,0,2.1.3,2.8-.7-1.4-.4.7-.4.3-1.5-.3-.1-.8.2-.8-.3,1.2-.2,2.9-1.8,3-3,.1-.7-1-.4-.8-1.2.3,0,.9.5,1.4,0s-1.1-.8-.6-1.1,3.9-8.8,4.7-11c0,0,0,0,0,0,0-.1,0-.2,0-.3-.1-.3-.3-.7-.6-1.2-1.7-3.7-3.3-7.4-5-11.1-.5-1-1-2.1-1.4-3s-.7-1.5-1.1-2.5c-.8.2-.5-.2-.8-1.1-.3-.9-.8-1.9-.8-2.8-.8.2-.9-1.7-1.1-2.5-.7-.1-.9-.9-1.1-1.7v-.6c-.6.2-.8-.9-.8-1.4v-1.1c-1.3-.9-1-2.5-1.4-3.6-.1-.2,0,.1-.3-.6s-.9-1.9-1.1-2.5c-.2-.6-.6-1.7-.8-2.2s-.2.1-.8-1.7-1.1-3.5-1.4-5.3c-.1-.4-.3-.6-.3-1.1v-1.7c0-.4-.5-1-.2-1.6.7-.6,1.7,0,1.9,0h.8c.2,0,.9-.7,1.3.2.1,0,.4,0,1.2.1,2.1.3,4.3.4,6.4.8.7.2,1.2.4,1.9.6.4-.7,1-.1,1.4,0s.7.3,1.1.3c0-.4-.3-1.4.5-1.7s2.7-.4,3.8-.3c1.1.1,2.3.6,3.4.6.2-.2-.2-1.4-.6-1.6h0Z"/>
    <path class="st2" d="M310.4,212s0,0,0,.1c.8,1.6,0-.6,0-.1Z"/>
    <path class="st9" d="M321.2,161c0,0-.2,0-.3,0,0-.1,0-.3-.1-.4,0,0,.2-.6-.4-.8,0,0-.2,0-.3,0,0-.2,0-.5-.4-.6s-.7,0-1.2.1c.2-.8.6-1.6.7-2.1.3-1,.3-1.3.7-2.3.2-.4,1-1.2,1-2.3s-.4-.7-.9-1c0,0,0-.1,0-.2,0-.5-.4-.8-.9-1.1,0-.1-.2-.2-.4-.3,0-.2,0-.4,0-.6l-.4.2c-.1-.2-.2-.4-.3-.6,0,0,0-.1,0-.2h0c0-.2,0-.4,0-.6l-.6.2c0-.2-.1-.5-.1-.8l-.8.3v1.1l.7.6h.1v.6l.7.6h0l.3.2c0,0,0,.1,0,.2-.3,0-2,0-2.4.8-.2.4,0,.9-.2,1.4s-.6.6-.7,1.5c-.1.9.5,2.1.2,3.1-1.2,0-2.1,1.1-3.7,1.1s-2.2-1.2-3.5-.5c0,0,0,0,0,0-.2,0-.4-.1-.6-.1,0-.2-.2-.4-.2-.5-.5-.2-1.2-.2-1.7-.2,0,0,0,0-.1-.1,0,0,0-.1,0-.2-.2,0-1-1.3-1.4-1.7,0,0,0,0-.2,0-.2-.3-.4-.5-.5-.6,0,0-.5.2-1.2-.2-.3-.3-.6-.7-1.1-1-.5-.5-1-.9-1.9-.8-1.6.3-2.5.4-4.1.2.3.1.8.4,1.3.7-.2,0-.4,0-.6,0,.3.2.8.4,1.4.7-.4,0-.8,0-1.3-.1.3.1.8.4,1.3.7-.2,0-.4,0-.6,0,.6.3,1.9,1,2.7,1.3.7.3,1.5,0,2.2.2,0,0,.1.1.2.2.2.4.4.9,1,1.3,0,0,.2.1.3.2.1.1.2.3.4.4.6.4,2.8,1.5,4.5,2.2-.6,0-1.2.1-1.5.2-.5.1-.5,1.3-.5,1.7v.3h.8v.6h.1v.6h.8v.6h1.9c0-.2,0,.2,0-.6s.4-.6,1.1-.8c.2,0,.4.1.8,0,.4-.1.5-.4,1.4-.3.5,0,1.4.2,2.1.6.1.1.2.3.2.5.2.1.4.2.6.2,0,.1.1.2.1.4.4.2.9.3,1.1.3v-2.2c2.2.9,2.8-1.5,5-1.4h0c0,.1.2-.5-.4-.7h0ZM311.6,162.7h-.5c.2,0,.4,0,.6,0,0,0,0,0,.1,0-.1,0-.2,0-.3,0h0ZM311,162.1c.2,0,.4,0,.6,0,.4,0,1.1.2,1.7.5-.9-.2-1.8-.4-2.4-.5h0ZM320.7,160.5h.1c0,.1,0,0-.1,0Z"/>
    <path class="st7" d="M337.4,154.8c.6.6,1.9,4.1,2.8,1.7.5.8,1.1,1.6,1.5,2.5s.3,1.2.5,1.3c.3.3,1.1.2,1.3.5.7,1-.3,3.2,2.3,3.4l1.5,1.4c-1.1-.2-1.7-.7-2.8-.8,0,1.2.9,2.8,1.7,3.8l-.8.9c-.2-.1-1.6-.2-1.9-.3,0-.3-.6-.7-.6-1.1,1.2,0,2.3.4,1.4-1.3s-2.7-2.7-5-2.9c.5.9-.3,1.3-.3,2.2h-.3c-1.4-.5-3.3-.4-4.4-1.3s-.2-.6-.3-.7-.4-.2-.6-.3v-.3c.7-.2.5.5.6.6h1.8c.5,0,1,.7,1.6.6s.3-.6.6-.9c.4-.3,1.4-.6,1.5-1s-.3-2.8-.4-3.1c-.2-.6-1.1-1.3-1.5-1.9-.8-1.3-.9-3-2.5-3.7,0,0,.3-.4.9-.2s1.3.7,1.3.8h.1q0,.1,0,.1Z"/>
    <path class="st11" d="M339.2,159.8c-.2-.7-.8-.5-1.5-1.9s-.9-3.1-2.5-3.7h-.1c-.3-.5-.7-.9-1.4-1.2h-2.5c0,.1-.6.1-.6.1-.2,1.9.6,2.1,1.5,2.2.2,1.1,1,1.1,1.9,1.3h0c.2.1.7.3,1.1.6.1.2.1.4.4.7,0,0,.1,0,.3.1,0,.1-.1.3-.4.5-1.3.9-2.3-.9-2.6-.6.2.7-.9,2-1.6,1.6,0,0-.6-1.3-1.1-.8s.9,2.3,1.1,3c.1.2.3.5.3.8.1.1.4.3.7.3v-.3c.6-.2.3.6.4.6s.1,0,.2,0c.1.2.2.4.2.6.1.1.4.3.7.3v-.3c.6-.2.3.6.4.6s1.3-.2,1.8,0,.9.7,1.6.6c.3-.1.2-.6.6-.9.4-.3,1.4-.6,1.5-1,0-.1-.2-2.4-.4-3.1h0Z"/>
    <path class="st12" d="M321.6,161.7c.3.3,1,.5,1.4.8v.3c-.2,0-1.1.6-1.7.3.5,1.8-2,1.3-3.1,1.9s-.3,1-1.1.8-.4-.5-.5-.5v-2.2c2.1,1,2.8-1.5,5-1.4h0Z"/>
    <path class="st4" d="M329.4,163.1c.8.2,1.2.1,1.9.3-1.2,1.6-3.6-.6-4.9-.5s-.4.8-1.1.8-1.8-.9-2.4-.9v-.3c1.7.4-.2-1.6,1-1.4s1.8,1,2.6,1.3,2.1.4,2.8.6h.1q0,.1,0,0Z"/>
    <path class="st12" d="M315.5,165c-.3-.1-.8,0-1.3-.3s-2-1-1.8-1.4c1,0,2.9.5,3,1.7h.1Z"/>
    <path class="st6" d="M311.1,163.7c0,.6-1.2,1.5-1.6,1.6s-.3-.2-.4-.2v-.6c.6-.1,1.3-.1,1.1-.8h.9Z"/>
    <path class="st8" d="M297.5,184.1c.9-.2.7.8.8,1.4-.6.3-.8-.8-.8-1.4Z"/>
    <path class="st14" d="M366.7,158.9c.4-.6.3-.7,1-.3,1.6.8,3.1,2.5,4.8,3.2,1,1-.7,1.4-1,1.8s-.2.8-.8,1.7c-1.2,1.9-1.7,3.1-4.3,2.7-.3-.3,1.2-1.8-1.4-2.8v-.3c-.1-1,.3-.4.8-.4s2.4.4,2.6-.3-1.3-2.1-1.7-2.1c0-1.1.1-2.3,0-3.3h0q0,.1,0,.1Z"/>
    <path class="st11" d="M365.6,151.2h-.6c-.8,0-3,1.1-3.3-.4s2.1-1.1,2.2-1.2c.3-.4-1.1-2.3-.1-2.5s2.8,2.7,2.9,2.9c.1.5-.9.9-1.1,1.2h0Z"/>
    <path class="st7" d="M366.7,168.9c-1-.3-2.7-.9-3.6-1.1v-.3c.9.4,2,1.1,1.7-.3.4.3,1.9.3,1.9,1.7h0Z"/>
    <path class="st7" d="M364,153.1c.4.6.6.7,1.1,1.7-.1.6-.8,0-1-.2-.6-.5-1.8-1.5,0-1.4h-.1Z"/>
    <path class="st1" d="M371.7,159.2c-.8-.1-1.7-1-1.7-1.9.8.9,1,.8,1.7,1.9Z"/>
    <path class="st1" d="M369.8,157c-1.4.1-1.1-.8-1.4-1.4.7.3,1,1,1.4,1.4Z"/>
    <path class="st1" d="M373.1,161.2c-1,0-.7-.8-.8-1.1.7.2.6.8.8,1.1Z"/>
    <path class="st7" d="M349.3,152.6c.1-.3-.2-.9.9-.6s.3.6.7.8c1.1.6,2.3.7,3.2,1.2,2.3,1.3,6,4.8,7.7,6.9-1.1-.3-11.2-1.1-10.4.4,1.1,2.2,2.3.6,3.6.8s3.7,1.7,3.8,1.9.6,1.2-.2,1.3c-.4-.2-2-.1-2.3-.2-1.6-.4-1.9,2.2-2.9,2.4s-4.2-.9-4.9-1.2-.9,0-.7-.8c.6,0,3.1.4,3.3-.2.6-1.8-1.1-2.6-1.3-3-.4-1.1.5-2-1.4-2.5s-1.9,0-2.7-.4-.9-1.6-1.5-2.1-1.3-.4-1.6-.7.3-1,.1-1.5-2-.7-1.9-1.8c2.3,0,4.7,3,4.7,3.1.2,1.3,2.1.2,2-.6s.7-2.1,1-2.6.5,0,.6,0c.4-.1.9-.7.3-.8h-.1q0,.1,0,.1Z"/>
    <path class="st11" d="M341.5,153.2s0,0,0,.1h.2-.2Z"/>
    <path class="st11" d="M350.5,162.2c-.3-1.2.5-2.1-1.4-2.5-.9-.2-2,0-2.7-.4s-1-1.6-1.5-2.1-1.3-.4-1.6-.7.2-1,.1-1.5c-.1-.5-1.9-.7-1.9-1.7-.4,0-.9,0-1.2.3-.2,0-.4,0-.5.1-.1,0-.2,0-.3.1-.5,0-1,.3-.9.7.4.2.7,1.4,1.1,2.2.4.8,1,1.7,1.5,2.5.3.4.3,1,.5,1.3s.7-.5,1.3.5-.3,3.2,2.3,3.4l1.5,1.4c.1,0-.3-.1.3,0,.5,0,2,1.1,2.9.5.2,0,.3,0,.4-.1.1,0,.3,0,.4-.2.5,0,.9-.2,1.1-.9.6-1.8-1-1.8-1.3-3h0Z"/>
    <path class="st5" d="M357.2,164.5s1,.3,1.4.5c.6.3,4.2,2.5,4.6,2.6v.3c-.3,0-1.1.5-1.2.6.1.3-1.4.3-1.3.5h-1.4c-1.1-1-2.1-3.1-3.6-3.3.2-.7-.3-1.4.7-1.2h.8q0,0,0,0Z"/>
    <path class="st7" d="M355.7,165.6c1.5.2,2.5,2.3,3.6,3.3,0,0-.5.6-.8.4s-.6-.8-1.1-1.1c-1.3-.8-2.4-.5-1.7-2.6h0Z"/>
    <path class="st0" d="M246.4,68.2s0,0,0,0c0,0-.2,0,0,0Z"/>
    <path class="st0" d="M262,132.5c-.2-1.6-3.1-3.9-3-5.3,0-.1,0-.2,0-.3.3.2.6.4.6.3,0-.2,0-.3,0-.5.4.2.9.6,1,.4.1-1.1-.6-2.6-.3-3.7.2-.6,1.6,0,1-1.6-.2-.4-2.6-4.7-3.2-5.1-.3-.2.1-.4-.2-.2,0,0-.2-.4-.3-.4-.3-.2-.7-1.2-.9-1-.2-.5-.8.2-1-.2-.2-.4-.6-.4-.9-1.1s0-1.4-.7-2.6-1.8-.5-1.3-3c.2-.7.9-1.3,1-1.8s-.5-2.4-.5-3.3-.2-1.2.6-1v-.8l-1.5-1.7c-.2,0-.4.2-.6.5l-.4-.4c-.3-.1-.4.3-.8.7.7-1.3-.2-2-.2-3.4s.3-3.3,0-4.9c0-.6,0-1-.8-1,0,0-.2.2-.3.3,0-.1-.3-.2-.7-.2-.2.2-.6.4-.6.6,0,0-.6,1.1-.8,1.7,0-.4.1-1,0-1.7-.2-2.1-1.8-1.8-.4-4.7.8-1.6,2.2-1.9,2.5-2.4,0,0,.5-1.6.6-2.1s-.2-1.9-.9-2c-.2,0-.5,0-.8.2,0,0-.2,0-.2,0-.2,0-.3,0-.5,0-.2-.2-.2-.5-.2-1.1s.4-2,1-2.5c.4,0,.8.2,1,0,.6.1,1.1.2,1.2-.6,0-1.1-.5-1.1-.7-1.9-.2-.8,0-1.7-.2-2.3-.3-.6-1.1-.8-1.5-1.3-.4-.5-1.4-2.4-1.9-2.6,0,0,0,.1-.8.3,0,0-.2-.2-.2-.2,0,0-.2.2-2.2.5-3.4.4-5.7.6-9,2-.5.2-1,.4-1.4.6-.3,1.4-2.2,2.2-2.9,3s-1.9,2.1-2.5,2.8c-.6.7-.6,1.9-1.7,2,0,0,0,.1,0,.3-.2.6-.2,1.7-1,1.7,0,0,0,.2,0,.3-.3,1.1-.4.4-.6.6,0,0,0,.3-.3.6,0,0,0,0-.3.3-.2.3,0,0-.3,1.1s-.5.5-.8.8l-.3.3-.3.3c-.3.3-.5.4-.8.8s0,1-1.1,1.1h-.6c-.3.3-1.5,1.4-1.7,1.4,0,.9.2,2.4,0,3.1s-1.7,1-1.9,3.4,2.5,2.1,1.4,3.8c-.4.6-.9,1-1.4,1.2-.5,0-1.1-.3-1.7-.7-.2.1-.3.3-.4.4-.2-.1-.4-.2-.6-.4-.8.5,0,1.1,0,1.9,0,0,0,0,0,0-.9-.2-1.6-1.2-2.2-1.4-.3,0-.8,0-1.1,0-.2,0-.3,0-.5,0-.3,0-.6-.2-.8-.7,0-.4.8-.4,0-1.2s-2.7-1.9-3.9-2.9c-.7-.7.7,0-2-2.2-2.7-2.3-5.7-3.4-8-6.4-1.3-1.7-1.8-4.4-3.5-5.6-.4-.3.3,1.1-1.4-.6s-1.3-4.2-2-6.8-.9-4.7-1.4-7.2c-.2-.6-.7-1-.8-1.7s3-8,3.6-8.8c.2-.3,0,1,1-.9s0-2.5,0-3.8c0-.8.9-1.4.9-1.9s-.6,0-.6-.3.5-1.5.3-1.8c0-.2-1,.3-.8-.6l.6-1.2c-.2.1-.5.1-.8.3,0,.4-.4.9-.8,1.3,0,0,0-.2,0-.3l.6-1.2c-.2.1-.5.1-.8.3,0,.8-1.1,1.7-1.9,1.9,0,0,0-.2,0,.3s.2.6-.6.6c0,.2,0,.3-.3.6-.2.3.2.8-.6.6,0,0,0,.1,0,.3,0,.6.2.6-.6.6,0,.3,0-.3-.3.8-.4,1.1-.6.6-.8.8v.3c0,.2,0,.6,0,.6s-.3-.2-.6,0c0,0,0,0,0,0,0,0,0,.2-.2.6-.5,1-.3.3-.6.6l-.3.3c0,.6,0,1.5-.7,1.4,0,0,0,.1,0,.3-.2.7,0,2.2-1.1,2.2v.3c0,.3,0,.6-.3.6,0,0,0,0,0,.3,0,.2-.2.2-.2.2,0,.2,0,.4,0,.7-.2,2-.3,4-.3,6,0,.6.2,1.2-.6,1v.6c0,.2.8.7-.3.6,0,.2-.2-1.8,0,.6.2,2.4.8,3.8.8,6.4v.6c.6.6.8,2.1.8,3v.6c1.5,5.1,3.6,10.1,6.2,14.7,1.6,2.8,5.2,8.3,7.7,9.9.3.2.7-.2,1.3.5s0,1.6,0,2.1,4.3,5,5.3,5.6c.7.4,1,.2,1.4.1.4.2.6,0,.9,0,1,.3,2.5,1.8,3.4,2.2.6.9-.7,1.2,1,2.9.9.9,1.5.8,2.1.6.6.2,1,0,1.3-.2.3.3,1,1.4,1.4.5.3.3.8.6,1.1-.2-2.9-2.2,0-1.7.8-2.5s.4-.5.9-.6c0-.5,0,.2,1,0,0-1.4-2-1.5,1.2-2.6.3,0,.5-.2.8-.2.9.2.4,1.4.7,1.7.1.1.4,0,.9-.2,0,0,0,0,0,0,.2.2.5,0,1.2-.2,1.3,0,3.1.8,4.2,2.6,1.1,1.9-.4,1-.3,3.1s1.8,1.8,3,2.5c.6.4.9,1.1,1.9,1.4s1.9,0,3,.3c.7.2-.8-.2,2.5,1.9s7.2,4.3,9.9,7c1,1,2.4,3.8,3.2,5.1.3.5,1.3,1.1,1.3,1.7s-.8.9-.5,1.4c.7,0,1.1,1.2,1.8,1.4.2,0,.5,0,.8-.2,0,0,.1,0,.2,0,.2,0,.5,0,.8-.2.3.1.6.5.9,1.1.8-.2.5-.5.3-1,.2.2.4.5.7,1,1.5-.4-.8-1.2.8-2.8s.6-.4.9-.5c.6,0,1.1,0,1.5,0,1.2,0,2.1,0,1.5-2.6-.3-1.2-.6-2.6-.9-3.8-.2-.7-1.2-1.6-1-2.7.4,0,.8.2.9.3.4.3.2.9.7,1,.3,0,.6,0,.8-.1,0,0,0,0,.1,0,.3,0,.6,0,.9-.1.4.2.7.6,1,.3,0-.1,0-.3-.1-.4.4.2.8.7,1.1.4h0ZM247.3,93.6v1.2h0s0,0-.1,0c-.2-.2,0-.5.1-1.1Z"/>
    <path class="st0" d="M182.6,53.4c0,0,0,0,0,0h0Z"/>
    <path class="st0" d="M180.6,56.3h0c0-.2,0,0,0,0Z"/>
    <path class="st0" d="M180.6,56.3h0s0,0,0,0Z"/>
    <path class="st0" d="M178.9,60.3s0,0,0,0,0,0,0,0Z"/>
    <path class="st0" d="M178.9,60.3s0,0,0,0c0-.6,0-.1,0,0Z"/>
    <path class="st0" d="M224.5,81.2h0c.2-.6,0,0,0,0Z"/>
    <path class="st0" d="M225.7,79.2h0s0,0,0,0Z"/>
    <path class="st0" d="M245.4,68.3s0,0,0,0c0,0-.2,0,0,0Z"/>
    <path class="st0" d="M184.9,50h0c0,0,0,0,0,0Z"/>
    <path class="st0" d="M225.7,79.2h0s0,0,0,0Z"/>
    <path class="st0" d="M184.9,50h0s0,0,0,0Z"/>
    <path class="st14" d="M251,67.8c.4,0,.6,0,.8,0v-.2c-.1,0-.8,0-.8,0Z"/>
    <path class="st14" d="M250,67.8c.4,0,.6,0,.8,0v-.2c-.1,0-.8,0-.8,0Z"/>
    <path class="st14" d="M266.2,115.2c.3.7.6,1.5.8,2.3,0-.5,0-1-.4-1.5-.2-.4-.3-.6-.4-.8Z"/>
    <path class="st14" d="M296.7,149.9c-.1-.1-.7-2.4-.8-2.8-.4-.2-.9-.3-1.4-.4-.1-.5-.2-.9-.3-1.1-.3-.2-.8-.3-1.2-.4-.3-.6-.7-1.2-1-1.4-.4-.2-.4-.1-.6,0-.4-.6-.7-1.3-1.1-1.6-.4-.3-.4,0-.8,0-.2-1.1-.2-2.4-.5-2.9-.2-.5-.8-.5-1.1-.9-.1-.2-.6,0-.7-2.1,0-.6,0-.9.2-1.1.2.5.4,1,.5,1.1.1.2.3.2.8.6s1.5.9,2.1,1.6l3.1,1.2c-.1,0-.7-2.4-.8-2.8-.6-.3-1.6-.4-2.1-.8s-1.2-2.2-1.8-2.6c-.4-.2-.4,0-.6,0-.1-.6-.3-1.3-.3-1.8,0-1.2.9-1.6.5-3-.1-.4-.5-.4-.9-1.3s-2.4-4.3.3-4.8c2.3.3,3.8,0,4.2-.5s1.1-2.8,2.1-3,1.5,1.2,1.5-1.8c-1.4-.8-.7,1.6-1.9,1.5,0-.6.2-1.1.2-1.6,0-.3,0-.8,0-1.4-.6-.3-.8-.1-.9.2,0,0,0,0-.1,0v-.2c-.3-.2-.5-.2-.7,0,0-.3,0-.5-.2-.8,0,0-.1-.2-.2-.2-.1-1.2,0-2.9.3-3.4.4-.8,1,0,1.2-.8s-.5-2.7-.3-3.3c.2-.6,3,0,1.8-2.6-.3-.5-1.1-.8-1.4-1.1,0,0-.1-.1-.1-.2,0,0,0-.2-.1-.2,0,0,0,0,0,0-.1-.2-.2-.5-.3-.6s-.7-.5-1.3-.8c-.1-.3-.2-.7-.4-.8,0,0-.3-.2-.6-.4,0,0,0,0,0-.1.2-.9-.5-2.7-.3-3.3.2-.6,3,0,1.8-2.6-.3-.5-1.1-.8-1.4-1.1s-.4-.9-.6-1.1c-.2-.2-1.9-1.2-2.2-1.1s0,.7-.6.8c-.6,0-1.3-.4-1.6-.3s.9-.3-.6.8c-1.5,1.1-1-1.2-1.2-1.4s-4.9,0-5.7-.5c-.5-.5-.2-1.3-.5-2,0-.2-.2-.3-.4-.5,0-.2,0-.4,0-.4.1-.3.6,0,.9-1,.2-.7-.7-1.5-1.5-2.2-.1-.4-.6-.4-.8-1.1-.2-.7.2-1.3.1-1.8-.1-.5-.7-.8-.9-1.3-.1-.3-.4-1.4-.5-2.2l-2.3-1.3c0,.1,0,.2,0,.4,0,.8,3.2,1.6.4,2.1-1.1.2-1.5.3-1.6.5-.9-.5-1.8-1-2.6-1.5-.2-.4-.3-.8-.7-1-.3-.2-.5-.2-.8-.2-.3-.5-.3-1-.9-1.3-.7-.4-1.3-.2-1.9-.4-.4,0,.3,0-.7-.8-.4-.3-.8-.2-1.1,0-.4-.3-.8-.1-1.2,0-.2-.2-.4-.4-.6-.5,0,0-.2-.2-.3-.3-.6-.7-1.4-1.2-2.1-1.8,0-.3-.1-.6-.3-.7,0,0-.4-.2-.9-.3,0,0-.1-.1-.2-.2-.3-.3-.3-.9-.5-1.1s-3.3-.7-4-1c-.4-.2-.4-.5-1.1-.7l.7.9c-.3,0-.5-.1-.7-.2-.4-.2-.4-.5-1.1-.7l1.5,1.9c1.8.4,2.4,2,3.2,2.6.6.4,1.5.8,2.2,1.1.1.2.3.3.4.5,0,0,.2.1.2.2,0,0,0,.4.7,1.2.9,1.3,1.8,1.4,2.8,1.6.6.8,1.3,1.2,1.9,1.3.2.5.2,1.2,1.9,1.9.4.2.7.3,1,.3.2.4.6.8,1.7,1.2,2.5,1.1,2.1-1,2.2-1.2,0,0,.2,0,.5,0,.3.4.7.9,1.1,1.5,0,.4-.2.8-.2,1.4,0,.9.9,3.5.7,4.4-1.1.2-1.1.4-1,.7-.4.2-.8.3-1,.3-.4,0-.7-.5-1.1-.5s-1.1.4-1.3.3.3,0-.5-.7-.7-.9-1.2-1.2,0,.5-1.8-.4-1.1-3.2-3.3.5c0-.2.4-1.4-.5.4-1.1,2.1,1.1,3.9,2.5,5.2.1.5-.9.6-1.1,1.1,0,.2,0,.4,0,.6-.2.3-.5.7-.8,1.3-.1.2.6-1.7-.5.4-.9,1.7.3,3.1,1.5,4.3,0,.6.1,1.2.1,1.7-.1,0-.2.2-.3.3-.2.5,0,1.4,0,2,.3-.1-.3.4,0,.4-.1.5-.6,1,0,1.1.2.1,0,.5.3.4,0,.4.2-.2,0,.3-.5.7.5.5.1,1.1-.4.6,0,2.5,0,3.3.1.4.4.6.5,1.2s-.6,1.6.2,1.8c.2,0,.4.4.7.3,0,0,.5,0,.6,0,.2,0-.1.5.2.4,0,.3.4,0,.6.3,0,0,.1,0,.2,0,0,.2.1.4.4.5,0,0,.2,0,.3,0-.1,1.1-.1,2.4-.3,3-.2.7-1.8.8-1.9,1.7-.1.9,1.3,2.4,1.4,3.1.1.7-.6.7-.5,1.3s.6.7,1.1,1.2c0,.6,0,1.1-.1,1.4-.2.7-1.8.8-1.9,1.7h0c0,.2,0,.3,0,.3.2.9-.8,3.8-.7,4.4,0,.2-.3,2.2-1,3,.6.7,2.2,3.8,2.1,4.1,0,.2.5,1.6.5,2.2,0,.1-.1.3-.2.4-.1,0-.3,0-.6-.1,0-.1.4-.4-.2-.5-.6-.1-1,.5-1.6.5-.2-.1-2.1-.7-2.8-.9s-.6-1.2-2.2-.7,1,1.8,1.5,2.6.5,4-1.1,3.8c.4.7.7,1.4.9,2.1,0,0,0,0-.1,0-.2-.1-.6-.1-1.2,0-1.6.5,1,1.8,1.5,2.6s.5,4-1.1,3.8c.7,1.4,1.3,2.8,1.4,4.4.7,0,1.3.4,1.9.6h.3c0,0,0-.2.1-.2,0,0,.1,0,.2,0,0,.4.1.7.2,1.1.7,0,1.3.4,1.9.6h.3c.1-.3.4-.6.3-1.1-.1-.5-.8-1.6-.8-2.6s.5-1.2.5-1.9-.3-1.4-.3-2.1c1.3-.4,4.3,1.7,4.8,1.6.5-.1-.4,0,.8-1s1.5,0,.7-2.3c.8-.1,1.5,0,2.2.2.4.4.9.8,1.3,1.3-.1-.7-.1-.6.2-.6.2.1.4.3.6.4,0,0,.1.1.2.2,0,0,0,0,0,0,.6.5,1.2,1,1.7,1.6-.3-1.4.2.2,1.9-1.6s-.6-4.1-1.2-5.7c-.2-.4-.2-.8-.2-1.3-.3,0-.7.3-1.1.4-.1-.2-.2-.5-.3-.7-.2-.4-.2-.8-.2-1.3,0,0-.2,0-.4.1.2-.3.4-.7.1-1.1-.7,0-.9.6-1.3.8-.2-1.1.3.3,1.9-1.4,1.4-1.5,0-3.4-.8-4.9.4,0,.7,0,1.1-.3-.7-1.9-4.8-3.8-2.1-5.8.2,1.7,1.4.9,2.6,1.1,0-.9-.9-1.2-1.2-1.7s-1.4-2.7-1.8-4.3c-.3-1,0-1.1.2-1.2.1.1.2.3.4.5,1.6,1.8.8,1.2,1,2.9.1.6,1.4,3.4,1.6,3.9s.6.7-.3.7c.3.3,1,1.5,1.7,1.8.2,0,.6.1.8.1,0,0,.1.2.5.6,1.1,1.1,4.1,2.5,4.4,3.3,0,.3-.1.5,0,.9s.6,2.1.8,2.2c.2.1.5,1,.6.5.1.2.7,0,.8,0,.2.1.4-.4.5-1,0-.1,0-.2,0-.4,0,0,0,.1,0,.2.1.4.6,2.1.8,2.2.2.1.7.1.8-.5,0-.2,0-.4,0-.7.1,0,.3.2.6.4.5.4,1.5.9,2.1,1.6l1.5.6c.4.3.9.6,1.2,1l3.1,1.2h0ZM270.3,113.3h0ZM274.8,105.1c-.1,0-.3-.2-.5-.2-.4-.6-.8-1.1-1.2-1.3-.3-.2-.5-.3-.8-.3,0-.2,0-.4,0-.6.3,0,1.4.2,1.6,0s-.1-1.3.6-.8h0c0,0,.3.7.8.8,0,.2.1.3.2.5.2.7.1,1.8.1,2.8-.3-.4-.6-.7-.8-.8ZM272,114.9c.3.5.6,1.2.9,2,.2.6.2.9.2,1.2-.5-1.1-.8-2.1-1.1-3.2ZM271.4,109.7c-.2-.4-.4-.8-.6-1.1.1,0,.3,0,.4-.2.3-.3.2-1.2.6-1.5,0,0,.6,0,1.3,0,.2.4.3,1.3.4,1.5.2.2,1.9-.3,2.2,1.1s.3,3.4.4,4.8c0,.4.3.6.4,1.3-.2,0-.4-.2-.7-.4-1.9-1.8-2.7-2.6-4.4-5.5ZM267.6,111.8c0-.2,0-.4,0-.6,0,0,.1,0,.2,0,0,.2,0,.5,0,.7ZM273.1,143.6c0-.3,0-.7.1-1,0,.3.1.6,0,.8,0,.1,0,.2-.1.2h0ZM274.1,119.9c-.2-.3-.3-.6-.4-.8.1.2.3.4.6.7,1.2,1.3,1.1,1.4,1,2-.3-.5-.7-1.1-1.1-1.8h0ZM286.5,109.2c0,.5,0,1.1-.8,1.8.2-.6.5-1.2.8-1.8ZM283.4,107.9c0,.3,0,.6,0,1-.5-.8-.5-1.2-.2-1.4,0,.2,0,.3.1.5h0ZM282.6,96.8c.6-.3.6-1,1.1-1.2s.8.5,1.3.5,1.1-.5,1.3-.3h0c.1,0-.5,1.1-.3,2.7,0,.7.4,1.2.5,1.7,0,0-.1,0-.2,0-.3,0,.9-.3-.6.8-.2-.5,0-1.3-.2-1.4s-2.6,0-4.2-.2c0,0-.1-.2-.2-.3,0-.2,0-.3-.1-.5,0-.2-.3-.4-.5-.6-.5-1.4,1.3-.9,2.1-1.3h0ZM271.9,80.5c-.7-.4-1.4-.8-1.9-1.2.5.2,1.1.4,1.3.6.1,0,.3.3.5.5h0ZM269.7,92.4c.3,0,1.4.2,1.6,0s-.1-1.3.6-.8h0c0,0,0,0,.1.1,0,.1,0,.2,0,.4,0,.6.5,2.2.7,3.3-.2-.2-.4-.4-.6-.5-1.3-.8-2.8,0-2.4-2.5h0ZM269.1,96.7c.1,0,2.2,0,2.6.2.2,0,.2.1.3.2-.2,0-.4.2-.6.2-.2-.2-.4-.3-.7-.3s-.4,0-.6.2c-.1,0-.3-.2-.4-.2s-.1,0-.2,0c0,0,0,0-.1,0,0,0,0,0,0,0,0,0-.1-.1-.2-.2,0,0,0,0,0,0h0ZM261.5,145.2c1.3-.4,4.3,1.7,4.8,1.6.5-.1-.4,0,.8-1h0c0,0,.2,0,.2.1-.1.3-.3.5-.5.7.6.7,1.8.3,2.5.5s1.3.8,2.1,1.2c.1,0,.3.1.5.2.7,1,1.6,2.6,1.3,3.4,0,0,0,.2-.1.2-.8-.3-1.7-.9-2-1.1-.3,0-.6,0-.9,0-.4-.7-.8-1.4-.8-1.7,0,0-.4,0-.7.3-.4-.7-.9-1.5-.9-1.9,0,0-.5.1-.9.4,0-.2-.1-.3-.1-.4-.2-.2-1.8,1.1-1.9,1.5,0,.2.4,1.3.5,2-.2,0-.4,0-.6.2,0,0-.1-.1-.3-.2-.4,0-.7.2-1,.3-.4-.1-1-.3-1.6-.5-.2-.5-.5-1.2-.5-1.9s.5-1.2.5-1.9-.3-1.4-.3-2.1h0ZM273.7,146.4c-.2,0-.6-.2-.9-.5,0,0,.1-.2.2-.3.2.2.5.5.7.8,0,0,0,0,0,0h0ZM279.3,137.8c.1,0,.2,0,.2,0s0,0-.2,0ZM286.5,143.7c0-.2,0-.5,0-.6,0,0,0,0,0,0,0,.2,0,.4,0,.6h0Z"/>
    <path class="st0" d="M256.2,83.3s0,0,0,0h0s0,0,0,0h0Z"/>
    <path class="st0" d="M256.2,83.3s0,0,0,0h0Z"/>
    <path class="st0" d="M266.8,90c0-.6-.5-.3-.6-1.9s.9-1.9-.8-3.6c-.1-.1-.3-.3-.5-.5-.1-.2-.3-.4-.6-.7-1-1-4.1-3.4-5.4-3.4s-.9.4-1.8.2c-.9-.2-.4-1.5-2.2-1.1-.4,0-.8-.6-.6.6,0,.2,0,.3.2.4-.1,0-.2.1,0,.7.2,1,1.2,1,1.8,1.2,0,0,0,0,0,0,0,.2.1.6.2,1,0,0,0,0-.1,0,0,.3.3,1.4.3,1.9s0,.7.1,1.2c0,.1,0,.2,0,.3-.1.6-1.3,1.2-1.3,2,.2.1.3.2.4.4-.2.2-.3.5-.3.7.7.5,1,1.6,1.3,2s1,.3,1.4.8,1.3,1.5,1.6,2.1c.4,0,.6-.2.7-.4.1.1.2.3.2.4,1.6-.3.6-2.3,1.7-2.8.6.4,2,1.7,2.8,1.4,0,0,0-.1,0-.2.4.2.7.3,1,.2-.4-1.2.6-2.6.6-3.2h0Z"/>
    <path class="st0" d="M256.1,82.2s0,0,0,0h0s0,0,0,0h0Z"/>
    <path class="st14" d="M257.1,83.4c0,.3.2,1.4.3,1.9-.6.6-.4,1.5-.7,2.2s-1.2,1.1-1.2,1.8.6.9.6,1.5c-.7,0-1.3.7-1.9.8s-1-.5-1.6-.5-.8.2-1.1.2c-1.1,0-.8-.6-1.8.3s-.5.4-.6.6c-1.5,0-.4-1.2-.6-1.8s-1.2-.6-1.1-1.4c1.3-.6,1.3-2.1,2.9-2.1s.9.3,1.3.2,1.6-2.4,1.6-2.6c0-.9-1.2-2.1-.8-3.2,1.9-.3,3.1,1.4,4.7,1.9v.2h0Z"/>
    <path class="st14" d="M259.1,83.1c-.1-.5-.3-1.6-.3-1.9v-.2c-1.6-.5-3.5-3.3-4.7-1.9-.2.4-.3.8-.2,1.2.2.7.9,1.3,1,1.8-1.2-.7-2.3-1.8-3.9-1.6-.4,1.1.8,2.3.8,3.2s-.1.3-.3.6h-.1c0,.1,0,.2,0,.3,0,0,0,0,0,0-.6.3-.9.9-1.4,1.4-.2,0-.4,0-1,0-1.6,0-1.6,1.5-2.9,2.1,0,.8.9.8,1.1,1.4.2.5-.7,1.5.2,1.8-.2.3-.5.5-.8.7,0,.8.9.8,1.1,1.4s-.9,1.8.6,1.8c0-.2-.4.3.6-.6s.7-.3,1.8-.3.5-.2,1.1-.2,1,.6,1.6.5,1.2-.9,1.9-.8c0-.6-.6-.8-.6-1.5s.9-1.1,1.2-1.8c.2-.4.2-.8.2-1.2.6-.1,1.2-.9,1.9-.8,0-.6-.6-.8-.6-1.5s.9-1.1,1.2-1.8c.3-.7.1-1.6.7-2.2h0Z"/>
    <path class="st14" d="M259.5,99.1c.3-.6,0-.7-.3-.7,0-1.2.4-3.5.2-4.3-.4-.1-.7,0-.9,0,0-.4,0-.7,0-.9-.2,0-.4,0-.6,0,0,0,0-.2,0-.2-.8-.2-1.1,0-1.2.5-.7.4-.2,1.9-.5,2.8-.6.1-1.8-.7-2.2.4-.2.1-.3.3-.4.6-.2.9.4,1.5.9,2.1,0,0,.1.1.2.2.2.3.4.6.4.9-.6,0-1.8-1-2.1.1-.2,0-.3.3-.4.8h.2c0,.2,0,.2,0,.8,0,.6.8,1.5,1,2.4s0,1.8.4,2.9c0,.4,0,.8.4.8,0,.3.1.5.5.5.2,0,.2-.3.3-.6,0,0,.1,0,.2,0,.1,0,.2-.2.3-.4,0,.2,0,.3.1.5,0,.4,0,.9.6.8.8-.4.3-5.2.8-6.1,0,0,1.5-.3,2.7-2.2,1.2-1.8,0-1.2-.6-1.5h0Z"/>
    <path class="st7" d="M244.9,138.5c.4.6.8.8.8.8,0,0,.4,1.1.6,1.4.3.4.5.9.8,1.4l-2.8-.3.6,1.4s-1.3-.5-1.4-.6,0-.5-.3-.6-1.9-.4-2.4-.5-.9,0-1.4,0c0-.3-.8-1.6-.8-1.7.7.4,1.8-.6,2-.5.4,0,4.4-.8,4.4-.8,0,0,0,0,0,0Z"/>
    <path class="st11" d="M257.1,153.7c-.3-.1-.5-.3-.8-.3l-.3-1.5c-2.1-1-2.8-3.6-5-4.6v-.6c0-.5,0-.7-.8-.8,0-.8-.5-1-.8-1.4-.7-.9-1.5-1.6-2.2-2.5s-.6-1-.8-1.4c.7,0,1.1.6,1.5,1.1,1.4,1.5,2.8,3.6,4.2,5,2.1,2.1,4.9,3.2,5.3,6.6s-.2.3-.2.4h-.1,0Z"/>
    <path class="st14" d="M221.8,127.4c.4-.9,1.1-1.3,3-.9s5.1,4.7,5.2,5.4-.4.3-.2.6c.2.6,1.7,1.1.8,1.9-1.6-.7-2.8-2.1-4.4-2.5,0,0-3.8-2.8-3.8-2.9,0,0-1-.5-.5-1.6h0Z"/>
    <path class="st7" d="M233.3,134c0,1.1.9,1.4,1.7,1.9.2.9.7.9.8,1.9h-.6c0-.9-.8-.5-1.5-.8s-1.5-1.5-2.1-1.9c.5.2.9-.9,1.1-1.4,0,0,.4.2.6.3Z"/>
    <path class="st11" d="M231.2,131.5c1.5,0,.6,1.6,1.6,2.2-.2.5-.6,1.6-1.1,1.4h-.3c-.3-.3,0-.5-.8-.6v-.3c.9-.8-1.3-1.3-1.5-2s.9-1.3.9-1.3l1.1.6h0Z"/>
    <path class="st14" d="M219.2,127.1h-.6c-.3,0-.8-.7-1.1-.8v-.3c.2,0,.8,0,1.2.3s.4.7.4.8h0Z"/>
    <path class="st7" d="M217.5,126v.3c-.4-.2-.9-.2-1.4-.3v-.8c.5.3,1,.6,1.4.8Z"/>
    <path class="st14" d="M223.6,129.6c.3,0,1.8.8,1.9.9.2.2,0,.4,0,.5h-.6c0-.8-1.6-.5-1.4-1.4h0Z"/>
    <path class="st11" d="M257.1,154c1.1-.1.3.6.3.8l-.3-.3v-.6h0Z"/>
    <path class="st7" d="M215.3,124.6c.8.5.3.2.6.6-.4,0-.6-.2-.6-.6Z"/>
    <path class="st14" d="M220.3,127.7s.4-.4.6-.3,0,.5,0,.6h-.6s0-.3,0-.3Z"/>
    <path class="st14" d="M221.9,128.5c1,.3.2,0,.6.6-.5,0-.7,0-.6-.6Z"/>
    <path class="st7" d="M257.4,154.8v.3h-.3v-.6l.3.3Z"/>
    <path class="st11" d="M320.1,127.4c-1.6,0-2.2-1.4-3.5-1.9-.8.5-.1,1.1-.2,1.8,0,1.5-.5,3.1-1.5,4.3s-.3.4-.7.2c-.2-.1-.5-.3-.7-.5-.2.2-.1,0-.1,0-.1-.1-.3-.3-.4-.4-1.9-1.3-3.1-4.8-3.3-6.9-1.5-2.5-3.1-3.2-2.7-6.4.4-3.2-.9-1.8-.9-2.9s.5-3.2.9-4.8,2.1-3.2,3.3-2.5c.3.2.5.4.7.8.1,0,.2,0,.3,0,.9.5,1.1,2.1,1.7,3.1.2.1.4.3.4.5.1,0,.2.2.4.2,1.4.6.3,3.5.4,4.4,0,.4,2.2.7,3.2,1.8,1.1,1.2.9,3.3,1,3.7.2.7,2.1,5.2,1.8,5.6Z"/>
    <path class="st9" d="M295.5,154.9h0c0-.1,0-.1,0-.1.2-1.1-1.4-.1-1.4-1.4-1.7-.4-1.5-1-2.5-1.7-.4-.3-.1,0-.8-.6-.2-.2-1.7-.8-2.8-1.7l-.3-.3v.2c0-.1-1.2-.5-1.4-.5s-1.4,1.5-1.5,1.8c0,0,0,.1,0,.2,0,0,0,0,0,.1-.1.3.2.5.2,1.3s0,2.7.6,3.4h0c0,.3.2.5.3.7.1.2.7.2,1,.5.2.5.3,1.1.3,1.5s0,.4,0,.6c0,.1-.2.2-.6,0v.3s0,0,0,0v.8c.1,0,.2,0,.4.1v.6c.3,0,.5.2.8.5.2.5.3,1,.3,1.3,0,0,.2,0,.2,0,0,.3.1.6.1.7,1,0,1.4-.7,1.6-1.6.3-1.2.2-2.8.2-3.7,0-.8-.7-2.9-.5-4,0-.1.1-.2.2-.2.7-.5,1.5.7,2.3,1s3,1.1,3.8,1.1c0-.1,0-.2,0-.3h0c0-.4-.1-.6-.4-.6h0Z"/>
    <path class="st15" d="M324.6,129.3c.1-1.3-1.2-1.1-1.8-2.4,0,0,.1.1.2.2,0,0,.3-.4.3-.6,0-.2,0-.3,0-.4,0,0,.1.2.2.3,0,0,.3-.4.3-.6.1-1.4-1.3-1.1-1.9-2.5-.3-.9-.3-1-.3-1.7-.2-.1-.6-.3-.8-.6,0-.2,0-.5,0-.7,0,0,0,0,0,0,.3,0,.8,0,1.5-.2.1,0,.2-.3.3-.3v-.3c-.3,0-.5,0-.8,0,.3,0,.6,0,1,0,.1,0,.2-.3.3-.3v-.3c-1.2.2-2.4-.9-2.9-2,.3,0,.7,0,1.2-.1.1,0,.2-.3.3-.3v-.3c-.3,0-.5,0-.8,0,.3,0,.6,0,1,0,.1,0,.2-.3.3-.3v-.3c-1.3.2-2.5-.9-2.9-2.1.3,0,.6-.2.8-.2v-.3c-.4,0-.7,0-.9,0,0,0,0-.1,0-.2.4,0,1.1-.3,1.4-.3v-.3c-1.2.2-1.2,0-1.8-.7-.1,0-.4,0-.4,0l-.2.2c0,.2,0,.4-.1.6,0,0-.2,0-.2,0l-.2.2h0c-.4.2-.9.2-1.2,0-.5-.4-.1-2.5-1-3.5-.3-.4-.9-.3-1.2,0s-.1.2-.1.5c-.1,0-.3.1-.4.2-.3.3-.5,5.6-.3,6.4.1.4.4.6.8.7,0,1.3,0,2.5,0,2.8.2.8,1.3.8,1.9.5,0-.4,0-.2.2-.6.1,0,.2,0,.3,0,.1-.4,0-.2.3-.8,0,0,0,0,0,0,.1,0,.3,0,.6,0,.2,1.2,1,2.2,1.5,3.3.2,1.2.5,2.4.8,3.4.4,2.2,1,4.7,1.6,5,.6.3,1.6,0,2.2,1,0,0,.3-.4.3-.6,0-.2,0-.3,0-.4,0,0,.1.2.2.3,0,0,.3-.4.3-.6h0Z"/>
    <path class="st5" d="M317.7,150.6l1,.8c-.2.5,1.4,1.1.9,1.4s-2,0-2.4.8,0,1-.2,1.4-.6.9-.7,1.5c0,.8.5,2.1.2,3.1-1.2,0-2.6,1.1-3.7,1.1s-2.2-1.3-3.9-.3c-.2,0-.4-.7-.4-.9v-.6c.5,0,1.7-.2,2.2-.3-.2,1,.4,1,1.2.8s2.7-1.3,2.9-1.4.8-2.2.9-2.4c0-.6-.3-1.2-.2-1.5s.8-.5,1.1-1,.6-1.7.6-2.3c.1,0,.5-.5.6-.6v.4h-.1Z"/>
    <path class="st14" d="M326.2,140.3s0,0,0,0c0,0,0,0,0,0Z"/>
    <path class="st14" d="M326.2,140.3s0,0,0,0c-.1-.2,0,0,0,0Z"/>
    <path class="st11" d="M294.8,148.4h.6s-.3,1.8,0,2.2c-1,.1-.7-1-.9-1.3-.3-.5-1.9-.2-2.2.4l1.7,1.6.3,1h-2.2c-.4-.3-.2,0-.8-.6v-.3c-.1-.5-.1-1.6-.4-1.9s-1.2-.2-1.5-1.3.4-1.7.2-2.6c.6.4,1.6.9,2.1,1.6l3.1,1.2h0Z"/>
    <path class="st5" d="M294.5,154c.3,0,2.5.3,2.6.3.7-.2.3-1.3.6-1.4s3,.2,3.4.4.8,1.2,1.3,1.6c1.5,1.1,3.4,1.2,2.9,3.9-1.2,0-.2-1.3-.6-1.7s-.9,0-1.3-.2c-.8-.4-1.9-1.9-2.9-1.7-1.6.4-2.4.4-4.1.2s-.4,0-.6,0c.2-1-1.4,0-1.4-1.4h.1Z"/>
    <path class="st1" d="M317.2,151.2c0,.6-.3,1.8-.6,2.3s-.9.5-1.1,1,.3.9.2,1.5-.8,2.3-.9,2.4-2.6,1.4-2.9,1.4c-.8.2-1.5.2-1.2-.8.4,0,1.7-.2,1.9-.4s1.3-1.2,1.3-1.3c.3-.6-.9-3-.6-3.6.3-.6,1.2-.5,1.7-.8s1.6-1.3,2.1-1.7h.1Z"/>
    <path class="st11" d="M318,146.5v1.4c-2,.3-3.2-2.5-4.3-3.3s-1.2-.4-1.6-.7,0-.8-.1-1.2c-.2-.7-1.4-1.4-1.5-2.1l1.1-1.5c.7,2.7,3.2,5.2,5.4,6.9v-.3c.1,0,1,.8,1,.8h0Z"/>
    <path class="st10" d="M334.2,132.3c-2.1-1.5-4-2.1-4-5-1.1,0-.6-1.2-1.1-1.8-.1,0-1.2-.8-1.6-.9-.4,0-.9.3-1.2,0-.2-.2-2.5-3.5-2.2-3.8,0,0,.3.5,1.1,0s-.1-3.8-1.4-2.9c-.3.2-.2,1.8-.3,1.9s-.6,0-.8,0l-.3.3c0,.2-.6-1.4,0,.8.6,2.2.6,3.4.6,5.7-.1.6.2,1.2-.6,1,.6,1.4,1.9,1.2,1.9,2.5.4.2,2.4,1.2,2.7,1.6s-.2.5-.2.8v1.1c.8,0,.9.7,0,.6,0,.1.2.6.3.8,0,0,0,0,0,0-.1,0-.3-.6-.3-.8-.2,0-1.6-.2-1.6-.3v-1.1c-1.1-.2-1.1-.8-1.1-1.7v-.6c-.6-.9-1.3-.6-2.2-1s-1.8-6.5-2.2-7.7-1.5-2.6-1.7-4c-1-.2-.8,0-1.1.8,1,0,.7,1.9,1,2.7.3.8,2.1,5.2,1.8,5.6-1.6,0-2.2-1.4-3.5-1.9-.8.5-.1.3-.2,1.8-.1,1.5-.5,3.1-1.5,4.3-.3.4,1.4,1.3-.7.2-2.1-1.1-3.4-4.8-3.6-7.1-1.5-2.5-2-2.5-1.7-5.8.1-1-.4-2-.4-3.4s-1.1-3.3-.6-4.9c.1-.3,1.3-.3,1.6-.8s-.7-1.7.9-.9-.7,1.5-1,2.1c0,.2.2,1.8.2,2,.1.2,1.4,1.1,1.6,1.6.3,0,.9,0,1.3-.5.4-.5,0-1.3,1.2-.7s.4,1.9.4,3,1.3,3.3,0,3.9l.3,3.2c1.7.3,1.4-1.7,2.5-1.7.1-.7.1-1.1.3-1.7-.6.3-1.7.2-1.9-.5-.1-.5.2-6.2.3-6.4.1-.2.2-1,1.2,0s.5,3.2,1,3.5,1.7.3,1.7-.7v-.8c-1.2,0-.6-.9-.6-1.4v-.3c-3.3-4.7-7.3-8.8-11.8-12.2-1-1.7,1.9-1.6,3-1.4.3,0,.8,1.1,1.5.5s-2.1-2.1-2.6-2.5c-.2,0,.2,0-.4-.5-.6-.4-3-2.3-3.6-1.9-.2,0-.3,1.2-.8,1.4,0,0-.3-.4-1.6-1.4-2.8-2-4.6-2.6-7.6-4-.5-.3-1-1-1.6-1.2s-.1.6-2,0-3.1-2.4-4-2.7c-.9-.3-1.4-1.2-2.1-1.5-.2,0-1.7-1.3-2.8-2.3s-3-2.1-4.2-3.1c-.5-.4-4.3-3.4-4.8-3.4s-.7,0-1.2-.3-1.9-1-2.7-1.5.3.5-2.6-1c-2.8-1.4-7.1-3.9-9.7-5.3.6.5,1.5,2.1,2,2.4.6.4.8,1,2.5,1.9s5.1,2.5,8,4.4c2.9,1.9,5.1,3.6,7.3,5.7s2.9,3.3,4.3,5.7c.5.9,1.3,1.8,1.6,2.4.2.3.8.6,1.3,1.1s1.1.4,1.7.9c.2.2,2.9.8,4.1.7.6.6.8.8,1.5,1.4,1,.7-.8,1.6-1.3,3.4-.5,1.8,5.4,10.1,5.5,10.2.1,0,4.5,4.4,4.6,8.4.1,4,4.6,6.7,5.4,10.5-.3.3-1.6-1.2-2.2-.8-.5,2.1-2.7,5.6-2.3,7.7.1.2.5,2.2.6,2.4.1.2,4,7.7,5.1,7.2,1.1-.5,6.7,7,6,6.8s-1.1-.9-1.6-.9-2.2.1-2.3,0c-.1,0,.3-.3-.3-1.2s-1.1-1-1.7-1.5c0,.2,0,.4-.2.6,0-.1,0-.2,0-.4-1-.7-2.3-1.4-3.3-2.2,0,0-3.5-3.7-5.8-5.7s-5.7-3.3-4.8-7.1l-1.7-4.1c-1.5.2-.8,1.6-1,3.2s-.4.9,0,2.6-.2,1.1-.6,1.7c-.4.6-.3,3.8.4,5.1s2.1,5.2,2.2,5.6,0,5.4,0,5.4c1,.7.8,1.3,2.5,1.7.3.1,2,.6,2.6.3s3.6-.2,5.1.9,2.8,3.6,3.8,4c.9.3,2.3.6,2.8.6s1.7,0,2.2-.1c.5-.1,1.9-.6,2.1-.7,0,0,.7-1,1-1.6.3-.6-.9-3.1-.6-3.6s1.3-.5,1.7-.8,1.6-1.3,2.1-1.7c.2-.1.6-.3.6-.6s-.1-.7,0-1.1c.1-.4.5-1.3.8-1.4v-1.1c-.1-.2-.2-.4-.3-.6,0,0-1.9-2.3-2.2-2.7s-1.3-2.8-1.3-2.8c-.6-.8-.2-1.9.2-2.4.3-.4,1-.4,1.5-.2.4.2,3.4,4.6,4.2,3.7s-2.5-2.4-.3-3.2c-.2-.9.2-3.3.7-4,.3-.4.5-.6,1-.6l.6,1.1c0-.5-.2-1.7.4-1.9.1,0,1.6.4,1.7.6.1.2-.6,5.4,1,6.5,0,.1.5.4.8.8,1,1.6,1.7,2.3,3.2,3.7.2,0,.3.1.2.1.9.8,1.2,1.2,2.4,1.7.6.3,1.1-1,1.1-1.3-.1-.2-1.1-3-1.3-3.3s-3.3-6.3-2.3-7.1c.5-.3,1.6,0,1.8-.3s0-1.5.8-1.8c.5-.2,2.5.3,3.1.5,0-.6.8,0-1.3-1.4h0ZM295.8,93.4c.7-.2.7-.2.9,0-.2,0-.5,0-.9,0ZM296.4,95c1.1.9,2.9,2,3.3,2.5-.2-.3-2.1-1.4-3.3-2.5ZM308.3,150.9h0c.3.4,1,1.4,1.1,1.8-.3-.5-1-1.8-1.1-1.8Z"/>
    <path class="st11" d="M322.7,135.4c0-.5-.2-1.8.4-1.9s1.7.5,1.7.6c.1.2.2,3,.6,3.7s1.1,0,1.2,1.6.3.9-.4,1.1c-.5-.7-2.6-4.5-3.6-4.7v-.3s.1,0,.1,0Z"/>
    <path class="st1" d="M326.9,132.4l-1.7.6v-.3c-.1-.9,0-1.5-1.1-1.7v-.6c0-.2.3-.3.3-.6.4.3,2.6,1.5,2.7,1.6.4.5-.2.8-.2.8v.2Z"/>
    <path class="st3" d="M319.1,113.8s.7,1.1.8,1.1c.4.4,1.4.3,1.2,1.1-1.2.2-1.2,0-1.8-.7s-.4,0-.4,0v-.8c0-.2,0-.5.3-.6h-.1Z"/>
    <path class="st1" d="M308.6,159.2v.6c-1-.4-2.9.2-2.5-1.1,1,.1,1.9.5,2.5.6h0Z"/>
    <path class="st15" d="M326.9,132.4v1.7c-.3,0-1.6-.2-1.6-.3v-.8l1.7-.6h-.1,0Z"/>
    <path class="st15" d="M325.2,132.6c-1.1,0-1.1-.8-1.1-1.7,1.2,0,1,.8,1.1,1.7Z"/>
    <path class="st15" d="M319.1,113.3v.6c-.3,0-.3.3-.3.6-1.1,0-.6-.9-.6-1.4l.8.3h.1Z"/>
    <path class="st11" d="M327.2,143.7c.5-.5-2.5-2.7-.3-2.5-.2-.2-.1,0-.6-.8-.5-.7-.9-1.5-1.4-2.2-1.5.9-2.2-1-2.2-2.5v-.3l-.6-1.1c-.3,0-.7.1-1,.6-.5.7-4.8,2.3-5.3,2.6-.4.2-.9,0-1.3.4-.4.5.2,1.7-.4,2.2l.2.2c.2.4.4,1.5.6,1.9.2.4.5,1.3.8,1.7l.6.6c.3.4.3,1.5.7,2,.1.2,1,.8,1.1.9s2.6.9,3.6,1.7c.4.3.9.3,1,.3,1.2.4,2-.4,2.2-.6.4-.4,0-1.5,0-1.9-1.2-.9-2.7-1.5-3.3-3.2,0,0,0,0,0,0-.2-.9.2-1.6,1.1-1.1.1.1.8,2.1,1.4,2.6.6.5,1.3.8,1.7,1.2.9-1.2-1.1-2.2-.6-3.6l1.9.8h0Z"/>
    <path class="st5" d="M318.6,149.3l-.8.3c.1-.4.6-1.2.8-1.4s.2,0,.3,0c0,.3-.3.8-.3,1.1h0Z"/>
    <path class="st7" d="M301.7,141.5c-1.2,0-1.5-1.2-2.4-1.9s-2.8-1.2-3.6-2.5c-1.4-.9-2.1-3.3-.2-5.1,1.3-.9,3.1,3.5,3.1,4.2s1.4.5,1.6,1c.5,1.1,2,2.5,1.5,4.3h0Z"/>
    <path class="st14" d="M297.2,123.5v.9c.2.8,1.9,2.5,0,2.6-3.6-.6-5.8-4.1-5.6-4.9-.2-1.2,2.3.1,2.4,0,.4,0,.2-1.1,1.1-.8.2.7,1.9,1.6,2.1,1.9s0,.2,0,.3h0Z"/>
    <path class="st7" d="M294.7,121.6c.6-.3,4.5,0,6.3,1.2,1.6,1.2,1.2,3.5,1.4,4.1-.2.4-1-.3-1.1,0s0,1.3-.7,1.1-1.4-1.8-1.7-2.3-.7-.6-1.1-.7-1-.2-1.2-.7c0,0-.9-.7-.9-.8l-.9-1.8h0Z"/>
    <path class="st14" d="M295.9,102.2c-.2.2-1,0-1.3-.3s-2.9-2.6-3-2.8c-.6-.9-.5-1.5.3-2.2.4,0,.6.4.8.6.6.6,1.9,2.3,2.5,3s1,1.4.7,1.6h0Z"/>
    <path class="st10" d="M218.8,92c.2-.8,0-2.2,0-3.1h-.8c0-.3.1-1.6,0-1.1h-.8c0,.2-2.4,2-4.3,2.2-1.1,0-2.5,1.5-3.6,1.3-.5,0-.5-.4-1.5-.7-1-.3-1.8,0-2.8-.3s.5-.5-2.9-2.1-4.4-2.2-6.7-5.3c-.5-.6-1.2-1.4-1.8-2.3-.7-1.1-1.4-2.1-1.7-2.9,0-.3,0-.9,0-1.1,0,0,0,.5-.7-.2,0-.3,0-.8,0-1,0,0,0,.6-.9-.3,0,0,0,0,0,0-.2-.5-.3-1.3-.6-2.9-.6-3-.3-5.8-.9-8.8,0-.7-.8-1.3-.3-1.9.6-.2,2.1.2,2.2.4,0,.2,0,.8.3,1.2s1.3,0,1.6.9c0,0,0,0,0,0,0,.3,0,.7.1,1,0,1.2,0,2.8,1.2,3,.8.1,1.3-.3,1.5-.6.2,0,.3-.2.5-.3,0,0,.3.1.9,0,.2,0,.5-.3.7-.5,1.1-.3,1.8-3.1,2.8-4.3.3,0,1.9,0,2.2.1.4,0,0,1.3,1.4,1.1.3,0,.4-.2.8-.6.3,0,.4-.3,1.1-.9.2-.1.4-.3.6-.4.3-.2.6-.5.9-.7,1.9-1.4,3.5-3.4,4.6-5.7,0-.2.4.2.7-.7.3-.9,0-1.4,0-2s.5-.8.5-1.2-.6.3-.6-.3.5-1.3.6-2.8-.4-1.5-.9-2.7-1.2-3.4-1.9-4.5c-.1-.2-.3-.3-.4-.4-.1-.3-.3-.5-.4-.7-.3-.4-.6-.5-.8-.6,0-.2-.2-.4-.6-.8,0,0,0,0-.2-.1,0-.2-.2-.5-.7-1-1-1-3.1-1.5-4.4-1.9-.9-.3.6-1.3-2.2-.6-1.7.4-1.7,1.7-1.3,3-.2,1.2.6,2.8.7,4.1l.3.2v.8c.7.1,1.2-.6,1.8-.6s2,.6,2.4.7,2,1.6,2.2,1.9c0,.2.6,1.9.9,3.3-.1,1.5-.9,3.1-1.5,4.3-.3,0-3-.9-3.7-1.3-.7-.4-.9-1.2-1.2-1.4-.2-.1-.4,0-.7,0,0-1.1,1.3-2.8,1.1-3.1l-1.1-.2c.2-.4.3-.8.2-.9l-1.4-.3c-.7.4-1.1.4-1.7.6-.1.9.3,1.1.8,1.1h0c0,.1,0,.2,0,.3-.2,0-.4,0-.7.2-.1.8.2,1,.6,1.1,0,.3,0,.7,0,1.3,0,.2,0,.4,0,.6,0,.3,0,.6,0,1,.2,2.1,1.5,3.1,2,4.5,0,.2,0,.4-.1.7,0,.3,0,1.3-1.3,1.7-.3,0-.6,0-.8,0-.1-.4-.3-.7-.4-.9,0-.1-.2-.2-.4-.3-.1-.3-.2-.7-.4-.9-.3-.4-1.1-.5-1.8-.8-.1-.9.8-1.1.9-1.9,0-.9-.6-1.2-.5-1.9,0-.7,1.3-1.9-.3-2.3.1-.5,0-1-1.1-1.2-.6,0-1,.3-1.4.3-.2.6,0,1.6-.5,2.1,0,.1-.2.2-.4.3.2-.5.4-1,.4-1.2,0-.5-.7.4-.6-.5,0-.8,1.2-1.3-.4-2.2.1-.4,0-.8-1.2-1.4-.3.1-.4.1-.8.3-.3.9.6.3.8.6,0,0,0,.3,0,.5h0c0,.1,0,.2,0,.3h0c-.2,0-.3,0-.6.2-.2.6,0,.5.4.5,0,0,0,.2,0,.2,0,.1.3,0,.5,0,0,.2,0,.4-.1.7-.3.3-.7.6-.7,1.5s.1.7.2,1c0,.2,0,.4,0,.6,0,.5.2.8.3,1.2,0,.3-.2.6-.4,1-.3.4-.5,0-1,.9s-3.7,8.2-3.6,8.8c0,.5.2-.2.5.5-.2.6-.3,1-.3,1.1,0,.6.2-.8.8,1.7s.9,5.1,1.4,7.2c.5,2.1.3,5.1,2,6.8.5.4-.3-.6,1.4.6s1.2,2.6,3.5,5.6,5.3,4.1,8,6.4c.7.6.9,1.2,2,2.2s3,2,3.9,2.9-.4,0,0,1.2,1.4.4,2.4.6,1.6,1.9,3.2,1.3c0-.1,0-.3,0-.4.2,0,.4,0,.7-.1,0-.4-.2-.8-.3-1.2,1.2.7,2.4.9,3.3-.2.4-.2.7-.5,1-1,.6-.9,0-1.3-.6-1.8,0-.4-.3-.7-.7-1.1,0-.3-.1-.6,0-.9,0-1.3,1.7-2.6,1.9-3.4h0ZM190.8,49.9c0,0,0-.2.1-.3,0,0,0,0,0,.2s0,.2-.1.3c0,0,0,0,0-.1h0Z"/>
    <path class="st14" d="M200.1,69.2h0c-.3.8,0,0,0,0Z"/>
    <path class="st14" d="M217.5,89.5s0,0,0,0c-.1,0-.2,0-.3,0,0-.2,0-.3,0-.5-.2,0-.3,0-.4,0,0,0,0,0,0,0-.6,0-1,.3-1.4.6,0,0,1.6.2-.2.6-.3,0-.7,0-1.1,0-2.1,0-5.1-.6-6.2-1-1.1-.4-3.5-1.8-5.1-2.8-.1,0-.3-.2-.4-.3-.6-.4-.7-1.2-1.4-1.6,0,0-.2,0-.3-.2,0,0-.2-.2-.3-.3-.5-.3-1.5-.4-2.2-.7,0,0,0,0,0,0-.2,0-1.6-3.7-1.7-4.4,0-.7,0-1.4,0-1.8s-.8-.3-.8-.9,1.4-4,1.6-4.3,1.4-1.1,1.8-1.2c0-.2.2-.2.3-.6,0-.3,0-.7.2-.9-.1.4,0,.1,0,0,0,0,.2,0,.4-.1,0,0,0-.2.1-.3.4-1.2.3-1.9,1.3-2,0,0,.2,0,.3,0h0c.1,0,.2,0,.4,0l4.6-1.3c0,0,.5-.3.6-.3.5-.5.9-1.4,1.4-1.8.3-.3.9,0,1.1-.5s-.2-1.7.2-2.2c.2-.2.4,0,1-.4s2-1.3,2.5-1.9c.5-.6,0-1.2.9-2.4s.5-.4,1.2-2.2c.3-.8,1.3-.9,1.3-3.1s-1.1-4.2-1.3-6.1c0-.4.3-.8.2-1.3,0-.5-1.7-1.1-1.9-2.6s.9-1.6.8-2.4c0-.5-1.3-1.9-1.5-2.7-.2-.8,0-3.8-1.3-3.8-.2-.3-.5-.5-.9-.4h0c-.1,0-.3,0-.4,0-.5.2-1,1.2-1.6,1.5-.7-.4-2.9-1-4.2-1.7,0,0-.1-.1-.2-.2-.6-.9,0-1.6.8-1.9.2.1.3.4.7.2.2.1.4.2.9-.4.9-1.1.3-1.6.3-2.7s.5-.9.5-1.3-.4-.9-.5-1.7.4-1.8.3-2.4c0-.4-.9-.4-.9-.9s1.3-1,.8-2.4l-.7-.4h0s-3-1.8-3-1.8c-.5-.1-.8-.2-1.4-.3-.6,0-1.2-.3-1.9-.3h-.7c0,0-1,0-1,0v.3c0,.5.3.7.8.9.3.4,1,.5,1.5.7,0,0,0,0,0,0,.2.5,0,1.1.2,1.5s.6,0,.7.9c0,.8-1.8,2.3-2.1,3.1-.3.8.3,1.1,0,1.9s-2.4,1.1-1.4,2.5c0,.2.2,0,.3-.1,0,0,0,0,0,.1,0,0,0,0,0,0,0,.1,0,.2.2.4,0,.2.2,0,.4-.1,0,0,0,0,0,.1,0,.1.1,0,.2,0,0,.1,0,.2,0,.4.6,2.5-1.9,3.8-2.8,5s-1,2.4-2.9,3.7c-.9.6-1.6.8-2.3.8h-.7c-.4,0-.9,0-1.4.1-1,.3-2.1,1.5-3.1,1.8,0,.9.5,1,.9,1.2,0,.1.2.2.3.2,0,.1.2.2.2.5h.5c0,.1.1.2.1.4h2.1c0-.8.4-1.2,1-1.2.2,0,.5,0,.8.1,1.6.3,2.9.4,4.7.5.1,0,.2,0,.3,0h0c.3,0,.6,0,.9-.1,0,.2,0,.4,0,.8h.6c0,.1,0,.3,0,.4h1c-.2-1.9-2-4.7.8-5.4.2,0,.3,0,.4,0,.4,0,.4.4,1.4.7,1,.3,2.4.6,3.4,1.2.1,0,.2.2.3.3.4.4.5,1.3.8,1.6.1.1.3.1.5.1,0,.1,0,.2.2.3.1.1.3.1.5.1,0,0,.2.2.3.3.8,1.1,1.5,3.4,1.9,4.5s.9,1.3.9,2.7c0,.8-.6,2.3-.6,2.8s.6,0,.6.3-.4.6-.5,1.2c0,.5.2,1,.1,1.7,0-.2-.1-.3-.7,1-1.1,2.4-2.8,4.5-4.8,5.9-.6.4-1,1.6-2.5,1.9h0c-.1-.3,0-.7-.3-.7,0,0-.2-.1-.5-.2,0-.1,0-.2-.2-.2,0,0-.6-.4-1.4-.3-.4,0-.8,0-1.3.2-1.3.5-2.2,4.3-3.4,4.8-.2,0-.5-.2-.7-.2,0,0,0,0,0,0-.1,0-.2,0-.4,0-.3,0-.3,1-1.3,1.1h-.2s0,0,0,0c-.6-.9-.3-2.8-.6-3.6,0-.3-.4-.4-.7-.5-.2-.3-.6-.4-1-.5-.2-.4,0-.7-.2-1.1-.1-.2-.4-.6-.9-.7-.2-.3-.6-.5-1.2-.5-.3,0-.8,0-1.3.4-1.4.9-.8-.6-.2,2.4s.3,5.8.9,8.8c.3,1.3.5,3.2,1.5,4.1,0,.1.3.2.4.2,0,0,.1.2.2.2,0,0,0,0,0,0,0,.2.1.5.3,1,.7,1.8,2,3.3,4.3,6.4,1.5,2.1,2.4,3,3.9,3.9.9.6,1.9,1.1,3.4,1.8.6.5,1.4,1.2,2.1,1.6.3.2.6.4.9.5.6.2,1.2.2,1.8.2h.2c.3,0,.5,0,.8,0,0,0,0,0,0,0,0,0,.1,0,.2,0,.2.2.4.4,1.2.6.2,0,.3,0,.4,0,1.1.2,1.7-1.1,3.6-1.3h.1c.8,0,1.5.3,2,.2.8,0,1.5-.2,1.8-2.1-.2,0-.3,0-.4,0h0ZM211.5,54.1h0c0,.2,0,.1,0,0Z"/>
    <path class="st11" d="M218.2,40.8c0-.7-.2-1.1,0-2.2s1-1.3.2-3c-.1-.2-.3-.5-.4-.7-.4-.8-1.1-1.4-1.8-2.4,0,0,0,0,0-.1-.2-.3-.3-.5-.5-.8-.7-1.1-1.4-2.2-2.8-2-.4.1-.8.5-1.1.5s-1.1,0-1.7-.6c-.4-.9.6-.9.5-2.4,0-1.6-2.6-5-1.4-6.7.3-.4,1.9-.6,1.4-1.2,0,0-.2-.2-.3-.2,0-.1,0-.2,0-.4-.2-.3-1.3-.5-2-1.2,0-.2,0-.3,0-.5,0,0-.2,0-.3,0,0-.2,0-.3-.1-.5-1.3-.3-2.4-.5-3.7-.8l1.3.8c-.3,0-.6-.1-.9-.2l2.7,1.6c.1,1-.9,1.3-.9,2s.2.4.4.5c0,0,0,0,0,0,0,.4.3.4.6.6,0,.6-.3,1.6-.3,2.2s.5,1.4.5,1.7-.4.3-.5,1.3.6,1.5-.3,2.7c-.6.7-.5.1-1.4.2s-1.5,1-1,1.9c0,0,.1,0,.2.2,0,.1,0,.3.2.4.2.3,4.5,1.9,5.2,2.4.7,0,.3-1.1,1.9-1.6.3-.1.6,0,.7,0,.3.9.3,2.5.5,3.1.1.4.4.8.7,1.2.2.3.4.6.6,1,0,.2.2.4.2.6,0,.8-1,.8-.8,2.4,0,.6.3,1,.6,1.4.3.6.8,1,1.1,1.3,0,0-.2.2,0,1.2.2,1.9,1.3,3.9,1.3,6.1s-.6,1.3-1.3,3.1c-.7,1.8-.4,1-1.2,2.2-.4.6-.5,1.8-.9,2.4-.3.3-1.9,1.4-2.5,1.9-.3.2-.6,0-1,.4s0,1.8-.2,2.2c0,.2-.6,0-1.1.5s-.9,1.3-1.4,1.8c.4-.2.8-.3,1.2-.5-.3.4-.5.8-.8,1.1,1.6-.7,3.2-.9,3-3.3.7-.3,1.2.7,1.7.4s.8-1.3,1.4-2,1.8-1.4,2.3-2.1.8-2.6,1-2.7c.2,0,1.3,0,1.4,0s-.2,0,.3-3.4.4-6-.7-8.5.5-1.9.7-3.2h0Z"/>
    <path class="st11" d="M207.9,16.7c0,0,0,.1,0,.2,0,0,.1,0,.2,0l-.2-.2Z"/>
    <path class="st11" d="M198.4,70.6c-.6,1.7-1.6,3.3-1.3,5.1s1.6,4.9,1.9,5.5c1.5,2.5,4.8,4.9,7.3,6.3s6.2,2.5,9.8,2.2c0,0,.2.5-.2.6-1.8.4-5.9-.3-7.7-.9s-5-2.6-6.2-3.5-.9-1.3-1.4-1.6-2.3-.5-2.9-1.2-1.5-3.9-1.7-4.4,0-1.3,0-1.8-.8-.2-.8-.9,1.4-4.1,1.6-4.3,1.4-1,1.8-1.2h0q0,0,0,0Z"/>
    <path class="st11" d="M206.1,65.4s0,.4,0,.6c-.6.6-4.8,1.1-5.4,1.5s-.5,1.1-1.1,1.2c.5-1.4.2-2.2,2-2l4.6-1.3Z"/>
    <path class="st15" d="M219.7,42.9v.6c0,.5-.5,1.6-.6,1.9-.8-.8-.7-2.4.6-2.5Z"/>
    <path class="st11" d="M199.5,69c-.2.5-.2.9-.8,1.1.2-.4-.2-1.2.8-1.1Z"/>
    <path class="st10" d="M233.8,71.7c-.4,1.4-2,2.1-2.9,3s-1.8,2-2.5,2.8-.6,1.9-1.8,2c0-.3.2-.6.3-.8s.2-.2.3-.3c.2-.4.3-.7.3-1.1,1.1,0,2-2,2.8-2.8s2.5-2.2,3.6-2.8h-.1Z"/>
    <path class="st13" d="M344.6,123.8v.6c-.1,0-.4.4-.6-.6s0-.2,0-.3c.2,0,.4.2.6.3Z"/>
    <path class="st7" d="M321.4,116s1.2,1,1.4,1.1.4.5.4.6l.4.7c0,.5-.8,1.3-.8,1.6-1.5.3-3.1-2-3.1-3.5.1-.9,1.7-.5,1.7-.5h0Z"/>
    <path class="st15" d="M322.7,118.2h-.3c0,0,.3-.6.3-.6.2.6,0,.4,0,.6Z"/>
    <path class="st10" d="M346.9,131.6c-1-.6-2.3.7-1.5-1.9,0,0,0,0,0,0,.4.2,1.5.7,1.7.8,1,.2.3-.6.3-1.2s.3-1.2.2-1.8c-.1,0,.9.5-.6-.6s-1.4-1-2.5-2.5c-.1-.2-.4.3-.6-.6-1.2,0-2.8-1.4-3.3-2.5-1.5-.6-2.7-1.9-3.9-2.8v.2c-.6-.5-1.2-1-1.8-1.4,0,0,0,0,0-.1-.1,0-.2-.3-.3-.3h-.1c0,0-.2-.2-.2-.2-.8-.6-1.5-1.3-2.5-1.8-.6-.4-1.7-.4-1.7-1.4-.4-.2-.7-.6-1.1-.8-.6,0-1.1,0-1.1-.8-.3-.2-.5-.5-.8-.6s-1.1.2-1.1-.8c-.2-.2-.4-.3-.7-.3,0-.6,0-.4-.7-1-.7-.6-5.8-4.3-6.4-3.7-.7.8-.7,2.1-.4,3s1.8,3.4,2.6,4.8.6.8,2.4,2.6,1.2.7,3.1,1.6c.6.3-.8.2,1.3,1.2,2.1,1,4.4,1.9,6.5,2.8,0,0,0,0,0,.2.7.4,2,.7,2.2,1.5-4.1-.3,1.4,4.6,2.1,5.9,2.3,2.3,6.1,2.2,8.3,4.7l2.2,1v-.6c-.6-.4-.7-2-1.7-2.6h0ZM328,115s0,0,0,0l.7.2s-.7-.2-.7-.2Z"/>
    <path class="st2" d="M321.7,148.9c.9.5.9.5,1,.6,1.4.9,2.3,1.6,4.2,1.7.2,1.2-1.3,1.1-1.4,2.1s.3,1.9,1.1,1.8v.3c.2,1,.8,3.2,1.9,3.3.4,1.4.6,3,.8,4.4-.7-.2-2.3-.4-2.8-.6-.8-.3-1.6-1.2-2.6-1.3s.8,1.8-1,1.4c-.3-.3-1.1-.6-1.4-.8s0-.7-.4-.8-2.8.9-3.1-.2.8-2.9,1-3.6.3-1.3.7-2.3,1-2.2,1-2.3c0-1.1-3.1-.6-3.1-2.8s.3-2.1,1-2.2c1,0,2.4,1,3.1,1.3h0Z"/>
    <path class="st4" d="M327.4,148.7c0,.4-.1.9,0,1.2s2.4,1.5-.5,1.3-2.8-.8-4.2-1.7c.2-.9,2.1-.4,2.2-.6s0-1.6,0-1.9c.9.6,1.4,1.7,2.5,1.7Z"/>
    <path class="st7" d="M321.4,143.8c-.3-.9.4-1.6,1.3-1.1.9.5,1,1.8,1.5,2.4s1.2,1,1.6,1.4.1.5.4.8c.6.7,1.1.5,1.3,1.4-1.1,0-2.5-.9-3.4-1.6-.7-.5-1.7-1.2-2.2-2-.4-.7-.6-1.3-.6-1.3h0Z"/>
    <path class="st4" d="M338,136c-.6-.5-1.8-.7-1.7-1.9.8.5,1.5.7,1.7,1.9Z"/>
    <path class="st11" d="M361.8,160.9c.1.1.2.4.3.6v1.7c-.6.1-.1,2.1,2.3,3.5s.5.5.6.6c.3,1.4-.7.7-1.7.3s-2.1-.7-2.2-.8c-.2-.2.5-.2-.6-.6s-1.3-.6-1.9-.8c0-.4.4-1.1.2-1.3s-3.4-1.9-3.8-1.9c-1.4-.1-2.5,1.4-3.6-.8s.7-4-.1-5.3-.9-.2-.8-.8c1.1-.2.7-1.4.8-1.5.5-.6,9.4,6.9,10.5,7.2h0q0-.1,0,0Z"/>
    <path class="st7" d="M362,161.4s.8,0,1,.8-.3,1.2-.2,1.4.4,0,.6,0c.7.4,1,1,1.7,1.4v.3c-.4-.1-1-.2-1.4-.3l.6,1.7c-2.4-1.5-2.9-3.4-2.3-3.5v-1.8h0Z"/>
    <path class="st9" d="M366.7,162.3c.4,0,1.8,1.6,1.7,2.1-.1.7-2.1.4-2.6.3s-.9-.6-.8.4c-.7-.4-1-1-1.7-1.4-.3-.8,1.2-.6,2.1-.8s1.1-.6,1.2-.6h.1Z"/>
    <path class="st3" d="M348.2,156.5h1.1c0,.8.8,1.5.3,1.8s-2.2.5-2.6.4c-1.9,0-1.7-1.6-1.9-2.8.7,0,2,1.1,2.5,1.1s.6-.5.6-.5h0Z"/>
    <path class="st3" d="M349,153.4s.1-.5.3-.8c.6.2.2.7-.3.8Z"/>
    <path class="st3" d="M349.3,155.3c.6-.1.9.2.3.6,0,0-.2-.3-.3-.6Z"/>
    <path class="st7" d="M335.6,157.8c-.1-.2.7-.1-.6-.9-1.3-.8-3.1.2-2.8-2.5h.5c0,0,.1,0,.1,0v-.5c1.4,0,1.3-.5,1.8-.6,0,0,0,0,0,0,0,0,0,0,.1,0-.4-.5-.1-.9.3-1.4-.2,0-.4-.3-1.2-.3s-.5,0-.8,0c-1.6.2-1.3.8-3.4,1.3-1.3.3-2.3,0-2.7.4-.3.2-.4.7-.2,2v.3c-1,1.8.7,2.4,1,3.7,0,.4.2.7.2,1.1,0,1-.5,1.6,0,2.3,0,.1.6.6.6.7.2,0,.3.2.6.2.6.2,1.1,0,1.6,0,.2,0,.4,0,.6,0,.5.1,1.4.3,1.7.3,0,0,.1,0,.2,0,0,0,0,0,0-.1,0-.3,2.6-3.1,3.7-3.9,0,0,0,0,0,0s0,0,0,0c1.2-.9-1-1.5-1.4-1.8h0Z"/>
    <path class="st3" d="M339.1,154.2c.4.2,1,1.9,1.1,2.2-.9,2.4-2.2-1.1-2.8-1.7-.4-.7,1.3-.7,1.7-.6h0Z"/>
    <path class="st15" d="M374.5,156.2s1-.3.3.8c-.7-.2-2.3.1-.3-.8Z"/>
    <path class="st1" d="M370.3,153.4c-.3-.3-.9-.4-.8-1.1.4.3,1,0,.8,1.1Z"/>
    <path class="st1" d="M372.3,154.8c-.2.6-.7.1-.8-.3,0,0,.5,0,.8.3Z"/>
    <path class="st0" d="M375.8,160.4c.2.3,1.4,2.2,1.2,2.4-.6,0-1,0-1.5-.3s-2.2-2.3-2.5-2.6-.4-1-.8-1.5-3.5-3.3-3.2-3.6c.7.3.8-.4.9-.5,1.3-.7,1.1,1.7,1.6,2s1-.4,1.4,0,.2,1.4.6,1.9,1.1.3,1.4.6.7,1.2,1,1.6h-.1,0Z"/>
    <path class="st7" d="M262.6,171.1c.7,1.3,0,2.9,0,4.3-.3,8.3.9,17,.3,25.2s0,1.8-1.1,1.5c0-1.1-.1-1.4-.8-2.2v-.6c0-.5-.3-1-.3-1.4v-6.9c1.2-.5.3-2.1.4-2.9s1.2-1.8-.4-3v-.6c.9-.3.7-2.7-.3-2.5v-.8c1.1.1,1.1-2.2.3-2.8v-3.1c.2.1,1.3.6,1.4.6,0-1.4.1-3,.3-4.3s.3-.6.3-.7v.2q-.1,0,0,0Z"/>
    <path class="st11" d="M262.6,166.7c0,1.6.2,2.7,0,4.4s-.2.3-.3.7c-.2,1.3-.2,2.9-.3,4.3,0,0-1.2-.4-1.4-.6l-.3-.3v-2.2c0-.7,0-.4,0-.6v-1.4c1.4.1.9-.7,1.1-1.5s.7-.1.5-1.9-.3-.8-.3-1.1h.8l.2.2h0Z"/>
    <path class="st10" d="M262.2,161.3c0,.4-.4,1.1-.4,1.6-.1,1.1,0,2.6,0,3.9s.3.8.3,1.1h-.4c-.4,1.1-.7.1-1.6,0,0-.8-.2-1.7-.3-2.2s0-.4,0-.6v-2.5c0-.4-.1-1.3-.1-1.8.7,0,1.2.1,1.8.4h.7c0,.1,0,.2,0,.2Z"/>
    <path class="st7" d="M261,199.5c-.1.7-.7,1.7-.7,3,.1.8.4,3.4.4,3.8h0s0,.1,0,.1l.8.3c.2-.5.2-1.1.2-1.6v-.2c.2-.8,0-2.1,0-2.9v-.7c.2-1.1,0-1.1-.8-1.9Z"/>
    <path class="st6" d="M260.7,175.6v1.7l-.6.3v-2.2h.3c.1,0,.2.2.3.3h0Z"/>
    <path class="st7" d="M260.4,173.1v2.2h-.3c0-.7-.9-2.4.3-2.2Z"/>
    <path class="st7" d="M260.8,171.3c-.1-1-.7-2.3-.7-3.4h.1c0-.6-.2-1.2-.2-1.7,0-.5,0-2.6,0-3.8,0-.2.2,0,0-1.2-.2-1.5-.7-3-1.4-4.4h.1c-.1-.2-.6-.4-.6-.6-.6.2-.2.4.1,1.1.3.7.8,1.5,1.1,2.5.2.8,0,1.8.3,2.4-.4,1.1-.2,4,.2,4.3-.3,1.7,0,3.5.2,5.1,0,.5-.5,2.1.4,1.9,0-.5.6-1.2.5-2.2h0Z"/>
    <path class="st5" d="M261.1,184.3c.3-.7.1-2.4-.4-2.9.7-.4.7-3.5,0-3.9,0,0,0,0-.1.1v-.3l-.6.3v.6c0,0,.1.9.2,1.9,0,.5.1.9.1,1.4h0c0,.6,0,1.9.1,2.4,0,1.9.1,5.5.1,7.3h0c1.2-.5.8-1.5.9-2.5,0-.8.4-3-.4-4.4h0Z"/>
    <path class="st5" d="M260.7,253.9h-1.1c.4-1.3,0-2.3,0-3.6s0-.6,0-.8c0-.6.5-1.2-.4-1.9s-.9-.2-1.5-.3c.1-.4.1-.8.3-1.1.2-.5.6-1.1.6-1.5s-.5-.2-.6-1c1-.4.3-.8.3-1.1s.2-.9-.3-1.1c0-.7.7-.6.8-1.2s-.3-1.4-.3-2.1,0-.4,0-.6v-1.4c.5-1.3.7-2.7.8-4.2s0-.4,0-.6c.3-2.2.4-4.4.6-6.6s.2-3,.3-4.4,0-.7,0-1.1c0-1.1.3-2.3.3-3.3.4-.1,1.2.3,1.1-.4s-.6-1.3.2-1,1,2.1,1,2.9c.2,5.1-.4,11.9-1.6,16.7s.2,3.8.2,6-.5,1.1-.5,1.7c-.3,3.2-.4,6.7,0,9.7s0,1.6,0,2.3h-.2Z"/>
    <path class="st15" d="M253.5,248.9c-.3-.3-.9.2-.6.6s.9-.2.6-.6Z"/>
    <path class="st11" d="M252.4,255.3h4.4c1.4,0,2.7.6,3,.9s0,.4,0,.5c-.5,0-3.2-.1-3.3,0-.7.5,1.4.8,1.6.9.3.2,1.3,1.7,1.5,2.1-.8,0-1.3.3-2.2.3h-1.7c-.6,0-.5-.3-1.1-.3h-1.4c-.5,0-.2,0-.3,0h-1.1c.2-.8-.4-.5-.9-.6-4.7-.9-11.2,0-15.5-1.2s-.9,0-.8-.7h4.7c1.6,0,2.1.3,2.6.3h6.1c.9,0,2.2.3,3.5.3s2.9-.4,4.4-.6c0-1.1-1-.7-1.7-.8s-1.2-.7-1.7,0c-.4,0-.7-.2-1.1-.3-.9-.2-2.2-.1-1.9-.8h2.9,0Z"/>
    <path class="st7" d="M240.2,260c-.2.7.9.7,1.3.8,4.8.5,9.6.2,14.5.6,0,.6,0,.5-.4.6-1.6.2-3-.3-4.4-.3-2.3,0-5.6-.2-7.8,0s-1,0-1,.8c-.5,0-.9-.3-1.1-.3-.3-1.8-2.9-.9-4.3-1.1s-1.8-.7-.7-1.4c1.3.4,2.6.3,3.9.3h0Z"/>
    <path class="st9" d="M242.7,252.3h6.6c1.4,0,2.4.2,3.6.3s1.9.2,2.8.3c.9.1,1.5,0,2.2,0,0,0,.1.5-.2.6-.8.2-3.2,0-4.2,0h-2.2c-4.1,0-8.1-.5-12.2-.6-.4-.3,0-.5.4-.6.9-.1,2.2,0,3.2,0Z"/>
    <path class="st5" d="M251.8,259.7h2.8l1.1.3h1.7l-.3.3c-2.3-.2-5.3,0-7.8,0-1.6-.5-3.6-.3-5.3-.3h-3.9c-1.3,0-2.6,0-3.9-.3,1.3-.8,3.1-.6,4.6-.6s.7.3.8.3h7.5c.5,0,1.8.3,2.6.3h.1Z"/>
    <path class="st4" d="M251.6,254.5c.8.1.9-.3.8.8h-5.8c-1,0-.3-.3-.7-.3-2.3-.1-4.4,0-6.7-.3s-.9-.2-.4-.6c4.2.2,8.6-.4,12.7.3h0Z"/>
    <path class="st15" d="M253.5,253.4c-.2.9.4.5.9.6.9.2,2.6,0,2.4,1.4h-4.4c0-1.2,0-.7-.8-.8l-.3-1.1h2.2q0-.1,0,0Z"/>
    <path class="st1" d="M239.4,257.2c.3-.5,1.1-.3,1.5-.3,3.3,0,6.5.2,9.7.3s1.1-.3,1,.6c-1.2,0-2.6-.3-3.5-.3h-6.1c-.5,0-1.8-.3-2.6-.3h0Z"/>
    <path class="st7" d="M257.6,247.3c.6,0,1-.2,1.5.3.9.8.4,1.3.4,1.9-.5,0-1.3-.5-1.7-.6,0-.9-1.1-.7-.8-1.7h.6Z"/>
    <path class="st7" d="M249.6,255.3c-.2.7,1,.6,1.9.8-1,.6-2.9.3-4,0s-1,0-1-.8h3.1Z"/>
    <path class="st3" d="M228.3,255.6c.4,0,1.8,0,1.9.4.3,1-1.8.1-1.9.1v-.6h0Z"/>
    <path class="st7" d="M254.3,256.4c-.5.7-1.2.1-1.7,0,.5-.7,1.3,0,1.7,0Z"/>
    <path class="st0" d="M190.6,15.5c.2.7.3,3.1.3,4,0,1.8-1.2,1.1-2.4,1.8s-3.2,3.8-4.3,4.8-3.3,2-4.4,2.9-1.5,1.1-2.2,1.7l-6.4,2.3c-1.4,1.3-1.8,1.4-3.6,1.3l.3-.8c.6-.1,2-1.8,1.9-2.5.2,0,.4-.2.6-.3,1.3-.8,3.2-3.9,4.4-5.3,1.2-1.4,1.2-1.5,1.7-1.9.9-.9,2.3-1.8,3.3-2.8.5,0,.6,0,.6-.6.3-.2.6-.4.8-.6.5,0,.6,0,.6-.6.3,0,1-.4,1.1-.6.5,0,.6,0,.6-.6.3,0,.9,0,1.1-.3.6,0,.5,0,.6-.6.6-.2,1.3,0,1.1-.8h1.1c1.1-.1,2.1-.9,3.3-.8v.3q0,0,0,0Z"/>
    <path class="st14" d="M181.8,19.1c0,.5,0,.6-.6.6.2-.2-.4,0,.6-.6Z"/>
    <path class="st14" d="M180.4,20.2c0,.5,0,.6-.6.6,0,0,0,0,.6-.6Z"/>
    <path class="st14" d="M183.4,18c0,.5,0,.6-.6.6.2-.2-.5-.3.6-.6Z"/>
    <path class="st14" d="M185.1,17.2c0,.5,0,.6-.6.6.2-.3-.5-.3.6-.6Z"/>
    <path class="st10" d="M178.5,70.1c.3,2.4.7,3.7.8,6.4h-.3v-1.4c0-.8-.6-1.9-.8-2.8s-.3-.6-.3-.8c0-.7-.2-1.6.6-1.4Z"/>
    <path class="st10" d="M179.6,61.5c-.2,2-.2,4-.3,6s.3,1.1-.6,1v-2.5c.4,0,.4-.5,0-.6v-.6l.8-3.3s0,0,0,0Z"/>
    <path class="st10" d="M178.7,69c0,0,.8.7-.3.6v-.3c0,0,0-.2.3-.3Z"/>
    <path class="st14" d="M173.7,34.3v1.1h-1.1c0,.6.2,1.1.3,1.7s0,.2,0,.3c-1.3,0-2.3,1.4-3.3,1.9s-2,.4-3,.9-2.5,1.3-2.6,2c-.4-.1-.6.2-.8.3-.9.3-1.8.7-2.8,1.1s-3,1.4-2.5.4l8.8-4.7c0-.4.2-.8-.4-.7s-2.3,1.7-3.1,1.9-1.6-.5-2.7.4-.3,1.1-.6,1.4-1.4-.2-1.9.3c-5.5,3.5-11,7.1-16.4,10.7s-1.5,1.1-2,2c0,0-.5-.9-.6-.9v-.8c.5,0,.8-.4.8-.8,1.2,0,4.4-2.8,5.5-3.6s1.2-.6,1.9-1.1c2-1.3,4.1-3,5.8-4.2s3.2-2,4.7-3,2.2-1.5,3.3-2.2.9-.5,1.4-.8c1-.7,3.1-2.4,3.9-2.8s.4,0,.6,0c0,1-1.5,1.5-1.4,2s1.1.6,1.4.9c.4.4.2,2.1,1.6,0s.9-1,1.9-2,.5-1.3.9-1.6,1.4.8,2.2.2c0,0,.2-.3.2-.3Z"/>
    <path class="st6" d="M170.4,30.7c-.2.1-.3.3-.6.3,0,0-.4-.3-.3-.6.3,0,.7,0,.8.3,0,0,0,0,0,0Z"/>
    <path class="st10" d="M167.1,34.5h0c0-.3,0,0,0,0Z"/>
    <path class="st10" d="M166.3,35.3h0c0-.3,0,0,0,0Z"/>
    <path class="st10" d="M182,29.3l-.7.3c.2-.1.3-.3.5-.4h0c0-.1-6.4,2.2-6.4,2.2,0,0,0,0-.2.1l-3.3,1.2h-.2c-.1,0-.3.1-.4.2h-.2c0-.2,0,0,0,0h0c-.3.3-.6.5-.8.7,0,0,0,0,0,0-.8.6-1.5.7-2.8.6-.2,0-.4.3-.6.3,0,0,0,.2,0,.3,0,0,0,.1,0,.2h-.2c-.2,0-.4.3-.6.3,0,0,0,.2,0,.3,0,.9-1.5,1.4-1.4,2,0,.1,0,.2.2.3.2.5,1,.4,1.4.8,0,0,0,0,0,0,0,.1.2.3.3.4.2.4.5.7,1.3-.4.2,0,.5-.2.8-.8.2-.3.3-.5.5-.7.1-.1.3-.2.5-.5.3,0,.5.2.7.4,0,0,0,0,0,0,0,.1.2.3.3.4.2.4.5.7,1.3-.4.2,0,.5-.2.8-.8.2-.3.3-.5.5-.7.2-.1.3-.3.6-.6,0,0,0,0,0,0,.2-.1.4-.3.8-.7.1-.2.2-.5.4-.8.5.1,1.2.7,1.9.2,0-.3.2-.5.3-.6.2,0,.3,0,.5-.2,0,0,0-.2,0-.2.2-.1.3-.2.5-.4.8-.7,1.9-1.7,2.5-2.2h0c0-.1,0,0,0,0,.3-.3.6-.5.8-.7h0c0-.1,0-.1,0-.1Z"/>
    <path class="st3" d="M167.1,34.6v.3h-.6c0-.1,0-.3-.3-.3-.2-.9.6-.7.8,0h0Z"/>
    <path class="st2" d="M139.1,54.3s.5.3.6.3c0,0,.2.2.3.3s0,0,.6.6.5.2.7.4l1.2,2.1s-1.2.8-1.3.8c-.2.3,0,.8-.1.8h-.6c-.1,0,0,.5,0,.6,0,0-1.6,0-2.2,0-1.1.3-3.5,2-4.9,2.6s-3.8,1.5-4.4,1.4c-1-.2-1.2-1.2-.4-1.7.8-.5.6-.2,1.1-.6.9-.6.7,0,1.4-1.1,1.4,0,2.6-1.6,3.9-1.7s.5.7.8-.2c.5-1.5-.2-3.5-1.3-4.5,0,0,.4-1.3,1-1.4s1.4,1.5,2,1.6.9-.6,1.7-.5h-.1q0,0,0,.1Z"/>
    <path class="st5" d="M134.4,54.6c1.2,1,1.8,3,1.3,4.5s-.7.2-.8.2c.6-1.2.3-2.4-1.1-1.7v-.3c0-.6-.7-1-.8-1.4s0-.9.3-1.1c.3-.3,1-.2,1.1-.3h0Z"/>
    <path class="st11" d="M135,59.3c-1.3,0-2.5,1.6-3.9,1.7.3-.5.6-1.2.8-1.7.4-.3,1.7-1.5,1.9-1.7,1.4-.7,1.7.5,1.1,1.7h.1Z"/>
    <path class="st7" d="M131.9,59.3c-.2.5-.6,1.2-.8,1.7-.6,1.1-.5.5-1.4,1.1,0-.7.8-1.8,1.2-2.2s.9-.4,1-.5h0Z"/>
    <path class="st9" d="M291.9,241.9c-1-1.5,1-1.4.6-2.6s-1.3-.2-1.4-.2c-.6,0-1.1-.2-1.7-.3v-.6h2.8c.9,0,.4,0,.6,0,.1-.7-.2-.6-.8-.6-.1-.2-.2-.2-.3-.6s0-.4,0-.6h.8l.6.6h.6c-.3,1.3,2.5,1.8,3.3,1.9v.8c-.7,0-2.1-.2-2.6.2s0,1-.3,1.4c-.4.7-1.6-.4-1.1,1.1.7,2.1,1.5,1.8,3.4,2.2,0,0-.8.7-.9.7,0,.5.4.8.5,1.1s-.2.7-.2,1,.5.3.6.5-.1.5,0,.8.6.2.8.5c.7.8.7,2.2.8,3.2h-.6c.3-1.1-1.7-2-1.9-2.7s.3-1,.2-1.6-.9-.4-1.1-.9.3-1.1.2-1.2c-.2-.1-3.7.8-4.1,1s-.8.9-1.2,1-1,0-1.4.3c-.6.3-.6,2.2-1.3,2.6s-2.2.2-3.1.5c-.1.9.8.8,1.3,1,1.2.6-.2.6-.7.8-1.4.6-2.6,1-4.2,1,0,1.1,2,.4,2.9.5s.5.6.9.8,1.9.2,2,.3c.2.2-.2.8-.4.8h-4c0,1.7,2.1.8,2.8,1.2s0,.8,0,1.1.6.1.6.3c0,.7-1.1,1.4.8,1.2-.1.2,0,1.2-.7,1.3s-1.5-.5-1.8-.8-.7-.9-.6-1.1c.5,0,1.2-.1,1.1-.8h-1.9c.1-.5-.5-.7-.6-.8-.2-.4.5-.9-.6-.8v-.3c-.1,0-.6.3-.6.3h-.8c-.6,0-1.3.4-1.9.3-.3-2.1,2-1.5,1.9-3.3-.8,0-1.5-.2-2.2-.3-2.1-.1-4.3,0-6.4-.3v-.6h.8c1.8,0,3.7.1,5.5.3s2.1.6,3,.6c0-.8,0-.4.4-.6s2-.4,2.3-.8-.4-1.2.1-1.7h.6c.9,0,2.8-1.4,3.2-2.2s-.2-1.3,1-1.1l-.6-1.7h3l-2.4-.6-.7-.8h2.5c.8,0,2.2-.3,2.2-1.2s-1.8-.5.5-.8c0-.3-2.3-.1-2.8-.1"/>
    <path class="st4" d="M280.4,257.8h.6c1,0,.3.4.6.8-.7.4,0,.7.6.8s1.3,0,1.9,0c.1.7-.6.8-1.1.8-.2.2.4,1,.6,1.1-1.3.3-1.6,2.2-2.2,2.6s-2,.9-3,1.8c-.5-1.1-1.7-1.3-2.8-1.4-.4-.5-1.5,0-1.7-.8h1.7c.3.7,3.8.7,4.4.4s1.1-1.6.8-1.8c-.6-.1-1.6.2-2.1,0s0-.9-.7-1.1c.1-1.4.3-2.2,1.9-1.9l-.3-1.4h.8q0,.1,0,0Z"/>
    <path class="st1" d="M264.3,258.9c-.1-2.7,2.6-1.4,4.3-1.4,2.5,0,4.9-.2,7.4,0,.6.7-1.5,1.6-1.9,1.7-2.9.5-6.7-.7-9.7-.3h-.1Z"/>
    <path class="st7" d="M275.4,264.4c1,.1,2.3.3,2.8,1.4-.7.7-1.3,2-2.1,2.2s-.3-.2-.4-.2c.9-2.1-3.2-.6-4.2-.8l.6,1.1c-3.4-.4-.7-1.3-.4-1.7s.1-1.3.5-1.7,2.5-.3,3.2-.3h0Z"/>
    <path class="st1" d="M271.8,261.1c.2.2-1.4,1.8-1.6,1.9-.7.2-1.8,0-2.7,0s-3.4,1.2-3.7-.2.2-1.7.4-1.8c1.4-.8,5.7.5,7.6,0h0Z"/>
    <path class="st7" d="M286,265.8c0-.1-.3-2.9-.3-3.1s1.4-1.8,1.5-1.9c1.2-1,2,1.5,2.1,2.4s-.7,2.6-1,2.8c-.6.4-2,.2-2.3-.3h0Z"/>
    <path class="st7" d="M274,259.2c.3,1.2-1.4,1-2.1,1.3-1.3-.6-7.1.2-7.6-1s0-.4,0-.7c3-.4,6.8.7,9.7.3h0q0,.1,0,0Z"/>
    <path class="st1" d="M277.9,261.1c.7.2.5,1.1.7,1.1.5.1,1.5-.1,2.1,0,.2.2-.5,1.6-.8,1.8-.6.3-4.1.3-4.4-.4s0-.4,0-.6c-.3-.5-.7.2-.3-.7.8,0,1.9-.1,1.9-1.1h.8Z"/>
    <path class="st1" d="M266.5,264.5c.8.9-1.2,4.3-2.8,3.2s.2-2.9.3-3.1c.3-.4,2.2-.3,2.4,0h.1q0-.1,0,0Z"/>
    <path class="st7" d="M277.3,254.5v1.1c-2.1.2-4.2-.3-6.3-.6-.1-.3,0-.5,0-.8,2.1.3,4.3.1,6.4.3h-.1,0Z"/>
    <path class="st11" d="M275.6,267.8h-.6c-.2,0-.2.1-.3.3h-2.8l-.6-1.1c1,.2,5-1.3,4.2.8h.1Z"/>
    <path class="st4" d="M277,261.1c0,1-1.1,1.2-1.9,1.1.4-.9.8-1,1.9-1.1Z"/>
    <path class="st8" d="M267.3,253.4c-.3.4-1.2.3-1.7.3v-.3h1.7Z"/>
    <path class="st11" d="M259.9,267.2h-.3c.3-.4.1,0,.3,0Z"/>
    <path class="st7" d="M274.8,268c0-.1.1-.2.3-.3,0,.1-.1.3-.3.3Z"/>
    <path class="st5" d="M297.5,252.5h.6c.7,0,1.3,0,1.9.3,0,.5.2,1.2.3,1.7l-.3.8c-.1,0-.2.2-.3.3-2.7-.5-2.9,2-5.3,1.9-.4-1.8,1.4-4.7,3-5h.1Z"/>
    <path class="st9" d="M306.9,258.9c0,.6.1,1-.3,1.5s-.7,0-.5.6,1.1-.2.8.7c-1.8.1-3.5-.2-5.3-.3,0-1-.2-.8.7-.8s2.3,0,3.5-.3l-.6-1.4h1.7Z"/>
    <path class="st8" d="M304.2,258.6h-.8c0-.4.6-.3.8,0Z"/>
    <path class="st9" d="M305.6,266.7c.3-.4,3.2-.4,3.3-.3s0,.4,0,.6c-1.9,0-1.3.3-3.3-.3Z"/>
    <path class="st3" d="M243.5,265.3c.8,0,1.6.7,1.4-.3.9.1,1.8.2,2.8.3v.8c-3.2,0-6.7-.2-10-.3,0-.8.2-.7.8-.7,1.2-.1,3.6.1,5,.2Z"/>
    <path class="st7" d="M252.1,262.5c.6,0,3.3.3,3.5.5s0,.5,0,.8h-5c-.2-1.3,1.8.3,1.4-1.4h0q0,.1,0,0Z"/>
    <path class="st13" d="M248.5,265.3s.3.2.7.3,2-.1,2.1,0,0,.4,0,.6h-3.6v-.8h.8Z"/>
    <path class="st7" d="M249.3,260.3c-1.7,0-3.7.2-5.3-.3,1.7,0,3.7-.2,5.3.3Z"/>
    <path class="st15" d="M244.1,264.4c0,.8,0,.5.6.6s.2,0,.3,0c.2,1-.6.3-1.4.3-.3-1.1.5-.8.6-.8h0Z"/>
    <path class="st7" d="M245.2,263.9c-.5.3-.7.5-.6,1.1-.5,0-.6.2-.6-.6.2-.2.3-.6.6-.8.2,0,.5.3.6.3Z"/>
    <path class="st13" d="M227.2,262.2c0,1.1,1.1,1,1.7.3h1.1c-.2.8,1,.9.8,0,.8,0,1.7.2,2.5.3,0,1.5,1.7,2.1,1.7.3,1.5.1,2.9.2,4.4.3-.2.8.7.9.6,0h.8c0,1.2,2.9,1.5,2.8,0,.5,0,.9.3,1.1.3-.2.2-.3.6-.6.8s-.8-.2-.6.8c-1.4,0-3.8-.3-5-.2s-.8,0-.8.7c-1.9,0-5.1-.8-4.4,1.9h-4.7c.5-.8-2.1-.6-2.2-.6s0,.4,0,.6h-2.8c-.8-.5-2.6-.5-3.3,0h-.8l.3-1.6c-.7-.3-1.3-.3-1.9-.3v-.6c.2-.2,3.1.2,3.3,0s0-.4,0-.6h3c-.2,1.1,1.4.4,2.2.3h.8c.2,0,3,.2,2.2-.6-1,0-2.1-.9-2.9-1.1s-3.3.7-3.2-1.1h3.9Z"/>
    <path class="st7" d="M217.8,265.8c.7,0,1.3,0,1.9.3l-.3,1.6h-1.7c.4-1.5-1.4-.4-1.7-1.3-.3-.9.3-.6.3-.7h1.5q0,.1,0,0Z"/>
    <path class="st7" d="M223.6,267.8h-3.3c.7-.5,2.5-.5,3.3,0Z"/>
    <path class="st7" d="M226.4,267.8v-.6c0,0,2.7-.3,2.2.6h-2.2Z"/>
    <path class="st5" d="M287.3,160.5c1.3-.5,2.6,4.4,3,5.7.4,1.3-1.2,4.9-.6,6.9,1,3.4,3.6,6.7,5.1,9.9s1.2,3.9,1.8,5.7.9.7.8,1.7h-1.4c-.1-.2-.5-.9-.8-1-.5-.6-.6-1.3-.8-1.9-.4-1.1-.8-2.2-1-3.3l-1.2-1.4c0-.9-.1-2.1-1.1-2.5v-.8c-.4-2.3-3.1-6.6-4.2-8.9s-4.1-10.8.4-10.1h0Z"/>
    <path class="st5" d="M301.4,203.5c.8,0,.6-.2.6-.8.8-.8,2.1,3.8,2.7,4.1l1.7,6c0,.4-1.2,0-1.4.1-1-3.2-2.5-6.2-3.6-9.4h0Z"/>
    <path class="st9" d="M304.2,229c.3.1.6.4,1.1.3l-1.4.6c-.1.5.4.2.5.3.2.2-.3.7-.3.9s.9,0,.6.7c-.7-.4-2.6.9-2.9,1.4s.2.9.2,1.2c0,.9-2.1,1-2.8,1.5-.4,0-1,0-1.1-.6,1.9-.1,1.4-1.1,2.1-2s2.6-.7,2-1.9l-1.8-.5c1,0,2.1.3,2.8-.7-1.4-.4.7-.4.3-1.5.3,0,.5.2.8.3h-.1Z"/>
    <path class="st9" d="M301.1,223.7c1.2,1.7-.2,1.5-.3,1.8s.4,1,.3,1.5c-1.8-.3-.8.7-1.1,1.1s-.4,0-.6,0c-.2-.3-.3-.7-.3-1.1s.6-.9.2-1.4-1.7-.6-2.1-.8-.5,0-.4-.6c.9.4,1.6-.4,2.2-.5s1.2.1,2,0h.1Z"/>
    <path class="st9" d="M302.8,163.9c-.7.3-2,1-2.8,1.1s-1.2,0-1.7-.1l-1.9-1.8c2.1.3,4.3.4,6.4.8Z"/>
    <path class="st1" d="M287,160.3c.8,0,1.3,1.8,1.4,2.5s0,.4,0,.6c-.7,0-.9.5-.8,1.1v.3c0-.2-.4-.4-.6-.6.4-1.7,0-2.4,0-3.9h0Z"/>
    <path class="st6" d="M293.1,162.8c.2,1.2-.6,1.7-1.7,1.7,0-.4-.5-1.1-.2-1.6.7-.7,1.7,0,1.9,0h0q0-.1,0,0Z"/>
    <path class="st9" d="M295.3,235.1l-.8-1.7c.5-.1,1.4.2,1.9-.3,0,0,.3.2.3.4,0,.8-.6,1.3-1.4,1.5h0Z"/>
    <path class="st9" d="M298.1,237l.3,1.1s-.1.2-.6.2c-.9,0-.9-1-1.9-.7-.2-1,1.6-.5,2.2-.6ZM297.4,237.3v.3c.2,0,.2-.2,0-.3Z"/>
    <path class="st4" d="M294.8,235.6c0,.2.5.3.3.8-.5-.1-1.1.5-1.4.6s-.4,0-.6,0c-.2-1,1.2,0,.8-1.4h.9Z"/>
    <path class="st9" d="M302.5,221.5s.3.1.2.5-.7,1.3-.8,1.4c-.1.2-.4,0-.5,0-.2-.9.3-1.5,1.1-1.9Z"/>
    <path class="st8" d="M299.2,227.1c0,.4,0,.8.3,1.1h-1.4c0-.9.1-1.2,1.1-1.1h0Z"/>
    <path class="st9" d="M294.5,234.8v.3c0,.2.2.4.3.6h-1.4v-.8h1.1q0-.1,0-.1Z"/>
    <path class="st9" d="M299.2,238.1c.3,0,1.3.1,1.4.4.2.7-.8.4-1.4.4v-.8h0Z"/>
    <path class="st6" d="M295.3,235.1h-.8v-.3c0-.4-.3-.8-.3-1.2s.2-.1.3-.1l.8,1.7h0q0-.1,0,0Z"/>
    <path class="st9" d="M295.3,163.1c-.2,0-.9.5-1.4-.3.2,0,1-.8,1.4.3Z"/>
    <path class="st5" d="M288.4,163.4c0,.6,0,1.1-.8,1.1,0-.6.1-1.1.8-1.1Z"/>
    <path class="st9" d="M306.1,164.5c-.4.7-1,.1-1.4,0,.4-.7,1.1,0,1.4,0Z"/>
    <path class="st9" d="M299.5,235.9c.5,0,1.3-.3,1.1.4s-.9.4-1.1.4v-.8h0Z"/>
    <path class="st8" d="M300.6,202.4c.8-.2.6.6.8,1.1-.7,0-.7-.4-.8-1.1Z"/>
    <path class="st9" d="M298.9,228.2v.8c-.2-.1-.7-.4-.8-.3v-.6h.8Z"/>
    <path class="st9" d="M303.3,219.9c-.3,1.1-.7.7-.8.8,0-.6.3-.8.8-.8Z"/>
    <path class="st8" d="M300,201c.2.2.4-.5.6.6-.4,0-.6-.2-.6-.6Z"/>
    <path class="st9" d="M298.9,236.8l-.6.3v-.6c.2-.2.5.3.6.3Z"/>
    <path class="st9" d="M296.4,232.9v-.3h.3l-.3.3Z"/>
    <path class="st12" d="M310.3,163.7c.2.7-.5.7-1.1.8,0-.8.4-.6,1.1-.8Z"/>
    <path class="st11" d="M339.1,166.1c0-.9.8-1.3.3-2.2,2.3.2,3.9.8,5,2.9s-.2,1.2-1.4,1.3-.6,0-.8,0c.2-.9-1.3-.8-1.9-1.1s-.8-.7-1.1-.8h-.1q0-.1,0,0Z"/>
    <path class="st7" d="M340.2,167c.6.3,2.1.2,1.9,1.1h-1.7l-.3-1.1h.1Z"/>
    <path class="st2" d="M297,239.8h.3c-.3,1.8.4,1.2,1.7,1.9-1,.1-2,.5-3,.3-.9.7,1.7.5,1.9.6l1.9.6h-2.8c-.9,0-1.4-.1-1.4.1.3,1.4,1,.7,1.4.7h.6v.6c-.1,0-1.1.3-1.1.3-1.9-.5-2.7,0-3.4-2.2s.7-.4,1.1-1.1,0-1.2.3-1.4c.5-.4,1.9-.2,2.6-.2v-.2q-.1,0-.1,0Z"/>
    <path class="st3" d="M299.7,243.1s.4.3.9.3h9.6c0,1,.2.8-.7.8-2.9.2-6.9.1-9.8,0s-1.4-.3-2.2-.3-.4,0-.6,0v-.8h2.8Z"/>
    <path class="st9" d="M297.8,242.6c4.5.1,9.1-.3,13.6.6,0,.5-.8.3-1.1.3-3.1.1-6.5.1-9.6,0s-.9-.3-.9-.3l-1.9-.6h-.1Z"/>
    <path class="st9" d="M299.7,244.2v.3h-2.2v-.6c.9,0,1.6.3,2.2.3Z"/>
    <path class="st9" d="M297.2,239.8c.5,0,1.3-.5,1.9-.3.3,1.1-1.6,0-1.1,1.2s1.6.8,2.2.7c-.2,0-.9.2-1.4.3-1.2-.7-2,0-1.7-1.9h.1Z"/>
    <path class="st7" d="M360.4,166.1c1,.4.3.3.6.6-.4,0-.6-.2-.6-.6Z"/>
    <path class="st10" d="M188.7,47.1c-.2.8-1.1,1.8-1.9,1.9.4-1.2.9-1.4,1.9-1.9Z"/>
    <path class="st10" d="M180.1,80h-.5c0,0-.3-2.6-.3-3,.6.6.7,2.1.8,3Z"/>
    <path class="st10" d="M181.2,57.3c-.2.7,0,2.3-1.1,2.2,0-.9.3-1.5,1.1-2.2Z"/>
    <path class="st10" d="M226.6,79.8c-.2.6-.2,1.8-1.1,1.7.2-.6.3-1.2.8-1.7,0,0,.3,0,.3,0Z"/>
    <path class="st14" d="M221.9,86.4c-.3.4,0,1-1.1,1.1l.6-1.1h.6,0Z"/>
    <path class="st10" d="M182.1,55.7c0,.6,0,1.6-.8,1.4v-.6c0-.3.6-.6.8-.8h0Z"/>
    <path class="st14" d="M224.1,84.2c-.4,1.1-.5.6-.8.8v-.8h.8Z"/>
    <path class="st10" d="M184.5,52.6c-.5,1.1-.6.6-.8.8,0-.6.3-.8.8-.8Z"/>
    <rect class="st10" x="249.9" y="101.4" width=".8" height=".6"/>
    <path class="st10" d="M183.7,53.7v.6c0,0-.5,0-.6,0,0-.5,0-.7.6-.6Z"/>
    <path class="st10" d="M182.9,54.8c-.4.9-.2.3-.6.6,0-.4.3-.5.3-.6h.3Z"/>
    <path class="st10" d="M225.5,81.7c-.2,1.1-.3.3-.6.6,0-.4.2-.6.6-.6Z"/>
    <path class="st10" d="M185.4,51.2c0,.5.2.6-.6.6,0-.3-.3-.7.6-.6Z"/>
    <path class="st10" d="M186.8,49.3c0,.5.3.7-.6.6,0-.3-.3-.7.6-.6Z"/>
    <path class="st10" d="M185.9,50.4c0,.3.3.7-.6.6v-.6h.6Z"/>
    <path class="st10" d="M179.8,60.4v-.6h.3c0,.2,0,.5-.3.6Z"/>
    <path class="st14" d="M224.4,83.1l.3-.3c0,0-.2.2-.3.3Z"/>
    <path class="st14" d="M222.8,85.6v-.3h.3l-.3.3Z"/>
    <path class="st10" d="M179.6,60.9l.3-.3c0,.2-.3.3-.3.3Z"/>
    <path class="st11" d="M283.7,148c.1.7,0-.5,0,0h0Z"/>
    <path class="st11" d="M287.1,160.4v-1.1c-1,.1-.5-1.2-.7-1.7s-.9-.8-1.5-2.2c-.1,0-.2.1-.4.2,0-.2-.2-.4-.3-.6-.2,0-.3.2-.6.2-.5-.9-.1-4.8.3-5.6v-.8c-1.1.2-.4.1-.3-.8h0c0-.4-.1-1.1-.3-2.5-.3-2.9-.8-4-2.2-4.6-.8-.6-2-.8-3.8-1,.4-1.2,1.5-1.6,2.7-1.4,0,0,.2-.3,0-.5-.1-.1-.3,0-.6,0,0,0,0-.2,0-.3-.2-.2-.5,0-1.1-.1-.5-.5-1-1.2-1.2-1.5,0,0,0,.2-.4,0-.1-.1-.2-.3-.3-.3,0,0,0,0,0,0-.6-.7-.9-1.6-1.8-1.9-.2-.2-.5-.4-.9-.4v.2c-.5,0-1.1,0-1.5,0-.1-.2-.2-.4-.3-.7-.2.1-.3.2-.4.3-.1-.2-.2-.4-.3-.7-2.7,1.9,1.5,3.9,2.1,5.8-1.3.6-2.3,0-3.6,0-.1.7.8.5.8,1.3s-.5,2.7,0,3.8c-1.7-.1-.1,1.5.4,1.5h0c.2.2.5.4.7.4.5,0,.7-.7,1.5-.8h1.1c1-.1,1.1-1.5,1.9-1.9.5-.3.8,0,1.8-.4.9-.4,1.2-1.7,2.7-1,1.5,1-.1,1.8-.1,2.4s.2-.1.2.9,0,1.3.1,2.1c0,0-.2,0-.3-.1-.1-.1-.4-.3-.8-.4-1.6-.5-1.1,1.7-.7,2.8-.1-.4-.3-.7,0,.1,0,0,0,.1,0,.2,0,0,0,0,0,0,0,.2.2.5.3.8,1.1,3,.9,7.6,1.1,10.9,0,.5.8,2-.3,1.8,1.7,2.9,2.1,3,4.2,5.5h.4c.1.1.2.2.3.4h.6v-.6c-1.4-1.4-2-4-1.4-5.8v-.6c-.1,0,1.4,4.6,2.1,3.4.3.8.6,1,.9-.4.4-1.7,0-2.4,0-3.9h0Z"/>
    <path class="st10" d="M273.3,106.2c.3.2.7.3.9.7s.2,1.4.5,1.6,2,.3,2.2,1.1c.3,1.4.3,3.4.4,4.8s.4.9.4,1.5c0,1-.3,3.4-.2,3.8s.7.7.9,1.1c.5,1,.1,4.6-1.4,3.1s-3.1-3.1-4.4-5.5-1.9-5-2.9-7.9-1-.9-1.3-1.8c-.6-2.1.6-1.2,1.3-1.8s.2-1.2.6-1.5,2.4,0,2.6.2c.3,0,.4.5.6.7h-.2q0,0,0,0Z"/>
    <path class="st10" d="M274,144.3s-.2.6.4.6c1.2,0,1-1,1.5-1.3s1.4.2,1.9-.1c0,1.7.2,3.5.9,5.1s0,.9.8.8c0,.3.2.6.3.8-.7.6-.6,1.8-.6,2.6.1,1.8,1.4,2.6.7,4.8s-1.7,1.1-2.9,1.1l-.6-.3-4.5-3.8c-.3-1.4,3.4,0,4.2-.8,1.7-1.7-.6-4.1-1.2-5.7s-.2-.9-.2-1.3c-.6.3-2.3.9-2.7.2s1.5-1.6.8-2.7h1.2Z"/>
    <path class="st11" d="M274.3,155.3l2.2,3c-.3,0-.7,0-1.1-.1-1.2-.5-3.3-1.9-4.6-2.1s-1.1-.2-1,.4c.2.3,2.4,1.3,1.9,1.8-1.3-.6-2.3-.4-3.6-.6s-.6,0-.8,0c.3-.5-1.5-1-1.6-1-2.2-.4-2.8.2-2,2.4v.8c-.3.6-.7.6-1.4.6,0-.6-.8-1.7-.8-2.6s.5-1.2.5-1.9-.4-1.4-.3-2.1c1.3-.4,4.1,1.8,4.8,1.6s.5-.8.8-1c1.2-1,1.6,0,.7-2.3,2.5-.4,4.6,1.3,6.1,3h.2q0,.1,0,.1Z"/>
    <path class="st10" d="M274.3,133.7c0-.8-.9-1.1-1.2-1.7s-1.6-3.8-1.8-4.3c-.4-1.6.5-1.5.5-1.6,0-.7-.6-.9-.8-1.4s-1.2-3.3.2-2.4,1.8,2.6,2.1,3.4c.7,1.9-.1,1.2,1.3,2.8s.8,1.2,1,2.9,1.3,3.2,1.6,3.9.6.8-.3.7c0,0-.5,0-.7-.3-.7-.7-.9-1.8-2.1-2h.2Z"/>
    <path class="st11" d="M287.3,104.4s-.4,1.9-.3,2.6c.2,1.6,1.4,2.2-.4,4s-1.4.3-2.1-.4-1.3-.4-1.5-1,0-1.1-.2-1.5-.7-.5-1-.9c-1.3-2.1.9-1.5,1.8-1.9s.7-1.1,1.1-1.2c.5-.2.9.5,1.3.5s1.1-.4,1.3-.3h0q0,0,0,.1Z"/>
    <path class="st11" d="M272.9,100.2s0,.7.9,1,1.1-.3,1.5,0,1.1,1.8,1.2,1.9c.3,1.2,0,3.4.3,4.8-.6.7-3.2-4.1-3.7-4.4-1.3-.7-2.8,0-2.4-2.5.4,0,1.5,0,1.6,0s-.2-1.3.6-.8h0q0,0,0,0Z"/>
    <path class="st11" d="M270.1,123.2c-2-.5-1.4-2.7-1.7-4-.4-2.3-.9-3.7-1.9-5.6s-1.1-1.7-.9-3.6,2.9.2,3,.6c.3.9-.7,2.9-.5,4.1s.8,1.7,1,2.6c.5,2,.1,4,.9,5.9h.1,0Z"/>
    <path class="st7" d="M280.1,138.5c1,1,4,2.5,4.4,3.3.4.8,0,.7,0,.9-.9.9.3,1.6.5,2.1s.4,1.5.7,2.3,0,1,.7.8c-.1.3.3,1-.4.8-.7-.9-1-2-1.5-2.9s-.5-.4-1.2-.4c-.5-4.7-1.5-4.7-6.1-5.3.3-1.3,1.5-1.9,2.8-1.7h.1q0,0,0,0Z"/>
    <path class="st11" d="M284.5,142.6c.7-.3,1.3.1,2,.2s1.1.2,1.2.3.8,1.8.9,1.9c.8,1.4.2,1.8-.6,2.7l-1.8.6c-.7.2-1.3-.9-1.5-1.3-.3-.8.4-1.6.2-2.3s-1.4-1.2-.5-2.1h0Z"/>
    <path class="st7" d="M288.7,145.1c.1.2,1.1,0,1.3.2.1.9,0,1.9.2,2.9s1.3.9,1.7,1.2,0,2.7,0,3.2l-3.6-2.5s-.1-.2-.3-.3c-.4-1.2.5-2.1-1.4-1.9.8-.9.6-2.7,1.9-2.8h.1Z"/>
    <path class="st7" d="M263.7,160.1s.2.1.2.4c0,1.3,0,2.6-.2,3.9s-.7.3-1.1.4v-3h-.6c0-.3.3-.8.3-1.1.7,0,1.1,0,1.4-.6h0Z"/>
    <path class="st11" d="M262.1,161.7h.6v2.2c-.9.2-.3-.7-.8-1.1v-1.1h.3-.1Z"/>
    <path class="st11" d="M242.2,134.1c-.4,0-1.7-.3-2.5-.3s-1.4-.9-2.9-1.1-4.5.3-6-.2c0,1.1,3.2,3,4,3.5,0,0,0,0,0,0,0,0,0,.2,0,.2.1.3.3.8.6.9,0,.1,0,.3,0,.5.7,0,1.7.6,1.4,1.4.2,0,1.4.6,1.4.6.1,0,.3,0,.4,0,.5.4.9.8,1.1.9,0,0,.5-.4,1.1-.9.6.7,1.5,1.6,1.8,1.3l-.8-1.9,2.8-.8c.4.6.8.8.8.8,1.2-1.4-2.7-5.3-3.5-5.3Z"/>
    <path class="st14" d="M316.4,121c.3,0,.8,0,1,.3l1.2,4.2c-.4.4-2.3-2.1-2.4-2.4-.2-.8.1-1.3.2-2h0Z"/>
    <path class="st3" d="M322.4,119.9v.8c-1.1,1-.5,3.6-.3,5-.4-.2-.9-.6-1-1s-.7-3.3-.6-3.8c.1-1.3.8-.7,2-1h-.1,0Z"/>
    <path class="st12" d="M322.4,120.7c.5,2.2.6,3.4.6,5.7s.3,1.1-.6,1c-.3-.8-.2-.9-.3-1.7-.2-1.4-.8-4,.3-5Z"/>
    <path class="st1" d="M326.9,133.5c.8-.2.9.7,0,.6v-.6Z"/>
    <path class="st7" d="M327.2,139.9c1.7,1.4-1.1,1.5-2,1.7-.4,0-2-2.3-2.2-2.4-.5-.4-.4-.7-.4-1s.2-.9,0-2.4c1,.2,1.5.7,2.1,1.6l2.4,2.5h0Z"/>
    <path class="st1" d="M283.4,145.4c.4-.9.8-.3,1.2.4.5,1,2.1,2.1,2.2,2.1,1.9-.2,1,.8,1.4,1.9-.2-.1-1.2-.6-1.5-.5s-1.5,1.6-1.5,1.8c0,.3.2.9.2,1.3,0,.8,0,2.7.6,3.4s.7,0,1,.5.5,1.7.6,2.2.3,1.1-.6,1v-.3c-.2-1.7-2.6-2-3.2-3.6-.9-2.2-.3-4-.5-6.2s.2-3.1.1-4.1h0Z"/>
    <path class="st1" d="M291.2,151.5v.3c-.2-.2-1.7-.7-2.8-1.7l2.8,1.4Z"/>
    <path class="st0" d="M200.3,42.1c.7.1,1.2-.6,1.8-.6s2.1.6,2.4.7,2,1.6,2.2,1.9,1,3.9,1,4.2c.2,1.6-.8,3.7-1.5,5.1-.2,0-3.3-1.1-3.7-1.3-.7-.4-.9-1.2-1.2-1.4s-1,0-1.3-.5c-.7-1,1.2-3.3.9-3.7l-1.4-.3.3-.3c0-.1.4.1.6-.2s.2-.9.3-1.2,0-.2,0-.3v-.8c0-.2,0-.5-.3-.6v-.8s0,.1-.1.1Z"/>
    <path class="st14" d="M197.8,46.8c-.2,1.4,1,1.1,1.9,1.1-.2,1.3-1.2,1.3-1.1,2.9.2,3.1,2.9,3.6,2,6.8s-1.1,1.6-1.3,1.7c-1.4.5-1.5-1.4-2-2.1s-2.2-1-2.5-1.7c-.4-1.2.7-1.4.8-2.2s-.6-1.4-.5-1.9,1.4-2-.6-2.4c.3-1,1.6-1.9,2.5-2.2s.6,0,.8,0h0Z"/>
    <path class="st14" d="M192.6,46h.3c.5,1.4,0,2-.3,3.3h.6c-.3.6,0,1.6-.5,2.1s-1.2.6-1.4.4c-.3-.3.6-1.8.6-2.4s-.6-.4-.6-.5c0-.9,1.4-1.4-.8-2.4,0,0,0-.4.5-.5.5-.2,1.2,0,1.8,0,0,0-.2,0-.2,0Z"/>
    <path class="st11" d="M197,46.8c-.9.3-2.2,1.2-2.5,2.2-.6,0-1,.2-1.4.3s-.4,0-.6,0c.4-1.3.8-1.9.3-3.3,1.4,0,2.9.2,4.2.8Z"/>
    <path class="st10" d="M195.1,14.7h3.3c0,1,.2.4.6.3s.4,0,.6,0c0,1,1.9.9,2.4,1.7s0,1,.2,1.5.7.6.7.9c.2.8-1.9,2.4-2.1,3.1s.3,1.3,0,1.9-2.4,1.2-1.4,2.5,1.2-.2,1.4.8c.7,2.5-1.6,3.5-2.8,5s-1.3,2.6-2.9,3.7-2.9.5-4.4.9-2.1,1.5-3.1,1.8-2.1,0-2.5.3c-1.1.2-2.8-.1-3.7,0s-1,.6-1.4.5-.6-.8-1.1-.8-1.5,1.4-1.8,1.1c.5-2.5,3.2-2.8,5.1-3.6s.9-.2.7-.8c1.3-.5,1.9-1,2.8-1.4,1.6-.7,3.2-.5,4.5-.9s1.5-1.1,2-1.4c.7-.4,2.3-1.7,2.9-2s1.7.2,1.9-1.5c.2-2.4-1.5-.4-2.4-.1s-1.8.3-2,.2-.2-.7-.4-.7c-.4,0-2,.9-2.1-.4s1.4-2.3-.4-2.1-.9.9-1.4.8c-1.1-.3.8-2.8-1.1-2.2s-.3.6-.6.8c-1.2,1-1.8,1.3-2.4,2.9l-1.9,1.8h-.6c0-.5,0-.6-.4-.6v.3h-1.5c1.1-.9,3.1-1.8,4.4-2.9,1.3-1.1,2.4-4.5,3.4-5.1s3.3.3,3.3-1.5,0-3.3-.3-4,0-.4,0-.6c1.6-.3,2.8-.2,4.4-.3,0,0,0,0,.1,0Z"/>
    <path class="st11" d="M187.6,38.8c0,1.5,1.4,1,1.4,1.9-1.6,0-2.8.3-4.4.6-.2-.5-.5-.7-1-.8-1.2-.2-5.9,1-7.1,1.9h-.8c-.2,0-.2.1-.3.3-1.7.1-1.8.6-2.8.8s-.2,0-.3,0h-.9c0-.6.3-.6.7-.8,1.4-.8,5.2-1.7,6.8-2.1s5-.7,6.1-1.5,2-.2,2.5-.3h0Z"/>
    <path class="st11" d="M199.8,41.3c-3.3-.6-5.7-.6-9.1-.6,0-1.2,1.4-1.3,2.3-1.1,1.6.3,2.9.4,4.7.5s2-.9,2.1,1.1h0Z"/>
    <path class="st13" d="M199.5,14.7v.3h-.6v-.3h.6Z"/>
    <path class="st13" d="M200.3,14.7h-.3l.3-.3v.3Z"/>
    <path class="st15" d="M226.9,78.6l.3-.3c0,0-.3.2-.3.3Z"/>
    <path class="st14" d="M190.6,15v.6c-1.2-.1-2.2.7-3.3.8,0-.9,2.4-1.2,3.3-1.4Z"/>
    <path class="st5" d="M260.7,206.2h0s0,0,0,0Z"/>
    <path class="st5" d="M260.7,206.2h0,0Z"/>
    <path class="st5" d="M266,199.1c-.1,0-.1.3-.4.2-.3,0-.6-.7-1-.7,0-.1,0-.2,0-.4.7-3.3.4-4.8.4-6.2.1-.6-.2-1.2.6-1v-.8c-.9,0-.7.6-.8-.7s0-2.7,0-4h.6v-5.5c0-.6.1,5.4,0-1.7-.1-7.1-.4-12.3.6-19.4v-1.1h-.1c-.2,0-.9-1-1.7-.4,0,0-.5,1.6-.5,1.8v.8c0,.1.3-.9.2.4s-.2,2.6-.2,3.9-.7.3-1.1.4v1.9c0,1.5.2,2.7,0,4.4.1.2.2.2.2.2,0,.7-.2,1.9-.2,4.1-.2,4.7-.3,9.5,0,14.2.1,3.7.6,7.4.4,11,0,.8,0,1.8-1.1,1.5-.1.6-.3,1.4-.3,2.2s.2-.2.2.4-.3,1.3-.2,1.9l-.8-.3s0,.1,0,.3c-.1.5-.2.5-.3,1.1s-.3,1.5-.3,1.7-.2-.5,0,.8.7,1.5,2,1,.5-1.2.8-2.5.6-.8.8-4.7c.1-2.7.5-2.5.7-3.5,0,.6.3.9,1.6,1.2l.3-.6v-1.9h-.3,0Z"/>
    <path class="st4" d="M267.9,198.3c.3.7-1,.7-1.7.8s-.2,0-.3,0v-1.1c.7-.3,1.6.2,1.9.3h.1Z"/>
    <path class="st6" d="M265.1,225.1c0-.4-.4-1.4.3-1.9,0,.6.7,1.3-.3,1.9Z"/>
    <path class="st1" d="M266.8,226.2c-.6.3-.6.7-1.4,1.1l-.3-.3v-.3c.4-.1.5-.4.6-.8.4,0,.7.2,1.1.3h0Z"/>
    <path class="st9" d="M263.2,244.5v-1.1c.5.2.3.8,0,1.1Z"/>
    <path class="st4" d="M266.5,216.5v1.4h-.3c0-.8-.8-1.6.3-1.4Z"/>
    <path class="st9" d="M266.2,201.9c-.1,0-.2-.3-.3-.3l.3-.6v.9h0Z"/>
    <path class="st6" d="M265.7,226c0,.4-.2.7-.6.8v-.8h.6Z"/>
    <path class="st9" d="M262.6,247.6c-.1,1,.3.7.3,1.2s-.5.1-.6.1c.3-.9-.5-.8-.5-.8-.4-.5.3-.7.8-.5Z"/>
    <path class="st6" d="M265.4,227.3c-.2,0-.3.3-.6.3,0-.3.3-.5.3-.6l.3.3Z"/>
    <path class="st9" d="M266.5,205.5v-.6l.2.4-.2.2h0Z"/>
    <path class="st7" d="M263.7,159.2c-.8-2.2-.3-3.2,1.9-2.8s2,.9,1.7,1.4h-1.4c-.4,0-.9-1-1.7-.4s-.5,1.6-.5,1.8h0Z"/>
    <path class="st2" d="M266.6,216.6h0Z"/>
    <path class="st2" d="M266.6,216.6h0c0,0,0,0,0,0Z"/>
    <path class="st2" d="M263.7,240.7c.1.4.3,0,0,0h0Z"/>
    <path class="st2" d="M267.8,211.7c0-.3-.6-.7-.6-1.2s.1-.7,0-1.1c-.1-.4-.2-.2-.3-1.1-.1-.9-.3-1.9-.3-2.8s.1.4,0-.6-.3-1.9-.3-3c-.1-.1.9,1.5-.3-.3-.7-1.1-1.3-.7-1.4-2.8.5-.2.6.5,1,.5.3.1.4-.2.4-.2v-2.5c0-.4.1.3,0-1.1-.1-1.3-.3-2.8-.3-4.2h0c0-.5,0-1.6,0-2.5-.1-.9-.3-2.2-.3-3.3h-.5c0,1.3-.7,2.7-.6,4,0,.5.4,1.5.4,2.5v4.3c-.7.1-.4.1-.5-.4s-.2-1-.2-1.7.8-2.1-.6-2.1c-.2,3.9.2,7.9,0,11.8,0,1.7-.5,3.4-.8,4.7-.2,1,.4,2.1-.8,2.5s-1.4-1.2-1.5-2.5c-.4.5-1.1,3.5-1,4.8.2,1.5.5,1.4.5,1.9s.8,1.7.8,2c0,.4.2,2.2.8,1.6.4-.4,1.1-3.6,1.2-1.4.1,5-.4,11.9-1.6,16.7-.6,2.5.2,3.8.2,6s-.3-1.5-.5,1.7-.4,6.8,0,9.7v2.3h.6c1.4-.7,1.2-1.6,1.4-1.7-.4-.6-.6-2.8-.3-3.3.4-.9-.1-.3-.5-.8s.3-.6.8-.5c.2-.9.6-2,.6-3v-1.7c-.9.5-.4-1.9-.2-2.2.1,0-.2.3.5,0,0,0,.1,0,.1,0,0-.2-.1-.7-.1-1.8,0-3.1.6-5.6,1.1-8.7.1-.5.3-1,.3-1.4s-.1-.8,0-1.1.3-.5.3-.6v-1.9c0-.4-.3-1.4.3-1.9,0-.2.3,1.1,0-.6-.3-1.7.7-3,.8-4.7.1-.8-.7-1.6.3-1.4,0,0,0-.1,0-.6.1-1,.4-1.4.6-2.2,0-.2-.2-.1,0-.6s.6-1.2.6-1.5h0Z"/>
    <path class="st14" d="M262.3,162.6c.5.5-.5,1.6.3,1.4v2.7h-.8c0-1.3-.1-3.2,0-4.4l.6.3Z"/>
    <path class="st14" d="M260.6,167.3c.8.1.7,1.6,1.1.5h.4c.1,1.7-.4,1.4-.5,1.9-.2.7.3,1.6-1.1,1.5,0-1.1-.4-2.4-.5-3.5l.6-.4h0Z"/>
    <path class="st1" d="M259.3,232c-.2,1.4-.3,2.8-.8,4.2,0,0-.3,0-.3-.7s.1-3.6,1.1-3.5Z"/>
    <path class="st1" d="M258.5,237.6c-.4,0-.4-.8,0-.8v.8Z"/>
    <path class="st11" d="M257.9,248.9c.3,0,1.1.6,1.7.6v.8c-1-.2-.3,1.2-.6,1.4s-.8,0-1.1,0l1.1,1.1h-1.1c.2-.1-1-1.4-1.1-1.6-.1-.5,1-1.1,0-2.2,0-.2.9-.2,1.1-.1h0Z"/>
    <path class="st1" d="M257.9,243.7c0-.4-.1-.9.3-1.1,0,.3.7.7-.3,1.1Z"/>
    <path class="st13" d="M252.9,252.5l-.8-1.4c0-.6.2-.7.7-.6,1.1.3.5,1.2.7,1.4s2.3-.5,2.2.8c-.9,0-1.8-.2-2.8-.3h0q0,.1,0,.1Z"/>
    <path class="st13" d="M244.9,252.3c0-1.4,2.3-.5,2.7-.4s1.9-.6,1.7.4c0,0-4.4,0-4.4,0Z"/>
    <path class="st13" d="M253.5,248.9c.3.3-.2.9-.6.6s.2-.9.6-.6Z"/>
    <path class="st3" d="M243.5,263.3c0,1.5-2.6,1.2-2.8,0h2.8Z"/>
    <path class="st3" d="M234.9,263.1c0,1.8-1.5,1.2-1.7-.3.6,0,1.1.2,1.7.3Z"/>
    <path class="st3" d="M228.9,262.5c-.6.7-1.6.9-1.7-.3.7,0,1.3.3,1.7.3Z"/>
    <path class="st3" d="M230.8,262.5c.2.9-1.1.8-.8,0h.8Z"/>
    <path class="st3" d="M239.9,263.3c.2.9-.7.8-.6,0h.6Z"/>
    <path class="st13" d="M255.7,260l-1.1-.3c.6,0,1.1.3,1.1.3Z"/>
    <path class="st12" d="M228,251.7c-1,0-2.3.2-3-.3,1,0,2.3-.2,3,.3Z"/>
    <path class="st11" d="M181.3,30.2c.2,0,.4,0,.7,0l.9-.2c-.3-.6.3-.4-.6-.6-.2,0,.3-.2,0-.3-.3-.1-.8-.5-.8-.5l-.9.3c-.4,0-.5,0-.9,0-.7.6-1.7,1.2-2.2,1.7-.6.5-1.6,1.8-2.4,2.5.4,0,1.1.2,1.7-.3s.2-.4,1.4-1.1c.2-.2.3-.6.6-.6,0,0,.2-.3.3-.3v.3c0,0,0,.2,0,.4,0,.7.1,1.8-.3,1.8.2.7-.6.8.8.8s.4.2.8,0c.4-.2,1.2-1.2,1.7-1.4,0-.9-.1-1.5-.8-2.2,0-.1-1.7-.2,0-.4h0ZM179.6,32.7s0,0,0,0v-.8c0-.3.2-.3.2-.5,1.7-.8,2,2-.2,1.2h0Z"/>
    <path class="st11" d="M180.1,29.7s.3.2.6.3.4,0,.6,0c.9.2.3,0,.6.6h-1.9c-1.7.2,0,.5,0,.6.7.7.7,1.3.8,2.2-.5.2-1,1.2-1.4,1.4s-.6,0-.8,0c-1.4,0-.6-.1-.8-.8.4,0,.6-.2.6-.6h.3c2.2.8,1.7-2,0-1.2v.7h-.6v-1.4c0,0-.3.3-.3.3-.3,0-.4.4-.6.6-1.2.7-.8.6-1.4,1.1s-1.3.3-1.7.3c.8-.7,1.9-1.7,2.5-2.2s1.5-1.1,2.2-1.7h1.4s0-.2,0-.2Z"/>
    <path class="st15" d="M178.7,65.9v-.6c.4,0,.4.6,0,.6Z"/>
    <path class="st5" d="M164.1,42.1c1.3,0,3.3-1.5,4.3-1.7s.5.7.6,1.1c-5.2,2.7-10.8,5.1-15.9,7.9s-9.4,5.3-9.7,5.8-.4.5.1.3c2.2-1.2,4.3-2.4,6.5-3.5,5.2-2.7,12.7-7.6,17.9-9.4,0,0,0,.5-.3.7-.3.4-2,1-1.3,1.8.3.4,2.7-1.3,4-1.9,1.6-.8,2.2-.4,2.7-.2-2.6,2.6-7.9,4.2-11.4,5.7s-4.2,1.5-4.7,2.2c-.7-.2-1,.5-1.1.6s-.4.2-.6.3c-1.1.5-1.7.8-2.8,1.4-2.9,1.5-6,2.8-8.9,4.4-.2,0-.9.2-1.1.3l-1.5-1.8c-.2,0-.2-.5-.4-.7v-.6c1.6,0,6.9-3.9,8.6-4.9s3.7-1.9,5.4-2.9l6.9-3c.6-.5,1.7-.8,1.7-1.7.2,0,.5-.4.8-.3h.2c0,.1,0,.1,0,.1Z"/>
    <path class="st5" d="M169.3,41.8c0,1.1-.9.7-1.4.8.3-.3.7-.6,1.1-.8s.2,0,.3,0Z"/>
    <path class="st11" d="M139.7,54.6c.6-.9,1.4-1,2-1.4,5.5-3.6,10.9-7.2,16.4-10.7.5-.4.9-.8,1.4-1.1s.5-.1,1.1-.6c1.1-.9,1.8-.1,2.7-.4s2.4-1.7,3.1-1.9c.7-.2.7.7.7,1.1l-8.2,4.2c-.5,1,4.7-1.7,5-1.8,0,.7-3.7,2.5-4.2,2.8-1.7.9-3.4,1.7-5.1,2.6s-3.5,1.8-5.3,2.8-7.3,4.7-8.8,4.7-.4,0-.6,0-.2-.2-.3-.3h.1c0,0,0,.1,0,.1Z"/>
    <path class="st5" d="M177.6,34.2c-.2.7-1,.6-1.3.8s-.8,1.7-.6,1.9c1.5-.3,4.1-.7,3.9-2.8h.8c0,.4-.4,1.1.4,1.1s1-.2,1,.3c-.8.3-2,.3-2.5,1.1h-.8c-.2,0-.2.1-.3.3h-.3c-.2,0-.2.3-.3.3-.4.1-.8,0-1.4.3s-.2.3-.3.3h-.3c-.9.4-1.8.8-2.8,1.1v-1.4c0-.5,0-.2,0-.3,1.1,0,.7-.9.8-1.7s0-.8,0-1.1c.2-.8,1.1-1.1,1.4-1.4.4,0,1.5-.1,1.7-.3,0,0,1.1.8.9,1.5h0Z"/>
    <path class="st7" d="M163.2,42.4c0,1-1.1,1.2-1.7,1.7l-6.8,3.3c1.6-1,3.2-2,5-2.9s.9-.3.9-.9c1-.4,1.9-.8,2.8-1.1h-.2Z"/>
    <path class="st7" d="M172.9,38.8c0-.4.3-1.3.5-1.8.5-.3.3-1,.3-1.6h-1.1c0,.5.2.9.3,1.4-1.2.5-2.6,2.1-3.3,2.5-.8.4-2.2.2-3.2.6-.6.3-2.3,1.5-2.4,2.2,1.3,0,3.6-1.6,4.3-1.7s.4.4.4.8.3.4.3.6c0,0-.2.3.3,0s1.1-.3,1.1-.3v-.6l.3.3c1.5-.8,2.8-1.9,4.3-2.8.4-.2.8-.2.7-.8-1,.4-1.8.8-2.8,1.1Z"/>
    <path class="st7" d="M140.5,54.8v.6c-.6-.4-.5-.5-.6-.6h.6Z"/>
    <path class="st12" d="M283.1,251.4c-.5.5.1,1.3-.1,1.7s-1.8.6-2.3.8-.4-.2-.4.6c-.9,0-2.2-.5-3-.6.7-.6,3.7-.4,3.9-.6.8-.8-1.8-1.1-1.1-1.7.9.3,1.7-.4,2.4-.5s.6.2.6.2h0q0,.1,0,.1Z"/>
    <path class="st5" d="M282,259.5c-.6,0-1.2-.5-.6-.8,0,.1.7.3.6.8Z"/>
    <path class="st5" d="M280.9,257.8h-.6l.4-.3v.3h.2Z"/>
    <path class="st12" d="M296.4,248.1h4.2c.4.4-1,2.3-1.4,2.8s-.8-.3-.6.8h1.7c.2.4-.3,1-.3,1.1-.6-.4-1.3-.3-1.9-.3-.1-1-.2-2.4-.8-3.2s-.7-.3-.8-.5c-.2-.3,0-.7,0-.8h-.1q0,.1,0,0Z"/>
    <path class="st12" d="M289.8,242.8c.4,0,2.8-.1,2.8.1-2.4.3-.6.7-.5.8,0,.9-1.5,1.2-2.2,1.2v-2.2h-.1q0,.1,0,0Z"/>
    <path class="st6" d="M290,238.7v.6s-.8.7-.8-.4.6-.1.8-.1h0Z"/>
    <path class="st4" d="M292.3,237v.6c-.6,0-1,.2-.8-.6h.8Z"/>
    <path class="st4" d="M292.5,238.1c.7,0,1-.2.8.6h-.6c0-.2-.2-.4-.3-.6h.1Z"/>
    <path class="st9" d="M310.8,258.9c-.7.5-2.4.5-3,0h3Z"/>
    <path class="st2" d="M300.3,254.5c0,.2.4.5.3.8h-.6l.3-.8Z"/>
    <path class="st3" d="M226.4,265c-.8.2-2.4.8-2.2-.3.9,0,1.7.3,2.2.3Z"/>
    <path class="st6" d="M293.4,234.8v.8c-1.8-.2-2.2-.8,0-.8Z"/>
    <path class="st7" d="M283.3,161.8c-.1,0-.9-1.5-.9-1.6,0-.4-.4-4.5-.1-4.5,1.2.6,1.3,2,1.7,3s1.1,1.3,1.4,2.9c-.4,0-1,.7-1.4.7l-.7-.5h0Z"/>
    <path class="st7" d="M286.9,168.9l-.9-1.6c.1-.8-.3-.6-.3-1.2-.1-.3-.2-1.8-.4-2.5s-1-2-1.2-2.8c-.5,1.6-.1,6.5-.3,6.5.5.6,2.2,3.9,3.5,3.9-.3-.6.7-2.3-.4-2.3h0Z"/>
    <path class="st13" d="M297.4,237.3c.2,0,.2.2,0,.3v-.3Z"/>
    <path class="st6" d="M299.2,250.9v.8h-.6c-.3-1.1.5-.8.6-.8Z"/>
    <path class="st9" d="M297,243.1v.8c-.4,0-1.1.7-1.4-.7,0-.3,1.1-.1,1.4-.1Z"/>
    <path class="st11" d="M170.4,41.5c-.2.4-1.3,2-1.1,2.2.7.2,1.3-.2,1.9-.3.3.8-.5.9-1.8,1.4-1.3.3-3,.7-3.2.5-.7-.8,1.1-1.7,1.4-2.1s.2-.7.3-.7c.5-.2,1.4.3,1.4-.8.5-.2,1-.2,1.1-.3,0,0,0,.1,0,0Z"/>
    <path class="st11" d="M168.8,41.3c0,.1.3.3.3.6-.4.2-.8.5-1.1.8-5.2,1.8-12.7,6.7-17.9,9.4s-4.3,2.3-6.5,3.5-.8,0-.6-.3,8.8-5.3,10.1-6c5.1-2.8,10.5-5.3,15.7-8Z"/>
    <path class="st5" d="M172.1,43.5h.3v.3c0,0-.3-.3-.3-.3Z"/>
    <path class="st3" d="M156.9,51c-.2.3.4.8-1.1.6.1,0,.4-.8,1.1-.6Z"/>
    <path class="st14" d="M274,144.3c1,0,1.1-1.5,1.9-1.9s1.2-1.3,1.7-1.6c1-.4,2-.3,3.2.3,2,1.1.2,1.9.1,2.6s.2.6.2.9c0,1,0,1.5.3,2.6-.8.2-.9-1-1.3-1.1-1.8-.6-1,2.2-.6,3.1-.7.1-.6-.3-.8-.8-.7-1.6-2.2-2.6-2.1-4.4-.6.4-.3-.8-.7-.6s-.4,1.2-1.5,1.3-.3-.5-.4-.6h0Z"/>
    <path class="st14" d="M279.8,150.1c1,3,.9,7.6,1.1,10.9s.8,2-.3,1.8c0-.1-1.9-1.4-2.5-2.2s-.9-1.7-1.1-1.9c1.2,0,2.5.3,2.9-1.1.7-2.2-.6-3.1-.7-4.8s-.2-2.1.6-2.6h0q0-.1,0,0Z"/>
    <path class="st7" d="M284.8,155.3c2,.6,2,2.1,2.2,3.9-1,.2-.4-1-.7-1.7s-1-.8-1.5-2.2c-.3,0-.8.1-1.1,0-.7-.4-.3-4.9.2-5.8.2,2.2,0,3.6.8,5.8h.1Z"/>
    <path class="st7" d="M284,148.7c-1.1.1-.3-.6-.3-.8.4.1.2.5.3.8Z"/>
    <path class="st1" d="M184.5,41.3c-2.8.4-5.1,1-8,1.1,1.1-.9,5.8-2.2,7.1-1.9s.8.4,1,.8h0Z"/>
    <path class="st14" d="M200.6,44.6c0,.4,0,.9-.3,1.2s-.5.1-.6.2c0-.5.3-1,.6-1.4,0,0,.3,0,.3,0Z"/>
    <path class="st11" d="M200.6,43.5c-1.1.1-.3-.4-.3-.6.3,0,.3.3.3.6Z"/>
    <path class="st11" d="M200.6,44.6h-.3c0-.1.2-.2.3-.3v.3Z"/>
    <path class="st7" d="M175.4,42.6c0-.1,0-.3.3-.3,0,.1-.2.3-.3.3Z"/>
    <path class="st14" d="M194.8,27.6c-.3.1-1.4.6-1.6.5s-.6-.7-1-.7-1.2,1.2-1.2-.1c0-.6,2.5-2.2.7-2-.7,0-.3-.6-1.4-.8-1.1-.2,0-1.6-2-1-.3.1-.6-.5-1.9.5s-2.3,1.5-2.9,3.1l-1.2,2.4h0c1,.3.4.2.6.7,0,.2.3.4.3.6,0,0,.3,0,.3.1h0c0,1.3-.2,2-1.2,2.9.2.1.4.3,1.3.3s1.7-.5,2-.2c-1.9.9-5.3,2.5-6.2,2.6h-.8c0,.1-.2.3-.3.3h-.3l-.3.3c-.4.1-.8.1-1.4.3l-.3.3h-.3c0,.6.8-.1-.7.8s-2.8,2-4.3,2.8c0,0,0,.2-.3.3-.2.4-2.9,2.3-2.7,2.5.6.1,1.7-.2,2.3-.2s1.2,0,1.2,0c1.2-.3,2.4-.7,3.8-1.5,1.4-.8,2.2-1,4.1-1.4s4.9-1,6-1.8c-1.1.2-2.8-.1-3.7,0-.5,0-1,.6-1.4.5s-.6-.9-1.1-.8-1.5,1.4-1.8,1.1c.5-2.4,3.3-2.4,5.2-3.3.4-.2,4.5-2,4.8-2.7,1.1-.2,2.1-.2,3-.5.3-.1,2-.9,2.6-1.3.6-.4,1.4-1.6,2.3-2.1s1.7.9,1.9-1.5c.2-2.4-1.4-1.2-2.2-.9h0Z"/>
    <path class="st7" d="M181.8,32.7v.8c0,.1.6,0,.8,0s.4.3.9.3c.9,0,2.3-.8,2.1.2-.9.4-1.5.9-2.8,1.4s-2.4.9-3.6,1.1c.5-.8,1.7-.8,2.5-1.1,0-.5-.6-.2-1-.3-.8,0-.3-.7-.4-1.1.4-.1.9-1.2,1.4-1.4h0Z"/>
    <path class="st14" d="M181.2,29.1v-.3c.7,0,.6,0,.6.6-.3,0-.5-.3-.6-.3Z"/>
    <path class="st14" d="M198.9,14.7v.3c-.3.1-.6.7-.6-.3h.6Z"/>
    <path class="st6" d="M266,229c.1,1.2-.1.7-.8.8,0-1,0-.8.8-.8Z"/>
    <path class="st1" d="M276.6,158.4h0c0,0,0,0,0,0Z"/>
    <path class="st5" d="M278.2,160.6c-.2-.2-.9-1.7-1.1-1.9,0,0-.4-.3-.6-.3-.1,0-.4-.9-1-1.1-1.3-.5-3.3-1-4.5-1.2-.4-.1-3.3-.7-3.1-.1,0,.1.8.6,1.3.9-.1,0,.5,0,.4,0-.9,0,.4.1-.9.3-.2,0-.6.1-.9.1h-.6c-.5.1-.9.4-1.4.4v1.1c1.4-.6,2.9.5,4.4.6l2.1.4c.3.1,1.4.4,2.1.5s1.5,0,2.1-.3c0,0,.2,0,.4,0,.4.3.8.5,1.2.5h0Z"/>
    <path class="st1" d="M276.6,158.4h-.1c0,0,0,0,0,0,0,0,0,0,0,0Z"/>
    <path class="st7" d="M178.2,31.6c0,.7,1.3,0,1.4.6,0,.5,3.4.1,3.5,1.6.2,2-6.5,3.1-8.1,3.4,0-.1.8-2.3.9-2.5.3-.3.4-.9.7-1.7s.4-.8,1.6-1.5h0Z"/>
    <path class="st5" d="M181.8,29.9c-.2.9.6.5,1.4.6s.2,0,.3,0v.3c0,1.2.2,1.8-.8,2.8h-.8c0,0,0-.6,0-.8,0-.9,0-1.5-.8-2.2v-.6h.8s0-.1-.1,0Z"/>
    <path class="st5" d="M179,31v1.1c0,.2.1.4.3.6,0,.4-.2.6-.6.6-.2-.5-.7-1-.6-1.7.2-.1.3-.5.6-.6h.3Z"/>
    <path class="st7" d="M182.9,29.9c0,.2.3.3.3.6-.7,0-1.6.3-1.4-.6h1.1Z"/>
    <path class="st7" d="M180.9,29.9v.6s-1.7-.4,0-.6Z"/>
    <path class="st7" d="M179.5,32.2c0,.2.1.4.1.6h-.3c-.3-.2-.2-.2-.3-.6,0,0,.5,0,.5,0Z"/>
    <polygon class="st7" points="179 31 178.7 31 178.9 30.7 179 31"/>
    <path class="st7" d="M176,37.7l.3-.3-.3.3Z"/>
    <path class="st7" d="M177.6,37.1s0-.2.3-.3l-.3.3Z"/>
    <path class="st7" d="M178.2,36.8c0-.1.2-.3.3-.3,0,.1-.2.2-.3.3Z"/>
    <path class="st5" d="M170.7,41.3s0,.2-.3.3v-.6s.3.3.3.3Z"/>
    <path class="st11" d="M183.4,30.7v-.3h.3c0,.2-.3.2-.3.3Z"/>
    <path class="st2" d="M180.4,31.2c-.1,0-.2,0-.3,0-.2.1-.4.3-.4.5,0,0,0,.1,0,.2s0,.2,0,.2c0,.2.2.4.4.5h0c.1,0,.2,0,.4,0,.5,0,.8-.4.8-.8s-.4-.8-.8-.8Z"/>
  </g>
</svg>