<?xml version="1.0" encoding="UTF-8"?>
<svg id="b" xmlns="http://www.w3.org/2000/svg" version="1.1" viewBox="0 0 510.2 283.5">
  <!-- Generator: Adobe Illustrator 29.4.0, SVG Export Plug-In . SVG Version: 2.1.0 Build 152)  -->
  <defs>
    <style>
      .st0 {
        fill: #9c908b;
      }

      .st1 {
        fill: #9b8c83;
      }

      .st2 {
        fill: #928886;
      }

      .st3 {
        fill: #987a60;
      }

      .st4 {
        fill: #654c36;
      }

      .st5 {
        fill: #918a8b;
      }

      .st6 {
        fill: #7d7978;
      }

      .st7 {
        fill: #87715a;
      }

      .st8 {
        fill: #785a43;
      }

      .st9 {
        fill: #5c4437;
      }

      .st10 {
        fill: #827975;
      }

      .st11 {
        fill: #746a65;
      }

      .st12 {
        fill: #ceb69d;
      }

      .st13 {
        fill: #775f4a;
      }

      .st14 {
        fill: #352b23;
      }

      .st15 {
        fill: #ae9b8c;
      }

      .st16 {
        fill: #0f0c0a;
      }

      .st17 {
        fill: #7b5f48;
      }

      .st18 {
        fill: #968f8f;
      }

      .st19 {
        fill: #664d40;
      }

      .st20 {
        fill: #ae8f70;
      }

      .st21 {
        fill: #514b4a;
      }

      .st22 {
        fill: #4c4540;
      }

      .st23 {
        fill: #0e0b0a;
      }

      .st24 {
        fill: #a9978c;
      }

      .st25 {
        fill: #656468;
      }

      .st26 {
        fill: #ac8f75;
      }

      .st27 {
        fill: #886a50;
      }

      .st28 {
        fill: #a89d9c;
      }

      .st29 {
        fill: #a59285;
      }

      .st30 {
        fill: #ab9f9b;
      }

      .st31 {
        fill: #6d6360;
      }

      .st32 {
        fill: #a0958f;
      }

      .st33 {
        fill: #857d7b;
      }

      .st34 {
        fill: #ab9f9d;
      }

      .st35 {
        fill: #b9aca6;
      }

      .st36 {
        fill: #bbab9e;
      }

      .st37 {
        fill: #4d5965;
      }

      .st38 {
        fill: #665952;
      }

      .st39 {
        fill: #3b3b3e;
      }

      .st40 {
        fill: #928a89;
      }

      .st41 {
        fill: #706f74;
      }

      .st42 {
        fill: #6e8299;
      }

      .st43 {
        fill: #b1a29e;
      }

      .st44 {
        fill: #b7957a;
      }

      .st45 {
        fill: #d4bb9d;
      }

      .st46 {
        fill: #7d654f;
      }

      .st47 {
        fill: #b7a393;
      }

      .st48 {
        fill: #a08068;
      }

      .st49 {
        fill: #bea385;
      }

      .st50 {
        fill: #4f392e;
      }

      .st51 {
        fill: #948071;
      }

      .st52 {
        fill: #745e4b;
      }

      .st53 {
        fill: #93765d;
      }

      .st54 {
        fill: #e4d1bb;
      }

      .st55 {
        fill: #100a0a;
      }

      .st56 {
        fill: #69523c;
      }

      .st57 {
        fill: #414851;
      }

      .st58 {
        fill: #684d3b;
      }

      .st59 {
        fill: #746d6d;
      }

      .st60 {
        fill: #c1a585;
      }

      .st61 {
        fill: #4e4340;
      }

      .st62 {
        fill: #887d79;
      }

      .st63 {
        fill: #5a4230;
      }

      .st64 {
        fill: #42382f;
      }

      .st65 {
        fill: #a87659;
      }

      .st66 {
        fill: #7f726f;
      }

      .st67 {
        fill: #dbc7b3;
      }

      .st68 {
        fill: #2f2219;
      }

      .st69 {
        fill: #d2b897;
      }

      .st70 {
        fill: #4e3a2e;
      }

      .st71 {
        fill: #898080;
      }

      .st72 {
        fill: #665953;
      }

      .st73 {
        fill: #a79488;
      }

      .st74 {
        fill: #817d7f;
      }

      .st75 {
        fill: #292b2e;
      }

      .st76 {
        fill: #632910;
      }

      .st77 {
        fill: #3b3b3c;
      }

      .st78 {
        fill: #836a55;
      }

      .st79 {
        fill: #716d71;
      }

      .st80 {
        fill: #4e4441;
      }

      .st81 {
        fill: #503c31;
      }

      .st82 {
        fill: #a19291;
      }

      .st83 {
        fill: #9e8c77;
      }

      .st84 {
        fill: #89807c;
      }

      .st85 {
        fill: #a1918d;
      }

      .st86 {
        fill: #716968;
      }

      .st87 {
        fill: #9a7a5e;
      }

      .st88 {
        fill: #b8a592;
      }

      .st89 {
        fill: #bea080;
      }

      .st90 {
        fill: #7d7069;
      }

      .st91 {
        fill: #a09084;
      }

      .st92 {
        fill: #af947b;
      }

      .st93 {
        fill: #b3a194;
      }

      .st94 {
        fill: #937256;
      }

      .st95 {
        fill: #b39f8f;
      }

      .st96 {
        fill: #6b625f;
      }

      .st97 {
        fill: #7e5d44;
      }

      .st98 {
        fill: #968e8e;
      }

      .st99 {
        fill: #c3b4aa;
      }

      .st100 {
        fill: #787374;
      }

      .st101 {
        fill: #7e7876;
      }

      .st102 {
        fill: #4a454a;
      }

      .st103 {
        fill: #847873;
      }

      .st104 {
        fill: #7c634c;
      }

      .st105 {
        fill: #39383a;
      }

      .st106 {
        fill: #98857b;
      }

      .st107 {
        fill: #c6af96;
      }

      .st108 {
        fill: #706766;
      }

      .st109 {
        fill: #43342b;
      }

      .st110 {
        fill: #0c0908;
      }

      .st111 {
        fill: #6d5d50;
      }

      .st112 {
        fill: #c4aa86;
      }

      .st113 {
        fill: #7e401d;
      }

      .st114 {
        fill: #c4a383;
      }

      .st115 {
        fill: #5f5048;
      }

      .st116 {
        fill: #5f4b3b;
      }

      .st117 {
        fill: #a09289;
      }

      .st118 {
        fill: #918786;
      }

      .st119 {
        fill: #c9b49d;
      }
    </style>
  </defs>
  <g id="c">
    <path class="st23" d="M203.6,87.5c-2.2,0,0-2.3,1.1-2.5l6.3.5c8.6,1.7,18,.3,26-2.9,1.3-1.5,6.3-1.3,7.8-.5,1,.5,3,3.4,3.6,4.5l1.4.7c.9-.3,2.3-.5,1.9.8-1.5,1.1-1.3,1.5,0,2.8,0,1.6,1.9,2.9,3.1,3.8,3.3,1.9,6.7,3.6,10.2,5.2l4.4.9c4.7.3,9.2,1.2,13.5,2.7,3.3.6,6.5.9,9.6,1.2,5.8,2.1,12,3.8,18.1,4.3.7-.2,3.1,2.5,2.5,2.9h-1.9c-2.6,0-5.3-.6-7.7-1.4-1.1-.3-2.3-.2-3.3.2-1.3-.5-2.5-.1-3.5.9-3.1.8-6.3.5-9.4-.3h-2.9c-.3,0-.5.8-.4.8l6.6.5c1.1.7.3,1.8-.9,1.7-4.7,0-8.8.3-13.3,2.2-4.5,0-1.6.4.7.7.8.2,2.3.6,1.3,1.6-.2.1-4.4.5-5,.5-2.2-.3-4.4-.3-6.6-.1.7,2.5-3.4,2-4.7.9-1.1-.3-2.6-.7-3.2.6-2.3,1.1-4.9,1.8-7.6,1.9l.3.3c2.9.7,3.1,2.6-.4,1.7-2.5.5-5.2.8-7.8.7,0,.5-.2.9-.7.9-1.1-.3-8-.9-8.2-.1.3,1.1-.3,1.6-2.1,1.7-1.9-.4-3.6,0-4.8,1.1-1.1-.1-2.1-.4-3.1-.8-1,.7-1.7.9-2.6,0-1.1.7-2.4.8-4,.3l-2.4.4c-2.1,1.5-3.7,2-5.8.1-3.6-.5-6.4-1.2-8.7-4.2-1.1-.2-1.7-2.7-1.2-3.6,2.6-1.7,5.2-3.5,7.8-5.2l.4-.6c8.9-5.8,18-12.2,23.9-21l.2-.2c1.6-2.3,2.7-4.9,3.6-7.5,0-.1,0-.3,0-.5-.3-.5-3.4-.1-4.1,0-9.2,1.8-18.6,2.9-27.9,1.3h0Z"/>
    <path class="st16" d="M303.1,51.3l1.1.5,3,.7c1.3.6,3.1,1.4,2.5,3.2.5.8.7,1.6-.2,2.2.5,1,1.1,1.9,1.9,2.8.5.9.3,1.5-.7,1.7.7,1,.9,1.9.7,2.8-.6.7-.7,1.3-.2,2,1.4,1.7,1.5,2.9.1,3.6v1.3c-.5,2.1-.5,4.2.2,6.6.1.9-.4,1.5-1.5,2-1.1,1.7-1.8,1.7-3.1.2-1-.2-2.1-.2-3.2,0-4.8-.9-9.5-1.5-14.4-1.4-2.4,0-4.6-.4-6.7-1.3-1.8.7-3.2.8-3.8-1.4-1-.9-2.3-1.5-3.9-1.5-3.2-.2-6.4-.6-9.3-1.7-.6-.7-1-1.5-1.3-2.3-.9-.7-1.3-1.7-1.1-3.1-1.3-.5-2.5-1.2-3.6-2,0-2.1.1-4.3.4-6.5,2.3-2.1,4.8-4,7.4-5.7v-.3c2.6-2.1,5.4-4.4,7.3-7.2,1.1-1.6,1.1-3,.7-4.8-.3-.6-.6-1.1-.9-1.6-2.3-2.3.7-2.7,2.6-2.6,3.5.3,8.1,1.4,10.1,4.6l2.3,1.7c4.5,2.5,9,5,13.6,7.4h0Z"/>
    <path class="st119" d="M189,169.2c-.5-.5.8-5.4,1-5.6.6-.5.9.2,1.1.8.3-.5.7-.3,1,.1,1.5,1.5,1.5,4.3,0,5.9,0,1.1,0,2.1,0,3.3.7.3.9.9.9,1.7l.3.2c.3-.9,1,0,1.3.5,2.3,6.8,4.9,13.3,8,19.8v.7c-.5.5-1.1,0-1.7-1.2-1.1-.3-1.8-.9-2.4-1.7.5-1.9-1.4-3.7-3.3-2.7.7,1.1,1,2.2.9,3.4l.9,2.5c-.5,1.6-.6,3.3.9,4.4,0,.2,0,3.4-.4,3.7,1.1.7,1.3,2.1.3,3,.9,2.7,1.6,6.6,0,9-.4,2.6-3.1,1.2-2.3-1.2-.6-.5-.8-1.3-.6-2.3-1.2-.5-1.8-1.3-1.7-2.6l-.6-1.9c.1-.4-1.1-5.2-1.5-4.8,0,1.3-.1,2.1-1.5,2.6-.2.2-.2.6,0,.9.9.6,1.2,1.3.9,2.3.7,1.6.8,2.3-1,2.9,1.7,1.1,2,2.3.7,3.9.9,1.9.9,2.7,0,4.6,0,2.5-.4,4.9-1.3,7,1.1,1.1-.8,2.1-1.4,1.2s-.8-2.1-.5-3.3c-1-1.1-.9-1.7,0-2.7-1.5,0-1.9-.3-1.4-1.9-.6-.6-.9-1.5-.7-2.7-.8-1-.8-1.6-.8-2.8-.8-.8-.9-1.9-.4-3l-.5-.5c0,.9.1,2.3-1.1,2.5l-.3.3c.1,2-.6,3.1-2.3,3.3l-.2.5c.9,3.4-1.7,1.5-2.5-.3-.1-2.7-.5-5.2-1.3-7.5-.5,1.4-1.2,2.8-1.9,4.1-.1,0-.3,0-.4,0-.2,0-2.9-2.9-2.8-3.5,0-2.3,0-4.6.2-6.8l-.5.5c-.1.9-1.1,3.8-1.6,4.2-.4.3-1,0-1.1-.5v-2.3c-1.1.5-1.8.4-2.3-.3l-1.1.7c-.1.5-1.4,4-1.9,2.5.3-1.5.7-2.9,1.1-4.3,1.5-6.2,3.6-14.1,5.9-20,.5.3.6.8.5,1.5l-1.1,3.1c0,.3,2.2.7,2.5.3-.5-1.2-.9-2.4.8-2.7-.3-1.3.4-1.9,1.7-1.5,0-.3,0-.5.3-.7.1-.1,2.8-1.1,3.1-.9,1.1,1.4,2.7.4,1.7-.9-.5,1.3-2.9.7-1.9-.3-.6-.3-.5-1.3.2-1.3-.3-2.5-.3-4.6,1.8-6.2,1.5-.5,1.9,1.1,1.1,2.2l2.1-.7c.1-.8.8-1,2.1-.7-.3,0-1.3-1.9-1.3-1.9,0-.9,1.7-1.2,1.9-.4l.5-1.1c-.4-.5-1.1-1.5-.3-1.8l.4-.4c.7.3.9-.1.5-1.5.1-1.3,2.3-1.3,2.5,0,.3-.2.6-.3.9-.2h0v-.3Z"/>
    <path class="st110" d="M312.1,94c.9.3,1.5.7,1.8,1.3,1.5.5,2.8,1.2,4,2.1,0,.7.4,1,1.3.9l3.2,1.2c.3.6.8.8,1.5.5-.1-1.6,2.5-1.7,3.4-.9h1.9c.5-.5,1.5-1,2.5-1,4.7.5,9.3,1.8,13.7,3.3.8,0,1.7.3,2.5.7l.7.2c.3-.2.7,0,.9.2l3.5,1.4c4.7,2.8-3.7,4.6-5.9,4-.7-.1-.9.1-.5.7,0-.1.1-.2.2-.2.6,0,4.9,2.7,5.2,3.1,1.4,2-1.3,2.4-1.7.4h-.9c-1.9-1.4-3.8-2.2-6.2-1.9,1.1.3,2,1,2.9,1.9,1.3,0,2,.3,2.2,1.1.5,0,.5,0,.3.3.7.1,1.3.5,1.6,1.1.3-.3.5-.2.5.2.8,0,1.4.4,1.8.9.3-.6,1-.2.9.5.6,0,1.1.3,1.6.9,0-.2.1-.2.2,0,1,0,1.4.3,1.3.9,1.1-.4,2.3.1,3.6,1.5.5-.5,1.1-.3,1.7.7,1.3.3,2.3.9,2.9,1.9,1.1,0,2,.2,2.5,1.3.7-.3,1.2.2,1.7.7,2.3,1,3.1,1,1.1-1.1,0-.5,0-.9.6-.9v-.7c1.1.4,2.3.5,3.6.3,3.3.5,6.9,1.9,10,3.3.4,1.1,1.3,1.7,2.6,1.9,1.9,1.5,4.1,2.5,6.2,3.4,1.3.7,2.7,1.2,4.1,1.8.8.3,1.5.8,2.1,1.5,1.6.6.4,1-.7.9-.2,0-.3.3-.2.4,1.9.7,3,1.9,3.4,3.5.2.1.7.2.7.4-.1.6-.1,1.3-.8,1.5-1.2.3-5.6-1.3-7.2-1.7-3.7-.8-7.4-1.3-11.1-2.1-2.4-.5-4.8-1.9-7-2.5-1.4-.3-3.1-.3-4.5-.7-2.3-.7-5.8-3.3-8.3-4.4-6.2-2.8-12.9-4.7-19.2-7.4-1.4-.5-2.9.8-4,.9-5.2.2-14.3-5.2-18.8-8-1.4-.7-2.9-1.4-4.3-2.1-.1-.1-.3-.3-.2-.5,1-2.2,1.9-2.7,4.4-2.3-.1-1.6,1.3-1.5,2.3-.8,3.9,1.5,4.2-2.3,1.9-4.3-2.6-1-5.2-2.3-7.7-3.9-.1,0-.3,0-.7-.2,0,.2-.1.2-.2,0-2.9-1.3-5.8-2.6-8.6-3.9-.7-.3-1.3-.6-1.7-1,.9-.9,1.9-2.1,2.1-3.5h.3c1,.6,2,1.3,2.9,2h-.2Z"/>
    <path class="st35" d="M182.3,215c.1-.4.6-.9.6-1.3s-.4-2.5.7-1.5c1.3,1.1.1,1.7.2,2.5,0,.4.6.7.8,1.3.2.7,0,1.1,0,1.5,0,.4.7.8.7,1.3.1.7,0,1.4,0,1.9,0,.3.5.5.6.7,0,.3-.3,1.3-.2,1.4,0,0,1.5,0,1.6.3.2,1-.7.8-.7,1.3,0,.9.7,1.1.7,1.6,0,.5-.3.9-.2,1.3,0,.6.4,1.3.2,1.9l1.3-.2c.1-.4-.5-.6-.4-1,0-.3.7-1.3.8-1.9.4-1.7.1-3.8.5-5.4.1-.5.8-1.7.8-2.1s-.9-1.4-.8-2.3c0-.7.8-1.1.9-1.4,0-.3-.8-2.1-1.5-2-.3-1.2,1.2-1,1.3-1.3.4-.6-.3-1.5-.4-1.9,0-.4.2-.7,0-1.2-.2-.7-1.1-.5-1.1-1.5,0-1.4,1.1-1.1,1.5-1.7s-.2-2.9.8-1.9c1.7,1.7,1.3,3.6,1.9,5.6.4,1.3.5,1,.7,2.5,0,1.2.8.7,1.3,1.1.7.7.2,1.6.3,2.1,0,.3.5.5.6.8.2.6-.5,1.9.4,2.1,1.5.3.8-.3,1.1-.9.2-.6.7-.9.8-1.7.1-.7,0-3.8,0-4.6s-.8-2.5-.8-2.8.4-.1.5-.4c.7-1.7-.7-1.7-.8-2.3,0-.5.4-.7.5-1.1,0-.3-.2-.7-.2-1.1s.3-1.1.2-1.3c0-.4-.7-.4-.9-.9-.1-.3-.4-1.9-.3-2.3,0-.3.4-.6.4-1.1s-.8-1.9-1-2.7c-.1-.4.1-.8,0-1.3,0-.4-1.1-2.3-1.1-2.5,2-.8,3.1-.5,4.2,1.4.3.5-.2.9,1,1.2h-.9c-.6.7,1.9,1.5,2.2,1.7.4.3.5,1.3,1.4,1.5.5,0,.5.1.2.5.1.5-.2.8-1.1.9.3.7.3,1.3.3,2,2,0,3.8,1.8,1.7,3.1,1.2.1,1.9.5,2.3,1.2l.5.2c.3,2,.5,4,.3,6.1-.2,1.3-.3,2-1.7,1.2-.3.3-.7.3-1.3,0l1.1,1.3c.1,1.1.3,2.2,1.3,3v.5c-.9,2.5-1.7,2.4-2.7,4.2-.5.9-.5,1.7-1.3,2.7-.4.5-2.8,2.5-3.3,2.6s-.9-.3-1.5-.2c-1.1.1-.7,1.2-.9,1.9-.3,1.2-1.1,3.2-1.6,4.3-.5.9-2.7,4.9-3.3,5.5-.4.4-2,1.5-2.5,1.1-1.1-.7-1.3-4.2-1.3-5.4l-.5-.3c0-.7.2-4.2-.9-4-1.4,1.2-1.9.5-2.6-.9-.3-.5-.7-2.2-.1-2.5-.6-2.7-.9-5.6-.9-8.4-1.1-.9-1.2-1.7-.5-2.2h.2Z"/>
    <path class="st55" d="M175,64.5h.9c1.5,1.1,2.5,1.5,4.4.7,3.8.2.9,4.4-1.6,2.6-.7-2-2.8-1.3-3.3.5-1.1,0-2,.3-2.8.7,0,.7,0,1.3-.1,1.8-2.4,0-4.8-.1-7.2-.5,3.5,1.2,7.5,2.9,10.7,4.8.3.2.6.5.8.9,2,.5,4,1,6,1.6,0,2.3,4.7,3.3,6.5,3.4-.3-.8-.2-1.3.4-1.9-.5-.8-1.1-1-1.9-.7-1.3,0-4.5-2.2-1.7-1.8,0-.3.3-.3.5,0l.9.2c.2-.3.9-.1.9.2l1.1.2c.7-.3,2.2.5,2.9.9.9.5,2.6,2.2,2.5,3.2,2.1,1.9,2.5,5.2-1.2,3.5-1.1-.7-2.2-1.4-3.3-1.9-5.2-1.9-11-3.2-15.8-5.9-5.1-2.7-9.3-5.4-15.1-7-10.5-2.9-23.3-5.3-34.2-6.2-4.1-.3-8.7-.1-12.7-1-1.1-.3-2.1-1-3.2-.8-.5.1-.9.8-1.4,0-.3-.3,0-.5.2-.7,1.5-1.9,4.8-2.9,7.1-3.1,5.6-.4,17.3,3.1,23.4,4.2,11.9,2.2,24.7,5.4,36.4,1.9h0Z"/>
    <path class="st15" d="M163.2,205.7v.9c-.2,1.1-.9,2-.9,3.1.7.1.3-.2.5-.5.2-.4.7-2,.9-2.1.3-.3,1.2-.4,1.4-1.2,1.1,1.7,1,.8,2.6.5.3.8.2,1.5.2,2.4s-.2.9.3.8c.3-.9.8-1.8,1.1-2.7.1-.4.1-.9.3-1.3s.7-.7.9-1c.3-.6-.5-1.3.3-1.1,0,.7.3,1.3.3,1.9,0,1.9-.4,4.3-.3,6.4.1,1.9,2.1,2,2.4,3.6,1-1.2,1.1-2.7,1.8-4.1.5-.9,1.1.1,1.3.7.7,1.9.4,4.9.9,6.8,0,.2,1.3,1.9,1.4,2,.8.4.1-1.3.1-1.4,0-1.7,1.9-1.1,2.1-1.5.1-.2.3-1.8.5-2.4.2-.4.1-.7.7-.3-.5,1.5.7,1.1.9,2.1l.5,8.5c-.5.3-.9-.2-1-1.5-.1,5.4-.7,10.9-1.8,16.3-.8,2.9-2.7,4.4-2.6.3,0-2.5.3-5.2.7-7.7v-1.1c.1-3,.2-6,0-9.1-.5,0-.7-.5-.9-1.3-1.1-.5-1.7-1.5-2.2-2.5-1.2,6.5-2.5,13.1-4.8,19.4-.3.7-2,5-3.1,4.2-.5-.3.4-5.2.8-6,.5-3,1.3-6,1.5-9,0-.4.2-1-.2-1.2l-.3-.5c.9-2.5,1.3-5,1.1-7.5l-.9-1.1c.7,1.3-2.5,6.8-3.2,7.1-1.2-.1-1.6.1-1.3.7-.9,1.4-1.9,2.8-2.6,4.4-.5,1.3-2.1,1.3-1.9-.3.6-1.6,1.9-3.5,1.6-5.2v-.3c1.3-2.4,2-4.8,2.5-7.5.3-1.4,0-4-.9-1.3-.7.5-1.5.9-2.5,1.1l-2.1,2.6c-.5.4-.8.5-1.1.1,1-2.1,1.8-4.4,2.6-6.6.1-.4.5-.7.7-1.1.6-1.7.8-3.8,1.7-5.4h0v-.2Z"/>
    <path class="st60" d="M207.5,141c.5-.6,2.7,1.1,3.1,1.5v.5c.5.1.8.4.3.9-.3.5-.7.4-1.3-.3l-1.1-1.1c-.1,1.1-1.1,1.4-2.7,1,1.5.6,3.1,1.1,4.6,1.5.8,1.7,1.8,3.5,3.2,4.8l-.3.5c-.1.5-.5.4-.9.2-2.8-2.7-3.6-2.8-2.4-.1,1.1.5,2.3,2,.7,2.4h-.7c-1.2-2-2.4-3.9-3.8-5.8-1.1-.6-1.8-1.5-1.7-2.8h-.5c-.3.9-1,1.1-1.9.9-.5.4-3.3,4-2.5,4.8l2.4,2.2c3.4,4.5-1.1,2.9-3.1.6-.4.8-.8,1.3-1.7,1.4v.3c.5,3.9,1.6,7.3,3.9,10.7l1.9,4.2c.3.5.3.9-.3,1.2,0,.7-.7.4-.9,0-.3-.9-.9-1.6-1.6-1.9-.9,0-1.4-.1-1.3-1.1-1.5-.4-1.8-1.5-.8-3.3l-.3-.8h-.5c0-.1-1.8-4.5-1.8-4.5-.2-.1-2.1.7-2.5.9.3,1,.4,2.1.3,3.1.3,1.3,2.1,5.9,2.9,7.2.6,1.1.5-1.3,0-1.6-.1-.6-.3-1.6.6-1.5.4.1.9.4,1.3.9,2.1.1,1.3,1.3,0,2.2-.1.5-.4.7-.7.8,0,.2,0,.4,0,.5-1.1.6-1.1,3.1-.5,4.3l-.3.4h-.5c0,0-2.2-2.6-2.2-2.6.5,1.3.5,2.1-.2,2.1-.3,0-.7.7-1.1.5,0-.5.5-.7.5-1.3s-.8-.5-.9-.9c0-.3.1-.6.1-.8,0-.6-.4-1.5-.4-2.1,0-1.1,1.6-2,1.3-3.8,0-.1-1-2.1-1.1-2.3-.1-.2-.5-.3-.7-.4-.3-.4-.5-.8-.7-1.3-.5,1.1-.9,2.2-1.2,3.4,0,1.6-.7,1.6-2.2,0,0,2.1-1.3,3.6-2.5,1.2-.3,0-1.9.3-1.7.7.5.2.7.8.1,1.1.5,1.1-.9,5.3-2,3.5.6-.7,0-4.2-1.1-2.7,2.7,2.6-5.5,4.4-2.3.5-.4-.3-.7-.5-1-.9.2-.3-.2-1.7-.4-1.7-.6,0-3.1,4.5-1.8,5.4.6.4.5,1-.2,1.1l-.8,1.5c-1.5.8-1.6,2.3-.8,3.6,0,.5-2.3,5-2.8,5.6l-.5.2c1.5-9.9,7-22.5,12.1-31.1,1.3-2.2,2.5-4.4,3.8-6.6,2-2.3,2.2.7,2.1,2.3-.9.2-1.5.6-1.9,1.3v3.1c-.8,1.1-1.1,2.5-.5,4.1l-.2.6c-1.5.8-3.1,1.6-4.7,2.4,0,1.2,0,2-.7,2.9,1.7.5.8,2.1,0,3.1l.5.2c.4-1.2,1.1-1.7,2.1-1.6.7-.8,1.6-1.3,2.6-1.5.1-1.5,1.1-3.4,2.3-1.4.6-1,.9-2.2,1.1-3.6l.7-.2c.5.7,1.1.5,1.6-.5-.6-1.6.3-3.1,1.9-1.6,0-.7.3-1.3.7-1.9-1.2-2.5.6-3.8,2.3-1.4v-.6c-.3-1.7-.6-3.4,1.7-3.3,0-1.3.3-2.3,1-3.1-1.3-3.6,2.2-6.2,5.5-4.4,1.1-.7,2.1-1,3.3-.8-.3-1.3,0-1.3,1.2-1.1h0Z"/>
    <path class="st95" d="M197.7,163.3c1.4.7-.4,1.9.1,2.9.3.5,1.2.6,1.4.9.1.3,0,.8.1.9,0,0,.7,0,.9,0,1.3.4,1.3,1.5,1.9,2.3.1.2.5.1.5.1.6,0,1,.4,1.3,1.1l3,6.3c-.7-1.2-2.7-6.2-1.8-7.2s1.6.9,1.7,1.5c.6.6,1.3,1.1,2.2,1.5,1.7.9,1,1.9-.7,2l2.9,2.1c.7.7,2.1,2.3.5,2.5.5.5,1,1,1.7,1.5.6,2.1,1.6,4,3.3,5.5,1.3.5,1.9,2.7,2.1,4,.1-.1.4-.3.5-.1,2.3,1.7,3.7,2.9,4.6,5.8l1.5,1.9c.1.2,0,.4-.3.6h-1c-4.8-6-9.6-12.2-14.4-18.6-1.6-3.9-.5-.5.4,1.1,2.8,4.6,5.2,9.4,7.2,14.3,0,1.7-1.2.7-1.6-.3l.7,2.3c.3.9,1.2,5,.3,5.4-.5.2-2.9-2.2-2.1-2.7l-.5-.7c-.6,0-.7,0-.2-.5-.8-2.1-1.7-4.2-2.7-6.1-.9-.3-1.3-.9-1.1-1.8-.3-.2-.4-.6-.5-.9-.3.3-.5.1-.2-.2-.3-.9-.7-1.6-1.3-2.3-.5.1-.5,0-.2-.5-.2-.6-.5-1.1-.9-1.6-.6,0-.7,0-.2-.5-1.6-1.7-2.9-3.4-3.9-5.6,0,0-.9-.6-1.1-.6-.3,0,1.2,6.4,1.7,6.8,1.4,7,3.3,13.8,5.7,20.4,0,.9-.8,1.3-1.6.9v3.6c-.1,2.3-2.5,2.3-2.7.3h1.1c0-.6.2-1.1.2-1.7,0-1.3-.3-4.3-.5-5.8l-.6-.7c-.7-2.1-1.6-4.1-2.8-6l.2-.7c0-.1-.1-.3-.2-.5-3.1-6.5-6.4-13.3-8.4-20.2-.1-.4-.5-1.1-.9-.9.7-.9-1.1-2.3.3-2.7l2.6,3.1c.3.4.7.8.9,1.3,2.5,6.3,5,12.7,7.2,19l-1.7-7.5c-1.7-5.5-3.3-10.9-4.5-16.3-.9-.6-1.3-1.2-1-1.7,0,0,0-.6.3-.9.5-.7,1.2-.8,1.3-1.5-1.1.3-1.9-.4-2.3-1.3l-.4-.4.9-2.1c0-.6.2-1,.5-1.2h.2Z"/>
    <path class="st54" d="M193.4,66.3c2.1.9,4.4,2,6.4,3.3,2.9,1.9,5.4,2.7,8.4,4.4,3,.4,3.6,2.3,2.4,4.8-2.1,4.5-7.4,3.1-10.5.4-1.5.5-2.9.3-4-.5-2.7-2.7-6.2-3.1-9.8-3.5-1.2-.3-5.6-2.1-4-3.7-1-1.3-.1-2.5.8-3.6.4-1.3.1-2.7-.7-4.2,0-.5,0-.6.4-.9,1.5-1.1,9,2.1,10.7,3.1h0Z"/>
    <path class="st29" d="M233.1,134.4c.3,0,1.1.3.9.7.5.2.7.5.7.7,5.1,3.9,10.5,8,15.5,12.3,1.4.7,2.7,1.3,4.2,1.9.3.9.9,1.7,1.9,2.3v.5c0,0,.7.1.7.1,1.1,1.3,2.5,2.3,4,3.1l.3.6c-.1,0-1.7,1.2-1.8,1.3-.3.3-.2.5-.2.8l-.7.3c-5.6-2-11.1-4.9-16-8.4-.3-.1-2.5-1.2-2.5-1.1-.4.5,8.5,6.8,9.6,7l.4.8c.9,1.1-.7.9-1.5.5-.9.3-1.7.3-2.5.1l-4.2-3.1v-.6c-.1-.4.5-.5.7-.3,0,0-.4.5,0-.1v-.5c-.1,0-10.3-8.8-10.3-8.8-.3-.4-.6-.8-.8-1.3.1-.4.3-.4.7-.1.9-2.1,2.9-.5,4.1.7l2.9.7c3.1,1.5,6.2,2.9,9.4,4.2-3.2-1.6-6.3-3.5-9.4-5.4-.9-1.7-2.3-2.7-4.1-2.7-.1-.5-2.5-2-2.7-1.9,0,0-.8,1.5-.6,1.9-1.3,3.1-4.3-1.2-3.1-3.1l-.3-.5c-1.1-.9-2-2.9,0-2.7l.3-.3c1.5.6,2.8.7,4.1.5l.5.3h0v-.2Z"/>
    <path class="st57" d="M303.5,110.4c2.4.3,5.1,1,7.7,1.3.8.2,1.4,0,1.9-.3,1.1,0,3.6,0,4.3.9,1.9.5,2.7,1.1,4.3,2.1-1.9-.8-3.5-1.7-5.6-2-3.1-.5-6.2-.5-9.4-1-1.2-.2-3.5-1.2-4.6-.6-.6.3-.3,2.5-.7,3.4s-2.5,1.9-2.8,2.7c-.3.9.7,1.7-.4,3.2-.2.3-3.8,3.1-4.2,3.3s-.9.2-1.3.3c-2.7,1-5.5,1.1-8.4.3l.5.9c1.7,1,2.8,2.3,3.4,3.7.9,1.1-.3,2.2-1.5,2.1-1.9-.3-3.6,0-5.1.9-1.5,0-2.6.6-3.2,1.9-.5.4-6.2,1.4-6.8,1.3l-.6-.4.4-.6c2.7-.7,4.8-1.4,7-3.2.3-.2.6-.3.9-.4-.3-1.2-1.3-1.9-3.2-1.9,0-.2-.1-.3-.3-.3l-5.2-1.5c-.7-.3-1.7-.9-.8-1.5l7.4.3,1.8-.6c-.9-1.1-2.1-2.1-3.3-3-.7-.6-1.3-1.7-.1-2.1,0-.5.8-.7,1.1-.2.2,0,.2.1,0,.2-.6.7.3,1.4.9,1.7,2.3,1.3-.1-.6-.9-1.2v-.5c5.2-.3,10.3-.5,15.3-.3,2.2.1,8.1-1.6,4.8-4.3-1.4-.4-1.3-1.5,0-1.7,1.1,0,2.2-.5,3.1-1.1.8-.5,1.3-1,1.8-1.8.6-.3,1.3-.3,2,0h0Z"/>
    <path class="st24" d="M213.1,150.3c.8,0,1.6.5,2.2,1.5,1.1,1.9,2.7,3.6,4.5,4.7,2.1,2.3,4.3,4.6,6.7,6.5l.3-.3c.1-.5.5-.4.8-.1,1.4,1.3,2.7,2.6,4,4,.2,0,.3,0,.2.2,1.9,1.4,3.8,3,5.7,4.6.2.5,0,.7-.5.9-.6.2-7-5.2-8-6.3.6.6.7,1.1.4,1.5-.3.1-.5.2-.7,0-2-2.7-4.2-5.4-7.2-7,3.8,4.5,7.5,9,11.3,13.6-.2-.5,0-.9.3-1.1h.5c0-.1,1.5,1.5,1.5,1.5,1-.7,5.2,1.7,5.1,2.5,0,.3-.1.4-.5.5-.7,0-2.4,0-3.1,0-.5,0-.7-.4-.8-.5-7-2.7-12.4-7.9-17.7-13.4,0-.2-1.7-1.5-1.7-1.3.2,2.1,1.1,3.5,2.8,4.8,2.5,4.6,6.7,8.6,10.7,12.1,2.7,2.2,0,4.1-1.3,1.2l-1-.6c.5.7.6,1.2.3,1.6,0,.2-.1.2-.2,0h-.6c-1.4-1.9-2.7-3.8-4.2-5.6v-.5l-.9-1c0-.8-1.6-2.9-2.2-3.1-1.2.3-2.5-.7-1.1-1.4-1.9-2.5-3.6-4.8-4.2-8.1-.7-1.5-1.7-2.8-3-4-1.7-1.9-2-3.2-.7-4.1-.2-.2-.1-.4,0-.7.9-1.7-.7-1.4-1.1-2.2-.2-.3-.8-2.1-.6-2.3.9-1.2,2.7,1.3,3.5,1.8.3.2.7.2.7.3h0Z"/>
    <path class="st18" d="M247.2,62.5l.2.5c-2.1.9-3.6,2.3-4.5,4.3l-1.1,1.3c-5.2,2.5-9.9,6-14.3,9.6-2.5,1.3-5.4,2.5-8.2,2.8-1,.1-5.2.5-6,.4-.5-.1-.6-.1-.9-.6-1,.4-1.6.3-1.9-.2-.3,0-.3-.1,0-.5v-.6c.6-1.1,1.3-2.9.5-4.2l.2-.5c1.5-.3,3.1.1,4.6,0,3.5-.3,7.2-.9,10.3-2.6.9-.5,1.7-1.3,2.4-1.7,1.2-.7,3.8-1.6,4.7-2.3.4-.3.5-1.1,1.1-1.4,4.2-1.9,8.6-3.1,12.9-4.5h0Z"/>
    <path class="st99" d="M215.2,170.5c-.7-.9.4-1.4,1.3-1.3,1.3.1,1.7,1.2,1.9,2.2,1.1,0,1.9.5,2.5,1.3l1.8,2.5c.9.5.5.6,1.1,1.3,1.1,1.5,2.8,3.3,3.7,4.8.4.9.9,1.7,1.5,2.4-.7,1.2-.7,2.2,0,3.1,2.6,2.6,3.8,5.7-1.3,4-3-2-3.3-1.7-.7,1.1.7,1.2,2.8,5.6,0,5.4.7.9.9,1.8-.3,2.1h-1.3c-.3-.9-1.1-1.5-1.5-2.2-.5-.9-1.2-2.7-1.7-3.5-.3-.4-2.3-1.8-3.1-2.5-.1-1.1-.5-2.1-1.1-3.1.1-.6,0-.8-.5-.6-2.9-1.6-1.3-4.6.2-1.7,1.2.1,2.2.7,3,1.7-.5-.5-.9-1.2-1.2-1.9-1.2-.3-2.2-2.2-.6-1.7l.3-.4,3.2.6c.2-1.2-.2-2.3-.9-3.3-2.1-2.2-3.6-4.5-4.8-7.3v-.7c0-.6-.4-1.1-.8-1.6-.7.2-.9,0-.7-.7h0Z"/>
    <path class="st44" d="M187.4,150.6c-2.1.5-1.6,2.8-1.1,4.3,0,.6-.3,1.2-.9,1.8,1.3-.9,2.1-.6,2.2,1,.2.3,2.7-3.1,2.8-4,.6-.3.4-.7-.6-1.3,0-1.3-.1-2.5-.3-3.8-2.2-.8,1.1-1.7,2.1-1.9,1.3,1.2,2.4,1.2,3.3.1,1.3.6,1.7.5,1.5-.2-1.5-.7-1.5-1.6-.2-2.6.7-1.3,1.6-2.5,2.5-3.6,1.6.4,3.1.8,4.7,1.2-.7-.7-1.3-2.9-.7-3.7.8-1,5.3.4,4,1.9-1.6.3-.5.5.5.7l.2.5c-1.7-.3-.6.7-.7,1.3s-1.3,0-1.9.1c-.7,0-1.3.9-1.9.9-.7,0-1.5-.7-2.2-.6-.2,0-2,.5-2.1.6,0,0-1.1,2.1-1.2,2.2-.2.9.4,1.3.4,1.7s-.7.7-.8,1.2c-.2.6,0,1.7-.3,2.1-.3.3-1.5-.1-1.7.8-.2.9.5,2.5,0,3.2-.5.9-1.1-1-1.6-1.1-1.8-.5-.5,1.7-.5,2.1s-.5.9-.6,1.4c-.1.5.2,1.7-.7,1.1-.1,0-.4-1.3-1.2-.7-.6.4,0,1.3,0,1.8,0,.3-1.3,1.6-1.7,1.5-.3,0-.2-.9-.8-.7-.2.9,0,2.5-.7,3.3-1,1.3-1.2-.1-1.4-.3-1-.6-.9,1.7-1.2,2-.2.3-.9.3-1.3.5-.5.3-1.1,1.1-1.5,1.2s-.9-.1-1.2,0c-.3.3-.4,1.9-1.5,1.5-1.3-.6.2-1.3.4-2.3.2-1.3-.8-.7-.9-1.1-.1-.7.5-1.1.7-1.6s0-1.2,0-1.7c.3-.9,4.5-1.9,4.8-2.7.3-.5-.6-2.3,0-3.6.2-.4.7-.3.7-1.1,0-1.1-.7-2.5.3-3.3.5-.4,1.5-.4,1.6-1.1,0-.3-.3-1.9-.5-2.1-1.1-.9-2.1,2.5-2.5,3.1-.7,1.1-1.9,2.5-2.7,3.8-.1-.5.3-.9.5-1.3l1.4-3.4h.4c.5-1.3,1.4-3.1,2.8-3.1,1.7-.1,2.3,1.2,1.5,2.7.2.3.3.7.1,1,0,.2,0,.3-.2.2h-.3Z"/>
    <path class="st68" d="M191.1,127.2c1.8-2.9,4.5-3.4,6.1,0,.5,1.1,1.1,3.1,1.4,4.2-.7,1.7-1,3.6-.9,5.5-.2.5-.6,1.1-1.2,1.4,0,3.9-6.5,8.2-7.8,2.7-.6-1.1-2.1,2.1-2.2,2.6-.8,1.5-2.9,1.7-2.1-.5l2.3-7.6c.7-2.7,2.6-6.2,4.6-8.4h0Z"/>
    <path class="st98" d="M205.2,211.9c.5.3,1.2,1.5,1.7.9.8-.7.4-5.4.6-5.7l1,.7.5-.3c-.3-1.7-1.3-3.2-1.7-4.8-1.6-5.2-2.6-10.5-4-15.7-.2-.7-.6-1.3-.8-1.9-.2-.8-1.1-4.4-1-5,0-.2.2-.5.3-.6,0,0,1.5.7,1.6.9.4.5,1,2,1.5,2.7.8,1.2,1.3,1.7,2.1,3.1l-.2.2c-2.3-1.9-3-2.1-2.1-.9,0,.7.3,1.3.9,1.9.1,2.2.6,3.3,2.1,5-.2,1.1.1,2.1.8,3l-.2.9c1.9,1.4,2,1.9.7,3.8.9,0,1.3.6,1.8,1.3,1.8.7,3.1,1.8,3.9,3.3.5-.4,1,.1,1.5,1.7.2-.3.3-.5.7-.3-.3,2-.8,1.5-1.6,2.8-1.7,2.7-1.5,3.6-4.2,5.8-.3.3-.4.7-.9,1.1-.3.1-1.3.5-1.5.5-.9,0-1.5-2.3-2.4.2-.8-.5-1.3-1.3-1.6-2.1-.1-.4,0-.8-.1-1.2-.3-.7-1.5-1.1-1.1-1.9.7-.3,1.3.4,1.7.5h0Z"/>
    <path class="st31" d="M265.4,55c.1,0,0,.2-.2.5,0,.6-1.2,1.3-1.8,1.1-2.3,1.5-4.8,2.9-7.3,4.2-.6,2.1-3.4,6.8-6,5.2-1.7,1.4-2.3,2.5-3.1,4.5-1.5,1.1-2.7,2.4-3.6,3.9-1.3.6-2.5,1.3-3.5,2.1-.2.7-.3,1.2-.9,1.7-.9.8-3,1.9-4.2,2.5-3.8,1.9-6.5,2.7-10.6,3.5-2.5.5-6,.8-8.5.9-.6,0-.9-.3-1-.7-2.1-.3-3.7-.5-5.8-.5h-1.8c-.3,0-.4,0-.6-.3-.3-.5,0-.7.5-.5l2.6-1.1c2.7.5,5.4.5,8,0,1.7.5,3,.3,4.6-.5,3.2-.5,6.3-1.2,8.7-3.6.7-.5,1.3-.7,2.1-.5.7-1.6,2.2-2.7,4.4-3.2,1.4-1.2,2.8-2.2,4.3-3.2.3-1.1.6-1.7,1.7-2-.3-1.4.3-2.3,1.7-2.7.1-1.2,1-2.1,2.5-2.6l1.1-.8v-.3c.5-.3,1.1-.8,1.6-1.3,1.7-.8,3.5-1.9,5.3-2.5,3.7-1.3,6.1-1.5,9.7-3.8h0Z"/>
    <path class="st43" d="M317.1,45.4c-.3.8-1.5,2-2.3,2.3-1.8,1.5-4.8,3.7-7.2,2.1-1,.3-1.5-.2-1.7-1.2-1.5.3-3.1-.3-4.6-1.6l-2-.5c-.5-.2-.7-.4-.5-.9l-2.1-1.6c-2.5-.6-4.2-2.1-5-4.6-1.6-.5-3-1.3-4.4-2.3v-.6c1.3.2,2.7.3,4.1.7,2.7.7,5.8,2.3,8.5,3.1,2,.6,4.4.9,6.4,1.5,3.6,1.1,7.1,2.5,10.7,3.5h0Z"/>
    <path class="st0" d="M168.6,236.6c-.2,1.3-.7,3.3-.7,4.4s0,1.3.3,1.3,1.3-1.9,1.4-2.2c2.9-6.1,3.9-13.4,5.4-20,.1-.5.1-2.9.8-1.8s.5,1.3,1.1,1.9c1.4,1.5,1.2.1,1.8,2.6,0,1.1.1,2.2-.1,3.3l-.6.5c-1.2,5.8-2.1,12.7-5.8,17.5-.5.6-3.4,3.5-4,3.8-.9.4-1.4,0-1.6-.9-.3-.9.2-1.3.3-2.1.3-2.6.8-4.7,1.1-7.2,0-.4-.1-.9.5-1h0Z"/>
    <path class="st2" d="M215,201.2c.1.4.1.7.3,1.1.2.3,1.2,1.7,1.6,1.1.3-.5-.4-3.9-.5-4.7-.1-.6-1.2-3.6-1.1-3.8,0,0,.3-.5.5-.3l1.5,2.4c.2,0,.1-.2.1-.3-.4-1.6-2.4-5.5-3.3-7.2-1.4-2.8-3.3-5.5-4.6-8.4-.2-.5-1.2-2.5-.5-2.7s1,1.6,1.3,2.1c.3.4.7.7,1,1.1,2.8,4.2,6,8.1,9,12.1,1.2,1.6,2,2.3,3.3,3.8.3.4,1.1,1.9,1.5,2.1-.9.9-1.7,3.7-2.6,4.4-1.1.7-1,.6-1.9,1.5-1.1.9-2.7.3-3.4.8l-.4-.4c1.1-.9-4-4.6-3.7-4.1,1,.7,2.6,1.9,1.8,3.1-.9-1.7-2.7-1.8-4.2-2.9-.3-.3-.4-.7-.7-.9-.6-.4-1.7,0-1.1-1.3.3-.6,1-.7.7-1.7,0-.1-1.4-.9-1.5-1.5,0-.3.3-.7.1-1.1s-.7-.7-.9-1.2c0-.5.2-.9,0-1.4-.2-.9-1.5-1.5-1.9-2.7-.2-.7,0-1.9-.4-2.5s-.7-.5-.8-.7c-.1-.3,0-.8,0-1.1s-.8-1.4,0-1.5c.7-.1,2.1,1.7,2.8,2.1,0,.1.1.3.2.5.5.4.7,1,.9,1.6,0,.1.1.3.2.5.6.7,1.1,1.4,1.3,2.3,0,0,.2.1.2.2,0,.3.2.7.5.9.4.6.7,1.2,1.1,1.8,1,1.9,1.9,4,2.7,6.1,0,.1.1.3.2.5l.5.7h0Z"/>
    <path class="st32" d="M183.6,225.7c.3,1,.4,2.6,1.2,3.4.7.6.8-.7,1.8-.5,1.5.5,1,3.6,1.1,4.8-.7,0-.5.3-.7.8-1.1,3.4-2,8.1-4.4,11-.4.5-1.5.9-1.9,1.3-.5.4-1.5,2.8-2.4.8s-.1-9.4,0-12.1c0-.6.2-1.6.5-2.1-.1,2.4-.5,5.3-.5,7.6s.2,2.8.8,2.1c.7-.9,1.3-2.4,1.5-3.6.5-2.6.9-6,1.1-8.6.1-1,.1-6.7.5-6.9.9-.6.9,1.3,1,1.6,0,.2.3.4.3.4h0Z"/>
    <path class="st117" d="M230.6,151.9c-.5-1.3.5-2.4,1.4-.9.3-2,2.5-2,3.5-.4,2,1,4,2.1,5.9,3.2l.2.5c1.4.8,2.1,1.7,3.5,2.5.3.2.7.7,1,.8.9.3,1.7-.2,2.4-.1.5,0,1.6.9,1.5,0l.6-.2c2.6,1.2,4.6,2.7,6.6,4.7v.5c-.6.6-.9,1.2-1.9,1.7-.7.3-2.2.4-2.7,1.1-6-2.1-11.6-5.8-16.4-9.8-1.7-1.1-3.4-2-5.1-2.9l-.3-.4h-.1Z"/>
    <path class="st5" d="M227.6,181.5c-.4-.7-.6-1.5-1.3-2.1l.2-.7c.5.5,1.5.9,2,1.3.2.1,0,.5.3.7.7.7,2,1.2,1.2-.4s-3.6-3.3-4.4-4.1c-1.9-1.9-3.4-4-5.4-6-.9-1-1.2-2.1-1.8-2.9-.3-.5-1.7-1.3-1.9-1.7-.2-.3-.7-2.3-.9-2.7,0-.2-.4-1.2,0-1.2s1.1.6,1.3.8c4.5,4.1,8.6,9.1,14,12.1,1.3.7,3.7,1.1,4.4,2.5-1.3-.3-1,.3-1.3.8-1.1,1.3-.6,1.8-1.5,3.2-.8,1.3-1.7,1.6-2.5,2.5-1.3,1.3-2.2-1.1-2.5-2.3h.1Z"/>
    <path class="st87" d="M198.4,121.3h.2c.7,3,1.9,5,4.3,7v.3c.5.1.7.7.8,1.3-.7,1.3-.2,1.8,1.5,1.3,2.9.9,5.8,1.5,8.7,2.1,0,1.3.5,1.4,1.7.2h11.5l-.2.5c-.6,0-1.1.3-1.6.7l-3.9-.5c-.7.5-1.4.7-2.3.7-.3.9-1.1,1.1-2.3.7-1.1.3-3.6,1-4.5.4-1.1-1.8-1.9-2.3-3.9-1.4-.7-.3-3.8-1.3-4.2-.5-.1.3,1.4,1.6,1.7,1.8,1.1,1.3,1.1,2.7-.9,1.9-.3-.1-2.8-1.4-2.9-1.5-.1-.1-.3-.3-.3-.5l-.5.2c-.2-1.1-1.9,1.1-2,1.4.1,1-.3,1.9-1.4,2.7.4.1.5.3,0,.5l-.7,1.1c.3.5,0,.7-.5.5-.4,1.1-.9,1.7-2,2.3-.3,2.4-1.3,2.9-2.9,1.7h-.7c-1.3-1.3-2.1-.9-3.2.2-2.4-.7-4,1.5-4.8,3.6-.9.5-.7-.6-.5-1.3v-.2l.2-1.1v-.5c.2,0,.5,0,.5.1l1.7-1.3c2.5-1.9,4.8-2.8,7.6-.9l.7-1.3c2.7-1.4,3.6-4.4,4.3-7.2l1.4-2.1c-.7-1-1.1-1.8-.6-3.1-.2-2.1-1.6-7.4-4.6-6.7l-.4-.3c1.5-1.1,3.2-1.9,4.8-2.9h0Z"/>
    <path class="st40" d="M225.6,161.7c-.7-.7-5.3-5-5.2-5.8.2-1.7,4.6-.5,5,.9,1.3,0,1.8,0,2.6,1.1,1.9.3,3.1,1.1,3.5,2.5,1.7.5,3,1.4,3.9,2.7l3.6,2.7c.2.2.3.5.3.7h.7c1,.8,2,1.5,3.1,2.1-1.8-3-4.1-5.8-6.8-8.3-1.1-2.6,3.1.2,3.8.9.8.6,1.6.9,2.4,1.1h.7l3.1,1.9c1.5,1.3,3.1,2.5,4.6,3.6-.3.4-.5.9-.9,1.3-1.5,1.4-5.3,1.1-5.4,1.3,0,0,0,2-.7,2.3-.7.2-.8-.5-.5-1.1,1.1-.9.3-1.5-2.1-2-5.1-2.5-9.8-5.9-14.3-9.3-2.3-1.1-.3.7.9.8.5,1,1.2,1.7,2.1,2.1.7.7,1.9,2.4,1.7,3.3-1.6-1-2.8-2.4-4.2-3.6-.2-.2-.5-.1-.6-.2-.5.3-1.5-.5-1.1-1.1h0Z"/>
    <path class="st67" d="M319.4,88.8c.9.5,3.3,2.1,4.3,2.9,1.3,1,2.7,2.7,3.9,3.6,1,.7,2.6.8,3.1,1.9-1.3,0-2.5,0-3.8.4l-.9-.2c-2.9,1.1-6,.1-8.2-2.1-1.7-.3-2.8-.9-4.4-1.9-2.1-1.4-3.8-2.9-5.1-4.9-.2-1.8,4.4-2.1,5.8-1.9s4.8,1.5,5.1,1.9c0,0,0,.2,0,.3h0Z"/>
    <path class="st84" d="M170,226.4c-1.2,3.9-3.8,10.1-6.8,12.8-.3.3-.5.6-.9.5l-.2-.5c1.9-1.6,2.3-2.7,1.3-3.2-2.6-1-3.9-1.1-5.4,1.5h-.5c-.1-.5.1-.8.3-1.2,1.1-2.4,2.1-4.5,3.1-7,.4.1.5,1,1.1.7.4-.3,1.5-2.9,1.9-3.4.3-.4,1-.9,1.1-1.2.1-.5-.2-.9-.2-1.1.1-.6.9-.1,1.3-.1,1.1,0,.9-1,1.3-1.6,1.2-1.5,1.6-2.3,2.1-4.3,0-.4-.3-1.6.4-1.6s1.3,1.4,1.3,1.6c.6,1.5-.7,6.5-1.2,8.2h.1Z"/>
    <path class="st108" d="M322.6,47l.2.5c-2,1.9-4.4,3.2-7.1,4.1l-.2.5c0-.2.1-.5.3-.5.6,0,5.1-.1,5.3,0,.2,0,.3.3.3.5v-.3c2-.7,4-1.4,5.9-2.3h1c1.1-.3,1.7-.5,2.9-.1,2,1.4.3,2.3-1.3,2.7-1.8.6-3.8.8-5.8.8l3.8,1.1v.5c.3,0,.3.1.1.2.7.3,1.1.7,1.1,1.1-1,0-1.7-.9-2.7-.7-.2.1,3.6,2.4,3.9,2.6,2.7,1.5,5.6,2.9,8.3,4.4.7.4,4,2.7,4.2,3.3.3,1-1,1.3-1.1,1.8-.1.9,2.3,1.4-.3,2.5-.3.1-.8,0-.9.1-.3.3.2,1.6-.3,2-.4.3-2.7,1-2.7,1.1-.3.3.8,1.7-.8,2.5-.9,0-1.8.2-2.6.5.2,1.1-.3,2.4-1.5,2.4-.1-.5-.2-1.1-.1-1.9-.3-.9-.9-2.5.6-2.3.7.7,3.3,1.3,2.8-.3-1.4-1.8-2-4.4,1-2.3.8.1,1.1-.2,1.5-.9-.6-.8-1.5-2.3,0-2.5,1.9.8,2.1.3.6-1.4-1.1-1.7.3-1.9,1.7-1.3l-1-.7c-.3-1-1.1-1.9-2.2-2.5h-.8c-4-2.3-8.1-4.4-12.3-6.4-.3-.5-.5-1.1-.5-1.8l-1.1-.4c-.9-1-1.7-1.2-2.6-.7-.9-.1-2.5-.4-3.1.2-.5,0-3.6-1.7-3.6-1.9,1.1-.9,2.5-1.7,4-2.4,1.4-.9,1.7-2.5,1.8-4.1-.7,1-1.3,1.2-1.7.7-.2-.2-.1-.3.2-.5.4-.7,4.8-5.8,5.2-5.9.5-.1,1.2,0,1.4.6.7,2.4-.2,5.2-1.7,7.1h-.1Z"/>
    <path class="st12" d="M193.4,66.3c-.8-.3-1.9-.7-2.9-1.1-2.5-1-5-2.5-7.8-1.7.3,1.3,1.1,2.1.9,3.5-.1,1.1-1.3,2.6-1.3,3.2,0,.7.5,1,.5,1.3s-.5.6-.5.9c0,.7,3.4,2.2,4.2,2.4,2.3.4,4.7.4,7,1.5,1.1.5,3.1,2.4,4.1,2.7.9.2,2-.5,2.7-.3.3,0,.5.5.9.7.9.5,2.9,1.7,4,1.7.3,0,3.1-.3,3.3-.3,0,0,1.3-1.3,1.3-1.4.4-.6.9-2.2.9-2.9.1-1.9-1.1-1.8-2.5-2.5.8,0,2.3.4,2.9.9,1.3,1.1.3,4.2-.7,5.2-1.4,1.7-4.5,4-6.7,2.7-1.9.3-3.6,0-5-1.1-2.1.1-3-.2-4.3-2-1-1.2-2.1-2-3.4-2.5l-.9-.2c0,.2-.1.2-.2,0-.2,0-.2-.1,0-.2l-1.6-.2c-.3.1-.8,0-.9-.2l-.9-.2c-.1.3-.3.2-.5,0l-.7-.2c-.3.2-1.2-.1-1.3-.5-2.5-.5-4.6-1.7-6.3-3.3-2.7-.8-3.1-2.8,0-3.1,3.8.8,7.8-2.8,2.4-4.3-.5.2-3.8.5-3.2-.4,0-.1.1-.2.3-.3.3-.1.7-.6,1.1-.8,3.7-1.4,9-.3,12.5,1.5l2.4,1.5h.1Z"/>
    <path class="st49" d="M294.2,86l.6.3c1.1,3.3,1.8,5.4,5.6,4.9l2.2,2.1c.3.7,4,.5,4.1.4.5-.3.9-1.6.5-2.1-.4-.7-1.9-1.6-2.6-2l-1.9-1.1c-1.3-.4-2.2-1-2.8-1.8v-.2c2.1.6,4.2.8,6.2.5,2.5-.7,5.1-.9,7.6-.8.3-.5,1.8-.6,1.8.2.3-.3.5-.1.2.2.6-.2,1.3,0,2.1.5,1.4.1,2,.5,1.8,1.3,0,0-.1.2-.2.2-1.3-.7-4.5-1.9-5.8-1.9-.8,0-4.2.4-4.6,1.1-.5.8.7,1.2.9,1.5.4.5.3.9,1.1,1.4,1.7,1,3.1,2.6,5,3.4.7.3,1.4.3,2,.5s.9,1,1.6,1.3c.3.2,2.9,1.2,3.3,1.3.9.2,2.3-.5,3.3-.5.4,0,.8.2,1.1.2,1.1,0,2.3-.4,3.5,0,0,0,.2.1.2.2-1.3.1-2.7.5-3.8,1.1-1.7,0-3.4,0-5.2.3-3.2-1.5-6.4-3.1-9.6-4.8l-.3-.3c-1.1-.5-2.1-1.2-3.1-2-.1.9-.8,2.2-1.7,2.7-1,.9-3.1,1-4.5.7,0,0-.1-.2-.2-.4l-6.1-1.1c-1.6-.3-2-1.3-1.2-3l-.7-1.9c-.5.3-.7.1-.5-.5-.7-.6-.5-1.9,0-2.3h0v.3Z"/>
    <path class="st62" d="M252.4,165.1c-.5.6-.9,2-1.6,2.9-.4.1-.6.3-1,0-.6-.4-1.9-1.9-2.7-2.5-1.4-1-3.2-2-4.6-2.9-.5.3-1.8-.6-1.6-1.1l-1.1-.7c-.5.2-.7,0-.5-.5l-1.3-.9c-.1,0-.3,0-.5,0-1,0-5.8-4.1-6.7-5.1l-.3-.9c-.8-.7-1-1.7.2-1.6,1.4-.1,2.1,1.1,2.9,1.5,3.1,1.5,3.3,1.9,5.8,4,2.6,2.1,7.8,5.1,10.8,6.4.9.4,1.9,0,2.3,1.3h0Z"/>
    <path class="st1" d="M253.6,141.5l1.1.3c3.1,2.2,6.4,3.8,9.8,5,1.4,1.3,2.6,2.1,4.6,2.8v.5c-.9.9-3.9,1.5-4.2,2.5-.8.2-1.7,0-2.7-.5-.8-.3-2.4-1-2.5-1.7-.6-.4-1.3-.7-2.1-.9,0,.2-.1.2-.2,0-1.4-.9-2.9-1.5-4.6-1.9l-.8-.9c-1.2-.5-3.8-1.7-1.6-2.9,2.1.5,4.2.9,6.4,1.3-.5-.2-1-.5-1.4-1.1-.3.4-.5.3-.5-.2-.5-.1-2.4-.9-2.5-1.4-.1-.5.7-1.3,1.2-.9h0Z"/>
    <path class="st33" d="M250.3,61.3c0,.6-1.1,1.1-1.6,1.6-1.8,1.1-3.5,2.3-5,3.9-.1,1.5-1.1,2.7-2.8,3.5-1.7,2.3-3.2,4.2-6.1,5-.5.7-1.3,1.1-2.1,1-.6,1.2-1.7,2-3.3,2.3-1.5,1.5-3.6,2.2-5.6,2.6-3.5.7-7.4.9-11,.9-.8,0-2.6-.2-3.1-.7-.5-.2.3-.9.7-.9.6.2,1.4-.3,1.9-.3s.5.6.7.7c.7.2,1.7-.3,2.5-.3,4,0,4.8-.2,8.6-1.6,2.5-.9,2.1-.5,4.2-2.2,3.3-2.8,7.2-5.4,11-7.6.7-.5,1.9-.7,2.4-1.2.7-.7,1.8-2.7,2.7-3.6.8-.7,2.1-1.1,2.8-2h.5c.5-.4,1.1-.7,1.8-.7.3-.1.6-.3.9-.5h-.1Z"/>
    <path class="st58" d="M193.6,124.2c1.3-.5,2.5,0,3.3,1.1.7.9,2,4.6,2.1,5.7,0,.7-.3,1.2-.2,1.7,0,.5.8,1.3.8,1.7s-1.3,1.8-1.5,2.3c-.6,2.2-1.3,4.6-3,6.3-.4.4-1.1.6-1.3.9-.3.3-.4,1.1-.9,1.3-.3.1-2.3-1.1-3.3-1-2.1.1-4.8,2.3-6.4,3.6l-.3-.9c.7-3.8,2.5-7.7,3.6-11.3-.5,1.9-2.1,6.6-2.1,8.2,0,1.1,1.1.3,1.4,0,.3-.3.5-1.4.9-1.9,2.5-3.7,2.3.7,3.5,1.2,2.1.9,4.9-1.4,5.6-3.3.2-.5,0-1.1.3-1.5s.9-.5,1.1-1.2c.3-.7.1-3.1.4-4.2.1-.5.5-1,.6-1.4.1-1-.6-1.5-.9-2.4-.3-.8-.3-1.5-.8-2.3-1.5-2.3-3.8-1-5.3.6.3-1.1,1.5-2.2,2.5-2.9h.1Z"/>
    <path class="st74" d="M243.8,172.8c0,.9-.5,1.2-.9,1.8-1.1,1.4-1.5,1.4-2.3-.1-2.7-2.7-5.8-5.3-8.8-7.6l-.2-.2c-.7-.8-1.2-2.1-1.7-2.7-.3-.4-1.1-.7-1.6-1.1s-.5-1.1-.8-1.3c-.7-.4-1.3,0-2-1.2-.8-1.4.9-.8,1.7-.3.5.3.9.8,1.3,1.1,4.1,2.7,8.2,6,12.8,8.1.7.3,2.8.4,2.9,1.6,0,.7-.5.8-.7,1.2-.1.3.2.7.2.7h0Z"/>
    <path class="st90" d="M260.8,140.3c0-.9,2.8.5,2.9.6.6,1-.7,1.4-1.5,1.4,2.1,1.7,4.4,2.7,6.8,3.8,1,.7,1.5,1.3,1.1,2.5-.2.5-.5,1-.9,1.3l-3.4-1.5c-1-1.9-3.1-1.9-4.8-2.7-2.6-1.2-5.2-2.7-7.5-4.4-.8.5-2.8-1.3-2.4-2.2.6-1.3,5.8.3,6.9.7l2.7.3h0Z"/>
    <path class="st85" d="M276.9,35.9c1.1-.3,2.3,0,3.5.3,1.4-.5,2.4-.3,3.1.7.7-.4,1.3-.2,1.9.4,1.2-.1,2.3.3,3.4,1.4,1.3,0,2.5.3,2.1,1.9-3.6,1.5,1.4,2.3,2.9,2.1l2.1,1.2c1,.1,2.1,1.1,3,1.9,1,.9,1.3.5,2.4.9s2.5,2.1,4,1.8c.3,0,.7-.4.7-.4.3,0,.3,1.2.8,1.5.3.1.6-.1.9,0,.4.1.7.5,1.3.6,1.3.1,4.7-1.5,5.8-2.3-.5,1.2-2.3,2.2-3.6,2.7-4.2,1.8-8.8.5-12.5-1.8-2.6-2-5.4-3.9-8.4-4.8-2.2-1.1-2.5-2.1-3.1-4.4-3.4-.8-7.1-1.7-10.4-2.8-.2,0-.3-.3-.3-.5,0-.3.3-.1.5-.2h0Z"/>
    <path class="st91" d="M266,138.8c.8.3.2.9-.5.9l3,2.9c.3.3.1.5-.2.7h-.6c-3.5-2.8-.6,2.3,1.5,2-.5-.5-.6-.9-.3-1.3.9-.9,2.8,1.4,1.6,2.1,0,1.2,0,1.6-.5,2.7,0-2-2.7-2.7-4.2-3.6-.4-.2-.9-.2-1.2-.4-.9-.5-1.9-1.8-3.1-2.1-.6-1.3,1.3-.3,1.9-1.3,0-.1-2.4-1-2.7-1-1.7,0-3.3-.4-4.8-1.1l-3.1-.5c-1.2,0-3.8-1.3-1.7-1.8.9-.1,1.9-.1,2.9-.1.2-.5,1.1-.3,1.4.1-.3-.2-.7-.3-1.3-.4v-.5c-.6-.3-.5-.7.1-.7.7,0,1.5.1,2.3.3,2.5.7,5,1.4,7.5,2.1.7.2,1.2.6,1.8.9h0Z"/>
    <path class="st113" d="M175.9,64.3c.7.1,1.3.3,2,.7,1.7-.3,4.8-.7,4.8,1.8s-2.9,2.5-4.4,1.7c-1-1.7-2.2-1.3-2.3.6-1.9-.3-4.7.9-1.1,1.3,2,1.4,4,2.8,6,4.2.3.1.5.3.5.5.7.3,1.3.5,1.8.9v.3c-1.2,0-2.1.3-2.9.8-1.2-.1-2.3-.4-3.5-.9-4-1.8-7.7-4-11.8-5.4v-.7c.1,0,7.3.7,7.3.7.2-.4-.3-1.7-.2-1.8.1-.1,2.3-.3,2.9-.6,1.1-.5,1.1-1.8,3.1-1.9.5,0,.5.8.8,1.2,1.1,1.4,3.8.2,2.8-1.7-.6-1.2-2.8.2-3.3.1-.9-.1-2.1-1.6-3.1-1.5.3-.1.7-.1.9-.2h0l-.2-.2Z"/>
    <path class="st101" d="M249.9,157.3c-3.9-2.3-7.1-4.1-10.3-7.5-.2-.2-1.5-1.7-.7-1.6.5,0,.7.6,1.1.8.9.5,2.4.9,3.2,1.5,2.8,2.2,6,3.8,9.2,5.4,2.2,1.1,4.4,2.3,6.8,2.8,0,.9.3,1.1-.3,2.3-.5.8-1.2.9-1.7,1.4-1.3-.2-1.7-1.6-2.6-2.3-1.2-.9-3.3-1.9-4.6-2.7h-.1Z"/>
    <path class="st100" d="M292.6,123.8c-1.3,1.3-4,.9-5.8.9s-1.7-.5-1.7,0,2.4,2,2.7,2.5c.2.3.2.8.4,1.1.5.7,1.5.9,1.1,2.2-.5,1.7-4.7,2.5-5.1,3.1-.4.7,0,1.7-1.1,2.9-.6.6-3.8,2.3-4,2.5s0,.9,0,1.4c0,.3-.3.5-.4.8,0,.4-.2.6-.5.7,0,0-.1.1-.2.2l-1.3.6c-1.8-.9-3.7-1.4-5.6-1.7-.7-.3-1.6-.9-.7-1.4.2-.5.7-.5,1.3-.4l5.6,1.4c.8.4,1.4-.8.9-1.3l-3.7-1.7c-1-.5-2.4-1.9-1.4-3.1.3-.3,4.6-.9,5.2-.5.9.7,1.5,1.1,2.7.9,1.1.8,2.8.7,1.9-.9-2.1-1.8-1.9-2.8.8-3.4,3.6.3,5.1-.4,4.4-2.1-.8-.6-.7-1.1-1.1-1.5-.5-.5-2.1-1.4-2.6-1.9-.1-.2-.9-1.7-.8-1.8,1.3,0,2.6.8,4,.9,1.7.1,3.5-.1,5.1-.7h0Z"/>
    <path class="st19" d="M368.2,120.3l2.5,1.2c-.1.2-.1.4,0,.6,0,.2-.3.5-.2.8s.5.3.6.4c.1.2.7,1.5.7,1.6,0,.9-2.5-.1-3-.4-.3-.1-.6-.7-.8-.7-.3-.1-.7.1-.9,0-.3-.1-.3-.8-.9-1.1-.5-.2-1.1,0-1.5-.3s-.4-.6-.7-.9c-.7-.5-1.7-.5-2.3-1.1-.3-.2-.5-.9-.7-.9s-.3.5-.7.4c-.7,0-1.8-1.5-2.2-1.7-.4-.2-.8,0-1.3-.3,0-.5-.1-.9,0-1.4-.4-.8-.5-1.5.3-2,3.7,2,7.7,3.6,11.4,5.7h-.1Z"/>
    <path class="st5" d="M229.2,167.6c-.3-.5-1.3-1.9-1.3-2.1s0-.5.3-.3c.7.3,2.4,2.1,3.2,2.7,1.5,1.2,3.3,2.7,4.9,3.8.3.2.5.5.9.3-1.5-2-3.8-3.1-5.4-5,1.1,0,1.1.6,1.6,1,2.6,2.1,5.2,3.6,7.5,6.1.9.9.5,2,2.1.6-.7,1.1-1.9,2.7-3.4,2.9.4-.4-.5-1.2-.8-1.3-.2-.1-2.4-1.3-2.5-1.3-.5-.1-1.1.3-1.4,0-.3-.1-1.5-1.6-1.8-1.9h-.7c-1.1-1.6-2.1-3.2-3.1-4.8v-.7h.1-.2Z"/>
    <path class="st34" d="M349.6,55.9c-.1.7-.9.9-2.1.7-.9.9-2,1.5-3.2.7-2.1.2-3.8-.3-5.2-1.5-3.2-.9-6.6-2-10-2-3.8-.9-.3-1.7,1.6-2,.7-.3,1.3-.7,1.7-1.2.7-.4,2.3.8,2.9,1,1.9.7,4,1.3,5.9,1.8,2.7.8,5.9,1.1,8.4,2.3h0Z"/>
    <path class="st118" d="M332.4,50.7s0,.5-.3.7c-1.5,1.3-3,.6-3.9,1.1-1.7,1.1,2.6.9,3.1.9,1.5.3,6.7,1.5,8,2,.4.1.5.7,1.2,1,.9.3,2.7.3,3.8.3.3,0,.7.3.9.4,1.3.1,1.7-.9,2-1,.7-.2,1.7.2,2.3-.3,1.9.9.2,1.7.2,1.9s1.1.5,1.1,1.1c0,1.2-2.1,0-2.3.7-.1.7,1.4.7.8,1.5-.5.7-2.5-.6-3.3-.5-.1.6.5,1.1.4,1.7s-.9.5-.9.7c0,.4.6.7.5,1.2-.1.1-2.9-1.3-3.1-1.6.5-.3,1.3-.4,2.1-.3-1.7-2.1-.2-2.5,1.9-2.6,1.3-.8-4.4-1.9-4.8-1.7-1.7-.7-3.3-1.4-4.9-2.3-3.1,0-6.2-.5-9.3-1.3-.5-.1-5.2-1.4-5.2-1.7s.7-.3,1-.3c1.6-.1,4.7-.1,6.1-.5.2,0,1.8-.9,1.9-1.1.4-.7-.2-1.1-.6-1.6.7.3,1.2.5,1.1,1.3h.1Z"/>
    <path class="st81" d="M353.7,112.8c1,.6,2.1,1.3,3.1,1.8.3.6-.3.9-.3,1.7.1.9,1.2.5,0,1.7-.4-.2-.9-.7-1.3-.9.8-.7.6-.9-.5-1.5-.3-.1-1.7-.8-2.1-.9-.7-.2-2.1-.5-2.5-.1-.7-.5-2.4-1.7-2.7-1.9-.5-.2-1.1,0-1.5-.3-.3-.1-1.3-1.3-1.9-1.7-.3-.2-1.3-.3-1.5-.6-.3-1.1,3.8-.4,4.3-.2.8.3,2.5,1.6,2.9,1.7s.9-.3,1-.2c0,0,0,.7.3,1,.5.7,1.3.7,1.1-.1-.1-.4-4.6-3.1-5.4-3.6-.5-.3-.5-.7.1-.7l2.4.3c2.5.7,8.4-1.9,4-4.2,0-.2,0-.4,0-.6,2.7.3,3.9,1.7,2.6,4.4-.7,1.4-1.7,2.7-3,3.6.6.4.9.8.9,1.3h.1Z"/>
    <path class="st6" d="M256.2,152.8c0-.4.3-.6.9-.6-1.4-.5-2.1-1.2-3-2.3-1.3-.3-6-2.5-6-3.8-.1-1.5,1.1-.7,1.9,0,1.3.2,1.9.7,1.8,1.7,1.9,0,4,.5,5.6,1.7h.2c.7.2,1.5.5,2.1.9,1.2.4,1.6.8,2.5,1.2s1.8.6,2.7,1.1c0,.3,0,.7,0,1.1-.2.5-.6.7-.9,1.1-.2.3-.1.7-.3,1-.3.3-1.7.5-2.3.8-2.3-.7-3.4-2.3-5-3.9h0Z"/>
    <path class="st10" d="M158.2,218.9c.1-.1.7-.3,1-.7.7-.7,1.3-2,2.1-2.6.7-.5,1.4-.2,1.9-.5.7-.5.7-2.5,1.7-1.5.8.9.6,1.9.4,2.9-.5,2.1-1.8,5.9-2.9,7.7,0,0-.3.1-.5.3-.4.7-.5,1.3-1.3,1.7l-.3-.5c1.2-2.1,2.4-4.2,3.3-6.5-.8,2.2-5.8,9-6.2,3.1l-1.7,1.7h-.5c.7-1.5,1.7-4,2.7-5.2h0Z"/>
    <path class="st25" d="M155.5,223.9c.3-.3,1.7-1.9,1.8-1.9,1.5-.7.6.5.7,1.1,0,.1.6,1.2.7,1.3.8.5,3.3-2.8,3.8-3.6.3-.5,1.1-2.1,1.2-2.3,0,0,.7,0,.7.1.4.4-3.1,6.6-3.6,7.5-2.7,4-5.6,5.7-10.4,6.3-.5,0-2.1.3-2.1-.5,0-.9,3-3,3.8-3.8,1.3-1.3,2.3-2.9,3.5-4.4h0Z"/>
    <path class="st86" d="M157.5,237.5c.7-1.1,1.5-2.4,2.9-2.7.1,0,2.9.7,3.1.8,2.4,1.1-.7,2.9-1.3,4.2-1.2,1.1-3.5,2.4-5,3-.6.3-1.6.5-2.3.6-.6-.6,2-5.2,2.5-5.9h0Z"/>
    <path class="st28" d="M227.6,181.5c.5.9,1.3,2.8,2.5,2.3-.1.2-.6.7-.6.9-.5,1.5,2.5,4.7,2.2,7-.2,1.3-1.7,5-2.3,6.1-.2.3-.6.3-.7.5-.7.9-.2,1.3-1.9,1.5,1.4-1.3-.9-2.2-.7-3.1.2-.9,1.1.6,1.5.5.5,0,.6-.7.5-1.1,0-.6-1.2-3.3-1.6-3.9-.1-.3-2.5-2.9-2.2-3.1,2,.1,2.8,1.7,5,2,4.2.6-.5-3.1-1.1-4.6-.6-1.6.5-2,.4-2.5,0-.2-.5-.6-.6-1s-.3-1.2-.5-1.5h.2,0Z"/>
    <path class="st71" d="M270.4,139.8c0,1.4,2.7,1.2,3.6,1.5,1.3.4,2.5,1.7,4.1,1-2.1,1.9-4.6,3.3-7.5,3.6,0-1.3-.3-1.5-1.6-2.1-.6.3-1,0-.7-.7,0-.5-.3-.6-.6-.9-1.1-1.1-2.2-2.3-3.8-3.1-.5-.9,2.3.5,2.1-.5,1.3-.4,3.3.2,4.3,1.1h0Z"/>
    <path class="st59" d="M336.6,75.6c-.7.3-1.4,0-1.8.3-.3.2-.5,1.3-.8,1.9-1.2,1.7-3.6,1.3-3.7,1.4,0,0,.1.8,0,1.1-.5.7-3.2.3-2.1,2.5-.2.3-2.7-2.5-2.5-.6.2,1.1,1.1.9-.5,1.5l-.7.2c-.2,0-.7.2-.9.2-.2.1-.5.1-.7,0h-.2c-.8.2-1.5.5-2.1,1.1-.9-.5-1.8-.3-2.7.5h-.7c-.2,1-.5,1.1-1.3.9,0,0-.1-.2-.2-.2v-.5c.7-1.1,1.5-2,2.3-2.9.1-.5.5-.5,1-.3.8-1.4,1.7-2.2,3.3-1.3.5-2,2.5-2.3,3.8-.9.5-.3,2.1-1.8,1.9-2.5-1.4-3.3,2.1-1.1,3.3.2.7,0,1.1,0,1.5.3.3-.1,1-.6,1.1-.8.2-.7-.3-1.7,0-2h2.9c0-.1-.2,0-.2,0Z"/>
    <path class="st11" d="M343,62.7l-9.3-4.8.5-.3c1.9.7,3.8,1.5,5.5,2.5,1.1.3,1.6.3,1.3-1l.3-.6-3.1-1.5v-.5c-1.1-.3-2.1-.5-3.2-.7,0,.2-.1.2-.2,0-.5-.2-1.1-.1-1.6,0-1.4.7-3.8-.3-5-1.1v-.2c3.1.7,6.8.5,9.6,1.1,1.2.3,2.1,1.3,3.3,1.6,1.8.5,4,.6,5.9,1.2.5.4,1,1,.5,1.6-.3.5-2.4,0-2.5.9,0,.6,3.1,2.5-1.8,1.7h-.1Z"/>
    <path class="st82" d="M287.4,36.5c.9.5,1.7,1.3,2.9,1.8.9.4,1.7.1,2.3,1.3.5.9,0,1.1,1.1,2.1,1.5,1.5,3.5,1.9,5.1,3.3.2.2.2.5.3.5-.7,0-2.1-1.5-2.4-1.5s-.9,1.2-1.7.9c0-.3.5-.4.7-.5.5-.7-.3-.6-.6-.8-1.5-1.2-1.7-.6-3.5-.8-2.3-.3-3.3-2.2-.8-2.7-.3-1.5-.9-.9-1.9-1.2-.5-.1-1.5-1.3-2.3-1.5-.5,0-.9.1-1.1.1s-.4-.5-.9-.6c-.3,0-.6.2-.9.2s-.5-.7-1-.8-1.6.3-2.2.2c-.9-.1-2.1-.9-3.3-.7,2.1-.8,8.6-.4,10.5.7h-.2Z"/>
    <path class="st30" d="M322.6,47c1.5,1.3,4,1.4,5.7,2.5-1.6.5-5.5,2.5-6.9,2.5h-5.9c0,0-.4-.3-.3-.5.1-.5,3.9-1.7,4.7-2.1.9-.5,2.1-1.6,2.8-2.3h0Z"/>
    <path class="st66" d="M276.5,36.1c1.3,0,1.1.4,1.7.6,1.9.6,4.7,1.3,6.6,1.8.7.2,2.2.2,2.6.5.5.3.7,2.5,1.1,3.1,0,.1,1.7,1.4,1.9,1.5.6.3,1.1.1,1.7.4,3.5,1.5,6.6,4.8,10.4,6.2,4.4,1.6,9.4,1.3,12.4-2.5.9-.7,1.5-1.6,2.3-2.3.1-.1.5-.2.7-.2,0,.1-.1.3-.2.5l-.2.7c-.9.7-1.9,1.4-2.7,2.2v.6c-1.1.9-3.8,2.5-5,2.1-5.4,1.4-10.3-1.7-14.7-4.5-4.1-1.5-7.3-3.9-9.6-7.1-3.1-1.3-6.8-2.2-10.1-2.4-.5.5-1.1.8-1.6.8.2-1.1,1.9-2,2.9-2h0v-.2Z"/>
    <path class="st38" d="M333,55.9c.5-.2,1.1-.2,1.6,0h.2c1.1.1,2.1.4,3.1.7.5.1,3.8,1.7,3.9,1.8,0,0-.4.4-.5.8,0,.7.6,1.3-.9,1.6-.8.1-3.8-1.7-4.7-2.1-.7-.3-1.5-.5-2.1-.7-1.5-.7-3.1-1.1-4.6-2-.5-.3-1.1-.6-1.1-1.1,1.7.3,3.3.9,5,1.1h0Z"/>
    <path class="st114" d="M177.3,64.1c.2,1.3,2.1.1,3,.2.2,0,1.9.7,2.1.9.5.4.7,2.3.5,2.8,0,.1-1.6,1.2-1.7,1.2-1.1.3-4.3-.2-5.1.8-.7,1,1.4,1.3,1.9,1.7.7.5,1.6,1.7,2.5,2.2s2.6.5,3.5,1.4c-1.1,0-2.4-.4-3.4-.9-.9-.3-2.5-1.2-3.4-1.7-.8-.5-1.6-1.5-2.2-1.9-1.1-.5-2.7.3-2.3-1.5.1-.8,2.2-.8,2.9-.5-.3-1.3.6-2.1,1.9-1.8.7.2.4,1.3,1.9,1.3,1.3,0,3.6-.5,2.9-2.2-.7-1.9-3.1-.7-4.4-.8-.4,0-1.5-.9-1.9-1.1.4-.1,1,0,1.3-.2h0v.3Z"/>
    <path class="st70" d="M194.7,81.5h.3c.9,1.7,2.3,2.7,4.1,2.6.2.7.6,1.1,1.3,1.1.3.5.7.7,1.3.7,0-2.2,2.1-2.1,3.6-1.5,1.9-.1,3.6-.1,5.4.1l.5.3v.3c-2.3-.1-4.6-.2-6.8-.3-1.2.7-2.7,2.1-.9,2.5,4.8.7,12.1.8,17,.5,3.3-.3,7.3-1.4,10.7-1.8.7,0,4.2-.5,4.6,0,.9,1.3-2.6,7-3.6,8.2.8-2,2.2-3.8,2.9-5.8s1-2.5-1.4-2.3c-6.1.5-11.7,2.1-18,2.3-7.2.1-15.3-.6-22.1-3.1-1.1-.4-2.3-1.6-3.4-2.1.3,0,.6,0,1,.3,1.1.5,4,3.3,4.8.9.2-.6-.8-2.1-1.3-2.7h0Z"/>
    <path class="st21" d="M309.6,51.3c0,.3-.2.4-.7.5-.2.4-.5.5-.7,0-1.1.2-2.1.2-3.1,0,0,.2-.1.2-.2,0-.6,0-1.2-.2-1.8-.5-3.3-1.5-6.6-3.1-9.8-4.8-3.4-1.7-5.7-3.3-8.2-6.1-1.1-1.3-4.4-2-6.2-2.2-.9-.1-4-.3-4.6.1-1.1.7-.1,1.3.2,1.9-1,0-1.1-1.3-.9-2.1,1.1-.7,1.2-1.7,2.7-1.3,2.3.7,4.8,1.1,7.2,1.9.5.2,1.8.4,2.1.6.3.2.8,1.3,1.1,1.8,2.5,2.9,5.6,3.6,8.7,5.4,1.3.7,2.3,1.9,3.6,2.6,3.1,1.7,7.2,2.9,10.7,2.1h0Z"/>
    <path class="st8" d="M199.3,122.2h.3c2.2,7.9,11.5,10,18.9,10l8.6.2c.6.1,1,.3.7.9-4,.3-8.1.3-12.1.2-3.5-.4-6.8-1.2-10.1-2.3-1.4,0-1.9-.9-2.2-2.1l-.7-.5c-1.1-1.6-2.9-2.3-3.6-4.5l-.7-2.7c0,0,.2-.3.5-.5.3.3.5.8.5,1.3h0Z"/>
    <path class="st50" d="M313.9,95.4l.3-.2c2.7,1.2,5.3,2.4,7.9,3.7h.9c1.9-.4,3.9-.7,5.8,0,0-1.1.9-1.5,2.5-1.1l1.9.5c4.2.7,8.2,2.1,12.3,3.1.2,0,.2.1,0,.2-3.6-.9-11.3-3.5-14.6-2.7-.4.1-.7.5-1,.6-.3,0-2.6.3-2.7.2-.4-.3,0-.9-1.5-.6-2.1.3-.9,1.4-1,1.5-.5,0-1.4.1-1.9,0-.2,0-.3-.5-.5-.7-.7-.4-2.4-.9-3.1-1.1-.3,0-1,0-1.2,0-.1-.1-.1-1.2-.7-1.7-.4-.4-2.4-1.2-3.2-1.7h0Z"/>
    <path class="st61" d="M207.7,116.1c-2.6,1.7-5.3,3.6-7.8,5.4,0,.5-.3.7-.5.7,0-.2-.8-.6-.5-1.3,13.1-8.3,23.3-13.6,33.2-26.3,0,.4-.2.7-.5,1-6.3,8.6-15,14.8-23.9,20.6h0Z"/>
    <path class="st106" d="M322.6,84.2c-1,1.9-.7,3.5-2.9,4.3-.4-.9-1.2-.6-1.9-.9-.7-.3-1.3-.7-1.9-.9.9.1.8-.9.9-1.1.1-.1.6,0,.8-.2.6-.3,1.5-1.1,2.1-.9.2,0,.5.5.7.4.4,0,.5-1,1.8-.9.2,0,.3.2.3.2h0Z"/>
    <path class="st48" d="M196.7,142.1c.7.4-.7,2.2-1.4,2.6,0,2.5-1.6,3.6-3.7,1.9-1,.3-1.5.1-2.5-.2-.9.9-1.7,1.1-2.3.3h-.9c-2.5,1.2-2.9,4.6-4.6,6.6.4-1.5.5-3.1,1.1-4.6,0,.4-.1,1,.5,1.1.3-.5.6-1.7.9-2.1.3-.3,1.8-1.6,2.2-1.7.6-.1,1.3,0,1.7,0,.7-.2.2-1.5,2.4-1,.7.1.8.6,1.1.7,3.4,1.7,1.9,0,2.9-1.3.3-.4.9-.5,1.2-.8.3-.4.7-.9,1.1-1.5h.1Z"/>
    <path class="st102" d="M393.2,130.3c-2-.5-3.7-1.8-5.6-2.7-1-.5-2.1-.5-3-1.3-.7-.6-.3-1.4-1.5-1.9-2.6-.3-5.3-2.1-7.8-2.4-1.2-.2-2.6,0-3.9-.2-.4,0-.8-.4-.7.3,0-.9-1.2-.9-1.8-1.3-.3-.1-.5-.5-.7-.5,1.3.2,2.7,1.2,4,1.3,1,0,1.7-.3,2.9-.1,1.9.3,9.8,3.1,11.3,4.2.8.5.8,1.3,1.3,1.7.7.6,4.4,2.4,5.6,2.9h0Z"/>
    <path class="st78" d="M330.9,97.4c.6,0,1.7.4,2.3.7-1.5-.3-4.5-1.3-3.9,1.1-1.3.1-2.5-.7-3.8-.7-2.3,0-2.1,1.5-5.4,0-1-.5-2.3-1.3-3.3-1.9s-2-1-3-1.2c-.6-.3-1.3-1-1.8-1.3-.1,0-.1-.1,0-.2,2,1.2,4.5,2.1,6.6,3.1s2.2,2,5.1,1.7c1.1-.1,1.9-.1,2.7-.2.4,0,.6-.5.9-.6.7-.3,2.7-.3,3.5-.3h0Z"/>
    <path class="st41" d="M352.5,103.1c.9.3,2.7.7,3.5,1.3,0,0,.9,1.4.9,1.5,0,.1-.6,1.8-.7,2.1-.2.4-.7.6-.7.7,0,.4,0,.9,0,1.3,0,.3-.5.3-.5.5-.5.7-1.1,1.6-1.2,2.4-2.5-1.7-.7-1.5.5-3.1.2-.3,1.6-2.2,1.7-2.4.3-.7.2-2.3-.3-2.8-.5-.5-1.7-.8-2.3-1,0,.6-.3.5-.5,0-.3-.2-.4-.3-.2-.5h-.1Z"/>
    <path class="st22" d="M267.4,54c-.5.6-1.6,1.5-2.3,1.3l.2-.5c2.6-1.7,9.4-7.1,9.9-10.2.1-.9,0-2,0-3,.5,1,.6,1.6.4,2.8-.4,2.8-6,7.8-8.4,9.4h.1Z"/>
    <path class="st32" d="M178.9,232.8c-.6-.8,0-2,0-2.8s-.2-.6-.2-.9.7-2.9-.5-2.4c.3-1.3.5-2.5.7-3.9.9,3.7.2,6.4,0,10h0Z"/>
    <path class="st37" d="M397.3,132.1c.3.1.8.1,1.1.3.7.5.9,1.4,2.3,1.3-.1,1.2-1.5.7-2.3,1,1.5,1.3,3.3,1.4,3.4,3.8-1.2-.6-.3-.4-.5-1.2-.2-.9-3.5-2.1-4-3,.5-.3,1.1,0,1.7.1.3,0,.9.2.8-.3-1.1-.3-1.5-1.4-2.5-1.9h0Z"/>
    <path class="st81" d="M352.5,103.1l.2.5c-.2.2-.4.3-.6.1l-2.6-1.1c-.3,0-.6-.1-.9-.2l-.7-.2c-.9-.1-1.7-.5-2.5-.7v-.2c2.3.6,4.7,1.1,7,1.8h0Z"/>
    <path class="st18" d="M249.5,61.8c-.7.3-1.1.5-1.8.7.3-.8,1.1-.7,1.8-.7Z"/>
    <path class="st48" d="M182.7,148.5c0-.6.1-.8.2-1.1,0,.3.1.9-.2,1.1Z"/>
    <path class="st71" d="M278.8,141.5c0,.1,0,.5,0,.7s-.4,0-.4,0l.5-.7h0Z"/>
    <path class="st106" d="M323.5,84.2s-.1.2-.3.2-.3-.2-.3-.2h.7Z"/>
    <path class="st106" d="M325.1,83.8c-.3,0-.4.1-.7.2l.7-.2Z"/>
    <path class="st14" d="M309,51.7c1.5-.7,2.9-.3,4,1.4,2.4,1.8,4.9,3.5,7.5,5.1.5,1.6-1.6.6-2.3.1-3.6-1.6-2.7-.5,2.4,3.1,1,1.3-.7,1.2-1.6.9l-2.7-1.6c-2.3-.9,0,.7.7,1.3.7,1.4,1.3,3.1-1,2.3,1.8,1.8,1.3,4.6-1.4,2.9.4,1.1.7,1.9-.3,2.7-.1,1.3-.5,1.7-1.6,2.1.9,1.7,1,3.1.2,4.2,1,1.9.7,3.8-.9,5.4.6,2.2-.7,2.7-3.9,1.5-2.3.3-4.2,0-6.4-.7l-7.8-.5c-1.7-.9-3.3-.8-4.6.3-.7,2.2-3,2-5,1.8,1,1.6.1,2.7-1.6,2.9.3.6.7.7,1.3.3,1.1,0,2.5.3,3.5.7,4.1,1.4,6.6,3.8.3,4.5v.5c-1.8.7-3.1,1.2-5,1.3-2.3-.3-4.1-.5-5.5,1.7-1.6.9-4,1.7-5.8.8-3.3-2.4-7.1-4.3-11-5.8-1.8-1.6-4.6-1.3-6.6-.3,1.7.5,1.7,1.5.6,2.5l2.3,2c.6.1,1.3.5,2,.9,2.3.7,4.3,1.7,6,3.2.2,0,.2.1,0,.2-3.1-.9-10-4.4-12.6-6.6-1.5-1.3-.7-1.4-1.1-2.3-.1-.3-.6-.5-.7-.8-1-1.9,1.3-2,.9-2.5-.3-.5-1.3.2-1.6.1,0,0-1.6-.7-1.7-.8-.4-.3-.4-.9-.7-1.3-.3-.5-.9-.8-1.3-1.3-.9-1-.7-1.8-2.4-2.1-1.1-.2-4.7-.5-5.5,0-2.7,2.2-8.4,2.9-11.9,3.8-7,1.5-12.3.3-19.1-.6-.5,0-1.9-.3-2.1-.2-.5,0-3.1,2.1-1.3,2.5-.7,0-1.9,0-2.3-.7,1.4.1,1.6-1.7,3.1-2l6.9.2c.4-.5.8-.5.9.2,2.1.5,4.4.5,6.6.2.1-.5.3-.5.5,0,.3-.2.8-.2,1.1,0,0-.5.3-.4.5,0l5.4-1.1c1.9.1,3.6-.1,5.2-.7,0-.2.1-.2.2,0,1.5-1,3.1-1.9,4.8-2.5v-.5c.9-.3,3.7-1.3,4.4-1.2,1.2.6,1.5.6,2.8.3,1.6-1,3.2-1.1,4.6-.4,1.3-1.3,6.4-2.5,5.2.6,1.6.5,3.4.9,5.1.5-1.1-1.3-2.3-2.5-3.6-3.6-.3-3.8.7-3.9,4.2-3.8h0c-1.7-.9-2.5-2.1-2-3.8-.7-1.2-.8-1.9-.3-3.2-.7-1.6-.6-2.9.5-3.8-.4-1.1-.3-2,.5-2.5,1.9-.8,3.7-1.9,5.4-3.1.6-.4,1.3-.7,1.8-1.1.6-.5,1.7-.9,2.3-1.3,0,.5-.3.6-.7.8-1.8,1.3-3.7,2.7-5.4,4.1-1.5,1.1-.7,2-.9,3.6,0,.9-.7,3-.1,3.7.7.9,3.1.9,3.5,1.9.1.4,0,1.5.4,2.3.2.4.6.5.7.7.3.7.5,1.8,1.2,2.2,1,.7,2.8.5,3.8,1.1,2.5.5,7.4,0,9.3,2,.5.6.2,1.7,1.6,1.8.8,0,1.2-.5,2-.5.5,0,.9.5,1.4.6,4.1.9,8.9.6,13.1.9,2.3.2,4.6,1,6.8,1.1,1.1,0,1.9-.6,3.1,0,.5.2.9,1.1,1.4,1.1s.8-.9,1.3-1.3c.3-.3,1.3-.8,1.4-.9.1-.5-.4-2.1-.5-2.9,0-.7-.3-2.5-.1-3.1,0-.5.5-.9.5-1.4s-.3-.8-.1-1.3.7-.5.8-.7c.7-1.1-1.7-2.6-1.3-4.4.1-.4.6-.6.6-1.1s-1-1.7-.9-2.5c0-.4,1,0,.9-.7-.1-1-1.9-1.9-2.2-3.5-.1-.7.3-.5.5-.7.4-.6-.3-1.1-.3-1.5,0-.4.3-.7,0-1.2-.5-1.3-3.9-2.2-5.1-2.7.1,0,.4,0,.7,0h.2c1.1.2,2.1.2,3.1,0h.7,0Z"/>
    <path class="st75" d="M303.5,110.4h-2c-1.6,1.9-3.8,3.1-6.6,3.5l.3.3c5.2,2.7,0,5.6-3.6,5.2-5,0-10,0-14.9,0s-.8.2-1.1.2c-.2.4-.5.6-.9.5,1.2,2.1-.6,2.6-2.3,1.9,1.7,3-.3,3.2-2.7,3-2-.5-3.8-.7-5.9-.5-1.3-.7-5.3-.5-1.7.4,4.8.7,9.6,1.8,14.2,3.2.1.3.1.6,0,.7-1.1.9-9-.4-10.8-.7-.2-.1-7-1.2-6.5-.9,1.1.5,1.7,1.1,2.1,1.9.8,1,1.8,2,3.1,2.3.5-.4,1-.3,1.1.5l.9.2c.5-.5,1.6-.3,1.8.5,1.2.6.6.9-.5.7l-.7.3c-5.4-1-10.9-2.2-16.3-3.6l-.7-.5c-1.2-.5-2.6-.5-3.9-.3-2.2-.5-4.4-.9-6.6-1.1-1.5.7-3.2.9-5,.8l-4.1,2.1h-.8c-1.9-.7-3.1-.9-4.8.4-1.5,0-3.1,0-4.8-.5-.9.5-1.7.8-2.5.7-1.3-.5-2.4-.5-3.5,0-1.8-.3-7.6-2.3-9.2-3.2-1-.6-3.1-2.3-3.6-3.3,0,0,0-.3.1-.4.9.5,2.4,2.4,3.1,2.6,1.5.5,3.9.7,5.5,1.1.7.2.9.6,1.4.9,2.7,1.2,2.6-.5,4.6-1.1.4,0,1.9-.3,2.3-.4,1.1,0,1.7.5,2.5.5s1.3-.7,1.6-.7.6.7,1.3.7c.5,0,.8-.7,1.3-.7.4.1,2.8.9,2.9.8.3,0,.5-.6.9-.7,1.3-.7,2.9-.2,4.2-.3.2,0,1.7-.4,1.7-.5,0,0-.4-1-.2-1.1,0,0,1.5-.4,1.7-.4.9-.1,2.4,0,3.4,0,.8,0,3,.5,3.6.5.3,0,0-.6.3-.8.7-.5,3.5,0,4.4-.1s2.7-.7,3.7-.7,1.4.4,2.1.3c.1-.6-.1-.4-.5-.5-.9-.4-2.4-.5-2.1-1.7.1-.1,3.7-.5,4.3-.6.3,0,3.1-1.1,3.3-1.2.4-.2.4-1,1.4-1.1.5,0,1.9.2,2.3.3.5.2.9.7,1.5.8.7.1,1.7,0,2.5,0,.5-.1,0-1.5.1-1.6.5-.8,6.5,0,7.6,0s4.1-.3,4.2-.5c.4-.4-.1-.4-.3-.5-1.1-.5-2.4-.3-3.6-.7l-2.9-1.3,4.4.2c2.2-.3,4.8-1.8,6.8-2,1-.1,7.5-.2,7.8-.5v-.7l-6.8-.5c-.7-.3-.2-1.5.4-1.7.7-.2,2.2.3,3.1,0,2.6.6,6.4,1,9,.3.8-.2,1.3-1.1,1.9-1.3.7-.1,1.3.2,1.8.2,1,0,2.5-.3,3.5.3h0v.2Z"/>
    <path class="st64" d="M207.7,116.1c-1,1.7-7.3,4.2-7.7,5.8-.2.9.6,2.3,1.1,3,2.6,4.3,8.3,4.8,12.7,6.6,1.5-1.1,3.1.2,4.3,0,.7,0,1.1-.8,1.8-.8s3.2.8,4.1.7,1.7-1.2,3-1.2,2.3.7,3.1.6c.4,0,3.1-1.9,4-2.1,1.3-.4,2.1.1,2.9,0,.5,0,1.3-.8,2.1-.9,1.6-.1,5.3.9,7.2,1.2,1,.1,2.5-.1,3.3.6l-.4.4c-2.3-.5-3.4-.2-3.3,1.1l2.4,1c1.1.3,1.6.9,1.6,1.8,0,.2.1.5,0,.5-.9.4-5.6.4-6.7.3-1.4-.4-2.3-.6-3.8-.3-2.4.9-4.9,1.4-6.8-.7-.4.3-.9.2-1.6-.1-1.1.5-2.3.5-3.1-.3-.2-.3-.6-.5-1-.5-6.6-.2-14.3.1-20.6-2.3-1.3-.5-5.6-4.6-6.2-5.8-.3-.7-.5-1.7-.8-2.5l.3-1c2.7-1.7,5.4-3.4,8.1-5.2h0Z"/>
    <path class="st63" d="M272.9,100.9l.6-.4c2.6.1,5.2.4,7.6,1.4,1.7,1,2.1.9,4,.1,3.6.1,7,1,10.4,2.7,2.7.5,5.2,1.5,7.7,2.5,2.1,0,4.2.3,6.1.9,1.1-.7,2.3-.4,3.6,0,1.7,1.1,2.9.9,4.7.3.7.3,1,.1.9-.6.2-.2,4.6-.9,5-.5-.3,1.2,1.5,1.7,2.5,1.5,0-.3.1-.5.5-.7.1-1.2,0-2.4-.5-3.6,0,0,.3,0,.6.2.9.7,1.6,3.1.9,3.9-1.4,1.8-4.5-.5-5.2.5-.1.1.3.8-.3,1-.3.1-1.1-.1-1.7-.1-1.8.1-1.7,1.3-2.6,2.5-1.9-.5-4.2-.5-6.1-.7,3.1.2.8-.7.3-2.1-2.5-1-5.4-.7-8-1.3s-5.2-1.4-7.7-2.1c-1.1-.3-2.5-1.1-3.6-1.2-.8-.1-1.7.1-2.5,0-1-.2-1.1-.4-2.5-.5-2.6-.3-4.9-.8-7.4-1.6-4.8-1.6-10-1.6-15-3.1v-.2c2.6.6,5.3,1.1,8,1.3h-.2Z"/>
    <path class="st109" d="M304.9,51.7h-.7c-.4-.1-.7-.3-1.1-.5l1.8.5Z"/>
    <path class="st112" d="M174.3,173.7c-1.3-.1-.8-1.7-.5-2.5.3-.7,1.7-2.8,1.9-3.6.1-.3,0-1.7.3-1.9.7-.4,1.1.7.8,1.3-.1.2-.5.4-.5.6s.3.5.4.9,0,.7,0,1.1c.1.6,1.1.6,1.1,1.2s-1.1.9-.9,1.6c.2.8,3.6-.3,2.8-1.5-.1-.2-.8,0-.5-.7.2-.5,1.2-1.1,1.5-.5,0,0,.8,2,.8,2.1,0,.3-.7.9-.2,1.4.4-.4.9-1.6,1-2.1.1-.7-.4-2,.5-1.9-.3-.5-1,.1-.6-1,.2-.6,1.8-.9,2.3-.8.7.1.9,2.6,1.7.5.3-.8-.3-2.2,1.1-1.6.5.3,1,1.6,1.3,1,.5-1.1.5-2.5.9-3.5.6-2.1,1.5-1.3,1.5.5-.1,0-.2-.3-.3-.4-1-.5-.7.9-.9,1.6-.1.4-.5.7-.5,1.1-.2.9.2,1.3-.3,2.5-.3-.1-.6,0-.9.2-3.2-1.5-1.5,1.1-2,1.9-.4.6-1,.1-1.4.1l-.4.3c.7,1,.7,1.9.2,2.6-.5.1-1.2-.3-1.6.3.5.3.7,1.4,1.1,1.6.4.2.7-.6,1-.1s-1.1,1.1-1.4,1.1-.6-.5-1.1-.3c-.5.2-.1.6-.5.7-.2.1-2.5.9-2.7.9-1.1-.2,1.1-1.7-.1-2.4-.6-.3-.9,1.1-1.7,1,.1.7-.5,1.5-.5,1.9,0,.6.5,2.3-.2,2.8-.7,0-.8.4-.2,1.3,0,0-.1.6.6.7,1.1,0,.9-1.2,1.7-1.7l-1.1-.8c.3-.1,1.5-.2,1.6-.3,0,0-.5-1.3-.1-1.6,1.4.6,2,1.5,2.1,2.9,0,1.9-1.9.2-2.1.2-.7,0,0,1.1,0,1.3.1.6-.7,1.5-1.3,1.6s-1.2-.9-1.8-.9-.9.5-1.3.7c-.3.1-1,.1-1.1.2,0,0,0,1.1-.3,1.1,0,0-.4-.3-.7-.4-1.4-.1-.4,1.4-.5,1.5,0,0-1.2,0-1.3.6-.3.9,1.4,2.1-.5,2.5-.5.1-2.3-.4-2.5-.6-.2-.3,1-3,1.1-3.6,0-.5,0-1,0-1.5.7-1.8,1.3-2.4,2.1-3.9,0-.1.7-1.7.8-1.7.1-.7-.5-1.1-.6-1.5,0-.2.7-1.3.5-1.9.9-.7,1.6-.7,2.1-1.8l.4.4c-1.5,2.5.1,9,.4,2l1.1-3.7c.9-2.8-1.5-2.6-1.1,0l-.5.3h0v.3Z"/>
    <path class="st60" d="M188.2,169.4c0-1.1.6-1.3.9-.2,0,.2-.4.5-.4.6s1,.8.7,1.5c-.8,0-1.2-1.2-1.1-1.8h0Z"/>
    <path class="st60" d="M176.6,183.5c0,0-.5,0-.7-.3-.3-.5,0-1.7.4-2.1l.5,1.1-.2,1.3h0Z"/>
    <path class="st60" d="M184.8,171.5c-.8,1,.8,1.3.9,1.7,0,.3-.8,1.2-1.1,1.3v-1.7c0-.6-.8-1.3.3-1.3h0Z"/>
    <path class="st89" d="M307.8,96.8v.3c-1.6,0-3,.3-4.3.9,1.5.7,2.9,1.7,4.1,2.9,2.2,0,2.7.7,4,2.5,1.8,1.9,10.7.8,4.6-2.6v-.5c.3-.1.6,0,1.1.2h.2c.6.3,1.2.8,1.6,1.3.7,1.6,1.9,2.2,3.5,1.9,1.5,0,2.6,1.8.7,2.1l-2.5.2c-1.1.7-2.3.9-3.5.8-1.3,1.1-2.7,1.1-4,0-1.1-.5-2.3-1.1-3.3-1.8-1.1-.2-2-.6-2.7-1.2-1.4.5-3.8.1-4.2-1.5-2.3-1.5-5.3-3.3-8-3.9-3.9,1.3-8.6-2.6-1.7-2.1.6-.7,1.2-.9,1.9-.9,2.5.8,5.2.6,7.8.1,1.5,0,3.7.2,4.7,1.2h0Z"/>
    <path d="M351.9,116.9c4,1.5,12.3,6.1,15.9,8.4.3.1.6.3.6.6-2.4.2-4.8-.7-7-1.5-5-1.7-10.7-3.9-15.5-6-.9-.7.5-1.9,1.4-1.8l1.7.2c.5-1,1.5-1,2.8,0h0Z"/>
    <path class="st77" d="M351.9,116.9c-.5-.2-1.6-.7-2-.4-.1,0-.1.7-.7.8-1.1.3-2.7-1.2-3.2,1.1-2.2-.9-5-2.1-7.1-3.2-.3-.2-2.2-1.4-2.4-1.7-.3-.3-.2-.3.1-.5l10,2.9c.9.2,1.3-.5,2.3-.3.7.1,2.4.7,2.9,1.3h0Z"/>
    <path class="st50" d="M352.8,103.5h.5c.9,1.1,2.3,1.1,2,2.8,0,.5-2.6,2.2-3.1,2.3-.7.1-2.5.1-3.3,0-.5,0-2.3-1-2.1,0-1-.6-2.3-1-2.9-2.1,1.2,0,2.2.9,3.4,1,1.1,0,3.6-.1,4.7-.5.3-.1,2.3-1.1,2.3-1.1.2-.3-.1-.7-.3-.9-.8-.9-3.1-1.8-4.2-2.5,1.1.3,2.1.5,3.1.9h0Z"/>
    <path class="st104" d="M325.7,104.5c.6,1.2,1.3,1.8,1.1,3.3-.1.9-.5.9-1.1,1.1-1.5.2-2.3-.5-3-1.7-1.3,0-2.5.3-3.8.6l-.2-.2v-.2c.9-.1,1.7-.4,2.5-.7h.1c3.9-.1,5.1-.7,3.5-2-.4.5-1.3,0-1.1-.7l-.7-.2c0,.2-.1.2-.2,0l-.2-.2c-1.1-.3-2.1-.6-2.9-1.1-.3.3-.5,0-.5-.5-.4-.3-1-.7-1.1-1.1,1.7.6,6.2,2.8,7.7,3.9h0Z"/>
    <path class="st19" d="M355.3,117.2h-.2c-.5-.5-1-.8-1.6-.9-.1,0-.6-.3-.9-.5-.4-.5-1.1-.8-1.8-.9-.1,0-.3-.1-.5-.2-.2-1.2-.9-1.2-2-1.1-.1-.6,0-.3.3-.5.5-.2,1-.3,1.3-.7.7,2.4,1.9,1.5,3.3,2.1.7.3,0,.4,1.5.7.5.1,1.7,1.2,1.6,1.6s-.8.3-1.1.3h0Z"/>
    <path class="st9" d="M385.7,128.3c1,1.6-2.6,0-2.9-.1-.7-.2-3.3-.1-2.9-1.3.3-1.1,5.7,1.2,5.9,1.5Z"/>
    <path class="st97" d="M312.1,93.8v.2c-.3-.2-1.1-.4-1.7-.7-.3-.2-.6-.6-.8-.7-.9-.5-.5.2-.8.5-.5.8-1.1,1.7-1.7,2.4l1.3,1c-.3,0-3.2-.6-3.3-.7-.1-.2-.3-.5,0-.7,1.1.1,1.8-.1,2.2-.7.3-.6,1.1-1.4,1.1-1.5.2-.6,0-1.3-.2-1.9.5-.5,3.2,2.3,3.9,2.7h0Z"/>
    <path class="st20" d="M307.4,94.5c0,.1,0,.4-.2.6-.3.1-2.2,0-1.6.5.1.1,2.5.7,2.9.9,2.9,1.1,6,2.2,8.6,3.9-.4,0-.7,0-1.1-.2l-.4.3c-2.4-1.3-4.9-2.4-7.5-3.1l-.2-.5c-.5-.5-1.3-.6-1.9-.7-2.6-.3-5,.1-7.5.2-1,0-2.7-.5-3.7-.4-.6,0-.7.8-1.3.9-.4,0-2.9-.5-3,.3,0,.5,1.2,1,1.7,1,1.4.1,3.6-.5,4.8.3,1.9,1.2,5.3,2.3,6.6,3.7.3.2.2.8.5.9,0,0,1.8.6,1.9.6.5,0,1.1-.4,1.5-.2.3.1.4.7.6.8.3.2,1,0,1.6.2,2,.7,3.8,3.4,6.4,2.8.5-.1.7-.6,1.2-.6s.7.3,1.1.2c.5,0,1.5-1,2.3-1.1.6,0,3.6.5,2.9-.9-.8-1.7-2.7-.3-3.5-.7-.1,0-1.3-1.9-1.2-2.2h.2c.1.2.3.3.5.5.3.1.3.3.2.5.9.4,1.9.7,2.9.9h.2l.7.2c.2,0,.9.5,1.1.7.3.1.3.3.2.5.5.5.3.7-.7.9,0,.2-.1.2-.2,0-.4.1-.9.3-1.3.2-.3.3-1.1.3-1.6.2-1.1.7-2.5,1.1-4,1.3-1,1.3-3.6.7-4.4-.3-1.9-.5-3.7-1.3-5.4-2.3-.5.9-1.1,1.3-1.9.9-.7.8-3.1.8-4.3.3-1.7-1.1-3.6-1.8-5.7-2.1-.4-.8-1.1-1.3-2.2-1.5-.8-.4-1.3-.9-1.7-1.5-.4.3-.8.3-1.2.1l-2.7-1.7c-1,.1-1.9,0-2.8-.3.3,1.3.2,1.5-1.1,1.3-2.1-.5-4.2-.6-6.4-.3-1.4.1-4.8-1.4-2.3-2.4.7-.4,1.4-.6,2.3-.7,1.7-1.9,2.7-2.1,5.1-1.9l4.6-1c2.5.5,4.9.5,7.2,0,2.3.9,4.5,1.2,7,.8l-3.4-.4c-1.1,0-4.4-1.1-4.2-2.3,1.4-.9,1.5-1.9.5-3.1,0-.3.2-.5.5-.5.5.5.8,1.2.8,1.9s-.7,1.9.5,2.5c.5.3,1.1,0,1.7.1,1.6.5,3.5,1.1,5.2,1.3.7,0,2.8.3,3.4.2.4,0,.7-.2,1-.5h-.1Z"/>
    <path class="st81" d="M353.5,116.3c1.2-.7,1.1,0,1.6.9-1.5-.1-1-.5-1.6-.9Z"/>
    <path class="st81" d="M352.5,115.8c-.5-.3-1.1-.5-1.8-.9.7,0,1.7,0,1.8.9Z"/>
    <path class="st53" d="M318,100.6c.3.4.7.7,1.1,1.1h-.2l-1.6-1.3c.3,0,.5.1.7.2h0Z"/>
    <path class="st50" d="M348.7,102.4c-.2,0-.5,0-.7-.2.2,0,.5,0,.7.2Z"/>
    <path class="st119" d="M202.9,197.1c1.1,2.3,2.8,4.6,3.1,7.3-.5-.7-3.3-.2-2.6-1.6.4-.7,1.6-.3.5-1.6s-2-.5-2.1-.7c-.3-.2,0-1.3-.1-1.6-.1-.7-.5-1.1-.6-1.8.7.4,1.1.5,1.8,0h0Z"/>
    <path class="st76" d="M182.9,75.9c.9,0,2.3.3,2.9.9h-.9c-.1.1,2.2,1.3,2.4,1.3.4,0,.8-.3,1.3-.1.2,0,1.3,1.1,1.3,1.3,0,.4-.5.6-.6.9-.1.4.5,1.2-.2,1.4-.3,0-3.5-.6-4-.8-.4-.1-2.5-1.2-2.6-1.5-.5-.6-.2-1.2-.3-1.3-.2-.3-4-1-4.8-1.3-.4-.1-.7-.5-.9-.5.9-.3,2,.8,2.8.7.5,0,.6-.5.9-.7.6-.2,1.9-.1,2.5-.3h.1Z"/>
    <path class="st52" d="M190,77h.2l.2.2,1.5.3c2.1,1.6,3.9,3.5,5.5,5.6,1.5.3,3,.3,4.6-.2l2.7.6c.8-.2,1.4-.2,1.9,0,3.5-.5,5-.1,8.2.7l-.3.5c-3-.3-6-.5-9-.3-1.7,0-3.3-.5-3.2,2.1-.4-.2-1.1-.1-1.4-.2-.3,0-.3-.5-.5-.6s-1.1-.1-1.2-.3.1-.7-.1-.9c-.4-.3-1.4,0-2.1-.5-.8-.5-1-1.9-2.1-2.4-1.6-2.5-2.5-3.2-5.4-4.1l-1.1-.2c-.3,0-.6-.1-.9-.2l-.9-.2h-.5c-.9-.4-2-.5-2.9-.9-.9-.3-1.1-.2-1.8-.9,2.9.7,5.9,1.4,8.8,2h.1Z"/>
    <path class="st76" d="M189.3,77.4c-.5.2-.8-.1-1.1-.2.5-.2.8.1,1.1.2Z"/>
    <path class="st76" d="M187.2,77c-.3,0-.8-.2-.9-.2l.9.2Z"/>
    <path class="st26" d="M201.8,135.8c.1,0,.5,0,.9.1,1.2.5,2.2,1.5,3.4,1.9.2-1.7-1-1.7-1.7-2.5s-.7-1.3-1.2-1.8c1,.5,1.6-.3,2.6-.2.9,0,2,.8,2.5.9.3,0,.7-.3,1.1-.4,2.7-.4,2.3,1.9,3.4,2,.3,0,1.9-.2,2.5-.3s.9-.4,1.4-.4,1.1.3,1.5.2c.3,0,.3-.7.6-.8.4-.2.9,0,1.4-.2.3-.1.6-.5,1-.6.9-.1,3.2.6,4,.5.1,0,.1-.4.3-.5.2,0,1.3-.2,1.4-.2.5-.2,1.5-.1,1.3.5-2.2,1.1.8,2.1.7,3.5,0,.4-.5.8-.4,1.1,0,.1,1.1,2.2,1.3,2.3.5.3,1.1-.2,1.3-.6.1-.3,0-.7,0-.9.1-.3.6-.3.6-1s-1.5-2.5-.1-1.9c.4.2.4.9.6,1.3.5.6,1.7.9,2.1,1.3.2.1.3.7.6.9.6.4,1.7.2,2.5.7.4.3,1.5,2,1.8,2.2,2.9,1.7,6,3.7,9,5.2.3.1,1.6.8,1.6.9.3.9-.5.5-1.2.3-3.3-1.2-6.5-2.9-9.7-4.4-1-.4-2.1-.4-2.9-.7-1.1-.4-1.4-1.7-2.9-1.7s-.5.6-.6,1.4l-1.3-.7c-.5.4-1.5-.3-1.1-.9-.9-.3-1.6-.7-2.3-1.1h-.5c-.9-1.1-2.1-2.3-3.3-3.2-1.9-1.3.7,1.8,1.2,2.2.3,1.8,1.2,3.1,3.1,2.9,3.6,2.5,7.1,5.2,10.6,8l.7,1c.3,0,.5.2.7.5.7-.4,2,.7,2.1,1.3,0,.2.9.6-.9.5-2-1.1-4.4-2.1-6.3-3.3-.3-.2-.3-.9-1.4-1-1.8-.3-.8,1.1-1.8,1.5s0-1-1.2-.7c.5.9.1.7-.2,1.1-.6.7-.5.7-.2,1.6-.3.1-.5-.1-.7-.5h-.8c-2.5-2.2-4.8-4.6-6.6-7.2-.3-2.7-3.1-5.6-5.7-6.2,1.2,1.1,1.3,2.7-.7,1.7,3.1,2.5,6.2,5.6,8.6,8.8.5.2.8.5,1.1.9.6-.4,2.5.9,2.1,1.6,0,.3.3.3.5.5.7-.7,1.7.4,1.3,1.1l.7.5c.6-.3.8.1.7.7,0,.1,0,.2,0,.3,0,1.9-5.7-2.5-6.2-2.9-.7-.1-1.5-.5-1.1-1.3-2.5-1.5-4.9-3.1-7-5.1l-.5-.9c-1.7-.9-3.5-1.7-5.3-2.2l-.4-.4c-.4-.5-2.3-1.8-2.9-2.1-.7-.3-1.6,0-1.9-.7-.6-1.1.9-.7,1-.9.6-.7-3.6-2.1-3.6-.9s.2,2.5,1.5,3.3l-1.2.3c-.6-.1-4.3-1.5-4.4-1.3,0,0,0,.5-.2.7-.3.3-.8.5-1.1.9-.6.8-.9,1.9-1.7,2.6,0,1.1,1.2.5,1.2,1.7s-1.5.3-1.9.4c-.4,0-.6.9-1.4.9-.7,0-1.5-1.1-2-1.1-.6,0-1.8,1.1-2.7.9,0,.4.5.1.8.5.5.6,0,3,.4,4,.2.7,1.5.4,1.3.9,0,.2-.6.5-.8.8-.3.5-.3,1.1-.7,1.5-.2.3-1.8,2.3-1.9,2.4-1.4.7-.9-.9-1.3-1.3-.5-.5-1.6,1.2-1.9.1-.2-.7,1.1-1.3,1.1-1.6s-.3-.4-.4-.7c-.1-.8.3-1.5.2-2,0-.3-.4-.5-.3-.8.1-.7,1.2-1.3,1.9-1.1.1.2.2.4,0,.5-.6.9-1.8,2.8.2,1.5h1.2c0-1.9-.4-2.7-1.2-2.3-1.1-1.1-.4-1.1-.2-1.9.2-1.2-.5-1.3-1.3-1.7,1.5-.7.9.3,1.7.2.5,0,.9-.9,1.6-.9.4,0,.8.3,1.2.4.5,0,.8-.2,1.2,0,.7.1.9,1.1,2.1.8,0,0,1-1.2,1-1.3.1-.5,0-1.1,0-1.4,0-.1.8-.3,1-.6.3-.3.7-1.3.7-1.7.1-.2.3-.3.5-.5l.7-1.1v-.5c.4-.9,1.1-1.1,2-1.1-.8-1.4-.4-1.8.9-2.5.3-.9.6-1.1,1-.7h0Z"/>
    <path class="st119" d="M202.7,170.5c0-.5,0-.8-.3-1.2-.9-2.1-1.8-4-2.9-6.1-1.7-3.1-1.7-2.4-2.2-6.2-.1-.9-1.2-2.1-.5-3.1.2-.3.8-.3,1.1-.5.3-.3.5-1.1.8-1.3.5,0,2.9,2.7,4,2.5.4-2.1-3.9-3.8-3.9-5.3s2.3-3.2,2.8-4.4c.4-.5,1.3,0,1.5,0,.2-.1.3-.8.9-.9,1.3-.3.8.7,1,1.3.4,1.3,1,1.1,1.5,1.7,1.9,1.9,2.2,4,4.1,6,.1.2.9.9.7,1.1-2.5-.1,0,2.7.7,3.8.6.7,1.5,1.3,2,2.1,1.1,1.7,1.3,4.2,2.2,6,.3.7,3.2,3.8,2.8,4.4h-.9c.9,1.3,1.3-.1,2.5,1.3.2.3,1.4,1.8,1.5,1.9.3.5.1,1.4.6,2-1.6-.9-1.5-1.5-2.5-2.7-.9-.9-2.1-.7-2.2-.7,0,0,0-1-.2-1.4-.5-.8-2.3-1.3-2.5,0-.7,0-1.3-.5-1.7-1.6-.6-1.9-1.6-3.8-3.2-5.3-.4-2.1-1.4-3.9-3.1-5.4-.1-2.3-.7-2.8-1.7-1.5l1.7,3.3c0,.7,0,1.5-.3,2.3,2.4,3.4,5,7.4,5.1,11.7,2.7,2.9,5.1,6.2,7.3,9.4l-.3.4c0,.2-.7.1-.2.7.3.3.8.3,1.1.7s.3.9.6,1.3c.2.3.7.5.7.9s-.1.7-.3.7c-.3,0-1.5-1.3-1.7-1.4-.5-.3-1.6-.3-1.7-.4,0,0-.1-1-.6-1.1-.9-.2-.4,1.6.3,1.9.5.2,1.2-.3,1.3-.1,0,0,0,1.4,0,1.9.2.9,1.4.8.6,2.4-1.1-1.1-.3-.7-.5-1.6-.4-1.4-3.1-3.2-4-4.6-.6-.9-.9-2.3-1.2-3.1-.3-.5-2-.8-1.7-2.1l1.1-.3c-.9-.3-1.1-1.1-1.3-1.3-.5-.5-3.3-2.1-3.4-2.5.1-.9,1.3-.2,1.8-.9,0-.4-2.5-1.7-2.9-2-.7-.6-.6-1.8-1.4-1.9-.1,2,.8,4.2,1.6,6,.3.8,1.1,1.9,1.3,2.7.1.5-.3.4-.5.3-.1,0-1.1-1.7-1.3-2.1-1.2-2.3-2.3-5.5-3.8-7.4h0Z"/>
    <path class="st73" d="M210.4,143.1c.5,0,1,0,1.5.2.7.3,4.2,1.7,4.6,2.1.2.1.2.7.5.9,2.1,2,4.6,3.5,7,5.2,0,1.2.4.7,1.1,1.1.9.6,3.7,2.7,4.5,3,.4.1,1.1.3,1.3,0,.1-.1.3-.3.4-.3.5.3,3.8,2.6,3.9,2.8.3.7-.5.9-1.1.6-.1-.2-1.8-1-1.8-.6,2.3,1.9,4.6,4,6.4,6.5.8.5,1.8,1.5.7,2.1-1.3-1-3.1-2.1-4.2-3.1-.5-.4-.7-1.2-1.3-1.6-.7-.5-1.9-.5-2.5-1.1-.3-.3,0-.6-.2-.9-.5-1-2.3-1-3.2-1.5-.5-.3-.8-.9-.9-.9-.5-.1-1.1.1-1.7-.1-.3-.1-.3-.6-.5-.7-.9-.7-2.6-1.3-3.7-.7-.6.8,1.9,2.7,2.4,3.3.7.9,1.5,1.8,2.3,2.6,0,.1,0,.2-.1.3-.4.5-5.9-5.7-6.7-6.6-2.3-2.7-4.4-5.5-6.2-8.5-.9-.9-1.4-1.9-1.7-2.9-.3-.3-.3-.8-.5-.9h0Z"/>
    <path class="st119" d="M197.2,170.7c.3.7,1.3,1.1,1.5,1.7.4,1.1.5,3.1.9,4.3.9,2.9,1.7,6.1,2.7,8.9,1.1,3.3,1.7,6.8,2.5,10.2.2.9.9,2.3.9,3.3s-.1.8-.4.5c-1.4-2.8-2.3-6-3.4-8.8-1.9-5-4.1-9.7-5.7-14.9-.3-.8-.1-.7-.6-1.6-.2-.4.4-3.1.6-3.3.2-.3.8-.2.9-.3h0Z"/>
    <path class="st119" d="M210.9,143.9c2.5,2.9,3.8,5.6,6.1,8.5s5,6.2,7.7,8.6c.3.3.5.6.9.5l1.1,1.1.5.9c-.4,0-.7-.3-1-.5-2.3-1.7-4.4-4.3-6.5-6.2-.5-.5-1.7-1.1-2.1-1.5-1.5-1.5-2.3-3.6-4.5-5.2,0-.5-.7-.7-.8-1-.6-.9-1.1-1.7-1.7-2.7-.3-.4-.3-1.1-.7-1.3-.6-.5-4.4-.6-4.7-1.7s2.1-.2,2.5-.5c.5-.3-.4-1.8.3-1.5.6.3,1.9,2.1,2.8,2.3h0Z"/>
    <path class="st119" d="M197.7,163.3c.1,1.7-.8,2.1-1.1,3.6,0,.3-.3.3-.2,1,0,.7.9,1.7.7,2.3-.1.5-1.1.5-1.3,0l-2.9-7.4c.3-1-.5-2.5-.3-3.3.1-.4,2.8-1.4,3.1-1.2.2.1,2,4.4,2,4.9h0Z"/>
    <path class="st119" d="M174.1,174.8c.1-.4.1-.7.2-1.1.1-.7,0-1.2,0-1.7,0-.3.5-.6.7-.9.3-.6,0-2.1.7-2.2,1.2-.3,0,1.8,0,1.9,0,.3.6.5.7.8.4.9-.9,4.4-1.2,5.6-.1.8,0,1.6-.1,2.4s-1.5,2.3-1.5.7c0-1.1-.3-1.9-.3-2.7s.5-1.9.8-2.8h0Z"/>
    <path class="st98" d="M211.6,193.9c.3.5.6.9,1.1,1.3l1.6,4.8c-.8-1.5-1.5-3.1-2.3-4.5-.2-.4-.4-1.1-.5-1.6h0Z"/>
    <path class="st98" d="M209.7,191c-.5-.7-.9-1.5-1.3-2.3.7.5,1.3,1.4,1.3,2.3Z"/>
    <path class="st98" d="M208.1,188.2c-.3-.5-.6-1.1-.9-1.6.7.3.8.9.9,1.6Z"/>
    <path class="st98" d="M210.4,192.1c-.4-.1-.5-.5-.5-.9.2.4.3.7.5.9Z"/>
    <path class="st98" d="M215,201.2c-.4,0-.3-.5-.5-.7.4,0,.3.4.5.7Z"/>
    <path class="st51" d="M234.7,135.8c.7-.3,1.5,0,2.3.9l6.4,2.4c2.9,1.9,6.3,3.3,9.6,4.6.6.2,2.1.7,2.3.3.7.4,2.1.7,2.8,1.1.3.2.7.5.6.9-2.7-.7-5.4-1.6-8.3-1.8-1.6.7,1.1,1.7,1.8,2.1s.4.6.7.8c1.1.7,3.6.7,4.4,2.3-1.5-.3-2.3-.9-3.1-1.1-.5-.1-2.9-.2-3-.3.6-1.6-.3-1.1-1.4-1.7-.5-.2-.9-.7-1.5-.9l1.5,2.1c1.1,1.2,3.7,1.4,4.8,2.1.3.2.9,1.2,1.3,1.5.5.3,1.9.5,2.2,1.4l-1.8.2c-.3-.3-1.8-1.3-2-1.7-.1-.3,0-.6-.2-.9-.4-.4-1.4-.5-1.9-.8-4.5-2.5-8.8-6.6-13-9.7-2.4-1.8-2.4-1.7-4.6-4h0Z"/>
    <path class="st7" d="M254,135.1c0,.3.1.6.2.9.5.3.7.5.1.8h-3.2c-1.9,1.6-4.3.9-6.5.2-1.5-.5-3.8,0-1.1.8.6.9,1.3,1.4,2.3,1.7,2.7.5,4.4,1.6,6.6,2.9.7.5,1.5.9,2.4,1.2.1,0,.3.1.5.2l.6.5c-.9.5-2.9-.3-3.9-.7-1.9-.7-3.5-1.5-5.5-2.2-.8-.3-1.2-1.1-1.8-1.3-2.3-1.1-6.4-2.3-8.4-3.3-.4-.2-.5-1.1-1.6-1-.1-.2-.5-.5-.7-.7l.3-.2c1.7.5,3.6.3,5.4-.5,1-.2,1.9,0,2.9.3,2.9,1.4,5.3,2.1,8.4.9.7-1.1,2.2-1.6,2.9-.4h0Z"/>
    <path class="st88" d="M227.9,141c.6.5,1.3.8,2.3,1.1.3.3.8.6,1.1.9,3,2.9,6.3,5.4,9.4,8.2.3.3,1.9,1.8,2.1,2.1.1.3-.3.4-.3.5-.6-.5-1.3-.9-2.1-1.3-.1-.3-.4-.4-.7-.5-2.5-1.7-5-3.8-7.3-5.6-.6-.5-3.9-3-4.2-3.1-.4,0-.7.2-1.1,0-.2,0-1.5-1.1-1.7-1.3-.3-.4-.1-1.1-.4-1.6-.4-.9-2.1-1.7-2.1-2.7,0-1.4,1.3-.4,1.9.1,1,.7,2.3,2.2,3.1,3.2h0Z"/>
    <path class="st111" d="M254.7,135.1c0,.2-.1.2-.2,0-.1.4-.3.4-.5,0,0,0-.3-.2-.5-.3-1.9,0-1.5.9-2.6,1.3-.2,0-3.3.6-3.6.6-1.5,0-4.5-1.8-6.4-2.1-2-.3-4.6,1.5-6.9.5-.2-.2-.5-.2-.9-.7-.6.3-.9-.2-.5-.7,1.2.6,2.3,1.4,3.8,1.4s2.5-1,3.9-1.1c1.7-.1,3.6.8,5.4.5.9-.4,3.7,0,4.2-.5v-.4c-.8-1.1.3-1,1.3-.9s3.5,1.4,3.5,2.4h0Z"/>
    <path class="st7" d="M227.9,133.3c.5,0,.9.3,1.5.3,1.8,0,1-.9,3.3.2.1.2.3.5.5.7-1.5,1-3.2.1-4.8-.5-.5-.1-.4-.5-1.3-.5-1.3-.2-2.7.2-4,.2-1.9,0-3.7.2-5.5.2s-.6-.3-1-.3c-1.1,0-1.5,1.3-2.3,1.2-.9,0-.5-.7-.7-1.3-.4-.8-1.7-.5-2.4-.5-1.7-.3-4.2-1.3-5.6-1.5-.5,0-2.6.9-2.6-.8s.9-.7-.2-2.1c1.3,0,1.1,1.1,1.6,1.7.5.7,5.8,2.1,7,2.3,5.3.9,11.2.7,16.6.7h0Z"/>
    <path class="st105" d="M275.3,119.7c-.3.4-.3.7-.1,1.1.4.8,4.8,3.3,4,4.3,0,0-1.8.7-2.1.7l-7.6-.3c.4.3.9.7,1.4.9.9.4,2.8,1.1,3.8,1.4.9.3,4.1.7,4.4,1.3.1.2.7,1.7.6,1.8-1.3,0-1.9,1.1-2.6,1.5-1.9,1.1-4.2,1.5-6.2,2.3-.1.1-.2.3-.3.3-1.3,1-13.5,1.1-15.7,0-1.5-.9-2.9-2.2-4.8-2.1,0,.5.3.6,0,.9-.2-1.1-4.5-2.3-4.6-2.6,0-.1.2-1.1.3-1.3.5-1,3.1-.5,4-.4,4,.4,8.8,2.3,12.9,3.1,1.5.3,3.3.4,4.8.7.7.2,1-.3.5-.7-.6-.2-1.2-.3-1.8-.5l-.9-.2c-.4-.1-.7-.2-1.1-.5-1.3-.3-2.3-1.2-3.1-2.3-.9-.7-1.9-1.3-2.9-1.9,0-.4.1-.3.5-.5,1.3-.4,5.4.6,7.1.9,2.1.3,4.3.7,6.4.9,1.3,0,2.7,0,4,0,.1-.6-1.1-.7-1.5-.9-4-1.1-8.3-1.5-12.4-2.4-.6-.1-2.5-.5-1.9-1.3.9-1,2.6,0,3.6,0,.9,0,1.8-.2,2.5-.2,1.1,0,5.5,1.5,6.2.2.5-.9-.7-1.8-.6-2.4s1.1,0,1.5,0c1.9.2,1.3-1.1.3-2,.6-.1,1.3-.1,1.8-.2h0Z"/>
    <path class="st96" d="M288.1,128.7c.2.1.6-.2.7.8.1,2.3-3.6,1.2-5.3,1.7-4.2,1.2,1.3,2.3,0,4.3-1,1.5-1.7.3-2.5.1-.3,0-.7.1-1.1,0-.9-.2-1.4-.9-1.9-1.1-.7-.1-3.9,0-4.3.5-.7.9.5,1.9,1.1,2.3.9.5,3.6,1.3,4,1.9.5.7,0,2.1-1,2.1-1.9-.4-3.8-1.1-5.8-1.5-.5-.1-1.1,0-1.4,0-1.4-.3-2.9-.7-4.3-1.1-2.9-.7-5.8-1.6-8.6-2.4-1-.3-1.9-.7-2.9-1-.2,0-.2-.1,0-.2h.2c4.8.4,11.4.2,16.1-.5,1.5-.2,3.4-.4,4.9-.7.5,0,1.6-.3,2-.5.7-.2.7-1.3,1.3-1.6.6-.3,1.6-.3,2.3-.5s1.6-.7,2.1-.8c1.7-.3,4.7.9,4.6-1.9h-.2Z"/>
    <path class="st105" d="M301.5,110.4c-.3,1.7-1.3,1.8-2.5,2.5-.3.2-.6.7-.8.8-.3.1-1.7-.1-2,.3-.5.7.4.6.6.8,1.3.9,1.9,2.2.5,3.4-1.9,1.6-5,1.3-7.4,1.4-4.4.1-8.8,0-13.3,0v-.2c2.1-.2,4.8-.4,6.9-.5,3.3-.1,10.1,1.2,12.6-1.2.8-.8,1.3-1.7.2-2.5-.3-.3-2.4-.8-1.7-1.7.1-.2,4.1-1.1,5-1.6s1.4-1.5,1.9-1.5h0Z"/>
    <path class="st42" d="M276.5,119.7l3.4,2.7c-1.6.2-4.4-.8-4.1-2.7h.7Z"/>
    <path class="st119" d="M229.2,167.6c1,1.7,2.5,4,3.6,5.4.1.9.6,2.8-.8,1.3s-2.7-3.2-4-4.9c-.9-1.1-1.8-2.4-2.7-3.6-1.4-1.7-2.9-3.3-4.4-5-.5-1.3.5-.9,1.3-.5,1.2.7,3.5,2.9,4.4,4,.9,1,1.4,2.3,2.5,3.1h0Z"/>
    <path class="st92" d="M191.1,77.2c1.6,0,1.6.7,2.6,1.6.4.3,2.5,2.3,2.6,2.3.7.3,1.8,0,2.5.1.5.1.9.9,1.9,1.1,1,.1,2.1-.1,3.1,0,.7,0,1.3.6,1.9.5.8-.1,4-2.2,4.6-2.8v.5s-.6.9-.7.9v.5c-.9.3-1.8.6-2.7,1.1-.2.1-.4.2-.5.5-.5,0-1.1.5-1.7.5-.9,0-2.3-.7-3.2-.7s-.9.4-1.5.5c-.6,0-2.4,0-2.9-.3-.7-.3-2.3-3.2-3-3.8-.3-.3-1.9-1.7-2-1.8-.5-.3-1.1-.2-1.7-.7.2-.2.5-.1.7,0h0Z"/>
    <path class="st47" d="M215.2,170.5c.2.3.5.5.7.7.5.5.7,1,.9,1.6,1,1.5,1.6,3.3,2.6,4.8.7,1.1,2,2,2.8,3.5.7,1.2.7,1.6.6,3q0,.3-.3.5l-3.8-.7c0-.3-1.4-2.3-1.7-2.7-1.7-2-2.7-3.6-4.3-5.7-.3-.4-1.1-.7-1.3-1.4-.3-.6,0-.9,0-1.4-.6-2.7-1.9-5.4-3.3-7.8-.3-.6-1.7-2.1-1.7-2.6,0-.6.5-1.2.4-2.1-.1-.9-1.8-3.3-1.7-3.7,0-.2,1.5-1.4,1.8-1.2.7.7.5,1.9.8,2.6.3.6,1.9,1.9,2.3,2.6.4.8.3,1.7.7,2.5.4.9,1.8,2.1,2.3,3.1,1,1.9.5,2.5,2.2,4.2h0Z"/>
    <path class="st119" d="M216.8,172.8c-.3-.5-.8-.9-.9-1.6.5.5,1.1.6.9,1.6Z"/>
    <path class="st65" d="M187.7,150.3c.2-.3.4-1.3,1.1-.3.3.4.7,2.8.5,3h-1.4c-.5.1-.8.9-1.5.4-.1-1.9,0-1.8,1.1-2.9l.2-.2h0Z"/>
    <path class="st79" d="M217,206.2c-.3.2-.3.7-.6.9-1.1-.5-.8-1.1-1.1-1.8-.1-.3-.5-.4-.5-.5-.2-.4-.3-1.2-.7-1.7-.3-.3-1.7-1.2-1.8-1.6-.2-1,1.6,0,2,.3s2.7,2.7,2.9,3.1,0,.9-.1,1.3h0Z"/>
    <path class="st22" d="M263.3,56.6c-.7.5-1.3,1.1-1.9,1.6-.6.4-3.4,1.9-3.6,2.3-.4.7.2,1.4,0,1.9,0,.4-.7.5-.9,1.2-.2,1.1.4,1.7.4,2.5s-.5,1-.4,1.5c0,.5.6,1,.7,1.6.1.9-.5,1.6.3,2.2.5.4,2.1.7,1.8,1.6-.3,1-2.8.1-3.6.5-1.3.8-.3,2-.8,3.1,1.1.5,1.6,1.4,2.4,2.2.2.3,1.9,1.4,1.1,1.9-.9.5-4.7,0-5.6-.5-.4-.3.2-1.1,0-1.5-.2-.8-3-.1-3.7.1-.5.2-.7.7-1.3.8-.7.1-1.1-.6-1.7-.6-1.1,0-2.7,1.3-4.4,1.2-.7,0-.9-.6-1.7-.5-.5,0-3.3,1.1-4,1.3-1.7.7-3.3,1.5-4.8,2.5h-.2c-1.6.7-3.3.9-5.1.7l-5.6,1.1h-.5c-.3-.2-.8-.2-1.1,0h-.5c-2.1.2-4.4.3-6.6-.2-.3,0-.6-.2-.9-.2-1.9-.2-4-.4-5.9-.5,1-.5,2.4-.2,3.5-.2s.5-.4.9-.4c1.5,0,3.3.7,5,.4,3.1.8,2.4.4,5.2-.1,2.3-.4,3.3-.1,6-.9,1.5-.4,3.1-.7,4.6-1.1,2.7-.9,5.1-2.5,7.5-3.9,1.8-1,1.1-1.4,1.7-2.3s2.8-1.3,3.6-2.1c.3-.3.3-.8.7-1.1.7-.7,2.2-1.7,2.9-2.6.5-.7.5-1.5.8-2.1.2-.4,1.4-1.4,1.8-1.8.2-.2.3-.7.3-.7.5-.3,1.2.9,2.3.2.3-.1,1.2-1.2,1.5-1.5.5-.6,1.5-1.9,1.9-2.7.2-.3,0-.8.2-1,.5-.7,4.4-2,5.5-2.5.7-.4,1.2-1.4,2.2-1.3h0Z"/>
    <path class="st103" d="M248.8,62.9c-.3.3-.5.8-.8,1.1-.6.5-1.7.7-2.1,1.5-.3.5-.1,1.1-.3,1.2,0,.1-.7.1-.9.3-1.5.9-.4,1.5-.7,2.2-.2.4-.9.4-1.1.7-.3.4-.3,1.3-.9,1.8-.4.3-.9.4-1.4.7-.9.6-1.9,1.7-2.7,2.2-1.2.7-3,.9-3.9,2.2-.2.3-.3.9-.5,1.1-.1.1-.7-.2-1.2,0-.8.2-2.5,1.9-3.6,2.4-2,1-3.8,1.1-5.8,1.5-1,.3-2.1.9-3.3.9-.7,0-1.4-.4-2.2-.4s-1.8.5-2.7.5c-1.7,0-3.5-.5-5.2-.4-.9,0-1.5.5-2.4.6.8-.6,2.1-1.1,2.7-1.6,1.1-.2,2.2.2,3.3.3,2.5,0,5-.3,7.5-.5,3.3-.3,3.1-.1,6.1-1.4,1.9-.8,1.1-.5,2.5-1.6.5-.3,2.1-.7,2.7-1.3.3-.3.3-.9.5-1.1.3-.2,1.1,0,1.5-.3.3-.1.4-.6.7-.7.9-.5,1.9-.7,2.9-1.3,1.5-1,2.1-2.7,3.3-3.8.7-.7,2.1-1,2.4-1.9.1-.5,0-1,.2-1.3,0-.1,2-2,2.2-2.2.8-.6,2.1-1.1,3.1-1.5h.3Z"/>
    <path class="st48" d="M201.8,135.8c-.5.1-.4.7-.7,1-.8.8-1.9.3-.5,2.3-.9.8-1.9,0-2.7,1,.3-1.1.9-1.4,1-1.8,0-.3-.2-.7,0-1.1,0-.1,1.4-1.7,1.5-1.7.7-.7,1.1.3,1.3.4h0Z"/>
    <path class="st48" d="M197.2,141.7c0-.5.2-.9.7-1.1,0,.2,0,.4-.1.7s-.4.3-.5.5h0Z"/>
    <path class="st93" d="M230.4,153.5c2.4,2.1,4.7,4.4,7.5,5.9l1.3.9c.1.1.3.3.5.5l1.1.7c.7.6.9.7,1.6,1.1v.7c-.1,0-5.3-3.4-5.3-3.4-.2-.3-.6,0-.6.1,0,.2,2.5,2.7,2.9,3.2,1.1,1.3,3.5,3.7,4,5.3,0,.2.1.5,0,.7h-.9c-1.1-.9-2.3-1.6-3.4-2.5.4-1.3-.7-1.4-1.1-1.9-1.5-2-2.5-3.1-4.4-4.8-.5-.5-4-2.7-1-2.4,1,0,1.3,1,2.1.8l-4.1-2.8c-.4,0-.5-.5-.7-.7l-.7-.5c-.3-.4-.2-1.1.2-1.3.2.2.5.3.7.5h0Z"/>
    <path class="st72" d="M324.2,64.1c-1.3-1.2-.7-2.3,1-1.3,3.9,2.6,7.8,5.4,11.7,8.2-.3-2.1-2.1-3.8-3.8-5l-6.6-4.2c-3.2-2.3,0-1.7,1.8-.9,3.2,2.2,6.5,4.3,9.8,6.2l-.7-1c-1.5-1.2-3.1-3.8.3-2.5-.3-.4-.3-.8,0-1.1.4.2,1.5.5,1.9.9s.3,1.1.6,1.3c.4.4,1.3.2,1.1,1.6-4.6-1.9-.5,1.3-.7,2.3-.3,1.2-1.7-.1-2.5.1-.3.7,1,1.6.9,2.1,0,.1-1,1.1-1.1,1.2-.7.3-2.5-1.5-2.7-.5-.1.6,2.1,2.5,1.1,3.5-1.1,1.1-2.8-1.1-3.8,0,.6,1.2.9,2.3.2,3.6-2.5,1.1-2.3-1.7-4.8-1.8-.1.5.4.8.5,1.3.3,1.5-1.5,1.8-2,2.9-.6.3-1.1-.6-1.5-.8-2.1-.6-2.1,1.9-2.4,2-1.7-1.5-2.5-.3-3.2,1.3-.3-.5-.8-.4-1.3-.5-.5.2-.9.3-1.6.5-.5.5-.9.7-1.4.9-.6-.2-.7-.9-.2-2.1-.6-1.7.3-2.8,2-2-.5-2.5-1.2-6.4,2.6-3.6,1.4,0,2.4.6,3.5,1.4l-4.9-6c-.3-.5-.2-.9.4-1.2.8-.3,5.8,3.6,6.6,4.4-.3-.7-.9-1.3-1.5-1.9v-.5c.1,0-.3,0-.3,0-2.3-1.4-7.7-7.5-1.1-5,4.4,3.1,5.1,3.3,2,.7l-2-1.5v-.7c-.9-.9,0-1.7,1-1.2,3.6,2.9,7,5.8,10.6,8.6,0,0,.9.4.9.4.9-.3-2.3-4.2-2.6-4.5-.6.3-.8.1-.5-.5l-1.1-.9c-.5.5-1.2,0-.9-.7l-1.1-.9c-.5.5-1.2,0-.9-.7l-2-1.3c-.5.5-1.5-.2-1.1-.9h0Z"/>
    <path class="st115" d="M317.6,45.6s.3,0,.6-.2c.5-.4.9-1.3,1.7-1.1-.1,1.9-.2,4-2.1,5.1-.9.5-2.9,1-3.5,1.7-.1.1-.2.3-.3.3.7.8,1.3.8,2,1.1.3.1.5.7.9.5,0,0,0-.4.2-.4,1.1-.3,1.9.1,2.7.2.3,0,.5-.3.9-.4,1.5-.3,1.5.3,2.4.9.4.2,1.1.3,1.3.5.4.3-.1,1.4.4,1.8,4.4,1.9,8.6,4.4,12.8,6.8l.9,1.6c-.7.2-1.3-.3-1.9-.5-.3,0-.7-.1-.5.3.7.8,2.6,2.5,2.7,3.4,0,.7-1.7-.3-2-.5-2.6-1.5-5.6-3.9-8.4-5.5-.8-.5-2.1-.9-3-1.2,0,.5,1,1.1,1.4,1.5,2,1.4,4.2,2.6,6.2,4,.4.3,1,.3,1.4.6.1.1,2.3,2.5,2.3,2.7.2.3,1.1,2.6.3,2.7-2.5-1.7-4.8-3.7-7.3-5.4-.7-.5-1.5-.7-2.3-1.3-1-.7-2.5-2.9-3.6-1.8.3.2.3.8.5,1l-.4.3c-2.1-1.7-4.3-3.3-6.5-5-.2-1.3.6-1.1,1.7-.4,4.4,1.5,8.3,4.2,12,6.8,0,.2,1.5.7,1.5.6-5.4-3.7-11-7.3-16.4-10.8-.8-.5-1.9-1.3-.4-1.7,2.1.5,4.1,1.5,6,2.6h.3c.2-.6.6-.9,1.3-1,0-.2-4-2.1-4.2-2,0,1.9-6-1.2-6.2-1.5-.7-.8,0-1.4.7-1.9,1.7,0,5-3.9,1.5-1.3l-.5-.2c.9-1.1,1.9-2.1,2.9-2.9h0Z"/>
    <path class="st80" d="M330.9,49.8c.2.2.3.9,0,1,0,0-1.6.7-1.7.7-1.5.3-3.6.4-5,.5-.1-.6.1-.4.5-.5.7-.4,4-1.7,4.7-1.9.5,0,1.3,0,1.6.3h0Z"/>
    <path class="st92" d="M184.1,75.4c.5.1.8.3,1.3.5l.7.2h.5l.9.2c.3,0,.6.1.9.2l1.6.2v.2c-3-.1-5.9-1.3-8.8-2-.1-.1-.4-.2-.5-.5,1.1.3,2.3.6,3.4.9h0Z"/>
    <path class="st114" d="M190,76.7c-.7.1-1.1-.1-1.6-.2.5,0,1.3-.2,1.6.2Z"/>
    <path class="st114" d="M191.1,77.2h-.7c0,0-.1-.1-.2-.2.3,0,.7-.1.9.2h0Z"/>
    <path class="st114" d="M187.4,76.3l-.9-.2c.5,0,.6.1.9.2Z"/>
    <path class="st114" d="M186.1,76.1c-.3,0-.5,0-.7-.2.2,0,.5,0,.7.2Z"/>
    <path class="st69" d="M299.9,86.7c1.7.8,3.7,1.6,5.4,2.7,1.4.9,3.1,1.6,2.5,3.4-.6,2-1.5,1.4-2.9,1.3-.3,0-.7.3-1.1.2-1.6-.2-2.9-2.5-3.6-2.8s-.8.2-1.2.1c-1.5-.2-2.5-.5-3.1-1.9-.5-1.1-1.1-2.6-1.5-3.8-.1,0-.3,0-.3,0-1.7-2.6,0-2.3,2-1.5,1.3.5,2.9,1.4,4,2.1h0Z"/>
    <path class="st94" d="M294.2,88.3c.1.1.3.3.5.5-.3.7.5,1.5.5,1.9s-.8,1.5-1.1,1.8c2.3,2.2,6,1.5,8.8,2.4,0,0-.1.3-.2.3-.8.4-4.4.5-5.4.3-.9-.1-2.2-.8-2.9-.9-.6,0-1.3.4-2,.5-1.9.2-3.9-.5-5.6-.4-1.5,0-2.9.7-4.1,1-.9.2-1.9-.4-2.9-.1-.6.2-1.5,1.4-2,1.6-.5.3-1.8.4-2.5.6h-.2c0-.3.3-.5.9-.7,0-.2.1-.2.2,0,.7-.1,1.3-.3,1.8-.7-.3-1.1,1.5-2,2.6-2,2.9.1,5.3-.5,8-1.5.9-.2,2.7-.7,3.6-.7.1,0,.2,0,.3.2,2.9-1.1,1.9-2.4,0-3.9,0-.1-1.1-2.3-.6-2.2.7,0,1.3-.3,1.7-.7.5.3.5.9.2,1.9l.5.9h0Z"/>
    <path class="st13" d="M314.9,84.5c.3-1.1,1.3-1.5,2.4-1.6.3,0,.5.2.5.2.3,1.4-.8,1.5-1.5,2.3-.3.4-.3.9-.8,1.1-.3-.1-1.4-.2-1.8-.2-2.7-.1-5.4.1-8.2.9-3.6.4-7-1.1-10-2.7-1.3-.5-3.1-.9-1.9.9v.2c0,1.1-.7.8-1.3.9-.9.1,0,.6.3,1.1.1.3,0,.6.3.9.5.7,1.9,1.4,1.8,2.5-.2,1.2-1.3,1.3-2.2,1.5v-.3c1.3-.8,1.3-1.1.9-2.4-1.3.5-3.9-2.7-2.9-3.8.3-.3.6-.3.8,0,.5-.3.8-.8.9-1.3-1.1-.1-.6-2.7.7-2.2l5,1.9c1.7.8,3.5,1.7,5.4,1.3,3.6-1,7.4-1.5,11.1-.5,0-.4,0-.7.5-.7h0Z"/>
    <path class="st20" d="M313.7,86.3c-3.6,0-6.6,1.3-9.9,1.4-1.1,0-2.7-1.3-4-.9-1.3-.6-3.1-1.6-4.4-2.1-.5-.2-2-.7-2,.1s.5.8.7,1.3c-.3.8,0,1.5,0,2.3-.2-.2-.8-.5-.9-.8,0-.5.7-.7.1-1.9-.3-.6-1-1.1-.9-1.8,2.3-.4,4,1.3,6,2.1,5.9,2.3,8.6,0,14.1,0,.3,0,.8.1,1.1.4h0Z"/>
    <path class="st40" d="M239.2,160.3l-1.3-.9c.8.4.5.1,1.3.9Z"/>
    <path class="st40" d="M240.8,161.4c-.6,0-.8-.3-1.1-.7.7,0,.8.4,1.1.7Z"/>
    <path class="st51" d="M254.4,135.1v.2c-.1.2-.1.5-.2.7.5.2,1.5.3,1.3.9h-4.4c0,0-.4.3-.3.5.2.7,4.6,1.1,5.3,1.3.6.1.8.6,1.3.8,1.1.4,2.3.4,3.5.7-.7,0-1.5,0-2.1,0-1.4-.3-5.6-1.4-6.8-1.1-1.3.4,1.2,1.9,1.7,2.2l-.9.8c0,.1,1.9,1.3,2.3,1.5-1.9,0-3.2-1.5-4.7-2.2-1.8-.9-4.9-1.3-6.2-2.4-.3-.3-.4-.7-.7-.9-.4-.3-1.3-.2-1.3-.9-.2-2.3,5,.1,6,.1s2.3-.6,3.2-.7c.5,0,2.9,0,3.1,0v-.7c-.6-.3-1.1-.3-.2-.9h.5-.3Z"/>
    <path class="st51" d="M259.7,150.3c-.7-.2-1.5-.3-2.1-.9.8.1,1.6,0,2.1.9Z"/>
    <path class="st36" d="M268.3,143.3c.3.3.4.3.7.7.2.3.3,1,.9,1.3-.1.9-1.4.5-2,.2-2.7-1.2-3.3-5.6.4-2.1h0Z"/>
    <path class="st83" d="M360.3,119.4c-.5.2-1.8-.7-1.3-1.1.3-.3,1.5.6,1.3,1.1Z"/>
    <path class="st39" d="M156.8,228.4c.2.2-.1,1.1-.3,1.3-.7.9-7,2.7-7.6,2.3.2-.7,1-1.5,1.5-2,1.5-1.5,3.2-2.9,4.5-4.6,1,.2.3,1.1.3,1.7,0,1.3,1.5,1.1,1.6,1.3h0Z"/>
    <path class="st108" d="M338,56.6c-1.1-.3-2.3,0-3.1-.7.3,0,.7.1,1,.2.7,0,1.6-.5,2.1.5h0Z"/>
    <path class="st108" d="M334.6,55.9h-1.6c.3-.4,1.3-.4,1.6,0Z"/>
    <path class="st109" d="M314.6,48.6c.5-.3,1.8-1.3,2.1-1.3.7-.1.3.9,0,1.2-.9,1.9-3,1.5-3.8,2.7-.1.2-.4.1,0,.5,1.3.3,4.2,2.5,5.3,2.1.4-.1.1-.9,1.1-.7.2,0,2.3,1,2.6,1.2.3.1,1.7.9,1.8,1,.5.6-1.4.6-1.6,1,0,.3,2.7,1.9,3.2,2.2.4.2,1.9.8,2,.9.1.2-.1.5-.3.7-2.8-1.3-5.5-3.2-8.3-4.6-1.1-.6-2.3-1-3.6-1.3,0,.3.2.6.5.8,1.3,1.1,4.1,2.4,5.7,3.4,3.9,2.5,7.6,5.2,11.5,7.6.5.9-.5.8-1.2.5-1.3-.5-4.3-2.9-5.8-3.8-2.7-1.5-5.5-2.9-8.2-4.2v.7l6.5,4.8c.3.5.7.6,1.1.9l2,1.3c.3.2.5.4.9.7l1.1.9c.3.2.5.4.9.7l1.1.9c.2.2.3.3.5.5l1.8,2.2c.9.9,1,2.6-.5,1.7-1.7-1.5-13.1-11.4-14-10.5.8.9,1.7,1.7,2.6,2.5,0,.2,0,.4,0,.6.8.7,1.7,1.3,2.5,1.9s4.8,4.2,5,4.8c.3.7-1,0-1.2-.1-.7-.5-.7-1-1.1-1.3-.9-.7-1.9-1.1-2.8-1.7-1.5-1-3-2.6-5-2.3,0,0,.1,1.1.3,1.3.7,1.1,2.9,2.8,4,4,.3.4-.1.9-.5.9s-7-4.9-7.5-5.5c1.5,1.2,2.2,2.7,2.2,4.6l.8,2c.2,1-.5,1.2-1.3.8-1-.8-2.1-1.6-3.1-2.3.4,1.3.9,2.7,1.5,4.1s0,2.1-1.3,1.1c-.3,1.1-.6,2.3-.9,3.5.5,2.7,0,3.1-2.7,2.5-2-.5-4-.6-6.2-.3-4.2.8-7.8,0-11.6-1.8-.4,0-.8,0-1.2,0-.3,1.8-1,3.2-2.8,3.8.7.5,1.3,1.2,1.7,1.9l1.9,1.9c.3.5.6,1,0,1.5,0,.5-.5.9-1.5,1-.8.2-2.7.7-3.3.1.6-.6,4.6-.7,3.1-2.2-.1-.1-3.2-1.7-3.6-1.8-.3,0-2.7-.7-2.9-.7-1,0-1.3,1.2-2.3-.8,0-.5,2.3-.1,2.3-1.6s-.8-1.2-.2-1.6c.3-.2,3,.7,4.3-.7.3-.3.3-.7.5-1,0,0,1.5-1,1.7-1,1.2-.4,2,.5,2.9.6,2.5.2,5.6.2,8.1.5,1.2.1,2.7.8,3.9.9.9,0,1.7-.3,2.5-.2.7.1,2.9,1.5,3.4.5.1-.3-.3-1,0-1.7s1.5-1.1,1.5-2.5c0-1.1-.7-2.1-.7-2.7,0-.5.7-.6.7-1.3s-1-2.3-.9-2.9.9-.5,1.2-.9.3-1,.4-1.4c.1-.3.5-.5.6-.8.2-.7-.6-1.5-.4-2.3.3-.3,2.1,1.5,2.5.3.5-1.5-1.9-2.7-1.3-3.3l2,.5c0,0-.6-1.8-.7-1.9-.3-.5-2.3-.9-1.8-2.4,2.1,0,3.6,2.5,5.7,2.3,0-.5-.3-.7-.6-.9-.8-.7-4.8-2.7-4.4-3.8.3-1.1,3.3,1.1,4.2,1.2,1.7.3-1.1-1.5-1.4-1.7-1.6-1-3.8-2.3-5.3-3.3-2.1-1.6-.4-1.9-3.9-1.9.2-.1.5-.3.7-.5,2.3-.9,2.9-1.3,5-2.7h0Z"/>
    <path class="st109" d="M308.2,51.7c-.8.4-2.4.4-3.1,0h3.1Z"/>
    <path class="st4" d="M257,95.4c-.9-.4-2.7-1.2-2.9-2.2-.1-.6,1.2,0,.9-1.3,0-.3-1.4-.5-1.6-.9,1.3-1.5,4.7-1.3,6.4-.7.4.1.6.6,1,.8,2.5,1.1,5.5,2.1,7.8,3.5,2.7,1.5,3.7,3.4,7.4,1.9,1.5-.6,1.7-2,3-2.4,1.9-.6,3.5.2,5,0,1.1-.1,2.7-1.1,3.8-1.3,1.7-.4,3.4.2,4.8-1.1,0-.3,0-.6.3-.7-.3-.6-.4-1.3.4-1.1,1.3,1.4.3,1.8-.9,2.7-2.3.6-3.8,1-6.1,1.7-2.3.8-3.7.6-6,.8-1.3.1-1.6.7-2.4,1.5-.5.4-1.1.5-1.8.7h-.2c-.3.3-3.3,1.1-3.4.9-.1-.1-.2-.3-.2-.5h-1.2c-3-2.5-6.5-4.4-9.9-6.2,0,.2-.1.2-.2,0-1.3-.8-2.8-.9-4.3-.7.7.8.7,1.8,0,3.1.2.5.3,1,.4,1.5h.1Z"/>
    <path class="st56" d="M260.8,91.5c-.2.4-.7.4-1.6,0-.5-.3-.9.3-1,1.5-1.3,1.1-.6,2,2.2,3,1.9.5,3.5,1.5,5,2.7,2.4.7,4.9,1.1,7.4,1.4v.5c-2.7-.3-5.2-.5-7.9-1.3s-1.8-1.1-2.8-1.6c-1.7-.9-3.8-1.1-5.2-2.5-2-2.1.3-2.2-.4-3.8,0-.2-1.5-1,.3-1.2,1.5-.2,2.8.2,4,1.1h0Z"/>
    <path class="st70" d="M231.5,83.6c-1.3,1.2-3.1.7-4.6.9-2.1.3-3.8.8-6,.9l5.6-1.3c1.7.3,3.4,0,5.1-.5h0Z"/>
    <path class="st46" d="M275.1,75.6c1.1-.5,3.4,1.5,1.5,1.6-.9,0-1.6-.7-1.5-1.6Z"/>
    <path class="st70" d="M236.5,81.1l-4.1,2.4c-.2.1-.5,0-.7.1.7-.5,1.9-1.6,2.5-1.9.6-.3,1.6-.4,2.3-.6h0Z"/>
    <path class="st70" d="M218.8,85.4c-.3.4-.9.2-1.3.2-1.7,0-3.8.3-5.4-.5,2.2.3,4.4.3,6.6.2h0Z"/>
    <path class="st70" d="M220.4,85.4h-1.1c.1-.3,1-.3,1.1,0Z"/>
    <path class="st64" d="M264,131.7c-1.5.2-2.7-1-3.1-2.3,1,.7,2.1,1.7,3.1,2.3Z"/>
    <path class="st64" d="M267.8,132.8c.6.2,1.8.3,1.8,1.1-.8.1-1.6-.3-2.3-.5.7,0,.9,0,.5-.7h0Z"/>
    <path class="st64" d="M266,132.4c-.3,0-.5,0-.9-.2l.9.2Z"/>
    <path class="st23" d="M280.1,118.3v.2c-.9.1-.9-.3,0-.2Z"/>
    <path class="st111" d="M243.3,131.7c.6.6-1.5,1.5-2,1.5-1.2.2-5.1-.4-6.3-.9-.2,0-1.6-.8-1.3-1.1,1.2.3,2.5.1,3.8.3,1.1,0,3.1.6,4.1.7.5,0,1.1-.5,1.7-.4h0Z"/>
    <path class="st27" d="M260.8,91.5h.2l6.4,3.5c1,.7,2.6,2.3.4,2.3-.3.8,2.8.3,3.2.2h1.1c1.3.5,2.2,0,3.6-.3l-.9.7c-.4.5-1.1.9-2.1,1.1,2.1.9,4.2,1.6,6.6,1.2,1.1,1.1,1.5,1.1,2.8.1,1,.4,1.9.4,2.5,0,1.1.5,1.8.3,2.1-.4.3-.1.4-.1.7-.1s2.9,1.2,3.5,1.5c.9.4,1.4.7,2.3,1.2,1.5,1.5,3.6,2.3,5.9,2.4,1.9,1.4,3.9,2.1,6.1,1.1.6,0,1.5-.2,1.6.5.3.5-.1.8-.7.9l-3.1-.3c-3.2-.9-6.4-1.9-9.5-2.9-2.6-.8-6.1-2.2-8.8-1.9-.7,0-1.3.7-1.8.7-.5,0-3.3-1.5-4.4-1.7-1.8-.4-4-.3-5.8-.5-.9-.6-2.2-.3-3.2-.5-.9-.1-3.8-.7-4.4-1.1-.6-.3-1.7-1.3-2.4-1.7-.7-.4-1.9-.7-2.7-1.1-.5-.2-2.4-1.2-2.6-1.3-1.1-1.1-.1-1.5.3-2.1.3-.5.3-1.7.6-1.9.4-.3,1.9.2,2.5.3h.1Z"/>
    <path class="st17" d="M318.7,107.4c1.1-.1,2.7-.5,3.6-.6.4,0,.9.3,1.3.1,0,0,1.1-1.5,1.1.2h-1.1c-.3,1.3,1.3,1.3,2.3,1.6-.1,0-.3.3-.5.3s-1.7-.5-1.9-.8-.4-.9-.5-1c-.3-.2-3.6.7-4.3.7.5,2.1-.3.9-1.3.9s-1.8.7-2.7.7c-.8,0-1.5-1-2.1-1.1-.2,0-2.1-.3-2.2-.3-.3,0-.6.5-1.1.5-.3,0-.6-.4-.9-.5-1.9-.3-3.1-.4-5.1-.9,1.3-.3,2.9.4,3.9-.7l.5-.4c2,0,3.8.6,5.6,1.4.6.5,2.5,1.1,3.3.7.6-.7,1.5-1.1,2.3-.8h0Z"/>
    <path class="st119" d="M184.1,171.1c-.7-.4-.8-3.1.3-3.1s.5,2,.8,2.6c0,.5-.7.7-1.1.5h0Z"/>
    <path class="st60" d="M178.4,173.9c0,.5-.2,1.7-.7,1.9-.3.2-1.3,0-1.5-.3-.7-1,1.5-1.6,2.1-1.6h0Z"/>
    <path class="st60" d="M181.1,175.8c-.9-.3-.8-2.2.1-2.1.8.1,0,1.6-.1,2.1Z"/>
    <path class="st119" d="M174.3,183.9c.1.1-.5,1.5-.5,1.8-.9-.5,0-2.4.5-1.8Z"/>
    <path class="st45" d="M307.8,96.8c1.7.3,6.6,2.5,8.2,3.4,1.1.7,3.6,2.1,2.3,3.8-.6.7-4.5.9-5.5.7-2.1-.5-2.3-2.4-3.3-3.1-.6-.4-1.1.1-1.8-.2-1.1-.4-1.7-1.5-2.5-2.1-.7-.5-2.9-.9-1.9-1.7.8-.6,3.5-1,4.6-.8h0Z"/>
    <path class="st53" d="M321.2,106.5c-.2,0-.2-.1,0-.2.5,0,1-.1,1.6-.2.5,0,.9,0,1.3-.2h.2c.5-.1,1-.3.7-.9-.1-.1-.3-.2-.2-.5,0,0,.3,0,.5.1.4.3.7,1.2.3,1.6-.1.1-3.8.3-4.3.3h0Z"/>
    <path class="st3" d="M274.9,97.8h.2c-1.3.7.5,2,1.3,2.1,1.4.1,3.6-.4,5-.3,1.1.1,2,1.1,3.3.7.2-.2-.9-1.7.5-1.5.3,0,.5.3.7.3.6,0,1-.3,1.9,0,.3,0,1.5.8,1.9,1.1.5.4.7,1.3,1.9.3-.5-.6-.6-1.2.3-1.4s1.1.5,1.5.7c.7.3,3.5,1.5,4,1.5s1.7-.3,2.1.2c.2.2-.2.7-.5.7s-.9-.5-1.3-.5c-1-.2-2.2-.2-3.2-.5-.7-.1-1.9-1.5-2.4,0,.1.8,2.7,1.4,3.3,1.9.3.2.1.6.4.8.7.5,3.1.7,4,1.1.6.3,1.1,1,1.9,1.3,1.1.3,1.5,0,2.4-.1.3,0,.6.3.7.2,0,0,.1-.6.5-.8s.8.3,1.1,0c.2-.2.2-.8.4-.9.8-.6,3.6,1.7,4.4,1.9.6.2,1.3.1,1.7.3.3.1.3.6.5.7,0,0,2.2.7,2.3.7.9,0,.7-1,.9-1.1.6-.2,1.9,0,2.9-.3.5-.1.7-.5,1.5-.6v.2c-.5.9-1.7.4-2.5.9-1.1.1-1.6,1.1-3.1,1.1-2.5,0-3.9-1.4-6-1.7-.9-.1-1.8-.1-2.7-.3-2.3-.3-3.5.7-5.6-.1-.7-.3-1.9-1.3-2.5-1.4-1.2-.3-2.3,0-3.9-.7s-1.9-1.6-2.5-1.9c-.1,0-1.8-.7-2.4-.9s-2.1-1.1-2.5-1.1-.4.7-1,.8c-.5,0-.9-.3-1.3-.3s-2.3-.2-2.5-.1c-.4,0-1.1.8-1.9.8s-1.1-.9-1.7-1c-.4,0-1.1.2-1.7.1-.9,0-1.7-.5-2.5-.7-1.1-.2-.8.2-1.9-.5-.3-.2-1.3-.2-.5-.9.3-.3,1.9-.6,2.4-.7h0Z"/>
    <path class="st3" d="M322.6,103.3c0,0,.1.1.2.2-1.1-.3-1.8,0-2.9-.9.9,0,1.8.3,2.7.7h0Z"/>
    <path class="st53" d="M322.6,103.3c-.9-.3-1.8-.5-2.7-.7,0,0-.1-.3-.2-.5l2.9,1.1h0Z"/>
    <path class="st3" d="M323.7,103.8c-.2,0-.5-.2-.7-.2l.7.2Z"/>
    <path class="st107" d="M229.7,153c0,.3.5.7.5.8,0,.2-.8.3-.7.6-.6-.5-.4-.8-1.3-1.1-.2-.1-.3-.2-.5-.5-.5-.7-1.3-1.1-2.1-1.6-.3-.4-.7-.7-1.1-.9-2.7-2.6-5.4-5.3-8-8-.5-.5-1.5-.5-1.5-1.8l2.1.9c.5-.6-2-1.9-.8-2.3.1,0,1.9.5,2.1.6.5.3,3.6,3.3,3.8,3.8.6,1.4,0,1.7,1.4,3.3,1.7,2,4.2,4.4,6.2,6.2h0Z"/>
    <path class="st29" d="M227.9,141c.5.5,1.1.1,1.4.3.2,0,.5.6.8.9-.6,0-1.9-.3-2.2-.7-.1-.1,0-.3,0-.4h0Z"/>
    <path class="st44" d="M188.6,153.2c.5.5-.4,1.4-.9.9-.4-.3.5-1.3.9-.9Z"/>
    <path class="st73" d="M225.6,151.2c-.5-.4-.6-.4-1.1-.9.5,0,.9.5,1.1.9Z"/>
    <path class="st73" d="M230.2,154.9c-.1-.1-.3-.1-.7-.5l.7.5Z"/>
    <path class="st117" d="M240.4,152.4c-.3-.1-.5-.3-.7-.5.3,0,.6.1.7.5Z"/>
    <path class="st73" d="M228.1,153.2c-.8-.3-.2-.1-.5-.5l.5.5Z"/>
    <path class="st116" d="M323.5,72.9c.3.4.7.6,1,.9.6.7,1.1,2,1.9,2.6,0,.2-.2.1-.3.1-1.3-.4-3.8-2.9-5-3.8-.3-.1-2.2-1.3-2.3-1.3q-.4-.1-.7.3l6.4,7.8c-.5.4-2.9-1.8-3.7-2.1-.6-.2-1.1,0-1.6-.2-.7-.2-1.3-1.1-2.1-1.1-.5.1-.2,2.7-.1,3.3,0,.6.5,1.1.4,1.7-.2.2-1.9-1.2-2.4-.2-.2.5.1,1,.1,1.5,0,.7-.5,1.5-.3,2.1-.1.3.2,1.1-.3,1.3-1.9-.8-3.6-.8-5.7-.7-1.9,0-3.1.4-4.8.9-3.1.7-5.2-.8-7.7-1.9-.5-.2-3.3-1.4-3.6-1.4-.9.1-.7,1.4-.6,2,0,.5-.2,1-.9,1.3-.3,0-.7.2-.7.5,0,0,.7,1.6.8,1.7.3.5,1.3.7,1.9,1.4-.5.2,0,.8,0,1.2,0,.3-.5.4-.7.6,0-1.3-1.5-2.1-2.3-3.1-.3-.3-.3-.7-.5-.9-.4-.4-1.1-.3-1.3-1.1s.8-.7,1.3-1.1c1.3-.9,1.3-2.9,1.6-3.2.5-.4,2.3.7,3,.9,2.7.9,4.8,1.5,7.6,1.1,1.9-.2,4.4-.3,6.3-.3s3.6.9,4.3.7c.8-.3.1-1.7.2-2.3,0-.9.9-2.4.8-3.5.5-1.2,1.4.2,1.7,0,.2-1-2.3-5.1-1.8-5.7.3,0,.6,0,.9.1.5.2,2.1,1.7,2.8,2.1.3.2.5.3.8.2.1-.1-.7-2-.9-2.4-.1-.5,0-1.1-.1-1.7-.1-.4-2.3-2.9-2-3.1l1.1.3,6.7,4.9.6-.5h0v-.3Z"/>
    <path class="st115" d="M321.9,66.5c-.9-.9-2.1-1.9-2.9-2.8-.2-.3-.5-.3-.5-.8.4,0,.7,0,1.1.1,3,1,8.4,5.8,10.9,8,.5.4,2.6,2.8,2.8,2.8s.6,0,.6-.1c.1-1.3-2.2-2.3-2-3.8.4.3.9.5,1.3,1,.8.8,1.8,2.3,1.7,3.6-.1,1.3-1.9-.7-2.5-1.1-1.6-1.1-2.3-1.3-3.8-2.6-.9-.8-5.5-5.1-6.2-5.1s-.6.5-.6.9h0Z"/>
    <path class="st115" d="M331.4,69.5c-.5,0-.9-.5-1.1-.9.2.1.6,0,.9.3.2.2.2.5.2.5h0Z"/>
    <path class="st115" d="M329.4,67.9c-.3-.2-.9-.3-1.1-.9.3.2.9.3,1.1.9Z"/>
    <path class="st115" d="M327.3,66.3l-2-1.3c.7.5,1.3.9,2,1.3Z"/>
    <path class="st3" d="M324.2,105.8c-.3.4-.9.2-1.3.2.5,0,.8-.1,1.3-.2Z"/>
    <path class="st3" d="M325.1,104.9c.2.2.6.2.5.7-.4.1-.7.2-1.1.2.5-.3.9-.2.7-.9h0Z"/>
    <path class="st27" d="M277.8,96.5c-1,.9-.6.5-1.8.7l1.8-.7Z"/>
    <path class="st4" d="M291.2,86c-.3-.9.7-.7.9-1.3,0,0,.3.3.3.5,0,1.1-.7.6-1.1.8h0Z"/>
    <path class="st56" d="M261.1,91.5c2.5.8,6.3,3.1,8.7,4.6.9.5,1.3,1.2,2.4,1.5-.5.4-3.8.7-4.1.6-.3-.1-.6-.7-.9-.9-.4-.2-.8,0-1.3-.3-.5-.3-1.3-1.4-1.9-1.7,0-.5.1-.4.5-.3.7.3,3.5,2,3.7,1.9,1.1,0-.9-1.5-.9-1.8-2.2-1-4.3-2.3-6.2-3.6h0Z"/>
  </g>
</svg>